<svg width="195.000000" height="140.000000" viewBox="0 0 195 140" fill="none" xmlns="http://www.w3.org/2000/svg" xmlns:xlink="http://www.w3.org/1999/xlink">
&#x9;<desc>
&#x9;&#x9;&#x9;Created with Pixso.
&#x9;</desc>
&#x9;<defs>
&#x9;&#x9;<clipPath id="clip201_6592">
&#x9;&#x9;&#x9;<rect id="booked-deals" width="195.000000" height="140.000000" fill="white" fill-opacity="0"></rect>
&#x9;&#x9;</clipPath>
&#x9;</defs>
&#x9;<g clip-path="url(#clip201_6592)">
&#x9;&#x9;<g opacity="0.300000">
&#x9;&#x9;&#x9;<path id="Vector" d="M94.38 108.7C92.97 108.73 91.58 108.4 90.33 107.74L24.93 69.98C24.39 69.78 23.92 69.41 23.58 68.93C23.25 68.45 23.07 67.88 23.07 67.3C23.07 66.71 23.25 66.14 23.58 65.66C23.92 65.18 24.39 64.82 24.93 64.61L106.61 17.46C107.87 16.84 109.26 16.52 110.67 16.52C112.07 16.52 113.46 16.84 114.72 17.46L180.12 55.22C180.66 55.42 181.13 55.79 181.46 56.27C181.79 56.75 181.97 57.32 181.97 57.9C181.97 58.48 181.79 59.05 181.46 59.53C181.13 60 180.66 60.37 180.12 60.58L98.44 107.73C97.19 108.4 95.8 108.73 94.38 108.7Z" fill="#B8D6D3" fill-opacity="1.000000" fill-rule="nonzero"></path>
&#x9;&#x9;</g>
&#x9;&#x9;<path id="Vector" d="M180.89 56.62C180.6 56.23 180.24 55.91 179.82 55.66L114.43 17.92C113.26 17.33 111.97 17.02 110.67 17.02C109.36 17.02 108.07 17.33 106.9 17.92L25.23 65.12C24.92 65.29 24.63 65.51 24.38 65.77L23.68 65.77L23.68 67.24C23.72 67.71 23.89 68.15 24.16 68.54C24.43 68.92 24.8 69.22 25.23 69.41L90.62 107.18C91.79 107.77 93.08 108.07 94.39 108.07C95.69 108.07 96.98 107.77 98.15 107.18L179.86 60.06C180.29 59.87 180.65 59.57 180.93 59.19C181.2 58.81 181.36 58.36 181.41 57.89L181.41 56.42L180.89 56.62Z" fill="#ACCBC8" fill-opacity="1.000000" fill-rule="nonzero"></path>
&#x9;&#x9;<path id="Vector" d="M98.15 105.74C96.98 106.32 95.69 106.63 94.39 106.63C93.08 106.63 91.79 106.32 90.62 105.74L25.23 67.99C23.17 66.79 23.17 64.84 25.23 63.65L106.9 16.49C108.07 15.9 109.36 15.6 110.67 15.6C111.97 15.6 113.26 15.9 114.43 16.49L179.86 54.24C181.92 55.44 181.92 57.4 179.86 58.59L98.15 105.74Z" fill="#B8D6D3" fill-opacity="1.000000" fill-rule="nonzero"></path>
&#x9;&#x9;<g opacity="0.300000">
&#x9;&#x9;&#x9;<path id="Vector" d="M97.51 102.78L31.07 64.42L112.35 17.5L178.78 55.86L97.51 102.78Z" fill="#B8D6D3" fill-opacity="1.000000" fill-rule="nonzero"></path>
&#x9;&#x9;</g>
&#x9;&#x9;<path id="Vector" d="M97.51 101.91L31.07 63.55L112.35 16.64L178.78 54.99L97.51 101.91Z" fill="#F0F9F8" fill-opacity="1.000000" fill-rule="nonzero"></path>
&#x9;&#x9;<path id="Vector" d="M96.84 99.78L34.77 63.94L107.58 21.9L169.65 57.74L96.84 99.78Z" fill="#FFFFFF" fill-opacity="1.000000" fill-rule="nonzero"></path>
&#x9;&#x9;<path id="Vector" d="M160.38 62.29L99.74 27.28L103.75 24.97L164.38 59.98L160.38 62.29Z" fill="#F0F9F8" fill-opacity="1.000000" fill-rule="nonzero"></path>
&#x9;&#x9;<path id="Vector" d="M151.35 67.5L90.71 32.49L94.73 30.18L155.36 65.19L151.35 67.5Z" fill="#F0F9F8" fill-opacity="1.000000" fill-rule="nonzero"></path>
&#x9;&#x9;<path id="Vector" d="M142.32 72.71L81.69 37.7L85.7 35.39L146.34 70.4L142.32 72.71Z" fill="#F0F9F8" fill-opacity="1.000000" fill-rule="nonzero"></path>
&#x9;&#x9;<path id="Vector" d="M133.3 77.92L72.66 42.91L76.68 40.6L137.31 75.61L133.3 77.92Z" fill="#F0F9F8" fill-opacity="1.000000" fill-rule="nonzero"></path>
&#x9;&#x9;<path id="Vector" d="M124.27 83.13L63.64 48.12L67.65 45.81L128.29 80.81L124.27 83.13Z" fill="#F0F9F8" fill-opacity="1.000000" fill-rule="nonzero"></path>
&#x9;&#x9;<path id="Vector" d="M115.25 88.35L54.62 53.33L58.62 51.02L119.26 86.02L115.25 88.35Z" fill="#F0F9F8" fill-opacity="1.000000" fill-rule="nonzero"></path>
&#x9;&#x9;<path id="Vector" d="M106.23 93.56L45.59 58.54L49.6 56.23L110.23 91.24L106.23 93.56Z" fill="#F0F9F8" fill-opacity="1.000000" fill-rule="nonzero"></path>
&#x9;&#x9;<path id="Vector" d="M97.2 98.77L36.57 63.75L40.57 61.44L101.21 96.45L97.2 98.77Z" fill="#F0F9F8" fill-opacity="1.000000" fill-rule="nonzero"></path>
&#x9;&#x9;<path id="Vector" d="M107.97 25.53L122.97 34.19C123.19 34.29 123.43 34.35 123.68 34.35C123.92 34.35 124.16 34.29 124.38 34.19C124.77 33.96 124.76 33.6 124.38 33.37L109.36 24.7C109.14 24.59 108.91 24.54 108.66 24.54C108.42 24.54 108.18 24.59 107.97 24.7C107.88 24.73 107.8 24.78 107.75 24.86C107.69 24.93 107.66 25.02 107.66 25.11C107.66 25.21 107.69 25.3 107.75 25.37C107.8 25.44 107.88 25.5 107.97 25.53Z" fill="#D8EDEB" fill-opacity="1.000000" fill-rule="nonzero"></path>
&#x9;&#x9;<path id="Vector" d="M164.34 56.45L158.98 53.35C158.76 53.24 158.52 53.19 158.28 53.19C158.03 53.19 157.8 53.24 157.58 53.35C157.19 53.58 157.18 53.94 157.58 54.16L162.95 57.26C163.17 57.37 163.4 57.43 163.65 57.43C163.89 57.43 164.13 57.37 164.34 57.26C164.74 57.04 164.74 56.68 164.34 56.45Z" fill="#D8EDEB" fill-opacity="1.000000" fill-rule="nonzero"></path>
&#x9;&#x9;<path id="Vector" d="M103.64 28L113.72 33.82C113.94 33.93 114.18 33.99 114.42 33.99C114.67 33.99 114.91 33.93 115.12 33.82C115.52 33.59 115.52 33.23 115.12 33.01L105.05 27.19C104.83 27.08 104.59 27.02 104.35 27.02C104.1 27.02 103.86 27.08 103.64 27.19C103.25 27.41 103.25 27.77 103.64 28Z" fill="#D8EDEB" fill-opacity="1.000000" fill-rule="nonzero"></path>
&#x9;&#x9;<path id="Vector" d="M160.03 58.93L154.66 55.84C154.44 55.72 154.2 55.66 153.96 55.66C153.71 55.66 153.47 55.72 153.25 55.84C153.17 55.87 153.1 55.92 153.05 55.99C152.99 56.07 152.97 56.15 152.97 56.24C152.97 56.33 152.99 56.42 153.05 56.49C153.1 56.57 153.17 56.62 153.25 56.65L158.63 59.75C158.85 59.86 159.09 59.91 159.33 59.91C159.57 59.91 159.81 59.86 160.03 59.75C160.12 59.72 160.19 59.66 160.24 59.59C160.29 59.52 160.32 59.43 160.32 59.34C160.32 59.25 160.29 59.16 160.24 59.09C160.19 59.02 160.12 58.96 160.03 58.93Z" fill="#D8EDEB" fill-opacity="1.000000" fill-rule="nonzero"></path>
&#x9;&#x9;<path id="Vector" d="M99.2 30.56L123.9 44.82C124.12 44.93 124.36 44.99 124.6 44.99C124.85 44.99 125.09 44.93 125.31 44.82C125.39 44.79 125.47 44.74 125.52 44.66C125.57 44.59 125.6 44.5 125.6 44.41C125.6 44.32 125.57 44.24 125.52 44.16C125.47 44.09 125.39 44.04 125.31 44.01L100.6 29.75C100.39 29.64 100.15 29.59 99.9 29.59C99.66 29.59 99.42 29.64 99.2 29.75C99.11 29.78 99.04 29.83 98.99 29.91C98.94 29.98 98.91 30.07 98.91 30.16C98.91 30.25 98.94 30.33 98.99 30.41C99.04 30.48 99.11 30.53 99.2 30.56Z" fill="#D8EDEB" fill-opacity="1.000000" fill-rule="nonzero"></path>
&#x9;&#x9;<path id="Vector" d="M155.59 61.5L150.23 58.43C150.01 58.31 149.77 58.26 149.52 58.26C149.28 58.26 149.04 58.31 148.82 58.43C148.74 58.46 148.66 58.51 148.61 58.58C148.56 58.66 148.53 58.74 148.53 58.83C148.53 58.92 148.56 59.01 148.61 59.08C148.66 59.16 148.74 59.21 148.82 59.24L154.18 62.33C154.4 62.44 154.64 62.5 154.89 62.5C155.13 62.5 155.37 62.44 155.59 62.33C155.69 62.31 155.78 62.26 155.84 62.19C155.91 62.11 155.95 62.01 155.95 61.91C155.95 61.81 155.91 61.71 155.84 61.64C155.78 61.56 155.69 61.51 155.59 61.5Z" fill="#D8EDEB" fill-opacity="1.000000" fill-rule="nonzero"></path>
&#x9;&#x9;<path id="Vector" d="M94.64 33.2L113.12 43.87C113.33 43.98 113.58 44.04 113.82 44.04C114.06 44.04 114.31 43.98 114.52 43.87C114.91 43.65 114.91 43.29 114.52 43.06L96.04 32.39C95.83 32.28 95.59 32.22 95.34 32.22C95.1 32.22 94.86 32.28 94.64 32.39C94.25 32.62 94.25 32.97 94.64 33.2Z" fill="#D8EDEB" fill-opacity="1.000000" fill-rule="nonzero"></path>
&#x9;&#x9;<path id="Vector" d="M151.02 64.16L145.66 61.07C145.44 60.95 145.2 60.89 144.95 60.89C144.71 60.89 144.47 60.95 144.25 61.07C144.17 61.09 144.09 61.15 144.04 61.22C143.98 61.29 143.96 61.38 143.96 61.47C143.96 61.56 143.98 61.64 144.04 61.72C144.09 61.79 144.17 61.84 144.25 61.87L149.62 64.97C149.84 65.08 150.08 65.14 150.32 65.14C150.56 65.14 150.8 65.08 151.02 64.97C151.1 64.94 151.18 64.89 151.23 64.81C151.28 64.74 151.31 64.65 151.31 64.56C151.31 64.47 151.28 64.39 151.23 64.32C151.18 64.24 151.1 64.19 151.02 64.16Z" fill="#D8EDEB" fill-opacity="1.000000" fill-rule="nonzero"></path>
&#x9;&#x9;<path id="Vector" d="M90.15 35.79L100.23 41.61C100.45 41.72 100.69 41.78 100.93 41.78C101.18 41.78 101.42 41.72 101.64 41.61C101.72 41.58 101.79 41.53 101.85 41.46C101.9 41.38 101.93 41.3 101.93 41.21C101.93 41.12 101.9 41.03 101.85 40.96C101.79 40.89 101.72 40.83 101.64 40.8L91.55 34.98C91.33 34.87 91.09 34.81 90.85 34.81C90.61 34.81 90.36 34.87 90.15 34.98C89.76 35.21 89.75 35.57 90.15 35.79Z" fill="#D8EDEB" fill-opacity="1.000000" fill-rule="nonzero"></path>
&#x9;&#x9;<path id="Vector" d="M146.53 66.72L141.17 63.63C140.95 63.51 140.71 63.46 140.47 63.46C140.22 63.46 139.98 63.51 139.76 63.63C139.67 63.66 139.6 63.71 139.55 63.78C139.5 63.86 139.47 63.94 139.47 64.03C139.47 64.12 139.5 64.21 139.55 64.28C139.6 64.36 139.67 64.41 139.76 64.44L145.13 67.54C145.35 67.65 145.59 67.7 145.83 67.7C146.08 67.7 146.32 67.65 146.53 67.54C146.62 67.51 146.69 67.45 146.74 67.38C146.8 67.31 146.82 67.22 146.82 67.13C146.82 67.04 146.8 66.95 146.74 66.88C146.69 66.81 146.62 66.75 146.53 66.72Z" fill="#D8EDEB" fill-opacity="1.000000" fill-rule="nonzero"></path>
&#x9;&#x9;<path id="Vector" d="M85.63 38.35L100.4 46.96C100.62 47.06 100.86 47.12 101.11 47.12C101.35 47.12 101.59 47.06 101.81 46.96C101.89 46.93 101.97 46.87 102.02 46.8C102.07 46.73 102.1 46.64 102.1 46.55C102.1 46.46 102.07 46.37 102.02 46.3C101.97 46.23 101.89 46.17 101.81 46.14L87.04 37.62C86.82 37.51 86.58 37.45 86.34 37.45C86.09 37.45 85.85 37.51 85.63 37.62C85.57 37.66 85.52 37.71 85.48 37.77C85.45 37.84 85.43 37.91 85.43 37.99C85.43 38.06 85.45 38.13 85.48 38.2C85.52 38.26 85.57 38.31 85.63 38.35Z" fill="#D8EDEB" fill-opacity="1.000000" fill-rule="nonzero"></path>
&#x9;&#x9;<path id="Vector" d="M142.02 69.32L136.66 66.23C136.44 66.12 136.2 66.06 135.96 66.06C135.71 66.06 135.47 66.12 135.26 66.23C134.86 66.46 134.86 66.82 135.26 67.04L140.62 70.14C140.84 70.25 141.08 70.31 141.32 70.31C141.57 70.31 141.81 70.25 142.02 70.14C142.11 70.11 142.18 70.05 142.23 69.98C142.28 69.91 142.31 69.82 142.31 69.73C142.31 69.64 142.28 69.55 142.23 69.48C142.18 69.41 142.11 69.35 142.02 69.32Z" fill="#D8EDEB" fill-opacity="1.000000" fill-rule="nonzero"></path>
&#x9;&#x9;<path id="Vector" d="M81.2 40.95L94.7 48.74C94.91 48.86 95.15 48.92 95.4 48.92C95.64 48.92 95.88 48.86 96.1 48.74C96.49 48.52 96.48 48.16 96.1 47.94L82.6 40.15C82.39 40.04 82.15 39.98 81.9 39.98C81.66 39.98 81.42 40.04 81.2 40.15C81.11 40.18 81.04 40.23 80.99 40.3C80.93 40.37 80.9 40.46 80.9 40.55C80.9 40.64 80.93 40.73 80.99 40.8C81.04 40.87 81.11 40.93 81.2 40.95Z" fill="#D8EDEB" fill-opacity="1.000000" fill-rule="nonzero"></path>
&#x9;&#x9;<path id="Vector" d="M137.59 71.89L132.22 68.79C132 68.68 131.76 68.62 131.52 68.62C131.28 68.62 131.04 68.68 130.82 68.79C130.43 69.02 130.43 69.38 130.82 69.6L136.18 72.7C136.4 72.81 136.64 72.87 136.89 72.87C137.13 72.87 137.37 72.81 137.59 72.7C137.67 72.67 137.75 72.62 137.8 72.54C137.85 72.47 137.88 72.38 137.88 72.29C137.88 72.2 137.85 72.12 137.8 72.04C137.75 71.97 137.67 71.92 137.59 71.89Z" fill="#D8EDEB" fill-opacity="1.000000" fill-rule="nonzero"></path>
&#x9;&#x9;<path id="Vector" d="M76.62 43.59L86.7 49.41C86.91 49.52 87.15 49.58 87.4 49.58C87.64 49.58 87.88 49.52 88.1 49.41C88.19 49.38 88.26 49.33 88.31 49.26C88.36 49.18 88.39 49.1 88.39 49.01C88.39 48.92 88.36 48.83 88.31 48.76C88.26 48.69 88.19 48.63 88.1 48.6L78.02 42.78C77.8 42.67 77.56 42.61 77.32 42.61C77.08 42.61 76.84 42.67 76.62 42.78C76.25 43.01 76.25 43.37 76.62 43.59Z" fill="#D8EDEB" fill-opacity="1.000000" fill-rule="nonzero"></path>
&#x9;&#x9;<path id="Vector" d="M133.02 74.52L127.66 71.43C127.44 71.32 127.2 71.26 126.95 71.26C126.71 71.26 126.47 71.32 126.25 71.43C126.17 71.46 126.09 71.51 126.04 71.58C125.99 71.66 125.96 71.74 125.96 71.83C125.96 71.92 125.99 72.01 126.04 72.08C126.09 72.16 126.17 72.21 126.25 72.24L131.61 75.34C131.83 75.45 132.07 75.5 132.32 75.5C132.56 75.5 132.8 75.45 133.02 75.34C133.41 75.11 133.41 74.75 133.02 74.52Z" fill="#D8EDEB" fill-opacity="1.000000" fill-rule="nonzero"></path>
&#x9;&#x9;<path id="Vector" d="M72.15 46.19L97.16 60.63C97.38 60.74 97.62 60.8 97.87 60.8C98.11 60.8 98.35 60.74 98.57 60.63C98.96 60.41 98.95 60.04 98.57 59.82L73.55 45.38C73.33 45.27 73.09 45.21 72.85 45.21C72.6 45.21 72.36 45.27 72.15 45.38C71.75 45.6 71.75 46 72.15 46.19Z" fill="#D8EDEB" fill-opacity="1.000000" fill-rule="nonzero"></path>
&#x9;&#x9;<path id="Vector" d="M128.53 77.12L123.16 74.02C122.95 73.91 122.7 73.85 122.46 73.85C122.22 73.85 121.98 73.91 121.76 74.02C121.67 74.05 121.6 74.1 121.55 74.18C121.5 74.25 121.47 74.34 121.47 74.42C121.47 74.51 121.5 74.6 121.55 74.67C121.6 74.75 121.67 74.8 121.76 74.83L127.12 77.93C127.34 78.04 127.58 78.1 127.82 78.1C128.07 78.1 128.31 78.04 128.53 77.93C128.92 77.71 128.92 77.34 128.53 77.12Z" fill="#D8EDEB" fill-opacity="1.000000" fill-rule="nonzero"></path>
&#x9;&#x9;<path id="Vector" d="M90.07 60.24L68.97 48.04C68.75 47.93 68.51 47.87 68.27 47.87C68.03 47.87 67.79 47.93 67.57 48.04C67.48 48.07 67.41 48.12 67.36 48.19C67.31 48.27 67.28 48.35 67.28 48.44C67.28 48.53 67.31 48.62 67.36 48.69C67.41 48.76 67.48 48.82 67.57 48.85L88.71 61.06C88.93 61.16 89.17 61.22 89.41 61.22C89.65 61.22 89.89 61.16 90.11 61.06C90.46 60.84 90.46 60.47 90.07 60.24Z" fill="#D8EDEB" fill-opacity="1.000000" fill-rule="nonzero"></path>
&#x9;&#x9;<path id="Vector" d="M123.92 79.78L118.56 76.69C118.34 76.58 118.1 76.52 117.85 76.52C117.61 76.52 117.37 76.58 117.15 76.69C116.76 76.91 116.76 77.28 117.15 77.5L122.51 80.59C122.73 80.71 122.97 80.77 123.22 80.77C123.46 80.77 123.7 80.71 123.92 80.59C124.31 80.41 124.31 80.01 123.92 79.78Z" fill="#D8EDEB" fill-opacity="1.000000" fill-rule="nonzero"></path>
&#x9;&#x9;<path id="Vector" d="M63.09 51.41L81.49 62.03C81.7 62.14 81.94 62.2 82.19 62.2C82.43 62.2 82.67 62.14 82.89 62.03C83.28 61.81 83.28 61.45 82.89 61.22L64.5 50.61C64.28 50.5 64.04 50.44 63.8 50.44C63.55 50.44 63.31 50.5 63.09 50.61C63.01 50.64 62.93 50.69 62.88 50.76C62.83 50.83 62.8 50.92 62.8 51.01C62.8 51.1 62.83 51.19 62.88 51.26C62.93 51.33 63.01 51.38 63.09 51.41Z" fill="#D8EDEB" fill-opacity="1.000000" fill-rule="nonzero"></path>
&#x9;&#x9;<path id="Vector" d="M119.48 82.33L114.12 79.23C113.9 79.12 113.66 79.06 113.42 79.06C113.17 79.06 112.93 79.12 112.72 79.23C112.32 79.46 112.32 79.82 112.72 80.04L118.08 83.14C118.3 83.25 118.54 83.31 118.78 83.31C119.03 83.31 119.27 83.25 119.48 83.14C119.88 82.94 119.87 82.57 119.48 82.33Z" fill="#D8EDEB" fill-opacity="1.000000" fill-rule="nonzero"></path>
&#x9;&#x9;<path id="Vector" d="M84.61 67.49L59.93 53.25C59.71 53.13 59.47 53.07 59.23 53.07C58.98 53.07 58.74 53.13 58.52 53.25C58.44 53.27 58.36 53.33 58.31 53.4C58.26 53.47 58.23 53.56 58.23 53.65C58.23 53.74 58.26 53.82 58.31 53.9C58.36 53.97 58.44 54.02 58.52 54.05L83.21 68.3C83.42 68.41 83.67 68.47 83.91 68.47C84.15 68.47 84.39 68.41 84.61 68.3C84.7 68.27 84.77 68.22 84.82 68.15C84.87 68.07 84.9 67.99 84.9 67.9C84.9 67.81 84.87 67.72 84.82 67.65C84.77 67.57 84.7 67.52 84.61 67.49Z" fill="#D8EDEB" fill-opacity="1.000000" fill-rule="nonzero"></path>
&#x9;&#x9;<path id="Vector" d="M114.91 84.98L109.55 81.89C109.33 81.78 109.09 81.72 108.85 81.72C108.61 81.72 108.37 81.78 108.15 81.89C107.76 82.11 107.75 82.48 108.15 82.7L113.51 85.79C113.73 85.91 113.97 85.97 114.21 85.97C114.46 85.97 114.7 85.91 114.91 85.79C115.31 85.58 115.31 85.19 114.91 84.98Z" fill="#D8EDEB" fill-opacity="1.000000" fill-rule="nonzero"></path>
&#x9;&#x9;<path id="Vector" d="M76.51 67.99L55.48 55.83C55.26 55.71 55.02 55.66 54.78 55.66C54.53 55.66 54.3 55.71 54.08 55.83C53.69 56.05 53.69 56.41 54.08 56.64L75.11 68.79C75.33 68.9 75.57 68.96 75.81 68.96C76.06 68.96 76.3 68.9 76.52 68.79C76.6 68.76 76.67 68.71 76.73 68.63C76.78 68.56 76.81 68.47 76.81 68.38C76.8 68.29 76.78 68.21 76.72 68.14C76.67 68.06 76.59 68.01 76.51 67.99Z" fill="#D8EDEB" fill-opacity="1.000000" fill-rule="nonzero"></path>
&#x9;&#x9;<path id="Vector" d="M110.43 87.57L105.06 84.48C104.84 84.37 104.6 84.31 104.36 84.31C104.11 84.31 103.87 84.37 103.65 84.48C103.57 84.51 103.5 84.56 103.44 84.63C103.39 84.71 103.36 84.79 103.36 84.88C103.36 84.97 103.39 85.06 103.44 85.13C103.5 85.2 103.57 85.26 103.65 85.29L109.03 88.39C109.24 88.5 109.48 88.56 109.73 88.56C109.97 88.56 110.21 88.5 110.43 88.39C110.52 88.36 110.59 88.3 110.64 88.23C110.69 88.16 110.72 88.07 110.72 87.98C110.72 87.89 110.69 87.8 110.64 87.73C110.59 87.66 110.52 87.6 110.43 87.57Z" fill="#D8EDEB" fill-opacity="1.000000" fill-rule="nonzero"></path>
&#x9;&#x9;<path id="Vector" d="M67.06 67.83L50.81 58.48C50.59 58.36 50.35 58.3 50.11 58.3C49.86 58.3 49.62 58.36 49.41 58.48C49.32 58.5 49.25 58.56 49.19 58.63C49.14 58.7 49.11 58.79 49.11 58.88C49.11 58.97 49.14 59.05 49.19 59.13C49.25 59.2 49.32 59.25 49.41 59.28L65.66 68.65C65.87 68.75 66.11 68.81 66.36 68.81C66.6 68.81 66.84 68.75 67.06 68.65C67.15 68.62 67.22 68.56 67.27 68.49C67.32 68.42 67.35 68.33 67.35 68.24C67.35 68.15 67.32 68.06 67.27 67.99C67.22 67.92 67.15 67.86 67.06 67.83Z" fill="#D8EDEB" fill-opacity="1.000000" fill-rule="nonzero"></path>
&#x9;&#x9;<path id="Vector" d="M105.84 90.21L100.52 87.1C100.3 87 100.06 86.94 99.82 86.94C99.58 86.94 99.34 87 99.12 87.1C98.73 87.33 98.73 87.7 99.12 87.92L104.49 91.01C104.7 91.13 104.94 91.19 105.19 91.19C105.43 91.19 105.67 91.13 105.89 91.01C105.97 90.98 106.04 90.92 106.08 90.84C106.13 90.77 106.15 90.68 106.14 90.6C106.14 90.51 106.11 90.43 106.05 90.36C106 90.29 105.93 90.24 105.84 90.21Z" fill="#D8EDEB" fill-opacity="1.000000" fill-rule="nonzero"></path>
&#x9;&#x9;<path id="Vector" d="M44.96 61.88L55.05 67.69C55.26 67.8 55.5 67.86 55.75 67.86C55.99 67.86 56.23 67.8 56.45 67.69C56.54 67.66 56.61 67.61 56.66 67.54C56.72 67.47 56.75 67.38 56.75 67.29C56.75 67.2 56.72 67.11 56.66 67.04C56.61 66.97 56.54 66.91 56.45 66.89L46.37 61.07C46.15 60.95 45.91 60.89 45.66 60.89C45.42 60.89 45.18 60.95 44.96 61.07C44.57 61.3 44.57 61.65 44.96 61.88Z" fill="#D8EDEB" fill-opacity="1.000000" fill-rule="nonzero"></path>
&#x9;&#x9;<path id="Vector" d="M101.35 92.84L95.99 89.74C95.77 89.63 95.53 89.58 95.28 89.58C95.04 89.58 94.8 89.63 94.58 89.74C94.19 89.97 94.19 90.34 94.58 90.56L99.94 93.65C100.16 93.76 100.4 93.82 100.65 93.82C100.89 93.82 101.13 93.76 101.35 93.65C101.43 93.62 101.51 93.57 101.56 93.5C101.61 93.42 101.64 93.34 101.64 93.25C101.64 93.16 101.61 93.07 101.56 93C101.51 92.92 101.43 92.87 101.35 92.84Z" fill="#D8EDEB" fill-opacity="1.000000" fill-rule="nonzero"></path>
&#x9;&#x9;<path id="Vector" d="M61.98 75.29L41.9 63.67C41.68 63.56 41.44 63.5 41.2 63.5C40.96 63.5 40.72 63.56 40.5 63.67C40.41 63.7 40.34 63.75 40.29 63.82C40.24 63.9 40.21 63.98 40.21 64.07C40.21 64.16 40.24 64.25 40.29 64.32C40.34 64.39 40.41 64.45 40.5 64.48L60.57 76.09C60.79 76.21 61.03 76.26 61.27 76.26C61.52 76.26 61.76 76.21 61.98 76.09C62.06 76.07 62.14 76.01 62.19 75.94C62.24 75.87 62.27 75.78 62.27 75.69C62.27 75.6 62.24 75.51 62.19 75.44C62.14 75.37 62.06 75.32 61.98 75.29Z" fill="#D8EDEB" fill-opacity="1.000000" fill-rule="nonzero"></path>
&#x9;&#x9;<path id="Vector" d="M96.85 95.41L91.48 92.31C91.26 92.21 91.02 92.15 90.77 92.15C90.53 92.15 90.29 92.21 90.07 92.31C89.99 92.34 89.91 92.4 89.86 92.47C89.81 92.54 89.78 92.63 89.78 92.72C89.78 92.81 89.81 92.9 89.86 92.97C89.91 93.04 89.99 93.1 90.07 93.13L95.44 96.22C95.66 96.33 95.9 96.39 96.14 96.39C96.39 96.39 96.63 96.33 96.85 96.22C96.93 96.19 97 96.14 97.06 96.07C97.11 95.99 97.14 95.91 97.14 95.82C97.14 95.73 97.11 95.64 97.06 95.57C97 95.5 96.93 95.44 96.85 95.41Z" fill="#D8EDEB" fill-opacity="1.000000" fill-rule="nonzero"></path>
&#x9;&#x9;<path id="Vector" d="M150.45 41.56L132.89 31.42L132.89 29.43L136.14 29.55L155.77 36.47L155.77 40.36L154.14 39.42L150.45 41.56Z" fill="#ACCBC8" fill-opacity="1.000000" fill-rule="nonzero"></path>
&#x9;&#x9;<path id="Vector" d="M150.45 39.56L132.89 29.43L138.22 26.35L155.77 36.47L150.45 39.56Z" fill="#B8D6D3" fill-opacity="1.000000" fill-rule="nonzero"></path>
&#x9;&#x9;<g opacity="0.300000">
&#x9;&#x9;&#x9;<path id="Vector" d="M55.22 140L0 91.67L102.39 52.66L157.61 100.99L55.22 140Z" fill="#B8D6D3" fill-opacity="1.000000" fill-rule="nonzero"></path>
&#x9;&#x9;</g>
&#x9;&#x9;<path id="Vector" d="M55.22 138.73L0 90.41L102.39 51.4L157.61 99.73L55.22 138.73Z" fill="#F0F9F8" fill-opacity="1.000000" fill-rule="nonzero"></path>
&#x9;&#x9;<path id="Vector" d="M55.31 136.43L3.71 91.27L95.44 56.32L147.04 101.48L55.31 136.43Z" fill="#FFFFFF" fill-opacity="1.000000" fill-rule="nonzero"></path>
&#x9;&#x9;<path id="Vector" d="M140.71 103.16L90.31 59.06L95.36 57.13L145.77 101.24L140.71 103.16Z" fill="#F0F9F8" fill-opacity="1.000000" fill-rule="nonzero"></path>
&#x9;&#x9;<path id="Vector" d="M129.35 107.49L78.93 63.39L83.99 61.47L134.39 105.57L129.35 107.49Z" fill="#F0F9F8" fill-opacity="1.000000" fill-rule="nonzero"></path>
&#x9;&#x9;<path id="Vector" d="M117.97 111.82L67.57 67.72L72.62 65.8L123.03 109.9L117.97 111.82Z" fill="#F0F9F8" fill-opacity="1.000000" fill-rule="nonzero"></path>
&#x9;&#x9;<path id="Vector" d="M106.61 116.16L56.19 72.05L61.25 70.13L111.65 114.23L106.61 116.16Z" fill="#F0F9F8" fill-opacity="1.000000" fill-rule="nonzero"></path>
&#x9;&#x9;<path id="Vector" d="M95.23 120.5L44.82 76.38L49.87 74.46L100.29 118.56L95.23 120.5Z" fill="#F0F9F8" fill-opacity="1.000000" fill-rule="nonzero"></path>
&#x9;&#x9;<path id="Vector" d="M83.86 124.82L33.45 80.71L38.51 78.79L88.91 122.89L83.86 124.82Z" fill="#F0F9F8" fill-opacity="1.000000" fill-rule="nonzero"></path>
&#x9;&#x9;<path id="Vector" d="M72.49 129.16L22.08 85.05L27.13 83.12L77.54 127.23L72.49 129.16Z" fill="#F0F9F8" fill-opacity="1.000000" fill-rule="nonzero"></path>
&#x9;&#x9;<path id="Vector" d="M61.12 133.49L10.71 89.38L15.76 87.46L66.17 131.56L61.12 133.49Z" fill="#F0F9F8" fill-opacity="1.000000" fill-rule="nonzero"></path>
&#x9;&#x9;<path id="Vector" d="M94.19 60.51L112.89 76.88C113.12 77.04 113.4 77.14 113.68 77.18C113.97 77.21 114.26 77.17 114.52 77.07C115.07 76.87 115.21 76.44 114.86 76.11L96.16 59.77C95.92 59.6 95.65 59.5 95.36 59.47C95.07 59.43 94.78 59.47 94.52 59.57C93.98 59.78 93.83 60.2 94.19 60.51Z" fill="#D8EDEB" fill-opacity="1.000000" fill-rule="nonzero"></path>
&#x9;&#x9;<path id="Vector" d="M134.93 96.14L139.8 100.4C140.03 100.56 140.31 100.67 140.59 100.7C140.88 100.73 141.16 100.7 141.43 100.59C141.98 100.38 142.13 99.96 141.77 99.64L136.89 95.36C136.66 95.2 136.38 95.1 136.1 95.07C135.82 95.03 135.53 95.07 135.27 95.17C134.69 95.4 134.54 95.82 134.93 96.14Z" fill="#D8EDEB" fill-opacity="1.000000" fill-rule="nonzero"></path>
&#x9;&#x9;<path id="Vector" d="M88.5 62.68L100.93 73.57C101.17 73.73 101.44 73.83 101.72 73.87C102.01 73.9 102.3 73.86 102.56 73.76C103.11 73.56 103.25 73.14 102.9 72.8L90.47 61.91C90.23 61.75 89.96 61.65 89.68 61.61C89.39 61.58 89.1 61.61 88.84 61.72C88.29 61.95 88.14 62.37 88.5 62.68Z" fill="#D8EDEB" fill-opacity="1.000000" fill-rule="nonzero"></path>
&#x9;&#x9;<path id="Vector" d="M136.06 101.82L131.18 97.55C130.95 97.39 130.67 97.29 130.39 97.25C130.11 97.22 129.82 97.26 129.55 97.36C129 97.56 128.86 97.99 129.21 98.32L134.08 102.59C134.32 102.75 134.59 102.85 134.87 102.88C135.16 102.92 135.45 102.88 135.71 102.78C136.26 102.55 136.41 102.13 136.06 101.82Z" fill="#D8EDEB" fill-opacity="1.000000" fill-rule="nonzero"></path>
&#x9;&#x9;<path id="Vector" d="M109.73 85.93L84.78 64.1C84.55 63.93 84.28 63.83 83.99 63.8C83.71 63.76 83.42 63.8 83.15 63.9C82.6 64.11 82.45 64.53 82.81 64.86L107.76 86.69C108 86.86 108.27 86.96 108.56 86.99C108.84 87.03 109.13 86.99 109.4 86.89C109.94 86.66 110.08 86.24 109.73 85.93Z" fill="#D8EDEB" fill-opacity="1.000000" fill-rule="nonzero"></path>
&#x9;&#x9;<path id="Vector" d="M130.37 103.99L125.5 99.72C125.26 99.56 124.99 99.46 124.7 99.42C124.42 99.39 124.13 99.42 123.86 99.52C123.32 99.73 123.17 100.15 123.53 100.48L128.4 104.74C128.64 104.9 128.91 105.01 129.2 105.04C129.48 105.07 129.77 105.04 130.04 104.93C130.58 104.72 130.73 104.31 130.37 103.99Z" fill="#D8EDEB" fill-opacity="1.000000" fill-rule="nonzero"></path>
&#x9;&#x9;<path id="Vector" d="M77.13 67.03L92.7 80.66C92.94 80.82 93.21 80.92 93.49 80.95C93.78 80.99 94.07 80.95 94.33 80.85C94.88 80.64 95.03 80.22 94.67 79.9L79.1 66.27C78.86 66.1 78.59 66 78.3 65.97C78.02 65.93 77.73 65.97 77.46 66.07C76.92 66.28 76.77 66.7 77.13 67.03Z" fill="#D8EDEB" fill-opacity="1.000000" fill-rule="nonzero"></path>
&#x9;&#x9;<path id="Vector" d="M124.68 106.15L119.81 101.88C119.57 101.72 119.3 101.62 119.02 101.59C118.73 101.55 118.44 101.59 118.17 101.69C117.63 101.9 117.49 102.32 117.84 102.65L122.71 106.91C122.95 107.07 123.22 107.18 123.51 107.21C123.79 107.24 124.08 107.21 124.35 107.1C124.89 106.88 125.04 106.46 124.68 106.15Z" fill="#D8EDEB" fill-opacity="1.000000" fill-rule="nonzero"></path>
&#x9;&#x9;<path id="Vector" d="M95.24 87.53L73.41 68.41C73.17 68.24 72.9 68.14 72.61 68.11C72.33 68.08 72.04 68.11 71.77 68.22C71.23 68.43 71.09 68.85 71.44 69.17L93.27 88.29C93.51 88.45 93.78 88.55 94.06 88.59C94.35 88.62 94.64 88.59 94.91 88.49C95.44 88.26 95.59 87.84 95.24 87.53Z" fill="#D8EDEB" fill-opacity="1.000000" fill-rule="nonzero"></path>
&#x9;&#x9;<path id="Vector" d="M119 108.32L114.12 104.05C113.89 103.89 113.62 103.79 113.33 103.75C113.05 103.72 112.76 103.75 112.5 103.85C111.95 104.06 111.8 104.48 112.16 104.81L117.04 109.07C117.27 109.23 117.54 109.34 117.82 109.37C118.11 109.41 118.39 109.37 118.66 109.27C119.21 109.09 119.36 108.63 119 108.32Z" fill="#D8EDEB" fill-opacity="1.000000" fill-rule="nonzero"></path>
&#x9;&#x9;<path id="Vector" d="M65.75 71.34L75.08 79.5C75.32 79.66 75.59 79.76 75.87 79.8C76.15 79.83 76.44 79.8 76.71 79.7C77.25 79.49 77.4 79.07 77.05 78.74L67.73 70.59C67.49 70.42 67.22 70.32 66.93 70.29C66.65 70.25 66.36 70.29 66.09 70.39C65.55 70.61 65.41 71.03 65.75 71.34Z" fill="#D8EDEB" fill-opacity="1.000000" fill-rule="nonzero"></path>
&#x9;&#x9;<path id="Vector" d="M113.31 110.49L108.44 106.22C108.21 106.06 107.93 105.96 107.65 105.93C107.36 105.9 107.08 105.93 106.81 106.03C106.26 106.24 106.11 106.66 106.47 106.99L111.35 111.25C111.59 111.41 111.86 111.52 112.14 111.55C112.43 111.58 112.72 111.55 112.98 111.44C113.52 111.21 113.67 110.79 113.31 110.49Z" fill="#D8EDEB" fill-opacity="1.000000" fill-rule="nonzero"></path>
&#x9;&#x9;<path id="Vector" d="M60.07 73.51L75.66 87.1C75.9 87.27 76.17 87.37 76.46 87.4C76.74 87.44 77.03 87.41 77.3 87.31C77.84 87.1 78 86.67 77.63 86.35L62.04 72.77C61.81 72.6 61.53 72.5 61.25 72.47C60.96 72.43 60.68 72.47 60.41 72.58C59.86 72.77 59.71 73.2 60.07 73.51Z" fill="#D8EDEB" fill-opacity="1.000000" fill-rule="nonzero"></path>
&#x9;&#x9;<path id="Vector" d="M107.63 112.65L102.76 108.38C102.52 108.22 102.25 108.12 101.96 108.08C101.68 108.05 101.39 108.09 101.12 108.19C100.58 108.39 100.42 108.81 100.79 109.15L105.66 113.41C105.9 113.57 106.17 113.68 106.45 113.71C106.74 113.75 107.03 113.71 107.3 113.61C107.84 113.38 107.98 112.96 107.63 112.65Z" fill="#D8EDEB" fill-opacity="1.000000" fill-rule="nonzero"></path>
&#x9;&#x9;<path id="Vector" d="M54.39 75.63L66.81 86.53C67.05 86.69 67.32 86.8 67.6 86.83C67.88 86.86 68.17 86.83 68.44 86.72C68.98 86.51 69.14 86.09 68.77 85.77L56.35 74.88C56.11 74.72 55.84 74.61 55.55 74.58C55.27 74.55 54.98 74.58 54.71 74.69C54.18 74.94 54.03 75.36 54.39 75.63Z" fill="#D8EDEB" fill-opacity="1.000000" fill-rule="nonzero"></path>
&#x9;&#x9;<path id="Vector" d="M101.94 114.83L97.07 110.56C96.83 110.4 96.56 110.3 96.28 110.26C96 110.23 95.71 110.26 95.44 110.36C94.89 110.57 94.74 110.99 95.1 111.32L99.97 115.58C100.21 115.74 100.48 115.85 100.77 115.88C101.05 115.91 101.34 115.88 101.61 115.77C102.15 115.55 102.3 115.13 101.94 114.83Z" fill="#D8EDEB" fill-opacity="1.000000" fill-rule="nonzero"></path>
&#x9;&#x9;<path id="Vector" d="M48.7 77.84L67.41 94.21C67.64 94.37 67.91 94.47 68.2 94.51C68.48 94.54 68.77 94.5 69.04 94.4C69.58 94.19 69.73 93.77 69.37 93.44L50.67 77.08C50.43 76.92 50.16 76.82 49.87 76.78C49.59 76.75 49.3 76.79 49.03 76.89C48.5 77.11 48.34 77.55 48.7 77.84Z" fill="#D8EDEB" fill-opacity="1.000000" fill-rule="nonzero"></path>
&#x9;&#x9;<path id="Vector" d="M96.25 116.98L91.38 112.71C91.15 112.55 90.87 112.45 90.59 112.42C90.31 112.38 90.02 112.42 89.75 112.52C89.21 112.73 89.06 113.15 89.42 113.48L94.29 117.74C94.52 117.9 94.79 118 95.08 118.04C95.36 118.07 95.65 118.03 95.92 117.93C96.46 117.69 96.62 117.29 96.25 116.98Z" fill="#D8EDEB" fill-opacity="1.000000" fill-rule="nonzero"></path>
&#x9;&#x9;<path id="Vector" d="M43.02 80.01L52.34 88.17C52.58 88.32 52.85 88.42 53.13 88.46C53.42 88.49 53.71 88.46 53.97 88.36C54.52 88.15 54.66 87.73 54.31 87.4L44.98 79.25C44.74 79.08 44.47 78.98 44.19 78.95C43.9 78.92 43.61 78.95 43.35 79.06C42.81 79.27 42.66 79.69 43.02 80.01Z" fill="#D8EDEB" fill-opacity="1.000000" fill-rule="nonzero"></path>
&#x9;&#x9;<path id="Vector" d="M90.57 119.15L85.7 114.88C85.47 114.72 85.19 114.62 84.91 114.58C84.62 114.55 84.34 114.58 84.07 114.68C83.52 114.89 83.37 115.31 83.73 115.64L88.6 119.9C88.84 120.07 89.11 120.17 89.4 120.2C89.68 120.23 89.97 120.2 90.24 120.09C90.78 119.88 90.96 119.46 90.57 119.15Z" fill="#D8EDEB" fill-opacity="1.000000" fill-rule="nonzero"></path>
&#x9;&#x9;<path id="Vector" d="M37.33 82.17L49.76 93.06C50 93.22 50.27 93.33 50.55 93.36C50.84 93.4 51.13 93.36 51.39 93.26C51.94 93.05 52.08 92.63 51.73 92.31L39.3 81.41C39.07 81.25 38.8 81.15 38.51 81.12C38.23 81.08 37.94 81.12 37.68 81.22C37.12 81.44 36.97 81.86 37.33 82.17Z" fill="#D8EDEB" fill-opacity="1.000000" fill-rule="nonzero"></path>
&#x9;&#x9;<path id="Vector" d="M84.89 121.31L80.01 117.04C79.78 116.88 79.51 116.78 79.22 116.75C78.94 116.71 78.65 116.75 78.38 116.85C77.83 117.06 77.68 117.48 78.04 117.81L82.92 122.07C83.16 122.23 83.43 122.34 83.71 122.37C84 122.4 84.29 122.37 84.55 122.26C85.09 122.04 85.22 121.62 84.89 121.31Z" fill="#D8EDEB" fill-opacity="1.000000" fill-rule="nonzero"></path>
&#x9;&#x9;<path id="Vector" d="M31.69 84.34L47.26 97.96C47.5 98.13 47.77 98.23 48.06 98.26C48.34 98.3 48.63 98.26 48.9 98.16C49.44 97.95 49.6 97.53 49.24 97.21L33.6 83.59C33.37 83.42 33.1 83.32 32.81 83.29C32.53 83.25 32.24 83.29 31.97 83.4C31.43 83.6 31.29 84.03 31.69 84.34Z" fill="#D8EDEB" fill-opacity="1.000000" fill-rule="nonzero"></path>
&#x9;&#x9;<path id="Vector" d="M79.2 123.48L74.33 119.21C74.09 119.05 73.82 118.95 73.53 118.92C73.25 118.88 72.96 118.92 72.69 119.02C72.15 119.22 71.99 119.64 72.36 119.98L77.23 124.24C77.47 124.4 77.74 124.51 78.02 124.54C78.31 124.58 78.6 124.54 78.87 124.44C79.41 124.21 79.56 123.79 79.2 123.48Z" fill="#D8EDEB" fill-opacity="1.000000" fill-rule="nonzero"></path>
&#x9;&#x9;<path id="Vector" d="M49.75 104.86L27.93 85.74C27.69 85.58 27.42 85.47 27.13 85.44C26.85 85.4 26.56 85.44 26.29 85.54C25.75 85.75 25.6 86.17 25.96 86.49L47.79 105.61C48.03 105.77 48.3 105.88 48.58 105.91C48.87 105.94 49.16 105.91 49.42 105.8C49.96 105.59 50.11 105.17 49.75 104.86Z" fill="#D8EDEB" fill-opacity="1.000000" fill-rule="nonzero"></path>
&#x9;&#x9;<path id="Vector" d="M73.51 125.65L68.64 121.37C68.4 121.22 68.13 121.12 67.84 121.08C67.56 121.05 67.27 121.08 67 121.18C66.46 121.39 66.32 121.81 66.68 122.14L71.55 126.4C71.79 126.57 72.06 126.67 72.34 126.7C72.63 126.73 72.91 126.7 73.18 126.59C73.75 126.37 73.88 125.95 73.51 125.65Z" fill="#D8EDEB" fill-opacity="1.000000" fill-rule="nonzero"></path>
&#x9;&#x9;<path id="Vector" d="M40.95 104.31L22.24 87.92C22 87.75 21.73 87.65 21.45 87.62C21.16 87.58 20.87 87.62 20.6 87.73C20.07 87.94 19.92 88.36 20.28 88.68L38.98 105.04C39.21 105.2 39.49 105.3 39.77 105.34C40.05 105.37 40.34 105.34 40.61 105.24C41.15 105.02 41.3 104.6 40.95 104.31Z" fill="#D8EDEB" fill-opacity="1.000000" fill-rule="nonzero"></path>
&#x9;&#x9;<path id="Vector" d="M67.83 127.81L62.95 123.54C62.72 123.38 62.45 123.28 62.16 123.25C61.88 123.21 61.59 123.25 61.33 123.35C60.78 123.55 60.63 123.98 60.99 124.31L65.87 128.57C66.1 128.73 66.38 128.84 66.66 128.87C66.94 128.9 67.23 128.87 67.5 128.76C68.02 128.54 68.18 128.12 67.83 127.81Z" fill="#D8EDEB" fill-opacity="1.000000" fill-rule="nonzero"></path>
&#x9;&#x9;<path id="Vector" d="M14.59 90.83L23.91 99C24.15 99.16 24.42 99.26 24.71 99.29C24.99 99.33 25.28 99.29 25.55 99.19C26.09 98.98 26.23 98.56 25.88 98.23L16.55 90.08C16.32 89.91 16.05 89.81 15.76 89.78C15.48 89.75 15.19 89.78 14.93 89.89C14.38 90.1 14.23 90.53 14.59 90.83Z" fill="#D8EDEB" fill-opacity="1.000000" fill-rule="nonzero"></path>
&#x9;&#x9;<path id="Vector" d="M62.15 129.98L57.27 125.71C57.04 125.55 56.76 125.45 56.48 125.41C56.2 125.38 55.91 125.41 55.64 125.51C55.09 125.72 54.94 126.14 55.3 126.47L60.18 130.73C60.41 130.89 60.68 131 60.97 131.03C61.25 131.06 61.54 131.03 61.8 130.92C62.35 130.71 62.5 130.29 62.15 129.98Z" fill="#D8EDEB" fill-opacity="1.000000" fill-rule="nonzero"></path>
&#x9;&#x9;<path id="Vector" d="M26.44 105.88L10.87 92.25C10.64 92.09 10.36 91.99 10.08 91.95C9.79 91.92 9.51 91.95 9.24 92.06C8.69 92.27 8.54 92.69 8.9 93.01L24.48 106.64C24.71 106.8 24.99 106.9 25.27 106.94C25.55 106.97 25.84 106.93 26.11 106.83C26.66 106.62 26.81 106.22 26.44 105.88Z" fill="#D8EDEB" fill-opacity="1.000000" fill-rule="nonzero"></path>
&#x9;&#x9;<path id="Vector" d="M56.46 132.14L51.59 127.87C51.35 127.71 51.08 127.61 50.79 127.58C50.51 127.54 50.22 127.58 49.95 127.68C49.41 127.89 49.26 128.31 49.62 128.64L54.49 132.9C54.73 133.06 55 133.16 55.28 133.2C55.57 133.23 55.86 133.2 56.13 133.09C56.67 132.87 56.81 132.45 56.46 132.14Z" fill="#D8EDEB" fill-opacity="1.000000" fill-rule="nonzero"></path>
&#x9;&#x9;<path id="Vector" d="M83.18 23.82C82.73 23.55 82.02 23.82 81.44 24.54L66.31 43.31L67.41 45.76L67.94 45.09L116.02 73.27L118.22 73.27L119.81 72.9L135.1 53.78L83.18 23.82Z" fill="#D8EDEB" fill-opacity="1.000000" fill-rule="nonzero"></path>
&#x9;&#x9;<path id="Vector" d="M119.47 67.93L129.24 55.78L81.61 28.28L71.79 40.4L119.47 67.93Z" fill="#F0F9F8" fill-opacity="1.000000" fill-rule="nonzero"></path>
&#x9;&#x9;<path id="Vector" d="M116.49 63.84L123.92 54.62L84.37 31.8L76.92 40.99L116.49 63.84Z" fill="#B8D6D3" fill-opacity="1.000000" fill-rule="nonzero"></path>
&#x9;&#x9;<path id="Vector" d="M118.22 73.27L133.35 54.51C134.03 53.66 134.91 53.43 135.27 53.99C135.43 54.43 135.47 54.9 135.37 55.35C135.28 55.81 135.06 56.22 134.73 56.55L119.3 75.73L118.22 73.27Z" fill="#B8D6D3" fill-opacity="1.000000" fill-rule="nonzero"></path>
&#x9;&#x9;<path id="Vector" d="M66.31 43.31L23.09 68.24C22.68 68.52 22.33 68.88 22.08 69.31C21.84 69.74 21.69 70.23 21.67 70.72C21.65 70.89 21.68 71.07 21.74 71.23C21.81 71.38 21.92 71.52 22.06 71.63L74.23 101.68L75.55 99.38L117.18 75.7L118.14 73.24L66.31 43.31Z" fill="#F0F9F8" fill-opacity="1.000000" fill-rule="nonzero"></path>
&#x9;&#x9;<path id="Vector" d="M119.3 75.73C119.11 75.98 118.87 76.2 118.59 76.36L75.02 101.52C74.23 101.98 73.59 101.61 73.59 100.69C73.62 100.19 73.76 99.71 74.01 99.28C74.26 98.85 74.61 98.48 75.02 98.21L118.22 73.27L119.3 75.73Z" fill="#B8D6D3" fill-opacity="1.000000" fill-rule="nonzero"></path>
&#x9;&#x9;<path id="Vector" d="M80.52 56.25L80.46 56.25L66.46 48.16C66.26 48.06 66.03 48 65.8 48C65.58 48 65.35 48.06 65.15 48.16L62.61 49.62C62.29 49.41 62.31 49.1 62.61 48.9L65.15 47.43C65.35 47.33 65.58 47.28 65.8 47.28C66.03 47.28 66.26 47.33 66.46 47.43L80.44 55.56C80.81 55.72 80.83 56.03 80.52 56.25Z" fill="#B8D6D3" fill-opacity="1.000000" fill-rule="nonzero"></path>
&#x9;&#x9;<path id="Vector" d="M80.52 56.25L80.46 56.25L77.93 57.71C77.73 57.81 77.51 57.87 77.28 57.87C77.05 57.87 76.83 57.81 76.63 57.71L62.61 49.62L65.15 48.16C65.35 48.06 65.58 48 65.8 48C66.03 48 66.26 48.06 66.46 48.16L80.44 56.21L80.52 56.25Z" fill="#D8EDEB" fill-opacity="1.000000" fill-rule="nonzero"></path>
&#x9;&#x9;<path id="Vector" d="M65.62 52.62L62.44 51.6L60.07 50.24C59.87 50.13 59.65 50.08 59.42 50.08C59.2 50.08 58.97 50.13 58.77 50.24L56.78 51.38L54 52.16L54 53.21C54.01 53.29 54.04 53.37 54.09 53.43C54.14 53.5 54.21 53.55 54.28 53.58L59.56 56.62C59.76 56.72 59.98 56.78 60.2 56.78C60.43 56.78 60.65 56.72 60.85 56.62L65.35 54.03C65.42 54 65.49 53.95 65.54 53.88C65.58 53.82 65.61 53.74 65.62 53.66L65.62 52.62Z" fill="#B8D6D3" fill-opacity="1.000000" fill-rule="nonzero"></path>
&#x9;&#x9;<path id="Vector" d="M60.85 55.56C60.65 55.66 60.43 55.72 60.2 55.72C59.98 55.72 59.76 55.66 59.56 55.56L54.28 52.52C54.2 52.49 54.14 52.44 54.09 52.37C54.04 52.31 54.02 52.22 54.02 52.14C54.02 52.06 54.04 51.98 54.09 51.91C54.14 51.84 54.2 51.79 54.28 51.76L58.77 49.17C58.97 49.07 59.2 49.02 59.42 49.02C59.65 49.02 59.87 49.07 60.07 49.17L65.35 52.21C65.43 52.24 65.5 52.29 65.54 52.36C65.59 52.43 65.62 52.51 65.62 52.59C65.62 52.67 65.59 52.75 65.54 52.82C65.5 52.89 65.43 52.94 65.35 52.97L60.85 55.56Z" fill="#E0F3F1" fill-opacity="1.000000" fill-rule="nonzero"></path>
&#x9;&#x9;<path id="Vector" d="M59.11 56.37L55.93 55.36L53.55 53.99C53.36 53.89 53.13 53.83 52.91 53.83C52.68 53.83 52.46 53.89 52.26 53.99L50.26 55.14L47.49 55.92L47.49 56.97C47.5 57.05 47.53 57.12 47.58 57.19C47.63 57.25 47.69 57.3 47.76 57.34L53.04 60.39C53.24 60.49 53.46 60.55 53.69 60.55C53.91 60.55 54.14 60.49 54.34 60.39L58.83 57.8C58.91 57.76 58.97 57.71 59.02 57.64C59.07 57.57 59.1 57.5 59.11 57.41L59.11 56.37Z" fill="#B8D6D3" fill-opacity="1.000000" fill-rule="nonzero"></path>
&#x9;&#x9;<path id="Vector" d="M54.34 59.38C54.14 59.48 53.91 59.53 53.69 59.53C53.46 59.53 53.24 59.48 53.04 59.38L47.76 56.33C47.68 56.31 47.61 56.26 47.57 56.19C47.52 56.12 47.49 56.04 47.49 55.96C47.49 55.88 47.52 55.8 47.57 55.73C47.61 55.66 47.68 55.61 47.76 55.59L52.26 52.99C52.46 52.88 52.68 52.83 52.91 52.83C53.13 52.83 53.36 52.88 53.55 52.99L58.83 56.04C58.91 56.06 58.98 56.11 59.03 56.18C59.08 56.25 59.1 56.33 59.1 56.41C59.1 56.49 59.08 56.57 59.03 56.64C58.98 56.71 58.91 56.76 58.83 56.78L54.34 59.38Z" fill="#E0F3F1" fill-opacity="1.000000" fill-rule="nonzero"></path>
&#x9;&#x9;<path id="Vector" d="M52.6 60.14L49.42 59.13L47.04 57.76C46.84 57.65 46.62 57.6 46.39 57.6C46.16 57.6 45.94 57.65 45.74 57.76L43.75 58.91L40.97 59.68L40.97 60.72C40.98 60.8 41.01 60.88 41.06 60.95C41.1 61.02 41.17 61.07 41.24 61.1L46.52 64.14C46.72 64.25 46.95 64.3 47.17 64.3C47.4 64.3 47.63 64.25 47.83 64.14L52.31 61.55C52.39 61.52 52.46 61.47 52.51 61.41C52.56 61.34 52.59 61.26 52.6 61.18L52.6 60.14Z" fill="#B8D6D3" fill-opacity="1.000000" fill-rule="nonzero"></path>
&#x9;&#x9;<path id="Vector" d="M47.83 63.11C47.62 63.21 47.4 63.26 47.17 63.26C46.95 63.26 46.72 63.21 46.52 63.11L41.25 60.06C41.17 60.03 41.11 59.98 41.06 59.92C41.01 59.85 40.99 59.77 40.99 59.68C40.99 59.6 41.01 59.52 41.06 59.45C41.11 59.39 41.17 59.34 41.25 59.31L45.74 56.72C45.95 56.61 46.17 56.56 46.4 56.56C46.63 56.56 46.85 56.61 47.05 56.72L52.32 59.76C52.69 59.97 52.69 60.3 52.32 60.51L47.83 63.11Z" fill="#E0F3F1" fill-opacity="1.000000" fill-rule="nonzero"></path>
&#x9;&#x9;<path id="Vector" d="M46.08 63.9L42.91 62.89L40.53 61.52C40.32 61.41 40.1 61.36 39.88 61.36C39.65 61.36 39.43 61.41 39.23 61.52L37.23 62.66L34.47 63.45L34.47 64.49C34.47 64.57 34.5 64.65 34.55 64.71C34.59 64.78 34.66 64.83 34.73 64.86L40.01 67.91C40.21 68.01 40.43 68.06 40.66 68.06C40.88 68.06 41.11 68.01 41.31 67.91L45.8 65.31C45.88 65.28 45.94 65.23 45.99 65.16C46.04 65.1 46.07 65.02 46.08 64.94L46.08 63.9Z" fill="#ACCBC8" fill-opacity="1.000000" fill-rule="nonzero"></path>
&#x9;&#x9;<path id="Vector" d="M41.31 66.87C41.11 66.97 40.89 67.03 40.66 67.03C40.43 67.03 40.21 66.97 40.01 66.87L34.73 63.82C34.65 63.79 34.59 63.74 34.54 63.68C34.49 63.61 34.46 63.53 34.46 63.45C34.46 63.36 34.49 63.28 34.54 63.22C34.59 63.15 34.65 63.1 34.73 63.07L39.23 60.47C39.43 60.37 39.65 60.32 39.88 60.32C40.1 60.32 40.32 60.37 40.53 60.47L45.8 63.52C46.17 63.72 46.17 64.07 45.8 64.28L41.31 66.87Z" fill="#B8D6D3" fill-opacity="1.000000" fill-rule="nonzero"></path>
&#x9;&#x9;<path id="Vector" d="M39.57 67.66L36.39 66.65L34.02 65.27C33.81 65.17 33.59 65.12 33.36 65.12C33.13 65.12 32.91 65.17 32.71 65.27L30.74 66.43L27.96 67.2L27.96 68.25C27.97 68.33 28 68.41 28.05 68.47C28.1 68.54 28.16 68.59 28.23 68.62L33.51 71.67C33.71 71.77 33.94 71.83 34.16 71.83C34.39 71.83 34.62 71.77 34.82 71.67L39.31 69.08C39.39 69.04 39.45 68.99 39.5 68.93C39.55 68.86 39.58 68.78 39.59 68.7L39.57 67.66Z" fill="#ACCBC8" fill-opacity="1.000000" fill-rule="nonzero"></path>
&#x9;&#x9;<path id="Vector" d="M34.8 70.62C34.6 70.73 34.37 70.78 34.14 70.78C33.92 70.78 33.69 70.73 33.49 70.62L28.21 67.59C28.14 67.56 28.07 67.51 28.02 67.44C27.97 67.37 27.95 67.29 27.95 67.21C27.95 67.12 27.97 67.04 28.02 66.98C28.07 66.91 28.14 66.86 28.21 66.83L32.71 64.24C32.91 64.14 33.13 64.08 33.36 64.08C33.59 64.08 33.81 64.14 34.02 64.24L39.34 67.28C39.42 67.31 39.48 67.36 39.53 67.43C39.58 67.49 39.61 67.57 39.61 67.66C39.61 67.74 39.58 67.82 39.53 67.89C39.48 67.96 39.42 68.01 39.34 68.03L34.8 70.62Z" fill="#B8D6D3" fill-opacity="1.000000" fill-rule="nonzero"></path>
&#x9;&#x9;<path id="Vector" d="M88.55 59.55L88.55 58.48L86.49 58.13L83.02 56.12C82.81 56.02 82.59 55.97 82.36 55.97C82.13 55.97 81.91 56.02 81.71 56.12L80.07 57.08L78.9 56.88L78.9 57.98C78.9 58.06 78.93 58.13 78.98 58.2C79.03 58.26 79.09 58.32 79.16 58.35L84.45 61.4C84.65 61.5 84.87 61.56 85.1 61.56C85.33 61.56 85.55 61.5 85.75 61.4L88.29 59.94C88.36 59.9 88.42 59.85 88.47 59.78C88.51 59.71 88.54 59.64 88.55 59.56L88.55 59.55Z" fill="#B8D6D3" fill-opacity="1.000000" fill-rule="nonzero"></path>
&#x9;&#x9;<path id="Vector" d="M85.75 60.34C85.55 60.44 85.32 60.49 85.1 60.49C84.87 60.49 84.65 60.44 84.45 60.34L79.16 57.29C79.09 57.26 79.02 57.21 78.97 57.14C78.92 57.08 78.9 56.99 78.9 56.91C78.9 56.83 78.92 56.75 78.97 56.68C79.02 56.61 79.09 56.56 79.16 56.53L81.71 55.07C81.91 54.97 82.13 54.91 82.36 54.91C82.59 54.91 82.81 54.97 83.02 55.07L88.29 58.12C88.37 58.15 88.44 58.2 88.49 58.26C88.54 58.33 88.56 58.41 88.56 58.49C88.56 58.58 88.54 58.66 88.49 58.72C88.44 58.79 88.37 58.84 88.29 58.87L85.75 60.34Z" fill="#E0F3F1" fill-opacity="1.000000" fill-rule="nonzero"></path>
&#x9;&#x9;<path id="Vector" d="M96.37 64.06L96.37 62.99L94.3 62.64L90.83 60.64C90.62 60.54 90.4 60.49 90.17 60.49C89.95 60.49 89.73 60.54 89.52 60.64L87.89 61.59L86.71 61.4L86.71 62.49C86.72 62.57 86.75 62.65 86.8 62.71C86.85 62.78 86.91 62.83 86.98 62.86L92.26 65.91C92.46 66.02 92.68 66.07 92.91 66.07C93.14 66.07 93.36 66.02 93.56 65.91L96.1 64.45C96.18 64.42 96.24 64.36 96.29 64.3C96.34 64.23 96.36 64.15 96.37 64.07L96.37 64.06Z" fill="#B8D6D3" fill-opacity="1.000000" fill-rule="nonzero"></path>
&#x9;&#x9;<path id="Vector" d="M93.56 64.84C93.36 64.95 93.14 65 92.91 65C92.68 65 92.46 64.95 92.26 64.84L86.98 61.79C86.9 61.77 86.83 61.72 86.79 61.65C86.74 61.58 86.71 61.5 86.71 61.42C86.71 61.34 86.74 61.26 86.79 61.19C86.83 61.12 86.9 61.07 86.98 61.05L89.53 59.57C89.73 59.48 89.95 59.42 90.18 59.42C90.4 59.42 90.62 59.48 90.83 59.57L96.1 62.62C96.46 62.82 96.46 63.17 96.1 63.38L93.56 64.84Z" fill="#E0F3F1" fill-opacity="1.000000" fill-rule="nonzero"></path>
&#x9;&#x9;<path id="Vector" d="M105.12 69.1L105.12 67.99L103.04 67.65L99.57 65.64C99.37 65.54 99.14 65.49 98.92 65.49C98.69 65.49 98.46 65.54 98.26 65.64L96.63 66.6L95.45 66.4L95.45 67.5C95.46 67.58 95.49 67.66 95.53 67.72C95.58 67.79 95.65 67.84 95.72 67.87L101 70.92C101.2 71.02 101.42 71.07 101.65 71.07C101.88 71.07 102.1 71.02 102.31 70.92L104.84 69.45C104.91 69.42 104.98 69.37 105.03 69.3C105.08 69.24 105.11 69.16 105.12 69.08L105.12 69.1Z" fill="#B8D6D3" fill-opacity="1.000000" fill-rule="nonzero"></path>
&#x9;&#x9;<path id="Vector" d="M102.31 69.9C102.1 70 101.88 70.05 101.65 70.05C101.42 70.05 101.2 70 101 69.9L95.74 66.84C95.66 66.81 95.59 66.76 95.55 66.69C95.5 66.62 95.47 66.54 95.47 66.46C95.47 66.38 95.5 66.3 95.55 66.23C95.59 66.16 95.66 66.11 95.74 66.08L98.28 64.61C98.49 64.51 98.71 64.46 98.94 64.46C99.16 64.46 99.39 64.51 99.59 64.61L104.86 67.66C105.22 67.87 105.22 68.22 104.86 68.42L102.31 69.9Z" fill="#E0F3F1" fill-opacity="1.000000" fill-rule="nonzero"></path>
&#x9;&#x9;<path id="Vector" d="M112.95 73.62L112.95 72.55L110.88 72.2L107.41 70.19C107.21 70.09 106.98 70.04 106.76 70.04C106.53 70.04 106.3 70.09 106.1 70.19L104.47 71.15L103.29 70.95L103.29 72.05C103.3 72.13 103.33 72.21 103.37 72.27C103.42 72.34 103.48 72.39 103.56 72.42L108.84 75.47C109.05 75.57 109.27 75.62 109.49 75.62C109.71 75.62 109.93 75.57 110.14 75.47L112.68 74C112.75 73.97 112.82 73.92 112.86 73.85C112.91 73.78 112.94 73.71 112.95 73.63L112.95 73.62Z" fill="#B8D6D3" fill-opacity="1.000000" fill-rule="nonzero"></path>
&#x9;&#x9;<path id="Vector" d="M110.08 74.4C109.88 74.5 109.66 74.55 109.43 74.55C109.21 74.55 108.99 74.5 108.79 74.4L103.5 71.35C103.42 71.32 103.36 71.27 103.31 71.2C103.26 71.14 103.24 71.06 103.24 70.97C103.24 70.89 103.26 70.81 103.31 70.74C103.36 70.68 103.42 70.62 103.5 70.6L106.04 69.13C106.25 69.03 106.47 68.98 106.7 68.98C106.93 68.98 107.15 69.03 107.35 69.13L112.62 72.18C112.7 72.21 112.77 72.26 112.82 72.33C112.87 72.39 112.89 72.47 112.89 72.56C112.89 72.64 112.87 72.72 112.82 72.79C112.77 72.85 112.7 72.9 112.62 72.93L110.08 74.4Z" fill="#E0F3F1" fill-opacity="1.000000" fill-rule="nonzero"></path>
&#x9;&#x9;<path id="Vector" d="M74.36 57.65L71.18 56.65L68.82 55.27C68.62 55.17 68.39 55.12 68.17 55.12C67.94 55.12 67.71 55.17 67.51 55.27L65.51 56.43L62.74 57.2L62.74 58.25C62.75 58.33 62.78 58.4 62.83 58.47C62.87 58.54 62.94 58.59 63.01 58.63L68.29 61.67C68.49 61.77 68.71 61.83 68.94 61.83C69.17 61.83 69.39 61.77 69.59 61.67L74.09 59.08C74.16 59.05 74.23 58.99 74.27 58.93C74.32 58.86 74.35 58.79 74.36 58.7L74.36 57.65Z" fill="#B8D6D3" fill-opacity="1.000000" fill-rule="nonzero"></path>
&#x9;&#x9;<path id="Vector" d="M69.59 60.63C69.39 60.73 69.17 60.78 68.94 60.78C68.71 60.78 68.49 60.73 68.28 60.63L63.01 57.59C62.93 57.56 62.86 57.51 62.82 57.44C62.77 57.37 62.74 57.29 62.74 57.21C62.74 57.13 62.77 57.05 62.82 56.98C62.86 56.91 62.93 56.86 63.01 56.83L67.51 54.23C67.71 54.13 67.94 54.08 68.17 54.08C68.39 54.08 68.62 54.13 68.82 54.23L74.09 57.28C74.16 57.31 74.23 57.36 74.28 57.43C74.33 57.49 74.35 57.58 74.35 57.66C74.35 57.74 74.33 57.82 74.28 57.89C74.23 57.96 74.16 58.01 74.09 58.04L69.59 60.63Z" fill="#E0F3F1" fill-opacity="1.000000" fill-rule="nonzero"></path>
&#x9;&#x9;<path id="Vector" d="M82.16 62.17L79 61.21L76.62 59.78C76.42 59.69 76.19 59.63 75.97 59.63C75.74 59.63 75.51 59.69 75.31 59.78L73.32 60.94L70.55 61.72L70.55 62.77C70.56 62.85 70.59 62.92 70.63 62.99C70.68 63.05 70.74 63.1 70.82 63.13L76.09 66.18C76.3 66.28 76.52 66.34 76.75 66.34C76.98 66.34 77.2 66.28 77.4 66.18L81.91 63.59C81.98 63.55 82.04 63.5 82.08 63.43C82.12 63.36 82.15 63.29 82.16 63.21L82.16 62.17Z" fill="#B8D6D3" fill-opacity="1.000000" fill-rule="nonzero"></path>
&#x9;&#x9;<path id="Vector" d="M77.41 65.12C77.21 65.22 76.99 65.28 76.76 65.28C76.53 65.28 76.31 65.22 76.1 65.12L70.83 62.08C70.75 62.05 70.68 62 70.64 61.93C70.59 61.86 70.56 61.78 70.56 61.7C70.56 61.62 70.59 61.54 70.64 61.47C70.68 61.4 70.75 61.35 70.83 61.32L75.32 58.72C75.52 58.63 75.75 58.57 75.98 58.57C76.2 58.57 76.43 58.63 76.63 58.72L81.92 61.77C81.99 61.8 82.06 61.85 82.11 61.92C82.16 61.99 82.18 62.07 82.18 62.15C82.18 62.23 82.16 62.31 82.11 62.38C82.06 62.45 81.99 62.5 81.92 62.53L77.41 65.12Z" fill="#E0F3F1" fill-opacity="1.000000" fill-rule="nonzero"></path>
&#x9;&#x9;<path id="Vector" d="M75.66 65.93L72.49 64.92L70.11 63.55C69.91 63.45 69.69 63.39 69.47 63.39C69.24 63.39 69.02 63.45 68.82 63.55L66.82 64.7L64.05 65.48L64.05 66.52C64.06 66.6 64.09 66.68 64.13 66.75C64.18 66.81 64.24 66.86 64.32 66.9L69.59 69.95C69.8 70.05 70.02 70.1 70.24 70.1C70.47 70.1 70.69 70.05 70.89 69.95L75.4 67.35C75.47 67.31 75.53 67.26 75.58 67.2C75.63 67.13 75.66 67.05 75.66 66.97L75.66 65.93Z" fill="#ACCBC8" fill-opacity="1.000000" fill-rule="nonzero"></path>
&#x9;&#x9;<path id="Vector" d="M70.89 68.94C70.68 69.05 70.46 69.1 70.24 69.1C70.01 69.1 69.79 69.05 69.59 68.94L64.31 65.89C64.23 65.87 64.16 65.81 64.12 65.75C64.07 65.68 64.04 65.6 64.04 65.52C64.04 65.43 64.07 65.35 64.12 65.28C64.16 65.22 64.23 65.17 64.31 65.14L68.81 62.55C69.01 62.44 69.23 62.39 69.46 62.39C69.68 62.39 69.9 62.44 70.1 62.55L75.39 65.6C75.47 65.62 75.53 65.67 75.58 65.74C75.63 65.81 75.66 65.89 75.66 65.97C75.66 66.05 75.63 66.13 75.58 66.2C75.53 66.27 75.47 66.32 75.39 66.34L70.89 68.94Z" fill="#B8D6D3" fill-opacity="1.000000" fill-rule="nonzero"></path>
&#x9;&#x9;<path id="Vector" d="M69.15 69.7L65.97 68.68L63.6 67.31C63.4 67.21 63.18 67.16 62.95 67.16C62.73 67.16 62.5 67.21 62.3 67.31L60.3 68.46L57.53 69.24L57.53 70.28C57.54 70.36 57.57 70.44 57.62 70.51C57.66 70.57 57.73 70.63 57.8 70.66L63.08 73.7C63.28 73.81 63.5 73.86 63.73 73.86C63.95 73.86 64.17 73.81 64.38 73.7L68.88 71.11C68.95 71.08 69.02 71.02 69.06 70.96C69.11 70.89 69.14 70.81 69.15 70.73L69.15 69.7Z" fill="#ACCBC8" fill-opacity="1.000000" fill-rule="nonzero"></path>
&#x9;&#x9;<path id="Vector" d="M64.38 72.66C64.17 72.76 63.95 72.82 63.73 72.82C63.5 72.82 63.28 72.76 63.08 72.66L57.8 69.62C57.72 69.59 57.65 69.54 57.61 69.47C57.56 69.41 57.53 69.33 57.53 69.24C57.53 69.16 57.56 69.08 57.61 69.01C57.65 68.95 57.72 68.89 57.8 68.87L62.28 66.27C62.48 66.17 62.71 66.12 62.93 66.12C63.16 66.12 63.38 66.17 63.58 66.27L68.86 69.32C68.94 69.34 69 69.39 69.05 69.46C69.1 69.53 69.12 69.61 69.12 69.69C69.12 69.78 69.1 69.86 69.05 69.92C69 69.99 68.94 70.04 68.86 70.07L64.38 72.66Z" fill="#B8D6D3" fill-opacity="1.000000" fill-rule="nonzero"></path>
&#x9;&#x9;<path id="Vector" d="M62.64 73.45L59.46 72.44L57.08 71.07C56.88 70.97 56.66 70.92 56.43 70.92C56.21 70.92 55.98 70.97 55.78 71.07L53.79 72.22L51.02 73.01L51.02 74.05C51.03 74.13 51.06 74.2 51.1 74.27C51.15 74.34 51.21 74.39 51.29 74.42L56.56 77.47C56.76 77.57 56.98 77.62 57.21 77.62C57.44 77.62 57.66 77.57 57.87 77.47L62.36 74.87C62.43 74.83 62.5 74.78 62.54 74.72C62.59 74.65 62.62 74.58 62.64 74.5L62.64 73.45Z" fill="#ACCBC8" fill-opacity="1.000000" fill-rule="nonzero"></path>
&#x9;&#x9;<path id="Vector" d="M57.87 76.43C57.66 76.53 57.44 76.58 57.21 76.58C56.98 76.58 56.76 76.53 56.56 76.43L51.29 73.38C50.93 73.18 50.93 72.83 51.29 72.62L55.78 70.03C55.98 69.93 56.21 69.87 56.43 69.87C56.66 69.87 56.88 69.93 57.08 70.03L62.36 73.08C62.44 73.11 62.51 73.16 62.55 73.22C62.6 73.29 62.63 73.37 62.63 73.45C62.63 73.54 62.6 73.62 62.55 73.68C62.51 73.75 62.44 73.8 62.36 73.83L57.87 76.43Z" fill="#B8D6D3" fill-opacity="1.000000" fill-rule="nonzero"></path>
&#x9;&#x9;<path id="Vector" d="M56.12 77.21L52.94 76.21L50.57 74.83C50.37 74.73 50.15 74.67 49.92 74.67C49.7 74.67 49.47 74.73 49.27 74.83L47.27 75.99L44.5 76.76L44.5 77.8C44.51 77.88 44.54 77.96 44.59 78.03C44.63 78.1 44.7 78.15 44.77 78.19L50.05 81.23C50.25 81.33 50.47 81.38 50.7 81.38C50.93 81.38 51.15 81.33 51.36 81.23L55.85 78.64C55.92 78.6 55.99 78.55 56.04 78.48C56.08 78.41 56.11 78.34 56.12 78.25L56.12 77.21Z" fill="#ACCBC8" fill-opacity="1.000000" fill-rule="nonzero"></path>
&#x9;&#x9;<path id="Vector" d="M51.36 80.18C51.15 80.29 50.93 80.34 50.7 80.34C50.47 80.34 50.25 80.29 50.05 80.18L44.77 77.13C44.69 77.11 44.62 77.06 44.57 76.99C44.53 76.93 44.5 76.84 44.5 76.76C44.5 76.68 44.53 76.6 44.57 76.53C44.62 76.46 44.69 76.41 44.77 76.39L49.27 73.79C49.47 73.69 49.7 73.64 49.92 73.64C50.15 73.64 50.37 73.69 50.57 73.79L55.85 76.84C56.2 77.05 56.2 77.38 55.85 77.58L51.36 80.18Z" fill="#B8D6D3" fill-opacity="1.000000" fill-rule="nonzero"></path>
&#x9;&#x9;<path id="Vector" d="M67.84 61.42L64.67 60.41L62.28 59.04C62.08 58.94 61.85 58.88 61.63 58.88C61.4 58.88 61.17 58.94 60.97 59.04L58.97 60.19L56.21 60.97L56.21 62.01C56.22 62.09 56.25 62.17 56.29 62.24C56.34 62.3 56.41 62.35 56.48 62.39L61.76 65.43C61.96 65.53 62.18 65.58 62.41 65.58C62.63 65.58 62.85 65.53 63.06 65.43L67.56 62.83C67.63 62.8 67.69 62.75 67.74 62.68C67.78 62.62 67.81 62.54 67.82 62.46L67.84 61.42Z" fill="#ACCBC8" fill-opacity="1.000000" fill-rule="nonzero"></path>
&#x9;&#x9;<path id="Vector" d="M63.08 64.39C62.87 64.49 62.65 64.54 62.43 64.54C62.2 64.54 61.98 64.49 61.78 64.39L56.55 61.34C56.47 61.31 56.4 61.26 56.35 61.2C56.31 61.13 56.28 61.05 56.28 60.97C56.28 60.88 56.31 60.8 56.35 60.73C56.4 60.67 56.47 60.62 56.55 60.59L61.04 58C61.24 57.89 61.47 57.84 61.69 57.84C61.92 57.84 62.15 57.89 62.35 58L67.63 61.05C67.7 61.07 67.77 61.12 67.82 61.19C67.87 61.26 67.9 61.34 67.9 61.42C67.9 61.5 67.87 61.58 67.82 61.65C67.77 61.72 67.7 61.77 67.63 61.79L63.08 64.39Z" fill="#B8D6D3" fill-opacity="1.000000" fill-rule="nonzero"></path>
&#x9;&#x9;<path id="Vector" d="M61.33 65.18L58.15 64.16L55.78 62.79C55.58 62.68 55.36 62.63 55.13 62.63C54.91 62.63 54.68 62.68 54.48 62.79L52.48 63.94L49.71 64.72L49.71 65.76C49.72 65.84 49.75 65.92 49.8 65.98C49.84 66.05 49.91 66.1 49.98 66.14L55.27 69.18C55.46 69.29 55.69 69.34 55.91 69.34C56.14 69.34 56.36 69.29 56.56 69.18L61.06 66.58C61.13 66.55 61.2 66.5 61.25 66.43C61.29 66.37 61.32 66.29 61.33 66.21L61.33 65.18Z" fill="#ACCBC8" fill-opacity="1.000000" fill-rule="nonzero"></path>
&#x9;&#x9;<path id="Vector" d="M56.55 68.15C56.35 68.25 56.13 68.31 55.9 68.31C55.68 68.31 55.46 68.25 55.26 68.15L49.98 65.12C49.9 65.09 49.83 65.04 49.78 64.98C49.73 64.91 49.71 64.83 49.71 64.75C49.71 64.66 49.73 64.58 49.78 64.52C49.83 64.45 49.9 64.4 49.98 64.37L54.48 61.77C54.68 61.67 54.91 61.62 55.13 61.62C55.36 61.62 55.58 61.67 55.78 61.77L61.06 64.82C61.41 65.03 61.41 65.37 61.06 65.57L56.55 68.15Z" fill="#B8D6D3" fill-opacity="1.000000" fill-rule="nonzero"></path>
&#x9;&#x9;<path id="Vector" d="M54.82 68.94L51.64 67.93L49.27 66.56C49.07 66.46 48.85 66.4 48.62 66.4C48.39 66.4 48.17 66.46 47.96 66.56L45.97 67.71L43.2 68.49L43.2 69.53C43.21 69.62 43.24 69.69 43.28 69.76C43.33 69.82 43.4 69.88 43.47 69.91L48.75 72.96C48.95 73.06 49.17 73.11 49.4 73.11C49.62 73.11 49.84 73.06 50.05 72.96L54.55 70.36C54.62 70.32 54.68 70.27 54.73 70.21C54.78 70.14 54.81 70.06 54.82 69.98L54.82 68.94Z" fill="#ACCBC8" fill-opacity="1.000000" fill-rule="nonzero"></path>
&#x9;&#x9;<path id="Vector" d="M50.05 71.92C49.84 72.01 49.62 72.07 49.4 72.07C49.17 72.07 48.95 72.01 48.75 71.92L43.47 68.87C43.39 68.84 43.32 68.79 43.28 68.72C43.23 68.65 43.2 68.57 43.2 68.49C43.2 68.41 43.23 68.33 43.28 68.26C43.32 68.19 43.39 68.14 43.47 68.11L47.96 65.52C48.16 65.42 48.39 65.36 48.62 65.36C48.84 65.36 49.07 65.42 49.27 65.52L54.55 68.57C54.63 68.6 54.7 68.64 54.74 68.71C54.79 68.78 54.82 68.86 54.82 68.94C54.82 69.03 54.79 69.11 54.74 69.17C54.7 69.24 54.63 69.29 54.55 69.32L50.05 71.92Z" fill="#B8D6D3" fill-opacity="1.000000" fill-rule="nonzero"></path>
&#x9;&#x9;<path id="Vector" d="M48.3 72.7L45.13 71.69L42.75 70.32C42.55 70.22 42.33 70.17 42.1 70.17C41.88 70.17 41.66 70.22 41.45 70.32L39.45 71.48L36.68 72.25L36.68 73.29C36.69 73.37 36.72 73.45 36.77 73.51C36.81 73.58 36.88 73.63 36.95 73.66L42.24 76.71C42.44 76.82 42.66 76.87 42.89 76.87C43.11 76.87 43.34 76.82 43.54 76.71L48.03 74.12C48.1 74.09 48.17 74.03 48.21 73.97C48.26 73.9 48.29 73.82 48.3 73.74L48.3 72.7Z" fill="#ACCBC8" fill-opacity="1.000000" fill-rule="nonzero"></path>
&#x9;&#x9;<path id="Vector" d="M43.54 75.63C43.34 75.74 43.11 75.79 42.89 75.79C42.66 75.79 42.44 75.74 42.24 75.63L36.95 72.58C36.87 72.56 36.8 72.51 36.75 72.44C36.71 72.38 36.68 72.29 36.68 72.21C36.68 72.13 36.71 72.05 36.75 71.98C36.8 71.91 36.87 71.86 36.95 71.84L41.45 69.24C41.65 69.14 41.88 69.08 42.1 69.08C42.33 69.08 42.55 69.14 42.75 69.24L48.03 72.29C48.11 72.32 48.17 72.37 48.22 72.44C48.27 72.5 48.29 72.58 48.29 72.67C48.29 72.75 48.27 72.83 48.22 72.9C48.17 72.96 48.11 73.02 48.03 73.04L43.54 75.63Z" fill="#B8D6D3" fill-opacity="1.000000" fill-rule="nonzero"></path>
&#x9;&#x9;<path id="Vector" d="M90 66.69L86.84 65.67L84.47 64.31C84.27 64.2 84.04 64.15 83.81 64.15C83.59 64.15 83.36 64.2 83.16 64.31L81.17 65.45L78.4 66.24L78.4 67.28C78.41 67.36 78.44 67.44 78.48 67.5C78.53 67.57 78.59 67.62 78.67 67.65L83.94 70.7C84.15 70.8 84.37 70.85 84.59 70.85C84.82 70.85 85.04 70.8 85.24 70.7L89.75 68.1C89.82 68.07 89.88 68.01 89.92 67.95C89.97 67.88 90 67.81 90 67.73L90 66.69Z" fill="#B8D6D3" fill-opacity="1.000000" fill-rule="nonzero"></path>
&#x9;&#x9;<path id="Vector" d="M85.22 69.66C85.02 69.76 84.8 69.81 84.57 69.81C84.35 69.81 84.13 69.76 83.92 69.66L78.65 66.61C78.57 66.58 78.5 66.53 78.46 66.46C78.41 66.4 78.38 66.31 78.38 66.23C78.38 66.15 78.41 66.07 78.46 66C78.5 65.93 78.57 65.88 78.65 65.85L83.14 63.26C83.34 63.16 83.57 63.11 83.79 63.11C84.02 63.11 84.25 63.16 84.45 63.26L89.73 66.3C89.8 66.33 89.87 66.38 89.92 66.45C89.97 66.52 89.99 66.6 89.99 66.68C89.99 66.76 89.97 66.84 89.92 66.91C89.87 66.98 89.8 67.03 89.73 67.06L85.22 69.66Z" fill="#E0F3F1" fill-opacity="1.000000" fill-rule="nonzero"></path>
&#x9;&#x9;<path id="Vector" d="M83.47 70.44L80.31 69.43L77.93 68.06C77.73 67.96 77.51 67.9 77.28 67.9C77.05 67.9 76.83 67.96 76.63 68.06L74.63 69.21L71.87 69.99L71.87 71.04C71.88 71.12 71.91 71.19 71.95 71.26C72 71.32 72.06 71.38 72.14 71.41L77.41 74.46C77.61 74.56 77.84 74.62 78.06 74.62C78.29 74.62 78.51 74.56 78.71 74.46L83.21 71.86C83.28 71.83 83.35 71.78 83.39 71.71C83.44 71.64 83.47 71.57 83.47 71.49L83.47 70.44Z" fill="#ACCBC8" fill-opacity="1.000000" fill-rule="nonzero"></path>
&#x9;&#x9;<path id="Vector" d="M78.71 73.42C78.51 73.52 78.29 73.57 78.06 73.57C77.84 73.57 77.61 73.52 77.41 73.42L72.14 70.37C71.77 70.16 71.77 69.82 72.14 69.62L76.62 67.03C76.82 66.93 77.05 66.88 77.27 66.88C77.5 66.88 77.72 66.93 77.92 67.03L83.2 70.08C83.27 70.11 83.34 70.16 83.39 70.23C83.44 70.29 83.46 70.37 83.46 70.46C83.46 70.54 83.44 70.62 83.39 70.69C83.34 70.76 83.27 70.81 83.2 70.83L78.71 73.42Z" fill="#B8D6D3" fill-opacity="1.000000" fill-rule="nonzero"></path>
&#x9;&#x9;<path id="Vector" d="M76.96 74.2L73.75 73.2L71.42 71.81C71.22 71.71 70.99 71.66 70.77 71.66C70.54 71.66 70.31 71.71 70.11 71.81L68.12 72.97L65.35 73.74L65.35 74.78C65.36 74.86 65.39 74.94 65.43 75.01C65.48 75.08 65.54 75.13 65.62 75.17L70.89 78.21C71.09 78.32 71.31 78.37 71.54 78.37C71.76 78.37 71.98 78.32 72.19 78.21L76.69 75.62C76.76 75.59 76.83 75.54 76.87 75.47C76.92 75.4 76.95 75.32 76.96 75.24L76.96 74.2Z" fill="#ACCBC8" fill-opacity="1.000000" fill-rule="nonzero"></path>
&#x9;&#x9;<path id="Vector" d="M72.19 77.18C71.99 77.28 71.77 77.33 71.54 77.33C71.32 77.33 71.1 77.28 70.89 77.18L65.62 74.13C65.54 74.1 65.47 74.05 65.43 73.99C65.38 73.92 65.35 73.84 65.35 73.76C65.35 73.67 65.38 73.59 65.43 73.52C65.47 73.46 65.54 73.41 65.62 73.38L70.11 70.78C70.31 70.68 70.54 70.63 70.77 70.63C70.99 70.63 71.22 70.68 71.42 70.78L76.7 73.83C76.77 73.86 76.84 73.91 76.89 73.97C76.94 74.04 76.96 74.12 76.96 74.2C76.96 74.29 76.94 74.37 76.89 74.44C76.84 74.5 76.77 74.55 76.7 74.58L72.19 77.18Z" fill="#B8D6D3" fill-opacity="1.000000" fill-rule="nonzero"></path>
&#x9;&#x9;<path id="Vector" d="M70.45 77.97L67.28 76.95L64.9 75.63C64.7 75.53 64.48 75.48 64.25 75.48C64.02 75.48 63.8 75.53 63.6 75.63L61.6 76.78L58.83 77.56L58.83 78.61C58.84 78.69 58.87 78.76 58.92 78.83C58.97 78.9 59.03 78.95 59.11 78.98L64.38 82.03C64.58 82.13 64.8 82.18 65.03 82.18C65.26 82.18 65.48 82.13 65.68 82.03L70.18 79.43C70.25 79.4 70.32 79.35 70.36 79.28C70.41 79.21 70.44 79.14 70.45 79.06L70.45 77.97Z" fill="#ACCBC8" fill-opacity="1.000000" fill-rule="nonzero"></path>
&#x9;&#x9;<path id="Vector" d="M65.69 80.94C65.48 81.04 65.26 81.1 65.03 81.1C64.8 81.1 64.58 81.04 64.38 80.94L59.11 77.89C58.75 77.69 58.75 77.34 59.11 77.13L63.6 74.54C63.8 74.44 64.02 74.39 64.25 74.39C64.48 74.39 64.7 74.44 64.9 74.54L70.18 77.58C70.26 77.61 70.33 77.66 70.38 77.73C70.43 77.8 70.46 77.88 70.46 77.97C70.46 78.05 70.43 78.13 70.38 78.2C70.33 78.27 70.26 78.32 70.18 78.35L65.69 80.94Z" fill="#B8D6D3" fill-opacity="1.000000" fill-rule="nonzero"></path>
&#x9;&#x9;<path id="Vector" d="M63.94 81.72L60.76 80.72L58.38 79.35C58.18 79.25 57.96 79.19 57.73 79.19C57.51 79.19 57.28 79.25 57.08 79.35L55.09 80.5L52.31 81.27L52.31 82.33C52.32 82.41 52.35 82.49 52.4 82.55C52.45 82.62 52.51 82.67 52.59 82.71L57.87 85.75C58.07 85.85 58.29 85.91 58.52 85.91C58.74 85.91 58.96 85.85 59.17 85.75L63.66 83.16C63.73 83.12 63.8 83.07 63.85 83.01C63.9 82.94 63.93 82.87 63.94 82.78L63.94 81.72Z" fill="#ACCBC8" fill-opacity="1.000000" fill-rule="nonzero"></path>
&#x9;&#x9;<path id="Vector" d="M59.17 84.7C58.96 84.8 58.74 84.85 58.52 84.85C58.29 84.85 58.07 84.8 57.87 84.7L52.59 81.66C52.23 81.45 52.23 81.1 52.59 80.9L57.08 78.3C57.28 78.2 57.51 78.15 57.73 78.15C57.96 78.15 58.18 78.2 58.38 78.3L63.66 81.35C63.74 81.38 63.8 81.43 63.85 81.5C63.9 81.56 63.92 81.65 63.92 81.73C63.92 81.81 63.9 81.89 63.85 81.96C63.8 82.03 63.74 82.08 63.66 82.11L59.17 84.7Z" fill="#B8D6D3" fill-opacity="1.000000" fill-rule="nonzero"></path>
&#x9;&#x9;<path id="Vector" d="M98.73 71.72L95.56 70.77L93.18 69.4C92.98 69.29 92.75 69.24 92.53 69.24C92.3 69.24 92.08 69.29 91.88 69.4L89.89 70.55L87.12 71.32L87.12 72.36C87.13 72.45 87.15 72.52 87.2 72.59C87.25 72.66 87.31 72.71 87.38 72.75L92.66 75.79C92.86 75.89 93.08 75.94 93.31 75.94C93.54 75.94 93.76 75.89 93.96 75.79L98.46 73.2C98.54 73.16 98.6 73.11 98.65 73.04C98.69 72.97 98.72 72.9 98.73 72.81L98.73 71.72Z" fill="#B8D6D3" fill-opacity="1.000000" fill-rule="nonzero"></path>
&#x9;&#x9;<path id="Vector" d="M93.96 74.68C93.76 74.78 93.54 74.84 93.31 74.84C93.08 74.84 92.86 74.78 92.66 74.68L87.38 71.64C87.02 71.43 87.02 71.08 87.38 70.88L91.88 68.28C92.08 68.18 92.3 68.13 92.53 68.13C92.75 68.13 92.97 68.18 93.18 68.28L98.46 71.33C98.54 71.36 98.61 71.41 98.65 71.48C98.7 71.55 98.73 71.63 98.73 71.71C98.73 71.79 98.7 71.87 98.65 71.94C98.61 72.01 98.54 72.06 98.46 72.09L93.96 74.68Z" fill="#E0F3F1" fill-opacity="1.000000" fill-rule="nonzero"></path>
&#x9;&#x9;<path id="Vector" d="M92.21 75.49L89.05 74.48L86.68 73.11C86.47 73.01 86.25 72.95 86.02 72.95C85.79 72.95 85.57 73.01 85.37 73.11L83.38 74.26L80.61 75.04L80.61 76.08C80.62 76.16 80.64 76.24 80.69 76.3C80.74 76.37 80.8 76.42 80.87 76.46L86.16 79.51C86.36 79.6 86.59 79.66 86.81 79.66C87.04 79.66 87.26 79.6 87.46 79.51L91.95 76.91C92.03 76.87 92.09 76.82 92.14 76.76C92.19 76.69 92.21 76.61 92.22 76.53L92.21 75.49Z" fill="#B8D6D3" fill-opacity="1.000000" fill-rule="nonzero"></path>
&#x9;&#x9;<path id="Vector" d="M87.45 78.5C87.25 78.6 87.03 78.65 86.8 78.65C86.58 78.65 86.35 78.6 86.15 78.5L80.86 75.45C80.79 75.42 80.72 75.37 80.67 75.31C80.63 75.24 80.6 75.16 80.6 75.07C80.6 74.99 80.63 74.91 80.67 74.84C80.72 74.78 80.79 74.73 80.86 74.7L85.36 72.11C85.56 72 85.78 71.95 86.01 71.95C86.24 71.95 86.46 72 86.67 72.11L91.94 75.16C92.31 75.36 92.31 75.69 91.94 75.9L87.45 78.5Z" fill="#E0F3F1" fill-opacity="1.000000" fill-rule="nonzero"></path>
&#x9;&#x9;<path id="Vector" d="M85.7 79.25L82.53 78.24L80.15 76.87C79.94 76.77 79.72 76.72 79.5 76.72C79.27 76.72 79.05 76.77 78.85 76.87L76.86 78.01L74.09 78.8L74.09 79.84C74.09 79.92 74.12 80 74.17 80.06C74.22 80.13 74.28 80.18 74.35 80.21L79.63 83.26C79.83 83.37 80.06 83.42 80.29 83.42C80.51 83.42 80.74 83.37 80.94 83.26L85.42 80.67C85.5 80.64 85.57 80.59 85.62 80.52C85.67 80.45 85.7 80.37 85.7 80.29L85.7 79.25Z" fill="#B8D6D3" fill-opacity="1.000000" fill-rule="nonzero"></path>
&#x9;&#x9;<path id="Vector" d="M80.94 82.22C80.74 82.32 80.51 82.38 80.29 82.38C80.06 82.38 79.83 82.32 79.63 82.22L74.35 79.17C74.28 79.15 74.21 79.1 74.16 79.03C74.11 78.96 74.08 78.88 74.08 78.8C74.08 78.72 74.11 78.63 74.16 78.57C74.21 78.5 74.28 78.45 74.35 78.43L78.85 75.83C79.05 75.73 79.27 75.67 79.5 75.67C79.72 75.67 79.95 75.73 80.15 75.83L85.42 78.87C85.5 78.9 85.57 78.95 85.62 79.02C85.66 79.09 85.69 79.17 85.69 79.25C85.69 79.33 85.66 79.42 85.62 79.48C85.57 79.55 85.5 79.6 85.42 79.63L80.94 82.22Z" fill="#E0F3F1" fill-opacity="1.000000" fill-rule="nonzero"></path>
&#x9;&#x9;<path id="Vector" d="M77.94 83.12L73.64 80.63C73.44 80.53 73.21 80.48 72.98 80.48C72.76 80.48 72.53 80.53 72.33 80.63L62.01 86.59L61.06 86.32L61.06 87.36C61.06 87.44 61.09 87.52 61.14 87.59C61.19 87.65 61.25 87.7 61.33 87.74L66.6 90.79C66.81 90.89 67.03 90.94 67.26 90.94C67.49 90.94 67.71 90.89 67.91 90.79L78.91 84.43C78.99 84.4 79.05 84.34 79.1 84.28C79.15 84.21 79.18 84.14 79.18 84.06L79.18 83.01L77.94 83.12Z" fill="#B8D6D3" fill-opacity="1.000000" fill-rule="nonzero"></path>
&#x9;&#x9;<path id="Vector" d="M78.91 82.63L73.64 79.59C73.44 79.49 73.21 79.43 72.98 79.43C72.76 79.43 72.53 79.49 72.33 79.59L61.33 85.95C61.25 85.97 61.18 86.02 61.13 86.09C61.08 86.16 61.05 86.24 61.05 86.32C61.05 86.4 61.08 86.48 61.13 86.55C61.18 86.62 61.25 86.67 61.33 86.69L66.6 89.74C66.81 89.85 67.03 89.9 67.26 89.9C67.49 89.9 67.71 89.85 67.91 89.74L78.91 83.39C79.28 83.19 79.28 82.84 78.91 82.63Z" fill="#E0F3F1" fill-opacity="1.000000" fill-rule="nonzero"></path>
&#x9;&#x9;<path id="Vector" d="M106.55 76.24L103.38 75.28L101 73.9C100.79 73.8 100.57 73.75 100.35 73.75C100.12 73.75 99.9 73.8 99.7 73.9L97.7 75.06L94.94 75.83L94.94 76.88C94.94 76.96 94.97 77.04 95.02 77.11C95.06 77.17 95.13 77.23 95.2 77.26L100.48 80.3C100.68 80.4 100.9 80.46 101.13 80.46C101.36 80.46 101.58 80.4 101.78 80.3L106.27 77.71C106.35 77.68 106.41 77.62 106.46 77.56C106.51 77.49 106.54 77.42 106.55 77.34L106.55 76.24Z" fill="#B8D6D3" fill-opacity="1.000000" fill-rule="nonzero"></path>
&#x9;&#x9;<path id="Vector" d="M101.78 79.21C101.58 79.31 101.36 79.37 101.13 79.37C100.9 79.37 100.68 79.31 100.48 79.21L95.2 76.17C95.13 76.14 95.06 76.09 95.01 76.02C94.96 75.95 94.94 75.87 94.94 75.79C94.94 75.71 94.96 75.63 95.01 75.56C95.06 75.49 95.13 75.44 95.2 75.41L99.7 72.82C99.9 72.72 100.12 72.67 100.35 72.67C100.57 72.67 100.8 72.72 101 72.82L106.27 75.86C106.64 76.07 106.64 76.42 106.27 76.62L101.78 79.21Z" fill="#E0F3F1" fill-opacity="1.000000" fill-rule="nonzero"></path>
&#x9;&#x9;<path id="Vector" d="M100.03 80L96.87 78.99L94.48 77.62C94.28 77.52 94.05 77.46 93.83 77.46C93.6 77.46 93.38 77.52 93.18 77.62L91.19 78.77L88.42 79.55L88.42 80.6C88.42 80.68 88.45 80.75 88.5 80.82C88.55 80.88 88.61 80.94 88.68 80.97L93.96 84.02C94.16 84.12 94.39 84.17 94.62 84.17C94.84 84.17 95.07 84.12 95.27 84.02L99.75 81.42C99.83 81.39 99.9 81.33 99.94 81.27C99.99 81.2 100.02 81.13 100.03 81.04L100.03 80Z" fill="#B8D6D3" fill-opacity="1.000000" fill-rule="nonzero"></path>
&#x9;&#x9;<path id="Vector" d="M95.27 82.98C95.07 83.08 94.84 83.13 94.62 83.13C94.39 83.13 94.16 83.08 93.96 82.98L88.68 79.93C88.61 79.9 88.54 79.85 88.49 79.78C88.44 79.71 88.42 79.63 88.42 79.55C88.42 79.47 88.44 79.39 88.49 79.32C88.54 79.25 88.61 79.2 88.68 79.17L93.18 76.58C93.38 76.48 93.6 76.42 93.83 76.42C94.05 76.42 94.28 76.48 94.48 76.58L99.75 79.63C100.12 79.84 100.12 80.17 99.75 80.38L95.27 82.98Z" fill="#E0F3F1" fill-opacity="1.000000" fill-rule="nonzero"></path>
&#x9;&#x9;<path id="Vector" d="M93.52 83.77L90.35 82.76L87.97 81.37C87.77 81.27 87.54 81.21 87.32 81.21C87.09 81.21 86.87 81.27 86.67 81.37L84.68 82.52L81.92 83.29L81.92 84.33C81.92 84.41 81.95 84.49 81.99 84.56C82.03 84.62 82.09 84.68 82.16 84.71L87.45 87.75C87.65 87.86 87.87 87.91 88.1 87.91C88.33 87.91 88.55 87.86 88.75 87.75L93.24 85.16C93.32 85.13 93.39 85.08 93.43 85.01C93.48 84.94 93.51 84.86 93.52 84.78L93.52 83.77Z" fill="#B8D6D3" fill-opacity="1.000000" fill-rule="nonzero"></path>
&#x9;&#x9;<path id="Vector" d="M88.75 86.73C88.55 86.84 88.33 86.89 88.1 86.89C87.87 86.89 87.65 86.84 87.45 86.73L82.16 83.69C82.09 83.66 82.02 83.61 81.97 83.54C81.93 83.48 81.9 83.4 81.9 83.31C81.9 83.23 81.93 83.15 81.97 83.08C82.02 83.02 82.09 82.96 82.16 82.94L86.67 80.34C86.87 80.24 87.09 80.19 87.32 80.19C87.54 80.19 87.76 80.24 87.97 80.34L93.24 83.39C93.32 83.41 93.39 83.47 93.44 83.53C93.48 83.6 93.51 83.68 93.51 83.76C93.51 83.85 93.48 83.93 93.44 83.99C93.39 84.06 93.32 84.11 93.24 84.14L88.75 86.73Z" fill="#E0F3F1" fill-opacity="1.000000" fill-rule="nonzero"></path>
&#x9;&#x9;<path id="Vector" d="M87 87.53L83.83 86.51L81.46 85.19C81.25 85.09 81.03 85.03 80.8 85.03C80.57 85.03 80.35 85.09 80.15 85.19L78.16 86.34L75.39 87.12L75.39 88.16C75.39 88.24 75.42 88.32 75.47 88.38C75.51 88.45 75.58 88.51 75.66 88.54L80.94 91.59C81.14 91.69 81.37 91.74 81.59 91.74C81.82 91.74 82.04 91.69 82.24 91.59L86.73 88.99C86.81 88.96 86.87 88.9 86.92 88.84C86.97 88.77 86.99 88.7 87 88.61L87 87.53Z" fill="#B8D6D3" fill-opacity="1.000000" fill-rule="nonzero"></path>
&#x9;&#x9;<path id="Vector" d="M82.24 90.5C82.04 90.6 81.82 90.65 81.59 90.65C81.37 90.65 81.14 90.6 80.94 90.5L75.66 87.45C75.59 87.42 75.52 87.37 75.47 87.3C75.43 87.23 75.4 87.15 75.4 87.07C75.4 86.99 75.43 86.91 75.47 86.84C75.52 86.77 75.59 86.72 75.66 86.69L80.16 84.1C80.36 84 80.58 83.94 80.81 83.94C81.04 83.94 81.26 84 81.47 84.1L86.74 87.14C86.82 87.17 86.89 87.22 86.94 87.29C86.98 87.36 87.01 87.44 87.01 87.52C87.01 87.6 86.98 87.68 86.94 87.75C86.89 87.82 86.82 87.87 86.74 87.9L82.24 90.5Z" fill="#E0F3F1" fill-opacity="1.000000" fill-rule="nonzero"></path>
&#x9;&#x9;<path id="Vector" d="M80.44 91.29L77.28 90.28L74.91 88.9C74.71 88.8 74.48 88.75 74.25 88.75C74.03 88.75 73.8 88.8 73.6 88.9L71.61 90.06L68.83 90.83L68.83 91.88C68.84 91.97 68.87 92.04 68.92 92.11C68.97 92.18 69.03 92.23 69.11 92.27L74.38 95.31C74.58 95.41 74.81 95.46 75.03 95.46C75.26 95.46 75.48 95.41 75.68 95.31L80.18 92.72C80.25 92.68 80.32 92.63 80.36 92.56C80.41 92.49 80.44 92.42 80.44 92.33L80.44 91.29Z" fill="#B8D6D3" fill-opacity="1.000000" fill-rule="nonzero"></path>
&#x9;&#x9;<path id="Vector" d="M75.72 94.26C75.52 94.36 75.3 94.41 75.07 94.41C74.85 94.41 74.62 94.36 74.42 94.26L69.15 91.22C69.07 91.19 69 91.14 68.95 91.07C68.91 91 68.88 90.92 68.88 90.84C68.88 90.76 68.91 90.67 68.95 90.61C69 90.54 69.07 90.49 69.15 90.46L73.64 87.86C73.84 87.76 74.07 87.71 74.29 87.71C74.52 87.71 74.74 87.76 74.95 87.86L80.21 90.91C80.29 90.94 80.36 90.99 80.41 91.06C80.45 91.12 80.48 91.2 80.48 91.29C80.48 91.37 80.45 91.45 80.41 91.52C80.36 91.59 80.29 91.64 80.21 91.66L75.72 94.26Z" fill="#E0F3F1" fill-opacity="1.000000" fill-rule="nonzero"></path>
&#x9;&#x9;<g opacity="0.300000">
&#x9;&#x9;&#x9;<path id="Vector" d="M73.11 112.91L69.83 111C69.82 110.88 69.77 110.76 69.7 110.66C69.64 110.55 69.55 110.47 69.44 110.4L66.57 108.72L66.47 108.66L65.91 108.34L65.83 108.34L64.97 107.84C64.74 107.75 64.48 107.75 64.25 107.84L13.04 78.31C13.01 78.29 12.97 78.27 12.93 78.26L7.19 76.5L5.4 75.95L6.84 77.22L11.21 81.26L11.3 81.35L62.47 110.85C62.49 110.97 62.54 111.09 62.6 111.2C62.67 111.3 62.76 111.39 62.86 111.46L63.32 111.73L63.79 112L64.36 112.32L64.82 112.6L67.36 114.06C67.47 114.12 67.6 114.14 67.72 114.14C67.85 114.14 67.97 114.12 68.08 114.06L71.35 115.97C71.49 116.04 71.65 116.06 71.8 116.04C71.95 116.03 72.1 115.97 72.22 115.88C72.59 115.65 72.89 115.33 73.11 114.96C73.32 114.59 73.45 114.17 73.48 113.74C73.49 113.58 73.47 113.42 73.41 113.28C73.34 113.13 73.24 113.01 73.11 112.91Z" fill="#B8D6D3" fill-opacity="1.000000" fill-rule="nonzero"></path>
&#x9;&#x9;</g>
&#x9;&#x9;<path id="Vector" d="M6.82 76.26L5.44 74.98L7.23 75.54L6.82 76.26Z" fill="#B8D6D3" fill-opacity="1.000000" fill-rule="nonzero"></path>
&#x9;&#x9;<path id="Vector" d="M12.93 77.3L11.19 80.31L6.84 76.26C6.82 76.24 6.8 76.22 6.79 76.19C6.78 76.16 6.77 76.12 6.77 76.09C6.78 75.99 6.81 75.89 6.86 75.8C6.91 75.71 6.98 75.63 7.07 75.58C7.1 75.56 7.13 75.56 7.16 75.56C7.2 75.56 7.23 75.56 7.26 75.58L12.93 77.3Z" fill="#E0F3F1" fill-opacity="1.000000" fill-rule="nonzero"></path>
&#x9;&#x9;<path id="Vector" d="M64.9 107.26L63.15 110.3L11.29 80.41C11.17 80.32 11.07 80.2 11 80.06C10.94 79.92 10.91 79.76 10.93 79.61C10.95 79.18 11.08 78.76 11.29 78.39C11.51 78.02 11.8 77.7 12.16 77.46C12.29 77.38 12.44 77.32 12.59 77.31C12.75 77.29 12.9 77.32 13.04 77.37L64.9 107.26Z" fill="#ACCBC8" fill-opacity="1.000000" fill-rule="nonzero"></path>
&#x9;&#x9;<path id="Vector" d="M41.84 97.68L41.84 97.11L55.59 105.05L55.59 105.62L41.84 97.68Z" fill="#B8D6D3" fill-opacity="1.000000" fill-rule="nonzero"></path>
&#x9;&#x9;<path id="Vector" d="M56.18 105.97L56.18 105.39L59.55 107.33L59.55 107.91L56.18 105.97Z" fill="#B8D6D3" fill-opacity="1.000000" fill-rule="nonzero"></path>
&#x9;&#x9;<path id="Vector" d="M64.03 107.34C63.67 107.58 63.37 107.89 63.15 108.27C62.94 108.64 62.81 109.06 62.79 109.49C62.79 110.28 63.34 110.6 64.03 110.21C64.39 109.97 64.69 109.65 64.9 109.28C65.12 108.91 65.24 108.49 65.26 108.06C65.26 107.27 64.71 106.95 64.03 107.34Z" fill="#B8D6D3" fill-opacity="1.000000" fill-rule="nonzero"></path>
&#x9;&#x9;<path id="Vector" d="M64.03 108.33C63.92 108.4 63.82 108.5 63.76 108.61C63.69 108.73 63.65 108.86 63.64 109C63.64 109.24 63.81 109.34 64.03 109.22C64.14 109.14 64.23 109.05 64.3 108.93C64.37 108.82 64.41 108.69 64.41 108.56C64.41 108.31 64.24 108.21 64.03 108.33Z" fill="#B8D6D3" fill-opacity="1.000000" fill-rule="nonzero"></path>
&#x9;&#x9;<path id="Vector" d="M69.44 109.49L67.36 113.11L62.86 110.5C62.7 110.39 62.58 110.25 62.51 110.08C62.43 109.91 62.4 109.72 62.43 109.54C62.45 109.03 62.6 108.53 62.86 108.09C63.11 107.64 63.47 107.27 63.9 106.99C64.04 106.88 64.22 106.81 64.4 106.79C64.58 106.77 64.76 106.81 64.93 106.88L69.44 109.49Z" fill="#B8D6D3" fill-opacity="1.000000" fill-rule="nonzero"></path>
&#x9;&#x9;<path id="Vector" d="M68.4 109.6C67.97 109.88 67.61 110.25 67.36 110.7C67.1 111.14 66.95 111.64 66.93 112.15C66.93 113.11 67.59 113.47 68.4 113C68.83 112.72 69.18 112.34 69.44 111.9C69.7 111.46 69.84 110.96 69.87 110.45C69.87 109.51 69.21 109.09 68.4 109.6Z" fill="#E0F3F1" fill-opacity="1.000000" fill-rule="nonzero"></path>
&#x9;&#x9;<path id="Vector" d="M67.93 109.33C67.5 109.61 67.15 109.99 66.89 110.43C66.63 110.87 66.49 111.37 66.46 111.88C66.44 112.07 66.47 112.25 66.54 112.42C66.62 112.59 66.74 112.73 66.89 112.84L66.42 112.57C66.27 112.46 66.15 112.32 66.08 112.15C66 111.98 65.97 111.8 65.99 111.61C66.02 111.1 66.17 110.61 66.42 110.16C66.68 109.72 67.03 109.34 67.46 109.06C67.61 108.96 67.79 108.89 67.97 108.88C68.15 108.86 68.33 108.89 68.5 108.97L68.97 109.23C68.81 109.16 68.62 109.12 68.44 109.14C68.26 109.16 68.08 109.22 67.93 109.33Z" fill="#D8EDEB" fill-opacity="1.000000" fill-rule="nonzero"></path>
&#x9;&#x9;<path id="Vector" d="M66.9 108.73C66.47 109.01 66.12 109.39 65.86 109.83C65.6 110.27 65.46 110.77 65.43 111.28C65.41 111.46 65.44 111.65 65.51 111.82C65.59 111.98 65.71 112.13 65.86 112.24L65.39 111.96C65.24 111.85 65.12 111.71 65.04 111.54C64.97 111.37 64.94 111.19 64.96 111C64.98 110.49 65.13 109.99 65.39 109.55C65.64 109.11 66 108.73 66.43 108.45C66.58 108.34 66.75 108.27 66.94 108.26C67.12 108.24 67.3 108.27 67.47 108.35L67.94 108.62C67.77 108.55 67.59 108.52 67.41 108.54C67.22 108.55 67.05 108.62 66.9 108.73Z" fill="#D8EDEB" fill-opacity="1.000000" fill-rule="nonzero"></path>
&#x9;&#x9;<path id="Vector" d="M65.87 108.14C65.44 108.41 65.08 108.79 64.82 109.23C64.57 109.68 64.42 110.18 64.39 110.69C64.37 110.87 64.4 111.06 64.48 111.22C64.55 111.39 64.67 111.54 64.82 111.64L64.36 111.38C64.2 111.27 64.08 111.13 64.01 110.96C63.93 110.79 63.9 110.6 63.92 110.42C63.94 109.91 64.09 109.41 64.35 108.97C64.61 108.52 64.97 108.15 65.4 107.87C65.55 107.76 65.72 107.7 65.9 107.68C66.08 107.66 66.27 107.7 66.43 107.77L66.91 108.04C66.74 107.96 66.56 107.93 66.37 107.95C66.19 107.97 66.02 108.03 65.87 108.14Z" fill="#D8EDEB" fill-opacity="1.000000" fill-rule="nonzero"></path>
&#x9;&#x9;<path id="Vector" d="M64.84 107.54C64.41 107.82 64.05 108.2 63.79 108.64C63.54 109.08 63.39 109.58 63.36 110.09C63.34 110.28 63.37 110.46 63.45 110.63C63.52 110.8 63.64 110.94 63.79 111.05L63.32 110.77C63.17 110.67 63.04 110.53 62.97 110.36C62.89 110.19 62.86 110 62.89 109.82C62.92 109.31 63.07 108.81 63.32 108.37C63.57 107.92 63.93 107.55 64.36 107.27C64.51 107.16 64.68 107.09 64.87 107.07C65.05 107.06 65.24 107.09 65.41 107.16L65.88 107.44C65.71 107.36 65.53 107.33 65.35 107.35C65.16 107.37 64.99 107.43 64.84 107.54Z" fill="#D8EDEB" fill-opacity="1.000000" fill-rule="nonzero"></path>
&#x9;&#x9;<path id="Vector" d="M73.11 111.96L71.35 115L67.53 112.81C67.4 112.72 67.3 112.6 67.24 112.46C67.17 112.32 67.15 112.16 67.17 112.01C67.19 111.58 67.31 111.16 67.53 110.78C67.75 110.41 68.05 110.09 68.41 109.86C68.53 109.76 68.68 109.71 68.83 109.69C68.99 109.68 69.14 109.7 69.28 109.77L73.11 111.96Z" fill="#B8D6D3" fill-opacity="1.000000" fill-rule="nonzero"></path>
&#x9;&#x9;<path id="Vector" d="M72.22 112.08C71.86 112.32 71.57 112.64 71.35 113.01C71.14 113.38 71.01 113.8 70.99 114.22C70.99 115.02 71.54 115.34 72.22 114.94C72.59 114.71 72.89 114.39 73.11 114.02C73.33 113.64 73.45 113.22 73.48 112.79C73.48 112.01 72.91 111.68 72.22 112.08Z" fill="#B8D6D3" fill-opacity="1.000000" fill-rule="nonzero"></path>
&#x9;&#x9;<g opacity="0.300000">
&#x9;&#x9;&#x9;<path id="Vector" d="M20.98 96.87C21.23 97.45 21.58 97.98 22.02 98.44C22.52 98.19 23.1 98.14 23.63 98.3L26.25 99.81L26.58 100C26.9 99.99 27.22 100.03 27.53 100.12L52.13 114.2L52.33 114.31L52.45 114.38C52.82 114.36 53.19 114.41 53.55 114.51L73.55 126.08C74.21 126.4 74.71 126.97 74.95 127.66C75.19 128.36 75.15 129.12 74.83 129.78C74.42 130.37 73.78 130.78 73.07 130.92C72.36 131.06 71.62 130.91 71.01 130.51L66.37 127.84C66.18 128.15 65.88 128.38 65.52 128.48C65.17 128.58 64.78 128.53 64.46 128.35L52.31 121.33C50.61 120.19 49.01 118.91 47.53 117.5L64.6 127.38C64.6 127.38 64.98 127.28 65.06 127.06L51.02 118.96C50.76 118.69 50.54 118.39 50.36 118.07L50.05 117.89L25.44 103.84C25.2 103.61 25 103.33 24.84 103.03L21.89 101.32C21.48 100.93 21.24 100.41 21.21 99.86L14.49 95.85L20.98 96.87Z" fill="#B8D6D3" fill-opacity="1.000000" fill-rule="nonzero"></path>
&#x9;&#x9;</g>
&#x9;&#x9;<path id="Vector" d="M20.98 96.14L14.49 95.11L25.09 101.44C25.09 101.44 25.76 99.94 23.72 98.98C22.5 98.39 21.53 97.38 20.98 96.14Z" fill="#B8D6D3" fill-opacity="1.000000" fill-rule="nonzero"></path>
&#x9;&#x9;<path id="Vector" d="M23.63 97.55C23.24 97.39 22.8 97.37 22.39 97.5C21.98 97.64 21.64 97.92 21.43 98.29C21.21 98.66 21.14 99.1 21.22 99.52C21.31 99.94 21.54 100.31 21.89 100.57L47.27 115.1C47.69 115.37 48.19 115.47 48.67 115.37C49.15 115.28 49.58 115.01 49.86 114.61C50.07 114.16 50.09 113.65 49.93 113.18C49.77 112.72 49.43 112.34 48.99 112.11L23.63 97.55Z" fill="#ACCBC8" fill-opacity="1.000000" fill-rule="nonzero"></path>
&#x9;&#x9;<path id="Vector" d="M24.87 100.28C24.69 100.58 24.6 100.93 24.6 101.28C24.6 101.63 24.69 101.97 24.87 102.28L24.55 102.09C24.34 101.8 24.21 101.44 24.19 101.07C24.17 100.71 24.26 100.34 24.45 100.02C24.63 99.7 24.9 99.44 25.23 99.27C25.56 99.11 25.93 99.04 26.29 99.07L26.62 99.25C26.26 99.26 25.91 99.35 25.61 99.53C25.3 99.71 25.05 99.97 24.87 100.28Z" fill="#ACCBC8" fill-opacity="1.000000" fill-rule="nonzero"></path>
&#x9;&#x9;<path id="Vector" d="M56.14 115.78C56.69 116.05 57.11 116.52 57.31 117.1C57.51 117.67 57.48 118.3 57.22 118.85C56.87 119.35 56.34 119.7 55.74 119.82C55.14 119.93 54.52 119.8 54.01 119.46L25.44 103.1C25.19 102.86 24.99 102.58 24.84 102.28C24.67 101.97 24.59 101.62 24.59 101.27C24.6 100.92 24.69 100.58 24.87 100.27C25.04 99.97 25.29 99.72 25.59 99.54C25.9 99.36 26.24 99.26 26.59 99.25C26.91 99.24 27.23 99.28 27.54 99.37L56.14 115.78Z" fill="#B8D6D3" fill-opacity="1.000000" fill-rule="nonzero"></path>
&#x9;&#x9;<path id="Vector" d="M50.33 114.83C50.11 115.2 49.99 115.63 49.99 116.07C49.99 116.51 50.11 116.94 50.33 117.31L50.02 117.14C49.72 116.78 49.54 116.34 49.51 115.88C49.48 115.41 49.6 114.95 49.86 114.56C50.06 114.14 50.4 113.8 50.82 113.59C51.24 113.39 51.71 113.32 52.17 113.41L52.48 113.58C52.05 113.58 51.62 113.69 51.24 113.91C50.86 114.13 50.55 114.45 50.33 114.83Z" fill="#B8D6D3" fill-opacity="1.000000" fill-rule="nonzero"></path>
&#x9;&#x9;<path id="Vector" d="M73.61 125.34C74.27 125.66 74.77 126.23 75.01 126.93C75.25 127.62 75.21 128.38 74.89 129.04C74.47 129.64 73.84 130.05 73.13 130.19C72.41 130.32 71.67 130.18 71.07 129.78L51.06 118.21C50.8 117.95 50.57 117.65 50.4 117.32C50.17 116.95 50.05 116.52 50.05 116.08C50.05 115.64 50.17 115.21 50.4 114.84C50.62 114.45 50.93 114.14 51.31 113.92C51.7 113.7 52.13 113.59 52.57 113.59C52.94 113.59 53.31 113.63 53.67 113.73L73.61 125.34Z" fill="#B8D6D3" fill-opacity="1.000000" fill-rule="nonzero"></path>
&#x9;&#x9;<path id="Vector" d="M66.48 126.98C66.48 126.98 65.68 128.36 64.44 127.65L52.29 120.62C50.59 119.48 48.99 118.2 47.51 116.8L64.58 126.66C64.58 126.66 65.35 126.51 64.96 126.01L64.96 125.46L66.53 126.35L66.53 126.91L66.48 126.98Z" fill="#ACCBC8" fill-opacity="1.000000" fill-rule="nonzero"></path>
&#x9;</g>
</svg>