<svg width="195.000000" height="140.000000" viewBox="0 0 195 140" fill="none" xmlns="http://www.w3.org/2000/svg" xmlns:xlink="http://www.w3.org/1999/xlink">
&#x9;<desc>
&#x9;&#x9;&#x9;Created with Pixso.
&#x9;</desc>
&#x9;<defs>
&#x9;&#x9;<clipPath id="clip201_6971">
&#x9;&#x9;&#x9;<rect id="dcm-potentials" width="195.000000" height="140.000000" fill="white" fill-opacity="0"></rect>
&#x9;&#x9;</clipPath>
&#x9;</defs>
&#x9;<g clip-path="url(#clip201_6971)">
&#x9;&#x9;<mask id="mask201_6973" mask-type="alpha" maskUnits="userSpaceOnUse" x="0.000000" y="-0.006836" width="195.000000" height="140.000000">
&#x9;&#x9;&#x9;<rect id="rect" y="-0.006836" width="195.000000" height="140.000000" fill="#000000" fill-opacity="1.000000"></rect>
&#x9;&#x9;</mask>
&#x9;&#x9;<g mask="url(#mask201_6973)">
&#x9;&#x9;&#x9;<g opacity="0.300000">
&#x9;&#x9;&#x9;&#x9;<path id="path" d="M42.64 81.12L21.99 69.07L29.64 64.68L50.29 76.72L42.64 81.12Z" fill="#F0F9F8" fill-opacity="1.000000" fill-rule="nonzero"></path>
&#x9;&#x9;&#x9;</g>
&#x9;&#x9;&#x9;<path id="path" d="M42.83 75.76L37.09 65.82L29.06 61.23L23.33 64.48L23.33 69.07L42.83 80.35L42.83 75.76Z" fill="#8FC2BE" fill-opacity="1.000000" fill-rule="nonzero"></path>
&#x9;&#x9;&#x9;<path id="path" d="M37.09 65.82L29.06 61.23L35.37 57.41L43.4 62.19L39 66.01L37.09 65.82Z" fill="#D8EDEB" fill-opacity="1.000000" fill-rule="nonzero"></path>
&#x9;&#x9;&#x9;<path id="path" d="M42.83 75.76L37.09 65.82L43.4 62.19L49.14 71.94L46.46 75.57L42.83 75.76Z" fill="#A0D4CF" fill-opacity="1.000000" fill-rule="nonzero"></path>
&#x9;&#x9;&#x9;<path id="path" d="M42.83 80.35L42.83 75.77L49.14 71.94L49.14 76.72L42.83 80.35Z" fill="#8FC2BE" fill-opacity="1.000000" fill-rule="nonzero"></path>
&#x9;&#x9;&#x9;<g opacity="0.300000">
&#x9;&#x9;&#x9;&#x9;<path id="path" d="M93.31 79.02L94.07 80.35L55.07 103.11L52.77 102.34L38.62 94.12L37.48 92.78L76.48 70.22L79.16 70.79L93.31 79.02Z" fill="#F0F9F8" fill-opacity="1.000000" fill-rule="nonzero"></path>
&#x9;&#x9;&#x9;</g>
&#x9;&#x9;&#x9;<path id="path" d="M39.39 84.37L38.81 84.75L37.67 92.21L38.24 93.36L54.11 102.53L54.68 102.15L57.93 93.55L55.07 89.15L39.39 84.37Z" fill="#B7DDD9" fill-opacity="1.000000" fill-rule="nonzero"></path>
&#x9;&#x9;&#x9;<path id="path" d="M92.35 70.99L74.19 82.84L53.73 93.36L52.96 92.4L73.23 77.49L91.78 70.03L92.35 70.99Z" fill="#8FC2BE" fill-opacity="1.000000" fill-rule="nonzero"></path>
&#x9;&#x9;&#x9;<path id="path" d="M93.5 79.78L54.68 102.15L53.73 93.36L92.35 70.99L93.5 79.78Z" fill="#A3CCC9" fill-opacity="1.000000" fill-rule="nonzero"></path>
&#x9;&#x9;&#x9;<path id="path" d="M91.78 70.03L52.96 92.4L39.39 84.37L78.01 62L91.78 70.03Z" fill="#D8EDEB" fill-opacity="1.000000" fill-rule="nonzero"></path>
&#x9;&#x9;&#x9;<g opacity="0.300000">
&#x9;&#x9;&#x9;&#x9;<path id="path" d="M55.83 90.68L55.83 75L70.55 66.4L70.55 82.27L55.83 90.68Z" fill="#F0F9F8" fill-opacity="1.000000" fill-rule="nonzero"></path>
&#x9;&#x9;&#x9;</g>
&#x9;&#x9;&#x9;<g opacity="0.300000">
&#x9;&#x9;&#x9;&#x9;<path id="path" d="M71.32 81.69L71.32 66.01L73.61 64.68L73.61 80.55L71.32 81.69Z" fill="#F0F9F8" fill-opacity="1.000000" fill-rule="nonzero"></path>
&#x9;&#x9;&#x9;</g>
&#x9;&#x9;&#x9;<path id="path" d="M58.7 51.67L43.02 73.28L46.84 70.99L66.35 56.07L58.7 51.67Z" fill="#B7DDD9" fill-opacity="1.000000" fill-rule="nonzero"></path>
&#x9;&#x9;&#x9;<path id="path" d="M58.7 51.67L39.2 66.59L43.02 73.28L62.52 58.17L58.7 51.67Z" fill="#B7DDD9" fill-opacity="1.000000" fill-rule="nonzero"></path>
&#x9;&#x9;&#x9;<path id="path" d="M39.39 74.05L38.81 74.43L37.67 82.08L38.24 83.03L54.11 92.21L54.68 92.02L57.93 83.22L55.07 79.02L39.39 74.05Z" fill="#B7DDD9" fill-opacity="1.000000" fill-rule="nonzero"></path>
&#x9;&#x9;&#x9;<path id="path" d="M92.35 60.85L74.19 72.71L53.73 83.03L52.96 82.08L73.23 67.16L91.78 59.71L92.35 60.85Z" fill="#8FC2BE" fill-opacity="1.000000" fill-rule="nonzero"></path>
&#x9;&#x9;&#x9;<path id="path" d="M93.5 69.65L54.68 92.02L53.73 83.03L92.35 60.85L93.5 69.65Z" fill="#A3CCC9" fill-opacity="1.000000" fill-rule="nonzero"></path>
&#x9;&#x9;&#x9;<path id="path" d="M91.78 59.7L52.96 82.08L39.39 74.05L78.01 51.87L91.78 59.7Z" fill="#D8EDEB" fill-opacity="1.000000" fill-rule="nonzero"></path>
&#x9;&#x9;&#x9;<g opacity="0.300000">
&#x9;&#x9;&#x9;&#x9;<path id="path" d="M55.83 80.55L55.83 64.68L70.55 56.26L70.55 71.94L55.83 80.55Z" fill="#F0F9F8" fill-opacity="1.000000" fill-rule="nonzero"></path>
&#x9;&#x9;&#x9;</g>
&#x9;&#x9;&#x9;<g opacity="0.300000">
&#x9;&#x9;&#x9;&#x9;<path id="path" d="M71.32 71.56L71.32 55.69L73.61 54.35L73.61 70.22L71.32 71.56Z" fill="#F0F9F8" fill-opacity="1.000000" fill-rule="nonzero"></path>
&#x9;&#x9;&#x9;</g>
&#x9;&#x9;&#x9;<g opacity="0.300000">
&#x9;&#x9;&#x9;&#x9;<path id="path" d="M125.43 97.37L126.19 98.9L87 121.46L84.7 120.89L70.55 112.67L69.41 111.33L108.41 88.77L111.09 89.15L125.43 97.37Z" fill="#F0F9F8" fill-opacity="1.000000" fill-rule="nonzero"></path>
&#x9;&#x9;&#x9;</g>
&#x9;&#x9;&#x9;<path id="path" d="M71.32 102.92L70.74 103.11L69.6 110.76L70.17 111.71L86.04 120.89L86.8 120.7L90.06 111.9L87 107.7L71.32 102.92Z" fill="#B7DDD9" fill-opacity="1.000000" fill-rule="nonzero"></path>
&#x9;&#x9;&#x9;<path id="path" d="M124.28 89.53L106.12 101.39L85.66 111.9L85.08 110.76L105.16 95.84L123.71 88.39L124.28 89.53Z" fill="#8FC2BE" fill-opacity="1.000000" fill-rule="nonzero"></path>
&#x9;&#x9;&#x9;<path id="path" d="M125.43 98.33L86.8 120.7L85.66 111.9L124.28 89.53L125.43 98.33Z" fill="#A3CCC9" fill-opacity="1.000000" fill-rule="nonzero"></path>
&#x9;&#x9;&#x9;<path id="path" d="M123.71 88.39L85.08 110.76L71.32 102.92L109.94 80.55L123.71 88.39Z" fill="#D8EDEB" fill-opacity="1.000000" fill-rule="nonzero"></path>
&#x9;&#x9;&#x9;<g opacity="0.300000">
&#x9;&#x9;&#x9;&#x9;<path id="path" d="M87.76 109.23L87.76 93.36L102.48 84.94L102.48 100.62L87.76 109.23Z" fill="#F0F9F8" fill-opacity="1.000000" fill-rule="nonzero"></path>
&#x9;&#x9;&#x9;</g>
&#x9;&#x9;&#x9;<g opacity="0.300000">
&#x9;&#x9;&#x9;&#x9;<path id="path" d="M103.25 100.24L103.25 84.37L105.54 83.03L105.54 98.9L103.25 100.24Z" fill="#F0F9F8" fill-opacity="1.000000" fill-rule="nonzero"></path>
&#x9;&#x9;&#x9;</g>
&#x9;&#x9;&#x9;<path id="path" d="M71.32 92.59L70.74 92.97L69.6 100.43L70.17 101.58L86.04 110.76L86.8 110.37L90.06 101.58L87 97.37L71.32 92.59Z" fill="#B7DDD9" fill-opacity="1.000000" fill-rule="nonzero"></path>
&#x9;&#x9;&#x9;<path id="path" d="M124.28 79.21L106.12 91.06L85.66 101.58L85.08 100.43L105.16 85.52L123.71 78.25L124.28 79.21Z" fill="#8FC2BE" fill-opacity="1.000000" fill-rule="nonzero"></path>
&#x9;&#x9;&#x9;<path id="path" d="M125.43 88L86.8 110.37L85.66 101.58L124.28 79.21L125.43 88Z" fill="#A3CCC9" fill-opacity="1.000000" fill-rule="nonzero"></path>
&#x9;&#x9;&#x9;<path id="path" d="M123.71 78.25L85.08 100.43L71.32 92.59L109.94 70.22L123.71 78.25Z" fill="#D8EDEB" fill-opacity="1.000000" fill-rule="nonzero"></path>
&#x9;&#x9;&#x9;<g opacity="0.300000">
&#x9;&#x9;&#x9;&#x9;<path id="path" d="M87.76 98.9L87.76 83.03L102.48 74.62L102.48 90.49L87.76 98.9Z" fill="#F0F9F8" fill-opacity="1.000000" fill-rule="nonzero"></path>
&#x9;&#x9;&#x9;</g>
&#x9;&#x9;&#x9;<g opacity="0.300000">
&#x9;&#x9;&#x9;&#x9;<path id="path" d="M103.25 89.91L103.25 74.05L105.54 72.9L105.54 88.58L103.25 89.91Z" fill="#F0F9F8" fill-opacity="1.000000" fill-rule="nonzero"></path>
&#x9;&#x9;&#x9;</g>
&#x9;&#x9;&#x9;<path id="path" d="M71.32 82.27L70.74 82.65L69.6 90.3L70.17 91.25L86.04 100.43L86.8 100.05L90.06 91.44L87 87.05L71.32 82.27Z" fill="#B7DDD9" fill-opacity="1.000000" fill-rule="nonzero"></path>
&#x9;&#x9;&#x9;<path id="path" d="M124.28 68.88L106.12 80.93L85.66 91.25L85.08 90.3L105.16 75.38L123.71 67.93L124.28 68.88Z" fill="#8FC2BE" fill-opacity="1.000000" fill-rule="nonzero"></path>
&#x9;&#x9;&#x9;<path id="path" d="M125.43 77.68L86.8 100.05L85.66 91.25L124.28 68.88L125.43 77.68Z" fill="#A3CCC9" fill-opacity="1.000000" fill-rule="nonzero"></path>
&#x9;&#x9;&#x9;<path id="path" d="M123.71 67.93L85.08 90.3L71.32 82.27L109.94 59.89L123.71 67.93Z" fill="#D8EDEB" fill-opacity="1.000000" fill-rule="nonzero"></path>
&#x9;&#x9;&#x9;<g opacity="0.300000">
&#x9;&#x9;&#x9;&#x9;<path id="path" d="M87.76 88.58L87.76 72.9L102.48 64.29L102.48 80.16L87.76 88.58Z" fill="#F0F9F8" fill-opacity="1.000000" fill-rule="nonzero"></path>
&#x9;&#x9;&#x9;</g>
&#x9;&#x9;&#x9;<g opacity="0.300000">
&#x9;&#x9;&#x9;&#x9;<path id="path" d="M103.25 79.59L103.25 63.91L105.54 62.57L105.54 78.44L103.25 79.59Z" fill="#F0F9F8" fill-opacity="1.000000" fill-rule="nonzero"></path>
&#x9;&#x9;&#x9;</g>
&#x9;&#x9;&#x9;<path id="path" d="M71.32 71.94L70.74 72.32L69.6 79.78L70.17 80.93L86.04 90.11L86.8 89.72L90.06 80.93L87 76.72L71.32 71.94Z" fill="#B7DDD9" fill-opacity="1.000000" fill-rule="nonzero"></path>
&#x9;&#x9;&#x9;<path id="path" d="M124.28 58.56L106.12 70.41L85.66 80.93L85.08 79.78L105.16 64.87L123.71 57.6L124.28 58.56Z" fill="#8FC2BE" fill-opacity="1.000000" fill-rule="nonzero"></path>
&#x9;&#x9;&#x9;<path id="path" d="M125.43 67.35L86.8 89.72L85.66 80.93L124.28 58.56L125.43 67.35Z" fill="#A3CCC9" fill-opacity="1.000000" fill-rule="nonzero"></path>
&#x9;&#x9;&#x9;<path id="path" d="M123.71 57.6L85.08 79.78L71.32 71.94L109.94 49.57L123.71 57.6Z" fill="#D8EDEB" fill-opacity="1.000000" fill-rule="nonzero"></path>
&#x9;&#x9;&#x9;<g opacity="0.300000">
&#x9;&#x9;&#x9;&#x9;<path id="path" d="M87.76 78.25L87.76 62.38L102.48 53.97L102.48 69.84L87.76 78.25Z" fill="#F0F9F8" fill-opacity="1.000000" fill-rule="nonzero"></path>
&#x9;&#x9;&#x9;</g>
&#x9;&#x9;&#x9;<g opacity="0.300000">
&#x9;&#x9;&#x9;&#x9;<path id="path" d="M103.25 69.26L103.25 53.39L105.54 52.25L105.54 67.93L103.25 69.26Z" fill="#F0F9F8" fill-opacity="1.000000" fill-rule="nonzero"></path>
&#x9;&#x9;&#x9;</g>
&#x9;&#x9;&#x9;<g opacity="0.300000">
&#x9;&#x9;&#x9;&#x9;<path id="path" d="M157.36 115.92L158.12 117.45L118.93 140.01L116.82 139.25L102.48 131.02L101.34 129.88L140.53 107.12L143.02 107.7L157.36 115.92Z" fill="#F0F9F8" fill-opacity="1.000000" fill-rule="nonzero"></path>
&#x9;&#x9;&#x9;</g>
&#x9;&#x9;&#x9;<path id="path" d="M103.25 121.27L102.67 121.66L101.53 129.3L102.29 130.26L118.16 139.44L118.74 139.05L121.99 130.45L119.12 126.05L103.25 121.27Z" fill="#B7DDD9" fill-opacity="1.000000" fill-rule="nonzero"></path>
&#x9;&#x9;&#x9;<path id="path" d="M156.4 107.89L138.24 119.93L117.59 130.26L117.02 129.3L137.28 114.39L155.64 106.93L156.4 107.89Z" fill="#8FC2BE" fill-opacity="1.000000" fill-rule="nonzero"></path>
&#x9;&#x9;&#x9;<path id="path" d="M157.36 116.68L118.74 139.05L117.59 130.26L156.4 107.89L157.36 116.68Z" fill="#A3CCC9" fill-opacity="1.000000" fill-rule="nonzero"></path>
&#x9;&#x9;&#x9;<path id="path" d="M155.64 106.93L117.02 129.3L103.25 121.27L142.06 98.9L155.64 106.93Z" fill="#D8EDEB" fill-opacity="1.000000" fill-rule="nonzero"></path>
&#x9;&#x9;&#x9;<g opacity="0.300000">
&#x9;&#x9;&#x9;&#x9;<path id="path" d="M119.69 127.58L119.69 111.9L134.41 103.3L134.41 119.17L119.69 127.58Z" fill="#F0F9F8" fill-opacity="1.000000" fill-rule="nonzero"></path>
&#x9;&#x9;&#x9;</g>
&#x9;&#x9;&#x9;<g opacity="0.300000">
&#x9;&#x9;&#x9;&#x9;<path id="path" d="M135.37 118.6L135.37 102.92L137.47 101.58L137.47 117.45L135.37 118.6Z" fill="#F0F9F8" fill-opacity="1.000000" fill-rule="nonzero"></path>
&#x9;&#x9;&#x9;</g>
&#x9;&#x9;&#x9;<path id="path" d="M103.25 111.14L102.67 111.33L101.53 118.98L102.29 119.93L118.16 129.11L118.74 128.92L121.99 120.13L119.12 115.92L103.25 111.14Z" fill="#B7DDD9" fill-opacity="1.000000" fill-rule="nonzero"></path>
&#x9;&#x9;&#x9;<path id="path" d="M156.4 97.75L138.24 109.61L117.59 120.13L117.02 118.98L137.28 104.06L155.64 96.61L156.4 97.75Z" fill="#8FC2BE" fill-opacity="1.000000" fill-rule="nonzero"></path>
&#x9;&#x9;&#x9;<path id="path" d="M157.36 106.55L118.74 128.92L117.59 120.13L156.4 97.75L157.36 106.55Z" fill="#A3CCC9" fill-opacity="1.000000" fill-rule="nonzero"></path>
&#x9;&#x9;&#x9;<path id="path" d="M155.64 96.61L117.02 118.98L103.25 111.14L142.06 88.77L155.64 96.61Z" fill="#D8EDEB" fill-opacity="1.000000" fill-rule="nonzero"></path>
&#x9;&#x9;&#x9;<g opacity="0.300000">
&#x9;&#x9;&#x9;&#x9;<path id="path" d="M119.69 117.45L119.69 101.58L134.41 93.16L134.41 108.84L119.69 117.45Z" fill="#F0F9F8" fill-opacity="1.000000" fill-rule="nonzero"></path>
&#x9;&#x9;&#x9;</g>
&#x9;&#x9;&#x9;<g opacity="0.300000">
&#x9;&#x9;&#x9;&#x9;<path id="path" d="M135.37 108.46L135.37 92.59L137.47 91.25L137.47 107.12L135.37 108.46Z" fill="#F0F9F8" fill-opacity="1.000000" fill-rule="nonzero"></path>
&#x9;&#x9;&#x9;</g>
&#x9;&#x9;&#x9;<path id="path" d="M103.25 100.81L102.67 101.2L101.53 108.65L102.29 109.8L118.16 118.98L118.74 118.6L121.99 109.8L119.12 105.59L103.25 100.81Z" fill="#B7DDD9" fill-opacity="1.000000" fill-rule="nonzero"></path>
&#x9;&#x9;&#x9;<path id="path" d="M156.4 87.43L138.24 99.28L117.59 109.8L117.02 108.65L137.28 93.74L155.64 86.28L156.4 87.43Z" fill="#8FC2BE" fill-opacity="1.000000" fill-rule="nonzero"></path>
&#x9;&#x9;&#x9;<path id="path" d="M157.36 96.22L118.74 118.6L117.59 109.8L156.4 87.43L157.36 96.22Z" fill="#A3CCC9" fill-opacity="1.000000" fill-rule="nonzero"></path>
&#x9;&#x9;&#x9;<path id="path" d="M155.64 86.28L117.02 108.65L103.25 100.81L142.06 78.44L155.64 86.28Z" fill="#D8EDEB" fill-opacity="1.000000" fill-rule="nonzero"></path>
&#x9;&#x9;&#x9;<g opacity="0.300000">
&#x9;&#x9;&#x9;&#x9;<path id="path" d="M119.69 107.12L119.69 91.25L134.41 82.84L134.41 98.71L119.69 107.12Z" fill="#F0F9F8" fill-opacity="1.000000" fill-rule="nonzero"></path>
&#x9;&#x9;&#x9;</g>
&#x9;&#x9;&#x9;<g opacity="0.300000">
&#x9;&#x9;&#x9;&#x9;<path id="path" d="M135.37 98.14L135.37 82.27L137.47 81.12L137.47 96.8L135.37 98.14Z" fill="#F0F9F8" fill-opacity="1.000000" fill-rule="nonzero"></path>
&#x9;&#x9;&#x9;</g>
&#x9;&#x9;&#x9;<path id="path" d="M103.25 90.49L102.67 90.68L101.53 98.33L102.29 99.28L118.16 108.46L118.74 108.27L121.99 99.47L119.12 95.27L103.25 90.49Z" fill="#B7DDD9" fill-opacity="1.000000" fill-rule="nonzero"></path>
&#x9;&#x9;&#x9;<path id="path" d="M156.4 77.1L138.24 88.96L117.59 99.28L117.02 98.33L137.28 83.41L155.64 75.96L156.4 77.1Z" fill="#8FC2BE" fill-opacity="1.000000" fill-rule="nonzero"></path>
&#x9;&#x9;&#x9;<path id="path" d="M157.36 85.9L118.74 108.27L117.59 99.28L156.4 77.1L157.36 85.9Z" fill="#A3CCC9" fill-opacity="1.000000" fill-rule="nonzero"></path>
&#x9;&#x9;&#x9;<path id="path" d="M155.64 75.96L117.02 98.33L103.25 90.49L142.06 68.12L155.64 75.96Z" fill="#D8EDEB" fill-opacity="1.000000" fill-rule="nonzero"></path>
&#x9;&#x9;&#x9;<g opacity="0.300000">
&#x9;&#x9;&#x9;&#x9;<path id="path" d="M119.69 96.8L119.69 80.93L134.41 72.51L134.41 88.19L119.69 96.8Z" fill="#F0F9F8" fill-opacity="1.000000" fill-rule="nonzero"></path>
&#x9;&#x9;&#x9;</g>
&#x9;&#x9;&#x9;<g opacity="0.300000">
&#x9;&#x9;&#x9;&#x9;<path id="path" d="M135.37 87.81L135.37 71.94L137.47 70.6L137.47 86.47L135.37 87.81Z" fill="#F0F9F8" fill-opacity="1.000000" fill-rule="nonzero"></path>
&#x9;&#x9;&#x9;</g>
&#x9;&#x9;&#x9;<path id="path" d="M103.25 79.97L102.67 80.35L101.53 87.81L102.29 88.96L118.16 98.14L118.74 97.75L121.99 88.96L119.12 84.75L103.25 79.97Z" fill="#B7DDD9" fill-opacity="1.000000" fill-rule="nonzero"></path>
&#x9;&#x9;&#x9;<path id="path" d="M156.4 66.59L138.24 78.44L117.59 88.96L117.02 87.81L137.28 72.9L155.64 65.44L156.4 66.59Z" fill="#8FC2BE" fill-opacity="1.000000" fill-rule="nonzero"></path>
&#x9;&#x9;&#x9;<path id="path" d="M157.36 75.38L118.74 97.75L117.59 88.96L156.4 66.59L157.36 75.38Z" fill="#A3CCC9" fill-opacity="1.000000" fill-rule="nonzero"></path>
&#x9;&#x9;&#x9;<path id="path" d="M155.64 65.44L117.02 87.81L103.25 79.97L142.06 57.6L155.64 65.44Z" fill="#D8EDEB" fill-opacity="1.000000" fill-rule="nonzero"></path>
&#x9;&#x9;&#x9;<g opacity="0.300000">
&#x9;&#x9;&#x9;&#x9;<path id="path" d="M119.69 86.28L119.69 70.41L134.41 62L134.41 77.68L119.69 86.28Z" fill="#F0F9F8" fill-opacity="1.000000" fill-rule="nonzero"></path>
&#x9;&#x9;&#x9;</g>
&#x9;&#x9;&#x9;<g opacity="0.300000">
&#x9;&#x9;&#x9;&#x9;<path id="path" d="M135.37 77.29L135.37 61.42L137.47 60.09L137.47 75.96L135.37 77.29Z" fill="#F0F9F8" fill-opacity="1.000000" fill-rule="nonzero"></path>
&#x9;&#x9;&#x9;</g>
&#x9;&#x9;&#x9;<path id="path" d="M103.25 69.46L102.67 69.84L101.53 77.49L102.29 78.44L118.16 87.62L118.74 87.24L121.99 78.63L119.12 74.43L103.25 69.46Z" fill="#B7DDD9" fill-opacity="1.000000" fill-rule="nonzero"></path>
&#x9;&#x9;&#x9;<path id="path" d="M156.4 56.26L138.24 68.12L117.59 78.44L117.02 77.49L137.28 62.57L155.64 55.12L156.4 56.26Z" fill="#8FC2BE" fill-opacity="1.000000" fill-rule="nonzero"></path>
&#x9;&#x9;&#x9;<path id="path" d="M157.36 65.06L118.74 87.24L117.59 78.44L156.4 56.26L157.36 65.06Z" fill="#A3CCC9" fill-opacity="1.000000" fill-rule="nonzero"></path>
&#x9;&#x9;&#x9;<path id="path" d="M155.64 55.12L117.02 77.49L103.25 69.46L142.06 47.28L155.64 55.12Z" fill="#D8EDEB" fill-opacity="1.000000" fill-rule="nonzero"></path>
&#x9;&#x9;&#x9;<g opacity="0.300000">
&#x9;&#x9;&#x9;&#x9;<path id="path" d="M119.69 75.96L119.69 60.09L134.41 51.67L134.41 67.35L119.69 75.96Z" fill="#F0F9F8" fill-opacity="1.000000" fill-rule="nonzero"></path>
&#x9;&#x9;&#x9;</g>
&#x9;&#x9;&#x9;<g opacity="0.300000">
&#x9;&#x9;&#x9;&#x9;<path id="path" d="M135.37 66.97L135.37 51.1L137.47 49.76L137.47 65.63L135.37 66.97Z" fill="#F0F9F8" fill-opacity="1.000000" fill-rule="nonzero"></path>
&#x9;&#x9;&#x9;</g>
&#x9;&#x9;&#x9;<path id="path" d="M75.52 51.67L69.79 41.73L61.76 37.14L56.02 40.39L56.02 49.76L61.76 59.7L69.79 64.29L75.52 61.04L75.52 51.67Z" fill="#86C2BD" fill-opacity="1.000000" fill-rule="nonzero"></path>
&#x9;&#x9;&#x9;<path id="path" d="M69.79 41.73L61.76 37.14L68.07 33.51L76.29 38.1L71.7 42.11L69.79 41.73Z" fill="#D8EDEB" fill-opacity="1.000000" fill-rule="nonzero"></path>
&#x9;&#x9;&#x9;<path id="path" d="M75.52 51.67L69.79 41.73L76.29 38.1L81.83 48.04L79.16 51.48L75.52 51.67Z" fill="#B7DDD9" fill-opacity="1.000000" fill-rule="nonzero"></path>
&#x9;&#x9;&#x9;<path id="path" d="M75.52 61.04L75.52 51.67L81.83 48.04L81.83 57.41L75.52 61.04Z" fill="#A3CCC9" fill-opacity="1.000000" fill-rule="nonzero"></path>
&#x9;&#x9;&#x9;<path id="path" d="M95.79 51.1L93.31 46.7L93.31 44.22L78.01 44.41L74.19 46.51L91.97 53.39L95.79 51.1Z" fill="#D8EDEB" fill-opacity="1.000000" fill-rule="nonzero"></path>
&#x9;&#x9;&#x9;<path id="path" d="M91.97 53.4L89.48 48.81L89.48 46.51L74.19 46.51L76.86 50.91L76.86 53.4L91.97 53.4Z" fill="#B7DDD9" fill-opacity="1.000000" fill-rule="nonzero"></path>
&#x9;&#x9;&#x9;<path id="path" d="M107.65 51.48L101.91 41.73L93.88 36.95L88.14 40.39L88.14 49.57L93.88 59.51L101.91 64.1L107.65 60.85L107.65 51.48Z" fill="#8FC2BE" fill-opacity="1.000000" fill-rule="nonzero"></path>
&#x9;&#x9;&#x9;<path id="path" d="M101.91 41.73L93.88 36.95L100.19 33.32L108.41 37.91L103.82 41.92L101.91 41.73Z" fill="#D8EDEB" fill-opacity="1.000000" fill-rule="nonzero"></path>
&#x9;&#x9;&#x9;<path id="path" d="M107.65 51.48L101.91 41.73L108.41 37.91L113.96 47.85L111.28 51.48L107.65 51.48Z" fill="#B7DDD9" fill-opacity="1.000000" fill-rule="nonzero"></path>
&#x9;&#x9;&#x9;<path id="path" d="M107.65 60.85L107.65 51.48L113.96 47.85L113.96 57.22L107.65 60.85Z" fill="#A3CCC9" fill-opacity="1.000000" fill-rule="nonzero"></path>
&#x9;&#x9;&#x9;<path id="path" d="M128.1 50.14L125.43 45.36L125.43 43.26L109.94 43.83L106.12 46.13L124.28 52.44L128.1 50.14Z" fill="#D8EDEB" fill-opacity="1.000000" fill-rule="nonzero"></path>
&#x9;&#x9;&#x9;<path id="path" d="M124.28 52.44L121.6 47.66L121.6 45.56L106.12 46.13L108.98 50.91L108.98 53.01L124.28 52.44Z" fill="#B7DDD9" fill-opacity="1.000000" fill-rule="nonzero"></path>
&#x9;&#x9;&#x9;<path id="path" d="M139.77 50.33L134.03 40.39L126 35.8L120.27 39.05L120.27 48.42L126 58.37L134.03 62.95L139.77 59.7L139.77 50.33Z" fill="#86C2BD" fill-opacity="1.000000" fill-rule="nonzero"></path>
&#x9;&#x9;&#x9;<path id="path" d="M134.03 40.39L126 35.8L132.31 32.17L140.53 36.76L135.94 40.58L134.03 40.39Z" fill="#D8EDEB" fill-opacity="1.000000" fill-rule="nonzero"></path>
&#x9;&#x9;&#x9;<path id="path" d="M139.77 50.33L134.03 40.39L140.53 36.76L146.08 46.7L143.4 50.14L139.77 50.33Z" fill="#B7DDD9" fill-opacity="1.000000" fill-rule="nonzero"></path>
&#x9;&#x9;&#x9;<path id="path" d="M139.77 59.7L139.77 50.33L146.08 46.7L146.08 55.88L139.77 59.7Z" fill="#A3CCC9" fill-opacity="1.000000" fill-rule="nonzero"></path>
&#x9;&#x9;&#x9;<path id="path" d="M147.61 30.07L144.36 24.52L140.53 26.63L138.05 44.41L141.87 42.11L148.75 30.64L147.61 30.07Z" fill="#A3CCC9" fill-opacity="1.000000" fill-rule="nonzero"></path>
&#x9;&#x9;&#x9;<path id="path" d="M143.78 32.17L140.53 26.63L133.27 38.48L135.37 39.63L138.05 44.41L144.93 32.94L143.78 32.17Z" fill="#B7DDD9" fill-opacity="1.000000" fill-rule="nonzero"></path>
&#x9;&#x9;&#x9;<path id="path" d="M156.4 24.91L150.67 15.15L142.64 10.37L136.9 13.82L136.9 22.99L142.64 32.94L150.67 37.52L156.4 34.27L156.4 24.91Z" fill="#8FC2BE" fill-opacity="1.000000" fill-rule="nonzero"></path>
&#x9;&#x9;&#x9;<path id="path" d="M150.67 15.15L142.64 10.37L148.95 6.74L156.98 11.52L152.58 15.35L150.67 15.15Z" fill="#D8EDEB" fill-opacity="1.000000" fill-rule="nonzero"></path>
&#x9;&#x9;&#x9;<path id="path" d="M156.4 24.91L150.67 15.15L156.98 11.52L162.71 21.27L160.04 24.91L156.4 24.91Z" fill="#B7DDD9" fill-opacity="1.000000" fill-rule="nonzero"></path>
&#x9;&#x9;&#x9;<path id="path" d="M156.4 34.27L156.4 24.91L162.71 21.27L162.71 30.64L156.4 34.27Z" fill="#A3CCC9" fill-opacity="1.000000" fill-rule="nonzero"></path>
&#x9;&#x9;</g>
&#x9;</g>
</svg>