<svg width="195.000000" height="140.000000" viewBox="0 0 195 140" fill="none" xmlns="http://www.w3.org/2000/svg" xmlns:xlink="http://www.w3.org/1999/xlink">
&#x9;<desc>
&#x9;&#x9;&#x9;Created with Pixso.
&#x9;</desc>
&#x9;<defs>
&#x9;&#x9;<clipPath id="clip201_7183">
&#x9;&#x9;&#x9;<rect id="deals" width="195.000000" height="140.000000" fill="white" fill-opacity="0"></rect>
&#x9;&#x9;</clipPath>
&#x9;</defs>
&#x9;<g clip-path="url(#clip201_7183)">
&#x9;&#x9;<path id="polygon" d="M93.09 32L172 77.38L172 97.59L93.09 52.23L93.09 32Z" fill="#B5D8D6" fill-opacity="1.000000" fill-rule="nonzero"></path>
&#x9;&#x9;<path id="polygon" d="M41.66 61.57L45.25 65.71L72.06 50.3L75.65 42.03L93.09 32L93.09 52.22L24.23 91.82L24.23 71.59L41.66 61.57Z" fill="#A3CCC9" fill-opacity="1.000000" fill-rule="nonzero"></path>
&#x9;&#x9;<path id="Cube_face_-_left" d="M104.05 108.6L36.07 69.61L36.07 63.43L104.05 102.41L104.05 108.6Z" fill="#D8EDEB" fill-opacity="1.000000" fill-rule="nonzero"></path>
&#x9;&#x9;<path id="Cube_face_-_left" d="M104.05 117.6L36.07 78.61L36.07 68.43L104.05 107.41L104.05 117.6Z" fill="#D8EDEB" fill-opacity="1.000000" fill-rule="nonzero"></path>
&#x9;&#x9;<path id="Vector" d="M69.17 91.72L32.91 73.25L36.47 70.92L69.17 91.72Z" fill="#F0F9F8" fill-opacity="1.000000" fill-rule="nonzero"></path>
&#x9;&#x9;<g opacity="0.500000">
&#x9;&#x9;&#x9;<path id="Vector" d="M100.76 106.61L80.77 97.37L67.4 88.38L100.76 106.61Z" fill="#F0F9F8" fill-opacity="1.000000" fill-rule="nonzero"></path>
&#x9;&#x9;</g>
&#x9;&#x9;<path id="polygon" d="M132.53 86.09L132.53 101.12L104.05 117.45L104.05 102.41L132.53 86.09Z" fill="#C3DFDC" fill-opacity="1.000000" fill-rule="nonzero"></path>
&#x9;&#x9;<g opacity="0.500000">
&#x9;&#x9;&#x9;<path id="Vector" d="M114.52 99.39L103.9 106.27L95.53 100.18L103.85 104.73L114.52 99.39Z" fill="#F0F9F8" fill-opacity="1.000000" fill-rule="nonzero"></path>
&#x9;&#x9;</g>
&#x9;&#x9;<g opacity="0.500000">
&#x9;&#x9;&#x9;<path id="Vector" d="M114.52 106.39L103.9 113.27L95.53 107.18L103.85 111.73L114.52 106.39Z" fill="#F0F9F8" fill-opacity="1.000000" fill-rule="nonzero"></path>
&#x9;&#x9;</g>
&#x9;&#x9;<path id="Cube_face_-_right" d="M152.03 89.93L131.21 101.87L131.21 86.84L152.03 74.89L152.03 89.93Z" fill="#C3DFDC" fill-opacity="1.000000" fill-rule="nonzero"></path>
&#x9;&#x9;<path id="Cube_face_-_top" d="M104.05 102.41L36.07 63.43L84.06 35.9L152.03 74.89L104.05 102.41Z" fill="#F0F9F8" fill-opacity="1.000000" fill-rule="nonzero"></path>
&#x9;&#x9;<path id="Vector" d="M124.7 93.12L147.68 80.57L142.55 84.01L124.7 93.12Z" fill="#DAECEA" fill-opacity="1.000000" fill-rule="nonzero"></path>
&#x9;&#x9;<path id="Vector" d="M118.5 99.3L141.47 86.76L136.34 90.2L118.5 99.3Z" fill="#DAECEA" fill-opacity="1.000000" fill-rule="nonzero"></path>
&#x9;&#x9;<path id="Vector" d="M114.06 104.61L137.04 92.07L131.91 95.51L114.06 104.61Z" fill="#DAECEA" fill-opacity="1.000000" fill-rule="nonzero"></path>
&#x9;&#x9;<path id="Cube_face_-_top-2" d="M102.98 102.92L35 63.93L82.98 36.41L150.96 75.39L102.98 102.92Z" fill="#F0F9F8" fill-opacity="1.000000" fill-rule="nonzero"></path>
&#x9;&#x9;<path id="Cube_face_-_left-2" d="M104.05 102.71L36.07 63.71L36.07 61.52L104.05 100.51L104.05 102.71Z" fill="#D8EDEB" fill-opacity="1.000000" fill-rule="nonzero"></path>
&#x9;&#x9;<path id="Cube_face_-_top-3" d="M104.05 100.51L36.07 61.52L84.06 34L152.03 72.99L104.05 100.51Z" fill="#F0F9F8" fill-opacity="1.000000" fill-rule="nonzero"></path>
&#x9;&#x9;<path id="Cube_face_-_left" d="M104.05 92.6L36.07 53.61L36.07 47.43L104.05 86.41L104.05 92.6Z" fill="#D8EDEB" fill-opacity="1.000000" fill-rule="nonzero"></path>
&#x9;&#x9;<path id="Cube_face_-_left" d="M104.05 101.6L36.07 62.61L36.07 52.43L104.05 91.41L104.05 101.6Z" fill="#D8EDEB" fill-opacity="1.000000" fill-rule="nonzero"></path>
&#x9;&#x9;<path id="Vector" d="M69.17 75.72L32.91 57.25L36.47 54.92L69.17 75.72Z" fill="#F0F9F8" fill-opacity="1.000000" fill-rule="nonzero"></path>
&#x9;&#x9;<g opacity="0.500000">
&#x9;&#x9;&#x9;<path id="Vector" d="M100.76 90.61L80.77 81.37L67.4 72.38L100.76 90.61Z" fill="#F0F9F8" fill-opacity="1.000000" fill-rule="nonzero"></path>
&#x9;&#x9;</g>
&#x9;&#x9;<path id="polygon" d="M132.53 70.09L132.53 85.12L104.05 101.45L104.05 86.41L132.53 70.09Z" fill="#C3DFDC" fill-opacity="1.000000" fill-rule="nonzero"></path>
&#x9;&#x9;<g opacity="0.500000">
&#x9;&#x9;&#x9;<path id="Vector" d="M114.52 83.39L103.9 90.27L95.53 84.18L103.85 88.73L114.52 83.39Z" fill="#F0F9F8" fill-opacity="1.000000" fill-rule="nonzero"></path>
&#x9;&#x9;</g>
&#x9;&#x9;<g opacity="0.500000">
&#x9;&#x9;&#x9;<path id="Vector" d="M114.52 90.39L103.9 97.27L95.53 91.18L103.85 95.73L114.52 90.39Z" fill="#F0F9F8" fill-opacity="1.000000" fill-rule="nonzero"></path>
&#x9;&#x9;</g>
&#x9;&#x9;<path id="Cube_face_-_right" d="M152.03 73.93L131.21 85.87L131.21 70.84L152.03 58.89L152.03 73.93Z" fill="#C3DFDC" fill-opacity="1.000000" fill-rule="nonzero"></path>
&#x9;&#x9;<path id="Cube_face_-_top" d="M104.05 86.41L36.07 47.43L84.06 19.9L152.03 58.89L104.05 86.41Z" fill="#F0F9F8" fill-opacity="1.000000" fill-rule="nonzero"></path>
&#x9;&#x9;<path id="Vector" d="M124.7 77.12L147.68 64.57L142.55 68.01L124.7 77.12Z" fill="#DAECEA" fill-opacity="1.000000" fill-rule="nonzero"></path>
&#x9;&#x9;<path id="Vector" d="M118.5 83.3L141.47 70.76L136.34 74.2L118.5 83.3Z" fill="#DAECEA" fill-opacity="1.000000" fill-rule="nonzero"></path>
&#x9;&#x9;<path id="Vector" d="M114.06 88.61L137.04 76.07L131.91 79.51L114.06 88.61Z" fill="#DAECEA" fill-opacity="1.000000" fill-rule="nonzero"></path>
&#x9;&#x9;<path id="Cube_face_-_top-2" d="M102.98 86.92L35 47.93L82.98 20.41L150.96 59.39L102.98 86.92Z" fill="#F0F9F8" fill-opacity="1.000000" fill-rule="nonzero"></path>
&#x9;&#x9;<path id="Cube_face_-_left-2" d="M104.05 86.71L36.07 47.71L36.07 45.52L104.05 84.51L104.05 86.71Z" fill="#D8EDEB" fill-opacity="1.000000" fill-rule="nonzero"></path>
&#x9;&#x9;<path id="Cube_face_-_top-3" d="M104.05 84.51L36.07 45.52L84.06 18L152.03 56.99L104.05 84.51Z" fill="#F0F9F8" fill-opacity="1.000000" fill-rule="nonzero"></path>
&#x9;&#x9;<path id="Cube_face_-_left" d="M104.05 78.6L36.07 39.61L36.07 33.43L104.05 72.41L104.05 78.6Z" fill="#D8EDEB" fill-opacity="1.000000" fill-rule="nonzero"></path>
&#x9;&#x9;<path id="Cube_face_-_left" d="M104.05 87.6L36.07 48.61L36.07 38.43L104.05 77.41L104.05 87.6Z" fill="#D8EDEB" fill-opacity="1.000000" fill-rule="nonzero"></path>
&#x9;&#x9;<path id="Vector" d="M69.17 61.72L32.91 43.25L36.47 40.92L69.17 61.72Z" fill="#F0F9F8" fill-opacity="1.000000" fill-rule="nonzero"></path>
&#x9;&#x9;<g opacity="0.500000">
&#x9;&#x9;&#x9;<path id="Vector" d="M100.76 76.61L80.77 67.37L67.4 58.38L100.76 76.61Z" fill="#F0F9F8" fill-opacity="1.000000" fill-rule="nonzero"></path>
&#x9;&#x9;</g>
&#x9;&#x9;<path id="polygon" d="M132.53 56.09L132.53 71.12L104.05 87.45L104.05 72.41L132.53 56.09Z" fill="#C3DFDC" fill-opacity="1.000000" fill-rule="nonzero"></path>
&#x9;&#x9;<g opacity="0.500000">
&#x9;&#x9;&#x9;<path id="Vector" d="M114.52 69.39L103.9 76.27L95.53 70.18L103.85 74.73L114.52 69.39Z" fill="#F0F9F8" fill-opacity="1.000000" fill-rule="nonzero"></path>
&#x9;&#x9;</g>
&#x9;&#x9;<g opacity="0.500000">
&#x9;&#x9;&#x9;<path id="Vector" d="M114.52 76.39L103.9 83.27L95.53 77.18L103.85 81.73L114.52 76.39Z" fill="#F0F9F8" fill-opacity="1.000000" fill-rule="nonzero"></path>
&#x9;&#x9;</g>
&#x9;&#x9;<path id="Cube_face_-_right" d="M152.03 59.93L131.21 71.87L131.21 56.84L152.03 44.89L152.03 59.93Z" fill="#C3DFDC" fill-opacity="1.000000" fill-rule="nonzero"></path>
&#x9;&#x9;<path id="Cube_face_-_top" d="M104.05 72.41L36.07 33.43L84.06 5.9L152.03 44.89L104.05 72.41Z" fill="#F0F9F8" fill-opacity="1.000000" fill-rule="nonzero"></path>
&#x9;&#x9;<path id="Vector" d="M124.7 63.12L147.68 50.57L142.55 54.01L124.7 63.12Z" fill="#DAECEA" fill-opacity="1.000000" fill-rule="nonzero"></path>
&#x9;&#x9;<path id="Vector" d="M118.5 69.3L141.47 56.76L136.34 60.2L118.5 69.3Z" fill="#DAECEA" fill-opacity="1.000000" fill-rule="nonzero"></path>
&#x9;&#x9;<path id="Vector" d="M114.06 74.61L137.04 62.07L131.91 65.51L114.06 74.61Z" fill="#DAECEA" fill-opacity="1.000000" fill-rule="nonzero"></path>
&#x9;&#x9;<path id="Cube_face_-_top-2" d="M102.98 72.92L35 33.93L82.98 6.41L150.96 45.39L102.98 72.92Z" fill="#F0F9F8" fill-opacity="1.000000" fill-rule="nonzero"></path>
&#x9;&#x9;<path id="Cube_face_-_left-2" d="M104.05 72.71L36.07 33.71L36.07 31.52L104.05 70.51L104.05 72.71Z" fill="#D8EDEB" fill-opacity="1.000000" fill-rule="nonzero"></path>
&#x9;&#x9;<path id="Cube_face_-_top-3" d="M104.05 70.51L36.07 31.52L84.06 4L152.03 42.99L104.05 70.51Z" fill="#F0F9F8" fill-opacity="1.000000" fill-rule="nonzero"></path>
&#x9;&#x9;<path id="Vector" d="M35.42 30.4C55.38 20.2 64.99 15.11 80.96 4.12L141.74 39.19L96.2 65.48L35.42 30.4Z" fill="#F0F9F8" fill-opacity="1.000000" fill-rule="nonzero"></path>
&#x9;&#x9;<g opacity="0.400000">
&#x9;&#x9;&#x9;<g opacity="0.400000">
&#x9;&#x9;&#x9;&#x9;<path id="Vector" d="M41.55 31.05L79.25 9.06L80.19 9.7L42.48 31.69L41.55 31.05Z" fill="#A3CCC9" fill-opacity="1.000000" fill-rule="nonzero"></path>
&#x9;&#x9;&#x9;</g>
&#x9;&#x9;&#x9;<g opacity="0.400000">
&#x9;&#x9;&#x9;&#x9;<path id="Vector" d="M71.69 16.64L82.07 10.59L83 11.22L72.63 17.28L71.69 16.64Z" fill="#A3CCC9" fill-opacity="1.000000" fill-rule="nonzero"></path>
&#x9;&#x9;&#x9;</g>
&#x9;&#x9;&#x9;<g opacity="0.400000">
&#x9;&#x9;&#x9;&#x9;<path id="Vector" d="M67.8 20.09L57.49 26.1L56.55 25.47L66.86 19.45L67.8 20.09Z" fill="#A3CCC9" fill-opacity="1.000000" fill-rule="nonzero"></path>
&#x9;&#x9;&#x9;</g>
&#x9;&#x9;&#x9;<g opacity="0.400000">
&#x9;&#x9;&#x9;&#x9;<path id="Vector" d="M51.72 28.28L52.66 28.92L45.29 33.21L44.36 32.57L51.72 28.28Z" fill="#A3CCC9" fill-opacity="1.000000" fill-rule="nonzero"></path>
&#x9;&#x9;&#x9;</g>
&#x9;&#x9;&#x9;<g opacity="0.400000">
&#x9;&#x9;&#x9;&#x9;<path id="Vector" d="M62.33 25.23L84.14 12.52L85.07 13.15L63.26 25.86L62.33 25.23Z" fill="#A3CCC9" fill-opacity="1.000000" fill-rule="nonzero"></path>
&#x9;&#x9;&#x9;</g>
&#x9;&#x9;&#x9;<g opacity="0.400000">
&#x9;&#x9;&#x9;&#x9;<path id="Vector" d="M52.12 31.18L53.05 31.82L47.36 35.14L46.42 34.5L52.12 31.18Z" fill="#A3CCC9" fill-opacity="1.000000" fill-rule="nonzero"></path>
&#x9;&#x9;&#x9;</g>
&#x9;&#x9;&#x9;<g opacity="0.400000">
&#x9;&#x9;&#x9;&#x9;<path id="Vector" d="M78.92 18.82L86.89 14.17L87.82 14.81L79.86 19.45L78.92 18.82Z" fill="#A3CCC9" fill-opacity="1.000000" fill-rule="nonzero"></path>
&#x9;&#x9;&#x9;</g>
&#x9;&#x9;&#x9;<g opacity="0.400000">
&#x9;&#x9;&#x9;&#x9;<path id="Vector" d="M71.79 22.98L72.73 23.61L50.11 36.8L49.18 36.16L71.79 22.98Z" fill="#A3CCC9" fill-opacity="1.000000" fill-rule="nonzero"></path>
&#x9;&#x9;&#x9;</g>
&#x9;&#x9;&#x9;<g opacity="0.400000">
&#x9;&#x9;&#x9;&#x9;<path id="Vector" d="M53.06 37.54L90.76 15.55L91.71 16.19L53.99 38.17L53.06 37.54Z" fill="#A3CCC9" fill-opacity="1.000000" fill-rule="nonzero"></path>
&#x9;&#x9;&#x9;</g>
&#x9;&#x9;&#x9;<g opacity="0.400000">
&#x9;&#x9;&#x9;&#x9;<path id="Vector" d="M83.21 23.13L93.58 17.08L94.52 17.71L84.14 23.76L83.21 23.13Z" fill="#A3CCC9" fill-opacity="1.000000" fill-rule="nonzero"></path>
&#x9;&#x9;&#x9;</g>
&#x9;&#x9;&#x9;<g opacity="0.400000">
&#x9;&#x9;&#x9;&#x9;<path id="Vector" d="M79.31 26.58L69.01 32.59L68.07 31.96L78.38 25.94L79.31 26.58Z" fill="#A3CCC9" fill-opacity="1.000000" fill-rule="nonzero"></path>
&#x9;&#x9;&#x9;</g>
&#x9;&#x9;&#x9;<g opacity="0.400000">
&#x9;&#x9;&#x9;&#x9;<path id="Vector" d="M63.24 34.77L64.18 35.41L56.81 39.69L55.87 39.06L63.24 34.77Z" fill="#A3CCC9" fill-opacity="1.000000" fill-rule="nonzero"></path>
&#x9;&#x9;&#x9;</g>
&#x9;&#x9;&#x9;<g opacity="0.400000">
&#x9;&#x9;&#x9;&#x9;<path id="Vector" d="M73.84 31.72L95.65 19.01L96.59 19.64L74.78 32.35L73.84 31.72Z" fill="#A3CCC9" fill-opacity="1.000000" fill-rule="nonzero"></path>
&#x9;&#x9;&#x9;</g>
&#x9;&#x9;&#x9;<g opacity="0.400000">
&#x9;&#x9;&#x9;&#x9;<path id="Vector" d="M63.63 37.67L64.57 38.31L58.88 41.63L57.94 40.99L63.63 37.67Z" fill="#A3CCC9" fill-opacity="1.000000" fill-rule="nonzero"></path>
&#x9;&#x9;&#x9;</g>
&#x9;&#x9;&#x9;<g opacity="0.400000">
&#x9;&#x9;&#x9;&#x9;<path id="Vector" d="M90.44 25.31L98.4 20.66L99.34 21.3L91.37 25.94L90.44 25.31Z" fill="#A3CCC9" fill-opacity="1.000000" fill-rule="nonzero"></path>
&#x9;&#x9;&#x9;</g>
&#x9;&#x9;&#x9;<g opacity="0.400000">
&#x9;&#x9;&#x9;&#x9;<path id="Vector" d="M83.31 29.47L84.24 30.1L61.63 43.28L60.69 42.65L83.31 29.47Z" fill="#A3CCC9" fill-opacity="1.000000" fill-rule="nonzero"></path>
&#x9;&#x9;&#x9;</g>
&#x9;&#x9;&#x9;<g opacity="0.400000">
&#x9;&#x9;&#x9;&#x9;<path id="Vector" d="M84.32 37.61L105.94 24.42L106.89 25.03L85.27 38.22L84.32 37.61Z" fill="#A3CCC9" fill-opacity="1.000000" fill-rule="nonzero"></path>
&#x9;&#x9;&#x9;</g>
&#x9;&#x9;&#x9;<g opacity="0.400000">
&#x9;&#x9;&#x9;&#x9;<path id="Vector" d="M74.19 43.78L75.14 44.39L69.49 47.84L68.55 47.22L74.19 43.78Z" fill="#A3CCC9" fill-opacity="1.000000" fill-rule="nonzero"></path>
&#x9;&#x9;&#x9;</g>
&#x9;&#x9;&#x9;<g opacity="0.400000">
&#x9;&#x9;&#x9;&#x9;<path id="Vector" d="M100.84 30.82L108.73 26.01L109.69 26.62L101.79 31.44L100.84 30.82Z" fill="#A3CCC9" fill-opacity="1.000000" fill-rule="nonzero"></path>
&#x9;&#x9;&#x9;</g>
&#x9;&#x9;&#x9;<g opacity="0.400000">
&#x9;&#x9;&#x9;&#x9;<path id="Vector" d="M93.76 35.14L94.72 35.74L72.29 49.41L71.34 48.8L93.76 35.14Z" fill="#A3CCC9" fill-opacity="1.000000" fill-rule="nonzero"></path>
&#x9;&#x9;&#x9;</g>
&#x9;&#x9;&#x9;<g opacity="0.400000">
&#x9;&#x9;&#x9;&#x9;<path id="Vector" d="M75.26 50.09L112.66 27.29L113.62 27.9L76.22 50.69L75.26 50.09Z" fill="#A3CCC9" fill-opacity="1.000000" fill-rule="nonzero"></path>
&#x9;&#x9;&#x9;</g>
&#x9;&#x9;&#x9;<g opacity="0.400000">
&#x9;&#x9;&#x9;&#x9;<path id="Vector" d="M99.55 44.98L121.35 32.28L122.28 32.91L100.48 45.63L99.55 44.98Z" fill="#A3CCC9" fill-opacity="1.000000" fill-rule="nonzero"></path>
&#x9;&#x9;&#x9;</g>
&#x9;&#x9;&#x9;<g opacity="0.400000">
&#x9;&#x9;&#x9;&#x9;<path id="Vector" d="M89.34 50.94L90.27 51.58L84.57 54.9L83.64 54.26L89.34 50.94Z" fill="#A3CCC9" fill-opacity="1.000000" fill-rule="nonzero"></path>
&#x9;&#x9;&#x9;</g>
&#x9;&#x9;&#x9;<g opacity="0.400000">
&#x9;&#x9;&#x9;&#x9;<path id="Vector" d="M116.14 38.58L124.1 33.94L125.04 34.57L117.07 39.22L116.14 38.58Z" fill="#A3CCC9" fill-opacity="1.000000" fill-rule="nonzero"></path>
&#x9;&#x9;&#x9;</g>
&#x9;&#x9;&#x9;<g opacity="0.400000">
&#x9;&#x9;&#x9;&#x9;<path id="Vector" d="M109.01 42.73L109.95 43.37L87.32 56.55L86.39 55.92L109.01 42.73Z" fill="#A3CCC9" fill-opacity="1.000000" fill-rule="nonzero"></path>
&#x9;&#x9;&#x9;</g>
&#x9;&#x9;&#x9;<g opacity="0.400000">
&#x9;&#x9;&#x9;&#x9;<path id="Vector" d="M110.01 50.87L131.63 37.69L132.59 38.31L110.96 51.48L110.01 50.87Z" fill="#A3CCC9" fill-opacity="1.000000" fill-rule="nonzero"></path>
&#x9;&#x9;&#x9;</g>
&#x9;&#x9;&#x9;<g opacity="0.400000">
&#x9;&#x9;&#x9;&#x9;<path id="Vector" d="M99.89 57.05L100.84 57.66L95.19 61.1L94.24 60.48L99.89 57.05Z" fill="#A3CCC9" fill-opacity="1.000000" fill-rule="nonzero"></path>
&#x9;&#x9;&#x9;</g>
&#x9;&#x9;&#x9;<g opacity="0.400000">
&#x9;&#x9;&#x9;&#x9;<path id="Vector" d="M105.23 35.01L115.52 28.74L116.48 29.35L106.18 35.62L105.23 35.01Z" fill="#A3CCC9" fill-opacity="1.000000" fill-rule="nonzero"></path>
&#x9;&#x9;&#x9;</g>
&#x9;&#x9;&#x9;<g opacity="0.400000">
&#x9;&#x9;&#x9;&#x9;<path id="Vector" d="M101.39 38.54L91.18 44.77L90.21 44.16L100.44 37.93L101.39 38.54Z" fill="#A3CCC9" fill-opacity="1.000000" fill-rule="nonzero"></path>
&#x9;&#x9;&#x9;</g>
&#x9;&#x9;&#x9;<g opacity="0.400000">
&#x9;&#x9;&#x9;&#x9;<path id="Vector" d="M85.43 47.08L86.39 47.69L79.08 52.15L78.12 51.53L85.43 47.08Z" fill="#A3CCC9" fill-opacity="1.000000" fill-rule="nonzero"></path>
&#x9;&#x9;&#x9;</g>
&#x9;&#x9;&#x9;<g opacity="0.400000">
&#x9;&#x9;&#x9;&#x9;<path id="Vector" d="M96.01 43.79L117.63 30.61L118.59 31.22L96.97 44.4L96.01 43.79Z" fill="#A3CCC9" fill-opacity="1.000000" fill-rule="nonzero"></path>
&#x9;&#x9;&#x9;</g>
&#x9;&#x9;&#x9;<g opacity="0.400000">
&#x9;&#x9;&#x9;&#x9;<path id="Vector" d="M85.89 49.96L86.84 50.57L81.19 54.01L80.23 53.4L85.89 49.96Z" fill="#A3CCC9" fill-opacity="1.000000" fill-rule="nonzero"></path>
&#x9;&#x9;&#x9;</g>
&#x9;&#x9;</g>
&#x9;&#x9;<path id="Vector" d="M43.38 32.56L90.55 7.84C114.46 20.66 133.82 32.22 153.53 38.99L106.36 63.71C91.75 53.86 68.33 43.42 43.38 32.56Z" fill="#F4F9F7" fill-opacity="1.000000" fill-rule="nonzero"></path>
&#x9;&#x9;<g opacity="0.400000">
&#x9;&#x9;&#x9;<g opacity="0.400000">
&#x9;&#x9;&#x9;&#x9;<path id="Vector" d="M53.39 32.04L90.16 11.97L91.13 12.56L54.35 32.62L53.39 32.04Z" fill="#A3CCC9" fill-opacity="1.000000" fill-rule="nonzero"></path>
&#x9;&#x9;&#x9;</g>
&#x9;&#x9;&#x9;<g opacity="0.400000">
&#x9;&#x9;&#x9;&#x9;<path id="Vector" d="M82.92 18.89L93.03 13.36L94 13.94L83.88 19.46L82.92 18.89Z" fill="#A3CCC9" fill-opacity="1.000000" fill-rule="nonzero"></path>
&#x9;&#x9;&#x9;</g>
&#x9;&#x9;&#x9;<g opacity="0.400000">
&#x9;&#x9;&#x9;&#x9;<path id="Vector" d="M79.17 22.04L69.13 27.52L68.16 26.94L78.21 21.45L79.17 22.04Z" fill="#A3CCC9" fill-opacity="1.000000" fill-rule="nonzero"></path>
&#x9;&#x9;&#x9;</g>
&#x9;&#x9;&#x9;<g opacity="0.400000">
&#x9;&#x9;&#x9;&#x9;<path id="Vector" d="M63.45 29.51L64.41 30.09L57.23 34.01L56.27 33.43L63.45 29.51Z" fill="#A3CCC9" fill-opacity="1.000000" fill-rule="nonzero"></path>
&#x9;&#x9;&#x9;</g>
&#x9;&#x9;&#x9;<g opacity="0.400000">
&#x9;&#x9;&#x9;&#x9;<path id="Vector" d="M73.93 26.73L95.18 15.13L96.15 15.7L74.89 27.31L73.93 26.73Z" fill="#A3CCC9" fill-opacity="1.000000" fill-rule="nonzero"></path>
&#x9;&#x9;&#x9;</g>
&#x9;&#x9;&#x9;<g opacity="0.400000">
&#x9;&#x9;&#x9;&#x9;<path id="Vector" d="M63.97 32.16L64.93 32.74L59.38 35.77L58.42 35.19L63.97 32.16Z" fill="#A3CCC9" fill-opacity="1.000000" fill-rule="nonzero"></path>
&#x9;&#x9;&#x9;</g>
&#x9;&#x9;&#x9;<g opacity="0.400000">
&#x9;&#x9;&#x9;&#x9;<path id="Vector" d="M90.24 20.88L98.01 16.64L98.97 17.21L91.21 21.46L90.24 20.88Z" fill="#A3CCC9" fill-opacity="1.000000" fill-rule="nonzero"></path>
&#x9;&#x9;&#x9;</g>
&#x9;&#x9;&#x9;<g opacity="0.400000">
&#x9;&#x9;&#x9;&#x9;<path id="Vector" d="M83.29 24.67L84.25 25.25L62.2 37.28L61.24 36.7L83.29 24.67Z" fill="#A3CCC9" fill-opacity="1.000000" fill-rule="nonzero"></path>
&#x9;&#x9;&#x9;</g>
&#x9;&#x9;&#x9;<g opacity="0.400000">
&#x9;&#x9;&#x9;&#x9;<path id="Vector" d="M65.18 37.95L101.95 17.9L102.91 18.48L66.15 38.54L65.18 37.95Z" fill="#A3CCC9" fill-opacity="1.000000" fill-rule="nonzero"></path>
&#x9;&#x9;&#x9;</g>
&#x9;&#x9;&#x9;<g opacity="0.400000">
&#x9;&#x9;&#x9;&#x9;<path id="Vector" d="M94.71 24.8L104.83 19.29L105.8 19.87L95.68 25.39L94.71 24.8Z" fill="#A3CCC9" fill-opacity="1.000000" fill-rule="nonzero"></path>
&#x9;&#x9;&#x9;</g>
&#x9;&#x9;&#x9;<g opacity="0.400000">
&#x9;&#x9;&#x9;&#x9;<path id="Vector" d="M90.97 27.96L80.91 33.44L79.95 32.86L90 27.37L90.97 27.96Z" fill="#A3CCC9" fill-opacity="1.000000" fill-rule="nonzero"></path>
&#x9;&#x9;&#x9;</g>
&#x9;&#x9;&#x9;<g opacity="0.400000">
&#x9;&#x9;&#x9;&#x9;<path id="Vector" d="M75.25 35.43L76.21 36.01L69.02 39.93L68.06 39.35L75.25 35.43Z" fill="#A3CCC9" fill-opacity="1.000000" fill-rule="nonzero"></path>
&#x9;&#x9;&#x9;</g>
&#x9;&#x9;&#x9;<g opacity="0.400000">
&#x9;&#x9;&#x9;&#x9;<path id="Vector" d="M85.72 32.65L106.98 21.05L107.94 21.62L86.68 33.22L85.72 32.65Z" fill="#A3CCC9" fill-opacity="1.000000" fill-rule="nonzero"></path>
&#x9;&#x9;&#x9;</g>
&#x9;&#x9;&#x9;<g opacity="0.400000">
&#x9;&#x9;&#x9;&#x9;<path id="Vector" d="M75.77 38.08L76.73 38.66L71.17 41.69L70.21 41.11L75.77 38.08Z" fill="#A3CCC9" fill-opacity="1.000000" fill-rule="nonzero"></path>
&#x9;&#x9;&#x9;</g>
&#x9;&#x9;&#x9;<g opacity="0.400000">
&#x9;&#x9;&#x9;&#x9;<path id="Vector" d="M102.03 26.8L109.8 22.56L110.77 23.14L103 27.38L102.03 26.8Z" fill="#A3CCC9" fill-opacity="1.000000" fill-rule="nonzero"></path>
&#x9;&#x9;&#x9;</g>
&#x9;&#x9;&#x9;<g opacity="0.400000">
&#x9;&#x9;&#x9;&#x9;<path id="Vector" d="M95.08 30.59L96.05 31.17L74 43.2L73.04 42.62L95.08 30.59Z" fill="#A3CCC9" fill-opacity="1.000000" fill-rule="nonzero"></path>
&#x9;&#x9;&#x9;</g>
&#x9;&#x9;&#x9;<g opacity="0.400000">
&#x9;&#x9;&#x9;&#x9;<path id="Vector" d="M96.44 38.02L117.49 25.99L118.48 26.55L97.42 38.58L96.44 38.02Z" fill="#A3CCC9" fill-opacity="1.000000" fill-rule="nonzero"></path>
&#x9;&#x9;&#x9;</g>
&#x9;&#x9;&#x9;<g opacity="0.400000">
&#x9;&#x9;&#x9;&#x9;<path id="Vector" d="M86.58 43.66L87.56 44.21L82.06 47.35L81.08 46.79L86.58 43.66Z" fill="#A3CCC9" fill-opacity="1.000000" fill-rule="nonzero"></path>
&#x9;&#x9;&#x9;</g>
&#x9;&#x9;&#x9;<g opacity="0.400000">
&#x9;&#x9;&#x9;&#x9;<path id="Vector" d="M112.67 31.83L120.36 27.44L121.35 27.99L113.65 32.39L112.67 31.83Z" fill="#A3CCC9" fill-opacity="1.000000" fill-rule="nonzero"></path>
&#x9;&#x9;&#x9;</g>
&#x9;&#x9;&#x9;<g opacity="0.400000">
&#x9;&#x9;&#x9;&#x9;<path id="Vector" d="M105.79 35.77L106.77 36.32L84.92 48.8L83.95 48.24L105.79 35.77Z" fill="#A3CCC9" fill-opacity="1.000000" fill-rule="nonzero"></path>
&#x9;&#x9;&#x9;</g>
&#x9;&#x9;&#x9;<g opacity="0.400000">
&#x9;&#x9;&#x9;&#x9;<path id="Vector" d="M87.93 49.4L124.34 28.61L125.32 29.16L88.91 49.96L87.93 49.4Z" fill="#A3CCC9" fill-opacity="1.000000" fill-rule="nonzero"></path>
&#x9;&#x9;&#x9;</g>
&#x9;&#x9;&#x9;<g opacity="0.400000">
&#x9;&#x9;&#x9;&#x9;<path id="Vector" d="M111.99 44.76L133.25 33.16L134.22 33.73L112.95 45.34L111.99 44.76Z" fill="#A3CCC9" fill-opacity="1.000000" fill-rule="nonzero"></path>
&#x9;&#x9;&#x9;</g>
&#x9;&#x9;&#x9;<g opacity="0.400000">
&#x9;&#x9;&#x9;&#x9;<path id="Vector" d="M102.03 50.19L103 50.77L97.44 53.8L96.48 53.22L102.03 50.19Z" fill="#A3CCC9" fill-opacity="1.000000" fill-rule="nonzero"></path>
&#x9;&#x9;&#x9;</g>
&#x9;&#x9;&#x9;<g opacity="0.400000">
&#x9;&#x9;&#x9;&#x9;<path id="Vector" d="M128.3 38.91L136.07 34.67L137.03 35.24L129.26 39.49L128.3 38.91Z" fill="#A3CCC9" fill-opacity="1.000000" fill-rule="nonzero"></path>
&#x9;&#x9;&#x9;</g>
&#x9;&#x9;&#x9;<g opacity="0.400000">
&#x9;&#x9;&#x9;&#x9;<path id="Vector" d="M121.35 42.69L122.32 43.28L100.27 55.31L99.31 54.73L121.35 42.69Z" fill="#A3CCC9" fill-opacity="1.000000" fill-rule="nonzero"></path>
&#x9;&#x9;&#x9;</g>
&#x9;&#x9;&#x9;<g opacity="0.400000">
&#x9;&#x9;&#x9;&#x9;<path id="Vector" d="M122.71 50.13L143.77 38.1L144.75 38.65L123.69 50.69L122.71 50.13Z" fill="#A3CCC9" fill-opacity="1.000000" fill-rule="nonzero"></path>
&#x9;&#x9;&#x9;</g>
&#x9;&#x9;&#x9;<g opacity="0.400000">
&#x9;&#x9;&#x9;&#x9;<path id="Vector" d="M112.85 55.76L113.83 56.31L108.33 59.46L107.35 58.9L112.85 55.76Z" fill="#A3CCC9" fill-opacity="1.000000" fill-rule="nonzero"></path>
&#x9;&#x9;&#x9;</g>
&#x9;&#x9;&#x9;<g opacity="0.400000">
&#x9;&#x9;&#x9;&#x9;<path id="Vector" d="M117.25 35.65L127.26 29.93L128.25 30.49L118.22 36.21L117.25 35.65Z" fill="#A3CCC9" fill-opacity="1.000000" fill-rule="nonzero"></path>
&#x9;&#x9;&#x9;</g>
&#x9;&#x9;&#x9;<g opacity="0.400000">
&#x9;&#x9;&#x9;&#x9;<path id="Vector" d="M113.56 38.87L103.6 44.56L102.63 44L112.58 38.32L113.56 38.87Z" fill="#A3CCC9" fill-opacity="1.000000" fill-rule="nonzero"></path>
&#x9;&#x9;&#x9;</g>
&#x9;&#x9;&#x9;<g opacity="0.400000">
&#x9;&#x9;&#x9;&#x9;<path id="Vector" d="M97.96 46.67L98.94 47.22L91.82 51.29L90.85 50.73L97.96 46.67Z" fill="#A3CCC9" fill-opacity="1.000000" fill-rule="nonzero"></path>
&#x9;&#x9;&#x9;</g>
&#x9;&#x9;&#x9;<g opacity="0.400000">
&#x9;&#x9;&#x9;&#x9;<path id="Vector" d="M108.4 43.66L129.46 31.64L130.44 32.19L109.39 44.22L108.4 43.66Z" fill="#A3CCC9" fill-opacity="1.000000" fill-rule="nonzero"></path>
&#x9;&#x9;&#x9;</g>
&#x9;&#x9;&#x9;<g opacity="0.400000">
&#x9;&#x9;&#x9;&#x9;<path id="Vector" d="M98.54 49.3L99.52 49.85L94.02 52.99L93.04 52.44L98.54 49.3Z" fill="#A3CCC9" fill-opacity="1.000000" fill-rule="nonzero"></path>
&#x9;&#x9;&#x9;</g>
&#x9;&#x9;</g>
&#x9;&#x9;<path id="polygon" d="M24.23 71.59L103.14 116.96L103.14 137.19L24.23 91.82L24.23 71.59Z" fill="#F0F9F8" fill-opacity="1.000000" fill-rule="nonzero"></path>
&#x9;&#x9;<path id="polygon" d="M120.57 106.94L124.16 111.09L150.97 95.66L154.56 87.39L172 77.37L172 97.59L103.14 137.19L103.14 116.96L120.57 106.94Z" fill="#E0F3F1" fill-opacity="1.000000" fill-rule="nonzero"></path>
&#x9;</g>
</svg>