<svg width="195.000000" height="140.000000" viewBox="0 0 195 140" fill="none" xmlns="http://www.w3.org/2000/svg" xmlns:xlink="http://www.w3.org/1999/xlink">
&#x9;<desc>
&#x9;&#x9;&#x9;Created with Pixso.
&#x9;</desc>
&#x9;<defs>
&#x9;&#x9;<clipPath id="clip252_776">
&#x9;&#x9;&#x9;<rect id="refresh-ccw-02" width="55.999996" height="56.000000" transform="translate(69.000000 42.000000)" fill="white" fill-opacity="0"></rect>
&#x9;&#x9;</clipPath>
&#x9;&#x9;<clipPath id="clip252_778">
&#x9;&#x9;&#x9;<rect id="empty-loading" width="195.000000" height="140.000000" fill="white" fill-opacity="0"></rect>
&#x9;&#x9;</clipPath>
&#x9;</defs>
&#x9;<g clip-path="url(#clip252_778)">
&#x9;&#x9;<path id="Oval 1" d="M42 70C42 39.62 66.62 15 97 15C127.37 15 152 39.62 152 70C152 100.37 127.37 125 97 125C66.62 125 42 100.37 42 70Z" fill="#7A9994" fill-opacity="0.160000" fill-rule="evenodd"></path>
&#x9;&#x9;<rect id="refresh-ccw-02" width="55.999996" height="56.000000" transform="translate(69.000000 42.000000)" fill="#FFFFFF" fill-opacity="0"></rect>
&#x9;&#x9;<g clip-path="url(#clip252_776)">
&#x9;&#x9;&#x9;<path id="Icon (Border)" d="M114.37 63.16C114.71 64.03 114.99 64.93 115.2 65.84C115.49 67.12 116.72 67.89 117.99 67.6C119.26 67.31 120.04 66.09 119.75 64.81C119.49 63.68 119.16 62.58 118.74 61.51C118.38 60.59 117.96 59.69 117.48 58.81C117.06 58.04 116.6 57.3 116.1 56.59C115.33 55.49 114.46 54.46 113.49 53.5C112.27 52.27 110.94 51.2 109.51 50.29C108.33 49.54 107.09 48.9 105.77 48.37C104.45 47.83 103.1 47.42 101.72 47.14C100.18 46.82 98.6 46.66 97 46.66C95.39 46.66 93.82 46.82 92.27 47.14C90.9 47.42 89.54 47.83 88.22 48.37C86.9 48.9 85.66 49.54 84.48 50.29C83.05 51.2 81.72 52.27 80.5 53.5C78.75 55.24 77.25 56.81 76 58.22L76 51.33C76 50.02 74.97 49 73.66 49C72.35 49 71.33 50.02 71.33 51.33L71.33 65.33C71.33 65.97 71.56 66.52 72.01 66.98C72.47 67.43 73.02 67.66 73.66 67.66L87.66 67.66C88.97 67.66 90 66.64 90 65.33C90 64.02 88.97 63 87.66 63L78.03 63C79.43 61.31 81.35 59.24 83.8 56.8C84.8 55.79 85.89 54.92 87.06 54.18C87.98 53.61 88.95 53.11 89.97 52.7C91.01 52.27 92.08 51.95 93.17 51.72C94.42 51.46 95.69 51.33 97 51.33C98.3 51.33 99.57 51.46 100.82 51.72C101.91 51.95 102.98 52.27 104.02 52.7C105.04 53.11 106.01 53.61 106.93 54.18C108.1 54.92 109.19 55.79 110.19 56.8C111 57.6 111.72 58.46 112.36 59.39C112.73 59.92 113.07 60.47 113.38 61.05C113.76 61.73 114.09 62.44 114.37 63.16ZM74.24 75.18C73.95 73.9 74.73 72.68 76 72.39C77.28 72.1 78.5 72.87 78.79 74.15C79 75.07 79.28 75.96 79.62 76.83C79.9 77.55 80.23 78.26 80.61 78.94C80.92 79.52 81.26 80.07 81.63 80.6C82.27 81.53 82.99 82.39 83.8 83.19C84.8 84.2 85.89 85.07 87.06 85.81C87.98 86.38 88.95 86.88 89.97 87.29C91.01 87.72 92.08 88.04 93.17 88.27C94.42 88.53 95.69 88.66 97 88.66C98.3 88.66 99.57 88.53 100.82 88.27C101.91 88.04 102.98 87.72 104.02 87.29C105.04 86.88 106.01 86.38 106.93 85.81C108.1 85.07 109.19 84.2 110.19 83.19C112.64 80.75 114.56 78.68 115.96 77L106.33 77C105.02 77 104 75.97 104 74.66C104 73.36 105.02 72.33 106.33 72.33L120.33 72.33C120.97 72.33 121.52 72.56 121.98 73.01C122.43 73.47 122.66 74.02 122.66 74.66L122.66 88.66C122.66 89.97 121.64 91 120.33 91C119.02 91 118 89.97 118 88.66L118 81.77C116.74 83.18 115.24 84.75 113.49 86.49C112.27 87.72 110.94 88.79 109.51 89.7C108.33 90.45 107.09 91.09 105.77 91.62C104.45 92.16 103.1 92.57 101.72 92.85C100.18 93.17 98.6 93.33 97 93.33C95.39 93.33 93.82 93.17 92.27 92.85C90.9 92.57 89.54 92.16 88.22 91.62C86.9 91.09 85.66 90.45 84.48 89.7C83.05 88.79 81.72 87.72 80.5 86.49C79.53 85.53 78.67 84.5 77.89 83.4C77.39 82.69 76.93 81.95 76.51 81.18C76.03 80.3 75.61 79.4 75.25 78.48C74.84 77.41 74.5 76.31 74.24 75.18Z" fill="#7A9994" fill-opacity="1.000000" fill-rule="evenodd"></path>
&#x9;&#x9;</g>
&#x9;</g>
</svg>