<svg width="195.000000" height="140.000000" viewBox="0 0 195 140" fill="none" xmlns="http://www.w3.org/2000/svg" xmlns:xlink="http://www.w3.org/1999/xlink">
&#x9;<desc>
&#x9;&#x9;&#x9;Created with Pixso.
&#x9;</desc>
&#x9;<defs>
&#x9;&#x9;<clipPath id="clip201_5533">
&#x9;&#x9;&#x9;<rect id="empty-folder" width="195.000000" height="140.000000" fill="white" fill-opacity="0"></rect>
&#x9;&#x9;</clipPath>
&#x9;</defs>
&#x9;<g clip-path="url(#clip201_5533)">
&#x9;&#x9;<path id="Vector" d="M97.41 28.73C100.57 30.5 102.48 29.26 103.13 26.75L104.19 22.62C105.34 18.2 109.63 18.26 114.47 20.96L160.71 46.97C165.97 49.91 168.13 52.5 166.42 58.71C164.71 64.92 144.73 129.74 143.58 132.73C142.44 135.72 138.8 137.17 132.92 133.88L43.31 83.73C36.36 79.85 35.69 74.18 35.69 67.89L53.39 11C54.35 8.07 56.47 5.76 60.05 7.82L97.41 28.73Z" fill="#A3CCC9" fill-opacity="1.000000" fill-rule="nonzero"></path>
&#x9;&#x9;<path id="Vector" d="M62.17 37.36C65.33 39.13 67.49 38.5 66.99 35.98L66.28 32.32C65.54 28.45 68.85 27.5 73.69 30.17L118.68 55.36C123.94 58.31 128.88 64.11 129.69 68.32L141.93 131.44C142.84 136.15 138.81 137.3 132.92 134L43.3 83.86C36.36 79.97 29.86 72.32 28.78 66.76L19.32 17.97C18.77 15.1 21.22 14.41 24.8 16.41L62.17 37.36Z" fill="#B8D6D3" fill-opacity="1.000000" fill-rule="nonzero"></path>
&#x9;&#x9;<path id="Vector" d="M60.84 38.4C64 40.16 66.14 39.58 65.61 37.09L64.83 33.49C64.02 29.67 67.29 28.78 72.13 31.48L117.12 56.66C122.39 59.61 127.37 65.35 128.26 69.54L141.48 131.69C142.48 136.33 138.5 137.43 132.62 134.13L43 83.96C36.05 80.07 29.47 72.48 28.31 67.01L18.09 18.96C17.49 16.14 19.9 15.48 23.48 17.49L60.84 38.4Z" fill="#E0F3F1" fill-opacity="1.000000" fill-rule="nonzero"></path>
&#x9;&#x9;<g opacity="0.300000" style="mix-blend-mode:multiply">
&#x9;&#x9;&#x9;<path id="Vector" d="M49.8 73.32C81.23 80.48 110.72 76.49 125.92 64.67C127 66.12 127.79 67.77 128.25 69.51L141.48 131.66C142.48 136.3 138.5 137.39 132.62 134.1L43 83.96C36.05 80.07 29.47 72.48 28.31 67.01L28.22 66.59C35.21 69.4 42.43 71.65 49.8 73.32Z" fill="#E0F3F1" fill-opacity="1.000000" fill-rule="nonzero"></path>
&#x9;&#x9;</g>
&#x9;</g>
</svg>