<svg width="195.000000" height="140.000000" viewBox="0 0 195 140" fill="none" xmlns="http://www.w3.org/2000/svg" xmlns:xlink="http://www.w3.org/1999/xlink">
&#x9;<desc>
&#x9;&#x9;&#x9;Created with Pixso.
&#x9;</desc>
&#x9;<defs>
&#x9;&#x9;<clipPath id="clip201_8336">
&#x9;&#x9;&#x9;<rect id="mna-pipeline" width="195.000000" height="140.000000" fill="white" fill-opacity="0"></rect>
&#x9;&#x9;</clipPath>
&#x9;</defs>
&#x9;<g clip-path="url(#clip201_8336)">
&#x9;&#x9;<path id="path" d="M34.36 55.83C34.41 55.82 34.46 55.81 34.51 55.8C34.58 55.78 34.66 55.76 34.74 55.75C34.79 55.74 34.85 55.73 34.9 55.72C34.96 55.71 35.01 55.7 35.07 55.69L35.18 68.55L56.48 82.93L56.35 67.58L38.7 55.67C38.96 55.7 39.22 55.74 39.48 55.78C39.54 55.79 39.6 55.8 39.65 55.81C39.75 55.83 39.85 55.84 39.95 55.86C40.02 55.87 40.09 55.89 40.16 55.9C40.25 55.92 40.35 55.94 40.45 55.96C40.51 55.97 40.57 55.99 40.63 56C40.79 56.04 40.94 56.07 41.1 56.11C41.14 56.12 41.18 56.13 41.22 56.14C41.41 56.19 41.6 56.24 41.79 56.3C41.83 56.31 41.86 56.32 41.89 56.33C42.16 56.4 42.42 56.49 42.68 56.57C42.94 56.66 43.23 56.77 43.49 56.87C43.79 56.98 44.13 57.13 44.42 57.26C44.71 57.39 45.04 57.55 45.32 57.69C45.6 57.84 45.91 58 46.19 58.17C46.46 58.33 46.75 58.51 47.02 58.69C49.37 60.28 50.6 62.06 50.62 63.57C50.57 58.46 50.52 53.34 50.48 48.22C50.47 46.71 49.23 44.92 46.88 43.34C46.62 43.17 46.35 42.99 46.07 42.83C45.79 42.66 45.5 42.5 45.21 42.35C44.93 42.21 44.62 42.06 44.33 41.93C44.04 41.8 43.71 41.65 43.41 41.54C43.16 41.44 42.84 41.31 42.58 41.23C42.32 41.14 42.03 41.04 41.76 40.97C41.75 40.97 41.67 40.93 41.66 40.93C41.46 40.87 41.28 40.82 41.09 40.77C41.04 40.76 41 40.75 40.96 40.74C40.81 40.7 40.65 40.66 40.5 40.63C40.47 40.62 40.34 40.59 40.31 40.59C40.22 40.57 40.12 40.55 40.03 40.53C39.96 40.51 39.89 40.5 39.81 40.49C39.72 40.47 39.62 40.45 39.53 40.43C39.48 40.42 39.43 40.41 39.38 40.4C39.12 40.36 38.82 40.32 38.56 40.29C38.54 40.29 38.46 40.28 38.45 40.28C38.22 40.26 38 40.23 37.77 40.22C37.75 40.22 37.67 40.21 37.64 40.21C37.43 40.2 37.22 40.19 37.02 40.18C36.82 40.18 36.61 40.18 36.42 40.18C36.4 40.18 36.3 40.18 36.28 40.18C36.09 40.19 35.9 40.2 35.72 40.21C35.53 40.23 35.28 40.26 35.1 40.28C35.08 40.28 35.01 40.29 34.99 40.29C34.92 40.3 34.85 40.32 34.77 40.33C34.72 40.34 34.65 40.35 34.6 40.37C34.53 40.38 34.45 40.39 34.39 40.41C34.34 40.42 34.29 40.43 34.24 40.44C34.08 40.48 33.9 40.53 33.74 40.58C33.71 40.59 33.67 40.6 33.63 40.61C33.48 40.67 33.32 40.72 33.18 40.79C33.06 40.84 32.95 40.9 32.84 40.95C32.8 40.97 32.68 41.04 32.64 41.06C32.6 41.09 32.47 41.17 32.44 41.19C32.38 41.23 32.32 41.27 32.27 41.31C32.26 41.32 32.15 41.4 32.14 41.41C32.08 41.46 32.02 41.51 31.96 41.57C31.92 41.61 31.85 41.68 31.81 41.73C31.79 41.75 31.73 41.81 31.71 41.83C31.67 41.88 31.63 41.93 31.6 41.97C31.59 41.98 31.53 42.06 31.52 42.07C31.49 42.12 31.41 42.24 31.38 42.29C31.36 42.33 31.34 42.36 31.32 42.4C31.29 42.45 31.27 42.5 31.24 42.55C31.2 42.63 31.11 42.81 31.07 42.9C31.02 43.02 30.95 43.17 30.9 43.29C30.86 43.37 30.83 43.45 30.8 43.52C30.78 43.56 30.77 43.59 30.75 43.63C30.7 43.73 30.66 43.83 30.61 43.93C30.58 43.98 30.55 44.03 30.53 44.08C30.48 44.15 30.39 44.31 30.34 44.38C30.31 44.43 30.27 44.48 30.24 44.52C30.19 44.59 30.14 44.66 30.09 44.72C30.02 44.81 29.87 44.99 29.8 45.07C29.72 45.16 29.61 45.27 29.52 45.35C29.45 45.42 29.3 45.55 29.23 45.62C29.2 45.64 29.17 45.67 29.13 45.7C29.06 45.76 28.98 45.82 28.9 45.87C28.87 45.9 28.84 45.93 28.8 45.95C28.69 46.03 28.58 46.11 28.46 46.18C28.44 46.19 28.34 46.25 28.32 46.26C28.3 46.27 28.24 46.3 28.22 46.31C28.19 46.32 28.13 46.36 28.1 46.37C28.08 46.39 28 46.43 27.97 46.44C27.95 46.45 27.84 46.5 27.82 46.51C27.79 46.52 27.75 46.54 27.72 46.56C27.66 46.58 27.55 46.64 27.49 46.66C27.08 46.84 26.61 47.04 26.17 47.18L4.86 32.84L4.99 48.19L26.31 62.58C26.75 62.43 27.23 62.23 27.63 62.05C27.69 62.02 27.75 62 27.81 61.97C27.86 61.95 27.93 61.92 27.97 61.9C28 61.88 28.08 61.84 28.12 61.82C28.14 61.81 28.23 61.77 28.25 61.76C28.27 61.74 28.35 61.71 28.37 61.7C28.38 61.7 28.48 61.64 28.49 61.63C28.49 61.63 28.59 61.59 28.59 61.59C28.71 61.51 28.83 61.43 28.94 61.36C28.98 61.33 29.01 61.3 29.04 61.28C29.12 61.22 29.19 61.17 29.26 61.11C29.28 61.09 29.35 61.04 29.37 61.02C29.44 60.96 29.51 60.9 29.57 60.84C29.66 60.75 29.83 60.58 29.92 60.49C29.99 60.4 30.08 60.3 30.15 60.21C30.21 60.15 30.33 59.99 30.37 59.92C30.4 59.89 30.45 59.81 30.47 59.78C30.52 59.71 30.57 59.64 30.61 59.56C30.63 59.53 30.65 59.49 30.67 59.45C30.69 59.42 30.71 59.38 30.73 59.34C30.78 59.24 30.83 59.13 30.88 59.03C30.92 58.93 31 58.76 31.04 58.66C31.08 58.56 31.13 58.45 31.17 58.35C31.21 58.27 31.28 58.13 31.32 58.04C31.33 58.01 31.35 57.98 31.37 57.94C31.39 57.9 31.42 57.85 31.45 57.8C31.46 57.76 31.49 57.73 31.51 57.69C31.54 57.64 31.57 57.59 31.6 57.55C31.62 57.51 31.65 57.48 31.67 57.44C31.71 57.39 31.8 57.27 31.84 57.22C31.89 57.17 32.01 57.04 32.07 56.98C32.13 56.92 32.23 56.83 32.3 56.77C32.35 56.73 32.5 56.62 32.56 56.58C32.59 56.56 32.63 56.53 32.67 56.51C32.73 56.46 32.8 56.43 32.87 56.39C32.97 56.33 33.17 56.23 33.29 56.17C33.44 56.11 33.59 56.05 33.75 56C33.79 55.99 33.82 55.98 33.86 55.97C34.02 55.92 34.19 55.87 34.36 55.83Z" fill="#8FC2BE" fill-opacity="1.000000" fill-rule="nonzero"></path>
&#x9;&#x9;<path id="path" d="M122.47 55.16L122.33 39.81L95 51.31L95.11 64.08C95.05 64.09 94.96 64.1 94.9 64.1C94.69 64.13 94.47 64.15 94.26 64.17C94.1 64.18 93.88 64.19 93.73 64.2C93.67 64.2 93.61 64.2 93.55 64.21C93.43 64.21 93.32 64.22 93.2 64.22C93.15 64.22 93.11 64.22 93.07 64.22C92.79 64.23 92.53 64.23 92.26 64.22C92.23 64.22 92.19 64.22 92.15 64.22C91.93 64.22 91.72 64.21 91.5 64.19C91.3 64.18 91.06 64.16 90.87 64.14C90.82 64.14 90.77 64.13 90.72 64.13C90.56 64.11 90.4 64.08 90.24 64.06C90.07 64.03 89.85 63.99 89.69 63.96C89.65 63.95 89.61 63.94 89.56 63.93C89.41 63.89 89.26 63.86 89.12 63.81C89.09 63.8 89 63.77 88.97 63.77C88.89 63.74 88.81 63.72 88.73 63.69C88.7 63.67 88.66 63.66 88.62 63.65C88.55 63.62 88.49 63.6 88.43 63.57C88.39 63.56 88.36 63.55 88.32 63.53C88.26 63.5 88.21 63.48 88.14 63.45C88.11 63.44 88.08 63.42 88.04 63.4C87.98 63.37 87.92 63.34 87.87 63.31C87.79 63.26 87.62 63.17 87.55 63.12C86.52 62.43 86.36 61.54 86.34 60.61C86.34 60.37 86.34 60.12 86.34 59.86C86.33 59.11 86.28 58.35 85.78 57.7C85.67 57.56 84.58 56.63 83.65 56.08L56.35 67.57L56.48 82.92L83.78 71.43C84.71 71.98 85.81 72.91 85.91 73.05C86.36 73.64 86.45 74.31 86.46 74.99C86.46 75.23 86.46 75.48 86.47 75.73C86.48 76.74 86.57 77.71 87.68 78.47C87.76 78.52 87.84 78.57 87.92 78.61C87.98 78.65 88.11 78.72 88.18 78.75C88.21 78.77 88.24 78.79 88.28 78.8C88.33 78.83 88.4 78.86 88.46 78.88C88.49 78.9 88.53 78.91 88.56 78.92C88.61 78.94 88.71 78.98 88.75 79C88.79 79.01 88.83 79.02 88.87 79.04C88.94 79.06 89.02 79.09 89.1 79.11C89.1 79.11 89.2 79.14 89.21 79.14C89.35 79.19 89.55 79.23 89.7 79.27C89.72 79.27 89.8 79.29 89.81 79.29C89.97 79.32 90.14 79.36 90.31 79.39C90.48 79.41 90.68 79.44 90.85 79.46C90.88 79.46 90.97 79.47 90.99 79.47C91.18 79.49 91.38 79.51 91.58 79.53C91.79 79.54 92.06 79.55 92.28 79.55C92.29 79.55 92.37 79.55 92.38 79.55C92.65 79.55 92.92 79.55 93.19 79.55C93.22 79.55 93.3 79.55 93.33 79.55C93.44 79.55 93.56 79.54 93.67 79.54C93.73 79.54 93.79 79.53 93.85 79.53C94.02 79.52 94.18 79.51 94.35 79.5C94.57 79.48 94.81 79.46 95.03 79.43C95.09 79.42 95.15 79.42 95.21 79.41C95.4 79.39 95.59 79.36 95.79 79.33C95.97 79.31 96.25 79.27 96.43 79.24C96.58 79.21 96.83 79.17 96.98 79.14C97.05 79.13 97.12 79.12 97.18 79.1C97.3 79.08 97.42 79.05 97.53 79.03C97.61 79.01 97.69 79 97.76 78.98C97.87 78.95 97.98 78.93 98.09 78.9C98.11 78.9 98.23 78.87 98.25 78.86C98.55 78.79 98.84 78.71 99.14 78.63C99.18 78.62 99.22 78.6 99.25 78.6C99.55 78.51 99.85 78.42 100.16 78.32C100.46 78.22 100.86 78.09 101.16 77.98C101.48 77.86 101.84 77.72 102.15 77.58C102.3 77.52 102.45 77.46 102.6 77.39C102.8 77.3 103.01 77.21 103.2 77.11C103.27 77.08 103.34 77.05 103.4 77.01C103.53 76.95 103.66 76.88 103.78 76.82C103.85 76.78 103.92 76.75 103.99 76.71C104.11 76.65 104.22 76.58 104.33 76.52C104.39 76.48 104.47 76.44 104.53 76.4C104.58 76.38 104.62 76.35 104.66 76.33C104.72 76.29 104.79 76.24 104.86 76.21C104.91 76.17 104.98 76.13 105.03 76.1C105.15 76.02 105.27 75.94 105.39 75.86C105.42 75.84 105.46 75.81 105.5 75.79C105.65 75.68 105.79 75.58 105.93 75.47C105.96 75.44 106 75.42 106.03 75.39C106.11 75.33 106.19 75.26 106.27 75.2C106.37 75.11 106.51 75 106.6 74.91C106.64 74.87 106.68 74.83 106.72 74.79C106.85 74.67 106.97 74.55 107.08 74.43C107.18 74.32 107.27 74.21 107.36 74.1C107.39 74.07 107.41 74.04 107.44 74C107.48 73.94 107.53 73.88 107.57 73.82C107.59 73.79 107.64 73.71 107.66 73.68C107.71 73.61 107.76 73.54 107.8 73.46C107.81 73.44 107.87 73.33 107.88 73.31C107.92 73.23 107.96 73.15 107.99 73.08C108.01 73.03 108.05 72.93 108.07 72.88C108.08 72.84 108.09 72.81 108.1 72.77C108.12 72.7 108.15 72.56 108.16 72.49C108.17 72.4 108.19 72.22 108.19 72.13C108.16 68.49 108.13 64.82 108.1 61.18L122.47 55.16Z" fill="#A3CCC9" fill-opacity="1.000000" fill-rule="nonzero"></path>
&#x9;&#x9;<path id="path" d="M4.86 32.84L70.85 5.07L122.33 39.81L95 51.31C95.6 51.82 96.63 52.42 96.84 52.51C97.8 52.95 99.02 53.27 100.21 53.49C102.51 53.92 105.33 53.85 106.97 54.95C109.53 56.68 107.51 59.82 102.47 62.07C102.33 62.13 102.18 62.2 102.03 62.26C96.66 64.52 90.18 64.91 87.54 63.13C85.4 61.69 87.04 59.39 85.76 57.71C85.66 57.58 84.56 56.64 83.63 56.09L56.33 67.58L35.03 53.21C35.12 53.16 35.21 53.12 35.3 53.08C36.36 52.62 37.87 52.11 38.11 52.06C41.28 51.36 45.58 52.21 48.33 51.05C51.69 49.56 51 46.16 46.86 43.37C42.68 40.54 36.55 39.4 33.17 40.82C31.07 41.76 31.15 43.23 30.34 44.43C29.92 45.07 29.29 45.72 28.45 46.24C28.35 46.3 27.97 46.49 27.49 46.7C27.08 46.88 26.61 47.08 26.17 47.23L4.86 32.84Z" fill="#C3DFDC" fill-opacity="1.000000" fill-rule="nonzero"></path>
&#x9;&#x9;<path id="path" d="M124.05 72.1C124.04 71.41 123.69 70.78 122.94 70.28C122.82 70.2 122.69 70.13 122.56 70.06C122.52 70.04 122.48 70.02 122.44 70C122.34 69.95 122.25 69.91 122.15 69.87C122.13 69.86 122.03 69.82 122.01 69.81C121.85 69.75 121.69 69.7 121.52 69.64C121.35 69.6 121.17 69.55 120.99 69.51C120.96 69.51 120.88 69.49 120.85 69.48C120.64 69.44 120.42 69.4 120.2 69.36C119.98 69.32 119.68 69.28 119.45 69.25C119.2 69.22 118.89 69.18 118.65 69.15C118.45 69.13 118.21 69.11 118.01 69.08C117.77 69.05 117.54 69.03 117.31 69C117.27 68.99 117.22 68.99 117.18 68.98C116.96 68.95 116.73 68.92 116.51 68.89C116.4 68.87 116.28 68.85 116.17 68.83C115.94 68.79 115.71 68.74 115.47 68.69C115.43 68.68 115.39 68.67 115.35 68.66C115.18 68.62 115.01 68.58 114.84 68.54C114.68 68.5 114.5 68.45 114.33 68.4C114.28 68.39 114.22 68.37 114.17 68.35C114.06 68.32 113.94 68.28 113.83 68.25C113.78 68.23 113.72 68.21 113.67 68.19C113.56 68.15 113.44 68.11 113.33 68.07C113.29 68.05 113.25 68.03 113.2 68.02C113.06 67.96 112.92 67.9 112.79 67.84C112.58 67.75 111.55 67.15 110.95 66.64L111.08 81.99C111.69 82.5 112.72 83.09 112.92 83.19C113.06 83.25 113.19 83.31 113.34 83.37C113.37 83.38 113.43 83.41 113.46 83.42C113.57 83.46 113.69 83.5 113.81 83.54C113.86 83.56 113.91 83.58 113.96 83.59C114.08 83.63 114.19 83.67 114.31 83.7C114.33 83.7 114.44 83.74 114.45 83.75C114.62 83.79 114.79 83.84 114.96 83.88C115.13 83.93 115.3 83.97 115.47 84.01C115.5 84.01 115.57 84.03 115.59 84.03C115.83 84.08 116.06 84.13 116.29 84.17C116.38 84.19 116.48 84.21 116.58 84.22C116.8 84.26 117.08 84.3 117.3 84.33C117.34 84.33 117.39 84.34 117.43 84.35C117.66 84.38 117.89 84.4 118.12 84.43C118.26 84.45 118.42 84.46 118.57 84.48C118.64 84.48 118.69 84.49 118.75 84.5C119 84.53 119.25 84.56 119.5 84.59C119.73 84.62 120.02 84.66 120.25 84.7C120.47 84.74 120.75 84.79 120.96 84.83C121.01 84.84 121.05 84.85 121.1 84.86C121.28 84.9 121.45 84.95 121.62 84.99C121.79 85.05 121.95 85.1 122.12 85.16C122.16 85.18 122.21 85.2 122.25 85.21C122.36 85.26 122.45 85.3 122.55 85.34C122.59 85.36 122.63 85.38 122.67 85.4C122.8 85.47 122.93 85.55 123.05 85.62C123.8 86.13 124.15 86.75 124.16 87.44L124.05 72.1Z" fill="#8FC2BE" fill-opacity="1.000000" fill-rule="nonzero"></path>
&#x9;&#x9;<path id="path" d="M101.81 105.9C101.86 105.88 101.92 105.87 101.97 105.86C102.04 105.85 102.11 105.83 102.18 105.81C102.24 105.81 102.3 105.8 102.36 105.78C102.41 105.77 102.46 105.76 102.51 105.76L102.62 118.62L123.92 132.99L123.79 117.64L106.15 105.73C106.4 105.76 106.66 105.8 106.92 105.84C106.99 105.85 107.04 105.86 107.11 105.88C107.2 105.9 107.3 105.91 107.4 105.93C107.47 105.94 107.53 105.96 107.61 105.97C107.7 105.99 107.79 106.01 107.89 106.03C107.95 106.04 108.02 106.06 108.08 106.07C108.24 106.11 108.39 106.14 108.54 106.18C108.58 106.19 108.62 106.2 108.66 106.22C108.86 106.26 109.04 106.32 109.23 106.37C109.27 106.38 109.3 106.4 109.34 106.41C109.6 106.48 109.86 106.56 110.12 106.65C110.38 106.74 110.67 106.85 110.92 106.95C111.22 107.06 111.57 107.21 111.85 107.34C112.15 107.47 112.47 107.63 112.76 107.77C113.04 107.92 113.35 108.09 113.62 108.25C113.9 108.42 114.19 108.59 114.45 108.78C116.8 110.36 118.04 112.14 118.05 113.66C118.01 108.54 117.96 103.43 117.92 98.31C117.91 96.79 116.67 95.01 114.32 93.43C114.06 93.25 113.79 93.08 113.5 92.91C113.23 92.75 112.94 92.59 112.65 92.44C112.37 92.3 112.05 92.14 111.76 92.01C111.48 91.88 111.14 91.74 110.85 91.62C110.6 91.52 110.28 91.41 110.02 91.32C109.76 91.23 109.47 91.14 109.2 91.06C109.01 91 108.72 90.92 108.53 90.87C108.49 90.86 108.45 90.86 108.42 90.85C108.26 90.81 108.1 90.77 107.95 90.73C107.92 90.72 107.8 90.7 107.77 90.69C107.67 90.67 107.57 90.65 107.48 90.63C107.41 90.62 107.34 90.6 107.28 90.59C107.18 90.57 107.08 90.55 106.98 90.54C106.93 90.53 106.89 90.52 106.84 90.52C106.58 90.47 106.28 90.43 106.01 90.4C106 90.4 105.92 90.39 105.9 90.39C105.67 90.37 105.45 90.35 105.23 90.33C105.2 90.33 105.12 90.33 105.09 90.33C104.68 90.3 104.27 90.29 103.87 90.3C103.85 90.3 103.76 90.3 103.74 90.3C103.55 90.31 103.36 90.32 103.17 90.34C102.98 90.35 102.74 90.37 102.55 90.4C102.54 90.4 102.46 90.41 102.45 90.42C102.37 90.43 102.29 90.44 102.22 90.45C102.16 90.46 102.11 90.47 102.06 90.48C101.97 90.5 101.9 90.52 101.82 90.53C101.78 90.54 101.74 90.55 101.7 90.56C101.53 90.6 101.35 90.65 101.2 90.69C101.16 90.7 101.13 90.72 101.09 90.73C100.93 90.78 100.78 90.84 100.63 90.9C100.51 90.95 100.4 91.01 100.3 91.06C100.26 91.08 100.13 91.16 100.09 91.17C100.05 91.2 99.93 91.28 99.89 91.3C99.83 91.34 99.78 91.38 99.72 91.42C99.71 91.43 99.6 91.51 99.59 91.52C99.53 91.57 99.47 91.62 99.41 91.68C99.37 91.72 99.3 91.79 99.26 91.83C99.24 91.86 99.19 91.92 99.17 91.95C99.13 92 99.09 92.04 99.06 92.09C99.05 92.1 98.98 92.18 98.97 92.2C98.95 92.24 98.86 92.37 98.84 92.41C98.81 92.45 98.79 92.49 98.77 92.52C98.75 92.57 98.72 92.62 98.69 92.66C98.68 92.68 98.64 92.75 98.64 92.76C98.6 92.84 98.56 92.92 98.52 93.01C98.47 93.12 98.4 93.28 98.35 93.39C98.32 93.48 98.28 93.56 98.24 93.64C98.2 93.75 98.11 93.94 98.06 94.04C98.03 94.09 98 94.15 97.97 94.2C97.93 94.27 97.84 94.42 97.8 94.49C97.76 94.54 97.73 94.58 97.7 94.63C97.65 94.7 97.6 94.77 97.54 94.84C97.47 94.92 97.33 95.09 97.25 95.18C97.17 95.27 97.06 95.38 96.97 95.47C96.9 95.53 96.76 95.67 96.69 95.73C96.65 95.76 96.61 95.79 96.58 95.82C96.51 95.88 96.44 95.93 96.36 95.99C96.33 96.01 96.29 96.04 96.26 96.07C96.15 96.15 96.03 96.22 95.91 96.3C95.89 96.31 95.82 96.35 95.81 96.35C95.79 96.36 95.7 96.41 95.68 96.42C95.66 96.43 95.58 96.46 95.56 96.47C95.54 96.48 95.45 96.53 95.43 96.53C95.41 96.55 95.31 96.59 95.28 96.61C95.24 96.62 95.21 96.64 95.17 96.66C95.11 96.68 95 96.73 94.94 96.76C94.54 96.94 94.07 97.14 93.63 97.28L72.3 82.9L72.44 98.25L93.76 112.63C94.2 112.49 94.67 112.29 95.07 112.11C95.19 112.06 95.3 112.01 95.4 111.96C95.45 111.94 95.5 111.92 95.55 111.89C95.58 111.88 95.62 111.86 95.65 111.84C95.67 111.83 95.74 111.8 95.76 111.79C95.78 111.78 95.85 111.75 95.86 111.74C95.87 111.73 95.97 111.68 95.98 111.68C96.1 111.6 96.27 111.49 96.38 111.41C96.41 111.39 96.45 111.37 96.48 111.34C96.56 111.28 96.63 111.22 96.7 111.16C96.72 111.15 96.79 111.09 96.8 111.07C96.88 111.01 96.94 110.96 97.01 110.89C97.1 110.81 97.27 110.64 97.36 110.55C97.43 110.46 97.52 110.36 97.6 110.27C97.65 110.21 97.77 110.05 97.82 109.98C97.83 109.95 97.89 109.87 97.92 109.84C97.96 109.77 98.01 109.7 98.05 109.62C98.08 109.57 98.15 109.45 98.18 109.4C98.23 109.3 98.28 109.19 98.32 109.09C98.36 109 98.44 108.82 98.47 108.74C98.52 108.62 98.57 108.51 98.62 108.4C98.66 108.32 98.73 108.18 98.76 108.1C98.79 108.06 98.86 107.91 98.89 107.86C98.91 107.82 98.94 107.79 98.96 107.75C98.98 107.7 99.02 107.66 99.05 107.61C99.07 107.57 99.09 107.53 99.12 107.5C99.16 107.45 99.25 107.34 99.29 107.29C99.34 107.23 99.46 107.1 99.52 107.05C99.58 106.98 99.68 106.9 99.76 106.84C99.81 106.79 99.96 106.68 100.01 106.64C100.05 106.62 100.09 106.59 100.12 106.57C100.19 106.53 100.26 106.49 100.32 106.45C100.43 106.39 100.63 106.29 100.75 106.23C100.9 106.17 101.05 106.12 101.21 106.06C101.24 106.05 101.28 106.04 101.32 106.03C101.47 105.98 101.65 105.93 101.81 105.9Z" fill="#8FC2BE" fill-opacity="1.000000" fill-rule="nonzero"></path>
&#x9;&#x9;<path id="path" d="M189.78 89.87L189.91 105.22L123.92 133L123.78 117.65L189.78 89.87Z" fill="#A3CCC9" fill-opacity="1.000000" fill-rule="nonzero"></path>
&#x9;&#x9;<path id="path" d="M72.3 82.91L99.6 71.42C100.53 71.97 101.63 72.9 101.74 73.04C103.02 74.72 101.37 77.01 103.51 78.46C106.15 80.24 112.63 79.85 118 77.59C118.14 77.53 118.29 77.46 118.44 77.4C123.48 75.15 125.5 72.01 122.94 70.28C121.3 69.18 118.48 69.25 116.18 68.82C114.99 68.61 113.77 68.28 112.81 67.84C112.6 67.75 111.57 67.15 110.97 66.64L138.3 55.14L189.78 89.88L123.78 117.65L102.48 103.28C102.57 103.24 102.66 103.2 102.75 103.15C103.8 102.69 105.32 102.18 105.56 102.12C108.73 101.43 113.03 102.27 115.78 101.12C119.14 99.62 118.45 96.22 114.31 93.43C110.13 90.61 104 89.47 100.62 90.89C98.52 91.83 98.6 93.3 97.79 94.5C97.36 95.14 96.74 95.8 95.9 96.31C95.8 96.37 95.42 96.56 94.93 96.78C94.53 96.96 94.06 97.15 93.62 97.3L72.3 82.91Z" fill="#D9ECEA" fill-opacity="1.000000" fill-rule="nonzero"></path>
&#x9;</g>
</svg>