<svg width="195.000000" height="140.000000" viewBox="0 0 195 140" fill="none" xmlns="http://www.w3.org/2000/svg" xmlns:xlink="http://www.w3.org/1999/xlink">
&#x9;<desc>
&#x9;&#x9;&#x9;Created with Pixso.
&#x9;</desc>
&#x9;<defs>
&#x9;&#x9;<clipPath id="clip201_4862">
&#x9;&#x9;&#x9;<rect id="possible-leads" width="195.000000" height="140.000000" fill="white" fill-opacity="0"></rect>
&#x9;&#x9;</clipPath>
&#x9;</defs>
&#x9;<g clip-path="url(#clip201_4862)">
&#x9;&#x9;<path id="Vector" d="M31.3 98.81C32.5 91.43 34.14 86.77 33.66 78.35L149.02 87.28C147.22 95.71 146.68 102.64 153.03 108.86L100.87 139L31.3 98.81Z" fill="#D0EAE7" fill-opacity="1.000000" fill-rule="nonzero"></path>
&#x9;&#x9;<path id="Vector" d="M99.79 114.71L149.02 87.26C149.16 95.7 149.15 103.56 153.03 108.85L100.87 139C98.09 129.51 98.41 123.7 99.79 114.71Z" fill="#A3CCC9" fill-opacity="1.000000" fill-rule="nonzero"></path>
&#x9;&#x9;<path id="Vector" d="M33.53 78.12C55.39 66.95 65.91 61.36 83.4 49.34L149.96 87.74L100.05 116.51L33.53 78.12Z" fill="#F0F9F8" fill-opacity="1.000000" fill-rule="nonzero"></path>
&#x9;&#x9;<g opacity="0.400000">
&#x9;&#x9;&#x9;<g opacity="0.400000">
&#x9;&#x9;&#x9;&#x9;<path id="Vector" d="M40.23 78.82L81.52 54.75L82.55 55.44L41.26 79.51L40.23 78.82Z" fill="#A3CCC9" fill-opacity="1.000000" fill-rule="nonzero"></path>
&#x9;&#x9;&#x9;</g>
&#x9;&#x9;&#x9;<g opacity="0.400000">
&#x9;&#x9;&#x9;&#x9;<path id="Vector" d="M73.24 63.04L84.61 56.42L85.63 57.12L74.26 63.74L73.24 63.04Z" fill="#A3CCC9" fill-opacity="1.000000" fill-rule="nonzero"></path>
&#x9;&#x9;&#x9;</g>
&#x9;&#x9;&#x9;<g opacity="0.400000">
&#x9;&#x9;&#x9;&#x9;<path id="Vector" d="M68.98 66.82L57.7 73.41L56.66 72.71L67.95 66.13L68.98 66.82Z" fill="#A3CCC9" fill-opacity="1.000000" fill-rule="nonzero"></path>
&#x9;&#x9;&#x9;</g>
&#x9;&#x9;&#x9;<g opacity="0.400000">
&#x9;&#x9;&#x9;&#x9;<path id="Vector" d="M51.37 75.79L52.41 76.48L44.34 81.19L43.32 80.49L51.37 75.79Z" fill="#A3CCC9" fill-opacity="1.000000" fill-rule="nonzero"></path>
&#x9;&#x9;&#x9;</g>
&#x9;&#x9;&#x9;<g opacity="0.400000">
&#x9;&#x9;&#x9;&#x9;<path id="Vector" d="M62.99 72.45L86.87 58.53L87.89 59.23L64.02 73.14L62.99 72.45Z" fill="#A3CCC9" fill-opacity="1.000000" fill-rule="nonzero"></path>
&#x9;&#x9;&#x9;</g>
&#x9;&#x9;&#x9;<g opacity="0.400000">
&#x9;&#x9;&#x9;&#x9;<path id="Vector" d="M51.81 78.97L52.83 79.67L46.6 83.3L45.57 82.61L51.81 78.97Z" fill="#A3CCC9" fill-opacity="1.000000" fill-rule="nonzero"></path>
&#x9;&#x9;&#x9;</g>
&#x9;&#x9;&#x9;<g opacity="0.400000">
&#x9;&#x9;&#x9;&#x9;<path id="Vector" d="M81.16 65.44L89.88 60.35L90.91 61.05L82.18 66.13L81.16 65.44Z" fill="#A3CCC9" fill-opacity="1.000000" fill-rule="nonzero"></path>
&#x9;&#x9;&#x9;</g>
&#x9;&#x9;&#x9;<g opacity="0.400000">
&#x9;&#x9;&#x9;&#x9;<path id="Vector" d="M73.35 69.99L74.37 70.68L49.61 85.12L48.59 84.41L73.35 69.99Z" fill="#A3CCC9" fill-opacity="1.000000" fill-rule="nonzero"></path>
&#x9;&#x9;&#x9;</g>
&#x9;&#x9;&#x9;<g opacity="0.400000">
&#x9;&#x9;&#x9;&#x9;<path id="Vector" d="M52.84 85.93L94.13 61.86L95.16 62.55L53.87 86.63L52.84 85.93Z" fill="#A3CCC9" fill-opacity="1.000000" fill-rule="nonzero"></path>
&#x9;&#x9;&#x9;</g>
&#x9;&#x9;&#x9;<g opacity="0.400000">
&#x9;&#x9;&#x9;&#x9;<path id="Vector" d="M85.85 70.15L97.21 63.53L98.24 64.22L86.87 70.84L85.85 70.15Z" fill="#A3CCC9" fill-opacity="1.000000" fill-rule="nonzero"></path>
&#x9;&#x9;&#x9;</g>
&#x9;&#x9;&#x9;<g opacity="0.400000">
&#x9;&#x9;&#x9;&#x9;<path id="Vector" d="M81.59 73.93L70.31 80.51L69.27 79.81L80.56 73.24L81.59 73.93Z" fill="#A3CCC9" fill-opacity="1.000000" fill-rule="nonzero"></path>
&#x9;&#x9;&#x9;</g>
&#x9;&#x9;&#x9;<g opacity="0.400000">
&#x9;&#x9;&#x9;&#x9;<path id="Vector" d="M63.99 82.89L65.02 83.59L56.94 88.29L55.92 87.6L63.99 82.89Z" fill="#A3CCC9" fill-opacity="1.000000" fill-rule="nonzero"></path>
&#x9;&#x9;&#x9;</g>
&#x9;&#x9;&#x9;<g opacity="0.400000">
&#x9;&#x9;&#x9;&#x9;<path id="Vector" d="M75.6 79.56L99.48 65.63L100.5 66.34L76.62 80.25L75.6 79.56Z" fill="#A3CCC9" fill-opacity="1.000000" fill-rule="nonzero"></path>
&#x9;&#x9;&#x9;</g>
&#x9;&#x9;&#x9;<g opacity="0.400000">
&#x9;&#x9;&#x9;&#x9;<path id="Vector" d="M64.42 86.08L65.44 86.77L59.21 90.41L58.18 89.71L64.42 86.08Z" fill="#A3CCC9" fill-opacity="1.000000" fill-rule="nonzero"></path>
&#x9;&#x9;&#x9;</g>
&#x9;&#x9;&#x9;<g opacity="0.400000">
&#x9;&#x9;&#x9;&#x9;<path id="Vector" d="M93.77 72.54L102.49 67.45L103.52 68.14L94.79 73.23L93.77 72.54Z" fill="#A3CCC9" fill-opacity="1.000000" fill-rule="nonzero"></path>
&#x9;&#x9;&#x9;</g>
&#x9;&#x9;&#x9;<g opacity="0.400000">
&#x9;&#x9;&#x9;&#x9;<path id="Vector" d="M85.96 77.08L86.99 77.79L62.22 92.22L61.2 91.52L85.96 77.08Z" fill="#A3CCC9" fill-opacity="1.000000" fill-rule="nonzero"></path>
&#x9;&#x9;&#x9;</g>
&#x9;&#x9;&#x9;<g opacity="0.400000">
&#x9;&#x9;&#x9;&#x9;<path id="Vector" d="M87.07 86L110.74 71.57L111.78 72.24L88.11 86.67L87.07 86Z" fill="#A3CCC9" fill-opacity="1.000000" fill-rule="nonzero"></path>
&#x9;&#x9;&#x9;</g>
&#x9;&#x9;&#x9;<g opacity="0.400000">
&#x9;&#x9;&#x9;&#x9;<path id="Vector" d="M75.98 92.76L77.02 93.43L70.84 97.2L69.8 96.53L75.98 92.76Z" fill="#A3CCC9" fill-opacity="1.000000" fill-rule="nonzero"></path>
&#x9;&#x9;&#x9;</g>
&#x9;&#x9;&#x9;<g opacity="0.400000">
&#x9;&#x9;&#x9;&#x9;<path id="Vector" d="M105.15 78.58L113.81 73.31L114.85 73.97L106.2 79.24L105.15 78.58Z" fill="#A3CCC9" fill-opacity="1.000000" fill-rule="nonzero"></path>
&#x9;&#x9;&#x9;</g>
&#x9;&#x9;&#x9;<g opacity="0.400000">
&#x9;&#x9;&#x9;&#x9;<path id="Vector" d="M97.42 83.3L98.46 83.97L73.91 98.93L72.86 98.27L97.42 83.3Z" fill="#A3CCC9" fill-opacity="1.000000" fill-rule="nonzero"></path>
&#x9;&#x9;&#x9;</g>
&#x9;&#x9;&#x9;<g opacity="0.400000">
&#x9;&#x9;&#x9;&#x9;<path id="Vector" d="M77.16 99.66L118.1 74.71L119.15 75.37L78.19 100.34L77.16 99.66Z" fill="#A3CCC9" fill-opacity="1.000000" fill-rule="nonzero"></path>
&#x9;&#x9;&#x9;</g>
&#x9;&#x9;&#x9;<g opacity="0.400000">
&#x9;&#x9;&#x9;&#x9;<path id="Vector" d="M103.74 94.08L127.62 80.17L128.65 80.86L104.77 94.79L103.74 94.08Z" fill="#A3CCC9" fill-opacity="1.000000" fill-rule="nonzero"></path>
&#x9;&#x9;&#x9;</g>
&#x9;&#x9;&#x9;<g opacity="0.400000">
&#x9;&#x9;&#x9;&#x9;<path id="Vector" d="M92.56 100.61L93.59 101.3L87.35 104.93L86.33 104.24L92.56 100.61Z" fill="#A3CCC9" fill-opacity="1.000000" fill-rule="nonzero"></path>
&#x9;&#x9;&#x9;</g>
&#x9;&#x9;&#x9;<g opacity="0.400000">
&#x9;&#x9;&#x9;&#x9;<path id="Vector" d="M121.91 87.07L130.63 81.98L131.66 82.68L122.93 87.77L121.91 87.07Z" fill="#A3CCC9" fill-opacity="1.000000" fill-rule="nonzero"></path>
&#x9;&#x9;&#x9;</g>
&#x9;&#x9;&#x9;<g opacity="0.400000">
&#x9;&#x9;&#x9;&#x9;<path id="Vector" d="M114.1 91.62L115.13 92.31L90.37 106.75L89.34 106.06L114.1 91.62Z" fill="#A3CCC9" fill-opacity="1.000000" fill-rule="nonzero"></path>
&#x9;&#x9;&#x9;</g>
&#x9;&#x9;&#x9;<g opacity="0.400000">
&#x9;&#x9;&#x9;&#x9;<path id="Vector" d="M115.21 100.53L138.88 86.1L139.93 86.77L116.25 101.2L115.21 100.53Z" fill="#A3CCC9" fill-opacity="1.000000" fill-rule="nonzero"></path>
&#x9;&#x9;&#x9;</g>
&#x9;&#x9;&#x9;<g opacity="0.400000">
&#x9;&#x9;&#x9;&#x9;<path id="Vector" d="M104.12 107.29L105.16 107.96L98.98 111.73L97.94 111.06L104.12 107.29Z" fill="#A3CCC9" fill-opacity="1.000000" fill-rule="nonzero"></path>
&#x9;&#x9;&#x9;</g>
&#x9;&#x9;&#x9;<g opacity="0.400000">
&#x9;&#x9;&#x9;&#x9;<path id="Vector" d="M109.97 83.16L121.24 76.29L122.28 76.96L111.01 83.83L109.97 83.16Z" fill="#A3CCC9" fill-opacity="1.000000" fill-rule="nonzero"></path>
&#x9;&#x9;&#x9;</g>
&#x9;&#x9;&#x9;<g opacity="0.400000">
&#x9;&#x9;&#x9;&#x9;<path id="Vector" d="M105.77 87.02L94.58 93.85L93.53 93.18L104.72 86.36L105.77 87.02Z" fill="#A3CCC9" fill-opacity="1.000000" fill-rule="nonzero"></path>
&#x9;&#x9;&#x9;</g>
&#x9;&#x9;&#x9;<g opacity="0.400000">
&#x9;&#x9;&#x9;&#x9;<path id="Vector" d="M88.29 96.38L89.33 97.04L81.33 101.93L80.28 101.25L88.29 96.38Z" fill="#A3CCC9" fill-opacity="1.000000" fill-rule="nonzero"></path>
&#x9;&#x9;&#x9;</g>
&#x9;&#x9;&#x9;<g opacity="0.400000">
&#x9;&#x9;&#x9;&#x9;<path id="Vector" d="M99.87 92.78L123.55 78.34L124.59 79.01L100.92 93.45L99.87 92.78Z" fill="#A3CCC9" fill-opacity="1.000000" fill-rule="nonzero"></path>
&#x9;&#x9;&#x9;</g>
&#x9;&#x9;&#x9;<g opacity="0.400000">
&#x9;&#x9;&#x9;&#x9;<path id="Vector" d="M88.78 99.53L89.83 100.2L83.65 103.97L82.6 103.3L88.78 99.53Z" fill="#A3CCC9" fill-opacity="1.000000" fill-rule="nonzero"></path>
&#x9;&#x9;&#x9;</g>
&#x9;&#x9;</g>
&#x9;&#x9;<path id="Vector" d="M105.81 113.2L149.93 87.73L93.68 55.26L42.32 80.59C66.87 91.99 90 102.94 105.81 113.2Z" fill="#D0EAE7" fill-opacity="1.000000" fill-rule="nonzero"></path>
&#x9;&#x9;<path id="Vector" d="M42.25 80.48L93.9 53.41C120.07 67.45 141.28 80.11 162.85 87.52L111.21 114.59C95.21 103.81 69.57 92.39 42.25 80.48Z" fill="#F0F9F8" fill-opacity="1.000000" fill-rule="nonzero"></path>
&#x9;&#x9;<path id="Vector" d="M69.7 105.54L30 85.32L33.89 82.78L69.7 105.54Z" fill="#F0F9F8" fill-opacity="1.000000" fill-rule="nonzero"></path>
&#x9;&#x9;<g opacity="0.500000">
&#x9;&#x9;&#x9;<path id="Vector" d="M111.34 123.38L99.36 131.17L89.92 124.27L98.31 127.42L111.34 123.38Z" fill="#F0F9F8" fill-opacity="1.000000" fill-rule="nonzero"></path>
&#x9;&#x9;</g>
&#x9;&#x9;<g opacity="0.100000">
&#x9;&#x9;&#x9;<path id="Vector" d="M121.83 118.28L147.75 105.1L139.96 111.99L121.83 118.28Z" fill="#F0F9F8" fill-opacity="1.000000" fill-rule="nonzero"></path>
&#x9;&#x9;</g>
&#x9;&#x9;<g opacity="0.500000">
&#x9;&#x9;&#x9;<path id="Vector" d="M92.17 121.28L65.96 110.04L48.27 98.81L92.17 121.28Z" fill="#F0F9F8" fill-opacity="1.000000" fill-rule="nonzero"></path>
&#x9;&#x9;</g>
&#x9;&#x9;<g opacity="0.400000">
&#x9;&#x9;&#x9;<g opacity="0.400000">
&#x9;&#x9;&#x9;&#x9;<path id="Vector" d="M53.2 79.9L93.46 57.94L94.52 58.58L54.26 80.54L53.2 79.9Z" fill="#A3CCC9" fill-opacity="1.000000" fill-rule="nonzero"></path>
&#x9;&#x9;&#x9;</g>
&#x9;&#x9;&#x9;<g opacity="0.400000">
&#x9;&#x9;&#x9;&#x9;<path id="Vector" d="M85.54 65.5L96.62 59.46L97.67 60.1L86.6 66.14L85.54 65.5Z" fill="#A3CCC9" fill-opacity="1.000000" fill-rule="nonzero"></path>
&#x9;&#x9;&#x9;</g>
&#x9;&#x9;&#x9;<g opacity="0.400000">
&#x9;&#x9;&#x9;&#x9;<path id="Vector" d="M81.44 68.95L70.44 74.95L69.37 74.32L80.38 68.32L81.44 68.95Z" fill="#A3CCC9" fill-opacity="1.000000" fill-rule="nonzero"></path>
&#x9;&#x9;&#x9;</g>
&#x9;&#x9;&#x9;<g opacity="0.400000">
&#x9;&#x9;&#x9;&#x9;<path id="Vector" d="M64.22 77.14L65.28 77.77L57.41 82.06L56.36 81.43L64.22 77.14Z" fill="#A3CCC9" fill-opacity="1.000000" fill-rule="nonzero"></path>
&#x9;&#x9;&#x9;</g>
&#x9;&#x9;&#x9;<g opacity="0.400000">
&#x9;&#x9;&#x9;&#x9;<path id="Vector" d="M75.69 74.09L98.98 61.39L100.03 62.02L76.75 74.72L75.69 74.09Z" fill="#A3CCC9" fill-opacity="1.000000" fill-rule="nonzero"></path>
&#x9;&#x9;&#x9;</g>
&#x9;&#x9;&#x9;<g opacity="0.400000">
&#x9;&#x9;&#x9;&#x9;<path id="Vector" d="M64.79 80.04L65.85 80.68L59.77 83.99L58.71 83.36L64.79 80.04Z" fill="#A3CCC9" fill-opacity="1.000000" fill-rule="nonzero"></path>
&#x9;&#x9;&#x9;</g>
&#x9;&#x9;&#x9;<g opacity="0.400000">
&#x9;&#x9;&#x9;&#x9;<path id="Vector" d="M93.56 67.69L102.06 63.05L103.12 63.68L94.61 68.32L93.56 67.69Z" fill="#A3CCC9" fill-opacity="1.000000" fill-rule="nonzero"></path>
&#x9;&#x9;&#x9;</g>
&#x9;&#x9;&#x9;<g opacity="0.400000">
&#x9;&#x9;&#x9;&#x9;<path id="Vector" d="M85.94 71.83L87 72.47L62.85 85.65L61.8 85.01L85.94 71.83Z" fill="#A3CCC9" fill-opacity="1.000000" fill-rule="nonzero"></path>
&#x9;&#x9;&#x9;</g>
&#x9;&#x9;&#x9;<g opacity="0.400000">
&#x9;&#x9;&#x9;&#x9;<path id="Vector" d="M66.12 86.39L106.38 64.42L107.44 65.05L67.17 87.03L66.12 86.39Z" fill="#A3CCC9" fill-opacity="1.000000" fill-rule="nonzero"></path>
&#x9;&#x9;&#x9;</g>
&#x9;&#x9;&#x9;<g opacity="0.400000">
&#x9;&#x9;&#x9;&#x9;<path id="Vector" d="M98.45 71.99L109.53 65.94L110.59 66.58L99.51 72.63L98.45 71.99Z" fill="#A3CCC9" fill-opacity="1.000000" fill-rule="nonzero"></path>
&#x9;&#x9;&#x9;</g>
&#x9;&#x9;&#x9;<g opacity="0.400000">
&#x9;&#x9;&#x9;&#x9;<path id="Vector" d="M94.35 75.44L83.35 81.44L82.29 80.81L93.3 74.8L94.35 75.44Z" fill="#A3CCC9" fill-opacity="1.000000" fill-rule="nonzero"></path>
&#x9;&#x9;&#x9;</g>
&#x9;&#x9;&#x9;<g opacity="0.400000">
&#x9;&#x9;&#x9;&#x9;<path id="Vector" d="M77.14 83.62L78.19 84.26L70.33 88.55L69.26 87.92L77.14 83.62Z" fill="#A3CCC9" fill-opacity="1.000000" fill-rule="nonzero"></path>
&#x9;&#x9;&#x9;</g>
&#x9;&#x9;&#x9;<g opacity="0.400000">
&#x9;&#x9;&#x9;&#x9;<path id="Vector" d="M88.6 80.58L111.88 67.88L112.94 68.51L89.66 81.21L88.6 80.58Z" fill="#A3CCC9" fill-opacity="1.000000" fill-rule="nonzero"></path>
&#x9;&#x9;&#x9;</g>
&#x9;&#x9;&#x9;<g opacity="0.400000">
&#x9;&#x9;&#x9;&#x9;<path id="Vector" d="M77.7 86.52L78.76 87.16L72.67 90.48L71.62 89.84L77.7 86.52Z" fill="#A3CCC9" fill-opacity="1.000000" fill-rule="nonzero"></path>
&#x9;&#x9;&#x9;</g>
&#x9;&#x9;&#x9;<g opacity="0.400000">
&#x9;&#x9;&#x9;&#x9;<path id="Vector" d="M106.47 74.17L114.97 69.53L116.04 70.16L107.53 74.8L106.47 74.17Z" fill="#A3CCC9" fill-opacity="1.000000" fill-rule="nonzero"></path>
&#x9;&#x9;&#x9;</g>
&#x9;&#x9;&#x9;<g opacity="0.400000">
&#x9;&#x9;&#x9;&#x9;<path id="Vector" d="M98.86 78.32L99.92 78.96L75.77 92.13L74.72 91.5L98.86 78.32Z" fill="#A3CCC9" fill-opacity="1.000000" fill-rule="nonzero"></path>
&#x9;&#x9;&#x9;</g>
&#x9;&#x9;&#x9;<g opacity="0.400000">
&#x9;&#x9;&#x9;&#x9;<path id="Vector" d="M100.34 86.46L123.4 73.28L124.47 73.89L101.42 87.06L100.34 86.46Z" fill="#A3CCC9" fill-opacity="1.000000" fill-rule="nonzero"></path>
&#x9;&#x9;&#x9;</g>
&#x9;&#x9;&#x9;<g opacity="0.400000">
&#x9;&#x9;&#x9;&#x9;<path id="Vector" d="M89.55 92.63L90.62 93.23L84.6 96.68L83.53 96.07L89.55 92.63Z" fill="#A3CCC9" fill-opacity="1.000000" fill-rule="nonzero"></path>
&#x9;&#x9;&#x9;</g>
&#x9;&#x9;&#x9;<g opacity="0.400000">
&#x9;&#x9;&#x9;&#x9;<path id="Vector" d="M118.12 79.69L126.54 74.87L127.62 75.48L119.19 80.29L118.12 79.69Z" fill="#A3CCC9" fill-opacity="1.000000" fill-rule="nonzero"></path>
&#x9;&#x9;&#x9;</g>
&#x9;&#x9;&#x9;<g opacity="0.400000">
&#x9;&#x9;&#x9;&#x9;<path id="Vector" d="M110.58 83.99L111.65 84.6L87.74 98.26L86.67 97.65L110.58 83.99Z" fill="#A3CCC9" fill-opacity="1.000000" fill-rule="nonzero"></path>
&#x9;&#x9;&#x9;</g>
&#x9;&#x9;&#x9;<g opacity="0.400000">
&#x9;&#x9;&#x9;&#x9;<path id="Vector" d="M91.02 98.93L130.9 76.15L131.98 76.75L92.09 99.54L91.02 98.93Z" fill="#A3CCC9" fill-opacity="1.000000" fill-rule="nonzero"></path>
&#x9;&#x9;&#x9;</g>
&#x9;&#x9;&#x9;<g opacity="0.400000">
&#x9;&#x9;&#x9;&#x9;<path id="Vector" d="M117.37 93.83L140.65 81.13L141.71 81.76L118.43 94.46L117.37 93.83Z" fill="#A3CCC9" fill-opacity="1.000000" fill-rule="nonzero"></path>
&#x9;&#x9;&#x9;</g>
&#x9;&#x9;&#x9;<g opacity="0.400000">
&#x9;&#x9;&#x9;&#x9;<path id="Vector" d="M106.47 99.78L107.52 100.42L101.45 103.74L100.39 103.1L106.47 99.78Z" fill="#A3CCC9" fill-opacity="1.000000" fill-rule="nonzero"></path>
&#x9;&#x9;&#x9;</g>
&#x9;&#x9;&#x9;<g opacity="0.400000">
&#x9;&#x9;&#x9;&#x9;<path id="Vector" d="M135.23 87.43L143.74 82.79L144.8 83.42L136.29 88.06L135.23 87.43Z" fill="#A3CCC9" fill-opacity="1.000000" fill-rule="nonzero"></path>
&#x9;&#x9;&#x9;</g>
&#x9;&#x9;&#x9;<g opacity="0.400000">
&#x9;&#x9;&#x9;&#x9;<path id="Vector" d="M127.62 91.58L128.68 92.22L104.53 105.39L103.48 104.75L127.62 91.58Z" fill="#A3CCC9" fill-opacity="1.000000" fill-rule="nonzero"></path>
&#x9;&#x9;&#x9;</g>
&#x9;&#x9;&#x9;<g opacity="0.400000">
&#x9;&#x9;&#x9;&#x9;<path id="Vector" d="M129.11 99.72L152.17 86.54L153.24 87.15L130.19 100.33L129.11 99.72Z" fill="#A3CCC9" fill-opacity="1.000000" fill-rule="nonzero"></path>
&#x9;&#x9;&#x9;</g>
&#x9;&#x9;&#x9;<g opacity="0.400000">
&#x9;&#x9;&#x9;&#x9;<path id="Vector" d="M118.31 105.89L119.38 106.49L113.37 109.94L112.3 109.32L118.31 105.89Z" fill="#A3CCC9" fill-opacity="1.000000" fill-rule="nonzero"></path>
&#x9;&#x9;&#x9;</g>
&#x9;&#x9;&#x9;<g opacity="0.400000">
&#x9;&#x9;&#x9;&#x9;<path id="Vector" d="M123.12 83.86L134.1 77.6L135.17 78.2L124.19 84.47L123.12 83.86Z" fill="#A3CCC9" fill-opacity="1.000000" fill-rule="nonzero"></path>
&#x9;&#x9;&#x9;</g>
&#x9;&#x9;&#x9;<g opacity="0.400000">
&#x9;&#x9;&#x9;&#x9;<path id="Vector" d="M119.1 87.39L108.2 93.62L107.12 93.01L118.02 86.78L119.1 87.39Z" fill="#A3CCC9" fill-opacity="1.000000" fill-rule="nonzero"></path>
&#x9;&#x9;&#x9;</g>
&#x9;&#x9;&#x9;<g opacity="0.400000">
&#x9;&#x9;&#x9;&#x9;<path id="Vector" d="M102.01 95.92L103.09 96.53L95.29 100.99L94.23 100.37L102.01 95.92Z" fill="#A3CCC9" fill-opacity="1.000000" fill-rule="nonzero"></path>
&#x9;&#x9;&#x9;</g>
&#x9;&#x9;&#x9;<g opacity="0.400000">
&#x9;&#x9;&#x9;&#x9;<path id="Vector" d="M113.45 92.64L136.5 79.46L137.57 80.07L114.52 93.24L113.45 92.64Z" fill="#A3CCC9" fill-opacity="1.000000" fill-rule="nonzero"></path>
&#x9;&#x9;&#x9;</g>
&#x9;&#x9;&#x9;<g opacity="0.400000">
&#x9;&#x9;&#x9;&#x9;<path id="Vector" d="M102.65 98.8L103.73 99.41L97.7 102.86L96.63 102.24L102.65 98.8Z" fill="#A3CCC9" fill-opacity="1.000000" fill-rule="nonzero"></path>
&#x9;&#x9;&#x9;</g>
&#x9;&#x9;</g>
&#x9;&#x9;<path id="Vector" d="M31.3 75C32.5 67.62 34.14 62.96 33.66 54.54L149.02 63.44C147.22 71.87 146.68 78.79 153.03 85.03L100.86 115.14L31.3 75Z" fill="#D0EAE7" fill-opacity="1.000000" fill-rule="nonzero"></path>
&#x9;&#x9;<path id="Vector" d="M99.78 90.92L149.02 63.44C149.15 71.87 149.14 79.73 153.03 85.03L100.86 115.14C98.08 105.72 98.41 99.88 99.78 90.92Z" fill="#A3CCC9" fill-opacity="1.000000" fill-rule="nonzero"></path>
&#x9;&#x9;<path id="Vector" d="M33.53 54.31C55.39 43.14 65.91 37.56 83.4 25.53L149.96 63.93L100.09 92.72L33.53 54.31Z" fill="#F0F9F8" fill-opacity="1.000000" fill-rule="nonzero"></path>
&#x9;&#x9;<g opacity="0.400000">
&#x9;&#x9;&#x9;<g opacity="0.400000">
&#x9;&#x9;&#x9;&#x9;<path id="Vector" d="M40.23 55.02L81.52 30.94L82.55 31.64L41.26 55.71L40.23 55.02Z" fill="#A3CCC9" fill-opacity="1.000000" fill-rule="nonzero"></path>
&#x9;&#x9;&#x9;</g>
&#x9;&#x9;&#x9;<g opacity="0.400000">
&#x9;&#x9;&#x9;&#x9;<path id="Vector" d="M73.24 39.24L84.61 32.62L85.63 33.31L74.26 39.94L73.24 39.24Z" fill="#A3CCC9" fill-opacity="1.000000" fill-rule="nonzero"></path>
&#x9;&#x9;&#x9;</g>
&#x9;&#x9;&#x9;<g opacity="0.400000">
&#x9;&#x9;&#x9;&#x9;<path id="Vector" d="M68.98 43.01L57.7 49.6L56.66 48.91L67.95 42.32L68.98 43.01Z" fill="#A3CCC9" fill-opacity="1.000000" fill-rule="nonzero"></path>
&#x9;&#x9;&#x9;</g>
&#x9;&#x9;&#x9;<g opacity="0.400000">
&#x9;&#x9;&#x9;&#x9;<path id="Vector" d="M51.37 51.98L52.41 52.68L44.34 57.38L43.32 56.69L51.37 51.98Z" fill="#A3CCC9" fill-opacity="1.000000" fill-rule="nonzero"></path>
&#x9;&#x9;&#x9;</g>
&#x9;&#x9;&#x9;<g opacity="0.400000">
&#x9;&#x9;&#x9;&#x9;<path id="Vector" d="M62.99 48.64L86.87 34.73L87.89 35.42L64.02 49.34L62.99 48.64Z" fill="#A3CCC9" fill-opacity="1.000000" fill-rule="nonzero"></path>
&#x9;&#x9;&#x9;</g>
&#x9;&#x9;&#x9;<g opacity="0.400000">
&#x9;&#x9;&#x9;&#x9;<path id="Vector" d="M51.81 55.16L52.83 55.86L46.6 59.49L45.57 58.8L51.81 55.16Z" fill="#A3CCC9" fill-opacity="1.000000" fill-rule="nonzero"></path>
&#x9;&#x9;&#x9;</g>
&#x9;&#x9;&#x9;<g opacity="0.400000">
&#x9;&#x9;&#x9;&#x9;<path id="Vector" d="M81.16 41.63L89.88 36.54L90.91 37.24L82.18 42.32L81.16 41.63Z" fill="#A3CCC9" fill-opacity="1.000000" fill-rule="nonzero"></path>
&#x9;&#x9;&#x9;</g>
&#x9;&#x9;&#x9;<g opacity="0.400000">
&#x9;&#x9;&#x9;&#x9;<path id="Vector" d="M73.35 46.18L74.37 46.87L49.61 61.31L48.59 60.62L73.35 46.18Z" fill="#A3CCC9" fill-opacity="1.000000" fill-rule="nonzero"></path>
&#x9;&#x9;&#x9;</g>
&#x9;&#x9;&#x9;<g opacity="0.400000">
&#x9;&#x9;&#x9;&#x9;<path id="Vector" d="M52.84 62.13L94.13 38.05L95.16 38.74L53.87 62.82L52.84 62.13Z" fill="#A3CCC9" fill-opacity="1.000000" fill-rule="nonzero"></path>
&#x9;&#x9;&#x9;</g>
&#x9;&#x9;&#x9;<g opacity="0.400000">
&#x9;&#x9;&#x9;&#x9;<path id="Vector" d="M85.85 46.34L97.21 39.72L98.24 40.41L86.87 47.03L85.85 46.34Z" fill="#A3CCC9" fill-opacity="1.000000" fill-rule="nonzero"></path>
&#x9;&#x9;&#x9;</g>
&#x9;&#x9;&#x9;<g opacity="0.400000">
&#x9;&#x9;&#x9;&#x9;<path id="Vector" d="M81.59 50.12L70.31 56.7L69.27 56.01L80.56 49.43L81.59 50.12Z" fill="#A3CCC9" fill-opacity="1.000000" fill-rule="nonzero"></path>
&#x9;&#x9;&#x9;</g>
&#x9;&#x9;&#x9;<g opacity="0.400000">
&#x9;&#x9;&#x9;&#x9;<path id="Vector" d="M63.99 59.09L65.02 59.79L56.94 64.48L55.92 63.79L63.99 59.09Z" fill="#A3CCC9" fill-opacity="1.000000" fill-rule="nonzero"></path>
&#x9;&#x9;&#x9;</g>
&#x9;&#x9;&#x9;<g opacity="0.400000">
&#x9;&#x9;&#x9;&#x9;<path id="Vector" d="M75.6 55.75L99.48 41.83L100.5 42.53L76.62 56.44L75.6 55.75Z" fill="#A3CCC9" fill-opacity="1.000000" fill-rule="nonzero"></path>
&#x9;&#x9;&#x9;</g>
&#x9;&#x9;&#x9;<g opacity="0.400000">
&#x9;&#x9;&#x9;&#x9;<path id="Vector" d="M64.42 62.27L65.44 62.96L59.21 66.6L58.18 65.9L64.42 62.27Z" fill="#A3CCC9" fill-opacity="1.000000" fill-rule="nonzero"></path>
&#x9;&#x9;&#x9;</g>
&#x9;&#x9;&#x9;<g opacity="0.400000">
&#x9;&#x9;&#x9;&#x9;<path id="Vector" d="M93.77 48.73L102.49 43.64L103.52 44.34L94.79 49.43L93.77 48.73Z" fill="#A3CCC9" fill-opacity="1.000000" fill-rule="nonzero"></path>
&#x9;&#x9;&#x9;</g>
&#x9;&#x9;&#x9;<g opacity="0.400000">
&#x9;&#x9;&#x9;&#x9;<path id="Vector" d="M85.96 53.29L86.99 53.98L62.22 68.41L61.2 67.72L85.96 53.29Z" fill="#A3CCC9" fill-opacity="1.000000" fill-rule="nonzero"></path>
&#x9;&#x9;&#x9;</g>
&#x9;&#x9;&#x9;<g opacity="0.400000">
&#x9;&#x9;&#x9;&#x9;<path id="Vector" d="M87.07 62.2L110.74 47.76L111.78 48.43L88.11 62.86L87.07 62.2Z" fill="#A3CCC9" fill-opacity="1.000000" fill-rule="nonzero"></path>
&#x9;&#x9;&#x9;</g>
&#x9;&#x9;&#x9;<g opacity="0.400000">
&#x9;&#x9;&#x9;&#x9;<path id="Vector" d="M75.98 68.95L77.02 69.62L70.84 73.39L69.8 72.72L75.98 68.95Z" fill="#A3CCC9" fill-opacity="1.000000" fill-rule="nonzero"></path>
&#x9;&#x9;&#x9;</g>
&#x9;&#x9;&#x9;<g opacity="0.400000">
&#x9;&#x9;&#x9;&#x9;<path id="Vector" d="M105.15 54.77L113.81 49.5L114.85 50.16L106.2 55.44L105.15 54.77Z" fill="#A3CCC9" fill-opacity="1.000000" fill-rule="nonzero"></path>
&#x9;&#x9;&#x9;</g>
&#x9;&#x9;&#x9;<g opacity="0.400000">
&#x9;&#x9;&#x9;&#x9;<path id="Vector" d="M97.42 59.49L98.46 60.16L73.91 75.12L72.86 74.46L97.42 59.49Z" fill="#A3CCC9" fill-opacity="1.000000" fill-rule="nonzero"></path>
&#x9;&#x9;&#x9;</g>
&#x9;&#x9;&#x9;<g opacity="0.400000">
&#x9;&#x9;&#x9;&#x9;<path id="Vector" d="M77.16 75.86L118.1 50.9L119.15 51.57L78.19 76.53L77.16 75.86Z" fill="#A3CCC9" fill-opacity="1.000000" fill-rule="nonzero"></path>
&#x9;&#x9;&#x9;</g>
&#x9;&#x9;&#x9;<g opacity="0.400000">
&#x9;&#x9;&#x9;&#x9;<path id="Vector" d="M103.74 70.28L127.62 56.36L128.65 57.05L104.77 70.98L103.74 70.28Z" fill="#A3CCC9" fill-opacity="1.000000" fill-rule="nonzero"></path>
&#x9;&#x9;&#x9;</g>
&#x9;&#x9;&#x9;<g opacity="0.400000">
&#x9;&#x9;&#x9;&#x9;<path id="Vector" d="M92.56 76.8L93.59 77.5L87.35 81.13L86.33 80.43L92.56 76.8Z" fill="#A3CCC9" fill-opacity="1.000000" fill-rule="nonzero"></path>
&#x9;&#x9;&#x9;</g>
&#x9;&#x9;&#x9;<g opacity="0.400000">
&#x9;&#x9;&#x9;&#x9;<path id="Vector" d="M121.91 63.26L130.63 58.18L131.66 58.87L122.93 63.96L121.91 63.26Z" fill="#A3CCC9" fill-opacity="1.000000" fill-rule="nonzero"></path>
&#x9;&#x9;&#x9;</g>
&#x9;&#x9;&#x9;<g opacity="0.400000">
&#x9;&#x9;&#x9;&#x9;<path id="Vector" d="M114.1 67.81L115.13 68.5L90.37 82.94L89.34 82.25L114.1 67.81Z" fill="#A3CCC9" fill-opacity="1.000000" fill-rule="nonzero"></path>
&#x9;&#x9;&#x9;</g>
&#x9;&#x9;&#x9;<g opacity="0.400000">
&#x9;&#x9;&#x9;&#x9;<path id="Vector" d="M115.21 76.72L138.88 62.29L139.93 62.96L116.25 77.39L115.21 76.72Z" fill="#A3CCC9" fill-opacity="1.000000" fill-rule="nonzero"></path>
&#x9;&#x9;&#x9;</g>
&#x9;&#x9;&#x9;<g opacity="0.400000">
&#x9;&#x9;&#x9;&#x9;<path id="Vector" d="M104.12 83.49L105.16 84.15L98.98 87.92L97.94 87.26L104.12 83.49Z" fill="#A3CCC9" fill-opacity="1.000000" fill-rule="nonzero"></path>
&#x9;&#x9;&#x9;</g>
&#x9;&#x9;&#x9;<g opacity="0.400000">
&#x9;&#x9;&#x9;&#x9;<path id="Vector" d="M109.97 59.36L121.24 52.48L122.28 53.15L111.01 60.02L109.97 59.36Z" fill="#A3CCC9" fill-opacity="1.000000" fill-rule="nonzero"></path>
&#x9;&#x9;&#x9;</g>
&#x9;&#x9;&#x9;<g opacity="0.400000">
&#x9;&#x9;&#x9;&#x9;<path id="Vector" d="M105.77 63.22L94.58 70.04L93.53 69.38L104.72 62.55L105.77 63.22Z" fill="#A3CCC9" fill-opacity="1.000000" fill-rule="nonzero"></path>
&#x9;&#x9;&#x9;</g>
&#x9;&#x9;&#x9;<g opacity="0.400000">
&#x9;&#x9;&#x9;&#x9;<path id="Vector" d="M88.29 72.57L89.33 73.23L81.33 78.12L80.28 77.44L88.29 72.57Z" fill="#A3CCC9" fill-opacity="1.000000" fill-rule="nonzero"></path>
&#x9;&#x9;&#x9;</g>
&#x9;&#x9;&#x9;<g opacity="0.400000">
&#x9;&#x9;&#x9;&#x9;<path id="Vector" d="M99.87 68.97L123.55 54.54L124.59 55.2L100.92 69.64L99.87 68.97Z" fill="#A3CCC9" fill-opacity="1.000000" fill-rule="nonzero"></path>
&#x9;&#x9;&#x9;</g>
&#x9;&#x9;&#x9;<g opacity="0.400000">
&#x9;&#x9;&#x9;&#x9;<path id="Vector" d="M88.78 75.73L89.83 76.39L83.65 80.16L82.6 79.49L88.78 75.73Z" fill="#A3CCC9" fill-opacity="1.000000" fill-rule="nonzero"></path>
&#x9;&#x9;&#x9;</g>
&#x9;&#x9;</g>
&#x9;&#x9;<path id="Vector" d="M105.81 89.4L149.93 63.93L93.68 31.46L42.32 56.78C66.87 68.18 90 79.13 105.81 89.4Z" fill="#D0EAE7" fill-opacity="1.000000" fill-rule="nonzero"></path>
&#x9;&#x9;<path id="Vector" d="M42.25 56.68L93.9 29.6C120.07 43.64 141.28 56.3 162.85 63.71L111.21 90.78C95.21 80 69.57 68.59 42.25 56.68Z" fill="#F0F9F8" fill-opacity="1.000000" fill-rule="nonzero"></path>
&#x9;&#x9;<path id="Vector" d="M69.7 81.74L30 61.52L33.89 58.97L69.7 81.74Z" fill="#F0F9F8" fill-opacity="1.000000" fill-rule="nonzero"></path>
&#x9;&#x9;<g opacity="0.500000">
&#x9;&#x9;&#x9;<path id="Vector" d="M111.34 99.57L99.36 107.36L89.92 100.47L98.31 103.62L111.34 99.57Z" fill="#F0F9F8" fill-opacity="1.000000" fill-rule="nonzero"></path>
&#x9;&#x9;</g>
&#x9;&#x9;<g opacity="0.100000">
&#x9;&#x9;&#x9;<path id="Vector" d="M121.83 94.48L147.75 81.29L139.96 88.18L121.83 94.48Z" fill="#F0F9F8" fill-opacity="1.000000" fill-rule="nonzero"></path>
&#x9;&#x9;</g>
&#x9;&#x9;<g opacity="0.500000">
&#x9;&#x9;&#x9;<path id="Vector" d="M92.17 97.47L65.96 86.23L48.27 75L92.17 97.47Z" fill="#F0F9F8" fill-opacity="1.000000" fill-rule="nonzero"></path>
&#x9;&#x9;</g>
&#x9;&#x9;<g opacity="0.400000">
&#x9;&#x9;&#x9;<g opacity="0.400000">
&#x9;&#x9;&#x9;&#x9;<path id="Vector" d="M53.2 56.1L93.46 34.13L94.52 34.77L54.26 56.73L53.2 56.1Z" fill="#A3CCC9" fill-opacity="1.000000" fill-rule="nonzero"></path>
&#x9;&#x9;&#x9;</g>
&#x9;&#x9;&#x9;<g opacity="0.400000">
&#x9;&#x9;&#x9;&#x9;<path id="Vector" d="M85.54 41.7L96.62 35.65L97.67 36.29L86.6 42.33L85.54 41.7Z" fill="#A3CCC9" fill-opacity="1.000000" fill-rule="nonzero"></path>
&#x9;&#x9;&#x9;</g>
&#x9;&#x9;&#x9;<g opacity="0.400000">
&#x9;&#x9;&#x9;&#x9;<path id="Vector" d="M81.44 45.14L70.44 51.15L69.37 50.51L80.38 44.51L81.44 45.14Z" fill="#A3CCC9" fill-opacity="1.000000" fill-rule="nonzero"></path>
&#x9;&#x9;&#x9;</g>
&#x9;&#x9;&#x9;<g opacity="0.400000">
&#x9;&#x9;&#x9;&#x9;<path id="Vector" d="M64.22 53.33L65.28 53.96L57.41 58.26L56.36 57.62L64.22 53.33Z" fill="#A3CCC9" fill-opacity="1.000000" fill-rule="nonzero"></path>
&#x9;&#x9;&#x9;</g>
&#x9;&#x9;&#x9;<g opacity="0.400000">
&#x9;&#x9;&#x9;&#x9;<path id="Vector" d="M75.69 50.28L98.98 37.58L100.03 38.21L76.75 50.91L75.69 50.28Z" fill="#A3CCC9" fill-opacity="1.000000" fill-rule="nonzero"></path>
&#x9;&#x9;&#x9;</g>
&#x9;&#x9;&#x9;<g opacity="0.400000">
&#x9;&#x9;&#x9;&#x9;<path id="Vector" d="M64.79 56.24L65.85 56.87L59.77 60.18L58.71 59.55L64.79 56.24Z" fill="#A3CCC9" fill-opacity="1.000000" fill-rule="nonzero"></path>
&#x9;&#x9;&#x9;</g>
&#x9;&#x9;&#x9;<g opacity="0.400000">
&#x9;&#x9;&#x9;&#x9;<path id="Vector" d="M93.56 43.88L102.06 39.24L103.12 39.87L94.61 44.52L93.56 43.88Z" fill="#A3CCC9" fill-opacity="1.000000" fill-rule="nonzero"></path>
&#x9;&#x9;&#x9;</g>
&#x9;&#x9;&#x9;<g opacity="0.400000">
&#x9;&#x9;&#x9;&#x9;<path id="Vector" d="M85.94 48.03L87 48.66L62.85 61.84L61.8 61.2L85.94 48.03Z" fill="#A3CCC9" fill-opacity="1.000000" fill-rule="nonzero"></path>
&#x9;&#x9;&#x9;</g>
&#x9;&#x9;&#x9;<g opacity="0.400000">
&#x9;&#x9;&#x9;&#x9;<path id="Vector" d="M66.12 62.58L106.38 40.61L107.44 41.24L67.17 63.22L66.12 62.58Z" fill="#A3CCC9" fill-opacity="1.000000" fill-rule="nonzero"></path>
&#x9;&#x9;&#x9;</g>
&#x9;&#x9;&#x9;<g opacity="0.400000">
&#x9;&#x9;&#x9;&#x9;<path id="Vector" d="M98.45 48.18L109.53 42.14L110.59 42.77L99.51 48.82L98.45 48.18Z" fill="#A3CCC9" fill-opacity="1.000000" fill-rule="nonzero"></path>
&#x9;&#x9;&#x9;</g>
&#x9;&#x9;&#x9;<g opacity="0.400000">
&#x9;&#x9;&#x9;&#x9;<path id="Vector" d="M94.35 51.63L83.35 57.63L82.29 57L93.3 50.99L94.35 51.63Z" fill="#A3CCC9" fill-opacity="1.000000" fill-rule="nonzero"></path>
&#x9;&#x9;&#x9;</g>
&#x9;&#x9;&#x9;<g opacity="0.400000">
&#x9;&#x9;&#x9;&#x9;<path id="Vector" d="M77.14 59.82L78.19 60.45L70.33 64.74L69.26 64.11L77.14 59.82Z" fill="#A3CCC9" fill-opacity="1.000000" fill-rule="nonzero"></path>
&#x9;&#x9;&#x9;</g>
&#x9;&#x9;&#x9;<g opacity="0.400000">
&#x9;&#x9;&#x9;&#x9;<path id="Vector" d="M88.6 56.77L111.88 44.07L112.94 44.7L89.66 57.4L88.6 56.77Z" fill="#A3CCC9" fill-opacity="1.000000" fill-rule="nonzero"></path>
&#x9;&#x9;&#x9;</g>
&#x9;&#x9;&#x9;<g opacity="0.400000">
&#x9;&#x9;&#x9;&#x9;<path id="Vector" d="M77.7 62.71L78.76 63.35L72.67 66.67L71.62 66.03L77.7 62.71Z" fill="#A3CCC9" fill-opacity="1.000000" fill-rule="nonzero"></path>
&#x9;&#x9;&#x9;</g>
&#x9;&#x9;&#x9;<g opacity="0.400000">
&#x9;&#x9;&#x9;&#x9;<path id="Vector" d="M106.47 50.36L114.97 45.72L116.04 46.35L107.53 51L106.47 50.36Z" fill="#A3CCC9" fill-opacity="1.000000" fill-rule="nonzero"></path>
&#x9;&#x9;&#x9;</g>
&#x9;&#x9;&#x9;<g opacity="0.400000">
&#x9;&#x9;&#x9;&#x9;<path id="Vector" d="M98.86 54.51L99.92 55.15L75.77 68.32L74.72 67.69L98.86 54.51Z" fill="#A3CCC9" fill-opacity="1.000000" fill-rule="nonzero"></path>
&#x9;&#x9;&#x9;</g>
&#x9;&#x9;&#x9;<g opacity="0.400000">
&#x9;&#x9;&#x9;&#x9;<path id="Vector" d="M100.34 62.65L123.4 49.47L124.47 50.09L101.42 63.26L100.34 62.65Z" fill="#A3CCC9" fill-opacity="1.000000" fill-rule="nonzero"></path>
&#x9;&#x9;&#x9;</g>
&#x9;&#x9;&#x9;<g opacity="0.400000">
&#x9;&#x9;&#x9;&#x9;<path id="Vector" d="M89.55 68.82L90.62 69.42L84.6 72.87L83.53 72.26L89.55 68.82Z" fill="#A3CCC9" fill-opacity="1.000000" fill-rule="nonzero"></path>
&#x9;&#x9;&#x9;</g>
&#x9;&#x9;&#x9;<g opacity="0.400000">
&#x9;&#x9;&#x9;&#x9;<path id="Vector" d="M118.12 55.88L126.54 51.06L127.62 51.67L119.19 56.48L118.12 55.88Z" fill="#A3CCC9" fill-opacity="1.000000" fill-rule="nonzero"></path>
&#x9;&#x9;&#x9;</g>
&#x9;&#x9;&#x9;<g opacity="0.400000">
&#x9;&#x9;&#x9;&#x9;<path id="Vector" d="M110.58 60.18L111.65 60.79L87.74 74.45L86.67 73.84L110.58 60.18Z" fill="#A3CCC9" fill-opacity="1.000000" fill-rule="nonzero"></path>
&#x9;&#x9;&#x9;</g>
&#x9;&#x9;&#x9;<g opacity="0.400000">
&#x9;&#x9;&#x9;&#x9;<path id="Vector" d="M91.02 75.12L130.9 52.34L131.98 52.94L92.09 75.73L91.02 75.12Z" fill="#A3CCC9" fill-opacity="1.000000" fill-rule="nonzero"></path>
&#x9;&#x9;&#x9;</g>
&#x9;&#x9;&#x9;<g opacity="0.400000">
&#x9;&#x9;&#x9;&#x9;<path id="Vector" d="M117.37 70.02L140.65 57.32L141.71 57.95L118.43 70.66L117.37 70.02Z" fill="#A3CCC9" fill-opacity="1.000000" fill-rule="nonzero"></path>
&#x9;&#x9;&#x9;</g>
&#x9;&#x9;&#x9;<g opacity="0.400000">
&#x9;&#x9;&#x9;&#x9;<path id="Vector" d="M106.47 75.97L107.52 76.61L101.45 79.93L100.39 79.29L106.47 75.97Z" fill="#A3CCC9" fill-opacity="1.000000" fill-rule="nonzero"></path>
&#x9;&#x9;&#x9;</g>
&#x9;&#x9;&#x9;<g opacity="0.400000">
&#x9;&#x9;&#x9;&#x9;<path id="Vector" d="M135.23 63.62L143.74 58.98L144.8 59.61L136.29 64.26L135.23 63.62Z" fill="#A3CCC9" fill-opacity="1.000000" fill-rule="nonzero"></path>
&#x9;&#x9;&#x9;</g>
&#x9;&#x9;&#x9;<g opacity="0.400000">
&#x9;&#x9;&#x9;&#x9;<path id="Vector" d="M127.62 67.77L128.68 68.41L104.53 81.58L103.48 80.94L127.62 67.77Z" fill="#A3CCC9" fill-opacity="1.000000" fill-rule="nonzero"></path>
&#x9;&#x9;&#x9;</g>
&#x9;&#x9;&#x9;<g opacity="0.400000">
&#x9;&#x9;&#x9;&#x9;<path id="Vector" d="M129.11 75.91L152.17 62.74L153.24 63.35L130.19 76.52L129.11 75.91Z" fill="#A3CCC9" fill-opacity="1.000000" fill-rule="nonzero"></path>
&#x9;&#x9;&#x9;</g>
&#x9;&#x9;&#x9;<g opacity="0.400000">
&#x9;&#x9;&#x9;&#x9;<path id="Vector" d="M118.31 82.08L119.38 82.68L113.37 86.13L112.3 85.51L118.31 82.08Z" fill="#A3CCC9" fill-opacity="1.000000" fill-rule="nonzero"></path>
&#x9;&#x9;&#x9;</g>
&#x9;&#x9;&#x9;<g opacity="0.400000">
&#x9;&#x9;&#x9;&#x9;<path id="Vector" d="M123.12 60.06L134.1 53.79L135.17 54.39L124.19 60.66L123.12 60.06Z" fill="#A3CCC9" fill-opacity="1.000000" fill-rule="nonzero"></path>
&#x9;&#x9;&#x9;</g>
&#x9;&#x9;&#x9;<g opacity="0.400000">
&#x9;&#x9;&#x9;&#x9;<path id="Vector" d="M119.1 63.58L108.2 69.81L107.12 69.2L118.02 62.97L119.1 63.58Z" fill="#A3CCC9" fill-opacity="1.000000" fill-rule="nonzero"></path>
&#x9;&#x9;&#x9;</g>
&#x9;&#x9;&#x9;<g opacity="0.400000">
&#x9;&#x9;&#x9;&#x9;<path id="Vector" d="M102.01 72.11L103.09 72.72L95.29 77.18L94.23 76.56L102.01 72.11Z" fill="#A3CCC9" fill-opacity="1.000000" fill-rule="nonzero"></path>
&#x9;&#x9;&#x9;</g>
&#x9;&#x9;&#x9;<g opacity="0.400000">
&#x9;&#x9;&#x9;&#x9;<path id="Vector" d="M113.45 68.83L136.5 55.66L137.57 56.26L114.52 69.43L113.45 68.83Z" fill="#A3CCC9" fill-opacity="1.000000" fill-rule="nonzero"></path>
&#x9;&#x9;&#x9;</g>
&#x9;&#x9;&#x9;<g opacity="0.400000">
&#x9;&#x9;&#x9;&#x9;<path id="Vector" d="M102.65 75L103.73 75.6L97.7 79.05L96.63 78.43L102.65 75Z" fill="#A3CCC9" fill-opacity="1.000000" fill-rule="nonzero"></path>
&#x9;&#x9;&#x9;</g>
&#x9;&#x9;</g>
&#x9;&#x9;<path id="Vector" d="M31.3 51.87C32.5 44.48 34.14 39.82 33.66 31.41L149.02 40.33C147.22 48.76 146.68 55.7 153.03 61.92L100.86 92.03L31.3 51.87Z" fill="#D0EAE7" fill-opacity="1.000000" fill-rule="nonzero"></path>
&#x9;&#x9;<path id="Vector" d="M99.78 67.79L149.02 40.33C149.15 48.76 149.14 56.62 153.03 61.92L100.86 92.03C98.08 82.56 98.41 76.74 99.78 67.79Z" fill="#A3CCC9" fill-opacity="1.000000" fill-rule="nonzero"></path>
&#x9;&#x9;<path id="Vector" d="M33.53 31.17C55.39 20.01 65.91 14.42 83.4 2.38L149.96 40.79L100.09 69.57L33.53 31.17Z" fill="#F0F9F8" fill-opacity="1.000000" fill-rule="nonzero"></path>
&#x9;&#x9;<path id="Vector" d="M105.81 66.26L149.93 40.78L93.68 8.31L42.32 33.64C66.87 45.04 90 55.99 105.81 66.26Z" fill="#D0EAE7" fill-opacity="1.000000" fill-rule="nonzero"></path>
&#x9;&#x9;<path id="Vector" d="M42.25 33.53L93.9 6.46C120.07 20.5 141.28 33.17 162.85 40.57L111.21 67.64C95.21 56.86 69.57 45.45 42.25 33.53Z" fill="#F4F9F7" fill-opacity="1.000000" fill-rule="nonzero"></path>
&#x9;&#x9;<g opacity="0.400000">
&#x9;&#x9;&#x9;<path id="Vector" d="M51.99 32.96L92.25 11L93.32 11.63L53.06 33.6L51.99 32.96Z" fill="#A3CCC9" fill-opacity="1.000000" fill-rule="nonzero"></path>
&#x9;&#x9;</g>
&#x9;&#x9;<g opacity="0.400000">
&#x9;&#x9;&#x9;<path id="Vector" d="M80.24 22.01L69.23 28.01L68.17 27.38L79.18 21.37L80.24 22.01Z" fill="#A3CCC9" fill-opacity="1.000000" fill-rule="nonzero"></path>
&#x9;&#x9;</g>
&#x9;&#x9;<g opacity="0.400000">
&#x9;&#x9;&#x9;<path id="Vector" d="M63.01 30.2L64.08 30.83L56.21 35.12L55.15 34.49L63.01 30.2Z" fill="#A3CCC9" fill-opacity="1.000000" fill-rule="nonzero"></path>
&#x9;&#x9;</g>
&#x9;&#x9;<g opacity="0.400000">
&#x9;&#x9;&#x9;<path id="Vector" d="M63.58 33.1L64.64 33.73L58.56 37.04L57.5 36.41L63.58 33.1Z" fill="#A3CCC9" fill-opacity="1.000000" fill-rule="nonzero"></path>
&#x9;&#x9;</g>
&#x9;&#x9;<g opacity="0.400000">
&#x9;&#x9;&#x9;<path id="Vector" d="M84.73 24.89L85.8 25.53L61.64 38.71L60.59 38.07L84.73 24.89Z" fill="#A3CCC9" fill-opacity="1.000000" fill-rule="nonzero"></path>
&#x9;&#x9;</g>
&#x9;&#x9;<g opacity="0.400000">
&#x9;&#x9;&#x9;<path id="Vector" d="M75.93 36.68L76.98 37.31L69.12 41.6L68.06 40.98L75.93 36.68Z" fill="#A3CCC9" fill-opacity="1.000000" fill-rule="nonzero"></path>
&#x9;&#x9;</g>
&#x9;&#x9;<g opacity="0.400000">
&#x9;&#x9;&#x9;<path id="Vector" d="M76.5 39.58L77.55 40.22L71.47 43.54L70.41 42.9L76.5 39.58Z" fill="#A3CCC9" fill-opacity="1.000000" fill-rule="nonzero"></path>
&#x9;&#x9;</g>
&#x9;&#x9;<g opacity="0.400000">
&#x9;&#x9;&#x9;<path id="Vector" d="M97.65 31.38L98.71 32.02L74.56 45.18L73.51 44.55L97.65 31.38Z" fill="#A3CCC9" fill-opacity="1.000000" fill-rule="nonzero"></path>
&#x9;&#x9;</g>
&#x9;&#x9;<g opacity="0.400000">
&#x9;&#x9;&#x9;<path id="Vector" d="M88.34 45.69L89.41 46.29L83.39 49.74L82.32 49.12L88.34 45.69Z" fill="#A3CCC9" fill-opacity="1.000000" fill-rule="nonzero"></path>
&#x9;&#x9;</g>
&#x9;&#x9;<g opacity="0.400000">
&#x9;&#x9;&#x9;<path id="Vector" d="M109.37 37.04L110.44 37.66L86.53 51.32L85.46 50.71L109.37 37.04Z" fill="#A3CCC9" fill-opacity="1.000000" fill-rule="nonzero"></path>
&#x9;&#x9;</g>
&#x9;&#x9;<g opacity="0.400000">
&#x9;&#x9;&#x9;<path id="Vector" d="M100.81 48.98L101.88 49.59L94.08 54.04L93.02 53.43L100.81 48.98Z" fill="#A3CCC9" fill-opacity="1.000000" fill-rule="nonzero"></path>
&#x9;&#x9;</g>
&#x9;&#x9;<g opacity="0.400000">
&#x9;&#x9;&#x9;<path id="Vector" d="M101.44 51.86L102.52 52.47L96.49 55.91L95.42 55.3L101.44 51.86Z" fill="#A3CCC9" fill-opacity="1.000000" fill-rule="nonzero"></path>
&#x9;&#x9;</g>
&#x9;&#x9;<path id="Vector" d="M69.7 58.6L30 38.37L33.89 35.83L69.7 58.6Z" fill="#F0F9F8" fill-opacity="1.000000" fill-rule="nonzero"></path>
&#x9;&#x9;<g opacity="0.500000">
&#x9;&#x9;&#x9;<path id="Vector" d="M111.34 76.43L99.36 84.22L89.92 77.33L98.31 80.48L111.34 76.43Z" fill="#F0F9F8" fill-opacity="1.000000" fill-rule="nonzero"></path>
&#x9;&#x9;</g>
&#x9;&#x9;<g opacity="0.100000">
&#x9;&#x9;&#x9;<path id="Vector" d="M121.83 71.34L147.75 58.15L139.96 65.04L121.83 71.34Z" fill="#F0F9F8" fill-opacity="1.000000" fill-rule="nonzero"></path>
&#x9;&#x9;</g>
&#x9;&#x9;<g opacity="0.500000">
&#x9;&#x9;&#x9;<path id="Vector" d="M92.17 74.33L65.96 63.1L48.27 51.85L92.17 74.33Z" fill="#F0F9F8" fill-opacity="1.000000" fill-rule="nonzero"></path>
&#x9;&#x9;</g>
&#x9;&#x9;<path id="Vector" d="M104.83 45.93L103 46.36L104.46 45.19L104.83 45.93Z" fill="#B8D6D3" fill-opacity="1.000000" fill-rule="nonzero"></path>
&#x9;&#x9;<path id="Vector" d="M109.1 41.45L110.62 44.58L104.84 45.92C104.81 45.92 104.77 45.92 104.74 45.92C104.71 45.91 104.68 45.9 104.66 45.88C104.58 45.81 104.51 45.73 104.46 45.64C104.42 45.55 104.39 45.45 104.4 45.34C104.4 45.31 104.41 45.28 104.43 45.25C104.45 45.22 104.48 45.2 104.5 45.18L109.1 41.45Z" fill="#E0F3F1" fill-opacity="1.000000" fill-rule="nonzero"></path>
&#x9;&#x9;<path id="Vector" d="M163.03 15.17L164.57 18.33L110.77 44.55C110.62 44.61 110.47 44.62 110.31 44.6C110.16 44.57 110.02 44.5 109.9 44.4C109.56 44.14 109.28 43.81 109.09 43.42C108.9 43.03 108.81 42.61 108.81 42.18C108.81 42.02 108.85 41.87 108.93 41.74C109 41.6 109.1 41.49 109.23 41.4L163.03 15.17Z" fill="#ACCBC8" fill-opacity="1.000000" fill-rule="nonzero"></path>
&#x9;&#x9;<path id="Vector" d="M142.18 28.91L141.72 28.59L155.99 21.65L156.46 21.97L142.18 28.91Z" fill="#B8D6D3" fill-opacity="1.000000" fill-rule="nonzero"></path>
&#x9;&#x9;<path id="Vector" d="M157.08 21.67L156.6 21.35L160.09 19.65L160.57 19.97L157.08 21.67Z" fill="#B8D6D3" fill-opacity="1.000000" fill-rule="nonzero"></path>
&#x9;&#x9;<path id="Vector" d="M162.61 15.94C162.61 16.37 162.7 16.8 162.89 17.19C163.08 17.58 163.36 17.92 163.7 18.18C164.35 18.62 164.93 18.34 164.99 17.55C164.99 17.12 164.9 16.69 164.71 16.31C164.52 15.92 164.24 15.58 163.9 15.32C163.24 14.88 162.67 15.16 162.61 15.94Z" fill="#B8D6D3" fill-opacity="1.000000" fill-rule="nonzero"></path>
&#x9;&#x9;<path id="Vector" d="M163.43 16.49C163.43 16.63 163.46 16.76 163.51 16.88C163.57 17 163.66 17.11 163.76 17.19C163.97 17.33 164.15 17.24 164.17 16.99C164.17 16.86 164.14 16.73 164.08 16.61C164.02 16.49 163.94 16.39 163.83 16.31C163.63 16.17 163.45 16.26 163.43 16.49Z" fill="#B8D6D3" fill-opacity="1.000000" fill-rule="nonzero"></path>
&#x9;&#x9;<path id="Vector" d="M167.43 12.66L169.25 16.41L164.57 18.68C164.4 18.75 164.21 18.77 164.03 18.74C163.85 18.7 163.68 18.62 163.54 18.5C163.13 18.19 162.8 17.79 162.57 17.33C162.35 16.87 162.24 16.37 162.25 15.85C162.24 15.67 162.28 15.49 162.37 15.33C162.45 15.17 162.58 15.03 162.74 14.94L167.43 12.66Z" fill="#B8D6D3" fill-opacity="1.000000" fill-rule="nonzero"></path>
&#x9;&#x9;<path id="Vector" d="M166.93 13.59C166.92 14.1 167.03 14.6 167.26 15.06C167.48 15.52 167.81 15.93 168.22 16.23C169.01 16.77 169.68 16.43 169.75 15.49C169.76 14.98 169.65 14.47 169.42 14.01C169.2 13.55 168.87 13.15 168.46 12.84C167.68 12.32 166.97 12.63 166.93 13.59Z" fill="#E0F3F1" fill-opacity="1.000000" fill-rule="nonzero"></path>
&#x9;&#x9;<path id="Vector" d="M166.45 13.82C166.44 14.34 166.55 14.84 166.77 15.3C167 15.76 167.33 16.16 167.74 16.47C167.88 16.59 168.05 16.67 168.23 16.7C168.41 16.74 168.6 16.72 168.77 16.65L168.28 16.89C168.11 16.96 167.93 16.97 167.74 16.94C167.56 16.91 167.39 16.83 167.25 16.71C166.84 16.4 166.51 16 166.29 15.54C166.07 15.08 165.95 14.57 165.96 14.06C165.96 13.88 166 13.7 166.09 13.54C166.18 13.38 166.31 13.25 166.46 13.15L166.95 12.91C166.79 13 166.66 13.14 166.57 13.3C166.48 13.46 166.44 13.64 166.45 13.82Z" fill="#D8EDEB" fill-opacity="1.000000" fill-rule="nonzero"></path>
&#x9;&#x9;<path id="Vector" d="M165.37 14.34C165.36 14.85 165.48 15.36 165.7 15.82C165.92 16.28 166.25 16.68 166.66 16.99C166.8 17.11 166.97 17.19 167.15 17.22C167.33 17.25 167.52 17.24 167.69 17.17L167.2 17.4C167.03 17.47 166.84 17.49 166.66 17.46C166.48 17.42 166.31 17.34 166.17 17.22C165.76 16.92 165.43 16.52 165.2 16.06C164.98 15.59 164.87 15.09 164.88 14.58C164.87 14.39 164.91 14.21 165 14.05C165.09 13.88 165.22 13.75 165.37 13.65L165.87 13.42C165.71 13.52 165.58 13.65 165.49 13.82C165.41 13.98 165.36 14.16 165.37 14.34Z" fill="#D8EDEB" fill-opacity="1.000000" fill-rule="nonzero"></path>
&#x9;&#x9;<path id="Vector" d="M164.3 14.87C164.29 15.38 164.4 15.89 164.63 16.35C164.85 16.81 165.18 17.21 165.59 17.52C165.73 17.64 165.9 17.72 166.08 17.75C166.26 17.78 166.45 17.76 166.62 17.69L166.14 17.93C165.96 18 165.78 18.02 165.6 17.99C165.41 17.96 165.24 17.88 165.1 17.76C164.69 17.45 164.36 17.05 164.14 16.59C163.91 16.13 163.8 15.62 163.81 15.1C163.81 14.92 163.85 14.74 163.94 14.58C164.03 14.42 164.16 14.29 164.31 14.2L164.8 13.95C164.65 14.05 164.52 14.18 164.43 14.34C164.34 14.5 164.3 14.68 164.3 14.87Z" fill="#D8EDEB" fill-opacity="1.000000" fill-rule="nonzero"></path>
&#x9;&#x9;<path id="Vector" d="M163.24 15.38C163.22 15.89 163.33 16.4 163.56 16.86C163.78 17.33 164.11 17.73 164.52 18.04C164.66 18.16 164.83 18.24 165.01 18.27C165.19 18.3 165.38 18.28 165.55 18.22L165.06 18.45C164.89 18.52 164.7 18.55 164.52 18.51C164.33 18.48 164.16 18.4 164.03 18.27C163.62 17.96 163.29 17.56 163.06 17.1C162.84 16.65 162.73 16.14 162.73 15.63C162.73 15.44 162.77 15.26 162.86 15.1C162.95 14.93 163.08 14.8 163.23 14.7L163.73 14.47C163.57 14.56 163.44 14.69 163.36 14.86C163.27 15.02 163.23 15.2 163.24 15.38Z" fill="#D8EDEB" fill-opacity="1.000000" fill-rule="nonzero"></path>
&#x9;&#x9;<path id="Vector" d="M171.52 11.01L173.06 14.17L169.1 16.11C168.96 16.16 168.8 16.18 168.65 16.15C168.5 16.12 168.35 16.06 168.23 15.96C167.89 15.7 167.61 15.36 167.42 14.97C167.23 14.58 167.14 14.16 167.15 13.72C167.14 13.57 167.17 13.42 167.25 13.28C167.32 13.15 167.43 13.03 167.56 12.96L171.52 11.01Z" fill="#B8D6D3" fill-opacity="1.000000" fill-rule="nonzero"></path>
&#x9;&#x9;<path id="Vector" d="M171.13 11.81C171.12 12.24 171.22 12.66 171.41 13.05C171.6 13.44 171.87 13.77 172.21 14.03C172.87 14.48 173.45 14.2 173.5 13.41C173.51 12.98 173.41 12.55 173.23 12.16C173.04 11.77 172.76 11.43 172.42 11.17C171.77 10.73 171.18 11.02 171.13 11.81Z" fill="#D8EDEB" fill-opacity="1.000000" fill-rule="nonzero"></path>
&#x9;</g>
</svg>