<svg width="195.000000" height="140.000000" viewBox="0 0 195 140" fill="none" xmlns="http://www.w3.org/2000/svg" xmlns:xlink="http://www.w3.org/1999/xlink">
&#x9;<desc>
&#x9;&#x9;&#x9;Created with Pixso.
&#x9;</desc>
&#x9;<defs>
&#x9;&#x9;<clipPath id="clip201_7314">
&#x9;&#x9;&#x9;<rect id="possible-deals" width="195.000000" height="140.000000" fill="white" fill-opacity="0"></rect>
&#x9;&#x9;</clipPath>
&#x9;</defs>
&#x9;<g clip-path="url(#clip201_7314)">
&#x9;&#x9;<path id="Vector 2123" d="M168.5 92.5L94.5 49.5L30.5 79.5L106.5 121.5L168.5 92.5Z" fill="#8FC2BE" fill-opacity="1.000000" fill-rule="evenodd"></path>
&#x9;&#x9;<path id="polygon" d="M93.09 33L172 78.38L172 98.59L93.09 53.23L93.09 33Z" fill="#B5D8D6" fill-opacity="1.000000" fill-rule="nonzero"></path>
&#x9;&#x9;<path id="polygon" d="M41.66 62.57L45.25 66.71L72.06 51.3L75.65 43.03L93.09 33L93.09 53.22L24.23 92.82L24.23 72.59L41.66 62.57Z" fill="#A3CCC9" fill-opacity="1.000000" fill-rule="nonzero"></path>
&#x9;&#x9;<path id="Cube_face_-_left" d="M104.05 109.6L36.07 70.61L36.07 64.43L104.05 103.41L104.05 109.6Z" fill="#D8EDEB" fill-opacity="1.000000" fill-rule="nonzero"></path>
&#x9;&#x9;<path id="Cube_face_-_left" d="M104.05 118.6L36.07 79.61L36.07 69.43L104.05 108.41L104.05 118.6Z" fill="#D8EDEB" fill-opacity="1.000000" fill-rule="nonzero"></path>
&#x9;&#x9;<path id="Vector" d="M69.17 92.72L32.91 74.25L36.47 71.92L69.17 92.72Z" fill="#F0F9F8" fill-opacity="1.000000" fill-rule="nonzero"></path>
&#x9;&#x9;<g opacity="0.500000">
&#x9;&#x9;&#x9;<path id="Vector" d="M100.76 107.61L80.77 98.37L67.4 89.38L100.76 107.61Z" fill="#F0F9F8" fill-opacity="1.000000" fill-rule="nonzero"></path>
&#x9;&#x9;</g>
&#x9;&#x9;<path id="polygon" d="M132.53 87.09L132.53 102.12L104.05 118.45L104.05 103.41L132.53 87.09Z" fill="#C3DFDC" fill-opacity="1.000000" fill-rule="nonzero"></path>
&#x9;&#x9;<g opacity="0.500000">
&#x9;&#x9;&#x9;<path id="Vector" d="M114.52 100.39L103.9 107.27L95.53 101.18L103.85 105.73L114.52 100.39Z" fill="#F0F9F8" fill-opacity="1.000000" fill-rule="nonzero"></path>
&#x9;&#x9;</g>
&#x9;&#x9;<g opacity="0.500000">
&#x9;&#x9;&#x9;<path id="Vector" d="M114.52 107.39L103.9 114.27L95.53 108.18L103.85 112.73L114.52 107.39Z" fill="#F0F9F8" fill-opacity="1.000000" fill-rule="nonzero"></path>
&#x9;&#x9;</g>
&#x9;&#x9;<path id="Cube_face_-_right" d="M152.03 90.93L131.21 102.87L131.21 87.84L152.03 75.89L152.03 90.93Z" fill="#C3DFDC" fill-opacity="1.000000" fill-rule="nonzero"></path>
&#x9;&#x9;<path id="Cube_face_-_top" d="M104.05 103.41L36.07 64.43L84.06 36.9L152.03 75.89L104.05 103.41Z" fill="#F0F9F8" fill-opacity="1.000000" fill-rule="nonzero"></path>
&#x9;&#x9;<path id="Vector" d="M124.7 94.12L147.68 81.57L142.55 85.01L124.7 94.12Z" fill="#DAECEA" fill-opacity="1.000000" fill-rule="nonzero"></path>
&#x9;&#x9;<path id="Vector" d="M118.5 100.31L141.47 87.76L136.34 91.2L118.5 100.31Z" fill="#DAECEA" fill-opacity="1.000000" fill-rule="nonzero"></path>
&#x9;&#x9;<path id="Vector" d="M114.06 105.61L137.04 93.07L131.91 96.51L114.06 105.61Z" fill="#DAECEA" fill-opacity="1.000000" fill-rule="nonzero"></path>
&#x9;&#x9;<path id="Cube_face_-_top-2" d="M102.98 103.92L35 64.93L82.98 37.41L150.96 76.39L102.98 103.92Z" fill="#F0F9F8" fill-opacity="1.000000" fill-rule="nonzero"></path>
&#x9;&#x9;<path id="Cube_face_-_left-2" d="M104.05 103.71L36.07 64.71L36.07 62.52L104.05 101.51L104.05 103.71Z" fill="#D8EDEB" fill-opacity="1.000000" fill-rule="nonzero"></path>
&#x9;&#x9;<path id="Cube_face_-_top-3" d="M104.05 101.51L36.07 62.52L84.06 35L152.03 73.99L104.05 101.51Z" fill="#F0F9F8" fill-opacity="1.000000" fill-rule="nonzero"></path>
&#x9;&#x9;<path id="Cube_face_-_left" d="M104.05 93.6L36.07 54.61L36.07 48.43L104.05 87.41L104.05 93.6Z" fill="#D8EDEB" fill-opacity="1.000000" fill-rule="nonzero"></path>
&#x9;&#x9;<path id="Cube_face_-_left" d="M104.05 102.6L36.07 63.61L36.07 53.43L104.05 92.41L104.05 102.6Z" fill="#D8EDEB" fill-opacity="1.000000" fill-rule="nonzero"></path>
&#x9;&#x9;<path id="Vector" d="M69.17 76.72L32.91 58.25L36.47 55.92L69.17 76.72Z" fill="#F0F9F8" fill-opacity="1.000000" fill-rule="nonzero"></path>
&#x9;&#x9;<g opacity="0.500000">
&#x9;&#x9;&#x9;<path id="Vector" d="M100.76 91.61L80.77 82.37L67.4 73.38L100.76 91.61Z" fill="#F0F9F8" fill-opacity="1.000000" fill-rule="nonzero"></path>
&#x9;&#x9;</g>
&#x9;&#x9;<path id="polygon" d="M132.53 71.09L132.53 86.12L104.05 102.45L104.05 87.41L132.53 71.09Z" fill="#C3DFDC" fill-opacity="1.000000" fill-rule="nonzero"></path>
&#x9;&#x9;<g opacity="0.500000">
&#x9;&#x9;&#x9;<path id="Vector" d="M114.52 84.39L103.9 91.27L95.53 85.18L103.85 89.73L114.52 84.39Z" fill="#F0F9F8" fill-opacity="1.000000" fill-rule="nonzero"></path>
&#x9;&#x9;</g>
&#x9;&#x9;<g opacity="0.500000">
&#x9;&#x9;&#x9;<path id="Vector" d="M114.52 91.39L103.9 98.27L95.53 92.18L103.85 96.73L114.52 91.39Z" fill="#F0F9F8" fill-opacity="1.000000" fill-rule="nonzero"></path>
&#x9;&#x9;</g>
&#x9;&#x9;<path id="Cube_face_-_right" d="M152.03 74.93L131.21 86.87L131.21 71.84L152.03 59.89L152.03 74.93Z" fill="#C3DFDC" fill-opacity="1.000000" fill-rule="nonzero"></path>
&#x9;&#x9;<path id="Cube_face_-_top" d="M104.05 87.41L36.07 48.43L84.06 20.9L152.03 59.89L104.05 87.41Z" fill="#F0F9F8" fill-opacity="1.000000" fill-rule="nonzero"></path>
&#x9;&#x9;<path id="Vector" d="M124.7 78.12L147.68 65.57L142.55 69.01L124.7 78.12Z" fill="#DAECEA" fill-opacity="1.000000" fill-rule="nonzero"></path>
&#x9;&#x9;<path id="Vector" d="M118.5 84.3L141.47 71.76L136.34 75.2L118.5 84.3Z" fill="#DAECEA" fill-opacity="1.000000" fill-rule="nonzero"></path>
&#x9;&#x9;<path id="Vector" d="M114.06 89.61L137.04 77.07L131.91 80.51L114.06 89.61Z" fill="#DAECEA" fill-opacity="1.000000" fill-rule="nonzero"></path>
&#x9;&#x9;<path id="Cube_face_-_top-2" d="M102.98 87.92L35 48.93L82.98 21.41L150.96 60.39L102.98 87.92Z" fill="#F0F9F8" fill-opacity="1.000000" fill-rule="nonzero"></path>
&#x9;&#x9;<path id="Cube_face_-_left-2" d="M104.05 87.71L36.07 48.71L36.07 46.52L104.05 85.51L104.05 87.71Z" fill="#D8EDEB" fill-opacity="1.000000" fill-rule="nonzero"></path>
&#x9;&#x9;<path id="Cube_face_-_top-3" d="M104.05 85.51L36.07 46.52L84.06 19L152.03 57.99L104.05 85.51Z" fill="#F0F9F8" fill-opacity="1.000000" fill-rule="nonzero"></path>
&#x9;&#x9;<path id="Cube_face_-_left" d="M104.05 79.6L36.07 40.61L36.07 34.43L104.05 73.41L104.05 79.6Z" fill="#D8EDEB" fill-opacity="1.000000" fill-rule="nonzero"></path>
&#x9;&#x9;<path id="Cube_face_-_left" d="M104.05 88.6L36.07 49.61L36.07 39.43L104.05 78.41L104.05 88.6Z" fill="#D8EDEB" fill-opacity="1.000000" fill-rule="nonzero"></path>
&#x9;&#x9;<path id="Vector" d="M69.17 62.72L32.91 44.25L36.47 41.92L69.17 62.72Z" fill="#F0F9F8" fill-opacity="1.000000" fill-rule="nonzero"></path>
&#x9;&#x9;<g opacity="0.500000">
&#x9;&#x9;&#x9;<path id="Vector" d="M100.76 77.61L80.77 68.37L67.4 59.38L100.76 77.61Z" fill="#F0F9F8" fill-opacity="1.000000" fill-rule="nonzero"></path>
&#x9;&#x9;</g>
&#x9;&#x9;<path id="polygon" d="M132.53 57.09L132.53 72.12L104.05 88.45L104.05 73.41L132.53 57.09Z" fill="#C3DFDC" fill-opacity="1.000000" fill-rule="nonzero"></path>
&#x9;&#x9;<g opacity="0.500000">
&#x9;&#x9;&#x9;<path id="Vector" d="M114.52 70.39L103.9 77.27L95.53 71.18L103.85 75.73L114.52 70.39Z" fill="#F0F9F8" fill-opacity="1.000000" fill-rule="nonzero"></path>
&#x9;&#x9;</g>
&#x9;&#x9;<g opacity="0.500000">
&#x9;&#x9;&#x9;<path id="Vector" d="M114.52 77.39L103.9 84.27L95.53 78.18L103.85 82.73L114.52 77.39Z" fill="#F0F9F8" fill-opacity="1.000000" fill-rule="nonzero"></path>
&#x9;&#x9;</g>
&#x9;&#x9;<path id="Cube_face_-_right" d="M152.03 60.93L131.21 72.87L131.21 57.84L152.03 45.89L152.03 60.93Z" fill="#C3DFDC" fill-opacity="1.000000" fill-rule="nonzero"></path>
&#x9;&#x9;<path id="Cube_face_-_top" d="M104.05 73.41L36.07 34.43L84.06 6.9L152.03 45.89L104.05 73.41Z" fill="#F0F9F8" fill-opacity="1.000000" fill-rule="nonzero"></path>
&#x9;&#x9;<path id="Vector" d="M124.7 64.12L147.68 51.57L142.55 55.01L124.7 64.12Z" fill="#DAECEA" fill-opacity="1.000000" fill-rule="nonzero"></path>
&#x9;&#x9;<path id="Vector" d="M118.5 70.3L141.47 57.76L136.34 61.2L118.5 70.3Z" fill="#DAECEA" fill-opacity="1.000000" fill-rule="nonzero"></path>
&#x9;&#x9;<path id="Vector" d="M114.06 75.61L137.04 63.07L131.91 66.51L114.06 75.61Z" fill="#DAECEA" fill-opacity="1.000000" fill-rule="nonzero"></path>
&#x9;&#x9;<path id="Cube_face_-_top-2" d="M102.98 73.92L35 34.93L82.98 7.41L150.96 46.39L102.98 73.92Z" fill="#F0F9F8" fill-opacity="1.000000" fill-rule="nonzero"></path>
&#x9;&#x9;<path id="Cube_face_-_left-2" d="M104.05 73.71L36.07 34.71L36.07 32.52L104.05 71.51L104.05 73.71Z" fill="#D8EDEB" fill-opacity="1.000000" fill-rule="nonzero"></path>
&#x9;&#x9;<path id="Cube_face_-_top-3" d="M104.05 71.51L36.07 32.52L84.06 5L152.03 43.99L104.05 71.51Z" fill="#F0F9F8" fill-opacity="1.000000" fill-rule="nonzero"></path>
&#x9;&#x9;<path id="polygon" d="M24.23 72.59L103.14 117.96L103.14 138.19L24.23 92.82L24.23 72.59Z" fill="#F0F9F8" fill-opacity="1.000000" fill-rule="nonzero"></path>
&#x9;&#x9;<path id="polygon" d="M120.57 107.94L124.16 112.09L150.97 96.66L154.56 88.39L172 78.37L172 98.59L103.14 138.19L103.14 117.96L120.57 107.94Z" fill="#E0F3F1" fill-opacity="1.000000" fill-rule="nonzero"></path>
&#x9;&#x9;<path id="Vector" d="M35 30.28C54.96 20.08 64.57 14.99 80.53 4L141.32 39.07L95.78 65.36L35 30.28Z" fill="#F0F9F8" fill-opacity="1.000000" fill-rule="nonzero"></path>
&#x9;&#x9;<g opacity="0.400000">
&#x9;&#x9;&#x9;<g opacity="0.400000">
&#x9;&#x9;&#x9;&#x9;<path id="Vector" d="M41.12 30.93L78.83 8.94L79.77 9.58L42.06 31.56L41.12 30.93Z" fill="#A3CCC9" fill-opacity="1.000000" fill-rule="nonzero"></path>
&#x9;&#x9;&#x9;</g>
&#x9;&#x9;&#x9;<g opacity="0.400000">
&#x9;&#x9;&#x9;&#x9;<path id="Vector" d="M71.27 16.51L81.64 10.47L82.58 11.1L72.21 17.15L71.27 16.51Z" fill="#A3CCC9" fill-opacity="1.000000" fill-rule="nonzero"></path>
&#x9;&#x9;&#x9;</g>
&#x9;&#x9;&#x9;<g opacity="0.400000">
&#x9;&#x9;&#x9;&#x9;<path id="Vector" d="M67.38 19.96L57.07 25.98L56.13 25.34L66.44 19.33L67.38 19.96Z" fill="#A3CCC9" fill-opacity="1.000000" fill-rule="nonzero"></path>
&#x9;&#x9;&#x9;</g>
&#x9;&#x9;&#x9;<g opacity="0.400000">
&#x9;&#x9;&#x9;&#x9;<path id="Vector" d="M51.3 28.15L52.24 28.79L44.87 33.09L43.93 32.45L51.3 28.15Z" fill="#A3CCC9" fill-opacity="1.000000" fill-rule="nonzero"></path>
&#x9;&#x9;&#x9;</g>
&#x9;&#x9;&#x9;<g opacity="0.400000">
&#x9;&#x9;&#x9;&#x9;<path id="Vector" d="M61.91 25.11L83.71 12.4L84.65 13.03L62.84 25.74L61.91 25.11Z" fill="#A3CCC9" fill-opacity="1.000000" fill-rule="nonzero"></path>
&#x9;&#x9;&#x9;</g>
&#x9;&#x9;&#x9;<g opacity="0.400000">
&#x9;&#x9;&#x9;&#x9;<path id="Vector" d="M51.7 31.06L52.63 31.69L46.94 35.01L46 34.38L51.7 31.06Z" fill="#A3CCC9" fill-opacity="1.000000" fill-rule="nonzero"></path>
&#x9;&#x9;&#x9;</g>
&#x9;&#x9;&#x9;<g opacity="0.400000">
&#x9;&#x9;&#x9;&#x9;<path id="Vector" d="M78.5 18.7L86.47 14.05L87.4 14.69L79.43 19.33L78.5 18.7Z" fill="#A3CCC9" fill-opacity="1.000000" fill-rule="nonzero"></path>
&#x9;&#x9;&#x9;</g>
&#x9;&#x9;&#x9;<g opacity="0.400000">
&#x9;&#x9;&#x9;&#x9;<path id="Vector" d="M71.37 22.85L72.31 23.49L49.69 36.67L48.75 36.04L71.37 22.85Z" fill="#A3CCC9" fill-opacity="1.000000" fill-rule="nonzero"></path>
&#x9;&#x9;&#x9;</g>
&#x9;&#x9;&#x9;<g opacity="0.400000">
&#x9;&#x9;&#x9;&#x9;<path id="Vector" d="M52.64 37.42L90.34 15.43L91.29 16.06L53.57 38.05L52.64 37.42Z" fill="#A3CCC9" fill-opacity="1.000000" fill-rule="nonzero"></path>
&#x9;&#x9;&#x9;</g>
&#x9;&#x9;&#x9;<g opacity="0.400000">
&#x9;&#x9;&#x9;&#x9;<path id="Vector" d="M82.79 23L93.16 16.96L94.1 17.59L83.72 23.63L82.79 23Z" fill="#A3CCC9" fill-opacity="1.000000" fill-rule="nonzero"></path>
&#x9;&#x9;&#x9;</g>
&#x9;&#x9;&#x9;<g opacity="0.400000">
&#x9;&#x9;&#x9;&#x9;<path id="Vector" d="M78.89 26.45L68.58 32.47L67.65 31.83L77.96 25.82L78.89 26.45Z" fill="#A3CCC9" fill-opacity="1.000000" fill-rule="nonzero"></path>
&#x9;&#x9;&#x9;</g>
&#x9;&#x9;&#x9;<g opacity="0.400000">
&#x9;&#x9;&#x9;&#x9;<path id="Vector" d="M62.82 34.64L63.75 35.28L56.39 39.57L55.45 38.94L62.82 34.64Z" fill="#A3CCC9" fill-opacity="1.000000" fill-rule="nonzero"></path>
&#x9;&#x9;&#x9;</g>
&#x9;&#x9;&#x9;<g opacity="0.400000">
&#x9;&#x9;&#x9;&#x9;<path id="Vector" d="M73.42 31.59L95.23 18.89L96.17 19.52L74.36 32.23L73.42 31.59Z" fill="#A3CCC9" fill-opacity="1.000000" fill-rule="nonzero"></path>
&#x9;&#x9;&#x9;</g>
&#x9;&#x9;&#x9;<g opacity="0.400000">
&#x9;&#x9;&#x9;&#x9;<path id="Vector" d="M63.21 37.55L64.15 38.18L58.46 41.5L57.52 40.87L63.21 37.55Z" fill="#A3CCC9" fill-opacity="1.000000" fill-rule="nonzero"></path>
&#x9;&#x9;&#x9;</g>
&#x9;&#x9;&#x9;<g opacity="0.400000">
&#x9;&#x9;&#x9;&#x9;<path id="Vector" d="M90.01 25.19L97.98 20.54L98.92 21.18L90.95 25.82L90.01 25.19Z" fill="#A3CCC9" fill-opacity="1.000000" fill-rule="nonzero"></path>
&#x9;&#x9;&#x9;</g>
&#x9;&#x9;&#x9;<g opacity="0.400000">
&#x9;&#x9;&#x9;&#x9;<path id="Vector" d="M82.88 29.34L83.82 29.98L61.21 43.16L60.27 42.53L82.88 29.34Z" fill="#A3CCC9" fill-opacity="1.000000" fill-rule="nonzero"></path>
&#x9;&#x9;&#x9;</g>
&#x9;&#x9;&#x9;<g opacity="0.400000">
&#x9;&#x9;&#x9;&#x9;<path id="Vector" d="M83.9 37.48L105.52 24.3L106.47 24.91L84.85 38.09L83.9 37.48Z" fill="#A3CCC9" fill-opacity="1.000000" fill-rule="nonzero"></path>
&#x9;&#x9;&#x9;</g>
&#x9;&#x9;&#x9;<g opacity="0.400000">
&#x9;&#x9;&#x9;&#x9;<path id="Vector" d="M73.77 43.65L74.72 44.26L69.07 47.71L68.12 47.09L73.77 43.65Z" fill="#A3CCC9" fill-opacity="1.000000" fill-rule="nonzero"></path>
&#x9;&#x9;&#x9;</g>
&#x9;&#x9;&#x9;<g opacity="0.400000">
&#x9;&#x9;&#x9;&#x9;<path id="Vector" d="M100.41 30.7L108.31 25.89L109.27 26.49L101.37 31.31L100.41 30.7Z" fill="#A3CCC9" fill-opacity="1.000000" fill-rule="nonzero"></path>
&#x9;&#x9;&#x9;</g>
&#x9;&#x9;&#x9;<g opacity="0.400000">
&#x9;&#x9;&#x9;&#x9;<path id="Vector" d="M93.34 35.01L94.29 35.62L71.87 49.29L70.92 48.68L93.34 35.01Z" fill="#A3CCC9" fill-opacity="1.000000" fill-rule="nonzero"></path>
&#x9;&#x9;&#x9;</g>
&#x9;&#x9;&#x9;<g opacity="0.400000">
&#x9;&#x9;&#x9;&#x9;<path id="Vector" d="M74.84 49.96L112.23 27.17L113.2 27.77L75.8 50.57L74.84 49.96Z" fill="#A3CCC9" fill-opacity="1.000000" fill-rule="nonzero"></path>
&#x9;&#x9;&#x9;</g>
&#x9;&#x9;&#x9;<g opacity="0.400000">
&#x9;&#x9;&#x9;&#x9;<path id="Vector" d="M99.12 44.86L120.93 32.15L121.86 32.79L100.06 45.5L99.12 44.86Z" fill="#A3CCC9" fill-opacity="1.000000" fill-rule="nonzero"></path>
&#x9;&#x9;&#x9;</g>
&#x9;&#x9;&#x9;<g opacity="0.400000">
&#x9;&#x9;&#x9;&#x9;<path id="Vector" d="M88.91 50.82L89.85 51.46L84.15 54.77L83.21 54.13L88.91 50.82Z" fill="#A3CCC9" fill-opacity="1.000000" fill-rule="nonzero"></path>
&#x9;&#x9;&#x9;</g>
&#x9;&#x9;&#x9;<g opacity="0.400000">
&#x9;&#x9;&#x9;&#x9;<path id="Vector" d="M115.72 38.45L123.68 33.81L124.62 34.44L116.64 39.09L115.72 38.45Z" fill="#A3CCC9" fill-opacity="1.000000" fill-rule="nonzero"></path>
&#x9;&#x9;&#x9;</g>
&#x9;&#x9;&#x9;<g opacity="0.400000">
&#x9;&#x9;&#x9;&#x9;<path id="Vector" d="M108.59 42.61L109.52 43.24L86.9 56.43L85.97 55.79L108.59 42.61Z" fill="#A3CCC9" fill-opacity="1.000000" fill-rule="nonzero"></path>
&#x9;&#x9;&#x9;</g>
&#x9;&#x9;&#x9;<g opacity="0.400000">
&#x9;&#x9;&#x9;&#x9;<path id="Vector" d="M109.59 50.75L131.21 37.57L132.17 38.18L110.54 51.36L109.59 50.75Z" fill="#A3CCC9" fill-opacity="1.000000" fill-rule="nonzero"></path>
&#x9;&#x9;&#x9;</g>
&#x9;&#x9;&#x9;<g opacity="0.400000">
&#x9;&#x9;&#x9;&#x9;<path id="Vector" d="M99.47 56.93L100.42 57.53L94.77 60.98L93.82 60.36L99.47 56.93Z" fill="#A3CCC9" fill-opacity="1.000000" fill-rule="nonzero"></path>
&#x9;&#x9;&#x9;</g>
&#x9;&#x9;&#x9;<g opacity="0.400000">
&#x9;&#x9;&#x9;&#x9;<path id="Vector" d="M104.81 34.89L115.09 28.61L116.05 29.23L105.76 35.5L104.81 34.89Z" fill="#A3CCC9" fill-opacity="1.000000" fill-rule="nonzero"></path>
&#x9;&#x9;&#x9;</g>
&#x9;&#x9;&#x9;<g opacity="0.400000">
&#x9;&#x9;&#x9;&#x9;<path id="Vector" d="M100.97 38.42L90.75 44.65L89.79 44.04L100.02 37.8L100.97 38.42Z" fill="#A3CCC9" fill-opacity="1.000000" fill-rule="nonzero"></path>
&#x9;&#x9;&#x9;</g>
&#x9;&#x9;&#x9;<g opacity="0.400000">
&#x9;&#x9;&#x9;&#x9;<path id="Vector" d="M85 46.95L85.96 47.56L78.65 52.02L77.7 51.41L85 46.95Z" fill="#A3CCC9" fill-opacity="1.000000" fill-rule="nonzero"></path>
&#x9;&#x9;&#x9;</g>
&#x9;&#x9;&#x9;<g opacity="0.400000">
&#x9;&#x9;&#x9;&#x9;<path id="Vector" d="M95.59 43.67L117.21 30.49L118.16 31.09L96.54 44.28L95.59 43.67Z" fill="#A3CCC9" fill-opacity="1.000000" fill-rule="nonzero"></path>
&#x9;&#x9;&#x9;</g>
&#x9;&#x9;&#x9;<g opacity="0.400000">
&#x9;&#x9;&#x9;&#x9;<path id="Vector" d="M85.46 49.84L86.42 50.45L80.76 53.89L79.81 53.28L85.46 49.84Z" fill="#A3CCC9" fill-opacity="1.000000" fill-rule="nonzero"></path>
&#x9;&#x9;&#x9;</g>
&#x9;&#x9;</g>
&#x9;&#x9;<path id="Vector" d="M101.01 62.32L141.26 39.06L89.93 9.41L43.02 32.54C65.39 42.95 86.57 52.94 101.01 62.32Z" fill="#D0EAE7" fill-opacity="1.000000" fill-rule="nonzero"></path>
&#x9;&#x9;<path id="Vector" d="M42.96 32.44L90.13 7.72C114.03 20.54 133.4 32.1 153.11 38.86L105.93 63.59C91.33 53.74 67.91 43.29 42.96 32.44Z" fill="#F4F9F7" fill-opacity="1.000000" fill-rule="nonzero"></path>
&#x9;&#x9;<g opacity="0.400000">
&#x9;&#x9;&#x9;<g opacity="0.400000">
&#x9;&#x9;&#x9;&#x9;<path id="Vector" d="M52.97 31.92L89.73 11.85L90.7 12.43L53.93 32.49L52.97 31.92Z" fill="#A3CCC9" fill-opacity="1.000000" fill-rule="nonzero"></path>
&#x9;&#x9;&#x9;</g>
&#x9;&#x9;&#x9;<g opacity="0.400000">
&#x9;&#x9;&#x9;&#x9;<path id="Vector" d="M82.5 18.76L92.61 13.24L93.58 13.82L83.46 19.34L82.5 18.76Z" fill="#A3CCC9" fill-opacity="1.000000" fill-rule="nonzero"></path>
&#x9;&#x9;&#x9;</g>
&#x9;&#x9;&#x9;<g opacity="0.400000">
&#x9;&#x9;&#x9;&#x9;<path id="Vector" d="M78.75 21.91L68.71 27.4L67.74 26.81L77.79 21.33L78.75 21.91Z" fill="#A3CCC9" fill-opacity="1.000000" fill-rule="nonzero"></path>
&#x9;&#x9;&#x9;</g>
&#x9;&#x9;&#x9;<g opacity="0.400000">
&#x9;&#x9;&#x9;&#x9;<path id="Vector" d="M63.03 29.39L63.99 29.96L56.81 33.89L55.84 33.3L63.03 29.39Z" fill="#A3CCC9" fill-opacity="1.000000" fill-rule="nonzero"></path>
&#x9;&#x9;&#x9;</g>
&#x9;&#x9;&#x9;<g opacity="0.400000">
&#x9;&#x9;&#x9;&#x9;<path id="Vector" d="M73.5 26.6L94.76 15L95.73 15.58L74.46 27.18L73.5 26.6Z" fill="#A3CCC9" fill-opacity="1.000000" fill-rule="nonzero"></path>
&#x9;&#x9;&#x9;</g>
&#x9;&#x9;&#x9;<g opacity="0.400000">
&#x9;&#x9;&#x9;&#x9;<path id="Vector" d="M63.55 32.04L64.51 32.61L58.96 35.64L57.99 35.06L63.55 32.04Z" fill="#A3CCC9" fill-opacity="1.000000" fill-rule="nonzero"></path>
&#x9;&#x9;&#x9;</g>
&#x9;&#x9;&#x9;<g opacity="0.400000">
&#x9;&#x9;&#x9;&#x9;<path id="Vector" d="M89.82 20.75L97.59 16.51L98.55 17.09L90.79 21.34L89.82 20.75Z" fill="#A3CCC9" fill-opacity="1.000000" fill-rule="nonzero"></path>
&#x9;&#x9;&#x9;</g>
&#x9;&#x9;&#x9;<g opacity="0.400000">
&#x9;&#x9;&#x9;&#x9;<path id="Vector" d="M82.87 24.55L83.83 25.12L61.78 37.16L60.82 36.57L82.87 24.55Z" fill="#A3CCC9" fill-opacity="1.000000" fill-rule="nonzero"></path>
&#x9;&#x9;&#x9;</g>
&#x9;&#x9;&#x9;<g opacity="0.400000">
&#x9;&#x9;&#x9;&#x9;<path id="Vector" d="M64.76 37.83L101.53 17.77L102.49 18.35L65.72 38.41L64.76 37.83Z" fill="#A3CCC9" fill-opacity="1.000000" fill-rule="nonzero"></path>
&#x9;&#x9;&#x9;</g>
&#x9;&#x9;&#x9;<g opacity="0.400000">
&#x9;&#x9;&#x9;&#x9;<path id="Vector" d="M94.29 24.68L104.4 19.17L105.37 19.74L95.25 25.26L94.29 24.68Z" fill="#A3CCC9" fill-opacity="1.000000" fill-rule="nonzero"></path>
&#x9;&#x9;&#x9;</g>
&#x9;&#x9;&#x9;<g opacity="0.400000">
&#x9;&#x9;&#x9;&#x9;<path id="Vector" d="M90.55 27.83L80.49 33.31L79.53 32.74L89.58 27.25L90.55 27.83Z" fill="#A3CCC9" fill-opacity="1.000000" fill-rule="nonzero"></path>
&#x9;&#x9;&#x9;</g>
&#x9;&#x9;&#x9;<g opacity="0.400000">
&#x9;&#x9;&#x9;&#x9;<path id="Vector" d="M74.83 35.31L75.79 35.88L68.6 39.8L67.64 39.23L74.83 35.31Z" fill="#A3CCC9" fill-opacity="1.000000" fill-rule="nonzero"></path>
&#x9;&#x9;&#x9;</g>
&#x9;&#x9;&#x9;<g opacity="0.400000">
&#x9;&#x9;&#x9;&#x9;<path id="Vector" d="M85.3 32.52L106.56 20.92L107.52 21.5L86.26 33.1L85.3 32.52Z" fill="#A3CCC9" fill-opacity="1.000000" fill-rule="nonzero"></path>
&#x9;&#x9;&#x9;</g>
&#x9;&#x9;&#x9;<g opacity="0.400000">
&#x9;&#x9;&#x9;&#x9;<path id="Vector" d="M75.34 37.95L76.3 38.54L70.75 41.57L69.79 40.98L75.34 37.95Z" fill="#A3CCC9" fill-opacity="1.000000" fill-rule="nonzero"></path>
&#x9;&#x9;&#x9;</g>
&#x9;&#x9;&#x9;<g opacity="0.400000">
&#x9;&#x9;&#x9;&#x9;<path id="Vector" d="M101.61 26.67L109.38 22.44L110.34 23.01L102.57 27.26L101.61 26.67Z" fill="#A3CCC9" fill-opacity="1.000000" fill-rule="nonzero"></path>
&#x9;&#x9;&#x9;</g>
&#x9;&#x9;&#x9;<g opacity="0.400000">
&#x9;&#x9;&#x9;&#x9;<path id="Vector" d="M94.66 30.46L95.62 31.04L73.58 43.08L72.62 42.5L94.66 30.46Z" fill="#A3CCC9" fill-opacity="1.000000" fill-rule="nonzero"></path>
&#x9;&#x9;&#x9;</g>
&#x9;&#x9;&#x9;<g opacity="0.400000">
&#x9;&#x9;&#x9;&#x9;<path id="Vector" d="M96.02 37.9L117.07 25.86L118.06 26.43L97 38.45L96.02 37.9Z" fill="#A3CCC9" fill-opacity="1.000000" fill-rule="nonzero"></path>
&#x9;&#x9;&#x9;</g>
&#x9;&#x9;&#x9;<g opacity="0.400000">
&#x9;&#x9;&#x9;&#x9;<path id="Vector" d="M86.16 43.53L87.14 44.08L81.63 47.23L80.66 46.67L86.16 43.53Z" fill="#A3CCC9" fill-opacity="1.000000" fill-rule="nonzero"></path>
&#x9;&#x9;&#x9;</g>
&#x9;&#x9;&#x9;<g opacity="0.400000">
&#x9;&#x9;&#x9;&#x9;<path id="Vector" d="M112.25 31.71L119.94 27.32L120.92 27.87L113.23 32.26L112.25 31.71Z" fill="#A3CCC9" fill-opacity="1.000000" fill-rule="nonzero"></path>
&#x9;&#x9;&#x9;</g>
&#x9;&#x9;&#x9;<g opacity="0.400000">
&#x9;&#x9;&#x9;&#x9;<path id="Vector" d="M105.37 35.64L106.34 36.2L84.5 48.67L83.52 48.11L105.37 35.64Z" fill="#A3CCC9" fill-opacity="1.000000" fill-rule="nonzero"></path>
&#x9;&#x9;&#x9;</g>
&#x9;&#x9;&#x9;<g opacity="0.400000">
&#x9;&#x9;&#x9;&#x9;<path id="Vector" d="M87.51 49.28L123.92 28.48L124.9 29.03L88.49 49.84L87.51 49.28Z" fill="#A3CCC9" fill-opacity="1.000000" fill-rule="nonzero"></path>
&#x9;&#x9;&#x9;</g>
&#x9;&#x9;&#x9;<g opacity="0.400000">
&#x9;&#x9;&#x9;&#x9;<path id="Vector" d="M111.57 44.63L132.83 33.03L133.79 33.61L112.53 45.21L111.57 44.63Z" fill="#A3CCC9" fill-opacity="1.000000" fill-rule="nonzero"></path>
&#x9;&#x9;&#x9;</g>
&#x9;&#x9;&#x9;<g opacity="0.400000">
&#x9;&#x9;&#x9;&#x9;<path id="Vector" d="M101.61 50.06L102.57 50.64L97.02 53.67L96.06 53.09L101.61 50.06Z" fill="#A3CCC9" fill-opacity="1.000000" fill-rule="nonzero"></path>
&#x9;&#x9;&#x9;</g>
&#x9;&#x9;&#x9;<g opacity="0.400000">
&#x9;&#x9;&#x9;&#x9;<path id="Vector" d="M127.88 38.78L135.65 34.54L136.61 35.12L128.84 39.37L127.88 38.78Z" fill="#A3CCC9" fill-opacity="1.000000" fill-rule="nonzero"></path>
&#x9;&#x9;&#x9;</g>
&#x9;&#x9;&#x9;<g opacity="0.400000">
&#x9;&#x9;&#x9;&#x9;<path id="Vector" d="M120.93 42.57L121.89 43.15L99.85 55.19L98.88 54.6L120.93 42.57Z" fill="#A3CCC9" fill-opacity="1.000000" fill-rule="nonzero"></path>
&#x9;&#x9;&#x9;</g>
&#x9;&#x9;&#x9;<g opacity="0.400000">
&#x9;&#x9;&#x9;&#x9;<path id="Vector" d="M122.29 50L143.35 37.98L144.33 38.53L123.26 50.56L122.29 50Z" fill="#A3CCC9" fill-opacity="1.000000" fill-rule="nonzero"></path>
&#x9;&#x9;&#x9;</g>
&#x9;&#x9;&#x9;<g opacity="0.400000">
&#x9;&#x9;&#x9;&#x9;<path id="Vector" d="M112.43 55.64L113.41 56.19L107.9 59.33L106.93 58.78L112.43 55.64Z" fill="#A3CCC9" fill-opacity="1.000000" fill-rule="nonzero"></path>
&#x9;&#x9;&#x9;</g>
&#x9;&#x9;&#x9;<g opacity="0.400000">
&#x9;&#x9;&#x9;&#x9;<path id="Vector" d="M116.82 35.53L126.84 29.8L127.82 30.36L117.8 36.09L116.82 35.53Z" fill="#A3CCC9" fill-opacity="1.000000" fill-rule="nonzero"></path>
&#x9;&#x9;&#x9;</g>
&#x9;&#x9;&#x9;<g opacity="0.400000">
&#x9;&#x9;&#x9;&#x9;<path id="Vector" d="M113.14 38.75L103.18 44.43L102.2 43.88L112.16 38.19L113.14 38.75Z" fill="#A3CCC9" fill-opacity="1.000000" fill-rule="nonzero"></path>
&#x9;&#x9;&#x9;</g>
&#x9;&#x9;&#x9;<g opacity="0.400000">
&#x9;&#x9;&#x9;&#x9;<path id="Vector" d="M97.54 46.55L98.51 47.1L91.4 51.16L90.42 50.6L97.54 46.55Z" fill="#A3CCC9" fill-opacity="1.000000" fill-rule="nonzero"></path>
&#x9;&#x9;&#x9;</g>
&#x9;&#x9;&#x9;<g opacity="0.400000">
&#x9;&#x9;&#x9;&#x9;<path id="Vector" d="M107.98 43.54L129.04 31.51L130.02 32.06L108.96 44.1L107.98 43.54Z" fill="#A3CCC9" fill-opacity="1.000000" fill-rule="nonzero"></path>
&#x9;&#x9;&#x9;</g>
&#x9;&#x9;&#x9;<g opacity="0.400000">
&#x9;&#x9;&#x9;&#x9;<path id="Vector" d="M98.12 49.17L99.1 49.72L93.59 52.87L92.62 52.31L98.12 49.17Z" fill="#A3CCC9" fill-opacity="1.000000" fill-rule="nonzero"></path>
&#x9;&#x9;&#x9;</g>
&#x9;&#x9;</g>
&#x9;&#x9;<path id="path8816" d="M118.26 18.61C123.33 21.55 125.87 25.42 125.88 29.29L125.86 22.65C125.85 18.78 123.31 14.92 118.24 11.97C113.53 9.24 107.45 7.76 101.25 7.55C101.25 9.77 101.26 11.98 101.27 14.19C107.46 14.4 113.55 15.87 118.26 18.61Z" fill="#B8D6D3" fill-opacity="1.000000" fill-rule="nonzero"></path>
&#x9;&#x9;<path id="path8820" d="M101.27 14.19C101.26 11.98 101.25 9.77 101.25 7.55C94.02 7.31 86.64 8.78 81.11 11.98C75.94 14.96 73.36 18.89 73.37 22.81L73.39 29.44C73.38 25.52 75.96 21.6 81.13 18.61C86.66 15.42 94.04 13.95 101.27 14.19Z" fill="#B8D6D3" fill-opacity="1.000000" fill-rule="nonzero"></path>
&#x9;&#x9;<path id="path8824" d="M69 22.82L69.02 29.46C69.02 31.73 69.76 33.94 71.22 36.04L71.2 29.41C69.74 27.31 69 25.09 69 22.82Z" fill="#B8D6D3" fill-opacity="1.000000" fill-rule="nonzero"></path>
&#x9;&#x9;<path id="path8920" d="M125.24 25.98C125.47 25.38 125.64 24.76 125.73 24.15C125.17 20.78 122.68 17.49 118.24 14.91C113.53 12.17 107.45 10.7 101.26 10.49C101.26 11.29 101.26 12.08 101.26 12.88C101.27 13.32 101.27 13.75 101.27 14.19C102.11 14.22 102.96 14.27 103.79 14.35C109.1 14.83 114.19 16.25 118.26 18.61C121.87 20.71 124.2 23.28 125.24 25.98Z" fill="#A3CCC9" fill-opacity="1.000000" fill-rule="nonzero"></path>
&#x9;&#x9;<path id="path8924" d="M74.01 26.12C74.56 24.66 75.49 23.23 76.8 21.9C76.9 21.8 77 21.69 77.11 21.59C78.21 20.53 79.55 19.52 81.13 18.61C81.34 18.49 81.56 18.36 81.78 18.24C81.93 18.17 82.08 18.09 82.23 18.01C87.2 15.45 93.44 14.16 99.69 14.16C99.7 14.16 99.71 14.16 99.72 14.16C100.23 14.16 100.75 14.17 101.27 14.19C101.27 13.75 101.27 13.32 101.26 12.88C101.26 12.08 101.26 11.28 101.26 10.49C100.74 10.47 100.22 10.46 99.7 10.46C92.98 10.46 86.25 11.94 81.11 14.91C76.6 17.52 74.06 20.84 73.49 24.25C73.6 24.88 73.77 25.5 74.01 26.12Z" fill="#A3CCC9" fill-opacity="1.000000" fill-rule="nonzero"></path>
&#x9;&#x9;<path id="path8988" d="M130.25 29.28L130.23 22.65C130.23 22.67 130.23 22.7 130.23 22.73C130.22 25.04 129.45 27.28 127.95 29.41C126.75 31.1 125.12 32.67 123.09 34.07C122.49 34.49 121.86 34.89 121.19 35.28C120.52 35.66 119.83 36.03 119.11 36.37C116.68 37.54 113.98 38.48 111.04 39.17C107.37 40.03 103.49 40.47 99.51 40.47C95.54 40.47 91.66 40.03 88 39.17C84.2 38.28 80.8 36.97 77.89 35.28C74.98 33.58 72.73 31.61 71.2 29.41L71.22 36.04C72.75 38.24 75 40.22 77.91 41.91C80.83 43.6 84.22 44.91 88.02 45.81C91.68 46.67 95.56 47.11 99.53 47.11C103.51 47.11 107.38 46.67 111.06 45.81C114 45.11 116.7 44.18 119.13 43.01C119.85 42.66 120.54 42.29 121.21 41.91C121.87 41.52 122.51 41.12 123.11 40.71C125.14 39.31 126.77 37.74 127.97 36.04C129.47 33.91 130.23 31.67 130.25 29.36C130.25 29.34 130.25 29.31 130.25 29.28Z" fill="#B8D6D3" fill-opacity="1.000000" fill-rule="nonzero"></path>
&#x9;&#x9;<path id="path8992" d="M126.27 40.59L126.28 45.76L129.38 43.97L129.37 38.8L126.27 40.59Z" fill="#B8D6D3" fill-opacity="1.000000" fill-rule="nonzero"></path>
&#x9;&#x9;<path id="path8996" d="M120 36.96L120.02 42.13L126.28 45.76L126.27 40.59L120 36.96Z" fill="#D8EDEB" fill-opacity="1.000000" fill-rule="nonzero"></path>
&#x9;&#x9;<path id="path9000" d="M120 36.96L126.27 40.6L129.37 38.8L123.1 35.18C122.63 35.5 122.14 35.81 121.62 36.11C121.1 36.41 120.56 36.7 120 36.96Z" fill="#FFFFFF" fill-opacity="1.000000" fill-rule="nonzero"></path>
&#x9;&#x9;<path id="path9004" d="M118.12 33.49C107.85 39.42 91.19 39.42 80.99 33.49C70.79 27.56 70.84 17.91 81.11 11.98C91.38 6.05 108.03 6.05 118.24 11.97C128.44 17.91 128.39 27.56 118.12 33.49ZM71.2 29.41C72.73 31.61 74.98 33.58 77.89 35.28C80.81 36.97 84.21 38.28 88 39.17C91.66 40.03 95.54 40.47 99.51 40.47C103.49 40.47 107.37 40.03 111.04 39.17C113.98 38.48 116.68 37.55 119.11 36.38C119.83 36.03 120.52 35.66 121.19 35.28C121.86 34.89 122.49 34.49 123.09 34.08C125.12 32.67 126.75 31.11 127.95 29.41C129.45 27.28 130.22 25.04 130.23 22.73C130.24 20.43 129.5 18.19 128.03 16.06C126.49 13.86 124.24 11.89 121.33 10.19C118.42 8.5 115.02 7.19 111.23 6.29C107.56 5.43 103.69 5 99.71 5C95.74 5 91.86 5.43 88.19 6.29C84.38 7.19 80.97 8.5 78.03 10.19C75.1 11.89 72.83 13.86 71.28 16.06C69.78 18.19 69.01 20.43 69 22.73C68.98 25.03 69.73 27.28 71.2 29.41Z" fill="#FFFFFF" fill-opacity="1.000000" fill-rule="nonzero"></path>
&#x9;&#x9;<path id="path9008" d="M125.26 41.1L125.28 47.73C125.28 47.94 125.41 48.14 125.68 48.3L125.66 41.66C125.39 41.5 125.26 41.3 125.26 41.1Z" fill="#B8D6D3" fill-opacity="1.000000" fill-rule="nonzero"></path>
&#x9;&#x9;<path id="path9012" d="M162.13 62.09L162.12 55.46C162.12 55.66 161.98 55.87 161.71 56.03L161.73 62.66C162 62.5 162.13 62.3 162.13 62.09Z" fill="#B8D6D3" fill-opacity="1.000000" fill-rule="nonzero"></path>
&#x9;&#x9;<path id="path9016" d="M125.66 41.66L125.68 48.29L155.07 65.38L155.05 58.75L125.66 41.66Z" fill="#A3CCC9" fill-opacity="1.000000" fill-rule="nonzero"></path>
&#x9;&#x9;<path id="path9020" d="M157 58.75L157.02 65.38L161.73 62.66L161.71 56.03L157 58.75Z" fill="#8FC2BE" fill-opacity="1.000000" fill-rule="nonzero"></path>
&#x9;&#x9;<path id="path9024" d="M155.05 58.75L155.07 65.38C155.6 65.69 156.48 65.69 157.01 65.38L157 58.75C156.46 59.06 155.58 59.06 155.05 58.75Z" fill="#A3CCC9" fill-opacity="1.000000" fill-rule="nonzero"></path>
&#x9;&#x9;<path id="path9028" d="M125.67 40.53C125.13 40.84 125.13 41.35 125.66 41.66L155.06 58.74C155.59 59.06 156.46 59.06 157 58.74L161.71 56.02C162.25 55.71 162.25 55.21 161.72 54.9L132.32 37.81C131.79 37.5 130.91 37.5 130.38 37.81L130.01 38.02L126.03 40.32L125.67 40.53Z" fill="#B8D6D3" fill-opacity="1.000000" fill-rule="nonzero"></path>
&#x9;</g>
</svg>