<svg width="195.000000" height="140.000000" viewBox="0 0 195 140" fill="none" xmlns="http://www.w3.org/2000/svg" xmlns:xlink="http://www.w3.org/1999/xlink">
&#x9;<desc>
&#x9;&#x9;&#x9;Created with Pixso.
&#x9;</desc>
&#x9;<defs>
&#x9;&#x9;<clipPath id="clip201_5539">
&#x9;&#x9;&#x9;<rect id="qliksense-reports" width="195.000000" height="140.000000" fill="white" fill-opacity="0"></rect>
&#x9;&#x9;</clipPath>
&#x9;</defs>
&#x9;<g clip-path="url(#clip201_5539)">
&#x9;&#x9;<path id="Vector" d="M137.01 60.94C112.01 46.51 74.65 43.6 44.64 52.19L60.24 70.37C77.12 65.54 98.13 67.16 112.18 75.28C112.3 75.34 112.41 75.41 112.52 75.48L137.62 61.31L137.01 60.94Z" fill="#A3CCC9" fill-opacity="1.000000" fill-rule="nonzero"></path>
&#x9;&#x9;<path id="Vector" d="M112.16 63.52L112.5 63.73L137.6 49.55L136.99 49.19C111.99 34.76 74.63 31.85 44.62 40.44L60.22 58.62C77.1 53.79 98.11 55.41 112.16 63.52Z" fill="#E0F3F1" fill-opacity="1.000000" fill-rule="nonzero"></path>
&#x9;&#x9;<path id="Vector" d="M112.5 75.48L112.5 63.73L137.6 49.55L137.6 61.31L112.5 75.48Z" fill="#C3DFDC" fill-opacity="1.000000" fill-rule="nonzero"></path>
&#x9;&#x9;<path id="Vector" d="M101 117.19L117.26 135.19C124.08 133.17 130.66 130.38 136.85 126.87C151.09 118.65 158.85 108.11 160.13 97.36L160.13 97.24C160.32 95.55 160.35 93.85 160.22 92.15C161.31 79.68 153.72 67.01 137.44 57.41L112.34 71.58L112.34 75.92C119.97 80.42 124.21 86.12 125.05 91.92C124.21 97.86 119.87 103.65 112.05 108.19C108.57 110.17 104.88 111.74 101.05 112.87L101 117.19Z" fill="#A3CCC9" fill-opacity="1.000000" fill-rule="nonzero"></path>
&#x9;&#x9;<path id="Vector" d="M112.16 107.78C108.69 109.76 105 111.33 101.16 112.46L117.42 130.46C124.25 128.45 130.82 125.65 137.01 122.14C168.14 104.14 168.33 75.14 137.62 56.99L112.52 71.16C129.78 81.33 129.67 97.67 112.16 107.78Z" fill="#E0F3F1" fill-opacity="1.000000" fill-rule="nonzero"></path>
&#x9;&#x9;<path id="Vector" d="M41.01 94.79L37.48 85.41C39.63 81.71 43.25 78.23 48.35 75.28C52.1 73.17 56.09 71.52 60.23 70.37L60.23 42.61C60.23 42.61 38.68 44.81 38.1 45.2C37.52 45.59 0.01 65.14 0.01 65.14L0.07 91.79C-0.03 93.14 -0.03 94.49 0.07 95.84C0.97 106.96 8.77 117.94 23.48 126.43C48.9 141.1 87.11 143.87 117.37 134.75L117.37 107.02L41.01 94.79Z" fill="#A3CCC9" fill-opacity="1.000000" fill-rule="nonzero"></path>
&#x9;&#x9;<path id="Vector" d="M23.52 98.7C48.94 113.37 87.15 116.15 117.41 107.02L101.15 89.02C84.15 94.16 62.65 92.6 48.35 84.35C30.73 74.17 30.73 57.67 48.35 47.5C52.09 45.39 56.08 43.74 60.23 42.59L44.63 24.41C37.26 26.46 30.17 29.39 23.52 33.15C-7.81 51.28 -7.81 80.61 23.52 98.7Z" fill="#F0F9F8" fill-opacity="1.000000" fill-rule="nonzero"></path>
&#x9;</g>
</svg>