<svg width="195.000000" height="140.000000" viewBox="0 0 195 140" fill="none" xmlns="http://www.w3.org/2000/svg" xmlns:xlink="http://www.w3.org/1999/xlink">
&#x9;<desc>
&#x9;&#x9;&#x9;Created with Pixso.
&#x9;</desc>
&#x9;<defs>
&#x9;&#x9;<clipPath id="clip201_6009">
&#x9;&#x9;&#x9;<rect id="registry" width="195.000000" height="140.000000" fill="white" fill-opacity="0"></rect>
&#x9;&#x9;</clipPath>
&#x9;</defs>
&#x9;<g clip-path="url(#clip201_6009)">
&#x9;&#x9;<path id="path" d="M172.14 42.97C172.14 42.97 180.45 45.93 174.91 57.37C169.36 68.82 168.42 71.57 168.42 71.57L138.51 51.54C138.51 51.54 163.54 41.24 172.14 42.97Z" fill="#B8D6D3" fill-opacity="1.000000" fill-rule="nonzero"></path>
&#x9;&#x9;<path id="path" d="M172.12 42.96C169.84 42.28 162.72 42.3 152.05 62.33C138.95 86.95 134.86 102.32 124.71 97.27L124.19 96.99C115.72 92 124.26 76.1 118.65 72.19C118.5 72.07 118.32 71.97 118.14 71.89L117.99 71.8L76.76 50.95C79.5 45.59 82.66 38.84 86.77 31.13C98.98 8.18 106.2 13.4 106.2 13.4L172.12 42.96Z" fill="#F0F9F8" fill-opacity="1.000000" fill-rule="nonzero"></path>
&#x9;&#x9;<path id="path" d="M101.72 45.5L106.83 48.06L110.84 39.8L105.89 37.41L101.72 45.5Z" fill="#D8EDEB" fill-opacity="1.000000" fill-rule="nonzero"></path>
&#x9;&#x9;<path id="path" d="M111.17 49.88L116.28 52.44L123.43 37.06L118.49 34.67L111.17 49.88Z" fill="#D8EDEB" fill-opacity="1.000000" fill-rule="nonzero"></path>
&#x9;&#x9;<path id="path" d="M120.62 54.26L125.73 56.82L137.12 33.77L132.18 31.38L120.62 54.26Z" fill="#D8EDEB" fill-opacity="1.000000" fill-rule="nonzero"></path>
&#x9;&#x9;<path id="path" d="M130.07 58.64L135.18 61.2L141.06 48.85L136.11 46.45L130.07 58.64Z" fill="#D8EDEB" fill-opacity="1.000000" fill-rule="nonzero"></path>
&#x9;&#x9;<path id="path" d="M134.73 71.04L92.61 50.45C92.23 50.26 92.08 49.81 92.28 49.45C92.48 49.09 92.95 48.95 93.32 49.14L135.45 69.73C135.82 69.92 135.97 70.37 135.77 70.73C135.57 71.09 135.11 71.23 134.73 71.04Z" fill="#D8EDEB" fill-opacity="1.000000" fill-rule="nonzero"></path>
&#x9;&#x9;<path id="path" d="M132.6 74.4L90.48 53.81C90.11 53.62 89.96 53.17 90.16 52.8C90.35 52.44 90.82 52.3 91.2 52.49L133.32 73.08C133.69 73.27 133.84 73.72 133.64 74.09C133.45 74.45 132.98 74.59 132.6 74.4Z" fill="#D8EDEB" fill-opacity="1.000000" fill-rule="nonzero"></path>
&#x9;&#x9;<path id="path" d="M130.8 77.77L88.68 57.18C88.31 56.99 88.16 56.54 88.36 56.18C88.55 55.82 89.02 55.68 89.4 55.87L131.52 76.46C131.9 76.65 132.04 77.1 131.85 77.46C131.65 77.82 131.18 77.96 130.8 77.77Z" fill="#D8EDEB" fill-opacity="1.000000" fill-rule="nonzero"></path>
&#x9;&#x9;<path id="path" d="M128.5 80.22L86.38 59.63C86.01 59.44 85.86 58.99 86.06 58.63C86.25 58.27 86.72 58.13 87.1 58.32L129.22 78.91C129.6 79.1 129.74 79.55 129.55 79.91C129.35 80.27 128.88 80.41 128.5 80.22Z" fill="#D8EDEB" fill-opacity="1.000000" fill-rule="nonzero"></path>
&#x9;&#x9;<path id="path" d="M93.12 67.23L83.69 62.66C83.31 62.47 83.17 62.01 83.36 61.65C83.56 61.29 84.03 61.15 84.4 61.34L93.83 65.92C94.21 66.11 94.36 66.56 94.16 66.92C93.96 67.28 93.49 67.42 93.12 67.23Z" fill="#D8EDEB" fill-opacity="1.000000" fill-rule="nonzero"></path>
&#x9;&#x9;<path id="path" d="M117.98 71.81C117.64 71.65 117.24 71.52 116.8 71.44C113.02 70.71 107.89 77.02 102.59 85.19C94.9 97.08 86.84 112.92 82.09 116.78C74.06 123.3 64.39 125.71 64.39 125.71C65.14 124.25 5.06 90.2 5.06 90.2C5.06 90.2 14.08 87.95 21.55 81.88C29.03 75.81 45.27 37.95 53.91 39.62C54.39 39.71 54.82 39.86 55.19 40.05L55.29 40.1L76.76 50.96L117.98 71.81Z" fill="#F0F9F8" fill-opacity="1.000000" fill-rule="nonzero"></path>
&#x9;&#x9;<path id="path" d="M96.44 80.81L81.27 72.54C80.9 72.33 80.78 71.89 81 71.56C81.21 71.23 81.69 71.13 82.06 71.34L97.23 79.61C97.6 79.82 97.72 80.26 97.5 80.59C97.29 80.92 96.81 81.02 96.44 80.81Z" fill="#D8EDEB" fill-opacity="1.000000" fill-rule="nonzero"></path>
&#x9;&#x9;<path id="path" d="M94.51 83.77L79.33 75.49C78.97 75.28 78.84 74.85 79.06 74.52C79.27 74.19 79.75 74.09 80.12 74.29L95.3 82.57C95.66 82.77 95.79 83.21 95.57 83.54C95.36 83.87 94.88 83.97 94.51 83.77Z" fill="#D8EDEB" fill-opacity="1.000000" fill-rule="nonzero"></path>
&#x9;&#x9;<path id="path" d="M92.58 86.72L77.4 78.45C77.04 78.24 76.91 77.8 77.13 77.47C77.34 77.14 77.82 77.04 78.19 77.25L93.36 85.52C93.73 85.73 93.86 86.17 93.64 86.5C93.42 86.83 92.95 86.93 92.58 86.72Z" fill="#D8EDEB" fill-opacity="1.000000" fill-rule="nonzero"></path>
&#x9;&#x9;<path id="path" d="M90.64 89.68L75.47 81.4C75.1 81.19 74.98 80.75 75.19 80.43C75.41 80.09 75.89 79.99 76.26 80.2L91.43 88.48C91.8 88.68 91.92 89.12 91.7 89.45C91.49 89.78 91.01 89.88 90.64 89.68Z" fill="#D8EDEB" fill-opacity="1.000000" fill-rule="nonzero"></path>
&#x9;&#x9;<path id="path" d="M82.76 89.3L73.54 84.35C73.17 84.14 73.05 83.71 73.26 83.38C73.48 83.05 73.95 82.95 74.32 83.15L83.54 88.1C83.91 88.31 84.03 88.74 83.82 89.07C83.6 89.4 83.12 89.5 82.76 89.3Z" fill="#D8EDEB" fill-opacity="1.000000" fill-rule="nonzero"></path>
&#x9;&#x9;<path id="path" d="M71.05 71.07C70.22 76.9 65.32 81.26 59.35 82.11C58.02 82.3 56.64 82.32 55.23 82.13C51.55 81.65 48.39 79.88 46.2 77.41C43.8 74.69 42.57 71.12 43.11 67.39C44.12 60.27 51.2 55.32 58.92 56.34C65.64 57.22 70.63 62.34 71.13 68.36C71.21 69.25 71.18 70.15 71.05 71.07Z" fill="#D8EDEB" fill-opacity="1.000000" fill-rule="nonzero"></path>
&#x9;&#x9;<path id="path" d="M71.05 71.07C70.22 76.9 65.32 81.26 59.35 82.11L56.79 68.84L71.13 68.35C71.21 69.25 71.18 70.15 71.05 71.07Z" fill="#A3CCC9" fill-opacity="1.000000" fill-rule="nonzero"></path>
&#x9;&#x9;<path id="path" d="M59.35 82.11C58.02 82.3 56.64 82.32 55.23 82.13C51.55 81.65 48.39 79.88 46.2 77.41L56.79 68.84L59.35 82.11Z" fill="#B8D6D3" fill-opacity="1.000000" fill-rule="nonzero"></path>
&#x9;&#x9;<path id="path" d="M124.19 96.99L102.59 85.19C107.89 77.02 113.02 70.71 116.8 71.44C117.24 71.52 117.63 71.65 117.98 71.81L118.14 71.89L118.64 72.19C124.26 76.11 115.72 92 124.19 96.99Z" fill="#B8D6D3" fill-opacity="1.000000" fill-rule="nonzero"></path>
&#x9;&#x9;<path id="path" d="M64.37 125.83L5 90.3L5.13 90.1L64.42 125.58C82.22 122.12 91.32 104.92 96.2 95.67C96.93 94.3 97.56 93.1 98.1 92.2L98.46 91.59C100.54 88.08 103.69 82.77 107.02 78.46C111.04 73.28 114.33 70.88 116.82 71.33C121.14 72.11 120.85 78.32 120.57 84.34C120.46 86.64 120.36 88.82 120.51 90.69C120.76 93.96 122.71 96.59 125.59 97.56C128.35 98.5 131.4 97.68 133.77 95.4C137.54 91.74 142.85 80.99 147.99 70.58C150.11 66.28 152.31 61.84 154.35 57.97C158.17 50.78 162.05 47.03 164.64 45.16C167.74 42.92 170.27 42.36 171.49 42.56C172.61 42.75 174.28 43.72 175.5 45.48C176.53 46.95 177.56 49.43 176.64 52.87C175.05 58.85 168.59 71.49 168.52 71.62L168.3 71.52C168.36 71.39 174.82 58.77 176.4 52.82C177.3 49.45 176.29 47.04 175.29 45.6C174.11 43.9 172.51 42.97 171.45 42.79C170.27 42.6 167.82 43.15 164.79 45.34C162.22 47.2 158.36 50.92 154.57 58.07C152.53 61.94 150.33 66.38 148.21 70.68C143.06 81.1 137.74 91.87 133.94 95.56C131.51 97.91 128.35 98.75 125.5 97.78C122.53 96.78 120.52 94.07 120.26 90.71C120.11 88.82 120.21 86.64 120.32 84.33C120.59 78.41 120.87 72.29 116.77 71.55C111.2 70.55 102.74 84.84 98.67 91.7L98.31 92.31C97.77 93.21 97.15 94.4 96.42 95.77C94.08 100.21 90.53 106.92 85.37 112.87C79.22 119.97 72.13 124.33 64.37 125.83Z" fill="#A3CCC9" fill-opacity="1.000000" fill-rule="nonzero"></path>
&#x9;&#x9;<path id="path" d="M32.57 80.06L79.47 105.96L75.09 109.73L28.58 83.65L32.57 80.06Z" fill="#D8EDEB" fill-opacity="1.000000" fill-rule="nonzero"></path>
&#x9;</g>
</svg>