<svg width="195.000000" height="140.000000" viewBox="0 0 195 140" fill="none" xmlns="http://www.w3.org/2000/svg" xmlns:xlink="http://www.w3.org/1999/xlink">
&#x9;<desc>
&#x9;&#x9;&#x9;Created with Pixso.
&#x9;</desc>
&#x9;<defs>
&#x9;&#x9;<clipPath id="clip201_6223">
&#x9;&#x9;&#x9;<rect id="card=CalcReserveDash" width="195.000000" height="140.000000" fill="white" fill-opacity="0"></rect>
&#x9;&#x9;</clipPath>
&#x9;&#x9;<clipPath id="clip201_6222">
&#x9;&#x9;&#x9;<rect id="reserve" width="195.000000" height="140.000000" fill="white" fill-opacity="0"></rect>
&#x9;&#x9;</clipPath>
&#x9;</defs>
&#x9;<g clip-path="url(#clip201_6222)">
&#x9;&#x9;<g clip-path="url(#clip201_6223)">
&#x9;&#x9;&#x9;<path id="path" d="M55.43 98.74C55.43 98.85 55.39 98.94 55.39 99.06C55.39 99.17 55.39 99.32 55.37 99.45C55.37 99.49 55.36 99.52 55.36 99.56C55.34 99.67 55.3 99.84 55.26 99.95C55.23 100.09 55.21 100.2 55.17 100.33C55.17 100.37 55.13 100.4 55.11 100.44C55.08 100.53 55 100.72 54.96 100.81C54.91 100.93 54.87 101.06 54.81 101.17C54.8 101.23 54.76 101.26 54.72 101.32C54.7 101.36 54.68 101.39 54.66 101.43C54.63 101.51 54.55 101.58 54.51 101.66C54.44 101.77 54.38 101.9 54.29 102.01C54.23 102.09 54.18 102.16 54.12 102.22C54.08 102.27 54.07 102.33 54.01 102.39C53.97 102.44 53.92 102.5 53.86 102.53C53.79 102.63 53.71 102.72 53.64 102.83C53.51 102.98 53.34 103.13 53.17 103.28C53.11 103.34 53.08 103.39 53.02 103.45C52.98 103.49 52.87 103.58 52.83 103.62C52.7 103.73 52.55 103.84 52.4 103.96C52.27 104.07 52.12 104.18 51.97 104.29C51.82 104.4 51.54 104.59 51.37 104.68C51.24 104.78 51.11 104.87 50.98 104.95C50.91 104.98 50.85 105.02 50.79 105.06C50.31 105.34 49.8 105.58 49.28 105.83C49.13 105.9 48.98 105.96 48.81 106.03C48.4 106.2 47.99 106.35 47.56 106.5C47.47 106.54 47.37 106.57 47.28 106.61C47.22 106.63 47.15 106.65 47.09 106.67C46.83 106.74 46.55 106.82 46.29 106.89C46.08 106.95 45.86 107 45.65 107.06C45.35 107.13 45.05 107.19 44.74 107.25C44.57 107.28 44.42 107.32 44.25 107.36C43.65 107.47 42.96 107.55 42.34 107.62C42.31 107.62 42.25 107.62 42.21 107.62C42.06 107.62 41.93 107.62 41.78 107.66C41.43 107.69 41.05 107.71 40.7 107.73C40.61 107.73 40.53 107.73 40.44 107.73C40.29 107.73 40.14 107.73 40.01 107.73C39.71 107.73 39.41 107.73 39.13 107.73C39.02 107.73 38.92 107.73 38.81 107.73C38.68 107.73 38.55 107.73 38.42 107.71C38.14 107.71 37.88 107.69 37.6 107.68C37.48 107.68 37.35 107.68 37.24 107.68C37.11 107.68 36.98 107.64 36.87 107.64C36.6 107.62 36.34 107.58 36.06 107.55C35.93 107.55 35.8 107.53 35.69 107.51C35.58 107.51 35.46 107.47 35.35 107.45C35.07 107.41 34.79 107.36 34.51 107.3C34.38 107.28 34.25 107.26 34.12 107.23C34.02 107.23 33.95 107.19 33.86 107.17C33.52 107.1 33.2 107.02 32.87 106.93C32.73 106.89 32.58 106.87 32.45 106.83C32.4 106.83 32.36 106.8 32.32 106.78C31.74 106.61 31.16 106.42 30.62 106.2C30.36 106.11 30.04 105.96 29.8 105.84C29.67 105.79 29.54 105.73 29.41 105.68C29 105.49 28.6 105.28 28.23 105.06C27.84 104.83 27.46 104.59 27.13 104.35C27.03 104.29 26.98 104.22 26.88 104.16C26.64 103.97 26.38 103.79 26.15 103.6C26.06 103.53 25.99 103.43 25.91 103.36C25.72 103.17 25.52 102.98 25.35 102.8C25.26 102.7 25.2 102.61 25.11 102.5C24.96 102.33 24.81 102.14 24.68 101.96C24.6 101.84 24.55 101.73 24.47 101.62C24.36 101.45 24.25 101.28 24.15 101.1C24.1 100.98 24.06 100.85 24 100.74C23.93 100.57 23.85 100.4 23.8 100.24C23.76 100.1 23.74 99.97 23.7 99.84C23.67 99.67 23.61 99.51 23.57 99.34C23.55 99.21 23.55 99.06 23.54 98.93C23.54 98.76 23.5 98.61 23.5 98.44L23.5 101.67C23.5 104.07 25.05 106.46 28.21 108.27C28.58 108.5 28.98 108.69 29.37 108.89C29.52 108.97 29.67 109.02 29.82 109.08C30.04 109.17 30.29 109.28 30.51 109.38C31.07 109.6 31.72 109.83 32.32 109.99C32.36 109.99 32.42 110.01 32.45 110.03C32.58 110.07 32.72 110.11 32.87 110.14C33.2 110.24 33.54 110.31 33.87 110.39C33.97 110.39 34.04 110.42 34.14 110.44C34.27 110.46 34.4 110.5 34.53 110.52C34.81 110.57 35.11 110.63 35.39 110.67C35.5 110.67 35.61 110.7 35.73 110.72C35.86 110.72 35.97 110.76 36.1 110.78C36.36 110.82 36.64 110.84 36.9 110.87C37.03 110.87 37.17 110.89 37.28 110.91C37.39 110.91 37.52 110.93 37.63 110.95C37.89 110.95 38.17 110.99 38.44 110.99C38.57 110.99 38.72 110.99 38.85 110.99C38.96 110.99 39.07 110.99 39.18 110.99C39.48 110.99 39.76 110.99 40.06 110.99C40.21 110.99 40.36 110.99 40.49 110.99C40.59 110.99 40.66 110.99 40.75 110.99C41.13 110.99 41.48 110.95 41.84 110.91C41.99 110.91 42.12 110.89 42.27 110.87C42.31 110.87 42.36 110.87 42.4 110.87C43.02 110.82 43.62 110.72 44.21 110.61C44.38 110.57 44.66 110.54 44.83 110.5C45.13 110.44 45.41 110.39 45.71 110.31C45.91 110.26 46.14 110.2 46.34 110.14C46.63 110.07 46.91 109.99 47.17 109.9C47.22 109.9 47.28 109.86 47.34 109.84C47.43 109.81 47.52 109.79 47.62 109.75C48.05 109.6 48.48 109.45 48.87 109.27C49.02 109.21 49.17 109.13 49.32 109.08C49.84 108.84 50.35 108.59 50.83 108.31C50.91 108.27 50.96 108.22 51.02 108.18C51.17 108.09 51.3 107.99 51.43 107.92C51.62 107.79 51.82 107.68 51.99 107.55C52.16 107.43 52.29 107.3 52.44 107.19C52.61 107.06 52.78 106.93 52.93 106.8C52.98 106.74 53.13 106.59 53.19 106.54C53.43 106.29 53.65 106.05 53.86 105.81C53.92 105.75 53.95 105.68 54.01 105.62C54.05 105.56 54.08 105.53 54.12 105.49C54.25 105.3 54.38 105.11 54.5 104.93C54.55 104.83 54.61 104.76 54.65 104.67C54.74 104.5 54.85 104.25 54.93 104.09C54.98 103.97 55.02 103.86 55.08 103.75C55.13 103.6 55.21 103.38 55.24 103.23C55.28 103.1 55.32 102.96 55.34 102.83C55.37 102.67 55.37 102.48 55.39 102.31C55.39 102.14 55.43 101.99 55.43 101.82L55.43 98.57C55.43 98.57 55.43 98.68 55.43 98.74Z" fill="#A3CCC9" fill-opacity="1.000000" fill-rule="nonzero"></path>
&#x9;&#x9;&#x9;<path id="path" d="M23.48 99.02C23.48 99.15 23.48 99.3 23.52 99.43C23.56 99.6 23.59 99.77 23.65 99.94C23.69 100.07 23.7 100.2 23.74 100.33C23.8 100.5 23.87 100.66 23.95 100.83C24 100.95 24.04 101.08 24.1 101.19C24.19 101.36 24.3 101.53 24.42 101.71C24.49 101.82 24.55 101.94 24.62 102.05C24.75 102.24 24.9 102.4 25.05 102.59C25.13 102.68 25.2 102.78 25.29 102.89C25.46 103.08 25.67 103.26 25.85 103.45C25.93 103.53 26 103.62 26.1 103.69C26.32 103.88 26.57 104.07 26.83 104.25C26.9 104.31 26.98 104.39 27.07 104.44C27.41 104.68 27.78 104.93 28.17 105.15C28.55 105.38 28.94 105.56 29.35 105.77C29.48 105.83 29.61 105.88 29.74 105.94C30.02 106.07 30.29 106.18 30.57 106.29C31.13 106.5 31.69 106.7 32.27 106.87C32.45 106.93 32.64 106.97 32.83 107.02C33.15 107.12 33.48 107.19 33.82 107.26C34.04 107.32 34.27 107.36 34.49 107.4C34.77 107.45 35.05 107.51 35.33 107.55C35.58 107.58 35.82 107.62 36.04 107.64C36.31 107.68 36.57 107.69 36.85 107.73C37.09 107.75 37.33 107.77 37.58 107.79C37.86 107.81 38.12 107.83 38.4 107.83C38.64 107.83 38.87 107.83 39.11 107.84C39.41 107.84 39.71 107.84 39.99 107.84C40.21 107.84 40.46 107.84 40.68 107.84C41.04 107.84 41.41 107.81 41.77 107.77C41.95 107.77 42.14 107.75 42.33 107.71C42.94 107.66 43.54 107.56 44.16 107.45C44.35 107.41 44.53 107.38 44.74 107.34C45.04 107.28 45.35 107.23 45.65 107.15C45.86 107.1 46.08 107.04 46.29 106.98C46.57 106.91 46.83 106.83 47.09 106.76C47.26 106.7 47.41 106.65 47.56 106.59C47.99 106.44 48.4 106.29 48.81 106.12C48.96 106.07 49.13 105.99 49.28 105.92C49.8 105.68 50.31 105.43 50.8 105.15C51.19 104.93 51.54 104.68 51.88 104.44C52.18 104.22 52.55 103.92 52.81 103.69C53.06 103.47 53.39 103.13 53.62 102.91C53.71 102.82 53.77 102.72 53.84 102.61C53.99 102.44 54.14 102.25 54.27 102.09C54.35 101.97 54.42 101.84 54.5 101.73C54.59 101.56 54.7 101.41 54.8 101.24C54.85 101.13 54.89 101 54.95 100.89C55.02 100.72 55.1 100.55 55.15 100.38C55.19 100.25 55.21 100.14 55.24 100.01C55.28 99.84 55.34 99.67 55.38 99.51C55.81 96.85 54.25 94.1 50.72 92.06C48.36 90.7 45.47 89.86 42.46 89.52C40.61 89.32 38.7 89.3 36.85 89.48C36.68 89.48 36.51 89.5 36.34 89.52C33.35 89.88 30.42 90.72 28.1 92.05C26.79 92.81 25.76 93.67 25.01 94.61C23.99 95.86 23.46 97.22 23.46 98.57C23.46 98.74 23.46 98.85 23.48 99.02Z" fill="#CCE3E1" fill-opacity="1.000000" fill-rule="nonzero"></path>
&#x9;&#x9;&#x9;<path id="path" d="M38.33 107.73C38.33 107.84 38.31 107.94 38.29 108.05C38.29 108.16 38.29 108.33 38.25 108.44C38.25 108.48 38.25 108.52 38.23 108.56C38.21 108.67 38.18 108.84 38.14 108.95C38.1 109.08 38.08 109.19 38.05 109.32C38.05 109.36 38.01 109.4 37.99 109.43C37.95 109.53 37.86 109.71 37.82 109.81C37.77 109.92 37.73 110.05 37.67 110.16C37.65 110.22 37.62 110.26 37.58 110.31C37.56 110.35 37.54 110.39 37.52 110.42C37.48 110.5 37.43 110.57 37.37 110.65C37.3 110.76 37.24 110.89 37.15 111C37.09 111.08 37.04 111.15 36.98 111.21C36.94 111.27 36.91 111.32 36.87 111.38C36.83 111.43 36.77 111.47 36.72 111.53C36.64 111.62 36.57 111.71 36.49 111.83C36.36 111.98 36.19 112.13 36.03 112.28C35.97 112.33 35.93 112.39 35.88 112.44C35.84 112.48 35.73 112.57 35.69 112.61C35.56 112.72 35.41 112.84 35.26 112.95C35.13 113.06 34.98 113.17 34.83 113.29C34.68 113.4 34.4 113.58 34.23 113.68C34.1 113.77 33.99 113.86 33.84 113.94C33.78 113.98 33.71 114.01 33.65 114.05C33.17 114.33 32.66 114.58 32.14 114.82C31.99 114.89 31.84 114.95 31.69 115.01C31.28 115.17 30.87 115.34 30.44 115.49C30.34 115.53 30.25 115.57 30.16 115.6C30.1 115.6 30.04 115.64 29.99 115.66C29.71 115.75 29.45 115.83 29.17 115.9C28.96 115.96 28.75 116.01 28.55 116.07C28.25 116.15 27.95 116.2 27.63 116.26C27.46 116.3 27.31 116.33 27.15 116.37C26.55 116.48 25.86 116.56 25.24 116.63C25.2 116.63 25.15 116.63 25.11 116.63C24.96 116.63 24.83 116.63 24.68 116.67C24.32 116.71 23.95 116.73 23.59 116.74C23.5 116.74 23.43 116.74 23.33 116.74C23.18 116.74 23.05 116.74 22.9 116.74C22.6 116.74 22.3 116.74 22 116.74C21.89 116.74 21.8 116.74 21.69 116.74C21.56 116.74 21.43 116.74 21.29 116.73C21.01 116.73 20.75 116.71 20.47 116.69C20.36 116.69 20.23 116.69 20.12 116.69C19.99 116.69 19.85 116.65 19.72 116.65C19.46 116.63 19.2 116.59 18.94 116.56C18.81 116.56 18.68 116.54 18.56 116.52C18.45 116.52 18.34 116.48 18.23 116.46C17.95 116.43 17.67 116.37 17.39 116.31C17.26 116.3 17.12 116.28 16.99 116.24C16.9 116.24 16.83 116.2 16.73 116.16C16.4 116.09 16.06 116.01 15.74 115.92C15.61 115.88 15.46 115.87 15.33 115.83C15.27 115.83 15.24 115.79 15.2 115.77C14.62 115.6 14.04 115.42 13.48 115.19C13.24 115.1 12.9 114.95 12.66 114.84C12.53 114.78 12.38 114.72 12.25 114.67C11.83 114.48 11.44 114.28 11.07 114.05C10.67 113.83 10.3 113.58 9.96 113.34C9.87 113.27 9.78 113.19 9.68 113.12C9.44 112.95 9.22 112.76 8.99 112.57C8.9 112.48 8.81 112.39 8.71 112.31C8.52 112.14 8.34 111.96 8.17 111.79C8.08 111.68 8 111.57 7.91 111.45C7.78 111.28 7.63 111.12 7.52 110.95C7.42 110.84 7.37 110.71 7.29 110.59C7.2 110.42 7.09 110.28 6.99 110.11C6.94 109.98 6.88 109.86 6.82 109.73C6.75 109.56 6.67 109.4 6.62 109.23C6.58 109.1 6.56 108.99 6.52 108.85C6.49 108.69 6.43 108.52 6.39 108.35C6.37 108.24 6.37 108.11 6.36 107.98C6.36 107.81 6.32 107.64 6.32 107.47L6.32 110.69C6.32 113.08 7.87 115.47 11.03 117.29C11.4 117.51 11.8 117.72 12.21 117.9C12.34 117.96 12.49 118.02 12.62 118.09C12.86 118.2 13.09 118.3 13.33 118.39C13.89 118.61 14.56 118.84 15.14 119.01C15.18 119.01 15.24 119.02 15.27 119.04C15.4 119.08 15.54 119.12 15.67 119.16C16 119.25 16.34 119.32 16.68 119.4C16.77 119.42 16.84 119.44 16.94 119.45C17.07 119.47 17.2 119.51 17.33 119.53C17.61 119.59 17.91 119.64 18.19 119.68C18.3 119.68 18.41 119.72 18.53 119.74C18.66 119.74 18.77 119.77 18.9 119.79C19.16 119.83 19.44 119.85 19.7 119.88C19.84 119.88 19.95 119.9 20.08 119.92C20.21 119.92 20.32 119.94 20.43 119.96C20.7 119.96 20.98 120 21.24 120C21.37 120 21.52 120 21.65 120C21.76 120 21.87 120 21.99 120C22.29 120 22.57 120 22.86 120C23.01 120 23.16 120 23.31 120C23.41 120 23.48 120 23.58 120C23.95 120 24.3 119.96 24.66 119.92C24.81 119.92 24.94 119.9 25.09 119.88C25.13 119.88 25.18 119.88 25.22 119.88C25.84 119.83 26.44 119.74 27.03 119.64C27.22 119.6 27.48 119.55 27.65 119.51C27.95 119.45 28.23 119.4 28.51 119.32C28.74 119.27 28.94 119.21 29.15 119.16C29.43 119.08 29.69 119.01 29.97 118.91C30.03 118.91 30.08 118.88 30.14 118.86C30.23 118.82 30.32 118.78 30.42 118.76C30.85 118.61 31.26 118.46 31.67 118.3C31.82 118.22 31.99 118.16 32.14 118.09C32.66 117.85 33.17 117.6 33.65 117.32C33.73 117.29 33.78 117.23 33.84 117.19C33.99 117.1 34.14 117.01 34.29 116.91C34.47 116.8 34.66 116.67 34.83 116.56C35 116.44 35.15 116.31 35.3 116.18C35.47 116.05 35.62 115.92 35.76 115.79C35.8 115.75 35.84 115.72 35.88 115.7C35.93 115.64 35.99 115.58 36.05 115.53C36.29 115.29 36.51 115.06 36.72 114.82C36.77 114.76 36.83 114.69 36.87 114.63C36.91 114.58 36.94 114.54 36.98 114.48C37.11 114.29 37.24 114.11 37.35 113.92C37.41 113.83 37.47 113.75 37.52 113.66C37.62 113.49 37.73 113.25 37.8 113.08C37.86 112.97 37.9 112.86 37.95 112.74C38.01 112.59 38.06 112.37 38.1 112.22C38.14 112.09 38.18 111.96 38.2 111.83C38.23 111.66 38.23 111.47 38.25 111.3C38.25 111.14 38.29 110.99 38.29 110.82L38.29 107.56C38.29 107.56 38.33 107.68 38.33 107.73Z" fill="#A3CCC9" fill-opacity="1.000000" fill-rule="nonzero"></path>
&#x9;&#x9;&#x9;<path id="path" d="M6.41 108.41C6.43 108.57 6.49 108.74 6.54 108.91C6.58 109.04 6.6 109.17 6.64 109.28C6.69 109.45 6.77 109.62 6.84 109.79C6.9 109.92 6.94 110.03 7.01 110.16C7.1 110.33 7.2 110.48 7.31 110.65C7.38 110.76 7.44 110.89 7.53 111C7.65 111.17 7.8 111.34 7.93 111.51C8.02 111.62 8.09 111.73 8.19 111.85C8.36 112.01 8.54 112.2 8.73 112.37C8.82 112.46 8.9 112.56 9.01 112.63C9.22 112.82 9.46 112.99 9.7 113.17C9.8 113.25 9.87 113.32 9.98 113.4C10.34 113.64 10.69 113.88 11.09 114.11C11.46 114.33 11.85 114.52 12.26 114.72C12.39 114.78 12.53 114.84 12.68 114.89C12.94 115.01 13.22 115.14 13.5 115.25C14.06 115.45 14.62 115.66 15.22 115.83C15.4 115.88 15.59 115.92 15.76 115.98C16.08 116.07 16.41 116.15 16.75 116.22C16.98 116.28 17.2 116.31 17.42 116.35C17.7 116.41 17.98 116.44 18.27 116.5C18.51 116.54 18.75 116.58 18.99 116.59C19.26 116.63 19.52 116.65 19.78 116.69C20.02 116.71 20.27 116.73 20.53 116.74C20.81 116.74 21.07 116.78 21.35 116.78C21.59 116.78 21.82 116.78 22.06 116.8C22.36 116.8 22.66 116.8 22.96 116.8C23.18 116.8 23.43 116.8 23.65 116.78C24.01 116.78 24.38 116.74 24.73 116.71C24.92 116.71 25.11 116.69 25.3 116.65C25.91 116.59 26.53 116.5 27.13 116.39C27.31 116.35 27.52 116.31 27.71 116.28C28.01 116.22 28.32 116.16 28.62 116.09C28.83 116.03 29.03 115.98 29.24 115.92C29.52 115.85 29.8 115.77 30.06 115.68C30.21 115.62 30.36 115.57 30.51 115.53C30.94 115.38 31.35 115.23 31.76 115.04C31.91 114.99 32.06 114.91 32.21 114.86C32.74 114.61 33.24 114.37 33.73 114.09C34.12 113.86 34.47 113.62 34.81 113.38C35.11 113.15 35.48 112.86 35.75 112.63C36.01 112.41 36.33 112.07 36.55 111.85C36.64 111.75 36.7 111.66 36.77 111.55C36.92 111.38 37.07 111.19 37.19 111.02C37.26 110.91 37.34 110.78 37.41 110.67C37.5 110.5 37.62 110.35 37.71 110.18C37.77 110.07 37.8 109.94 37.86 109.83C37.93 109.66 38.01 109.49 38.06 109.32C38.1 109.19 38.12 109.08 38.16 108.95C38.2 108.78 38.25 108.61 38.29 108.44C38.31 108.33 38.31 108.2 38.33 108.09C38.46 106.72 38.08 105.34 37.19 104.05C36.4 102.93 35.22 101.88 33.65 100.98C32.27 100.18 30.7 99.58 29.03 99.13C24.77 97.99 19.84 97.99 15.59 99.13C13.95 99.58 12.38 100.18 11.03 100.98C9.72 101.75 8.69 102.61 7.93 103.54C6.9 104.8 6.37 106.14 6.37 107.51C6.37 107.68 6.34 107.86 6.36 108.03C6.36 108.14 6.37 108.27 6.41 108.41Z" fill="#D0EAE7" fill-opacity="1.000000" fill-rule="nonzero"></path>
&#x9;&#x9;&#x9;<path id="path" d="M118.68 58.37L118.49 119.3L156.5 97.22L156.67 36.29L118.68 58.37Z" fill="#D8F0ED" fill-opacity="1.000000" fill-rule="nonzero"></path>
&#x9;&#x9;&#x9;<path id="path" d="M118.68 58.37L118.49 119.31L67.47 89.84L67.64 28.91L118.68 58.37Z" fill="#A3CCC9" fill-opacity="1.000000" fill-rule="nonzero"></path>
&#x9;&#x9;&#x9;<path id="path" d="M156.67 36.29L118.68 58.37L67.64 28.91L105.65 6.83L156.67 36.29Z" fill="#D0EAE7" fill-opacity="1.000000" fill-rule="nonzero"></path>
&#x9;&#x9;&#x9;<path id="path" d="M110.47 63.12L110.34 107.13L108.71 108.09L108.84 64.08L110.47 63.12Z" fill="#D8F0ED" fill-opacity="1.000000" fill-rule="nonzero"></path>
&#x9;&#x9;&#x9;<path id="path" d="M108.84 64.08L108.71 108.09L71.86 86.81L71.98 42.8L108.84 64.08Z" fill="#C3DFDC" fill-opacity="1.000000" fill-rule="nonzero"></path>
&#x9;&#x9;&#x9;<path id="path" d="M110.47 63.12L108.84 64.08L71.97 42.8L73.62 41.85L110.47 63.12Z" fill="#D0EAE7" fill-opacity="1.000000" fill-rule="nonzero"></path>
&#x9;&#x9;&#x9;<path id="path" d="M74.46 61.46C74.26 61.57 74.02 61.68 73.77 61.76C73.7 61.78 73.6 61.82 73.51 61.83C73.4 61.87 73.29 61.89 73.16 61.93C73.16 61.93 73.08 61.93 73.04 61.95C72.82 61.98 72.6 62.02 72.37 62.02C72.26 62.02 72.17 62.02 72.05 62.04C71.36 62.04 70.67 61.93 70.07 61.7C69.88 61.63 69.72 61.55 69.55 61.46C69.38 61.37 69.23 61.25 69.1 61.14C69.01 61.05 68.86 60.88 68.78 60.79C68.76 60.75 68.74 60.71 68.73 60.67C68.67 60.58 68.61 60.51 68.59 60.41C68.59 60.38 68.59 60.32 68.58 60.28C68.58 60.21 68.54 60.11 68.54 60.04L68.5 72.81C68.5 73.33 68.84 73.84 69.53 74.25C69.68 74.34 69.85 74.42 70.03 74.49C70.05 74.49 70.11 74.49 70.15 74.51C70.26 74.55 70.35 74.58 70.46 74.62C70.52 74.62 70.58 74.66 70.63 74.66C70.67 74.66 70.78 74.68 70.82 74.7C70.93 74.72 71.04 74.73 71.16 74.75C71.19 74.75 71.25 74.75 71.29 74.75C71.32 74.75 71.45 74.75 71.49 74.75C71.6 74.75 71.72 74.75 71.83 74.75C71.87 74.75 71.9 74.75 71.94 74.75C72 74.75 72.13 74.75 72.17 74.75C72.3 74.75 72.43 74.75 72.56 74.73C72.6 74.73 72.67 74.73 72.71 74.73C72.8 74.73 72.91 74.72 73.01 74.7C73.06 74.7 73.1 74.68 73.14 74.66C73.25 74.64 73.36 74.6 73.47 74.57C73.53 74.57 73.6 74.55 73.66 74.53C73.9 74.45 74.22 74.3 74.43 74.19C74.5 74.15 74.58 74.08 74.65 74.04C74.73 73.99 74.82 73.93 74.89 73.87L74.91 61.12C74.78 61.24 74.63 61.35 74.46 61.46Z" fill="#B8D6D3" fill-opacity="1.000000" fill-rule="nonzero"></path>
&#x9;&#x9;&#x9;<path id="path" d="M68.6 60.43C68.6 60.43 68.67 60.6 68.73 60.69C68.75 60.73 68.76 60.77 68.78 60.81C68.84 60.9 68.93 60.97 69.03 61.07C69.16 61.18 69.38 61.38 69.55 61.48C69.72 61.57 69.89 61.67 70.07 61.72C70.67 61.95 71.36 62.06 72.05 62.06C72.17 62.06 72.28 62.06 72.37 62.04C72.6 62.04 72.82 62 73.05 61.96C73.08 61.96 73.12 61.96 73.16 61.95C73.27 61.93 73.38 61.89 73.51 61.85C73.61 61.83 73.7 61.8 73.77 61.78C74.02 61.7 74.24 61.59 74.47 61.48C74.65 61.38 74.78 61.25 74.91 61.14L71.92 59.53L71.92 58.06C71.06 58.06 70.2 58.26 69.55 58.64C68.88 59.03 68.54 59.53 68.54 60.06C68.54 60.06 68.56 60.23 68.58 60.3C68.58 60.34 68.58 60.39 68.6 60.43Z" fill="#99C7C4" fill-opacity="1.000000" fill-rule="nonzero"></path>
&#x9;&#x9;&#x9;<path id="path" d="M106.55 69.76C106.55 69.76 106.55 69.67 106.55 69.63C106.55 69.59 106.55 69.54 106.55 69.5C106.55 69.46 106.55 69.41 106.55 69.37C106.55 69.33 106.55 69.27 106.55 69.24C106.55 69.24 106.53 69.14 106.51 69.11C106.51 69.05 106.49 69.01 106.47 68.98C106.47 68.92 106.45 68.88 106.44 68.83C106.44 68.77 106.42 68.73 106.4 68.68C106.4 68.64 106.4 68.6 106.38 68.56C106.38 68.53 106.34 68.45 106.32 68.41C106.32 68.38 106.29 68.32 106.27 68.28C106.27 68.25 106.23 68.19 106.21 68.15C106.21 68.12 106.17 68.06 106.15 68.02C106.15 68.02 106.12 67.93 106.12 67.91C106.1 67.87 106.08 67.82 106.04 67.78C106.02 67.72 106.01 67.69 105.97 67.65C105.95 67.59 105.91 67.54 105.89 67.48C105.86 67.42 105.84 67.37 105.8 67.31C105.74 67.2 105.63 67.03 105.56 66.92C105.5 66.84 105.46 66.75 105.41 66.68C105.37 66.62 105.33 66.58 105.28 66.53C105.24 66.49 105.2 66.43 105.16 66.4C105.13 66.36 105.09 66.32 105.07 66.26C105.03 66.23 105.01 66.19 104.98 66.15C104.94 66.11 104.81 65.98 104.77 65.95C104.73 65.91 104.7 65.87 104.66 65.83C104.62 65.8 104.58 65.76 104.55 65.72C104.51 65.68 104.38 65.57 104.32 65.54C104.29 65.5 104.25 65.48 104.21 65.46C104.17 65.44 104.14 65.4 104.1 65.39C104.06 65.37 104.02 65.33 103.99 65.31C103.95 65.31 103.91 65.29 103.87 65.27C103.84 65.25 103.8 65.24 103.76 65.22C103.72 65.22 103.69 65.18 103.65 65.16C103.61 65.16 103.57 65.12 103.54 65.12C103.54 65.12 103.44 65.07 103.43 65.07C103.39 65.07 103.26 65.05 103.22 65.03C103.18 65.03 103.14 65.03 103.11 65.01C103.07 65.01 103.03 64.99 103 64.99C103 64.99 102.9 64.99 102.88 64.99C102.83 64.99 102.79 64.99 102.73 64.99C102.7 64.99 102.64 64.99 102.58 64.99C102.55 64.99 102.49 64.99 102.45 64.99C102.36 64.99 102.27 65.05 102.17 65.11C102.14 65.12 102.08 65.12 102.04 65.16L100.34 66.15C100.4 66.11 100.47 66.08 100.55 66.06C100.6 66.04 100.66 66.02 100.73 66C100.73 66 100.85 66 100.9 65.98C100.94 65.98 100.99 65.98 101.05 65.98C101.09 65.98 101.13 65.98 101.18 65.98C101.22 65.98 101.35 65.98 101.39 66C101.42 66 101.46 66 101.5 66.02C101.54 66.02 101.57 66.02 101.61 66.06C101.65 66.06 101.78 66.1 101.82 66.11C101.85 66.11 101.89 66.13 101.93 66.15C101.97 66.15 102 66.19 102.04 66.21C102.08 66.21 102.12 66.25 102.15 66.26C102.15 66.26 102.27 66.32 102.28 66.32C102.32 66.34 102.36 66.36 102.4 66.4C102.43 66.41 102.47 66.45 102.51 66.47C102.55 66.49 102.58 66.53 102.62 66.54C102.66 66.58 102.7 66.6 102.73 66.64C102.75 66.64 102.81 66.73 102.83 66.75C102.86 66.79 102.9 66.83 102.94 66.86C102.98 66.9 103.01 66.94 103.05 66.97C103.09 67.01 103.13 67.05 103.16 67.09C103.16 67.09 103.26 67.2 103.28 67.22C103.31 67.26 103.35 67.29 103.39 67.33C103.43 67.37 103.46 67.4 103.5 67.46C103.54 67.5 103.57 67.55 103.61 67.59C103.65 67.65 103.69 67.69 103.72 67.74C103.78 67.82 103.84 67.91 103.89 67.98C103.97 68.08 104.02 68.19 104.1 68.3C104.14 68.36 104.19 68.47 104.21 68.53C104.23 68.58 104.27 68.64 104.29 68.69C104.3 68.73 104.32 68.79 104.36 68.84C104.36 68.88 104.4 68.94 104.42 68.98C104.42 68.98 104.45 69.07 104.45 69.09C104.47 69.12 104.49 69.18 104.51 69.22C104.51 69.26 104.55 69.31 104.57 69.35C104.57 69.39 104.6 69.44 104.6 69.48C104.6 69.54 104.64 69.57 104.66 69.63C104.66 69.67 104.68 69.72 104.7 69.76C104.7 69.82 104.72 69.85 104.73 69.91C104.73 69.95 104.75 70 104.77 70.06C104.77 70.12 104.79 70.15 104.81 70.21C104.81 70.25 104.81 70.3 104.83 70.34C104.83 70.38 104.83 70.43 104.83 70.47C104.83 70.51 104.83 70.56 104.83 70.6C104.83 70.64 104.83 70.7 104.83 70.73C104.83 70.77 104.83 70.83 104.83 70.86C104.83 70.9 104.83 70.94 104.83 70.99C104.83 70.99 104.83 71.09 104.83 71.14C104.83 71.18 104.83 71.24 104.83 71.27C104.83 71.31 104.83 71.37 104.83 71.41C104.83 71.44 104.83 71.5 104.83 71.54C104.83 71.56 104.83 71.63 104.83 71.65C104.83 71.7 104.81 71.74 104.79 71.78C104.79 71.84 104.77 71.87 104.73 71.93C104.73 71.97 104.7 72.02 104.68 72.06C104.68 72.06 104.6 72.19 104.57 72.25C104.53 72.28 104.51 72.32 104.47 72.36C104.47 72.36 104.42 72.45 104.4 72.47C104.3 72.56 104.21 72.64 104.1 72.71L105.8 71.72C105.91 71.67 106.01 71.57 106.1 71.48C106.12 71.44 106.21 71.31 106.25 71.27C106.29 71.2 106.34 71.14 106.38 71.07C106.4 71.03 106.42 70.98 106.44 70.92C106.44 70.88 106.47 70.83 106.49 70.77C106.49 70.73 106.53 70.68 106.53 70.62C106.53 70.62 106.55 70.49 106.55 70.47C106.55 70.43 106.55 70.38 106.55 70.34C106.55 70.3 106.55 70.25 106.55 70.21C106.55 70.17 106.55 70.12 106.55 70.08C106.55 70.02 106.55 69.98 106.55 69.95C106.55 69.91 106.55 69.8 106.55 69.76Z" fill="#D0EAE7" fill-opacity="1.000000" fill-rule="nonzero"></path>
&#x9;&#x9;&#x9;<path id="path" d="M102.13 72.42C103.05 72.94 103.87 72.88 104.36 72.38C104.45 72.27 104.57 72.12 104.64 71.97C104.71 71.82 104.75 71.67 104.79 71.48C104.83 71.29 104.85 71.11 104.85 70.88C104.85 70.66 104.85 70.45 104.79 70.23C104.75 70 104.7 69.8 104.64 69.57C104.57 69.35 104.49 69.09 104.4 68.88C104.3 68.66 104.19 68.45 104.08 68.25C103.84 67.83 103.54 67.4 103.22 67.07C103.07 66.9 102.9 66.75 102.71 66.6C102.55 66.47 102.36 66.32 102.17 66.21C101.99 66.1 101.8 66.02 101.63 65.97C101.46 65.91 101.29 65.87 101.13 65.85C100.81 65.83 100.51 65.89 100.27 66.02C99.78 66.3 99.46 66.9 99.46 67.76C99.46 69.48 100.64 71.56 102.13 72.42Z" fill="#A3CCC9" fill-opacity="1.000000" fill-rule="nonzero"></path>
&#x9;&#x9;&#x9;<path id="path" d="M106.55 100.1C106.55 100.1 106.55 100.01 106.55 99.97C106.55 99.94 106.55 99.88 106.55 99.84C106.55 99.81 106.55 99.75 106.55 99.71C106.55 99.67 106.55 99.62 106.55 99.56C106.55 99.56 106.53 99.47 106.51 99.43C106.51 99.39 106.49 99.34 106.47 99.3C106.47 99.26 106.45 99.21 106.44 99.15C106.44 99.09 106.42 99.06 106.4 99C106.4 98.96 106.4 98.93 106.38 98.89C106.38 98.83 106.34 98.78 106.32 98.74C106.32 98.68 106.29 98.65 106.27 98.61C106.27 98.57 106.23 98.52 106.21 98.48C106.21 98.44 106.17 98.38 106.15 98.35C106.15 98.35 106.12 98.25 106.12 98.23C106.1 98.2 106.08 98.14 106.04 98.1C106.02 98.07 106.01 98.01 105.97 97.97C105.95 97.92 105.91 97.86 105.89 97.8C105.86 97.75 105.84 97.69 105.8 97.64C105.74 97.52 105.63 97.36 105.56 97.24C105.5 97.17 105.46 97.08 105.41 97C105.37 96.94 105.33 96.91 105.28 96.85C105.24 96.81 105.2 96.76 105.16 96.72C105.13 96.68 105.09 96.65 105.07 96.59C105.03 96.55 105.01 96.51 104.98 96.48C104.94 96.44 104.81 96.31 104.77 96.27C104.73 96.23 104.7 96.2 104.66 96.16C104.62 96.12 104.58 96.08 104.55 96.05C104.51 96.01 104.38 95.9 104.32 95.86C104.29 95.82 104.25 95.8 104.21 95.79C104.17 95.77 104.14 95.73 104.1 95.71C104.06 95.69 104.02 95.65 103.99 95.64C103.95 95.62 103.91 95.62 103.87 95.6C103.84 95.58 103.8 95.56 103.76 95.54C103.72 95.54 103.69 95.51 103.65 95.49C103.61 95.49 103.57 95.45 103.54 95.43C103.54 95.43 103.44 95.39 103.43 95.39C103.39 95.39 103.26 95.37 103.22 95.36C103.18 95.36 103.14 95.34 103.11 95.34C103.07 95.34 103.03 95.32 103 95.32C103 95.32 102.9 95.32 102.88 95.32C102.83 95.32 102.79 95.32 102.73 95.32C102.7 95.32 102.64 95.32 102.58 95.32C102.55 95.32 102.49 95.32 102.45 95.32C102.36 95.34 102.27 95.37 102.17 95.43C102.14 95.45 102.08 95.45 102.04 95.49L100.34 96.48C100.4 96.44 100.47 96.4 100.55 96.38C100.6 96.37 100.66 96.35 100.73 96.33C100.73 96.33 100.85 96.31 100.9 96.31C100.94 96.31 100.99 96.31 101.05 96.31C101.09 96.31 101.13 96.31 101.18 96.31C101.22 96.31 101.35 96.31 101.39 96.31C101.42 96.31 101.46 96.31 101.5 96.35C101.54 96.35 101.57 96.35 101.61 96.38C101.65 96.38 101.78 96.44 101.82 96.44C101.85 96.44 101.89 96.48 101.93 96.48C101.97 96.48 102 96.51 102.04 96.53C102.08 96.53 102.12 96.57 102.15 96.59C102.15 96.59 102.27 96.65 102.28 96.65C102.32 96.66 102.36 96.7 102.4 96.72C102.43 96.74 102.47 96.78 102.51 96.8C102.55 96.81 102.58 96.85 102.62 96.87C102.66 96.89 102.7 96.93 102.73 96.96C102.77 97 102.9 97.13 102.94 97.17C102.98 97.21 103.01 97.24 103.05 97.28C103.09 97.32 103.13 97.36 103.16 97.39C103.16 97.39 103.26 97.51 103.28 97.52C103.31 97.56 103.35 97.6 103.39 97.64C103.43 97.67 103.46 97.71 103.5 97.77C103.54 97.82 103.57 97.84 103.61 97.9C103.65 97.95 103.69 98.01 103.72 98.05C103.78 98.12 103.84 98.2 103.89 98.29C103.97 98.4 104.02 98.5 104.1 98.61C104.14 98.66 104.19 98.8 104.21 98.85C104.23 98.91 104.27 98.96 104.29 99.02C104.3 99.08 104.32 99.11 104.36 99.17C104.36 99.21 104.4 99.26 104.42 99.3C104.42 99.3 104.45 99.39 104.45 99.41C104.47 99.45 104.49 99.51 104.51 99.54C104.51 99.58 104.55 99.64 104.57 99.67C104.57 99.73 104.6 99.77 104.6 99.81C104.6 99.86 104.64 99.9 104.66 99.94C104.66 99.97 104.68 100.03 104.7 100.07C104.7 100.12 104.72 100.16 104.73 100.22C104.73 100.27 104.75 100.31 104.77 100.37C104.77 100.4 104.79 100.46 104.81 100.5C104.81 100.53 104.81 100.59 104.83 100.63C104.83 100.67 104.83 100.72 104.83 100.76C104.83 100.8 104.83 100.85 104.83 100.89C104.83 100.93 104.83 100.98 104.83 101.02C104.83 101.06 104.83 101.11 104.83 101.15C104.83 101.19 104.83 101.25 104.83 101.28C104.83 101.28 104.83 101.38 104.83 101.43C104.83 101.47 104.83 101.53 104.83 101.56C104.83 101.6 104.83 101.66 104.83 101.69C104.83 101.73 104.83 101.79 104.83 101.82C104.83 101.84 104.83 101.92 104.83 101.94C104.83 101.99 104.81 102.03 104.79 102.07C104.79 102.12 104.77 102.16 104.73 102.22C104.73 102.25 104.7 102.31 104.68 102.35C104.68 102.35 104.6 102.48 104.57 102.54C104.53 102.57 104.51 102.61 104.47 102.65C104.47 102.65 104.42 102.74 104.4 102.76C104.3 102.85 104.21 102.93 104.1 103L105.8 102.01C105.91 101.96 106.01 101.86 106.1 101.77C106.12 101.75 106.21 101.6 106.25 101.58C106.29 101.51 106.34 101.45 106.38 101.38C106.4 101.34 106.42 101.28 106.44 101.23C106.44 101.17 106.47 101.13 106.49 101.08C106.49 101.02 106.53 100.98 106.53 100.93C106.53 100.93 106.55 100.8 106.55 100.78C106.55 100.74 106.55 100.68 106.55 100.65C106.55 100.61 106.55 100.55 106.55 100.52C106.55 100.48 106.55 100.42 106.55 100.39C106.55 100.33 106.55 100.29 106.55 100.25C106.55 100.22 106.55 100.14 106.55 100.1Z" fill="#D0EAE7" fill-opacity="1.000000" fill-rule="nonzero"></path>
&#x9;&#x9;&#x9;<path id="path" d="M104.4 102.68C104.49 102.57 104.57 102.46 104.64 102.31C104.71 102.16 104.75 102.01 104.79 101.82C104.83 101.64 104.85 101.45 104.85 101.23C104.85 101 104.85 100.8 104.79 100.57C104.75 100.35 104.7 100.14 104.64 99.92C104.57 99.69 104.49 99.43 104.4 99.23C104.3 99 104.19 98.8 104.08 98.59C103.84 98.18 103.54 97.75 103.22 97.39C103.07 97.22 102.9 97.08 102.71 96.93C102.55 96.78 102.36 96.66 102.17 96.55C101.99 96.44 101.8 96.36 101.63 96.31C101.46 96.25 101.29 96.22 101.13 96.2C100.81 96.16 100.51 96.22 100.27 96.36C99.78 96.65 99.46 97.24 99.46 98.1C99.46 99.82 100.66 101.92 102.15 102.78C103.07 103.32 103.91 103.19 104.4 102.68Z" fill="#A3CCC9" fill-opacity="1.000000" fill-rule="nonzero"></path>
&#x9;&#x9;&#x9;<path id="path" d="" fill="#A3CCC9" fill-opacity="1.000000" fill-rule="nonzero"></path>
&#x9;&#x9;&#x9;<path id="path" d="M101.44 97.71C101.35 97.77 101.26 97.82 101.16 97.86C101.16 97.92 101.09 98.01 101.11 98.07C101.11 98.12 101.14 98.2 101.16 98.25C101.18 98.31 101.2 98.35 101.22 98.4C101.24 98.44 101.27 98.48 101.29 98.53C101.33 98.57 101.42 98.7 101.48 98.74C101.52 98.78 101.55 98.79 101.59 98.83C101.59 98.83 101.76 98.93 101.8 98.94C101.83 98.94 101.91 98.98 101.95 98.98C101.98 98.98 102.02 98.98 102.06 98.98C102.08 98.98 102.19 98.98 102.21 98.98C102.23 98.98 102.36 98.98 102.38 98.98C102.43 98.98 102.49 98.96 102.55 98.94C102.56 98.94 102.68 98.93 102.7 98.91C102.79 98.87 102.99 98.79 103.09 98.72L101.44 97.71Z" fill="#A3CCC9" fill-opacity="1.000000" fill-rule="nonzero"></path>
&#x9;&#x9;&#x9;<path id="path" d="M101.35 67.01C101.01 67.2 100.68 67.44 100.36 67.7C100.27 67.78 100.17 67.87 100.06 67.97C99.91 68.1 99.76 68.25 99.61 68.4C99.54 68.47 99.46 68.53 99.39 68.6C99.33 68.66 99.27 68.71 99.22 68.79C99.14 68.86 99.11 68.94 99.03 69.01C98.88 69.18 98.73 69.35 98.6 69.54C98.55 69.59 98.49 69.67 98.45 69.72C98.41 69.78 98.3 69.95 98.25 70C98.13 70.15 98.04 70.3 97.95 70.47C97.85 70.62 97.74 70.75 97.67 70.9C97.59 71.01 97.5 71.22 97.44 71.35C97.37 71.5 97.29 71.65 97.22 71.8C97.14 71.93 97.07 72.06 97.01 72.19C96.94 72.36 96.9 72.55 96.84 72.71C96.79 72.88 96.71 73.05 96.66 73.2C96.64 73.28 96.6 73.35 96.56 73.42C96.56 73.46 96.54 73.5 96.53 73.54C96.51 73.59 96.51 73.67 96.49 73.72C96.43 73.93 96.4 74.14 96.34 74.32C96.32 74.43 96.28 74.55 96.26 74.66C96.26 74.73 96.25 74.79 96.23 74.85C96.23 74.9 96.23 74.98 96.23 75.03C96.19 75.37 96.13 75.72 96.15 76.04L96.21 98.29C96.21 99.94 96.81 101.11 97.74 101.66L99.44 102.65C99.22 102.52 99.01 102.35 98.83 102.14C98.64 101.94 98.49 101.67 98.36 101.39C98.23 101.11 98.13 100.8 98.06 100.44C97.98 100.09 97.95 99.71 97.95 99.3L97.89 77.05C97.89 76.72 97.91 76.38 97.97 76.02C97.97 75.97 97.98 75.91 98 75.86C98 75.78 98.02 75.72 98.04 75.65C98.04 75.54 98.08 75.41 98.1 75.29C98.13 75.09 98.19 74.9 98.25 74.7C98.25 74.64 98.28 74.56 98.3 74.51C98.3 74.47 98.32 74.43 98.34 74.4C98.36 74.32 98.4 74.23 98.41 74.15C98.47 73.99 98.53 73.82 98.58 73.65C98.64 73.5 98.71 73.33 98.77 73.18C98.83 73.05 98.88 72.86 98.96 72.71C99.03 72.56 99.11 72.42 99.18 72.27C99.26 72.13 99.31 72.02 99.39 71.89C99.48 71.74 99.59 71.52 99.69 71.37C99.78 71.22 99.89 71.07 99.98 70.92C100.02 70.86 100.08 70.81 100.12 70.73C100.15 70.69 100.17 70.66 100.19 70.62C100.23 70.56 100.28 70.49 100.32 70.43C100.45 70.25 100.6 70.08 100.75 69.91C100.81 69.83 100.88 69.78 100.96 69.7C101.01 69.65 101.07 69.57 101.13 69.52C101.2 69.44 101.26 69.37 101.33 69.31C101.48 69.16 101.63 69.05 101.78 68.92C101.89 68.83 101.99 68.73 102.1 68.64C102.42 68.38 102.75 68.15 103.09 67.97L101.35 67.01Z" fill="#99C7C4" fill-opacity="1.000000" fill-rule="nonzero"></path>
&#x9;&#x9;&#x9;<path id="path" d="M103.15 102.33L103.15 98.7C102.98 98.79 102.83 98.85 102.68 98.91C102.68 98.91 102.4 98.98 102.32 98.98C102.3 98.98 102.23 98.98 102.21 98.98C102.14 98.98 102.06 98.98 101.99 98.98C101.95 98.98 101.91 98.96 101.88 98.94C101.8 98.93 101.74 98.91 101.67 98.87C101.63 98.85 101.56 98.78 101.52 98.74C101.48 98.7 101.43 98.66 101.39 98.63C101.35 98.59 101.28 98.46 101.26 98.4C101.24 98.36 101.22 98.31 101.2 98.25C101.18 98.2 101.16 98.14 101.15 98.07C101.15 98.01 101.11 97.95 101.11 97.9C101.09 97.77 101.07 97.65 101.07 97.5L101.02 75.26C101.02 73.93 101.95 72.3 103.11 71.63L103.11 68C102.75 68.19 102.44 68.43 102.12 68.68C102.01 68.75 101.91 68.86 101.8 68.96C101.58 69.14 101.35 69.35 101.15 69.57C101.09 69.63 101.03 69.7 100.98 69.76C100.72 70.06 100.45 70.36 100.21 70.68C100.19 70.71 100.16 70.75 100.14 70.79C99.87 71.14 99.63 71.52 99.41 71.91C99.18 72.3 98.98 72.75 98.79 73.18C98.62 73.59 98.45 74.04 98.34 74.45C98.34 74.49 98.32 74.53 98.3 74.57C98.19 74.94 98.1 75.33 98.04 75.71C98.04 75.78 98.02 75.84 98 75.91C97.95 76.32 97.91 76.72 97.91 77.11L97.97 99.36C97.97 99.77 98 100.14 98.08 100.5C98.15 100.83 98.25 101.15 98.38 101.43C98.51 101.71 98.66 101.97 98.85 102.18C99.03 102.39 99.24 102.57 99.46 102.7C100.42 103.26 101.69 103.19 103.15 102.33Z" fill="#D8F0ED" fill-opacity="1.000000" fill-rule="nonzero"></path>
&#x9;&#x9;&#x9;<path id="path" d="M80.9 102.46C80.9 102.56 80.88 102.67 80.86 102.76C80.86 102.87 80.86 103.02 80.84 103.14C80.84 103.17 80.82 103.21 80.82 103.25C80.8 103.34 80.76 103.53 80.73 103.62C80.69 103.73 80.67 103.86 80.63 103.98C80.63 104.01 80.6 104.05 80.6 104.09C80.56 104.18 80.48 104.37 80.45 104.46C80.39 104.57 80.35 104.71 80.3 104.82C80.28 104.87 80.24 104.91 80.2 104.97C80.19 105 80.17 105.04 80.15 105.08C80.11 105.15 80.05 105.23 80 105.3C79.92 105.42 79.87 105.55 79.79 105.66C79.74 105.73 79.68 105.79 79.62 105.86C79.59 105.92 79.57 105.98 79.51 106.01C79.47 106.07 79.42 106.11 79.36 106.16C79.29 106.26 79.21 106.35 79.14 106.44C79.01 106.59 78.84 106.74 78.69 106.89C78.63 106.95 78.6 107.01 78.54 107.06C78.5 107.1 78.39 107.19 78.35 107.23C78.22 107.34 78.07 107.45 77.94 107.57C77.81 107.68 77.68 107.79 77.53 107.88C77.38 108 77.1 108.16 76.95 108.28C76.82 108.37 76.71 108.44 76.56 108.54C76.5 108.58 76.43 108.61 76.37 108.65C75.9 108.93 75.4 109.17 74.89 109.4C74.74 109.47 74.6 109.53 74.45 109.59C74.05 109.75 73.64 109.9 73.23 110.05C73.14 110.09 73.04 110.13 72.95 110.16C72.89 110.18 72.84 110.2 72.76 110.22C72.5 110.3 72.24 110.37 71.98 110.45C71.77 110.5 71.57 110.56 71.36 110.61C71.06 110.69 70.76 110.74 70.46 110.8C70.29 110.84 70.15 110.88 69.98 110.89C69.38 111.01 68.72 111.08 68.11 111.14C68.07 111.14 68.03 111.14 67.98 111.16C67.85 111.16 67.7 111.16 67.55 111.17C67.19 111.21 66.84 111.23 66.48 111.25C66.39 111.25 66.31 111.25 66.22 111.25C66.07 111.25 65.94 111.25 65.79 111.25C65.51 111.25 65.21 111.25 64.93 111.25C64.82 111.25 64.72 111.25 64.61 111.25C64.48 111.25 64.35 111.25 64.22 111.23C63.96 111.23 63.68 111.21 63.41 111.19C63.3 111.19 63.19 111.19 63.06 111.19C62.93 111.19 62.82 111.16 62.69 111.16C62.42 111.14 62.16 111.1 61.9 111.06C61.77 111.06 61.66 111.04 61.53 111.02C61.41 111.02 61.3 110.99 61.19 110.97C60.91 110.93 60.63 110.88 60.37 110.82C60.24 110.8 60.11 110.78 59.97 110.74C59.88 110.73 59.81 110.71 59.71 110.69C59.4 110.61 59.06 110.54 58.74 110.45C58.61 110.41 58.46 110.39 58.33 110.35C58.27 110.35 58.24 110.31 58.2 110.31C57.62 110.15 57.06 109.96 56.53 109.75C56.29 109.66 55.96 109.51 55.71 109.4C55.58 109.34 55.45 109.29 55.32 109.23C54.93 109.04 54.53 108.84 54.18 108.63C53.79 108.41 53.43 108.18 53.09 107.94C53.02 107.88 52.95 107.83 52.87 107.75C52.63 107.57 52.38 107.38 52.16 107.19C52.07 107.12 52.01 107.04 51.92 106.97C51.73 106.78 51.52 106.61 51.36 106.43C51.26 106.33 51.21 106.24 51.13 106.15C50.98 105.98 50.83 105.79 50.72 105.62C50.65 105.51 50.59 105.4 50.51 105.29C50.4 105.12 50.29 104.95 50.22 104.78C50.16 104.67 50.12 104.54 50.07 104.43C49.99 104.26 49.92 104.09 49.86 103.92C49.82 103.79 49.8 103.66 49.77 103.55C49.73 103.38 49.67 103.23 49.65 103.06C49.64 102.93 49.64 102.8 49.62 102.67C49.62 102.52 49.58 102.35 49.58 102.2L49.58 105.38C49.58 107.72 51.11 110.05 54.18 111.83C54.55 112.03 54.93 112.24 55.32 112.43C55.45 112.5 55.6 112.56 55.75 112.61C55.97 112.71 56.2 112.82 56.42 112.91C56.96 113.12 57.62 113.34 58.2 113.51C58.24 113.51 58.29 113.53 58.33 113.55C58.46 113.59 58.59 113.62 58.72 113.66C59.04 113.75 59.38 113.83 59.71 113.9C59.79 113.9 59.88 113.94 59.97 113.96C60.11 113.98 60.24 114.02 60.35 114.03C60.63 114.09 60.91 114.13 61.19 114.18C61.3 114.18 61.41 114.22 61.53 114.22C61.66 114.22 61.77 114.26 61.9 114.28C62.16 114.32 62.42 114.33 62.69 114.37C62.82 114.37 62.93 114.39 63.06 114.41C63.17 114.41 63.28 114.43 63.41 114.45C63.68 114.45 63.94 114.48 64.2 114.48C64.33 114.48 64.46 114.48 64.61 114.48C64.72 114.48 64.84 114.48 64.93 114.48C65.21 114.48 65.49 114.48 65.79 114.48C65.94 114.48 66.07 114.48 66.22 114.48C66.29 114.48 66.39 114.48 66.46 114.48C66.82 114.48 67.17 114.45 67.53 114.41C67.66 114.41 67.81 114.39 67.94 114.37C67.98 114.37 68.03 114.37 68.07 114.37C68.67 114.32 69.27 114.22 69.85 114.13C70.01 114.09 70.28 114.03 70.44 114C70.72 113.94 71.02 113.89 71.3 113.81C71.51 113.75 71.72 113.7 71.92 113.64C72.2 113.57 72.46 113.49 72.73 113.42C72.78 113.42 72.84 113.38 72.89 113.36C72.99 113.32 73.08 113.31 73.17 113.27C73.6 113.12 74.02 112.97 74.41 112.8C74.56 112.74 74.71 112.67 74.86 112.61C75.36 112.39 75.87 112.15 76.33 111.87C76.41 111.83 76.46 111.79 76.52 111.74C76.67 111.64 76.8 111.57 76.93 111.47C77.12 111.34 77.31 111.23 77.49 111.1C77.64 110.99 77.79 110.88 77.94 110.74C78.11 110.61 78.26 110.48 78.41 110.35C78.47 110.3 78.61 110.15 78.67 110.09C78.91 109.87 79.12 109.62 79.33 109.38C79.38 109.32 79.42 109.25 79.47 109.19C79.51 109.16 79.55 109.1 79.59 109.06C79.72 108.89 79.83 108.71 79.96 108.52C80.02 108.43 80.07 108.35 80.11 108.26C80.2 108.11 80.32 107.85 80.39 107.7C80.45 107.58 80.48 107.47 80.54 107.36C80.6 107.21 80.67 106.99 80.71 106.84C80.75 106.71 80.78 106.59 80.8 106.46C80.84 106.31 80.84 106.11 80.86 105.96C80.86 105.81 80.9 105.64 80.9 105.49L80.9 102.29C80.9 102.29 80.9 102.42 80.9 102.46Z" fill="#A3CCC9" fill-opacity="1.000000" fill-rule="nonzero"></path>
&#x9;&#x9;&#x9;<path id="path" d="M49.65 102.72C49.65 102.85 49.65 102.98 49.69 103.12C49.73 103.28 49.77 103.43 49.8 103.6C49.84 103.73 49.86 103.86 49.9 103.98C49.95 104.14 50.03 104.31 50.1 104.48C50.16 104.59 50.2 104.72 50.25 104.84C50.35 105 50.46 105.17 50.55 105.34C50.63 105.45 50.68 105.56 50.76 105.68C50.89 105.85 51.04 106.03 51.17 106.2C51.24 106.29 51.32 106.39 51.39 106.48C51.56 106.67 51.75 106.84 51.95 107.02C52.03 107.1 52.1 107.17 52.2 107.25C52.42 107.43 52.66 107.62 52.91 107.81C52.98 107.86 53.06 107.94 53.13 108C53.47 108.24 53.82 108.46 54.22 108.69C54.59 108.89 54.96 109.1 55.36 109.29C55.49 109.34 55.62 109.4 55.75 109.45C56.01 109.57 56.29 109.7 56.55 109.79C57.1 110 57.66 110.18 58.22 110.35C58.4 110.41 58.57 110.44 58.76 110.5C59.08 110.59 59.39 110.67 59.73 110.74C59.94 110.78 60.16 110.84 60.39 110.87C60.67 110.93 60.93 110.97 61.21 111.02C61.45 111.06 61.68 111.1 61.92 111.12C62.18 111.15 62.44 111.17 62.7 111.21C62.95 111.23 63.19 111.25 63.43 111.27C63.69 111.29 63.98 111.3 64.24 111.3C64.46 111.3 64.7 111.3 64.93 111.32C65.23 111.32 65.51 111.32 65.79 111.32C66.01 111.32 66.24 111.32 66.46 111.32C66.82 111.32 67.17 111.29 67.53 111.25C67.71 111.25 67.9 111.23 68.07 111.19C68.67 111.14 69.27 111.04 69.86 110.95C70.05 110.91 70.24 110.87 70.43 110.84C70.72 110.78 71.02 110.72 71.32 110.65C71.53 110.59 71.73 110.54 71.94 110.48C72.2 110.41 72.48 110.33 72.72 110.26C72.87 110.2 73.02 110.15 73.19 110.11C73.6 109.96 74.01 109.81 74.41 109.64C74.56 109.58 74.71 109.51 74.86 109.45C75.36 109.23 75.87 108.99 76.33 108.71C76.71 108.48 77.06 108.26 77.4 108.01C77.7 107.81 78.07 107.51 78.31 107.28C78.56 107.06 78.89 106.74 79.1 106.52C79.17 106.42 79.25 106.33 79.32 106.24C79.47 106.07 79.6 105.9 79.74 105.71C79.81 105.6 79.87 105.49 79.94 105.36C80.03 105.19 80.15 105.04 80.22 104.89C80.28 104.78 80.32 104.65 80.37 104.54C80.45 104.37 80.52 104.2 80.58 104.03C80.61 103.92 80.63 103.79 80.67 103.68C80.71 103.51 80.76 103.34 80.8 103.17C81.21 100.57 79.7 97.88 76.26 95.9C73.96 94.57 71.14 93.75 68.16 93.41C66.35 93.21 64.5 93.21 62.69 93.37C62.52 93.37 62.35 93.39 62.2 93.41C59.28 93.75 56.4 94.57 54.14 95.88C52.85 96.63 51.86 97.47 51.11 98.38C50.1 99.62 49.6 100.93 49.6 102.27C49.6 102.42 49.64 102.57 49.65 102.72Z" fill="#B8D6D3" fill-opacity="1.000000" fill-rule="nonzero"></path>
&#x9;&#x9;&#x9;<path id="path" d="M80.9 98.29C80.9 98.4 80.88 98.5 80.86 98.61C80.86 98.72 80.86 98.87 80.84 98.98C80.84 99.02 80.82 99.06 80.82 99.1C80.8 99.21 80.76 99.38 80.73 99.47C80.69 99.58 80.67 99.71 80.63 99.82C80.63 99.86 80.6 99.9 80.6 99.94C80.56 100.03 80.48 100.22 80.45 100.31C80.39 100.42 80.35 100.55 80.3 100.67C80.28 100.72 80.24 100.76 80.2 100.82C80.19 100.85 80.17 100.89 80.15 100.93C80.11 101 80.05 101.08 80 101.15C79.92 101.26 79.87 101.4 79.79 101.51C79.74 101.58 79.68 101.64 79.62 101.71C79.59 101.77 79.57 101.83 79.51 101.86C79.47 101.92 79.42 101.96 79.36 102.01C79.29 102.11 79.21 102.2 79.14 102.29C79.01 102.44 78.84 102.59 78.69 102.74C78.63 102.8 78.6 102.85 78.54 102.91C78.5 102.95 78.39 103.04 78.35 103.08C78.22 103.19 78.07 103.3 77.94 103.41C77.81 103.53 77.68 103.64 77.53 103.75C77.38 103.86 77.1 104.03 76.95 104.14C76.82 104.22 76.71 104.31 76.56 104.41C76.5 104.44 76.43 104.48 76.37 104.52C75.9 104.8 75.4 105.04 74.89 105.27C74.74 105.34 74.6 105.4 74.45 105.45C74.05 105.62 73.64 105.77 73.23 105.92C73.14 105.96 73.04 105.99 72.95 106.03C72.89 106.03 72.84 106.07 72.76 106.09C72.5 106.16 72.24 106.24 71.98 106.31C71.77 106.37 71.57 106.42 71.36 106.48C71.06 106.56 70.76 106.61 70.46 106.67C70.29 106.71 70.15 106.74 69.98 106.76C69.38 106.87 68.72 106.95 68.11 107C68.07 107 68.03 107 67.98 107C67.85 107 67.7 107 67.55 107.04C67.19 107.08 66.84 107.1 66.48 107.12C66.39 107.12 66.31 107.12 66.22 107.12C66.07 107.12 65.94 107.12 65.79 107.12C65.51 107.12 65.21 107.12 64.93 107.12C64.82 107.12 64.72 107.12 64.61 107.12C64.48 107.12 64.35 107.12 64.22 107.1C63.96 107.1 63.68 107.08 63.41 107.06C63.3 107.06 63.19 107.06 63.06 107.04C62.93 107.04 62.82 107 62.69 107C62.42 106.99 62.16 106.95 61.9 106.91C61.77 106.91 61.66 106.89 61.53 106.87C61.41 106.87 61.3 106.84 61.19 106.82C60.91 106.78 60.63 106.72 60.37 106.67C60.24 106.65 60.11 106.63 59.97 106.59C59.88 106.57 59.81 106.56 59.71 106.54C59.4 106.46 59.06 106.39 58.74 106.29C58.61 106.26 58.46 106.24 58.33 106.2C58.27 106.2 58.24 106.16 58.2 106.16C57.62 105.99 57.06 105.81 56.53 105.6C56.29 105.51 55.96 105.36 55.71 105.25C55.58 105.19 55.45 105.13 55.32 105.08C54.93 104.89 54.53 104.69 54.18 104.48C53.79 104.26 53.43 104.03 53.09 103.79C53.02 103.73 52.95 103.66 52.87 103.6C52.63 103.41 52.38 103.25 52.16 103.04C52.07 102.97 52.01 102.89 51.92 102.82C51.73 102.63 51.52 102.46 51.36 102.27C51.26 102.18 51.21 102.09 51.13 101.99C50.98 101.83 50.83 101.66 50.72 101.47C50.65 101.36 50.59 101.25 50.51 101.13C50.4 100.97 50.29 100.8 50.22 100.63C50.16 100.52 50.12 100.39 50.07 100.27C49.99 100.11 49.92 99.94 49.86 99.77C49.82 99.64 49.8 99.53 49.77 99.39C49.73 99.23 49.67 99.08 49.65 98.91C49.64 98.78 49.64 98.65 49.62 98.52C49.62 98.37 49.58 98.2 49.58 98.05L49.58 101.23C49.58 103.56 51.11 105.9 54.18 107.68C54.55 107.88 54.93 108.09 55.32 108.28C55.45 108.35 55.6 108.41 55.75 108.46C55.97 108.56 56.2 108.67 56.42 108.76C56.96 108.97 57.62 109.19 58.2 109.36C58.24 109.36 58.29 109.38 58.33 109.4C58.46 109.43 58.59 109.47 58.72 109.51C59.04 109.6 59.38 109.68 59.71 109.75C59.79 109.75 59.88 109.79 59.97 109.81C60.11 109.83 60.24 109.86 60.35 109.88C60.63 109.94 60.91 109.98 61.19 110.03C61.3 110.03 61.41 110.07 61.53 110.07C61.66 110.07 61.77 110.11 61.9 110.13C62.16 110.16 62.42 110.18 62.69 110.22C62.82 110.22 62.93 110.24 63.06 110.26C63.17 110.26 63.28 110.28 63.41 110.29C63.68 110.29 63.94 110.33 64.2 110.33C64.33 110.33 64.46 110.33 64.61 110.33C64.72 110.33 64.84 110.33 64.93 110.33C65.21 110.33 65.49 110.33 65.79 110.33C65.94 110.33 66.07 110.33 66.22 110.33C66.29 110.33 66.39 110.33 66.46 110.33C66.82 110.33 67.17 110.29 67.53 110.26C67.66 110.26 67.81 110.24 67.94 110.22C67.98 110.22 68.03 110.22 68.07 110.22C68.67 110.16 69.27 110.07 69.85 109.98C70.01 109.94 70.28 109.88 70.44 109.85C70.72 109.79 71.02 109.73 71.3 109.66C71.51 109.6 71.72 109.55 71.92 109.49C72.2 109.42 72.46 109.34 72.73 109.27C72.78 109.25 72.84 109.23 72.89 109.21C72.99 109.17 73.08 109.15 73.17 109.12C73.6 108.97 74.02 108.82 74.41 108.65C74.56 108.59 74.71 108.52 74.86 108.46C75.36 108.24 75.87 108 76.33 107.71C76.41 107.68 76.46 107.64 76.52 107.58C76.67 107.49 76.8 107.42 76.93 107.32C77.12 107.19 77.31 107.08 77.49 106.95C77.64 106.84 77.79 106.72 77.94 106.59C78.11 106.46 78.26 106.33 78.41 106.2C78.47 106.14 78.61 105.99 78.67 105.94C78.91 105.7 79.12 105.47 79.33 105.23C79.38 105.17 79.42 105.1 79.47 105.04C79.51 105 79.55 104.95 79.59 104.91C79.72 104.74 79.83 104.56 79.96 104.37C80.02 104.27 80.07 104.2 80.11 104.11C80.2 103.96 80.32 103.7 80.39 103.55C80.45 103.43 80.48 103.32 80.54 103.21C80.6 103.06 80.67 102.84 80.71 102.69C80.75 102.55 80.78 102.44 80.8 102.31C80.84 102.16 80.84 101.96 80.86 101.81C80.86 101.66 80.9 101.49 80.9 101.34L80.9 98.14C80.9 98.14 80.9 98.25 80.9 98.29Z" fill="#A3CCC9" fill-opacity="1.000000" fill-rule="nonzero"></path>
&#x9;&#x9;&#x9;<path id="path" d="M49.65 98.57C49.65 98.7 49.65 98.83 49.69 98.96C49.73 99.13 49.77 99.28 49.8 99.45C49.84 99.58 49.86 99.71 49.9 99.82C49.95 99.99 50.03 100.16 50.1 100.33C50.16 100.44 50.2 100.57 50.25 100.68C50.35 100.85 50.46 101.02 50.55 101.19C50.63 101.3 50.68 101.41 50.76 101.53C50.89 101.69 51.04 101.88 51.17 102.05C51.24 102.14 51.32 102.24 51.39 102.33C51.56 102.52 51.75 102.69 51.95 102.87C52.03 102.95 52.1 103.02 52.2 103.1C52.42 103.28 52.66 103.47 52.91 103.66C52.98 103.71 53.06 103.79 53.13 103.84C53.47 104.09 53.82 104.31 54.22 104.54C54.59 104.74 54.96 104.95 55.36 105.13C55.49 105.19 55.62 105.25 55.75 105.3C56.01 105.41 56.29 105.55 56.55 105.64C57.1 105.84 57.66 106.03 58.22 106.2C58.4 106.26 58.57 106.29 58.76 106.35C59.08 106.42 59.39 106.52 59.73 106.59C59.94 106.65 60.16 106.69 60.39 106.72C60.67 106.78 60.93 106.82 61.21 106.87C61.45 106.91 61.68 106.95 61.92 106.97C62.18 107 62.44 107.02 62.7 107.06C62.95 107.08 63.19 107.1 63.43 107.12C63.69 107.12 63.98 107.15 64.24 107.15C64.46 107.15 64.7 107.15 64.93 107.17C65.23 107.17 65.51 107.17 65.79 107.17C66.01 107.17 66.24 107.17 66.46 107.15C66.82 107.15 67.17 107.12 67.53 107.08C67.71 107.08 67.9 107.06 68.07 107.04C68.67 106.99 69.27 106.89 69.86 106.8C70.05 106.76 70.24 106.72 70.43 106.69C70.72 106.63 71.02 106.57 71.32 106.5C71.53 106.44 71.73 106.39 71.94 106.33C72.2 106.26 72.48 106.18 72.72 106.11C72.87 106.05 73.02 105.99 73.19 105.96C73.6 105.81 74.01 105.66 74.41 105.49C74.56 105.43 74.71 105.36 74.86 105.3C75.36 105.08 75.87 104.84 76.33 104.55C76.71 104.33 77.06 104.11 77.4 103.86C77.7 103.66 78.07 103.36 78.31 103.13C78.56 102.91 78.89 102.59 79.1 102.37C79.17 102.27 79.25 102.18 79.32 102.09C79.47 101.92 79.6 101.75 79.74 101.56C79.81 101.45 79.87 101.34 79.94 101.21C80.03 101.04 80.15 100.89 80.22 100.72C80.28 100.61 80.32 100.48 80.37 100.37C80.45 100.2 80.52 100.03 80.58 99.88C80.61 99.77 80.63 99.64 80.67 99.53C80.71 99.36 80.76 99.19 80.8 99.02C81.21 96.42 79.7 93.73 76.26 91.75C73.96 90.42 71.14 89.6 68.16 89.26C66.35 89.06 64.5 89.06 62.69 89.22C62.52 89.22 62.35 89.24 62.2 89.26C59.28 89.6 56.4 90.42 54.14 91.73C52.85 92.48 51.86 93.32 51.11 94.23C50.1 95.47 49.6 96.8 49.6 98.12C49.6 98.27 49.64 98.42 49.65 98.57Z" fill="#B8D6D3" fill-opacity="1.000000" fill-rule="nonzero"></path>
&#x9;&#x9;&#x9;<path id="path" d="M80.9 94.1C80.9 94.22 80.88 94.31 80.86 94.42C80.86 94.53 80.86 94.68 80.84 94.8C80.84 94.83 80.82 94.87 80.82 94.91C80.8 95.02 80.76 95.19 80.73 95.28C80.69 95.39 80.67 95.52 80.63 95.64C80.63 95.67 80.6 95.71 80.6 95.75C80.56 95.84 80.48 96.03 80.45 96.12C80.39 96.24 80.35 96.37 80.3 96.48C80.28 96.53 80.24 96.57 80.2 96.63C80.19 96.67 80.17 96.7 80.15 96.74C80.11 96.81 80.05 96.89 80 96.96C79.92 97.08 79.87 97.21 79.79 97.32C79.74 97.39 79.68 97.45 79.62 97.53C79.59 97.58 79.57 97.64 79.51 97.67C79.47 97.73 79.42 97.77 79.36 97.82C79.29 97.92 79.21 98.01 79.14 98.1C79.01 98.25 78.84 98.4 78.69 98.55C78.63 98.61 78.6 98.67 78.54 98.72C78.5 98.76 78.39 98.85 78.35 98.89C78.22 99 78.07 99.11 77.94 99.23C77.81 99.34 77.68 99.45 77.53 99.54C77.38 99.66 77.1 99.82 76.95 99.94C76.82 100.03 76.71 100.11 76.56 100.2C76.5 100.24 76.43 100.27 76.37 100.31C75.9 100.59 75.4 100.83 74.89 101.06C74.74 101.13 74.6 101.19 74.45 101.25C74.05 101.41 73.64 101.56 73.23 101.71C73.14 101.75 73.04 101.79 72.95 101.83C72.89 101.84 72.84 101.86 72.76 101.88C72.5 101.96 72.24 102.03 71.98 102.11C71.77 102.16 71.57 102.22 71.36 102.27C71.06 102.35 70.76 102.41 70.46 102.46C70.29 102.5 70.15 102.54 69.98 102.55C69.38 102.67 68.72 102.74 68.11 102.8C68.07 102.8 68.03 102.8 67.98 102.8C67.85 102.8 67.7 102.8 67.55 102.84C67.19 102.87 66.84 102.89 66.48 102.91C66.39 102.91 66.31 102.91 66.22 102.91C66.07 102.91 65.94 102.91 65.79 102.91C65.51 102.91 65.21 102.91 64.93 102.91C64.82 102.91 64.72 102.91 64.61 102.91C64.48 102.91 64.35 102.91 64.22 102.89C63.96 102.89 63.68 102.87 63.41 102.85C63.3 102.85 63.19 102.85 63.06 102.84C62.93 102.84 62.82 102.8 62.69 102.8C62.42 102.78 62.16 102.74 61.9 102.7C61.77 102.7 61.66 102.69 61.53 102.67C61.41 102.67 61.3 102.63 61.19 102.61C60.91 102.57 60.63 102.52 60.37 102.46C60.24 102.44 60.11 102.42 59.97 102.39C59.88 102.39 59.81 102.35 59.71 102.33C59.4 102.26 59.06 102.18 58.74 102.09C58.61 102.05 58.46 102.03 58.33 101.99C58.27 101.99 58.24 101.96 58.2 101.96C57.62 101.79 57.06 101.6 56.53 101.4C56.29 101.3 55.96 101.15 55.71 101.04C55.58 100.98 55.45 100.93 55.32 100.87C54.93 100.69 54.53 100.48 54.18 100.27C53.79 100.05 53.43 99.82 53.09 99.58C53.02 99.53 52.95 99.45 52.87 99.39C52.63 99.21 52.38 99.04 52.16 98.83C52.07 98.76 52.01 98.68 51.92 98.61C51.73 98.42 51.52 98.25 51.36 98.07C51.26 97.97 51.21 97.88 51.13 97.79C50.98 97.62 50.83 97.45 50.72 97.26C50.65 97.15 50.59 97.04 50.51 96.93C50.4 96.76 50.29 96.59 50.22 96.42C50.16 96.31 50.12 96.18 50.07 96.07C49.99 95.9 49.92 95.73 49.86 95.56C49.82 95.43 49.8 95.32 49.77 95.19C49.73 95.02 49.67 94.87 49.65 94.7C49.64 94.57 49.64 94.44 49.62 94.31C49.62 94.16 49.58 93.99 49.58 93.84L49.58 97.02C49.58 99.36 51.11 101.69 54.18 103.47C54.55 103.68 54.93 103.88 55.32 104.07C55.45 104.13 55.6 104.2 55.75 104.26C55.97 104.35 56.2 104.46 56.42 104.56C56.96 104.76 57.62 104.99 58.2 105.15C58.24 105.15 58.29 105.17 58.33 105.19C58.46 105.23 58.59 105.27 58.72 105.3C59.04 105.4 59.38 105.47 59.71 105.55C59.79 105.55 59.88 105.58 59.97 105.6C60.11 105.62 60.24 105.66 60.35 105.68C60.63 105.73 60.91 105.77 61.19 105.83C61.3 105.83 61.41 105.86 61.53 105.86C61.66 105.86 61.77 105.9 61.9 105.92C62.16 105.96 62.42 105.98 62.69 106.01C62.82 106.01 62.93 106.03 63.06 106.05C63.17 106.05 63.28 106.07 63.41 106.09C63.68 106.09 63.94 106.13 64.2 106.13C64.33 106.13 64.46 106.13 64.61 106.13C64.72 106.13 64.84 106.13 64.93 106.13C65.21 106.13 65.49 106.13 65.79 106.13C65.94 106.13 66.07 106.13 66.22 106.13C66.29 106.13 66.39 106.13 66.46 106.13C66.82 106.13 67.17 106.09 67.53 106.05C67.66 106.05 67.81 106.03 67.94 106.01C67.98 106.01 68.03 106.01 68.07 106.01C68.67 105.96 69.27 105.86 69.85 105.77C70.01 105.73 70.28 105.7 70.44 105.66C70.72 105.6 71.02 105.55 71.3 105.47C71.51 105.42 71.72 105.36 71.92 105.3C72.2 105.23 72.46 105.15 72.73 105.08C72.78 105.08 72.84 105.04 72.89 105.02C72.99 104.99 73.08 104.97 73.17 104.93C73.6 104.78 74.02 104.63 74.41 104.46C74.56 104.41 74.71 104.33 74.86 104.27C75.36 104.05 75.87 103.81 76.33 103.53C76.41 103.49 76.46 103.45 76.52 103.4C76.67 103.3 76.8 103.23 76.93 103.13C77.12 103 77.31 102.89 77.49 102.76C77.64 102.65 77.79 102.54 77.94 102.41C78.11 102.27 78.26 102.14 78.41 102.01C78.47 101.96 78.61 101.81 78.67 101.75C78.91 101.53 79.12 101.28 79.33 101.04C79.38 100.98 79.42 100.93 79.47 100.85C79.51 100.82 79.55 100.76 79.59 100.72C79.72 100.55 79.83 100.37 79.96 100.18C80.02 100.09 80.07 100.01 80.11 99.92C80.2 99.77 80.32 99.51 80.39 99.36C80.45 99.25 80.48 99.13 80.54 99.02C80.6 98.87 80.67 98.65 80.71 98.5C80.75 98.37 80.78 98.24 80.8 98.12C80.84 97.97 80.84 97.77 80.86 97.62C80.86 97.47 80.9 97.3 80.9 97.15L80.9 93.95C80.9 93.95 80.9 94.07 80.9 94.1Z" fill="#A3CCC9" fill-opacity="1.000000" fill-rule="nonzero"></path>
&#x9;&#x9;&#x9;<path id="path" d="M49.65 94.37C49.65 94.5 49.65 94.63 49.69 94.76C49.73 94.93 49.77 95.08 49.8 95.24C49.84 95.37 49.86 95.51 49.9 95.62C49.95 95.79 50.03 95.95 50.1 96.12C50.16 96.23 50.2 96.37 50.25 96.48C50.35 96.65 50.46 96.81 50.55 96.98C50.63 97.09 50.68 97.21 50.76 97.32C50.89 97.49 51.04 97.67 51.17 97.84C51.24 97.94 51.32 98.03 51.39 98.12C51.56 98.31 51.75 98.48 51.95 98.67C52.03 98.74 52.1 98.81 52.2 98.89C52.42 99.08 52.66 99.26 52.91 99.45C52.98 99.51 53.06 99.58 53.13 99.64C53.47 99.88 53.82 100.11 54.22 100.33C54.59 100.54 54.96 100.74 55.36 100.93C55.49 100.98 55.62 101.04 55.75 101.1C56.01 101.21 56.29 101.34 56.55 101.43C57.1 101.64 57.66 101.83 58.22 101.99C58.4 102.05 58.57 102.09 58.76 102.14C59.08 102.22 59.39 102.31 59.73 102.39C59.94 102.44 60.16 102.48 60.39 102.52C60.67 102.57 60.93 102.61 61.21 102.67C61.45 102.7 61.68 102.74 61.92 102.76C62.18 102.8 62.44 102.82 62.7 102.85C62.95 102.87 63.19 102.89 63.43 102.91C63.69 102.91 63.98 102.95 64.24 102.95C64.46 102.95 64.7 102.95 64.93 102.95C65.23 102.95 65.51 102.95 65.79 102.95C66.01 102.95 66.24 102.95 66.46 102.95C66.82 102.95 67.17 102.91 67.53 102.87C67.71 102.87 67.9 102.85 68.07 102.83C68.67 102.78 69.27 102.69 69.86 102.59C70.05 102.55 70.24 102.52 70.43 102.48C70.72 102.42 71.02 102.37 71.32 102.29C71.53 102.24 71.73 102.18 71.94 102.12C72.2 102.05 72.48 101.97 72.72 101.9C72.87 101.84 73.02 101.79 73.19 101.75C73.6 101.6 74.01 101.45 74.41 101.28C74.56 101.23 74.71 101.15 74.86 101.1C75.36 100.87 75.87 100.63 76.33 100.35C76.71 100.12 77.06 99.9 77.4 99.66C77.7 99.45 78.07 99.15 78.31 98.93C78.56 98.7 78.89 98.38 79.1 98.16C79.17 98.07 79.25 97.97 79.32 97.88C79.47 97.71 79.6 97.54 79.74 97.36C79.81 97.24 79.87 97.13 79.94 97C80.03 96.85 80.15 96.68 80.22 96.52C80.28 96.4 80.32 96.27 80.37 96.16C80.45 95.99 80.52 95.82 80.58 95.67C80.61 95.56 80.63 95.43 80.67 95.32C80.71 95.15 80.76 94.98 80.8 94.81C81.21 92.22 79.7 89.52 76.26 87.54C73.96 86.21 71.14 85.39 68.16 85.05C66.35 84.85 64.5 84.85 62.69 85.02C62.52 85.02 62.35 85.04 62.2 85.05C59.28 85.39 56.4 86.21 54.14 87.52C52.85 88.27 51.86 89.11 51.11 90.03C50.1 91.26 49.6 92.59 49.6 93.92C49.6 94.07 49.64 94.22 49.65 94.37Z" fill="#B8D6D3" fill-opacity="1.000000" fill-rule="nonzero"></path>
&#x9;&#x9;&#x9;<path id="path" d="M80.9 89.8C80.9 89.92 80.88 90.01 80.86 90.12C80.86 90.23 80.86 90.38 80.84 90.5C80.84 90.53 80.82 90.57 80.82 90.61C80.8 90.7 80.76 90.89 80.73 90.98C80.69 91.09 80.67 91.22 80.63 91.34C80.63 91.37 80.6 91.41 80.6 91.45C80.56 91.54 80.48 91.73 80.45 91.82C80.39 91.94 80.35 92.07 80.3 92.18C80.28 92.23 80.24 92.27 80.2 92.33C80.18 92.37 80.17 92.4 80.15 92.44C80.11 92.51 80.05 92.59 80 92.66C79.92 92.78 79.87 92.91 79.79 93.02C79.74 93.09 79.68 93.15 79.62 93.23C79.59 93.28 79.57 93.34 79.51 93.37C79.47 93.43 79.42 93.47 79.36 93.52C79.29 93.62 79.21 93.71 79.14 93.8C79.01 93.95 78.84 94.1 78.69 94.25C78.63 94.31 78.6 94.37 78.54 94.42C78.5 94.46 78.39 94.55 78.35 94.59C78.22 94.7 78.07 94.81 77.94 94.93C77.81 95.04 77.68 95.15 77.53 95.24C77.38 95.36 77.1 95.52 76.95 95.64C76.82 95.71 76.71 95.81 76.56 95.9C76.5 95.94 76.43 95.97 76.37 96.01C75.9 96.29 75.4 96.53 74.89 96.76C74.74 96.83 74.59 96.89 74.44 96.95C74.05 97.11 73.64 97.26 73.23 97.41C73.14 97.45 73.04 97.49 72.95 97.53C72.89 97.54 72.84 97.56 72.76 97.58C72.5 97.66 72.24 97.73 71.98 97.81C71.77 97.86 71.57 97.92 71.36 97.97C71.06 98.05 70.76 98.1 70.46 98.16C70.29 98.2 70.14 98.24 69.98 98.25C69.38 98.35 68.72 98.44 68.11 98.5C68.07 98.5 68.03 98.5 67.98 98.52C67.85 98.52 67.7 98.52 67.55 98.53C67.19 98.57 66.84 98.59 66.48 98.61C66.39 98.61 66.31 98.61 66.22 98.63C66.07 98.63 65.94 98.63 65.79 98.63C65.51 98.63 65.21 98.63 64.93 98.63C64.82 98.63 64.72 98.63 64.61 98.63C64.48 98.63 64.35 98.63 64.22 98.61C63.96 98.61 63.68 98.59 63.41 98.57C63.3 98.57 63.19 98.57 63.06 98.55C62.93 98.55 62.82 98.52 62.69 98.52C62.42 98.5 62.16 98.46 61.9 98.42C61.77 98.42 61.66 98.4 61.53 98.39C61.41 98.39 61.3 98.35 61.19 98.33C60.91 98.29 60.63 98.24 60.37 98.18C60.24 98.16 60.11 98.14 59.97 98.1C59.88 98.09 59.81 98.07 59.71 98.05C59.39 97.97 59.06 97.9 58.74 97.81C58.61 97.77 58.46 97.75 58.33 97.71C58.27 97.71 58.24 97.67 58.2 97.67C57.62 97.51 57.06 97.32 56.53 97.11C56.29 97.02 55.95 96.87 55.71 96.76C55.58 96.7 55.45 96.65 55.32 96.59C54.93 96.4 54.53 96.2 54.18 95.99C53.79 95.77 53.43 95.54 53.09 95.3C53.02 95.24 52.94 95.17 52.87 95.11C52.63 94.93 52.38 94.76 52.16 94.55C52.07 94.48 52.01 94.4 51.92 94.31C51.73 94.12 51.52 93.95 51.36 93.77C51.26 93.67 51.21 93.58 51.13 93.49C50.98 93.32 50.83 93.15 50.72 92.96C50.65 92.85 50.59 92.74 50.51 92.63C50.4 92.46 50.29 92.29 50.22 92.12C50.16 92.01 50.12 91.88 50.07 91.77C49.99 91.6 49.92 91.43 49.86 91.26C49.82 91.13 49.8 91.02 49.77 90.89C49.73 90.72 49.67 90.57 49.65 90.4C49.64 90.27 49.64 90.14 49.62 90.01C49.62 89.86 49.58 89.69 49.58 89.54L49.58 92.72C49.58 95.06 51.11 97.39 54.18 99.17C54.55 99.38 54.93 99.58 55.32 99.77C55.45 99.84 55.6 99.9 55.75 99.96C55.97 100.05 56.2 100.16 56.42 100.26C56.96 100.46 57.62 100.69 58.2 100.85C58.24 100.85 58.29 100.87 58.33 100.89C58.46 100.93 58.59 100.97 58.72 101C59.04 101.1 59.38 101.17 59.71 101.25C59.79 101.25 59.88 101.28 59.97 101.3C60.11 101.32 60.24 101.36 60.35 101.38C60.63 101.43 60.91 101.47 61.19 101.53C61.3 101.53 61.41 101.56 61.53 101.56C61.66 101.56 61.77 101.6 61.9 101.62C62.16 101.66 62.42 101.68 62.69 101.71C62.82 101.71 62.93 101.73 63.06 101.75C63.17 101.75 63.28 101.77 63.41 101.79C63.68 101.79 63.94 101.83 64.2 101.83C64.33 101.83 64.46 101.83 64.61 101.83C64.72 101.83 64.84 101.83 64.93 101.83C65.21 101.83 65.49 101.83 65.79 101.83C65.94 101.83 66.07 101.83 66.22 101.83C66.29 101.83 66.39 101.83 66.46 101.83C66.82 101.83 67.17 101.79 67.53 101.75C67.66 101.75 67.81 101.73 67.94 101.71C67.98 101.71 68.03 101.71 68.07 101.71C68.67 101.66 69.27 101.56 69.85 101.47C70.01 101.43 70.28 101.38 70.44 101.34C70.72 101.28 71.02 101.23 71.3 101.15C71.51 101.1 71.72 101.04 71.92 100.98C72.2 100.91 72.46 100.83 72.72 100.76C72.78 100.74 72.84 100.72 72.89 100.7C72.99 100.67 73.08 100.65 73.17 100.61C73.6 100.46 74.01 100.31 74.41 100.14C74.56 100.09 74.71 100.01 74.86 99.96C75.36 99.73 75.87 99.49 76.33 99.21C76.41 99.17 76.46 99.13 76.52 99.08C76.67 98.98 76.8 98.91 76.93 98.82C77.12 98.68 77.31 98.57 77.49 98.44C77.64 98.33 77.79 98.22 77.94 98.09C78.11 97.96 78.26 97.82 78.41 97.69C78.46 97.64 78.61 97.49 78.67 97.43C78.91 97.21 79.12 96.96 79.32 96.72C79.38 96.67 79.42 96.59 79.47 96.53C79.51 96.5 79.55 96.44 79.59 96.4C79.72 96.22 79.83 96.05 79.96 95.86C80.02 95.77 80.07 95.69 80.11 95.6C80.2 95.45 80.32 95.19 80.39 95.04C80.45 94.93 80.48 94.81 80.54 94.7C80.6 94.55 80.67 94.33 80.71 94.18C80.75 94.05 80.78 93.94 80.8 93.8C80.84 93.66 80.84 93.45 80.86 93.3C80.86 93.15 80.9 92.98 80.9 92.83L80.9 89.64C80.9 89.64 80.9 89.77 80.9 89.8Z" fill="#A3CCC9" fill-opacity="1.000000" fill-rule="nonzero"></path>
&#x9;&#x9;&#x9;<path id="path" d="M49.65 90.08C49.65 90.21 49.65 90.35 49.69 90.48C49.73 90.64 49.77 90.79 49.8 90.96C49.84 91.09 49.86 91.22 49.9 91.34C49.95 91.5 50.03 91.67 50.1 91.84C50.16 91.95 50.2 92.08 50.25 92.2C50.35 92.36 50.46 92.53 50.55 92.7C50.63 92.81 50.68 92.93 50.76 93.04C50.89 93.21 51.04 93.39 51.17 93.56C51.24 93.65 51.32 93.75 51.39 93.84C51.56 94.03 51.75 94.2 51.95 94.38C52.03 94.46 52.1 94.53 52.2 94.63C52.42 94.81 52.66 95 52.91 95.19C52.98 95.24 53.06 95.32 53.13 95.37C53.47 95.62 53.82 95.84 54.22 96.07C54.59 96.27 54.96 96.48 55.36 96.66C55.49 96.72 55.62 96.78 55.75 96.83C56.01 96.94 56.29 97.08 56.55 97.17C57.09 97.37 57.66 97.56 58.22 97.73C58.4 97.79 58.57 97.82 58.76 97.88C59.08 97.95 59.39 98.05 59.73 98.12C59.94 98.18 60.16 98.22 60.39 98.25C60.67 98.31 60.93 98.35 61.21 98.4C61.45 98.44 61.68 98.48 61.92 98.5C62.18 98.53 62.44 98.55 62.7 98.59C62.95 98.61 63.19 98.63 63.43 98.65C63.69 98.66 63.97 98.68 64.24 98.68C64.46 98.68 64.7 98.68 64.93 98.68C65.23 98.68 65.51 98.68 65.79 98.68C66.01 98.68 66.24 98.68 66.46 98.66C66.82 98.66 67.17 98.63 67.53 98.59C67.71 98.59 67.9 98.57 68.07 98.55C68.67 98.5 69.27 98.4 69.86 98.31C70.05 98.27 70.24 98.23 70.42 98.2C70.72 98.14 71.02 98.09 71.32 98.01C71.53 97.95 71.73 97.9 71.94 97.84C72.2 97.77 72.48 97.69 72.72 97.62C72.87 97.56 73.02 97.51 73.19 97.47C73.6 97.32 74.01 97.17 74.41 97C74.56 96.94 74.71 96.87 74.86 96.81C75.36 96.59 75.87 96.35 76.33 96.07C76.71 95.84 77.06 95.62 77.4 95.37C77.7 95.17 78.07 94.87 78.31 94.65C78.56 94.42 78.89 94.1 79.1 93.88C79.17 93.79 79.25 93.69 79.32 93.6C79.47 93.43 79.6 93.26 79.74 93.07C79.81 92.96 79.87 92.85 79.94 92.72C80.03 92.57 80.15 92.4 80.22 92.25C80.28 92.14 80.31 92.01 80.37 91.9C80.45 91.73 80.52 91.56 80.58 91.41C80.61 91.3 80.63 91.17 80.67 91.06C80.71 90.89 80.76 90.72 80.8 90.55C81.21 87.95 79.7 85.26 76.26 83.28C73.96 81.95 71.14 81.13 68.16 80.79C66.35 80.59 64.5 80.59 62.68 80.75C62.52 80.75 62.35 80.77 62.2 80.79C59.28 81.13 56.4 81.95 54.14 83.26C52.85 84.01 51.86 84.85 51.11 85.76C50.1 87 49.6 88.31 49.6 89.65C49.6 89.8 49.63 89.93 49.65 90.08Z" fill="#B8D6D3" fill-opacity="1.000000" fill-rule="nonzero"></path>
&#x9;&#x9;&#x9;<path id="path" d="M80.9 85.48C80.9 85.6 80.88 85.69 80.86 85.8C80.86 85.91 80.86 86.06 80.84 86.18C80.84 86.21 80.82 86.25 80.82 86.29C80.8 86.38 80.76 86.57 80.73 86.66C80.69 86.77 80.67 86.91 80.63 87.02C80.63 87.05 80.6 87.09 80.6 87.13C80.56 87.22 80.48 87.41 80.45 87.5C80.39 87.62 80.35 87.75 80.3 87.86C80.28 87.91 80.24 87.95 80.2 88.01C80.19 88.05 80.17 88.08 80.15 88.12C80.11 88.2 80.05 88.27 80 88.34C79.92 88.46 79.87 88.59 79.79 88.7C79.74 88.77 79.68 88.83 79.62 88.91C79.59 88.96 79.57 89.02 79.51 89.06C79.47 89.11 79.42 89.15 79.36 89.2C79.29 89.3 79.21 89.39 79.14 89.49C79.01 89.63 78.84 89.78 78.69 89.93C78.63 89.99 78.6 90.05 78.54 90.1C78.5 90.14 78.39 90.23 78.35 90.27C78.22 90.38 78.07 90.49 77.94 90.61C77.81 90.72 77.68 90.83 77.53 90.92C77.38 91.04 77.1 91.21 76.95 91.32C76.82 91.39 76.71 91.49 76.56 91.58C76.5 91.62 76.43 91.65 76.37 91.69C75.9 91.97 75.4 92.2 74.89 92.44C74.74 92.51 74.6 92.57 74.45 92.63C74.05 92.79 73.64 92.94 73.23 93.09C73.14 93.13 73.04 93.17 72.95 93.21C72.89 93.22 72.84 93.24 72.76 93.26C72.5 93.34 72.24 93.41 71.98 93.49C71.77 93.54 71.57 93.6 71.36 93.65C71.06 93.73 70.76 93.79 70.46 93.84C70.29 93.88 70.15 93.92 69.98 93.93C69.38 94.05 68.72 94.12 68.11 94.18C68.07 94.18 68.03 94.18 67.98 94.18C67.85 94.18 67.7 94.18 67.55 94.22C67.19 94.25 66.84 94.27 66.48 94.29C66.39 94.29 66.31 94.29 66.22 94.29C66.07 94.29 65.94 94.29 65.79 94.29C65.51 94.29 65.21 94.29 64.93 94.29C64.82 94.29 64.72 94.29 64.61 94.29C64.48 94.29 64.35 94.29 64.22 94.27C63.96 94.27 63.68 94.25 63.41 94.23C63.3 94.23 63.19 94.23 63.06 94.22C62.93 94.22 62.82 94.18 62.69 94.18C62.42 94.16 62.16 94.12 61.9 94.08C61.77 94.08 61.66 94.07 61.53 94.05C61.41 94.05 61.3 94.01 61.19 93.99C60.91 93.95 60.63 93.9 60.37 93.84C60.24 93.82 60.11 93.8 59.97 93.77C59.88 93.77 59.81 93.73 59.71 93.71C59.4 93.64 59.06 93.56 58.74 93.47C58.61 93.43 58.46 93.41 58.33 93.37C58.27 93.37 58.24 93.34 58.2 93.34C57.62 93.17 57.06 92.98 56.53 92.78C56.29 92.68 55.96 92.53 55.71 92.42C55.58 92.36 55.45 92.31 55.32 92.25C54.93 92.07 54.53 91.86 54.18 91.65C53.79 91.43 53.43 91.21 53.09 90.96C53.02 90.91 52.95 90.83 52.87 90.78C52.63 90.59 52.38 90.42 52.16 90.21C52.07 90.14 52.01 90.06 51.92 89.99C51.73 89.8 51.52 89.63 51.36 89.45C51.26 89.35 51.21 89.26 51.13 89.17C50.98 89 50.83 88.83 50.72 88.64C50.65 88.53 50.59 88.42 50.51 88.31C50.4 88.14 50.29 87.97 50.22 87.8C50.16 87.69 50.12 87.56 50.07 87.45C49.99 87.28 49.92 87.11 49.86 86.94C49.82 86.81 49.8 86.7 49.77 86.57C49.73 86.4 49.67 86.25 49.65 86.08C49.64 85.95 49.64 85.82 49.62 85.69C49.62 85.54 49.58 85.37 49.58 85.22L49.58 88.4C49.58 90.74 51.11 93.07 54.18 94.85C54.55 95.06 54.93 95.26 55.32 95.45C55.45 95.52 55.6 95.58 55.75 95.64C55.97 95.73 56.2 95.84 56.42 95.94C56.96 96.14 57.62 96.37 58.2 96.53C58.24 96.53 58.29 96.55 58.33 96.57C58.46 96.61 58.59 96.65 58.72 96.68C59.04 96.78 59.38 96.85 59.71 96.93C59.79 96.94 59.88 96.96 59.97 96.98C60.11 97 60.24 97.04 60.35 97.06C60.63 97.11 60.91 97.15 61.19 97.21C61.3 97.21 61.41 97.24 61.53 97.24C61.66 97.24 61.77 97.28 61.9 97.3C62.16 97.34 62.42 97.36 62.69 97.39C62.82 97.39 62.93 97.41 63.06 97.43C63.17 97.43 63.28 97.45 63.41 97.47C63.68 97.47 63.94 97.51 64.2 97.51C64.33 97.51 64.46 97.51 64.61 97.51C64.72 97.51 64.84 97.51 64.93 97.51C65.21 97.51 65.49 97.51 65.79 97.51C65.94 97.51 66.07 97.51 66.22 97.51C66.29 97.51 66.39 97.51 66.46 97.51C66.82 97.51 67.17 97.47 67.53 97.43C67.66 97.43 67.81 97.41 67.94 97.39C67.98 97.39 68.03 97.39 68.07 97.39C68.67 97.34 69.27 97.24 69.85 97.15C70.01 97.11 70.28 97.08 70.44 97.04C70.72 96.98 71.02 96.93 71.3 96.85C71.51 96.8 71.72 96.74 71.92 96.68C72.2 96.61 72.46 96.53 72.73 96.46C72.78 96.44 72.84 96.42 72.89 96.4C72.99 96.37 73.08 96.35 73.17 96.31C73.6 96.16 74.02 96.01 74.41 95.84C74.56 95.79 74.71 95.71 74.86 95.65C75.36 95.43 75.87 95.19 76.33 94.91C76.41 94.87 76.46 94.83 76.52 94.78C76.67 94.68 76.8 94.61 76.93 94.51C77.12 94.38 77.31 94.27 77.49 94.14C77.64 94.03 77.79 93.92 77.94 93.79C78.11 93.65 78.26 93.52 78.41 93.39C78.47 93.34 78.61 93.19 78.67 93.13C78.91 92.91 79.12 92.66 79.33 92.42C79.38 92.36 79.42 92.29 79.47 92.23C79.51 92.2 79.55 92.14 79.59 92.1C79.72 91.93 79.83 91.75 79.96 91.56C80.02 91.47 80.07 91.39 80.11 91.3C80.2 91.15 80.32 90.89 80.39 90.74C80.45 90.63 80.48 90.51 80.54 90.4C80.6 90.25 80.67 90.03 80.71 89.88C80.75 89.75 80.78 89.62 80.8 89.5C80.84 89.35 80.84 89.15 80.86 89C80.86 88.85 80.9 88.68 80.9 88.53L80.9 85.33C80.9 85.33 80.9 85.45 80.9 85.48Z" fill="#A3CCC9" fill-opacity="1.000000" fill-rule="nonzero"></path>
&#x9;&#x9;&#x9;<path id="path" d="M49.65 85.75C49.65 85.88 49.65 86.01 49.69 86.14C49.73 86.31 49.77 86.46 49.8 86.62C49.84 86.76 49.86 86.89 49.9 87C49.95 87.17 50.03 87.34 50.1 87.5C50.16 87.62 50.2 87.75 50.25 87.86C50.35 88.03 50.46 88.2 50.55 88.36C50.63 88.48 50.68 88.59 50.76 88.7C50.89 88.87 51.04 89.06 51.17 89.22C51.24 89.32 51.32 89.41 51.39 89.5C51.56 89.69 51.75 89.86 51.95 90.05C52.03 90.12 52.1 90.2 52.2 90.27C52.42 90.46 52.66 90.64 52.91 90.83C52.98 90.89 53.06 90.96 53.13 91.02C53.47 91.26 53.82 91.49 54.22 91.71C54.59 91.92 54.96 92.12 55.36 92.31C55.49 92.36 55.62 92.42 55.75 92.48C56.01 92.59 56.29 92.72 56.55 92.81C57.1 93.02 57.66 93.21 58.22 93.37C58.4 93.43 58.57 93.47 58.76 93.52C59.08 93.62 59.39 93.69 59.73 93.77C59.94 93.8 60.16 93.86 60.39 93.9C60.67 93.95 60.93 93.99 61.21 94.05C61.45 94.08 61.68 94.12 61.92 94.14C62.18 94.18 62.44 94.2 62.7 94.23C62.95 94.25 63.19 94.27 63.43 94.29C63.69 94.31 63.98 94.33 64.24 94.33C64.46 94.33 64.7 94.33 64.93 94.35C65.23 94.35 65.51 94.35 65.79 94.35C66.01 94.35 66.24 94.35 66.46 94.35C66.82 94.35 67.17 94.31 67.53 94.27C67.71 94.27 67.9 94.25 68.07 94.23C68.67 94.18 69.27 94.08 69.86 93.99C70.05 93.95 70.24 93.92 70.43 93.88C70.72 93.82 71.02 93.77 71.32 93.69C71.53 93.64 71.73 93.58 71.94 93.52C72.2 93.45 72.48 93.37 72.72 93.3C72.87 93.24 73.02 93.19 73.19 93.15C73.6 93 74.01 92.85 74.41 92.68C74.56 92.63 74.71 92.55 74.86 92.5C75.36 92.27 75.87 92.03 76.33 91.75C76.71 91.52 77.06 91.3 77.4 91.06C77.7 90.85 78.07 90.55 78.31 90.33C78.56 90.1 78.89 89.78 79.1 89.56C79.17 89.47 79.25 89.37 79.32 89.28C79.47 89.11 79.6 88.94 79.74 88.76C79.81 88.64 79.87 88.53 79.94 88.4C80.03 88.23 80.15 88.08 80.22 87.91C80.28 87.8 80.32 87.67 80.37 87.56C80.45 87.39 80.52 87.22 80.58 87.07C80.61 86.96 80.63 86.83 80.67 86.72C80.71 86.55 80.76 86.38 80.8 86.21C81.21 83.61 79.7 80.92 76.26 78.94C73.96 77.61 71.14 76.79 68.16 76.45C66.35 76.25 64.5 76.25 62.69 76.42C62.52 76.42 62.35 76.44 62.2 76.45C59.28 76.79 56.4 77.61 54.14 78.92C52.85 79.67 51.86 80.51 51.11 81.43C50.1 82.66 49.6 83.99 49.6 85.32C49.6 85.47 49.64 85.6 49.65 85.75Z" fill="#B8D6D3" fill-opacity="1.000000" fill-rule="nonzero"></path>
&#x9;&#x9;&#x9;<path id="path" d="M80.9 81.32C80.9 81.43 80.88 81.52 80.86 81.63C80.86 81.75 80.86 81.9 80.84 82.01C80.84 82.04 80.82 82.08 80.82 82.12C80.8 82.21 80.76 82.4 80.73 82.49C80.69 82.61 80.67 82.74 80.63 82.85C80.63 82.89 80.6 82.92 80.6 82.96C80.56 83.05 80.48 83.24 80.45 83.33C80.39 83.45 80.35 83.58 80.3 83.69C80.28 83.75 80.24 83.78 80.2 83.84C80.19 83.88 80.17 83.91 80.15 83.95C80.11 84.03 80.05 84.1 80 84.18C79.92 84.29 79.87 84.42 79.79 84.53C79.74 84.61 79.68 84.66 79.62 84.74C79.59 84.79 79.57 84.85 79.51 84.89C79.47 84.94 79.42 84.98 79.36 85.04C79.29 85.13 79.21 85.22 79.14 85.32C79.01 85.47 78.84 85.62 78.69 85.77C78.63 85.82 78.6 85.88 78.54 85.93C78.5 85.97 78.39 86.06 78.35 86.1C78.22 86.21 78.07 86.33 77.94 86.44C77.81 86.55 77.68 86.66 77.53 86.77C77.38 86.89 77.1 87.06 76.95 87.17C76.82 87.24 76.71 87.34 76.56 87.43C76.5 87.47 76.43 87.5 76.37 87.54C75.9 87.82 75.4 88.06 74.89 88.29C74.74 88.36 74.6 88.42 74.45 88.48C74.05 88.64 73.64 88.79 73.23 88.94C73.14 88.98 73.04 89.02 72.95 89.06C72.89 89.07 72.84 89.09 72.76 89.11C72.5 89.19 72.24 89.26 71.98 89.34C71.77 89.39 71.57 89.45 71.36 89.5C71.06 89.58 70.76 89.64 70.46 89.69C70.29 89.73 70.15 89.77 69.98 89.78C69.38 89.88 68.72 89.97 68.11 90.03C68.07 90.03 68.03 90.03 67.98 90.03C67.85 90.03 67.7 90.03 67.55 90.07C67.19 90.1 66.84 90.12 66.48 90.14C66.39 90.14 66.31 90.14 66.22 90.14C66.07 90.14 65.94 90.14 65.79 90.14C65.51 90.14 65.21 90.14 64.93 90.14C64.82 90.14 64.72 90.14 64.61 90.14C64.48 90.14 64.35 90.14 64.22 90.12C63.96 90.12 63.68 90.1 63.41 90.08C63.3 90.08 63.19 90.08 63.06 90.07C62.93 90.07 62.82 90.03 62.69 90.03C62.42 90.01 62.16 89.97 61.9 89.93C61.77 89.93 61.66 89.92 61.53 89.9C61.41 89.9 61.3 89.86 61.19 89.84C60.91 89.8 60.63 89.75 60.37 89.69C60.24 89.67 60.11 89.65 59.97 89.62C59.88 89.6 59.81 89.58 59.71 89.56C59.4 89.49 59.06 89.41 58.74 89.32C58.61 89.28 58.46 89.26 58.33 89.22C58.27 89.22 58.24 89.19 58.2 89.19C57.62 89.02 57.06 88.83 56.53 88.63C56.29 88.53 55.96 88.38 55.71 88.27C55.58 88.21 55.45 88.16 55.32 88.1C54.93 87.92 54.53 87.71 54.18 87.5C53.79 87.28 53.43 87.06 53.09 86.81C53.02 86.76 52.95 86.68 52.87 86.63C52.63 86.44 52.38 86.27 52.16 86.06C52.07 85.99 52.01 85.91 51.92 85.84C51.73 85.65 51.52 85.48 51.36 85.3C51.26 85.2 51.21 85.11 51.13 85.02C50.98 84.85 50.83 84.68 50.72 84.49C50.65 84.38 50.59 84.27 50.51 84.16C50.4 83.99 50.29 83.82 50.22 83.65C50.16 83.54 50.12 83.41 50.07 83.3C49.99 83.13 49.92 82.96 49.86 82.79C49.82 82.66 49.8 82.55 49.77 82.42C49.73 82.25 49.67 82.1 49.65 81.93C49.64 81.8 49.64 81.67 49.62 81.54C49.62 81.39 49.58 81.22 49.58 81.07L49.58 84.25C49.58 86.59 51.11 88.92 54.18 90.7C54.55 90.91 54.93 91.11 55.32 91.3C55.45 91.37 55.6 91.43 55.75 91.49C55.97 91.58 56.2 91.69 56.42 91.79C56.96 91.99 57.62 92.22 58.2 92.38C58.24 92.38 58.29 92.4 58.33 92.42C58.46 92.46 58.59 92.5 58.72 92.53C59.04 92.63 59.38 92.7 59.71 92.78C59.79 92.78 59.88 92.81 59.97 92.83C60.11 92.85 60.24 92.89 60.35 92.91C60.63 92.96 60.91 93 61.19 93.06C61.3 93.06 61.41 93.09 61.53 93.09C61.66 93.09 61.77 93.13 61.9 93.15C62.16 93.19 62.42 93.21 62.69 93.24C62.82 93.24 62.93 93.26 63.06 93.28C63.17 93.28 63.28 93.3 63.41 93.32C63.68 93.32 63.94 93.36 64.2 93.36C64.33 93.36 64.46 93.36 64.61 93.36C64.72 93.36 64.84 93.36 64.93 93.36C65.21 93.36 65.49 93.36 65.79 93.36C65.94 93.36 66.07 93.36 66.22 93.36C66.29 93.36 66.39 93.36 66.46 93.36C66.82 93.36 67.17 93.32 67.53 93.28C67.66 93.28 67.81 93.26 67.94 93.24C67.98 93.24 68.03 93.24 68.07 93.24C68.67 93.19 69.27 93.09 69.85 93C70.01 92.96 70.28 92.91 70.44 92.87C70.72 92.81 71.02 92.76 71.3 92.68C71.51 92.63 71.72 92.57 71.92 92.51C72.2 92.44 72.46 92.36 72.73 92.29C72.78 92.29 72.84 92.25 72.89 92.23C72.99 92.2 73.08 92.18 73.17 92.14C73.6 91.99 74.02 91.84 74.41 91.67C74.56 91.62 74.71 91.54 74.86 91.49C75.36 91.26 75.87 91.02 76.33 90.74C76.41 90.7 76.46 90.66 76.52 90.61C76.67 90.51 76.8 90.44 76.93 90.35C77.12 90.21 77.31 90.1 77.49 89.97C77.64 89.86 77.79 89.75 77.94 89.62C78.11 89.49 78.26 89.35 78.41 89.22C78.47 89.17 78.61 89.02 78.67 88.96C78.91 88.74 79.12 88.49 79.33 88.25C79.38 88.2 79.42 88.12 79.47 88.06C79.51 88.03 79.55 87.97 79.59 87.93C79.72 87.75 79.83 87.58 79.96 87.39C80.02 87.3 80.07 87.22 80.11 87.13C80.2 86.98 80.32 86.72 80.39 86.57C80.45 86.46 80.48 86.34 80.54 86.23C80.6 86.08 80.67 85.86 80.71 85.71C80.75 85.58 80.78 85.47 80.8 85.34C80.84 85.19 80.84 84.98 80.86 84.83C80.86 84.68 80.9 84.51 80.9 84.36L80.9 81.17C80.9 81.17 80.9 81.28 80.9 81.32Z" fill="#A3CCC9" fill-opacity="1.000000" fill-rule="nonzero"></path>
&#x9;&#x9;&#x9;<path id="path" d="M49.65 81.6C49.65 81.73 49.65 81.86 49.69 81.99C49.73 82.16 49.77 82.31 49.8 82.47C49.84 82.61 49.86 82.74 49.9 82.85C49.95 83.02 50.03 83.19 50.1 83.35C50.16 83.47 50.2 83.6 50.25 83.71C50.35 83.88 50.46 84.05 50.55 84.21C50.63 84.33 50.68 84.44 50.76 84.55C50.89 84.72 51.04 84.91 51.17 85.07C51.24 85.17 51.32 85.26 51.39 85.35C51.56 85.54 51.75 85.71 51.95 85.9C52.03 85.97 52.1 86.05 52.2 86.12C52.42 86.31 52.66 86.49 52.91 86.68C52.98 86.74 53.06 86.81 53.13 86.87C53.47 87.11 53.82 87.34 54.22 87.56C54.59 87.77 54.96 87.97 55.36 88.16C55.49 88.21 55.62 88.27 55.75 88.33C56.01 88.44 56.29 88.57 56.55 88.66C57.1 88.87 57.66 89.06 58.22 89.22C58.4 89.28 58.57 89.32 58.76 89.37C59.08 89.47 59.39 89.54 59.73 89.62C59.94 89.67 60.16 89.71 60.39 89.75C60.67 89.8 60.93 89.84 61.21 89.9C61.45 89.93 61.68 89.97 61.92 89.99C62.18 90.03 62.44 90.05 62.7 90.08C62.95 90.1 63.19 90.12 63.43 90.14C63.69 90.16 63.98 90.18 64.24 90.18C64.46 90.18 64.7 90.18 64.93 90.2C65.23 90.2 65.51 90.2 65.79 90.2C66.01 90.2 66.24 90.2 66.46 90.18C66.82 90.18 67.17 90.14 67.53 90.1C67.71 90.1 67.9 90.08 68.07 90.07C68.67 90.01 69.27 89.92 69.86 89.82C70.05 89.79 70.24 89.75 70.43 89.71C70.72 89.65 71.02 89.6 71.32 89.52C71.53 89.47 71.73 89.41 71.94 89.36C72.2 89.28 72.48 89.21 72.72 89.13C72.87 89.07 73.02 89.02 73.19 88.98C73.6 88.83 74.01 88.68 74.41 88.51C74.56 88.46 74.71 88.38 74.86 88.33C75.36 88.1 75.87 87.86 76.33 87.58C76.71 87.35 77.06 87.13 77.4 86.89C77.7 86.68 78.07 86.38 78.31 86.16C78.56 85.93 78.89 85.62 79.1 85.39C79.17 85.3 79.25 85.2 79.32 85.11C79.47 84.94 79.6 84.77 79.74 84.59C79.81 84.48 79.87 84.36 79.94 84.23C80.03 84.08 80.15 83.91 80.22 83.77C80.28 83.65 80.32 83.52 80.37 83.41C80.45 83.24 80.52 83.07 80.58 82.92C80.61 82.81 80.63 82.68 80.67 82.57C80.71 82.4 80.76 82.23 80.8 82.06C81.21 79.46 79.7 76.77 76.26 74.79C73.96 73.46 71.14 72.64 68.16 72.3C66.35 72.1 64.5 72.1 62.69 72.27C62.52 72.27 62.35 72.29 62.2 72.3C59.28 72.64 56.4 73.46 54.14 74.77C52.85 75.52 51.86 76.36 51.11 77.28C50.1 78.51 49.6 79.84 49.6 81.17C49.6 81.32 49.64 81.45 49.65 81.6Z" fill="#B8D6D3" fill-opacity="1.000000" fill-rule="nonzero"></path>
&#x9;&#x9;&#x9;<path id="path" d="M80.9 77.13C80.9 77.24 80.88 77.33 80.86 77.43C80.86 77.54 80.86 77.69 80.84 77.8C80.84 77.84 80.82 77.88 80.82 77.91C80.8 78.01 80.76 78.19 80.73 78.29C80.69 78.4 80.67 78.53 80.63 78.64C80.63 78.68 80.6 78.72 80.6 78.75C80.56 78.85 80.48 79.03 80.45 79.13C80.39 79.24 80.35 79.37 80.3 79.48C80.28 79.54 80.24 79.58 80.2 79.63C80.19 79.67 80.17 79.71 80.15 79.74C80.11 79.82 80.05 79.89 80 79.97C79.92 80.08 79.87 80.21 79.79 80.32C79.74 80.4 79.68 80.46 79.62 80.53C79.59 80.59 79.57 80.64 79.51 80.68C79.47 80.74 79.42 80.77 79.36 80.83C79.29 80.92 79.21 81.02 79.14 81.11C79.01 81.26 78.84 81.41 78.69 81.56C78.63 81.61 78.6 81.67 78.54 81.73C78.5 81.76 78.39 81.86 78.35 81.89C78.22 82.01 78.07 82.12 77.94 82.23C77.81 82.34 77.68 82.46 77.53 82.57C77.38 82.68 77.1 82.85 76.95 82.96C76.82 83.04 76.71 83.13 76.56 83.22C76.5 83.26 76.43 83.3 76.37 83.33C75.9 83.61 75.4 83.86 74.89 84.08C74.74 84.16 74.6 84.21 74.45 84.27C74.05 84.44 73.64 84.59 73.23 84.74C73.14 84.77 73.04 84.81 72.95 84.85C72.89 84.87 72.84 84.89 72.76 84.9C72.5 84.98 72.24 85.05 71.98 85.13C71.77 85.19 71.57 85.24 71.36 85.3C71.06 85.37 70.76 85.43 70.46 85.48C70.29 85.52 70.15 85.56 69.98 85.6C69.38 85.71 68.72 85.78 68.11 85.84C68.07 85.84 68.03 85.84 67.98 85.84C67.85 85.84 67.7 85.84 67.55 85.88C67.19 85.91 66.84 85.93 66.48 85.95C66.39 85.95 66.31 85.95 66.22 85.95C66.07 85.95 65.94 85.95 65.79 85.95C65.51 85.95 65.21 85.95 64.93 85.95C64.82 85.95 64.72 85.95 64.61 85.95C64.48 85.95 64.35 85.95 64.22 85.93C63.96 85.93 63.68 85.91 63.41 85.9C63.3 85.9 63.19 85.9 63.06 85.88C62.93 85.88 62.82 85.84 62.69 85.84C62.42 85.82 62.16 85.78 61.9 85.75C61.77 85.75 61.66 85.73 61.53 85.71C61.41 85.71 61.3 85.67 61.19 85.65C60.91 85.62 60.63 85.56 60.37 85.5C60.24 85.48 60.11 85.47 59.97 85.43C59.88 85.41 59.81 85.39 59.71 85.37C59.4 85.3 59.06 85.22 58.74 85.13C58.61 85.09 58.46 85.07 58.33 85.04C58.27 85.04 58.24 85 58.2 84.98C57.62 84.81 57.06 84.62 56.53 84.42C56.29 84.33 55.96 84.18 55.71 84.06C55.58 84.01 55.45 83.95 55.32 83.9C54.93 83.71 54.53 83.5 54.18 83.3C53.79 83.07 53.43 82.85 53.09 82.61C53.02 82.55 52.95 82.47 52.87 82.42C52.63 82.23 52.38 82.06 52.16 81.86C52.07 81.78 52.01 81.71 51.92 81.63C51.73 81.45 51.52 81.28 51.36 81.09C51.26 81 51.21 80.9 51.13 80.81C50.98 80.64 50.83 80.47 50.72 80.29C50.65 80.17 50.59 80.06 50.51 79.95C50.4 79.78 50.29 79.61 50.22 79.45C50.16 79.33 50.12 79.2 50.07 79.09C49.99 78.92 49.92 78.75 49.86 78.59C49.82 78.45 49.8 78.34 49.77 78.21C49.73 78.04 49.67 77.89 49.65 77.73C49.64 77.59 49.64 77.46 49.62 77.33C49.62 77.18 49.58 77.02 49.58 76.87L49.58 80.04C49.58 82.38 51.11 84.72 54.18 86.49C54.55 86.7 54.93 86.91 55.32 87.09C55.45 87.17 55.6 87.22 55.75 87.28C55.97 87.37 56.2 87.49 56.42 87.58C56.96 87.78 57.62 88.01 58.2 88.18C58.24 88.18 58.29 88.2 58.33 88.21C58.46 88.25 58.59 88.29 58.72 88.33C59.04 88.4 59.38 88.49 59.71 88.57C59.79 88.57 59.88 88.61 59.97 88.63C60.11 88.64 60.24 88.68 60.35 88.7C60.63 88.76 60.91 88.79 61.19 88.85C61.3 88.85 61.41 88.89 61.53 88.91C61.66 88.91 61.77 88.94 61.9 88.96C62.16 89 62.42 89.02 62.69 89.06C62.82 89.06 62.93 89.07 63.06 89.09C63.17 89.09 63.28 89.11 63.41 89.13C63.68 89.13 63.94 89.17 64.2 89.17C64.33 89.17 64.46 89.17 64.61 89.17C64.72 89.17 64.84 89.17 64.93 89.17C65.21 89.17 65.49 89.17 65.79 89.17C65.94 89.17 66.07 89.17 66.22 89.17C66.29 89.17 66.39 89.17 66.46 89.17C66.82 89.17 67.17 89.13 67.53 89.09C67.66 89.09 67.81 89.07 67.94 89.06C67.98 89.06 68.03 89.06 68.07 89.06C68.67 89 69.27 88.91 69.85 88.81C70.01 88.77 70.28 88.72 70.44 88.68C70.72 88.63 71.02 88.57 71.3 88.49C71.51 88.44 71.72 88.38 71.92 88.33C72.2 88.25 72.46 88.18 72.73 88.1C72.78 88.08 72.84 88.06 72.89 88.05C72.99 88.01 73.08 87.99 73.17 87.95C73.6 87.8 74.02 87.65 74.41 87.49C74.56 87.43 74.71 87.35 74.86 87.3C75.36 87.07 75.87 86.83 76.33 86.55C76.41 86.51 76.46 86.48 76.52 86.42C76.67 86.34 76.8 86.25 76.93 86.16C77.12 86.03 77.31 85.91 77.49 85.78C77.64 85.67 77.79 85.56 77.94 85.43C78.11 85.3 78.26 85.17 78.41 85.04C78.47 84.98 78.61 84.83 78.67 84.77C78.91 84.55 79.12 84.31 79.33 84.06C79.38 84.01 79.42 83.93 79.47 83.88C79.51 83.84 79.55 83.78 79.59 83.75C79.72 83.58 79.83 83.39 79.96 83.2C80.02 83.11 80.07 83.04 80.11 82.94C80.2 82.79 80.32 82.53 80.39 82.38C80.45 82.27 80.48 82.16 80.54 82.04C80.6 81.89 80.67 81.67 80.71 81.52C80.75 81.39 80.78 81.28 80.8 81.15C80.84 81 80.84 80.79 80.86 80.64C80.86 80.49 80.9 80.32 80.9 80.17L80.9 76.98C80.9 76.98 80.9 77.09 80.9 77.13Z" fill="#A3CCC9" fill-opacity="1.000000" fill-rule="nonzero"></path>
&#x9;&#x9;&#x9;<path id="path" d="M49.65 77.39C49.65 77.52 49.65 77.65 49.69 77.78C49.73 77.95 49.77 78.1 49.8 78.27C49.84 78.4 49.86 78.53 49.9 78.64C49.95 78.81 50.03 78.98 50.1 79.15C50.16 79.26 50.2 79.39 50.25 79.5C50.35 79.67 50.46 79.84 50.55 80.01C50.63 80.12 50.68 80.23 50.76 80.34C50.89 80.51 51.04 80.7 51.17 80.87C51.24 80.96 51.32 81.05 51.39 81.15C51.56 81.33 51.75 81.5 51.95 81.69C52.03 81.76 52.1 81.84 52.2 81.91C52.42 82.1 52.66 82.29 52.91 82.47C52.98 82.53 53.06 82.61 53.13 82.66C53.47 82.9 53.82 83.13 54.22 83.35C54.59 83.56 54.96 83.76 55.36 83.95C55.49 84.01 55.62 84.06 55.75 84.12C56.01 84.23 56.29 84.36 56.55 84.46C57.1 84.66 57.66 84.85 58.22 85.02C58.4 85.07 58.57 85.11 58.76 85.17C59.08 85.24 59.39 85.33 59.73 85.41C59.94 85.45 60.16 85.5 60.39 85.54C60.67 85.6 60.93 85.63 61.21 85.69C61.45 85.73 61.68 85.76 61.92 85.78C62.18 85.82 62.44 85.84 62.7 85.88C62.95 85.9 63.19 85.91 63.43 85.93C63.69 85.93 63.98 85.97 64.24 85.97C64.46 85.97 64.7 85.97 64.93 85.99C65.23 85.99 65.51 85.99 65.79 85.99C66.01 85.99 66.24 85.99 66.46 85.97C66.82 85.97 67.17 85.93 67.53 85.9C67.71 85.9 67.9 85.88 68.07 85.86C68.67 85.8 69.27 85.71 69.86 85.62C70.05 85.58 70.24 85.54 70.43 85.5C70.72 85.45 71.02 85.39 71.32 85.32C71.53 85.26 71.73 85.2 71.94 85.15C72.2 85.07 72.48 85 72.72 84.92C72.87 84.87 73.02 84.81 73.19 84.77C73.6 84.62 74.01 84.47 74.41 84.31C74.56 84.25 74.71 84.18 74.86 84.12C75.36 83.9 75.87 83.65 76.33 83.37C76.71 83.15 77.06 82.92 77.4 82.68C77.7 82.47 78.07 82.18 78.31 81.95C78.56 81.73 78.89 81.41 79.1 81.18C79.17 81.09 79.25 81 79.32 80.9C79.47 80.74 79.6 80.57 79.74 80.4C79.81 80.29 79.87 80.16 79.94 80.04C80.03 79.88 80.15 79.73 80.22 79.56C80.28 79.45 80.32 79.31 80.37 79.2C80.45 79.03 80.52 78.87 80.58 78.7C80.61 78.59 80.63 78.45 80.67 78.34C80.71 78.17 80.76 78.01 80.8 77.84C81.21 75.24 79.7 72.55 76.26 70.56C73.96 69.24 71.14 68.41 68.16 68.08C66.35 67.87 64.5 67.87 62.69 68.04C62.52 68.04 62.35 68.06 62.2 68.08C59.28 68.41 56.4 69.24 54.14 70.55C52.85 71.29 51.86 72.14 51.11 73.05C50.1 74.29 49.6 75.61 49.6 76.94C49.6 77.09 49.64 77.24 49.65 77.39Z" fill="#B8D6D3" fill-opacity="1.000000" fill-rule="nonzero"></path>
&#x9;&#x9;&#x9;<path id="path" d="M80.9 72.83C80.9 72.94 80.88 73.03 80.86 73.15C80.86 73.26 80.86 73.41 80.84 73.52C80.84 73.56 80.82 73.6 80.82 73.63C80.8 73.74 80.76 73.91 80.73 74.01C80.69 74.12 80.67 74.25 80.63 74.36C80.63 74.4 80.6 74.44 80.6 74.47C80.56 74.57 80.48 74.75 80.45 74.85C80.39 74.96 80.35 75.09 80.3 75.2C80.28 75.26 80.24 75.3 80.2 75.35C80.19 75.39 80.17 75.43 80.15 75.46C80.11 75.54 80.05 75.61 80 75.69C79.92 75.8 79.87 75.93 79.79 76.04C79.74 76.12 79.68 76.17 79.62 76.25C79.59 76.31 79.57 76.36 79.51 76.4C79.47 76.46 79.42 76.49 79.36 76.55C79.29 76.64 79.21 76.74 79.14 76.83C79.01 76.98 78.84 77.13 78.69 77.28C78.63 77.33 78.6 77.39 78.54 77.45C78.5 77.48 78.39 77.58 78.35 77.61C78.22 77.73 78.07 77.84 77.94 77.95C77.81 78.06 77.68 78.18 77.53 78.29C77.38 78.4 77.1 78.57 76.95 78.68C76.82 78.76 76.71 78.85 76.56 78.94C76.5 78.98 76.43 79.02 76.37 79.05C75.9 79.33 75.4 79.56 74.89 79.8C74.74 79.88 74.6 79.93 74.45 79.99C74.05 80.16 73.64 80.31 73.23 80.46C73.14 80.49 73.04 80.53 72.95 80.57C72.89 80.59 72.84 80.61 72.76 80.62C72.5 80.7 72.24 80.77 71.98 80.85C71.77 80.91 71.57 80.96 71.36 81.02C71.06 81.09 70.76 81.15 70.46 81.2C70.29 81.24 70.15 81.28 69.98 81.3C69.38 81.39 68.72 81.48 68.11 81.54C68.07 81.54 68.03 81.54 67.98 81.56C67.85 81.56 67.7 81.56 67.55 81.58C67.19 81.62 66.84 81.63 66.48 81.65C66.39 81.65 66.31 81.65 66.22 81.65C66.07 81.65 65.94 81.65 65.79 81.65C65.51 81.65 65.21 81.65 64.93 81.65C64.82 81.65 64.72 81.65 64.61 81.65C64.48 81.65 64.35 81.65 64.22 81.63C63.96 81.63 63.68 81.62 63.41 81.6C63.3 81.6 63.19 81.6 63.06 81.6C62.93 81.6 62.82 81.56 62.69 81.56C62.42 81.54 62.16 81.5 61.9 81.47C61.77 81.47 61.66 81.45 61.53 81.43C61.41 81.43 61.3 81.39 61.19 81.37C60.91 81.34 60.63 81.28 60.37 81.22C60.24 81.2 60.11 81.19 59.97 81.15C59.88 81.15 59.81 81.11 59.71 81.09C59.4 81.02 59.06 80.94 58.74 80.85C58.61 80.81 58.46 80.79 58.33 80.76C58.27 80.76 58.24 80.72 58.2 80.72C57.62 80.55 57.06 80.36 56.53 80.16C56.29 80.06 55.96 79.91 55.71 79.8C55.58 79.75 55.45 79.69 55.32 79.63C54.93 79.45 54.53 79.24 54.18 79.04C53.79 78.81 53.43 78.59 53.09 78.34C53.02 78.29 52.95 78.21 52.87 78.16C52.63 77.97 52.38 77.78 52.16 77.6C52.07 77.52 52.01 77.45 51.92 77.37C51.73 77.18 51.52 77.02 51.36 76.83C51.26 76.74 51.21 76.64 51.13 76.55C50.98 76.38 50.83 76.21 50.72 76.03C50.65 75.91 50.59 75.8 50.51 75.69C50.4 75.52 50.29 75.35 50.22 75.18C50.16 75.07 50.12 74.94 50.07 74.83C49.99 74.66 49.92 74.49 49.86 74.32C49.82 74.19 49.8 74.08 49.77 73.95C49.73 73.78 49.67 73.63 49.65 73.46C49.64 73.33 49.64 73.2 49.62 73.07C49.62 72.92 49.58 72.75 49.58 72.6L49.58 75.78C49.58 78.12 51.11 80.46 54.18 82.23C54.55 82.44 54.93 82.64 55.32 82.83C55.45 82.89 55.6 82.96 55.75 83.02C55.97 83.11 56.2 83.22 56.42 83.32C56.96 83.52 57.62 83.75 58.2 83.92C58.24 83.92 58.29 83.93 58.33 83.95C58.46 83.99 58.59 84.03 58.72 84.06C59.04 84.16 59.38 84.23 59.71 84.31C59.79 84.31 59.88 84.35 59.97 84.36C60.11 84.38 60.24 84.42 60.35 84.44C60.63 84.49 60.91 84.53 61.19 84.59C61.3 84.59 61.41 84.63 61.53 84.63C61.66 84.63 61.77 84.66 61.9 84.68C62.16 84.72 62.42 84.74 62.69 84.78C62.82 84.78 62.93 84.79 63.06 84.81C63.17 84.81 63.28 84.83 63.41 84.85C63.68 84.85 63.94 84.89 64.2 84.89C64.33 84.89 64.46 84.89 64.61 84.89C64.72 84.89 64.84 84.89 64.93 84.89C65.21 84.89 65.49 84.89 65.79 84.89C65.94 84.89 66.07 84.89 66.22 84.89C66.29 84.89 66.39 84.89 66.46 84.89C66.82 84.89 67.17 84.85 67.53 84.81C67.66 84.81 67.81 84.79 67.94 84.78C67.98 84.78 68.03 84.78 68.07 84.78C68.67 84.72 69.27 84.63 69.85 84.53C70.01 84.49 70.28 84.46 70.44 84.42C70.72 84.36 71.02 84.31 71.3 84.23C71.51 84.18 71.72 84.12 71.92 84.06C72.2 83.99 72.46 83.92 72.73 83.84C72.78 83.84 72.84 83.8 72.89 83.78C72.99 83.75 73.08 83.73 73.17 83.69C73.6 83.54 74.02 83.39 74.41 83.22C74.56 83.17 74.71 83.09 74.86 83.04C75.36 82.81 75.87 82.57 76.33 82.29C76.41 82.25 76.46 82.21 76.52 82.16C76.67 82.06 76.8 81.99 76.93 81.9C77.12 81.76 77.31 81.65 77.49 81.52C77.64 81.41 77.79 81.3 77.94 81.17C78.11 81.04 78.26 80.91 78.41 80.77C78.47 80.72 78.61 80.57 78.67 80.51C78.91 80.29 79.12 80.05 79.33 79.8C79.38 79.75 79.42 79.67 79.47 79.62C79.51 79.58 79.55 79.52 79.59 79.48C79.72 79.32 79.83 79.13 79.96 78.94C80.02 78.85 80.07 78.77 80.11 78.68C80.2 78.53 80.32 78.27 80.39 78.12C80.45 78.01 80.48 77.9 80.54 77.78C80.6 77.63 80.67 77.41 80.71 77.26C80.75 77.13 80.78 77 80.8 76.89C80.84 76.74 80.84 76.53 80.86 76.38C80.86 76.23 80.9 76.06 80.9 75.91L80.9 72.72C80.9 72.72 80.9 72.79 80.9 72.83Z" fill="#A3CCC9" fill-opacity="1.000000" fill-rule="nonzero"></path>
&#x9;&#x9;&#x9;<path id="path" d="M49.65 73.11C49.65 73.24 49.65 73.37 49.69 73.5C49.73 73.67 49.77 73.82 49.8 73.99C49.84 74.12 49.86 74.25 49.9 74.36C49.95 74.53 50.03 74.7 50.1 74.87C50.16 74.98 50.2 75.11 50.25 75.22C50.35 75.39 50.46 75.56 50.55 75.73C50.63 75.84 50.68 75.95 50.76 76.06C50.89 76.23 51.04 76.42 51.17 76.59C51.24 76.68 51.32 76.77 51.39 76.87C51.56 77.05 51.75 77.22 51.95 77.41C52.03 77.48 52.1 77.56 52.2 77.63C52.42 77.82 52.66 78.01 52.91 78.19C52.98 78.25 53.06 78.32 53.13 78.38C53.47 78.62 53.82 78.85 54.22 79.07C54.59 79.28 54.96 79.48 55.36 79.67C55.49 79.73 55.62 79.78 55.75 79.84C56.01 79.95 56.29 80.08 56.55 80.18C57.1 80.38 57.66 80.57 58.22 80.74C58.4 80.79 58.57 80.83 58.76 80.89C59.08 80.96 59.39 81.05 59.73 81.13C59.94 81.19 60.16 81.22 60.39 81.26C60.67 81.32 60.93 81.35 61.21 81.41C61.45 81.45 61.68 81.48 61.92 81.5C62.18 81.54 62.44 81.56 62.7 81.6C62.95 81.62 63.19 81.63 63.43 81.65C63.69 81.67 63.98 81.69 64.24 81.69C64.46 81.69 64.7 81.69 64.93 81.71C65.23 81.71 65.51 81.71 65.79 81.71C66.01 81.71 66.24 81.71 66.46 81.71C66.82 81.71 67.17 81.67 67.53 81.63C67.71 81.63 67.9 81.62 68.07 81.6C68.67 81.54 69.27 81.45 69.86 81.35C70.05 81.32 70.24 81.28 70.43 81.24C70.72 81.18 71.02 81.13 71.32 81.05C71.53 81 71.73 80.94 71.94 80.89C72.2 80.81 72.48 80.74 72.72 80.66C72.87 80.61 73.02 80.55 73.19 80.51C73.6 80.36 74.01 80.21 74.41 80.04C74.56 79.99 74.71 79.91 74.86 79.86C75.36 79.63 75.87 79.39 76.33 79.11C76.71 78.89 77.06 78.66 77.4 78.42C77.7 78.21 78.07 77.91 78.31 77.69C78.56 77.46 78.89 77.15 79.1 76.92C79.17 76.83 79.25 76.74 79.32 76.64C79.47 76.47 79.6 76.31 79.74 76.12C79.81 76.01 79.87 75.89 79.94 75.76C80.03 75.6 80.15 75.45 80.22 75.28C80.28 75.16 80.32 75.03 80.37 74.92C80.45 74.75 80.52 74.59 80.58 74.44C80.61 74.32 80.63 74.19 80.67 74.08C80.71 73.91 80.76 73.74 80.8 73.58C81.21 70.98 79.7 68.28 76.26 66.3C73.96 64.98 71.14 64.15 68.16 63.82C66.35 63.61 64.5 63.61 62.69 63.78C62.52 63.78 62.35 63.8 62.2 63.82C59.28 64.15 56.4 64.98 54.14 66.28C52.85 67.03 51.86 67.87 51.11 68.79C50.1 70.02 49.6 71.35 49.6 72.68C49.6 72.83 49.64 72.96 49.65 73.11Z" fill="#D0EAE7" fill-opacity="1.000000" fill-rule="nonzero"></path>
&#x9;&#x9;&#x9;<path id="path" d="M77.64 121.18C77.64 121.29 77.62 121.38 77.61 121.49C77.61 121.61 77.61 121.77 77.57 121.89C77.57 121.92 77.57 121.96 77.55 122C77.53 122.11 77.49 122.28 77.46 122.37C77.42 122.49 77.4 122.62 77.36 122.73C77.36 122.77 77.33 122.8 77.33 122.84C77.29 122.93 77.21 123.12 77.18 123.21C77.12 123.33 77.08 123.46 77.03 123.57C77.01 123.61 76.97 123.66 76.93 123.72C76.91 123.76 76.9 123.79 76.88 123.83C76.84 123.91 76.78 123.98 76.73 124.06C76.65 124.17 76.6 124.3 76.52 124.41C76.47 124.49 76.41 124.54 76.35 124.62C76.32 124.67 76.28 124.73 76.24 124.77C76.2 124.82 76.15 124.86 76.09 124.92C76.02 125.01 75.94 125.1 75.87 125.2C75.74 125.35 75.57 125.5 75.42 125.64C75.36 125.7 75.33 125.76 75.27 125.81C75.23 125.85 75.12 125.94 75.08 125.98C74.95 126.09 74.8 126.21 74.67 126.32C74.54 126.43 74.41 126.54 74.26 126.64C74.11 126.75 73.83 126.92 73.68 127.03C73.55 127.1 73.44 127.2 73.29 127.29C73.23 127.33 73.16 127.36 73.1 127.4C72.63 127.68 72.13 127.93 71.62 128.15C71.47 128.22 71.32 128.28 71.17 128.34C70.78 128.5 70.37 128.65 69.94 128.8C69.85 128.84 69.75 128.88 69.66 128.92C69.6 128.92 69.55 128.95 69.49 128.97C69.23 129.05 68.95 129.12 68.69 129.2C68.48 129.25 68.28 129.31 68.07 129.37C67.77 129.44 67.47 129.5 67.17 129.55C67.01 129.59 66.86 129.63 66.69 129.64C66.11 129.76 65.43 129.83 64.82 129.89C64.78 129.89 64.74 129.89 64.69 129.89C64.56 129.89 64.41 129.89 64.26 129.91C63.9 129.94 63.55 129.96 63.19 129.98C63.1 129.98 63.02 129.98 62.93 129.98C62.78 129.98 62.65 129.98 62.5 129.98C62.22 129.98 61.92 129.98 61.64 129.98C61.53 129.98 61.43 129.98 61.32 129.98C61.19 129.98 61.06 129.98 60.93 129.96C60.67 129.96 60.39 129.94 60.13 129.93C60.01 129.93 59.9 129.93 59.77 129.93C59.64 129.93 59.53 129.89 59.4 129.89C59.13 129.87 58.87 129.83 58.63 129.8C58.5 129.8 58.39 129.78 58.26 129.76C58.14 129.76 58.03 129.72 57.92 129.7C57.64 129.66 57.38 129.61 57.1 129.55C56.97 129.53 56.83 129.51 56.7 129.48C56.61 129.48 56.54 129.44 56.44 129.42C56.11 129.35 55.79 129.27 55.47 129.18C55.34 129.14 55.19 129.12 55.06 129.08C55 129.08 54.97 129.05 54.93 129.05C54.35 128.88 53.79 128.69 53.25 128.49C53 128.39 52.67 128.24 52.44 128.13C52.31 128.08 52.18 128.02 52.05 127.96C51.66 127.78 51.26 127.57 50.91 127.36C50.52 127.14 50.16 126.92 49.82 126.67C49.73 126.6 49.66 126.52 49.56 126.47C49.34 126.3 49.09 126.13 48.89 125.94C48.8 125.85 48.72 125.78 48.63 125.68C48.44 125.51 48.27 125.35 48.1 125.18C48.01 125.07 47.94 124.97 47.84 124.86C47.71 124.69 47.56 124.54 47.45 124.37C47.37 124.26 47.3 124.13 47.23 124.02C47.13 123.85 47.02 123.7 46.94 123.53C46.89 123.42 46.83 123.29 46.8 123.16C46.72 122.99 46.65 122.84 46.59 122.67C46.55 122.54 46.53 122.43 46.5 122.3C46.46 122.13 46.4 121.96 46.37 121.79C46.35 121.68 46.35 121.55 46.33 121.44C46.33 121.27 46.29 121.12 46.29 120.95L46.29 124.09C46.29 126.43 47.82 128.77 50.89 130.54C51.26 130.75 51.64 130.95 52.03 131.14C52.16 131.2 52.31 131.25 52.44 131.31C52.67 131.4 52.91 131.52 53.15 131.61C53.69 131.81 54.35 132.04 54.93 132.21C54.97 132.21 55.02 132.23 55.06 132.24C55.19 132.28 55.32 132.32 55.45 132.34C55.79 132.43 56.11 132.51 56.44 132.58C56.54 132.6 56.61 132.62 56.7 132.64C56.83 132.66 56.97 132.69 57.08 132.71C57.36 132.77 57.64 132.81 57.92 132.86C58.03 132.86 58.14 132.9 58.26 132.9C58.39 132.92 58.5 132.94 58.63 132.95C58.89 132.99 59.15 133.01 59.41 133.05C59.55 133.05 59.66 133.07 59.79 133.09C59.9 133.09 60.01 133.1 60.14 133.12C60.41 133.12 60.67 133.16 60.93 133.16C61.06 133.16 61.19 133.16 61.32 133.16C61.43 133.16 61.55 133.16 61.64 133.16C61.92 133.16 62.2 133.16 62.5 133.16C62.65 133.16 62.78 133.16 62.93 133.16C63.02 133.16 63.1 133.16 63.17 133.16C63.53 133.16 63.88 133.12 64.24 133.09C64.37 133.09 64.52 133.07 64.65 133.05C64.69 133.05 64.74 133.05 64.78 133.05C65.38 132.99 65.98 132.9 66.56 132.81C66.72 132.77 66.99 132.71 67.17 132.67C67.45 132.62 67.73 132.56 68.01 132.49C68.22 132.43 68.43 132.38 68.63 132.32C68.89 132.24 69.17 132.17 69.44 132.09C69.49 132.09 69.55 132.06 69.6 132.04C69.7 132 69.79 131.98 69.88 131.95C70.3 131.8 70.71 131.65 71.1 131.48C71.25 131.42 71.4 131.35 71.55 131.29C72.05 131.07 72.56 130.82 73.03 130.54C73.1 130.5 73.16 130.47 73.21 130.41C73.36 130.32 73.51 130.23 73.64 130.13C73.81 130.02 74 129.91 74.17 129.78C74.33 129.66 74.47 129.53 74.61 129.42C74.76 129.29 74.93 129.18 75.08 129.05C75.14 128.99 75.29 128.84 75.34 128.78C75.59 128.56 75.79 128.32 76 128.08C76.05 128.02 76.09 127.94 76.15 127.89C76.19 127.85 76.22 127.79 76.26 127.76C76.39 127.59 76.5 127.4 76.62 127.22C76.67 127.12 76.73 127.05 76.76 126.95C76.86 126.8 76.97 126.54 77.05 126.39C77.1 126.28 77.14 126.17 77.19 126.06C77.25 125.91 77.31 125.68 77.34 125.53C77.38 125.4 77.42 125.27 77.44 125.16C77.46 125.01 77.48 124.8 77.49 124.65C77.49 124.5 77.53 124.34 77.53 124.19L77.53 120.99C77.53 120.99 77.53 121.08 77.53 121.12L77.64 121.18Z" fill="#A3CCC9" fill-opacity="1.000000" fill-rule="nonzero"></path>
&#x9;&#x9;&#x9;<path id="path" d="M46.44 121.85C46.46 122.02 46.52 122.19 46.57 122.35C46.61 122.48 46.63 122.6 46.66 122.73C46.72 122.9 46.8 123.06 46.87 123.21C46.93 123.33 46.96 123.46 47.02 123.59C47.09 123.76 47.21 123.91 47.3 124.07C47.38 124.19 47.43 124.32 47.52 124.43C47.64 124.6 47.79 124.75 47.92 124.92C48.01 125.03 48.09 125.14 48.18 125.23C48.35 125.4 48.52 125.57 48.7 125.74C48.8 125.83 48.87 125.91 48.96 126C49.17 126.19 49.39 126.35 49.64 126.52C49.73 126.6 49.81 126.67 49.9 126.73C50.24 126.97 50.59 127.2 50.98 127.42C51.36 127.63 51.73 127.83 52.12 128.02C52.25 128.07 52.39 128.13 52.52 128.19C52.78 128.3 53.04 128.43 53.32 128.52C53.86 128.73 54.42 128.92 55 129.08C55.17 129.14 55.36 129.18 55.55 129.23C55.86 129.31 56.18 129.4 56.52 129.48C56.74 129.53 56.95 129.57 57.17 129.61C57.45 129.66 57.71 129.7 57.99 129.76C58.24 129.79 58.46 129.83 58.7 129.85C58.97 129.89 59.23 129.91 59.47 129.94C59.71 129.96 59.96 129.98 60.2 130C60.46 130.02 60.74 130.04 61 130.04C61.23 130.04 61.47 130.04 61.7 130.06C62 130.06 62.28 130.06 62.56 130.06C62.78 130.06 63 130.06 63.23 130.04C63.58 130.04 63.94 130 64.29 129.96C64.48 129.96 64.67 129.94 64.84 129.92C65.44 129.87 66.03 129.78 66.63 129.68C66.82 129.64 67.01 129.61 67.19 129.57C67.49 129.51 67.79 129.46 68.09 129.38C68.3 129.33 68.5 129.27 68.71 129.22C68.99 129.14 69.25 129.07 69.51 128.99C69.66 128.95 69.81 128.9 69.96 128.84C70.39 128.69 70.8 128.54 71.19 128.37C71.34 128.32 71.49 128.24 71.64 128.19C72.15 127.96 72.65 127.72 73.12 127.44C73.49 127.21 73.85 126.99 74.18 126.75C74.48 126.54 74.86 126.24 75.1 126.02C75.34 125.79 75.68 125.48 75.89 125.25C75.96 125.16 76.04 125.06 76.11 124.97C76.26 124.8 76.39 124.63 76.52 124.45C76.6 124.34 76.67 124.22 76.73 124.09C76.82 123.94 76.93 123.77 77.01 123.63C77.06 123.51 77.1 123.38 77.16 123.27C77.23 123.1 77.31 122.93 77.36 122.78C77.4 122.67 77.42 122.54 77.46 122.43C77.49 122.26 77.55 122.09 77.59 121.92C77.61 121.81 77.61 121.68 77.62 121.57C77.76 120.24 77.38 118.88 76.5 117.62C75.74 116.54 74.58 115.51 73.04 114.63C71.7 113.85 70.17 113.25 68.54 112.82C64.37 111.7 59.55 111.72 55.4 112.82C53.79 113.25 52.25 113.85 50.93 114.63C49.64 115.38 48.65 116.22 47.9 117.14C46.89 118.35 46.38 119.68 46.38 121.01C46.38 121.18 46.4 121.36 46.42 121.53C46.42 121.64 46.4 121.74 46.44 121.85Z" fill="#D0EAE7" fill-opacity="1.000000" fill-rule="nonzero"></path>
&#x9;&#x9;</g>
&#x9;</g>
</svg>