<svg width="195.000000" height="140.000000" viewBox="0 0 195 140" fill="none" xmlns="http://www.w3.org/2000/svg" xmlns:xlink="http://www.w3.org/1999/xlink">
&#x9;<desc>
&#x9;&#x9;&#x9;Created with Pixso.
&#x9;</desc>
&#x9;<defs>
&#x9;&#x9;<clipPath id="clip201_7570">
&#x9;&#x9;&#x9;<rect id="card=Salessalescampany" width="195.000000" height="141.000000" fill="white" fill-opacity="0"></rect>
&#x9;&#x9;</clipPath>
&#x9;&#x9;<clipPath id="clip201_7569">
&#x9;&#x9;&#x9;<rect id="sales-company" width="195.000000" height="140.000000" fill="white" fill-opacity="0"></rect>
&#x9;&#x9;</clipPath>
&#x9;</defs>
&#x9;<g clip-path="url(#clip201_7569)">
&#x9;&#x9;<g clip-path="url(#clip201_7570)">
&#x9;&#x9;&#x9;<path id="path" d="M116.11 16.08L61.81 47.43L61.87 70.32L61.92 93.2L61.98 116.08L113.25 86.48C114.92 85.52 116.27 83.17 116.27 81.25L116.11 16.08Z" fill="#F4F9F7" fill-opacity="1.000000" fill-rule="nonzero"></path>
&#x9;&#x9;&#x9;<path id="path" d="M30.12 133.81L28 132.58C27.46 132.26 27.12 131.59 27.11 130.64L29.24 131.87C29.24 132.82 29.58 133.5 30.12 133.81Z" fill="#B8D6D3" fill-opacity="1.000000" fill-rule="nonzero"></path>
&#x9;&#x9;&#x9;<path id="path" d="M29.25 131.87L27.12 130.64L27.08 111.24L29.2 112.47L29.25 131.87Z" fill="#B8D6D3" fill-opacity="1.000000" fill-rule="nonzero"></path>
&#x9;&#x9;&#x9;<path id="path" d="M29.2 112.47L27.08 111.24L60.13 92.15L62.25 93.39L29.2 112.47Z" fill="#B8D6D3" fill-opacity="1.000000" fill-rule="nonzero"></path>
&#x9;&#x9;&#x9;<path id="path" d="M62.25 93.39L62.31 116.27L32.28 133.6C30.62 134.57 29.25 133.79 29.25 131.87L29.2 112.47L62.25 93.39Z" fill="#F4F9F7" fill-opacity="1.000000" fill-rule="nonzero"></path>
&#x9;&#x9;&#x9;<path id="path" d="M29.2 112.47L27.07 111.24L27.01 88.35L29.14 89.59L29.2 112.47Z" fill="#B8D6D3" fill-opacity="1.000000" fill-rule="nonzero"></path>
&#x9;&#x9;&#x9;<path id="path" d="M29.14 89.59L27.01 88.35L60.07 69.27L62.19 70.51L29.14 89.59Z" fill="#F4F9F7" fill-opacity="1.000000" fill-rule="nonzero"></path>
&#x9;&#x9;&#x9;<path id="path" d="M62.19 70.51L62.25 93.39L29.2 112.47L29.14 89.59L62.19 70.51Z" fill="#F4F9F7" fill-opacity="1.000000" fill-rule="nonzero"></path>
&#x9;&#x9;&#x9;<path id="path" d="M29.14 89.59L27.01 88.35L26.96 65.47L29.08 66.71L29.14 89.59Z" fill="#B8D6D3" fill-opacity="1.000000" fill-rule="nonzero"></path>
&#x9;&#x9;&#x9;<path id="path" d="M29.08 66.71L26.96 65.47L60.01 46.39L62.13 47.62L29.08 66.71Z" fill="#B8D6D3" fill-opacity="1.000000" fill-rule="nonzero"></path>
&#x9;&#x9;&#x9;<path id="path" d="M62.13 47.63L62.19 70.51L29.14 89.59L29.08 66.71L62.13 47.63Z" fill="#F4F9F7" fill-opacity="1.000000" fill-rule="nonzero"></path>
&#x9;&#x9;&#x9;<path id="path" d="M57.1 61.11L58 61.63C57.85 61.54 57.64 61.55 57.4 61.69L56.5 61.17C56.74 61.03 56.95 61.02 57.1 61.11Z" fill="#B8D6D3" fill-opacity="1.000000" fill-rule="nonzero"></path>
&#x9;&#x9;&#x9;<path id="path" d="M48.5 66.83L47.6 66.31L56.5 61.17L57.4 61.69L48.5 66.83Z" fill="#B8D6D3" fill-opacity="1.000000" fill-rule="nonzero"></path>
&#x9;&#x9;&#x9;<path id="path" d="M47.9 68.82L47 68.3C46.85 68.21 46.76 68.03 46.76 67.76C46.75 67.23 47.13 66.58 47.6 66.31L48.49 66.83C48.03 67.1 47.65 67.75 47.66 68.28C47.66 68.55 47.75 68.74 47.9 68.82Z" fill="#B8D6D3" fill-opacity="1.000000" fill-rule="nonzero"></path>
&#x9;&#x9;&#x9;<path id="path" d="M57.4 61.69C57.87 61.42 58.24 61.63 58.24 62.17C58.25 62.7 57.87 63.35 57.4 63.62L48.5 68.76C48.03 69.03 47.66 68.82 47.66 68.28C47.65 67.75 48.03 67.1 48.49 66.83L57.4 61.69Z" fill="#FFFFFF" fill-opacity="1.000000" fill-rule="nonzero"></path>
&#x9;&#x9;&#x9;<path id="path" d="M57.08 56.7L57.98 57.22C57.83 57.13 57.62 57.14 57.38 57.28L56.49 56.76C56.72 56.62 56.93 56.61 57.08 56.7Z" fill="#B8D6D3" fill-opacity="1.000000" fill-rule="nonzero"></path>
&#x9;&#x9;&#x9;<path id="path" d="M48.48 62.42L47.58 61.9L56.49 56.76L57.39 57.28L48.48 62.42Z" fill="#B8D6D3" fill-opacity="1.000000" fill-rule="nonzero"></path>
&#x9;&#x9;&#x9;<path id="path" d="M47.89 64.42L46.99 63.89C46.84 63.8 46.75 63.62 46.74 63.35C46.74 62.82 47.12 62.17 47.58 61.9L48.48 62.42C48.02 62.69 47.64 63.34 47.64 63.88C47.64 64.14 47.74 64.33 47.89 64.42Z" fill="#B8D6D3" fill-opacity="1.000000" fill-rule="nonzero"></path>
&#x9;&#x9;&#x9;<path id="path" d="M57.39 57.28C57.85 57.01 58.23 57.23 58.23 57.76C58.23 58.3 57.86 58.95 57.39 59.22L48.49 64.36C48.02 64.63 47.64 64.41 47.64 63.88C47.64 63.34 48.02 62.69 48.48 62.42L57.39 57.28Z" fill="#FFFFFF" fill-opacity="1.000000" fill-rule="nonzero"></path>
&#x9;&#x9;&#x9;<path id="path" d="M112.7 46.23L114.22 47.12C113.9 46.93 113.47 46.96 112.99 47.24L111.47 46.35C111.95 46.08 112.38 46.05 112.7 46.23Z" fill="#8FC2BE" fill-opacity="1.000000" fill-rule="nonzero"></path>
&#x9;&#x9;&#x9;<path id="path" d="M96.71 69.64L95.19 68.76C94.88 68.58 94.69 68.19 94.68 67.65L96.2 68.53C96.21 69.07 96.4 69.46 96.71 69.64Z" fill="#8FC2BE" fill-opacity="1.000000" fill-rule="nonzero"></path>
&#x9;&#x9;&#x9;<path id="path" d="M96.2 68.53L94.68 67.65L94.66 58.05L96.18 58.94L96.2 68.53Z" fill="#8FC2BE" fill-opacity="1.000000" fill-rule="nonzero"></path>
&#x9;&#x9;&#x9;<path id="path" d="M97.91 55.94L96.39 55.06L111.47 46.35L112.99 47.24L97.91 55.94Z" fill="#8FC2BE" fill-opacity="1.000000" fill-rule="nonzero"></path>
&#x9;&#x9;&#x9;<path id="path" d="M96.18 58.94L94.66 58.05C94.65 56.95 95.43 55.61 96.38 55.06L97.9 55.94C96.94 56.5 96.17 57.83 96.18 58.94Z" fill="#8FC2BE" fill-opacity="1.000000" fill-rule="nonzero"></path>
&#x9;&#x9;&#x9;<line id="line" x1="104.371094" y1="65.022461" x2="104.371094" y2="73.531250" stroke="#B8D6D3" stroke-opacity="1.000000" stroke-width="0.800000"></line>
&#x9;&#x9;&#x9;<path id="path" d="M112.99 47.24C113.94 46.68 114.72 47.13 114.72 48.23L114.75 57.82C114.75 58.92 113.98 60.26 113.02 60.81L97.94 69.52C96.98 70.07 96.21 69.63 96.2 68.53L96.18 58.94C96.17 57.84 96.95 56.5 97.9 55.94L112.99 47.24Z" fill="#B8D6D3" fill-opacity="1.000000" fill-rule="nonzero"></path>
&#x9;&#x9;&#x9;<path id="path" d="M113.39 3.44L116.14 5.04C115.59 4.72 114.83 4.77 113.99 5.25L111.24 3.65C112.08 3.17 112.84 3.12 113.39 3.44Z" fill="#B8D6D3" fill-opacity="1.000000" fill-rule="nonzero"></path>
&#x9;&#x9;&#x9;<path id="path" d="M113.99 5.25C115.65 4.29 117.02 5.07 117.03 6.98L117.06 16.64L29.71 67.07L29.68 57.41C29.67 55.5 31.03 53.14 32.69 52.18L113.99 5.25Z" fill="#A3C9C6" fill-opacity="1.000000" fill-rule="nonzero"></path>
&#x9;&#x9;&#x9;<path id="path" d="M29.71 67.07L26.96 65.47L26.93 55.81L29.68 57.41L29.71 67.07Z" fill="#B8D6D3" fill-opacity="1.000000" fill-rule="nonzero"></path>
&#x9;&#x9;&#x9;<path id="path" d="M32.7 52.18L29.95 50.59L111.25 3.65L114 5.25L32.7 52.18Z" fill="#B8D6D3" fill-opacity="1.000000" fill-rule="nonzero"></path>
&#x9;&#x9;&#x9;<path id="path" d="M29.68 57.41L26.93 55.81C26.93 53.9 28.29 51.55 29.95 50.59L32.7 52.18C31.03 53.14 29.68 55.5 29.68 57.41Z" fill="#B8D6D3" fill-opacity="1.000000" fill-rule="nonzero"></path>
&#x9;&#x9;&#x9;<path id="path" d="M75.08 99.05L74.65 98.31L78.19 96.26C81.6 94.29 84.43 89.6 84.62 85.57L84.93 76.12C85.14 71.83 88.15 66.82 91.79 64.72L95.21 62.74L95.65 63.49L92.22 65.47C88.81 67.44 85.98 72.13 85.79 76.16L85.48 85.61C85.28 89.9 82.26 94.91 78.62 97.01L75.08 99.05Z" fill="#B8D6D3" fill-opacity="1.000000" fill-rule="nonzero"></path>
&#x9;&#x9;&#x9;<path id="path" d="M66.56 109.63L65.04 108.75C64.73 108.57 64.54 108.19 64.53 107.64L66.05 108.52C66.05 109.07 66.25 109.46 66.56 109.63Z" fill="#8FC2BE" fill-opacity="1.000000" fill-rule="nonzero"></path>
&#x9;&#x9;&#x9;<path id="path" d="M74.5 90.87L76.02 91.76C75.7 91.57 75.27 91.6 74.79 91.88L73.27 91C73.75 90.72 74.18 90.69 74.5 90.87Z" fill="#8FC2BE" fill-opacity="1.000000" fill-rule="nonzero"></path>
&#x9;&#x9;&#x9;<path id="path" d="M66.05 108.52L64.54 107.64L64.51 98.05L66.03 98.93L66.05 108.52Z" fill="#8FC2BE" fill-opacity="1.000000" fill-rule="nonzero"></path>
&#x9;&#x9;&#x9;<path id="path" d="M67.76 95.94L66.24 95.06L73.27 91L74.79 91.88L67.76 95.94Z" fill="#8FC2BE" fill-opacity="1.000000" fill-rule="nonzero"></path>
&#x9;&#x9;&#x9;<path id="path" d="M66.03 98.93L64.51 98.05C64.51 96.95 65.28 95.61 66.23 95.06L67.75 95.94C66.8 96.49 66.02 97.83 66.03 98.93Z" fill="#8FC2BE" fill-opacity="1.000000" fill-rule="nonzero"></path>
&#x9;&#x9;&#x9;<path id="path" d="M74.79 91.88C75.75 91.32 76.52 91.77 76.53 92.87L76.56 102.46C76.56 103.56 75.79 104.9 74.83 105.45L67.8 109.51C66.84 110.07 66.06 109.62 66.06 108.52L66.03 98.93C66.03 97.83 66.8 96.49 67.76 95.94L74.79 91.88Z" fill="#B8D6D3" fill-opacity="1.000000" fill-rule="nonzero"></path>
&#x9;&#x9;&#x9;<path id="path" d="M103.5 81.63L105.01 82.51C104.7 82.33 104.26 82.36 103.78 82.64L102.26 81.75C102.75 81.47 103.18 81.45 103.5 81.63Z" fill="#8FC2BE" fill-opacity="1.000000" fill-rule="nonzero"></path>
&#x9;&#x9;&#x9;<path id="path" d="M93.29 94.2L91.78 93.32C91.47 93.13 91.27 92.75 91.27 92.2L92.79 93.09C92.79 93.63 92.98 94.02 93.29 94.2Z" fill="#8FC2BE" fill-opacity="1.000000" fill-rule="nonzero"></path>
&#x9;&#x9;&#x9;<path id="path" d="M92.79 93.09L91.27 92.2L91.27 90.1L92.79 90.98L92.79 93.09Z" fill="#8FC2BE" fill-opacity="1.000000" fill-rule="nonzero"></path>
&#x9;&#x9;&#x9;<path id="path" d="M94.51 87.99L92.99 87.11L102.27 81.75L103.79 82.63L94.51 87.99Z" fill="#8FC2BE" fill-opacity="1.000000" fill-rule="nonzero"></path>
&#x9;&#x9;&#x9;<path id="path" d="M92.79 90.98L91.27 90.1C91.26 89 92.04 87.66 92.99 87.11L94.51 87.99C93.56 88.54 92.78 89.88 92.79 90.98Z" fill="#8FC2BE" fill-opacity="1.000000" fill-rule="nonzero"></path>
&#x9;&#x9;&#x9;<path id="path" d="M103.79 82.63C104.74 82.08 105.52 82.53 105.52 83.62L105.53 85.73C105.53 86.83 104.76 88.17 103.8 88.72L94.53 94.08C93.57 94.63 92.8 94.19 92.79 93.09L92.79 90.98C92.78 89.88 93.56 88.54 94.51 87.99L103.79 82.63Z" fill="#E0F3F1" fill-opacity="1.000000" fill-rule="nonzero"></path>
&#x9;&#x9;&#x9;<path id="path" d="M112.75 68.79L114.27 69.67C113.96 69.49 113.52 69.52 113.04 69.79L111.52 68.91C112 68.63 112.44 68.61 112.75 68.79Z" fill="#8FC2BE" fill-opacity="1.000000" fill-rule="nonzero"></path>
&#x9;&#x9;&#x9;<path id="path" d="M93.27 86.71L91.75 85.83C91.44 85.65 91.25 85.26 91.25 84.72L92.77 85.6C92.77 86.15 92.96 86.53 93.27 86.71Z" fill="#8FC2BE" fill-opacity="1.000000" fill-rule="nonzero"></path>
&#x9;&#x9;&#x9;<path id="path" d="M92.77 85.6L91.25 84.72L91.25 82.61L92.76 83.49L92.77 85.6Z" fill="#8FC2BE" fill-opacity="1.000000" fill-rule="nonzero"></path>
&#x9;&#x9;&#x9;<path id="path" d="M94.49 80.5L92.98 79.62L111.52 68.91L113.04 69.8L94.49 80.5Z" fill="#8FC2BE" fill-opacity="1.000000" fill-rule="nonzero"></path>
&#x9;&#x9;&#x9;<path id="path" d="M92.76 83.49L91.25 82.61C91.24 81.51 92.01 80.17 92.97 79.62L94.49 80.5C93.53 81.06 92.76 82.39 92.76 83.49Z" fill="#8FC2BE" fill-opacity="1.000000" fill-rule="nonzero"></path>
&#x9;&#x9;&#x9;<path id="path" d="M113.04 69.8C114 69.24 114.78 69.69 114.78 70.78L114.79 72.89C114.79 73.99 114.02 75.33 113.06 75.88L94.51 86.59C93.56 87.14 92.78 86.7 92.77 85.6L92.77 83.49C92.77 82.39 93.54 81.06 94.49 80.5L113.04 69.8Z" fill="#B8D6D3" fill-opacity="1.000000" fill-rule="nonzero"></path>
&#x9;&#x9;&#x9;<path id="path" d="M112.64 22.72L114.16 23.6C113.85 23.42 113.41 23.44 112.93 23.72L111.41 22.84C111.89 22.56 112.33 22.54 112.64 22.72Z" fill="#B8D6D3" fill-opacity="1.000000" fill-rule="nonzero"></path>
&#x9;&#x9;&#x9;<path id="path" d="M100.53 43.89L99.01 43.01C98.7 42.83 98.5 42.44 98.5 41.9L100.02 42.78C100.02 43.33 100.22 43.71 100.53 43.89Z" fill="#B8D6D3" fill-opacity="1.000000" fill-rule="nonzero"></path>
&#x9;&#x9;&#x9;<path id="path" d="M100.02 42.78L98.5 41.9L98.48 32.31L99.99 33.19L100.02 42.78Z" fill="#B8D6D3" fill-opacity="1.000000" fill-rule="nonzero"></path>
&#x9;&#x9;&#x9;<path id="path" d="M101.72 30.2L100.2 29.31L111.41 22.84L112.93 23.72L101.72 30.2Z" fill="#B8D6D3" fill-opacity="1.000000" fill-rule="nonzero"></path>
&#x9;&#x9;&#x9;<path id="path" d="M99.99 33.19L98.48 32.31C98.47 31.21 99.25 29.87 100.2 29.31L101.72 30.2C100.76 30.75 99.99 32.09 99.99 33.19Z" fill="#B8D6D3" fill-opacity="1.000000" fill-rule="nonzero"></path>
&#x9;&#x9;&#x9;<path id="path" d="M112.93 23.72C113.88 23.17 114.66 23.62 114.67 24.72L114.69 34.31C114.7 35.41 113.92 36.75 112.97 37.3L101.76 43.77C100.8 44.32 100.02 43.88 100.02 42.78L99.99 33.19C99.99 32.09 100.76 30.75 101.72 30.2L112.93 23.72Z" fill="#E0F3F1" fill-opacity="1.000000" fill-rule="nonzero"></path>
&#x9;&#x9;&#x9;<path id="path" d="M85.82 56.43L84.3 55.55C83.99 55.37 83.8 54.99 83.8 54.44L85.32 55.32C85.32 55.87 85.51 56.25 85.82 56.43Z" fill="#B8D6D3" fill-opacity="1.000000" fill-rule="nonzero"></path>
&#x9;&#x9;&#x9;<path id="path" d="M95.69 32.51L97.21 33.39C96.89 33.21 96.45 33.23 95.97 33.51L94.45 32.63C94.93 32.35 95.37 32.33 95.69 32.51Z" fill="#B8D6D3" fill-opacity="1.000000" fill-rule="nonzero"></path>
&#x9;&#x9;&#x9;<path id="path" d="M85.32 55.32L83.8 54.44L83.76 40.8L85.28 41.68L85.32 55.32Z" fill="#B8D6D3" fill-opacity="1.000000" fill-rule="nonzero"></path>
&#x9;&#x9;&#x9;<path id="path" d="M87 38.69L85.48 37.81L94.45 32.63L95.97 33.51L87 38.69Z" fill="#B8D6D3" fill-opacity="1.000000" fill-rule="nonzero"></path>
&#x9;&#x9;&#x9;<path id="path" d="M85.28 41.68L83.76 40.8C83.76 39.7 84.53 38.36 85.49 37.81L87.01 38.69C86.05 39.24 85.28 40.58 85.28 41.68Z" fill="#B8D6D3" fill-opacity="1.000000" fill-rule="nonzero"></path>
&#x9;&#x9;&#x9;<path id="path" d="M95.97 33.51C96.93 32.96 97.7 33.4 97.71 34.51L97.75 48.14C97.75 49.24 96.98 50.58 96.02 51.14L87.05 56.31C86.1 56.86 85.32 56.42 85.31 55.32L85.28 41.68C85.27 40.58 86.05 39.24 87 38.69L95.97 33.51Z" fill="#E0F3F1" fill-opacity="1.000000" fill-rule="nonzero"></path>
&#x9;&#x9;&#x9;<path id="path" d="M80.97 41L82.49 41.89C82.18 41.7 81.74 41.73 81.26 42.01L79.74 41.13C80.22 40.85 80.66 40.82 80.97 41Z" fill="#8FC2BE" fill-opacity="1.000000" fill-rule="nonzero"></path>
&#x9;&#x9;&#x9;<path id="path" d="M65.27 56.75L63.75 55.86C63.44 55.68 63.25 55.3 63.25 54.75L64.76 55.64C64.76 56.18 64.96 56.57 65.27 56.75Z" fill="#8FC2BE" fill-opacity="1.000000" fill-rule="nonzero"></path>
&#x9;&#x9;&#x9;<path id="path" d="M64.76 55.64L63.25 54.76L63.24 52.65L64.76 53.53L64.76 55.64Z" fill="#8FC2BE" fill-opacity="1.000000" fill-rule="nonzero"></path>
&#x9;&#x9;&#x9;<path id="path" d="M66.48 50.54L64.97 49.65L79.74 41.12L81.26 42.01L66.48 50.54Z" fill="#8FC2BE" fill-opacity="1.000000" fill-rule="nonzero"></path>
&#x9;&#x9;&#x9;<path id="path" d="M64.76 53.53L63.24 52.65C63.24 51.55 64.01 50.21 64.97 49.65L66.48 50.54C65.53 51.09 64.76 52.43 64.76 53.53Z" fill="#8FC2BE" fill-opacity="1.000000" fill-rule="nonzero"></path>
&#x9;&#x9;&#x9;<path id="path" d="M81.26 42.01C82.22 41.45 83 41.9 83 43L83.01 45.11C83.01 46.21 82.24 47.54 81.28 48.1L66.5 56.63C65.55 57.18 64.77 56.74 64.76 55.64L64.76 53.53C64.75 52.43 65.53 51.09 66.48 50.54L81.26 42.01Z" fill="#B8D6D3" fill-opacity="1.000000" fill-rule="nonzero"></path>
&#x9;&#x9;&#x9;<path id="path" d="M79.04 65.67L80.55 66.55C80.24 66.37 79.8 66.4 79.32 66.67L77.8 65.79C78.28 65.51 78.72 65.49 79.04 65.67Z" fill="#B8D6D3" fill-opacity="1.000000" fill-rule="nonzero"></path>
&#x9;&#x9;&#x9;<path id="path" d="M66.5 87.08L64.99 86.19C64.67 86.01 64.48 85.63 64.48 85.08L66 85.97C66 86.51 66.19 86.9 66.5 87.08Z" fill="#B8D6D3" fill-opacity="1.000000" fill-rule="nonzero"></path>
&#x9;&#x9;&#x9;<path id="path" d="M66 85.97L64.48 85.08L64.46 75.49L65.97 76.37L66 85.97Z" fill="#B8D6D3" fill-opacity="1.000000" fill-rule="nonzero"></path>
&#x9;&#x9;&#x9;<path id="path" d="M67.7 73.38L66.18 72.5L77.8 65.79L79.31 66.67L67.7 73.38Z" fill="#B8D6D3" fill-opacity="1.000000" fill-rule="nonzero"></path>
&#x9;&#x9;&#x9;<path id="path" d="M65.97 76.37L64.46 75.49C64.45 74.39 65.23 73.05 66.18 72.5L67.7 73.38C66.75 73.93 65.97 75.27 65.97 76.37Z" fill="#B8D6D3" fill-opacity="1.000000" fill-rule="nonzero"></path>
&#x9;&#x9;&#x9;<path id="path" d="M79.31 66.67C80.27 66.12 81.05 66.57 81.05 67.67L81.08 77.26C81.08 78.36 80.31 79.7 79.35 80.25L67.74 86.96C66.78 87.51 66 87.07 66 85.97L65.97 76.37C65.97 75.27 66.74 73.93 67.7 73.38L79.31 66.67Z" fill="#E0F3F1" fill-opacity="1.000000" fill-rule="nonzero"></path>
&#x9;&#x9;&#x9;<path id="path" d="M57.16 83.99L58.05 84.51C57.9 84.42 57.69 84.43 57.45 84.57L56.56 84.05C56.79 83.91 57 83.9 57.16 83.99Z" fill="#8FC2BE" fill-opacity="1.000000" fill-rule="nonzero"></path>
&#x9;&#x9;&#x9;<path id="path" d="M48.55 89.71L47.66 89.19L56.56 84.05L57.46 84.57L48.55 89.71Z" fill="#8FC2BE" fill-opacity="1.000000" fill-rule="nonzero"></path>
&#x9;&#x9;&#x9;<path id="path" d="M47.95 91.7L47.06 91.18C46.9 91.1 46.81 90.91 46.81 90.64C46.81 90.11 47.18 89.46 47.65 89.19L48.55 89.71C48.08 89.98 47.71 90.63 47.71 91.16C47.71 91.43 47.8 91.62 47.95 91.7Z" fill="#8FC2BE" fill-opacity="1.000000" fill-rule="nonzero"></path>
&#x9;&#x9;&#x9;<path id="path" d="M57.46 84.57C57.92 84.3 58.3 84.52 58.3 85.05C58.3 85.59 57.93 86.24 57.46 86.51L48.56 91.65C48.09 91.92 47.71 91.7 47.71 91.17C47.71 90.63 48.09 89.98 48.55 89.71L57.46 84.57Z" fill="#B8D6D3" fill-opacity="1.000000" fill-rule="nonzero"></path>
&#x9;&#x9;&#x9;<path id="path" d="M57.14 79.58L58.04 80.1C57.88 80.01 57.67 80.03 57.44 80.16L56.54 79.64C56.78 79.51 56.99 79.49 57.14 79.58Z" fill="#8FC2BE" fill-opacity="1.000000" fill-rule="nonzero"></path>
&#x9;&#x9;&#x9;<path id="path" d="M48.53 85.3L47.64 84.78L56.54 79.64L57.44 80.16L48.53 85.3Z" fill="#8FC2BE" fill-opacity="1.000000" fill-rule="nonzero"></path>
&#x9;&#x9;&#x9;<path id="path" d="M47.94 87.3L47.05 86.78C46.89 86.69 46.8 86.5 46.8 86.23C46.8 85.7 47.18 85.05 47.64 84.78L48.54 85.31C48.07 85.57 47.7 86.22 47.7 86.76C47.7 87.02 47.79 87.21 47.94 87.3Z" fill="#8FC2BE" fill-opacity="1.000000" fill-rule="nonzero"></path>
&#x9;&#x9;&#x9;<path id="path" d="M57.44 80.16C57.91 79.89 58.29 80.11 58.29 80.64C58.29 81.18 57.91 81.83 57.45 82.1L48.54 87.24C48.08 87.51 47.7 87.29 47.7 86.76C47.7 86.22 48.07 85.57 48.54 85.3L57.44 80.16Z" fill="#B8D6D3" fill-opacity="1.000000" fill-rule="nonzero"></path>
&#x9;&#x9;&#x9;<path id="path" d="M57.21 106.87L58.11 107.39C57.96 107.3 57.74 107.32 57.51 107.45L56.61 106.93C56.85 106.8 57.06 106.78 57.21 106.87Z" fill="#B8D6D3" fill-opacity="1.000000" fill-rule="nonzero"></path>
&#x9;&#x9;&#x9;<path id="path" d="M48.6 112.59L47.71 112.07L56.61 106.93L57.51 107.45L48.6 112.59Z" fill="#B8D6D3" fill-opacity="1.000000" fill-rule="nonzero"></path>
&#x9;&#x9;&#x9;<path id="path" d="M48.01 114.59L47.12 114.07C46.96 113.98 46.87 113.79 46.87 113.53C46.87 112.99 47.25 112.34 47.71 112.07L48.61 112.59C48.14 112.86 47.77 113.51 47.77 114.05C47.77 114.31 47.86 114.5 48.01 114.59Z" fill="#B8D6D3" fill-opacity="1.000000" fill-rule="nonzero"></path>
&#x9;&#x9;&#x9;<path id="path" d="M57.51 107.45C57.98 107.18 58.35 107.4 58.35 107.93C58.36 108.47 57.98 109.12 57.51 109.39L48.61 114.53C48.14 114.8 47.77 114.58 47.76 114.05C47.76 113.51 48.14 112.86 48.6 112.59L57.51 107.45Z" fill="#FFFFFF" fill-opacity="1.000000" fill-rule="nonzero"></path>
&#x9;&#x9;&#x9;<path id="path" d="M57.21 102.47L58.1 102.99C57.95 102.9 57.74 102.91 57.5 103.05L56.6 102.52C56.84 102.39 57.05 102.38 57.21 102.47Z" fill="#B8D6D3" fill-opacity="1.000000" fill-rule="nonzero"></path>
&#x9;&#x9;&#x9;<path id="path" d="M48.59 108.18L47.7 107.66L56.6 102.52L57.5 103.04L48.59 108.18Z" fill="#B8D6D3" fill-opacity="1.000000" fill-rule="nonzero"></path>
&#x9;&#x9;&#x9;<path id="path" d="M48 110.18L47.1 109.66C46.95 109.57 46.86 109.38 46.86 109.12C46.86 108.58 47.23 107.93 47.7 107.66L48.59 108.19C48.13 108.45 47.75 109.11 47.75 109.64C47.75 109.91 47.85 110.09 48 110.18Z" fill="#B8D6D3" fill-opacity="1.000000" fill-rule="nonzero"></path>
&#x9;&#x9;&#x9;<path id="path" d="M57.5 103.05C57.97 102.78 58.34 102.99 58.35 103.53C58.35 104.06 57.97 104.71 57.51 104.98L48.6 110.12C48.14 110.39 47.76 110.17 47.76 109.64C47.75 109.11 48.13 108.46 48.6 108.19L57.5 103.05Z" fill="#FFFFFF" fill-opacity="1.000000" fill-rule="nonzero"></path>
&#x9;&#x9;&#x9;<path id="path" d="" fill="#000000" fill-opacity="0" fill-rule="nonzero"></path>
&#x9;&#x9;&#x9;<path id="path" d="M74.21 51.84C72.42 56.09 74.21 63.82 78.77 61.36C94.19 53.05 81.05 69.28 95.67 60.42" stroke="#B8D6D3" stroke-opacity="1.000000" stroke-width="0.800000"></path>
&#x9;&#x9;&#x9;<path id="path" d="M131.11 17.08L76.81 48.43L76.87 71.32L76.92 94.2L76.98 117.08L128.25 87.48C129.92 86.52 131.27 84.17 131.27 82.25L131.11 17.08Z" fill="#F4F9F7" fill-opacity="1.000000" fill-rule="nonzero"></path>
&#x9;&#x9;&#x9;<path id="path" d="M45.12 134.81L43 133.58C42.46 133.26 42.12 132.59 42.11 131.64L44.24 132.87C44.24 133.82 44.58 134.5 45.12 134.81Z" fill="#B8D6D3" fill-opacity="1.000000" fill-rule="nonzero"></path>
&#x9;&#x9;&#x9;<path id="path" d="M44.25 132.87L42.12 131.64L42.08 112.24L44.2 113.47L44.25 132.87Z" fill="#B8D6D3" fill-opacity="1.000000" fill-rule="nonzero"></path>
&#x9;&#x9;&#x9;<path id="path" d="M44.2 113.47L42.08 112.24L75.13 93.15L77.25 94.39L44.2 113.47Z" fill="#B8D6D3" fill-opacity="1.000000" fill-rule="nonzero"></path>
&#x9;&#x9;&#x9;<path id="path" d="M77.25 94.39L77.31 117.27L47.28 134.6C45.62 135.57 44.25 134.79 44.25 132.87L44.2 113.47L77.25 94.39Z" fill="#F4F9F7" fill-opacity="1.000000" fill-rule="nonzero"></path>
&#x9;&#x9;&#x9;<path id="path" d="M44.2 113.47L42.07 112.24L42.01 89.35L44.14 90.59L44.2 113.47Z" fill="#B8D6D3" fill-opacity="1.000000" fill-rule="nonzero"></path>
&#x9;&#x9;&#x9;<path id="path" d="M44.14 90.59L42.01 89.35L75.07 70.27L77.19 71.51L44.14 90.59Z" fill="#F4F9F7" fill-opacity="1.000000" fill-rule="nonzero"></path>
&#x9;&#x9;&#x9;<path id="path" d="M77.19 71.51L77.25 94.39L44.2 113.47L44.14 90.59L77.19 71.51Z" fill="#F4F9F7" fill-opacity="1.000000" fill-rule="nonzero"></path>
&#x9;&#x9;&#x9;<path id="path" d="M44.14 90.59L42.01 89.35L41.96 66.47L44.08 67.71L44.14 90.59Z" fill="#B8D6D3" fill-opacity="1.000000" fill-rule="nonzero"></path>
&#x9;&#x9;&#x9;<path id="path" d="M44.08 67.71L41.96 66.47L75.01 47.39L77.13 48.62L44.08 67.71Z" fill="#B8D6D3" fill-opacity="1.000000" fill-rule="nonzero"></path>
&#x9;&#x9;&#x9;<path id="path" d="M77.13 48.63L77.19 71.51L44.14 90.59L44.08 67.71L77.13 48.63Z" fill="#F4F9F7" fill-opacity="1.000000" fill-rule="nonzero"></path>
&#x9;&#x9;&#x9;<path id="path" d="M72.1 62.11L73 62.63C72.85 62.54 72.64 62.55 72.4 62.69L71.5 62.17C71.74 62.03 71.95 62.02 72.1 62.11Z" fill="#B8D6D3" fill-opacity="1.000000" fill-rule="nonzero"></path>
&#x9;&#x9;&#x9;<path id="path" d="M63.5 67.83L62.6 67.31L71.5 62.17L72.4 62.69L63.5 67.83Z" fill="#B8D6D3" fill-opacity="1.000000" fill-rule="nonzero"></path>
&#x9;&#x9;&#x9;<path id="path" d="M62.9 69.82L62 69.3C61.85 69.21 61.76 69.03 61.76 68.76C61.75 68.23 62.13 67.58 62.6 67.31L63.49 67.83C63.03 68.1 62.65 68.75 62.66 69.28C62.66 69.55 62.75 69.74 62.9 69.82Z" fill="#B8D6D3" fill-opacity="1.000000" fill-rule="nonzero"></path>
&#x9;&#x9;&#x9;<path id="path" d="M72.4 62.69C72.87 62.42 73.24 62.63 73.24 63.17C73.25 63.7 72.87 64.35 72.4 64.62L63.5 69.76C63.03 70.03 62.66 69.82 62.66 69.28C62.65 68.75 63.03 68.1 63.49 67.83L72.4 62.69Z" fill="#FFFFFF" fill-opacity="1.000000" fill-rule="nonzero"></path>
&#x9;&#x9;&#x9;<path id="path" d="M72.08 57.7L72.98 58.22C72.83 58.13 72.62 58.14 72.38 58.28L71.49 57.76C71.72 57.62 71.93 57.61 72.08 57.7Z" fill="#B8D6D3" fill-opacity="1.000000" fill-rule="nonzero"></path>
&#x9;&#x9;&#x9;<path id="path" d="M63.48 63.42L62.58 62.9L71.49 57.76L72.39 58.28L63.48 63.42Z" fill="#B8D6D3" fill-opacity="1.000000" fill-rule="nonzero"></path>
&#x9;&#x9;&#x9;<path id="path" d="M62.89 65.42L61.99 64.89C61.84 64.8 61.75 64.62 61.74 64.35C61.74 63.82 62.12 63.17 62.58 62.9L63.48 63.42C63.02 63.69 62.64 64.34 62.64 64.88C62.64 65.14 62.74 65.33 62.89 65.42Z" fill="#B8D6D3" fill-opacity="1.000000" fill-rule="nonzero"></path>
&#x9;&#x9;&#x9;<path id="path" d="M72.39 58.28C72.85 58.01 73.23 58.23 73.23 58.76C73.23 59.3 72.86 59.95 72.39 60.22L63.49 65.36C63.02 65.63 62.64 65.41 62.64 64.88C62.64 64.34 63.02 63.69 63.48 63.42L72.39 58.28Z" fill="#FFFFFF" fill-opacity="1.000000" fill-rule="nonzero"></path>
&#x9;&#x9;&#x9;<path id="path" d="M127.7 47.23L129.22 48.12C128.9 47.93 128.47 47.96 127.99 48.24L126.47 47.35C126.95 47.08 127.38 47.05 127.7 47.23Z" fill="#8FC2BE" fill-opacity="1.000000" fill-rule="nonzero"></path>
&#x9;&#x9;&#x9;<path id="path" d="M111.71 70.64L110.19 69.76C109.88 69.58 109.69 69.19 109.68 68.65L111.2 69.53C111.21 70.07 111.4 70.46 111.71 70.64Z" fill="#8FC2BE" fill-opacity="1.000000" fill-rule="nonzero"></path>
&#x9;&#x9;&#x9;<path id="path" d="M111.2 69.53L109.68 68.65L109.66 59.05L111.18 59.94L111.2 69.53Z" fill="#8FC2BE" fill-opacity="1.000000" fill-rule="nonzero"></path>
&#x9;&#x9;&#x9;<path id="path" d="M112.91 56.94L111.39 56.06L126.47 47.35L127.99 48.24L112.91 56.94Z" fill="#8FC2BE" fill-opacity="1.000000" fill-rule="nonzero"></path>
&#x9;&#x9;&#x9;<path id="path" d="M111.18 59.94L109.66 59.05C109.65 57.95 110.43 56.61 111.38 56.06L112.9 56.94C111.94 57.5 111.17 58.83 111.18 59.94Z" fill="#8FC2BE" fill-opacity="1.000000" fill-rule="nonzero"></path>
&#x9;&#x9;&#x9;<line id="line" x1="119.371094" y1="66.022461" x2="119.371094" y2="74.531250" stroke="#B8D6D3" stroke-opacity="1.000000" stroke-width="0.800000"></line>
&#x9;&#x9;&#x9;<path id="path" d="M127.99 48.24C128.94 47.68 129.72 48.13 129.72 49.23L129.75 58.82C129.75 59.92 128.98 61.26 128.02 61.81L112.94 70.52C111.98 71.07 111.21 70.63 111.2 69.53L111.18 59.94C111.17 58.84 111.95 57.5 112.9 56.94L127.99 48.24Z" fill="#B8D6D3" fill-opacity="1.000000" fill-rule="nonzero"></path>
&#x9;&#x9;&#x9;<path id="path" d="M128.39 4.44L131.14 6.04C130.59 5.72 129.83 5.77 128.99 6.25L126.24 4.65C127.08 4.17 127.84 4.12 128.39 4.44Z" fill="#B8D6D3" fill-opacity="1.000000" fill-rule="nonzero"></path>
&#x9;&#x9;&#x9;<path id="path" d="M128.99 6.25C130.65 5.29 132.02 6.07 132.03 7.98L132.06 17.64L44.71 68.07L44.68 58.41C44.67 56.5 46.03 54.14 47.69 53.18L128.99 6.25Z" fill="#A3C9C6" fill-opacity="1.000000" fill-rule="nonzero"></path>
&#x9;&#x9;&#x9;<path id="path" d="M44.71 68.07L41.96 66.47L41.93 56.81L44.68 58.41L44.71 68.07Z" fill="#B8D6D3" fill-opacity="1.000000" fill-rule="nonzero"></path>
&#x9;&#x9;&#x9;<path id="path" d="M47.7 53.18L44.95 51.59L126.25 4.65L129 6.25L47.7 53.18Z" fill="#B8D6D3" fill-opacity="1.000000" fill-rule="nonzero"></path>
&#x9;&#x9;&#x9;<path id="path" d="M44.68 58.41L41.93 56.81C41.93 54.9 43.29 52.55 44.95 51.59L47.7 53.18C46.03 54.14 44.68 56.5 44.68 58.41Z" fill="#B8D6D3" fill-opacity="1.000000" fill-rule="nonzero"></path>
&#x9;&#x9;&#x9;<path id="path" d="M90.08 100.05L89.65 99.31L93.19 97.26C96.6 95.29 99.43 90.6 99.62 86.57L99.93 77.12C100.14 72.83 103.15 67.82 106.79 65.72L110.21 63.74L110.65 64.49L107.22 66.47C103.81 68.44 100.98 73.13 100.79 77.16L100.48 86.61C100.28 90.9 97.26 95.91 93.62 98.01L90.08 100.05Z" fill="#B8D6D3" fill-opacity="1.000000" fill-rule="nonzero"></path>
&#x9;&#x9;&#x9;<path id="path" d="M81.56 110.63L80.04 109.75C79.73 109.57 79.54 109.19 79.53 108.64L81.05 109.52C81.05 110.07 81.25 110.46 81.56 110.63Z" fill="#8FC2BE" fill-opacity="1.000000" fill-rule="nonzero"></path>
&#x9;&#x9;&#x9;<path id="path" d="M89.5 91.87L91.02 92.76C90.7 92.57 90.27 92.6 89.79 92.88L88.27 92C88.75 91.72 89.18 91.69 89.5 91.87Z" fill="#8FC2BE" fill-opacity="1.000000" fill-rule="nonzero"></path>
&#x9;&#x9;&#x9;<path id="path" d="M81.05 109.52L79.54 108.64L79.51 99.05L81.03 99.93L81.05 109.52Z" fill="#8FC2BE" fill-opacity="1.000000" fill-rule="nonzero"></path>
&#x9;&#x9;&#x9;<path id="path" d="M82.76 96.94L81.24 96.06L88.27 92L89.79 92.88L82.76 96.94Z" fill="#8FC2BE" fill-opacity="1.000000" fill-rule="nonzero"></path>
&#x9;&#x9;&#x9;<path id="path" d="M81.03 99.93L79.51 99.05C79.51 97.95 80.28 96.61 81.23 96.06L82.75 96.94C81.8 97.49 81.02 98.83 81.03 99.93Z" fill="#8FC2BE" fill-opacity="1.000000" fill-rule="nonzero"></path>
&#x9;&#x9;&#x9;<path id="path" d="M89.79 92.88C90.75 92.32 91.52 92.77 91.53 93.87L91.56 103.46C91.56 104.56 90.79 105.9 89.83 106.45L82.8 110.51C81.84 111.07 81.06 110.62 81.06 109.52L81.03 99.93C81.03 98.83 81.8 97.49 82.76 96.94L89.79 92.88Z" fill="#B8D6D3" fill-opacity="1.000000" fill-rule="nonzero"></path>
&#x9;&#x9;&#x9;<path id="path" d="M118.5 82.63L120.01 83.51C119.7 83.33 119.26 83.36 118.78 83.64L117.26 82.75C117.75 82.47 118.18 82.45 118.5 82.63Z" fill="#8FC2BE" fill-opacity="1.000000" fill-rule="nonzero"></path>
&#x9;&#x9;&#x9;<path id="path" d="M108.29 95.2L106.78 94.32C106.47 94.13 106.27 93.75 106.27 93.2L107.79 94.09C107.79 94.63 107.98 95.02 108.29 95.2Z" fill="#8FC2BE" fill-opacity="1.000000" fill-rule="nonzero"></path>
&#x9;&#x9;&#x9;<path id="path" d="M107.79 94.09L106.27 93.2L106.27 91.1L107.79 91.98L107.79 94.09Z" fill="#8FC2BE" fill-opacity="1.000000" fill-rule="nonzero"></path>
&#x9;&#x9;&#x9;<path id="path" d="M109.51 88.99L107.99 88.11L117.27 82.75L118.79 83.63L109.51 88.99Z" fill="#8FC2BE" fill-opacity="1.000000" fill-rule="nonzero"></path>
&#x9;&#x9;&#x9;<path id="path" d="M107.79 91.98L106.27 91.1C106.27 90 107.04 88.66 107.99 88.11L109.51 88.99C108.56 89.54 107.78 90.88 107.79 91.98Z" fill="#8FC2BE" fill-opacity="1.000000" fill-rule="nonzero"></path>
&#x9;&#x9;&#x9;<path id="path" d="M118.79 83.63C119.74 83.08 120.52 83.53 120.52 84.62L120.53 86.73C120.53 87.83 119.76 89.17 118.8 89.72L109.53 95.08C108.57 95.63 107.8 95.19 107.79 94.09L107.79 91.98C107.78 90.88 108.56 89.54 109.51 88.99L118.79 83.63Z" fill="#E0F3F1" fill-opacity="1.000000" fill-rule="nonzero"></path>
&#x9;&#x9;&#x9;<path id="path" d="M127.75 69.79L129.27 70.67C128.96 70.49 128.52 70.52 128.04 70.79L126.52 69.91C127 69.63 127.44 69.61 127.75 69.79Z" fill="#8FC2BE" fill-opacity="1.000000" fill-rule="nonzero"></path>
&#x9;&#x9;&#x9;<path id="path" d="M108.27 87.71L106.75 86.83C106.44 86.65 106.25 86.26 106.25 85.72L107.77 86.6C107.77 87.15 107.96 87.53 108.27 87.71Z" fill="#8FC2BE" fill-opacity="1.000000" fill-rule="nonzero"></path>
&#x9;&#x9;&#x9;<path id="path" d="M107.77 86.6L106.25 85.72L106.25 83.61L107.76 84.49L107.77 86.6Z" fill="#8FC2BE" fill-opacity="1.000000" fill-rule="nonzero"></path>
&#x9;&#x9;&#x9;<path id="path" d="M109.49 81.5L107.98 80.62L126.52 69.91L128.04 70.8L109.49 81.5Z" fill="#8FC2BE" fill-opacity="1.000000" fill-rule="nonzero"></path>
&#x9;&#x9;&#x9;<path id="path" d="M107.76 84.49L106.25 83.61C106.24 82.51 107.01 81.17 107.97 80.62L109.49 81.5C108.53 82.06 107.76 83.39 107.76 84.49Z" fill="#8FC2BE" fill-opacity="1.000000" fill-rule="nonzero"></path>
&#x9;&#x9;&#x9;<path id="path" d="M128.04 70.8C129 70.24 129.78 70.69 129.78 71.78L129.78 73.89C129.79 74.99 129.02 76.33 128.06 76.88L109.51 87.59C108.56 88.14 107.78 87.7 107.77 86.6L107.77 84.49C107.77 83.39 108.54 82.06 109.49 81.5L128.04 70.8Z" fill="#B8D6D3" fill-opacity="1.000000" fill-rule="nonzero"></path>
&#x9;&#x9;&#x9;<path id="path" d="M127.64 23.72L129.16 24.6C128.85 24.42 128.41 24.44 127.93 24.72L126.41 23.84C126.89 23.56 127.33 23.54 127.64 23.72Z" fill="#B8D6D3" fill-opacity="1.000000" fill-rule="nonzero"></path>
&#x9;&#x9;&#x9;<path id="path" d="M115.53 44.89L114.01 44.01C113.7 43.83 113.51 43.44 113.5 42.9L115.02 43.78C115.02 44.33 115.22 44.71 115.53 44.89Z" fill="#B8D6D3" fill-opacity="1.000000" fill-rule="nonzero"></path>
&#x9;&#x9;&#x9;<path id="path" d="M115.02 43.78L113.5 42.9L113.48 33.31L114.99 34.19L115.02 43.78Z" fill="#B8D6D3" fill-opacity="1.000000" fill-rule="nonzero"></path>
&#x9;&#x9;&#x9;<path id="path" d="M116.72 31.2L115.2 30.31L126.41 23.84L127.93 24.72L116.72 31.2Z" fill="#B8D6D3" fill-opacity="1.000000" fill-rule="nonzero"></path>
&#x9;&#x9;&#x9;<path id="path" d="M114.99 34.19L113.48 33.31C113.47 32.21 114.25 30.87 115.2 30.31L116.72 31.2C115.76 31.75 114.99 33.09 114.99 34.19Z" fill="#B8D6D3" fill-opacity="1.000000" fill-rule="nonzero"></path>
&#x9;&#x9;&#x9;<path id="path" d="M127.93 24.72C128.88 24.17 129.66 24.62 129.67 25.72L129.69 35.31C129.7 36.41 128.92 37.75 127.97 38.3L116.76 44.77C115.8 45.32 115.02 44.88 115.02 43.78L114.99 34.19C114.99 33.09 115.76 31.75 116.72 31.2L127.93 24.72Z" fill="#E0F3F1" fill-opacity="1.000000" fill-rule="nonzero"></path>
&#x9;&#x9;&#x9;<path id="path" d="M100.82 57.43L99.3 56.55C98.99 56.37 98.8 55.99 98.8 55.44L100.32 56.32C100.32 56.87 100.51 57.25 100.82 57.43Z" fill="#B8D6D3" fill-opacity="1.000000" fill-rule="nonzero"></path>
&#x9;&#x9;&#x9;<path id="path" d="M110.69 33.51L112.21 34.39C111.89 34.21 111.45 34.23 110.97 34.51L109.45 33.63C109.94 33.35 110.37 33.33 110.69 33.51Z" fill="#B8D6D3" fill-opacity="1.000000" fill-rule="nonzero"></path>
&#x9;&#x9;&#x9;<path id="path" d="M100.32 56.32L98.8 55.44L98.76 41.8L100.28 42.68L100.32 56.32Z" fill="#B8D6D3" fill-opacity="1.000000" fill-rule="nonzero"></path>
&#x9;&#x9;&#x9;<path id="path" d="M102 39.69L100.48 38.81L109.45 33.63L110.97 34.51L102 39.69Z" fill="#B8D6D3" fill-opacity="1.000000" fill-rule="nonzero"></path>
&#x9;&#x9;&#x9;<path id="path" d="M100.28 42.68L98.76 41.8C98.76 40.7 99.53 39.36 100.49 38.81L102.01 39.69C101.05 40.24 100.28 41.58 100.28 42.68Z" fill="#B8D6D3" fill-opacity="1.000000" fill-rule="nonzero"></path>
&#x9;&#x9;&#x9;<path id="path" d="M110.97 34.51C111.93 33.96 112.7 34.4 112.71 35.51L112.75 49.14C112.75 50.24 111.98 51.58 111.02 52.14L102.05 57.31C101.1 57.86 100.32 57.42 100.32 56.32L100.28 42.68C100.27 41.58 101.05 40.24 102 39.69L110.97 34.51Z" fill="#E0F3F1" fill-opacity="1.000000" fill-rule="nonzero"></path>
&#x9;&#x9;&#x9;<path id="path" d="M95.97 42L97.49 42.89C97.18 42.7 96.74 42.73 96.26 43.01L94.74 42.13C95.22 41.85 95.66 41.82 95.97 42Z" fill="#8FC2BE" fill-opacity="1.000000" fill-rule="nonzero"></path>
&#x9;&#x9;&#x9;<path id="path" d="M80.27 57.75L78.75 56.86C78.44 56.68 78.25 56.3 78.25 55.75L79.76 56.64C79.76 57.18 79.96 57.57 80.27 57.75Z" fill="#8FC2BE" fill-opacity="1.000000" fill-rule="nonzero"></path>
&#x9;&#x9;&#x9;<path id="path" d="M79.76 56.64L78.25 55.76L78.24 53.65L79.76 54.53L79.76 56.64Z" fill="#8FC2BE" fill-opacity="1.000000" fill-rule="nonzero"></path>
&#x9;&#x9;&#x9;<path id="path" d="M81.48 51.54L79.97 50.65L94.74 42.12L96.26 43.01L81.48 51.54Z" fill="#8FC2BE" fill-opacity="1.000000" fill-rule="nonzero"></path>
&#x9;&#x9;&#x9;<path id="path" d="M79.76 54.53L78.24 53.65C78.24 52.55 79.01 51.21 79.97 50.65L81.48 51.54C80.53 52.09 79.76 53.43 79.76 54.53Z" fill="#8FC2BE" fill-opacity="1.000000" fill-rule="nonzero"></path>
&#x9;&#x9;&#x9;<path id="path" d="M96.26 43.01C97.22 42.45 98 42.9 98 44L98.01 46.11C98.01 47.21 97.24 48.54 96.28 49.1L81.5 57.63C80.55 58.18 79.77 57.74 79.76 56.64L79.76 54.53C79.75 53.43 80.53 52.09 81.48 51.54L96.26 43.01Z" fill="#B8D6D3" fill-opacity="1.000000" fill-rule="nonzero"></path>
&#x9;&#x9;&#x9;<path id="path" d="M94.04 66.67L95.55 67.55C95.24 67.37 94.8 67.4 94.32 67.67L92.8 66.79C93.28 66.51 93.72 66.49 94.04 66.67Z" fill="#B8D6D3" fill-opacity="1.000000" fill-rule="nonzero"></path>
&#x9;&#x9;&#x9;<path id="path" d="M81.5 88.08L79.99 87.19C79.67 87.01 79.48 86.63 79.48 86.08L81 86.97C81 87.51 81.19 87.9 81.5 88.08Z" fill="#B8D6D3" fill-opacity="1.000000" fill-rule="nonzero"></path>
&#x9;&#x9;&#x9;<path id="path" d="M81 86.97L79.48 86.08L79.46 76.49L80.97 77.37L81 86.97Z" fill="#B8D6D3" fill-opacity="1.000000" fill-rule="nonzero"></path>
&#x9;&#x9;&#x9;<path id="path" d="M82.7 74.38L81.18 73.5L92.8 66.79L94.31 67.67L82.7 74.38Z" fill="#B8D6D3" fill-opacity="1.000000" fill-rule="nonzero"></path>
&#x9;&#x9;&#x9;<path id="path" d="M80.97 77.37L79.46 76.49C79.45 75.39 80.23 74.05 81.18 73.5L82.7 74.38C81.75 74.93 80.97 76.27 80.97 77.37Z" fill="#B8D6D3" fill-opacity="1.000000" fill-rule="nonzero"></path>
&#x9;&#x9;&#x9;<path id="path" d="M94.31 67.67C95.27 67.12 96.05 67.57 96.05 68.67L96.08 78.26C96.08 79.36 95.31 80.7 94.35 81.25L82.74 87.96C81.78 88.51 81 88.07 81 86.97L80.97 77.37C80.97 76.27 81.74 74.93 82.7 74.38L94.31 67.67Z" fill="#E0F3F1" fill-opacity="1.000000" fill-rule="nonzero"></path>
&#x9;&#x9;&#x9;<path id="path" d="M72.16 84.99L73.05 85.51C72.9 85.42 72.69 85.43 72.45 85.57L71.56 85.05C71.79 84.91 72 84.9 72.16 84.99Z" fill="#8FC2BE" fill-opacity="1.000000" fill-rule="nonzero"></path>
&#x9;&#x9;&#x9;<path id="path" d="M63.55 90.71L62.66 90.19L71.56 85.05L72.46 85.57L63.55 90.71Z" fill="#8FC2BE" fill-opacity="1.000000" fill-rule="nonzero"></path>
&#x9;&#x9;&#x9;<path id="path" d="M62.95 92.7L62.06 92.18C61.9 92.1 61.81 91.91 61.81 91.64C61.81 91.11 62.18 90.46 62.65 90.19L63.55 90.71C63.08 90.98 62.71 91.63 62.71 92.16C62.71 92.43 62.8 92.62 62.95 92.7Z" fill="#8FC2BE" fill-opacity="1.000000" fill-rule="nonzero"></path>
&#x9;&#x9;&#x9;<path id="path" d="M72.46 85.57C72.92 85.3 73.3 85.52 73.3 86.05C73.3 86.59 72.93 87.24 72.46 87.51L63.56 92.65C63.09 92.92 62.71 92.7 62.71 92.17C62.71 91.63 63.09 90.98 63.55 90.71L72.46 85.57Z" fill="#B8D6D3" fill-opacity="1.000000" fill-rule="nonzero"></path>
&#x9;&#x9;&#x9;<path id="path" d="M72.14 80.58L73.04 81.1C72.88 81.01 72.67 81.03 72.44 81.16L71.54 80.64C71.78 80.51 71.99 80.49 72.14 80.58Z" fill="#8FC2BE" fill-opacity="1.000000" fill-rule="nonzero"></path>
&#x9;&#x9;&#x9;<path id="path" d="M63.53 86.3L62.64 85.78L71.54 80.64L72.44 81.16L63.53 86.3Z" fill="#8FC2BE" fill-opacity="1.000000" fill-rule="nonzero"></path>
&#x9;&#x9;&#x9;<path id="path" d="M62.94 88.3L62.05 87.78C61.89 87.69 61.8 87.5 61.8 87.23C61.8 86.7 62.18 86.05 62.64 85.78L63.54 86.31C63.07 86.57 62.7 87.22 62.7 87.76C62.7 88.02 62.79 88.21 62.94 88.3Z" fill="#8FC2BE" fill-opacity="1.000000" fill-rule="nonzero"></path>
&#x9;&#x9;&#x9;<path id="path" d="M72.44 81.16C72.91 80.89 73.29 81.11 73.29 81.64C73.29 82.18 72.91 82.83 72.45 83.1L63.54 88.24C63.08 88.51 62.7 88.29 62.7 87.76C62.7 87.22 63.07 86.57 63.54 86.3L72.44 81.16Z" fill="#B8D6D3" fill-opacity="1.000000" fill-rule="nonzero"></path>
&#x9;&#x9;&#x9;<path id="path" d="M72.21 107.87L73.11 108.39C72.96 108.3 72.74 108.32 72.51 108.45L71.61 107.93C71.85 107.8 72.06 107.78 72.21 107.87Z" fill="#B8D6D3" fill-opacity="1.000000" fill-rule="nonzero"></path>
&#x9;&#x9;&#x9;<path id="path" d="M63.6 113.59L62.71 113.07L71.61 107.93L72.51 108.45L63.6 113.59Z" fill="#B8D6D3" fill-opacity="1.000000" fill-rule="nonzero"></path>
&#x9;&#x9;&#x9;<path id="path" d="M63.01 115.59L62.12 115.07C61.96 114.98 61.87 114.79 61.87 114.53C61.87 113.99 62.25 113.34 62.71 113.07L63.61 113.59C63.14 113.86 62.77 114.51 62.77 115.05C62.77 115.31 62.86 115.5 63.01 115.59Z" fill="#B8D6D3" fill-opacity="1.000000" fill-rule="nonzero"></path>
&#x9;&#x9;&#x9;<path id="path" d="M72.51 108.45C72.98 108.18 73.35 108.4 73.35 108.93C73.36 109.47 72.98 110.12 72.51 110.39L63.61 115.53C63.14 115.8 62.77 115.58 62.76 115.05C62.76 114.51 63.14 113.86 63.6 113.59L72.51 108.45Z" fill="#FFFFFF" fill-opacity="1.000000" fill-rule="nonzero"></path>
&#x9;&#x9;&#x9;<path id="path" d="M72.21 103.47L73.1 103.99C72.95 103.9 72.74 103.91 72.5 104.05L71.6 103.52C71.84 103.39 72.05 103.38 72.21 103.47Z" fill="#B8D6D3" fill-opacity="1.000000" fill-rule="nonzero"></path>
&#x9;&#x9;&#x9;<path id="path" d="M63.59 109.18L62.7 108.66L71.6 103.52L72.5 104.04L63.59 109.18Z" fill="#B8D6D3" fill-opacity="1.000000" fill-rule="nonzero"></path>
&#x9;&#x9;&#x9;<path id="path" d="M63 111.18L62.1 110.66C61.95 110.57 61.86 110.38 61.86 110.12C61.86 109.58 62.23 108.93 62.7 108.66L63.59 109.19C63.13 109.45 62.75 110.11 62.75 110.64C62.75 110.91 62.85 111.09 63 111.18Z" fill="#B8D6D3" fill-opacity="1.000000" fill-rule="nonzero"></path>
&#x9;&#x9;&#x9;<path id="path" d="M72.5 104.05C72.97 103.78 73.34 103.99 73.35 104.53C73.35 105.06 72.97 105.71 72.51 105.98L63.6 111.12C63.14 111.39 62.76 111.17 62.76 110.64C62.75 110.11 63.13 109.46 63.6 109.19L72.5 104.05Z" fill="#FFFFFF" fill-opacity="1.000000" fill-rule="nonzero"></path>
&#x9;&#x9;&#x9;<path id="path" d="" fill="#000000" fill-opacity="0" fill-rule="nonzero"></path>
&#x9;&#x9;&#x9;<path id="path" d="M89.21 52.84C87.42 57.09 89.21 64.82 93.77 62.36C109.19 54.05 96.05 70.28 110.67 61.42" stroke="#B8D6D3" stroke-opacity="1.000000" stroke-width="0.800000"></path>
&#x9;&#x9;&#x9;<path id="path" d="M147.11 19.08L92.81 50.43L92.87 73.32L92.92 96.2L92.98 119.08L144.25 89.48C145.92 88.52 147.27 86.17 147.27 84.25L147.11 19.08Z" fill="#F4F9F7" fill-opacity="1.000000" fill-rule="nonzero"></path>
&#x9;&#x9;&#x9;<path id="path" d="M61.12 136.81L59 135.58C58.46 135.26 58.12 134.59 58.11 133.64L60.24 134.87C60.24 135.82 60.58 136.5 61.12 136.81Z" fill="#B8D6D3" fill-opacity="1.000000" fill-rule="nonzero"></path>
&#x9;&#x9;&#x9;<path id="path" d="M60.25 134.87L58.12 133.64L58.08 114.24L60.2 115.47L60.25 134.87Z" fill="#B8D6D3" fill-opacity="1.000000" fill-rule="nonzero"></path>
&#x9;&#x9;&#x9;<path id="path" d="M60.2 115.47L58.08 114.24L91.13 95.15L93.25 96.39L60.2 115.47Z" fill="#B8D6D3" fill-opacity="1.000000" fill-rule="nonzero"></path>
&#x9;&#x9;&#x9;<path id="path" d="M93.25 96.39L93.31 119.27L63.28 136.6C61.62 137.57 60.25 136.79 60.25 134.87L60.2 115.47L93.25 96.39Z" fill="#E0F3F1" fill-opacity="1.000000" fill-rule="nonzero"></path>
&#x9;&#x9;&#x9;<path id="path" d="M60.2 115.47L58.07 114.24L58.01 91.35L60.14 92.59L60.2 115.47Z" fill="#B8D6D3" fill-opacity="1.000000" fill-rule="nonzero"></path>
&#x9;&#x9;&#x9;<path id="path" d="M60.14 92.59L58.01 91.35L91.07 72.27L93.19 73.51L60.14 92.59Z" fill="#F4F9F7" fill-opacity="1.000000" fill-rule="nonzero"></path>
&#x9;&#x9;&#x9;<path id="path" d="M93.19 73.51L93.25 96.39L60.2 115.47L60.14 92.59L93.19 73.51Z" fill="#F4F9F7" fill-opacity="1.000000" fill-rule="nonzero"></path>
&#x9;&#x9;&#x9;<path id="path" d="M60.14 92.59L58.01 91.35L57.96 68.47L60.08 69.71L60.14 92.59Z" fill="#B8D6D3" fill-opacity="1.000000" fill-rule="nonzero"></path>
&#x9;&#x9;&#x9;<path id="path" d="M60.08 69.71L57.96 68.47L91.01 49.39L93.13 50.62L60.08 69.71Z" fill="#B8D6D3" fill-opacity="1.000000" fill-rule="nonzero"></path>
&#x9;&#x9;&#x9;<path id="path" d="M93.13 50.63L93.19 73.51L60.14 92.59L60.08 69.71L93.13 50.63Z" fill="#E0F3F1" fill-opacity="1.000000" fill-rule="nonzero"></path>
&#x9;&#x9;&#x9;<path id="path" d="M88.1 64.11L89 64.63C88.85 64.54 88.64 64.55 88.4 64.69L87.5 64.17C87.74 64.03 87.95 64.02 88.1 64.11Z" fill="#B8D6D3" fill-opacity="1.000000" fill-rule="nonzero"></path>
&#x9;&#x9;&#x9;<path id="path" d="M79.5 69.83L78.6 69.31L87.5 64.17L88.4 64.69L79.5 69.83Z" fill="#B8D6D3" fill-opacity="1.000000" fill-rule="nonzero"></path>
&#x9;&#x9;&#x9;<path id="path" d="M78.9 71.82L78 71.3C77.85 71.21 77.76 71.03 77.76 70.76C77.75 70.23 78.13 69.58 78.6 69.31L79.49 69.83C79.03 70.1 78.65 70.75 78.66 71.28C78.66 71.55 78.75 71.74 78.9 71.82Z" fill="#B8D6D3" fill-opacity="1.000000" fill-rule="nonzero"></path>
&#x9;&#x9;&#x9;<path id="path" d="M88.4 64.69C88.87 64.42 89.24 64.63 89.24 65.17C89.25 65.7 88.87 66.35 88.4 66.62L79.5 71.76C79.03 72.03 78.66 71.82 78.66 71.28C78.65 70.75 79.03 70.1 79.49 69.83L88.4 64.69Z" fill="#FFFFFF" fill-opacity="1.000000" fill-rule="nonzero"></path>
&#x9;&#x9;&#x9;<path id="path" d="M88.08 59.7L88.98 60.22C88.83 60.13 88.62 60.14 88.38 60.28L87.49 59.76C87.72 59.62 87.93 59.61 88.08 59.7Z" fill="#B8D6D3" fill-opacity="1.000000" fill-rule="nonzero"></path>
&#x9;&#x9;&#x9;<path id="path" d="M79.48 65.42L78.58 64.9L87.49 59.76L88.39 60.28L79.48 65.42Z" fill="#B8D6D3" fill-opacity="1.000000" fill-rule="nonzero"></path>
&#x9;&#x9;&#x9;<path id="path" d="M78.89 67.42L77.99 66.89C77.84 66.8 77.75 66.62 77.74 66.35C77.74 65.82 78.12 65.17 78.58 64.9L79.48 65.42C79.01 65.69 78.64 66.34 78.64 66.88C78.64 67.14 78.74 67.33 78.89 67.42Z" fill="#B8D6D3" fill-opacity="1.000000" fill-rule="nonzero"></path>
&#x9;&#x9;&#x9;<path id="path" d="M88.39 60.28C88.85 60.01 89.23 60.23 89.23 60.76C89.23 61.3 88.86 61.95 88.39 62.22L79.49 67.36C79.02 67.63 78.64 67.41 78.64 66.88C78.64 66.34 79.01 65.69 79.48 65.42L88.39 60.28Z" fill="#FFFFFF" fill-opacity="1.000000" fill-rule="nonzero"></path>
&#x9;&#x9;&#x9;<path id="path" d="M73.18 69.55L74.08 70.07C73.26 69.6 72.13 69.66 70.88 70.39L69.98 69.86C71.23 69.14 72.36 69.08 73.18 69.55Z" fill="#B8D6D3" fill-opacity="1.000000" fill-rule="nonzero"></path>
&#x9;&#x9;&#x9;<path id="path" d="M67.71 81.04L66.81 80.52C66.01 80.05 65.5 79.05 65.5 77.63C65.49 74.78 67.5 71.3 69.98 69.87L70.88 70.39C68.4 71.82 66.39 75.3 66.4 78.15C66.4 79.57 66.9 80.57 67.71 81.04Z" fill="#B8D6D3" fill-opacity="1.000000" fill-rule="nonzero"></path>
&#x9;&#x9;&#x9;<path id="path" d="M70.87 70.39C73.36 68.95 75.38 70.11 75.39 72.96C75.4 75.81 73.39 79.29 70.9 80.72C68.42 82.16 66.4 81.01 66.39 78.15C66.38 75.3 68.39 71.82 70.87 70.39Z" fill="#FFFFFF" fill-opacity="1.000000" fill-rule="nonzero"></path>
&#x9;&#x9;&#x9;<path id="path" d="M143.7 49.23L145.22 50.12C144.9 49.93 144.47 49.96 143.99 50.24L142.47 49.35C142.95 49.08 143.38 49.05 143.7 49.23Z" fill="#8FC2BE" fill-opacity="1.000000" fill-rule="nonzero"></path>
&#x9;&#x9;&#x9;<path id="path" d="M127.71 72.64L126.19 71.76C125.88 71.58 125.69 71.19 125.68 70.65L127.2 71.53C127.21 72.07 127.4 72.46 127.71 72.64Z" fill="#8FC2BE" fill-opacity="1.000000" fill-rule="nonzero"></path>
&#x9;&#x9;&#x9;<path id="path" d="M127.2 71.53L125.68 70.65L125.66 61.05L127.18 61.94L127.2 71.53Z" fill="#8FC2BE" fill-opacity="1.000000" fill-rule="nonzero"></path>
&#x9;&#x9;&#x9;<path id="path" d="M128.91 58.94L127.39 58.06L142.47 49.35L143.99 50.24L128.91 58.94Z" fill="#8FC2BE" fill-opacity="1.000000" fill-rule="nonzero"></path>
&#x9;&#x9;&#x9;<path id="path" d="M127.18 61.94L125.66 61.05C125.65 59.95 126.43 58.61 127.38 58.06L128.9 58.94C127.94 59.5 127.17 60.83 127.18 61.94Z" fill="#8FC2BE" fill-opacity="1.000000" fill-rule="nonzero"></path>
&#x9;&#x9;&#x9;<line id="line" x1="135.371094" y1="68.022461" x2="135.371094" y2="76.531250" stroke="#B8D6D3" stroke-opacity="1.000000" stroke-width="0.800000"></line>
&#x9;&#x9;&#x9;<path id="path" d="M143.99 50.24C144.94 49.68 145.72 50.13 145.72 51.23L145.75 60.82C145.75 61.92 144.98 63.26 144.02 63.81L128.94 72.52C127.98 73.07 127.21 72.63 127.2 71.53L127.18 61.94C127.17 60.84 127.95 59.5 128.9 58.94L143.99 50.24Z" fill="#B8D6D3" fill-opacity="1.000000" fill-rule="nonzero"></path>
&#x9;&#x9;&#x9;<path id="path" d="M144.39 6.44L147.14 8.04C146.59 7.72 145.83 7.77 144.99 8.25L142.24 6.65C143.08 6.17 143.84 6.12 144.39 6.44Z" fill="#B8D6D3" fill-opacity="1.000000" fill-rule="nonzero"></path>
&#x9;&#x9;&#x9;<path id="path" d="M144.99 8.25C146.65 7.29 148.02 8.07 148.03 9.98L148.06 19.64L60.71 70.07L60.68 60.41C60.67 58.5 62.03 56.14 63.69 55.18L144.99 8.25Z" fill="#8FC2BE" fill-opacity="1.000000" fill-rule="nonzero"></path>
&#x9;&#x9;&#x9;<path id="path" d="M60.71 70.07L57.96 68.47L57.93 58.81L60.68 60.41L60.71 70.07Z" fill="#B8D6D3" fill-opacity="1.000000" fill-rule="nonzero"></path>
&#x9;&#x9;&#x9;<path id="path" d="M63.7 55.18L60.95 53.59L142.25 6.65L145 8.25L63.7 55.18Z" fill="#B8D6D3" fill-opacity="1.000000" fill-rule="nonzero"></path>
&#x9;&#x9;&#x9;<path id="path" d="M60.68 60.41L57.93 58.81C57.93 56.9 59.29 54.55 60.95 53.59L63.7 55.18C62.03 56.14 60.68 58.5 60.68 60.41Z" fill="#B8D6D3" fill-opacity="1.000000" fill-rule="nonzero"></path>
&#x9;&#x9;&#x9;<path id="path" d="M136.72 16.97L138.02 17.73C137.58 17.48 136.96 17.51 136.28 17.91L134.97 17.15C135.65 16.75 136.27 16.72 136.72 16.97Z" fill="#B8D6D3" fill-opacity="1.000000" fill-rule="nonzero"></path>
&#x9;&#x9;&#x9;<path id="path" d="M134.55 23.71L133.24 22.95C132.8 22.7 132.52 22.15 132.52 21.38C132.52 19.82 133.61 17.93 134.97 17.15L136.27 17.91C134.92 18.69 133.83 20.58 133.83 22.14C133.83 22.91 134.1 23.46 134.55 23.71Z" fill="#B8D6D3" fill-opacity="1.000000" fill-rule="nonzero"></path>
&#x9;&#x9;&#x9;<path id="path" d="M136.28 17.91C137.63 17.12 138.74 17.75 138.74 19.31C138.74 20.87 137.65 22.76 136.29 23.54C134.94 24.33 133.84 23.7 133.83 22.14C133.83 20.58 134.92 18.69 136.28 17.91Z" fill="#F4F2FE" fill-opacity="1.000000" fill-rule="nonzero"></path>
&#x9;&#x9;&#x9;<path id="path" d="M144.61 12.42L145.92 13.18C145.47 12.92 144.85 12.95 144.17 13.35L142.86 12.59C143.55 12.19 144.16 12.16 144.61 12.42Z" fill="#B8D6D3" fill-opacity="1.000000" fill-rule="nonzero"></path>
&#x9;&#x9;&#x9;<path id="path" d="M142.44 19.16L141.14 18.4C140.7 18.14 140.42 17.6 140.42 16.82C140.42 15.27 141.51 13.37 142.87 12.59L144.17 13.35C142.82 14.13 141.72 16.03 141.73 17.58C141.73 18.36 142 18.9 142.44 19.16Z" fill="#B8D6D3" fill-opacity="1.000000" fill-rule="nonzero"></path>
&#x9;&#x9;&#x9;<path id="path" d="M144.17 13.35C145.53 12.56 146.63 13.19 146.64 14.75C146.64 16.31 145.55 18.2 144.19 18.99C142.83 19.77 141.73 19.14 141.73 17.58C141.72 16.03 142.82 14.13 144.17 13.35Z" fill="#F4F2FE" fill-opacity="1.000000" fill-rule="nonzero"></path>
&#x9;&#x9;&#x9;<path id="path" d="M106.08 102.05L105.65 101.31L109.19 99.26C112.6 97.29 115.43 92.6 115.62 88.57L115.93 79.12C116.14 74.83 119.15 69.82 122.79 67.72L126.21 65.74L126.65 66.49L123.22 68.47C119.81 70.44 116.98 75.13 116.79 79.16L116.48 88.61C116.28 92.9 113.26 97.91 109.62 100.01L106.08 102.05Z" fill="#B8D6D3" fill-opacity="1.000000" fill-rule="nonzero"></path>
&#x9;&#x9;&#x9;<path id="path" d="M97.56 112.63L96.04 111.75C95.73 111.57 95.54 111.19 95.53 110.64L97.05 111.52C97.05 112.07 97.25 112.46 97.56 112.63Z" fill="#8FC2BE" fill-opacity="1.000000" fill-rule="nonzero"></path>
&#x9;&#x9;&#x9;<path id="path" d="M105.5 93.87L107.02 94.76C106.7 94.57 106.27 94.6 105.79 94.88L104.27 94C104.75 93.72 105.19 93.69 105.5 93.87Z" fill="#8FC2BE" fill-opacity="1.000000" fill-rule="nonzero"></path>
&#x9;&#x9;&#x9;<path id="path" d="M97.05 111.52L95.54 110.64L95.51 101.05L97.03 101.93L97.05 111.52Z" fill="#8FC2BE" fill-opacity="1.000000" fill-rule="nonzero"></path>
&#x9;&#x9;&#x9;<path id="path" d="M98.76 98.94L97.24 98.06L104.27 94L105.79 94.88L98.76 98.94Z" fill="#8FC2BE" fill-opacity="1.000000" fill-rule="nonzero"></path>
&#x9;&#x9;&#x9;<path id="path" d="M97.03 101.93L95.51 101.05C95.51 99.95 96.28 98.61 97.23 98.06L98.75 98.94C97.8 99.49 97.02 100.83 97.03 101.93Z" fill="#8FC2BE" fill-opacity="1.000000" fill-rule="nonzero"></path>
&#x9;&#x9;&#x9;<path id="path" d="M105.79 94.88C106.75 94.32 107.53 94.77 107.53 95.87L107.56 105.46C107.56 106.56 106.79 107.9 105.83 108.45L98.8 112.51C97.84 113.07 97.06 112.62 97.06 111.52L97.03 101.93C97.03 100.83 97.8 99.49 98.76 98.94L105.79 94.88Z" fill="#B8D6D3" fill-opacity="1.000000" fill-rule="nonzero"></path>
&#x9;&#x9;&#x9;<path id="path" d="M134.5 84.63L136.01 85.51C135.7 85.33 135.26 85.36 134.78 85.64L133.26 84.75C133.75 84.47 134.18 84.45 134.5 84.63Z" fill="#8FC2BE" fill-opacity="1.000000" fill-rule="nonzero"></path>
&#x9;&#x9;&#x9;<path id="path" d="M124.29 97.2L122.78 96.32C122.47 96.13 122.27 95.75 122.27 95.2L123.79 96.09C123.79 96.63 123.98 97.02 124.29 97.2Z" fill="#8FC2BE" fill-opacity="1.000000" fill-rule="nonzero"></path>
&#x9;&#x9;&#x9;<path id="path" d="M123.79 96.09L122.27 95.2L122.27 93.1L123.79 93.98L123.79 96.09Z" fill="#8FC2BE" fill-opacity="1.000000" fill-rule="nonzero"></path>
&#x9;&#x9;&#x9;<path id="path" d="M125.51 90.99L123.99 90.11L133.27 84.75L134.79 85.63L125.51 90.99Z" fill="#8FC2BE" fill-opacity="1.000000" fill-rule="nonzero"></path>
&#x9;&#x9;&#x9;<path id="path" d="M123.79 93.98L122.27 93.1C122.27 92 123.04 90.66 123.99 90.11L125.51 90.99C124.56 91.54 123.78 92.88 123.79 93.98Z" fill="#8FC2BE" fill-opacity="1.000000" fill-rule="nonzero"></path>
&#x9;&#x9;&#x9;<path id="path" d="M134.78 85.63C135.74 85.08 136.52 85.53 136.52 86.62L136.53 88.73C136.53 89.83 135.76 91.17 134.8 91.72L125.53 97.08C124.57 97.63 123.8 97.19 123.79 96.09L123.79 93.98C123.78 92.88 124.56 91.54 125.51 90.99L134.78 85.63Z" fill="#E0F3F1" fill-opacity="1.000000" fill-rule="nonzero"></path>
&#x9;&#x9;&#x9;<path id="path" d="M143.75 71.79L145.27 72.67C144.96 72.49 144.52 72.52 144.04 72.79L142.52 71.91C143 71.63 143.44 71.61 143.75 71.79Z" fill="#8FC2BE" fill-opacity="1.000000" fill-rule="nonzero"></path>
&#x9;&#x9;&#x9;<path id="path" d="M124.27 89.71L122.75 88.83C122.44 88.65 122.25 88.26 122.25 87.72L123.77 88.6C123.77 89.15 123.96 89.53 124.27 89.71Z" fill="#8FC2BE" fill-opacity="1.000000" fill-rule="nonzero"></path>
&#x9;&#x9;&#x9;<path id="path" d="M123.77 88.6L122.25 87.72L122.25 85.61L123.76 86.49L123.77 88.6Z" fill="#8FC2BE" fill-opacity="1.000000" fill-rule="nonzero"></path>
&#x9;&#x9;&#x9;<path id="path" d="M125.49 83.5L123.98 82.62L142.52 71.91L144.04 72.8L125.49 83.5Z" fill="#8FC2BE" fill-opacity="1.000000" fill-rule="nonzero"></path>
&#x9;&#x9;&#x9;<path id="path" d="M123.76 86.49L122.25 85.61C122.24 84.51 123.01 83.17 123.97 82.62L125.49 83.5C124.53 84.06 123.76 85.39 123.76 86.49Z" fill="#8FC2BE" fill-opacity="1.000000" fill-rule="nonzero"></path>
&#x9;&#x9;&#x9;<path id="path" d="M144.04 72.8C145 72.24 145.78 72.69 145.78 73.78L145.78 75.89C145.79 76.99 145.02 78.33 144.06 78.88L125.51 89.59C124.56 90.14 123.78 89.7 123.77 88.6L123.77 86.49C123.77 85.39 124.54 84.06 125.49 83.5L144.04 72.8Z" fill="#B8D6D3" fill-opacity="1.000000" fill-rule="nonzero"></path>
&#x9;&#x9;&#x9;<path id="path" d="M143.64 25.72L145.16 26.6C144.85 26.42 144.41 26.44 143.93 26.72L142.41 25.84C142.89 25.56 143.33 25.54 143.64 25.72Z" fill="#B8D6D3" fill-opacity="1.000000" fill-rule="nonzero"></path>
&#x9;&#x9;&#x9;<path id="path" d="M131.53 46.89L130.01 46.01C129.7 45.83 129.5 45.44 129.5 44.9L131.02 45.78C131.02 46.33 131.22 46.71 131.53 46.89Z" fill="#B8D6D3" fill-opacity="1.000000" fill-rule="nonzero"></path>
&#x9;&#x9;&#x9;<path id="path" d="M131.02 45.78L129.5 44.9L129.48 35.31L130.99 36.19L131.02 45.78Z" fill="#B8D6D3" fill-opacity="1.000000" fill-rule="nonzero"></path>
&#x9;&#x9;&#x9;<path id="path" d="M132.72 33.2L131.2 32.31L142.41 25.84L143.92 26.72L132.72 33.2Z" fill="#B8D6D3" fill-opacity="1.000000" fill-rule="nonzero"></path>
&#x9;&#x9;&#x9;<path id="path" d="M130.99 36.19L129.48 35.31C129.47 34.21 130.25 32.87 131.2 32.31L132.72 33.2C131.76 33.75 130.99 35.09 130.99 36.19Z" fill="#B8D6D3" fill-opacity="1.000000" fill-rule="nonzero"></path>
&#x9;&#x9;&#x9;<path id="path" d="M143.93 26.72C144.88 26.17 145.66 26.62 145.67 27.72L145.69 37.31C145.7 38.41 144.92 39.75 143.97 40.3L132.76 46.77C131.8 47.32 131.02 46.88 131.02 45.78L130.99 36.19C130.99 35.09 131.76 33.75 132.72 33.2L143.93 26.72Z" fill="#E0F3F1" fill-opacity="1.000000" fill-rule="nonzero"></path>
&#x9;&#x9;&#x9;<path id="path" d="M116.82 59.43L115.3 58.55C114.99 58.37 114.8 57.99 114.8 57.44L116.32 58.32C116.32 58.87 116.51 59.25 116.82 59.43Z" fill="#B8D6D3" fill-opacity="1.000000" fill-rule="nonzero"></path>
&#x9;&#x9;&#x9;<path id="path" d="M126.69 35.51L128.21 36.39C127.89 36.21 127.45 36.23 126.97 36.51L125.45 35.63C125.94 35.35 126.37 35.33 126.69 35.51Z" fill="#B8D6D3" fill-opacity="1.000000" fill-rule="nonzero"></path>
&#x9;&#x9;&#x9;<path id="path" d="M116.32 58.32L114.8 57.44L114.76 43.8L116.28 44.68L116.32 58.32Z" fill="#B8D6D3" fill-opacity="1.000000" fill-rule="nonzero"></path>
&#x9;&#x9;&#x9;<path id="path" d="M118 41.69L116.48 40.81L125.45 35.63L126.97 36.51L118 41.69Z" fill="#B8D6D3" fill-opacity="1.000000" fill-rule="nonzero"></path>
&#x9;&#x9;&#x9;<path id="path" d="M116.28 44.68L114.76 43.8C114.76 42.7 115.53 41.36 116.49 40.81L118.01 41.69C117.05 42.24 116.28 43.58 116.28 44.68Z" fill="#B8D6D3" fill-opacity="1.000000" fill-rule="nonzero"></path>
&#x9;&#x9;&#x9;<path id="path" d="M126.97 36.51C127.93 35.96 128.7 36.4 128.71 37.51L128.75 51.14C128.75 52.24 127.98 53.58 127.02 54.14L118.05 59.31C117.1 59.86 116.32 59.42 116.32 58.32L116.28 44.68C116.27 43.58 117.05 42.24 118 41.69L126.97 36.51Z" fill="#E0F3F1" fill-opacity="1.000000" fill-rule="nonzero"></path>
&#x9;&#x9;&#x9;<path id="path" d="M111.97 44L113.49 44.89C113.18 44.7 112.74 44.73 112.26 45.01L110.74 44.13C111.22 43.85 111.66 43.82 111.97 44Z" fill="#8FC2BE" fill-opacity="1.000000" fill-rule="nonzero"></path>
&#x9;&#x9;&#x9;<path id="path" d="M96.27 59.75L94.75 58.86C94.44 58.68 94.25 58.3 94.25 57.75L95.76 58.64C95.77 59.18 95.96 59.57 96.27 59.75Z" fill="#8FC2BE" fill-opacity="1.000000" fill-rule="nonzero"></path>
&#x9;&#x9;&#x9;<path id="path" d="M95.76 58.64L94.25 57.76L94.24 55.65L95.76 56.53L95.76 58.64Z" fill="#8FC2BE" fill-opacity="1.000000" fill-rule="nonzero"></path>
&#x9;&#x9;&#x9;<path id="path" d="M97.48 53.54L95.97 52.65L110.74 44.12L112.26 45.01L97.48 53.54Z" fill="#8FC2BE" fill-opacity="1.000000" fill-rule="nonzero"></path>
&#x9;&#x9;&#x9;<path id="path" d="M95.76 56.53L94.24 55.65C94.24 54.55 95.01 53.21 95.97 52.65L97.48 53.54C96.53 54.09 95.76 55.43 95.76 56.53Z" fill="#8FC2BE" fill-opacity="1.000000" fill-rule="nonzero"></path>
&#x9;&#x9;&#x9;<path id="path" d="M112.26 45.01C113.22 44.45 114 44.9 114 46L114.01 48.11C114.01 49.21 113.24 50.54 112.28 51.1L97.5 59.63C96.55 60.18 95.77 59.74 95.76 58.64L95.76 56.53C95.75 55.43 96.53 54.09 97.48 53.54L112.26 45.01Z" fill="#B8D6D3" fill-opacity="1.000000" fill-rule="nonzero"></path>
&#x9;&#x9;&#x9;<path id="path" d="M110.04 68.67L111.55 69.55C111.24 69.37 110.8 69.4 110.32 69.67L108.8 68.79C109.29 68.51 109.72 68.49 110.04 68.67Z" fill="#B8D6D3" fill-opacity="1.000000" fill-rule="nonzero"></path>
&#x9;&#x9;&#x9;<path id="path" d="M97.5 90.08L95.99 89.19C95.67 89.01 95.48 88.63 95.48 88.08L97 88.97C97 89.51 97.19 89.9 97.5 90.08Z" fill="#B8D6D3" fill-opacity="1.000000" fill-rule="nonzero"></path>
&#x9;&#x9;&#x9;<path id="path" d="M97 88.97L95.48 88.08L95.46 78.49L96.97 79.37L97 88.97Z" fill="#B8D6D3" fill-opacity="1.000000" fill-rule="nonzero"></path>
&#x9;&#x9;&#x9;<path id="path" d="M98.7 76.38L97.18 75.5L108.8 68.79L110.31 69.67L98.7 76.38Z" fill="#B8D6D3" fill-opacity="1.000000" fill-rule="nonzero"></path>
&#x9;&#x9;&#x9;<path id="path" d="M96.97 79.37L95.46 78.49C95.45 77.39 96.23 76.05 97.18 75.5L98.7 76.38C97.75 76.93 96.97 78.27 96.97 79.37Z" fill="#B8D6D3" fill-opacity="1.000000" fill-rule="nonzero"></path>
&#x9;&#x9;&#x9;<path id="path" d="M110.31 69.67C111.27 69.12 112.05 69.57 112.05 70.67L112.08 80.26C112.08 81.36 111.31 82.7 110.35 83.25L98.74 89.96C97.78 90.51 97 90.07 97 88.97L96.97 79.37C96.97 78.27 97.74 76.93 98.7 76.38L110.31 69.67Z" fill="#E0F3F1" fill-opacity="1.000000" fill-rule="nonzero"></path>
&#x9;&#x9;&#x9;<path id="path" d="M73.24 92.43L74.13 92.96C73.32 92.48 72.18 92.55 70.93 93.27L70.04 92.75C71.29 92.03 72.42 91.96 73.24 92.43Z" fill="#8FC2BE" fill-opacity="1.000000" fill-rule="nonzero"></path>
&#x9;&#x9;&#x9;<path id="path" d="M67.76 103.92L66.87 103.4C66.06 102.93 65.56 101.93 65.55 100.52C65.54 97.66 67.55 94.18 70.04 92.75L70.93 93.27C68.45 94.7 66.44 98.18 66.45 101.04C66.46 102.45 66.96 103.45 67.76 103.92Z" fill="#8FC2BE" fill-opacity="1.000000" fill-rule="nonzero"></path>
&#x9;&#x9;&#x9;<path id="path" d="M70.94 93.27C73.42 91.83 75.44 92.99 75.45 95.84C75.46 98.7 73.45 102.17 70.97 103.61C68.48 105.04 66.46 103.89 66.45 101.04C66.44 98.18 68.45 94.7 70.94 93.27Z" fill="#B8D6D3" fill-opacity="1.000000" fill-rule="nonzero"></path>
&#x9;&#x9;&#x9;<path id="path" d="M88.16 86.99L89.05 87.51C88.9 87.42 88.69 87.43 88.45 87.57L87.56 87.05C87.79 86.91 88 86.9 88.16 86.99Z" fill="#8FC2BE" fill-opacity="1.000000" fill-rule="nonzero"></path>
&#x9;&#x9;&#x9;<path id="path" d="M79.55 92.71L78.66 92.19L87.56 87.05L88.46 87.57L79.55 92.71Z" fill="#8FC2BE" fill-opacity="1.000000" fill-rule="nonzero"></path>
&#x9;&#x9;&#x9;<path id="path" d="M78.95 94.7L78.06 94.18C77.9 94.1 77.81 93.91 77.81 93.64C77.81 93.11 78.18 92.46 78.65 92.19L79.55 92.71C79.08 92.98 78.71 93.63 78.71 94.16C78.71 94.43 78.8 94.62 78.95 94.7Z" fill="#8FC2BE" fill-opacity="1.000000" fill-rule="nonzero"></path>
&#x9;&#x9;&#x9;<path id="path" d="M88.46 87.57C88.92 87.3 89.3 87.52 89.3 88.05C89.3 88.59 88.93 89.24 88.46 89.51L79.56 94.65C79.09 94.92 78.71 94.7 78.71 94.17C78.71 93.63 79.09 92.98 79.55 92.71L88.46 87.57Z" fill="#B8D6D3" fill-opacity="1.000000" fill-rule="nonzero"></path>
&#x9;&#x9;&#x9;<path id="path" d="M88.14 82.58L89.04 83.1C88.88 83.01 88.67 83.03 88.44 83.16L87.54 82.64C87.78 82.51 87.99 82.49 88.14 82.58Z" fill="#8FC2BE" fill-opacity="1.000000" fill-rule="nonzero"></path>
&#x9;&#x9;&#x9;<path id="path" d="M79.53 88.3L78.64 87.78L87.54 82.64L88.44 83.16L79.53 88.3Z" fill="#8FC2BE" fill-opacity="1.000000" fill-rule="nonzero"></path>
&#x9;&#x9;&#x9;<path id="path" d="M78.94 90.3L78.05 89.78C77.89 89.69 77.8 89.5 77.8 89.23C77.8 88.7 78.18 88.05 78.64 87.78L79.54 88.31C79.07 88.57 78.7 89.22 78.7 89.76C78.7 90.02 78.79 90.21 78.94 90.3Z" fill="#8FC2BE" fill-opacity="1.000000" fill-rule="nonzero"></path>
&#x9;&#x9;&#x9;<path id="path" d="M88.44 83.16C88.91 82.89 89.29 83.11 89.29 83.64C89.29 84.18 88.91 84.83 88.45 85.1L79.54 90.24C79.08 90.51 78.7 90.29 78.7 89.76C78.7 89.22 79.07 88.57 79.54 88.3L88.44 83.16Z" fill="#B8D6D3" fill-opacity="1.000000" fill-rule="nonzero"></path>
&#x9;&#x9;&#x9;<path id="path" d="M73.29 115.32L74.19 115.84C73.37 115.36 72.24 115.43 70.99 116.15L70.09 115.63C71.34 114.91 72.47 114.84 73.29 115.32Z" fill="#B8D6D3" fill-opacity="1.000000" fill-rule="nonzero"></path>
&#x9;&#x9;&#x9;<path id="path" d="M67.82 126.81L66.92 126.28C66.12 125.81 65.61 124.82 65.61 123.4C65.6 120.54 67.61 117.07 70.09 115.63L70.99 116.15C68.51 117.59 66.5 121.07 66.51 123.92C66.51 125.34 67.01 126.34 67.82 126.81Z" fill="#B8D6D3" fill-opacity="1.000000" fill-rule="nonzero"></path>
&#x9;&#x9;&#x9;<path id="path" d="M70.99 116.15C73.48 114.72 75.5 115.87 75.51 118.72C75.51 121.58 73.51 125.06 71.02 126.49C68.54 127.93 66.52 126.77 66.51 123.92C66.5 121.06 68.51 117.59 70.99 116.15Z" fill="#FFFFFF" fill-opacity="1.000000" fill-rule="nonzero"></path>
&#x9;&#x9;&#x9;<path id="path" d="M88.21 109.87L89.11 110.39C88.96 110.3 88.74 110.32 88.51 110.45L87.61 109.93C87.85 109.8 88.06 109.78 88.21 109.87Z" fill="#B8D6D3" fill-opacity="1.000000" fill-rule="nonzero"></path>
&#x9;&#x9;&#x9;<path id="path" d="M79.6 115.59L78.71 115.07L87.61 109.93L88.51 110.45L79.6 115.59Z" fill="#B8D6D3" fill-opacity="1.000000" fill-rule="nonzero"></path>
&#x9;&#x9;&#x9;<path id="path" d="M79.01 117.59L78.12 117.07C77.96 116.98 77.87 116.79 77.87 116.53C77.87 115.99 78.25 115.34 78.71 115.07L79.61 115.59C79.14 115.86 78.77 116.51 78.77 117.05C78.77 117.31 78.86 117.5 79.01 117.59Z" fill="#B8D6D3" fill-opacity="1.000000" fill-rule="nonzero"></path>
&#x9;&#x9;&#x9;<path id="path" d="M88.51 110.45C88.98 110.18 89.35 110.4 89.35 110.93C89.36 111.47 88.98 112.12 88.51 112.39L79.61 117.53C79.14 117.8 78.77 117.58 78.76 117.05C78.76 116.51 79.14 115.86 79.6 115.59L88.51 110.45Z" fill="#FFFFFF" fill-opacity="1.000000" fill-rule="nonzero"></path>
&#x9;&#x9;&#x9;<path id="path" d="M88.21 105.47L89.1 105.99C88.95 105.9 88.74 105.91 88.5 106.05L87.6 105.52C87.84 105.39 88.05 105.38 88.21 105.47Z" fill="#B8D6D3" fill-opacity="1.000000" fill-rule="nonzero"></path>
&#x9;&#x9;&#x9;<path id="path" d="M79.59 111.18L78.7 110.66L87.6 105.52L88.5 106.04L79.59 111.18Z" fill="#B8D6D3" fill-opacity="1.000000" fill-rule="nonzero"></path>
&#x9;&#x9;&#x9;<path id="path" d="M79 113.18L78.1 112.66C77.95 112.57 77.86 112.38 77.86 112.12C77.86 111.58 78.23 110.93 78.7 110.66L79.59 111.19C79.13 111.45 78.75 112.11 78.75 112.64C78.75 112.91 78.85 113.09 79 113.18Z" fill="#B8D6D3" fill-opacity="1.000000" fill-rule="nonzero"></path>
&#x9;&#x9;&#x9;<path id="path" d="M88.5 106.05C88.97 105.78 89.34 105.99 89.35 106.53C89.35 107.06 88.97 107.71 88.51 107.98L79.6 113.12C79.14 113.39 78.76 113.17 78.76 112.64C78.75 112.11 79.13 111.46 79.6 111.19L88.5 106.05Z" fill="#FFFFFF" fill-opacity="1.000000" fill-rule="nonzero"></path>
&#x9;&#x9;&#x9;<path id="path" d="" fill="#000000" fill-opacity="0" fill-rule="nonzero"></path>
&#x9;&#x9;&#x9;<path id="path" d="M105.21 54.84C103.42 59.09 105.21 66.82 109.77 64.36C125.19 56.05 112.05 72.28 126.67 63.42" stroke="#B8D6D3" stroke-opacity="1.000000" stroke-width="0.800000"></path>
&#x9;&#x9;</g>
&#x9;</g>
</svg>