<svg width="195.000000" height="140.000000" viewBox="0 0 195 140" fill="none" xmlns="http://www.w3.org/2000/svg" xmlns:xlink="http://www.w3.org/1999/xlink">
&#x9;<desc>
&#x9;&#x9;&#x9;Created with Pixso.
&#x9;</desc>
&#x9;<defs>
&#x9;&#x9;<clipPath id="clip201_7561">
&#x9;&#x9;&#x9;<rect id="sales-projects" width="195.000000" height="140.000000" fill="white" fill-opacity="0"></rect>
&#x9;&#x9;</clipPath>
&#x9;</defs>
&#x9;<g clip-path="url(#clip201_7561)">
&#x9;&#x9;<path id="Vector" d="M104.05 38.75C106.82 40.35 109.06 39.54 109.06 36.96L109.06 33.21C109.06 29.25 112.5 28.03 116.74 30.47L156.15 53.23C160.76 55.89 164.5 61.54 164.5 65.85L164.5 130.44C164.5 135.29 160.3 136.76 155.15 133.78L76.66 88.46C70.58 84.95 65.65 77.49 65.65 71.8L65.65 21.88C65.65 18.97 68.19 18 71.33 19.85L104.05 38.75Z" fill="#A3CCC9" fill-opacity="1.000000" fill-rule="nonzero"></path>
&#x9;&#x9;<path id="Vector" d="M160.08 115.67C157.17 90.94 155.4 66.1 160.08 43.69L82 4.25C82 4.25 90.95 92.08 90.95 90.86C90.95 89.64 160.08 115.67 160.08 115.67Z" fill="#B8D6D3" fill-opacity="1.000000" fill-rule="nonzero"></path>
&#x9;&#x9;<path id="Vector" d="M155.81 107.39C152.81 82.67 150.96 57.84 155.54 35.41L77.92 9.54C77.92 9.54 86.58 84.06 86.58 82.84C86.58 81.61 155.81 107.39 155.81 107.39Z" fill="#F0F9F8" fill-opacity="1.000000" fill-rule="nonzero"></path>
&#x9;&#x9;<path id="Vector" d="M93.19 46.56C95.95 48.16 97.84 47.6 97.41 45.32L96.79 42.01C96.14 38.51 99.04 37.65 103.28 40.07L142.68 62.83C147.29 65.5 151.62 70.74 152.33 74.54L163.05 131.59C163.85 135.85 160.31 136.88 155.15 133.91L76.66 88.59C70.58 85.08 64.89 78.16 63.94 73.13L55.66 29.04C55.17 26.45 57.32 25.82 60.45 27.63L93.19 46.56Z" fill="#B8D6D3" fill-opacity="1.000000" fill-rule="nonzero"></path>
&#x9;&#x9;<path id="Vector" d="M92.02 47.5C94.79 49.09 96.66 48.57 96.2 46.32L95.52 43.07C94.81 39.61 97.67 38.81 101.91 41.25L141.32 64C145.93 66.67 150.29 71.86 151.07 75.65L162.65 131.82C163.53 136.01 160.04 137 154.89 134.02L76.39 88.68C70.31 85.16 64.55 78.3 63.53 73.36L54.57 29.93C54.05 27.39 56.17 26.79 59.3 28.6L92.02 47.5Z" fill="#E0F3F1" fill-opacity="1.000000" fill-rule="nonzero"></path>
&#x9;&#x9;<g opacity="0.300000" style="mix-blend-mode:multiply">
&#x9;&#x9;&#x9;<path id="Vector" d="M82.35 79.06C109.88 85.53 135.71 81.92 149.02 71.24C149.97 72.56 150.66 74.04 151.07 75.62L162.65 131.79C163.53 135.98 160.04 136.97 154.89 133.99L76.39 88.68C70.31 85.16 64.55 78.3 63.53 73.36L63.45 72.98C69.57 75.52 75.89 77.55 82.35 79.06Z" fill="#E0F3F1" fill-opacity="1.000000" fill-rule="nonzero"></path>
&#x9;&#x9;</g>
&#x9;</g>
</svg>