<svg width="195.000000" height="140.000000" viewBox="0 0 195 140" fill="none" xmlns="http://www.w3.org/2000/svg" xmlns:xlink="http://www.w3.org/1999/xlink">
&#x9;<desc>
&#x9;&#x9;&#x9;Created with Pixso.
&#x9;</desc>
&#x9;<defs>
&#x9;&#x9;<clipPath id="clip201_8301">
&#x9;&#x9;&#x9;<rect id="ckp-pipeline" width="195.000000" height="140.000000" fill="white" fill-opacity="0"></rect>
&#x9;&#x9;</clipPath>
&#x9;</defs>
&#x9;<g clip-path="url(#clip201_8301)">
&#x9;&#x9;<path id="path" d="M92.35 34.12C94.84 35.56 96.87 34.84 96.87 32.51L96.87 29.13C96.87 25.55 99.96 24.45 103.8 26.65L139.35 47.19C143.51 49.59 146.88 54.69 146.88 58.57L146.88 116.85C146.88 121.22 143.1 122.55 138.44 119.86L67.64 78.94C62.15 75.77 57.7 69.04 57.7 63.91L57.7 18.91C57.7 16.28 60 15.41 62.82 17.07L92.35 34.12Z" fill="#A3CCC9" fill-opacity="1.000000" fill-rule="nonzero"></path>
&#x9;&#x9;<path id="path" d="M142.89 103.52C140.26 81.2 138.67 58.8 142.89 38.58L72.45 3C72.45 3 80.52 82.24 80.52 81.13C80.52 80.03 142.89 103.52 142.89 103.52Z" fill="#C3DFDC" fill-opacity="1.000000" fill-rule="nonzero"></path>
&#x9;&#x9;<path id="path" d="M139.04 96.05C136.35 73.75 134.66 51.35 138.81 31.12L68.78 7.76C68.78 7.76 76.59 75 76.59 73.89C76.59 72.79 139.04 96.05 139.04 96.05Z" fill="#F0F9F8" fill-opacity="1.000000" fill-rule="nonzero"></path>
&#x9;&#x9;<path id="path" d="M82.54 41.17C85.03 42.61 86.75 42.11 86.36 40.05L85.8 37.06C85.2 33.9 87.83 33.14 91.65 35.31L127.21 55.84C131.37 58.24 135.26 62.97 135.91 66.4L145.54 117.88C146.26 121.72 143.07 122.65 138.41 119.96L67.64 79.11C62.15 75.94 57.02 69.7 56.16 65.17L48.69 25.38C48.25 23.06 50.19 22.49 53.02 24.12L82.54 41.17Z" fill="#B8D6D3" fill-opacity="1.000000" fill-rule="nonzero"></path>
&#x9;&#x9;<path id="path" d="M81.5 42.02C83.99 43.46 85.67 42.98 85.25 40.95L84.65 38.02C84.01 34.9 86.59 34.17 90.41 36.38L125.97 56.91C130.13 59.31 134.07 64 134.72 67.42L145.17 118.1C145.95 121.89 142.81 122.77 138.17 120.08L67.37 79.2C61.88 76.03 56.68 69.84 55.76 65.38L47.67 26.2C47.21 23.91 49.12 23.36 51.95 25L81.5 42.02Z" fill="#E0F3F1" fill-opacity="1.000000" fill-rule="nonzero"></path>
&#x9;&#x9;<g opacity="0.300000" style="mix-blend-mode:multiply">
&#x9;&#x9;&#x9;<path id="path" d="M72.76 70.5C97.6 76.33 120.9 73.07 132.91 63.43C133.77 64.62 134.4 65.96 134.77 67.38L145.22 118.06C146 121.85 142.86 122.74 138.22 120.05L67.41 79.16C61.92 75.99 56.72 69.81 55.81 65.34L55.74 65.01C61.25 67.29 66.95 69.13 72.76 70.5Z" fill="#E0F3F1" fill-opacity="1.000000" fill-rule="nonzero"></path>
&#x9;&#x9;</g>
&#x9;&#x9;<path id="path" d="M84.41 40.34C86.91 41.79 88.93 41.07 88.93 38.73L88.93 35.35C88.93 31.78 92.03 30.67 95.86 32.89L131.41 53.41C135.57 55.82 138.94 60.91 138.94 64.79L138.94 123.07C138.94 127.45 135.16 128.77 130.51 126.08L59.7 85.19C54.21 82.03 49.76 75.29 49.76 70.16L49.76 25.13C49.76 22.51 52.05 21.63 54.89 23.3L84.41 40.34Z" fill="#A3CCC9" fill-opacity="1.000000" fill-rule="nonzero"></path>
&#x9;&#x9;<path id="path" d="M134.92 109.74C132.29 87.44 130.69 65.03 134.92 44.81L64.48 9.22C64.48 9.22 72.55 88.47 72.55 87.37C72.55 86.26 134.92 109.74 134.92 109.74Z" fill="#C3DFDC" fill-opacity="1.000000" fill-rule="nonzero"></path>
&#x9;&#x9;<path id="path" d="M131.07 102.27C128.36 79.98 126.69 57.58 130.82 37.34L60.78 13.99C60.78 13.99 68.66 81.22 68.66 80.13C68.66 79.03 131.07 102.27 131.07 102.27Z" fill="#F0F9F8" fill-opacity="1.000000" fill-rule="nonzero"></path>
&#x9;&#x9;<path id="path" d="M74.56 47.43C77.06 48.86 78.77 48.36 78.38 46.3L77.82 43.32C77.23 40.16 79.85 39.39 83.68 41.57L119.22 62.1C123.39 64.49 127.28 69.23 127.92 72.66L137.55 124.13C138.27 127.97 135.08 128.91 130.43 126.22L59.62 85.33C54.14 82.17 49 75.93 48.14 71.39L40.66 31.61C40.23 29.27 42.16 28.7 45 30.34L74.56 47.43Z" fill="#B8D6D3" fill-opacity="1.000000" fill-rule="nonzero"></path>
&#x9;&#x9;<path id="path" d="M73.51 48.25C76.02 49.68 77.7 49.2 77.28 47.18L76.67 44.24C76.04 41.13 78.61 40.41 82.43 42.61L117.99 63.18C122.15 65.59 126.1 70.27 126.79 73.68L137.25 124.37C138.03 128.16 134.88 129.04 130.24 126.35L59.44 85.47C53.94 82.3 48.75 76.12 47.83 71.65L39.77 32.4C39.3 30.09 41.21 29.56 44.03 31.19L73.51 48.25Z" fill="#E0F3F1" fill-opacity="1.000000" fill-rule="nonzero"></path>
&#x9;&#x9;<g opacity="0.300000" style="mix-blend-mode:multiply">
&#x9;&#x9;&#x9;<path id="path" d="M64.79 76.72C89.63 82.56 112.93 79.3 124.94 69.66C125.8 70.84 126.43 72.18 126.79 73.61L137.25 124.3C138.02 128.08 134.88 128.96 130.24 126.27L59.44 85.39C53.94 82.22 48.75 76.04 47.83 71.58L47.76 71.23C53.28 73.53 58.97 75.36 64.79 76.72Z" fill="#E0F3F1" fill-opacity="1.000000" fill-rule="nonzero"></path>
&#x9;&#x9;</g>
&#x9;&#x9;<path id="path" d="M74.55 49.3C77.04 50.74 79.06 50.02 79.06 47.69L79.06 44.31C79.06 40.73 82.16 39.63 85.99 41.83L121.55 62.37C125.71 64.76 129.08 69.87 129.08 73.75L129.08 132.02C129.08 136.4 125.3 137.73 120.64 135.03L49.84 94.15C44.35 90.98 39.9 84.25 39.9 79.12L39.9 34.09C39.9 31.46 42.19 30.58 45.02 32.25L74.55 49.3Z" fill="#A3CCC9" fill-opacity="1.000000" fill-rule="nonzero"></path>
&#x9;&#x9;<path id="path" d="M125.09 118.69C122.46 96.38 120.87 73.98 125.09 53.76L54.65 18.17C54.65 18.17 62.72 97.41 62.72 96.31C62.72 95.21 125.09 118.69 125.09 118.69Z" fill="#C3DFDC" fill-opacity="1.000000" fill-rule="nonzero"></path>
&#x9;&#x9;<path id="path" d="M121.24 111.23C118.54 88.93 116.86 66.53 121 46.3L50.98 22.94C50.98 22.94 58.79 90.17 58.79 89.07C58.79 87.97 121.24 111.23 121.24 111.23Z" fill="#F0F9F8" fill-opacity="1.000000" fill-rule="nonzero"></path>
&#x9;&#x9;<path id="path" d="M64.74 56.34C67.23 57.79 68.95 57.29 68.55 55.22L67.99 52.24C67.4 49.08 70.02 48.32 73.85 50.49L109.4 71.06C113.56 73.47 117.45 78.19 118.1 81.62L127.73 133.09C128.46 136.94 125.26 137.87 120.61 135.18L49.84 94.29C44.35 91.12 39.21 84.88 38.35 80.34L30.89 40.56C30.45 38.23 32.38 37.66 35.21 39.29L64.74 56.34Z" fill="#B8D6D3" fill-opacity="1.000000" fill-rule="nonzero"></path>
&#x9;&#x9;<path id="path" d="M63.69 57.19C66.19 58.64 67.87 58.16 67.45 56.13L66.84 53.19C66.21 50.08 68.79 49.35 72.61 51.56L108.17 72.09C112.33 74.49 116.27 79.18 116.96 82.6L127.42 133.28C128.19 137.07 125.05 137.95 120.41 135.26L49.59 94.34C44.15 91.19 38.9 84.98 38.02 80.52L29.94 41.34C29.47 39.05 31.38 38.51 34.2 40.14L63.69 57.19Z" fill="#E0F3F1" fill-opacity="1.000000" fill-rule="nonzero"></path>
&#x9;&#x9;<g opacity="0.300000" style="mix-blend-mode:multiply">
&#x9;&#x9;&#x9;<path id="path" d="M54.96 85.68C79.8 91.51 103.1 88.25 115.11 78.61C115.97 79.8 116.6 81.14 116.97 82.56L127.42 133.24C128.2 137.03 125.05 137.92 120.41 135.23L49.59 94.34C44.15 91.19 38.9 84.99 38.02 80.52L37.95 80.19C43.46 82.47 49.15 84.31 54.96 85.68Z" fill="#C3DFDC" fill-opacity="1.000000" fill-rule="nonzero"></path>
&#x9;&#x9;</g>
&#x9;&#x9;<path id="path" d="" fill="#000000" fill-opacity="0" fill-rule="nonzero"></path>
&#x9;&#x9;<path id="path" d="M45.91 59.26L87.63 82.65C88.66 83.23 89.38 84.24 89.6 85.4L90.98 92.77C91.14 93.6 90.26 94.24 89.52 93.83L58.41 76.82C57.65 76.4 56.75 77.09 56.96 77.93L59 86.22C59.26 87.28 59.95 88.19 60.91 88.74L102.46 112.36" stroke="#A3CCC9" stroke-opacity="1.000000" stroke-width="1.000000"></path>
&#x9;&#x9;<path id="path" d="M109.12 119.99L100.14 114.47C98.98 113.76 98.16 112.61 97.86 111.28L95.85 102.06C95.66 101.2 96.59 100.54 97.34 100.99L106.17 106.33C107.33 107.03 108.15 108.17 108.46 109.49L110.62 118.91C110.82 119.77 109.88 120.45 109.12 119.99Z" fill="#A3CCC9" fill-opacity="1.000000" fill-rule="nonzero"></path>
&#x9;&#x9;<path id="path" d="M96.25 101.03L95.11 102.14L105.87 118.08L109.19 120.99L110.43 119.75L108.98 114.09L107.97 110.16L107.37 108L102.7 104.56L96.25 101.03Z" fill="#A3CCC9" fill-opacity="1.000000" fill-rule="nonzero"></path>
&#x9;&#x9;<path id="path" d="M108.12 120.99L99.13 115.47C97.98 114.76 97.16 113.61 96.86 112.28L94.85 103.06C94.66 102.2 95.59 101.54 96.34 101.99L105.17 107.33C106.33 108.03 107.15 109.17 107.46 110.49L109.62 119.91C109.82 120.77 108.88 121.45 108.12 120.99Z" fill="#F0F9F8" fill-opacity="1.000000" fill-rule="nonzero"></path>
&#x9;&#x9;<path id="path" d="M106.52 118.05L100.41 114.31C99.48 113.74 98.82 112.81 98.59 111.75L97.22 105.48C97.12 105.05 97.59 104.71 97.96 104.94L103.96 108.57C104.89 109.13 105.55 110.04 105.79 111.1L107.27 117.52C107.37 117.95 106.9 118.29 106.52 118.05Z" fill="#D0EAE7" fill-opacity="1.000000" fill-rule="nonzero"></path>
&#x9;&#x9;<path id="path" d="M53.7 70.1L44.72 64.59C43.56 63.87 42.74 62.72 42.45 61.39L40.43 52.17C40.24 51.31 41.17 50.65 41.92 51.1L50.75 56.44C51.91 57.14 52.73 58.28 53.04 59.6L55.2 69.02C55.4 69.88 54.46 70.56 53.7 70.1Z" fill="#A3CCC9" fill-opacity="1.000000" fill-rule="nonzero"></path>
&#x9;&#x9;<path id="path" d="M40.83 51.14L39.69 52.25L50.45 68.19L53.77 71.1L55.01 69.86L53.57 64.2L52.55 60.27L51.95 58.11L47.28 54.67L40.83 51.14Z" fill="#A3CCC9" fill-opacity="1.000000" fill-rule="nonzero"></path>
&#x9;&#x9;<path id="path" d="M52.7 71.1L43.72 65.59C42.56 64.87 41.74 63.72 41.45 62.39L39.43 53.17C39.24 52.31 40.17 51.65 40.92 52.1L49.75 57.44C50.91 58.14 51.73 59.28 52.04 60.6L54.2 70.02C54.4 70.88 53.46 71.56 52.7 71.1Z" fill="#F0F9F8" fill-opacity="1.000000" fill-rule="nonzero"></path>
&#x9;&#x9;<path id="path" d="M51.1 68.16L44.99 64.42C44.06 63.85 43.4 62.93 43.17 61.86L41.8 55.59C41.7 55.16 42.17 54.83 42.55 55.05L48.55 58.68C49.47 59.24 50.13 60.15 50.37 61.21L51.85 67.63C51.95 68.06 51.48 68.4 51.1 68.16Z" fill="#D0EAE7" fill-opacity="1.000000" fill-rule="nonzero"></path>
&#x9;&#x9;<path id="path" d="M79.26 94.05L70.27 88.54C69.11 87.82 68.29 86.67 68 85.34L65.98 76.12C65.79 75.26 66.72 74.6 67.47 75.05L76.3 80.39C77.46 81.09 78.28 82.23 78.59 83.55L80.75 92.97C80.95 93.83 80.01 94.51 79.26 94.05Z" fill="#A3CCC9" fill-opacity="1.000000" fill-rule="nonzero"></path>
&#x9;&#x9;<path id="path" d="M66.39 75.09L65.24 76.2L76 92.14L79.32 95.05L80.56 93.81L79.12 88.15L78.11 84.22L77.5 82.06L72.83 78.62L66.39 75.09Z" fill="#A3CCC9" fill-opacity="1.000000" fill-rule="nonzero"></path>
&#x9;&#x9;<path id="path" d="M78.26 95.05L69.27 89.54C68.11 88.82 67.29 87.67 67 86.34L64.98 77.12C64.79 76.26 65.72 75.6 66.47 76.05L75.3 81.39C76.46 82.09 77.28 83.23 77.59 84.55L79.75 93.97C79.95 94.83 79.01 95.51 78.26 95.05Z" fill="#F0F9F8" fill-opacity="1.000000" fill-rule="nonzero"></path>
&#x9;&#x9;<path id="path" d="M76.65 92.11L70.54 88.37C69.61 87.8 68.96 86.88 68.72 85.81L67.35 79.54C67.26 79.11 67.72 78.78 68.1 79L74.1 82.63C75.02 83.19 75.68 84.1 75.92 85.16L77.4 91.58C77.5 92.01 77.03 92.35 76.65 92.11Z" fill="#D0EAE7" fill-opacity="1.000000" fill-rule="nonzero"></path>
&#x9;</g>
</svg>