<svg width="195.000000" height="140.000000" viewBox="0 0 195 140" fill="none" xmlns="http://www.w3.org/2000/svg" xmlns:xlink="http://www.w3.org/1999/xlink">
&#x9;<desc>
&#x9;&#x9;&#x9;Created with Pixso.
&#x9;</desc>
&#x9;<defs>
&#x9;&#x9;<clipPath id="clip230_4802">
&#x9;&#x9;&#x9;<rect id="clients" width="195.000000" height="140.000000" fill="white" fill-opacity="0"></rect>
&#x9;&#x9;</clipPath>
&#x9;</defs>
&#x9;<g clip-path="url(#clip230_4802)">
&#x9;&#x9;<path id="Vector" d="M23 88.41C50.78 74.27 64.16 67.22 86.38 52L171 100.58L107.61 137L23 88.41Z" fill="#F0F9F8" fill-opacity="1.000000" fill-rule="nonzero"></path>
&#x9;&#x9;<g opacity="0.400000">
&#x9;&#x9;&#x9;<g opacity="0.400000">
&#x9;&#x9;&#x9;&#x9;<path id="Vector" d="M31.53 89.31L84.01 58.84L85.32 59.73L32.83 90.18L31.53 89.31Z" fill="#A3CCC9" fill-opacity="1.000000" fill-rule="nonzero"></path>
&#x9;&#x9;&#x9;</g>
&#x9;&#x9;&#x9;<g opacity="0.400000">
&#x9;&#x9;&#x9;&#x9;<path id="Vector" d="M73.49 69.34L87.93 60.96L89.23 61.84L74.79 70.22L73.49 69.34Z" fill="#A3CCC9" fill-opacity="1.000000" fill-rule="nonzero"></path>
&#x9;&#x9;&#x9;</g>
&#x9;&#x9;&#x9;<g opacity="0.400000">
&#x9;&#x9;&#x9;&#x9;<path id="Vector" d="M68.07 74.12L53.72 82.44L52.41 81.57L66.76 73.24L68.07 74.12Z" fill="#A3CCC9" fill-opacity="1.000000" fill-rule="nonzero"></path>
&#x9;&#x9;&#x9;</g>
&#x9;&#x9;&#x9;<g opacity="0.400000">
&#x9;&#x9;&#x9;&#x9;<path id="Vector" d="M45.69 85.46L47 86.35L36.74 92.3L35.44 91.41L45.69 85.46Z" fill="#A3CCC9" fill-opacity="1.000000" fill-rule="nonzero"></path>
&#x9;&#x9;&#x9;</g>
&#x9;&#x9;&#x9;<g opacity="0.400000">
&#x9;&#x9;&#x9;&#x9;<path id="Vector" d="M60.45 81.24L90.81 63.64L92.11 64.51L61.76 82.11L60.45 81.24Z" fill="#A3CCC9" fill-opacity="1.000000" fill-rule="nonzero"></path>
&#x9;&#x9;&#x9;</g>
&#x9;&#x9;&#x9;<g opacity="0.400000">
&#x9;&#x9;&#x9;&#x9;<path id="Vector" d="M46.24 89.49L47.54 90.36L39.62 94.96L38.32 94.08L46.24 89.49Z" fill="#A3CCC9" fill-opacity="1.000000" fill-rule="nonzero"></path>
&#x9;&#x9;&#x9;</g>
&#x9;&#x9;&#x9;<g opacity="0.400000">
&#x9;&#x9;&#x9;&#x9;<path id="Vector" d="M83.55 72.36L94.64 65.92L95.94 66.81L84.85 73.24L83.55 72.36Z" fill="#A3CCC9" fill-opacity="1.000000" fill-rule="nonzero"></path>
&#x9;&#x9;&#x9;</g>
&#x9;&#x9;&#x9;<g opacity="0.400000">
&#x9;&#x9;&#x9;&#x9;<path id="Vector" d="M73.63 78.12L74.93 79L43.45 97.26L42.15 96.38L73.63 78.12Z" fill="#A3CCC9" fill-opacity="1.000000" fill-rule="nonzero"></path>
&#x9;&#x9;&#x9;</g>
&#x9;&#x9;&#x9;<g opacity="0.400000">
&#x9;&#x9;&#x9;&#x9;<path id="Vector" d="M47.56 98.3L100.04 67.83L101.35 68.71L48.85 99.17L47.56 98.3Z" fill="#A3CCC9" fill-opacity="1.000000" fill-rule="nonzero"></path>
&#x9;&#x9;&#x9;</g>
&#x9;&#x9;&#x9;<g opacity="0.400000">
&#x9;&#x9;&#x9;&#x9;<path id="Vector" d="M89.52 78.33L103.96 69.95L105.26 70.83L90.82 79.2L89.52 78.33Z" fill="#A3CCC9" fill-opacity="1.000000" fill-rule="nonzero"></path>
&#x9;&#x9;&#x9;</g>
&#x9;&#x9;&#x9;<g opacity="0.400000">
&#x9;&#x9;&#x9;&#x9;<path id="Vector" d="M84.1 83.1L69.75 91.43L68.45 90.56L82.8 82.23L84.1 83.1Z" fill="#A3CCC9" fill-opacity="1.000000" fill-rule="nonzero"></path>
&#x9;&#x9;&#x9;</g>
&#x9;&#x9;&#x9;<g opacity="0.400000">
&#x9;&#x9;&#x9;&#x9;<path id="Vector" d="M61.72 94.45L63.03 95.34L52.77 101.28L51.47 100.4L61.72 94.45Z" fill="#A3CCC9" fill-opacity="1.000000" fill-rule="nonzero"></path>
&#x9;&#x9;&#x9;</g>
&#x9;&#x9;&#x9;<g opacity="0.400000">
&#x9;&#x9;&#x9;&#x9;<path id="Vector" d="M76.49 90.23L106.84 72.62L108.15 73.5L77.79 91.1L76.49 90.23Z" fill="#A3CCC9" fill-opacity="1.000000" fill-rule="nonzero"></path>
&#x9;&#x9;&#x9;</g>
&#x9;&#x9;&#x9;<g opacity="0.400000">
&#x9;&#x9;&#x9;&#x9;<path id="Vector" d="M62.27 98.48L63.58 99.35L55.65 103.95L54.35 103.07L62.27 98.48Z" fill="#A3CCC9" fill-opacity="1.000000" fill-rule="nonzero"></path>
&#x9;&#x9;&#x9;</g>
&#x9;&#x9;&#x9;<g opacity="0.400000">
&#x9;&#x9;&#x9;&#x9;<path id="Vector" d="M99.58 81.35L110.67 74.91L111.98 75.8L100.88 82.23L99.58 81.35Z" fill="#A3CCC9" fill-opacity="1.000000" fill-rule="nonzero"></path>
&#x9;&#x9;&#x9;</g>
&#x9;&#x9;&#x9;<g opacity="0.400000">
&#x9;&#x9;&#x9;&#x9;<path id="Vector" d="M89.66 87.11L90.96 87.99L59.48 106.25L58.18 105.37L89.66 87.11Z" fill="#A3CCC9" fill-opacity="1.000000" fill-rule="nonzero"></path>
&#x9;&#x9;&#x9;</g>
&#x9;&#x9;&#x9;<g opacity="0.400000">
&#x9;&#x9;&#x9;&#x9;<path id="Vector" d="M91.06 98.39L121.16 80.12L122.48 80.97L92.39 99.23L91.06 98.39Z" fill="#A3CCC9" fill-opacity="1.000000" fill-rule="nonzero"></path>
&#x9;&#x9;&#x9;</g>
&#x9;&#x9;&#x9;<g opacity="0.400000">
&#x9;&#x9;&#x9;&#x9;<path id="Vector" d="M76.96 106.93L78.29 107.77L70.42 112.55L69.11 111.7L76.96 106.93Z" fill="#A3CCC9" fill-opacity="1.000000" fill-rule="nonzero"></path>
&#x9;&#x9;&#x9;</g>
&#x9;&#x9;&#x9;<g opacity="0.400000">
&#x9;&#x9;&#x9;&#x9;<path id="Vector" d="M114.06 88.99L125.04 82.32L126.38 83.16L115.38 89.84L114.06 88.99Z" fill="#A3CCC9" fill-opacity="1.000000" fill-rule="nonzero"></path>
&#x9;&#x9;&#x9;</g>
&#x9;&#x9;&#x9;<g opacity="0.400000">
&#x9;&#x9;&#x9;&#x9;<path id="Vector" d="M104.21 94.96L105.54 95.8L74.32 114.74L73 113.9L104.21 94.96Z" fill="#A3CCC9" fill-opacity="1.000000" fill-rule="nonzero"></path>
&#x9;&#x9;&#x9;</g>
&#x9;&#x9;&#x9;<g opacity="0.400000">
&#x9;&#x9;&#x9;&#x9;<path id="Vector" d="M78.46 115.67L130.51 84.09L131.85 84.94L79.79 116.51L78.46 115.67Z" fill="#A3CCC9" fill-opacity="1.000000" fill-rule="nonzero"></path>
&#x9;&#x9;&#x9;</g>
&#x9;&#x9;&#x9;<g opacity="0.400000">
&#x9;&#x9;&#x9;&#x9;<path id="Vector" d="M112.26 108.6L142.61 91L143.91 91.88L113.57 109.49L112.26 108.6Z" fill="#A3CCC9" fill-opacity="1.000000" fill-rule="nonzero"></path>
&#x9;&#x9;&#x9;</g>
&#x9;&#x9;&#x9;<g opacity="0.400000">
&#x9;&#x9;&#x9;&#x9;<path id="Vector" d="M98.05 116.85L99.35 117.74L91.42 122.34L90.11 121.45L98.05 116.85Z" fill="#A3CCC9" fill-opacity="1.000000" fill-rule="nonzero"></path>
&#x9;&#x9;&#x9;</g>
&#x9;&#x9;&#x9;<g opacity="0.400000">
&#x9;&#x9;&#x9;&#x9;<path id="Vector" d="M135.36 99.73L146.44 93.3L147.75 94.18L136.65 100.62L135.36 99.73Z" fill="#A3CCC9" fill-opacity="1.000000" fill-rule="nonzero"></path>
&#x9;&#x9;&#x9;</g>
&#x9;&#x9;&#x9;<g opacity="0.400000">
&#x9;&#x9;&#x9;&#x9;<path id="Vector" d="M125.43 105.49L126.74 106.36L95.25 124.63L93.95 123.75L125.43 105.49Z" fill="#A3CCC9" fill-opacity="1.000000" fill-rule="nonzero"></path>
&#x9;&#x9;&#x9;</g>
&#x9;&#x9;&#x9;<g opacity="0.400000">
&#x9;&#x9;&#x9;&#x9;<path id="Vector" d="M126.83 116.76L156.92 98.5L158.26 99.35L128.15 117.61L126.83 116.76Z" fill="#A3CCC9" fill-opacity="1.000000" fill-rule="nonzero"></path>
&#x9;&#x9;&#x9;</g>
&#x9;&#x9;&#x9;<g opacity="0.400000">
&#x9;&#x9;&#x9;&#x9;<path id="Vector" d="M112.74 125.32L114.07 126.16L106.2 130.93L104.88 130.08L112.74 125.32Z" fill="#A3CCC9" fill-opacity="1.000000" fill-rule="nonzero"></path>
&#x9;&#x9;&#x9;</g>
&#x9;&#x9;&#x9;<g opacity="0.400000">
&#x9;&#x9;&#x9;&#x9;<path id="Vector" d="M120.17 94.79L134.49 86.1L135.83 86.95L121.5 95.63L120.17 94.79Z" fill="#A3CCC9" fill-opacity="1.000000" fill-rule="nonzero"></path>
&#x9;&#x9;&#x9;</g>
&#x9;&#x9;&#x9;<g opacity="0.400000">
&#x9;&#x9;&#x9;&#x9;<path id="Vector" d="M114.83 99.68L100.61 108.31L99.27 107.47L113.51 98.83L114.83 99.68Z" fill="#A3CCC9" fill-opacity="1.000000" fill-rule="nonzero"></path>
&#x9;&#x9;&#x9;</g>
&#x9;&#x9;&#x9;<g opacity="0.400000">
&#x9;&#x9;&#x9;&#x9;<path id="Vector" d="M92.61 111.51L93.94 112.35L83.77 118.53L82.44 117.67L92.61 111.51Z" fill="#A3CCC9" fill-opacity="1.000000" fill-rule="nonzero"></path>
&#x9;&#x9;&#x9;</g>
&#x9;&#x9;&#x9;<g opacity="0.400000">
&#x9;&#x9;&#x9;&#x9;<path id="Vector" d="M107.34 106.95L137.44 88.69L138.76 89.53L108.67 107.8L107.34 106.95Z" fill="#A3CCC9" fill-opacity="1.000000" fill-rule="nonzero"></path>
&#x9;&#x9;&#x9;</g>
&#x9;&#x9;&#x9;<g opacity="0.400000">
&#x9;&#x9;&#x9;&#x9;<path id="Vector" d="M93.25 115.5L94.57 116.34L86.71 121.11L85.38 120.27L93.25 115.5Z" fill="#A3CCC9" fill-opacity="1.000000" fill-rule="nonzero"></path>
&#x9;&#x9;&#x9;</g>
&#x9;&#x9;</g>
&#x9;&#x9;<path id="Vector" d="M80.63 130.25L136.54 98.19L65.24 57.33L0.08 89.21C31.15 103.55 60.58 117.33 80.63 130.25Z" fill="#D0EAE7" fill-opacity="1.000000" fill-rule="nonzero"></path>
&#x9;&#x9;<path id="Vector" d="M0 89.07L65.52 55C98.72 72.67 125.62 88.59 153 97.92L87.47 132C67.18 118.42 34.66 104.02 0 89.07Z" fill="#F4F9F7" fill-opacity="1.000000" fill-rule="nonzero"></path>
&#x9;&#x9;<g opacity="0.400000">
&#x9;&#x9;&#x9;<g opacity="0.400000">
&#x9;&#x9;&#x9;&#x9;<path id="Vector" d="M13.9 88.35L64.97 60.69L66.32 61.49L15.24 89.14L13.9 88.35Z" fill="#A3CCC9" fill-opacity="1.000000" fill-rule="nonzero"></path>
&#x9;&#x9;&#x9;</g>
&#x9;&#x9;&#x9;<g opacity="0.400000">
&#x9;&#x9;&#x9;&#x9;<path id="Vector" d="M54.92 70.22L68.96 62.6L70.31 63.41L56.25 71.01L54.92 70.22Z" fill="#A3CCC9" fill-opacity="1.000000" fill-rule="nonzero"></path>
&#x9;&#x9;&#x9;</g>
&#x9;&#x9;&#x9;<g opacity="0.400000">
&#x9;&#x9;&#x9;&#x9;<path id="Vector" d="M49.72 74.56L35.76 82.12L34.42 81.32L48.38 73.75L49.72 74.56Z" fill="#A3CCC9" fill-opacity="1.000000" fill-rule="nonzero"></path>
&#x9;&#x9;&#x9;</g>
&#x9;&#x9;&#x9;<g opacity="0.400000">
&#x9;&#x9;&#x9;&#x9;<path id="Vector" d="M27.88 84.86L29.21 85.65L19.24 91.06L17.89 90.26L27.88 84.86Z" fill="#A3CCC9" fill-opacity="1.000000" fill-rule="nonzero"></path>
&#x9;&#x9;&#x9;</g>
&#x9;&#x9;&#x9;<g opacity="0.400000">
&#x9;&#x9;&#x9;&#x9;<path id="Vector" d="M42.42 81.02L71.95 65.04L73.3 65.83L43.76 81.83L42.42 81.02Z" fill="#A3CCC9" fill-opacity="1.000000" fill-rule="nonzero"></path>
&#x9;&#x9;&#x9;</g>
&#x9;&#x9;&#x9;<g opacity="0.400000">
&#x9;&#x9;&#x9;&#x9;<path id="Vector" d="M28.6 88.52L29.93 89.31L22.22 93.49L20.88 92.68L28.6 88.52Z" fill="#A3CCC9" fill-opacity="1.000000" fill-rule="nonzero"></path>
&#x9;&#x9;&#x9;</g>
&#x9;&#x9;&#x9;<g opacity="0.400000">
&#x9;&#x9;&#x9;&#x9;<path id="Vector" d="M65.08 72.96L75.88 67.12L77.21 67.91L66.43 73.77L65.08 72.96Z" fill="#A3CCC9" fill-opacity="1.000000" fill-rule="nonzero"></path>
&#x9;&#x9;&#x9;</g>
&#x9;&#x9;&#x9;<g opacity="0.400000">
&#x9;&#x9;&#x9;&#x9;<path id="Vector" d="M55.43 78.19L56.77 78.98L26.14 95.57L24.81 94.76L55.43 78.19Z" fill="#A3CCC9" fill-opacity="1.000000" fill-rule="nonzero"></path>
&#x9;&#x9;&#x9;</g>
&#x9;&#x9;&#x9;<g opacity="0.400000">
&#x9;&#x9;&#x9;&#x9;<path id="Vector" d="M30.28 96.5L81.35 68.85L82.69 69.66L31.62 97.3L30.28 96.5Z" fill="#A3CCC9" fill-opacity="1.000000" fill-rule="nonzero"></path>
&#x9;&#x9;&#x9;</g>
&#x9;&#x9;&#x9;<g opacity="0.400000">
&#x9;&#x9;&#x9;&#x9;<path id="Vector" d="M71.3 78.37L85.35 70.78L86.69 71.57L72.64 79.18L71.3 78.37Z" fill="#A3CCC9" fill-opacity="1.000000" fill-rule="nonzero"></path>
&#x9;&#x9;&#x9;</g>
&#x9;&#x9;&#x9;<g opacity="0.400000">
&#x9;&#x9;&#x9;&#x9;<path id="Vector" d="M66.1 82.72L52.13 90.27L50.8 89.48L64.75 81.92L66.1 82.72Z" fill="#A3CCC9" fill-opacity="1.000000" fill-rule="nonzero"></path>
&#x9;&#x9;&#x9;</g>
&#x9;&#x9;&#x9;<g opacity="0.400000">
&#x9;&#x9;&#x9;&#x9;<path id="Vector" d="M44.26 93.02L45.6 93.81L35.61 99.21L34.28 98.42L44.26 93.02Z" fill="#A3CCC9" fill-opacity="1.000000" fill-rule="nonzero"></path>
&#x9;&#x9;&#x9;</g>
&#x9;&#x9;&#x9;<g opacity="0.400000">
&#x9;&#x9;&#x9;&#x9;<path id="Vector" d="M58.81 89.18L88.34 73.2L89.67 73.99L60.14 89.98L58.81 89.18Z" fill="#A3CCC9" fill-opacity="1.000000" fill-rule="nonzero"></path>
&#x9;&#x9;&#x9;</g>
&#x9;&#x9;&#x9;<g opacity="0.400000">
&#x9;&#x9;&#x9;&#x9;<path id="Vector" d="M44.98 96.67L46.32 97.47L38.6 101.65L37.27 100.84L44.98 96.67Z" fill="#A3CCC9" fill-opacity="1.000000" fill-rule="nonzero"></path>
&#x9;&#x9;&#x9;</g>
&#x9;&#x9;&#x9;<g opacity="0.400000">
&#x9;&#x9;&#x9;&#x9;<path id="Vector" d="M81.47 81.12L92.26 75.28L93.59 76.07L82.8 81.93L81.47 81.12Z" fill="#A3CCC9" fill-opacity="1.000000" fill-rule="nonzero"></path>
&#x9;&#x9;&#x9;</g>
&#x9;&#x9;&#x9;<g opacity="0.400000">
&#x9;&#x9;&#x9;&#x9;<path id="Vector" d="M71.81 86.34L73.15 87.15L42.53 103.73L41.19 102.93L71.81 86.34Z" fill="#A3CCC9" fill-opacity="1.000000" fill-rule="nonzero"></path>
&#x9;&#x9;&#x9;</g>
&#x9;&#x9;&#x9;<g opacity="0.400000">
&#x9;&#x9;&#x9;&#x9;<path id="Vector" d="M73.7 96.59L102.94 80L104.31 80.78L75.06 97.36L73.7 96.59Z" fill="#A3CCC9" fill-opacity="1.000000" fill-rule="nonzero"></path>
&#x9;&#x9;&#x9;</g>
&#x9;&#x9;&#x9;<g opacity="0.400000">
&#x9;&#x9;&#x9;&#x9;<path id="Vector" d="M60.01 104.35L61.36 105.11L53.72 109.45L52.36 108.68L60.01 104.35Z" fill="#A3CCC9" fill-opacity="1.000000" fill-rule="nonzero"></path>
&#x9;&#x9;&#x9;</g>
&#x9;&#x9;&#x9;<g opacity="0.400000">
&#x9;&#x9;&#x9;&#x9;<path id="Vector" d="M96.24 88.06L106.92 82.01L108.29 82.77L97.6 88.82L96.24 88.06Z" fill="#A3CCC9" fill-opacity="1.000000" fill-rule="nonzero"></path>
&#x9;&#x9;&#x9;</g>
&#x9;&#x9;&#x9;<g opacity="0.400000">
&#x9;&#x9;&#x9;&#x9;<path id="Vector" d="M86.68 93.49L88.04 94.24L57.7 111.44L56.34 110.67L86.68 93.49Z" fill="#A3CCC9" fill-opacity="1.000000" fill-rule="nonzero"></path>
&#x9;&#x9;&#x9;</g>
&#x9;&#x9;&#x9;<g opacity="0.400000">
&#x9;&#x9;&#x9;&#x9;<path id="Vector" d="M61.88 112.28L112.46 83.61L113.81 84.37L63.23 113.05L61.88 112.28Z" fill="#A3CCC9" fill-opacity="1.000000" fill-rule="nonzero"></path>
&#x9;&#x9;&#x9;</g>
&#x9;&#x9;&#x9;<g opacity="0.400000">
&#x9;&#x9;&#x9;&#x9;<path id="Vector" d="M95.29 105.87L124.82 89.89L126.17 90.68L96.63 106.67L95.29 105.87Z" fill="#A3CCC9" fill-opacity="1.000000" fill-rule="nonzero"></path>
&#x9;&#x9;&#x9;</g>
&#x9;&#x9;&#x9;<g opacity="0.400000">
&#x9;&#x9;&#x9;&#x9;<path id="Vector" d="M81.47 113.35L82.8 114.16L75.09 118.33L73.75 117.53L81.47 113.35Z" fill="#A3CCC9" fill-opacity="1.000000" fill-rule="nonzero"></path>
&#x9;&#x9;&#x9;</g>
&#x9;&#x9;&#x9;<g opacity="0.400000">
&#x9;&#x9;&#x9;&#x9;<path id="Vector" d="M117.95 97.81L128.75 91.97L130.08 92.76L119.29 98.61L117.95 97.81Z" fill="#A3CCC9" fill-opacity="1.000000" fill-rule="nonzero"></path>
&#x9;&#x9;&#x9;</g>
&#x9;&#x9;&#x9;<g opacity="0.400000">
&#x9;&#x9;&#x9;&#x9;<path id="Vector" d="M108.3 103.03L109.64 103.83L79.01 120.42L77.68 119.61L108.3 103.03Z" fill="#A3CCC9" fill-opacity="1.000000" fill-rule="nonzero"></path>
&#x9;&#x9;&#x9;</g>
&#x9;&#x9;&#x9;<g opacity="0.400000">
&#x9;&#x9;&#x9;&#x9;<path id="Vector" d="M110.18 113.27L139.44 96.7L140.8 97.46L111.54 114.04L110.18 113.27Z" fill="#A3CCC9" fill-opacity="1.000000" fill-rule="nonzero"></path>
&#x9;&#x9;&#x9;</g>
&#x9;&#x9;&#x9;<g opacity="0.400000">
&#x9;&#x9;&#x9;&#x9;<path id="Vector" d="M96.49 121.04L97.85 121.8L90.21 126.13L88.85 125.36L96.49 121.04Z" fill="#A3CCC9" fill-opacity="1.000000" fill-rule="nonzero"></path>
&#x9;&#x9;&#x9;</g>
&#x9;&#x9;&#x9;<g opacity="0.400000">
&#x9;&#x9;&#x9;&#x9;<path id="Vector" d="M102.6 93.33L116.51 85.44L117.87 86.21L103.95 94.1L102.6 93.33Z" fill="#A3CCC9" fill-opacity="1.000000" fill-rule="nonzero"></path>
&#x9;&#x9;&#x9;</g>
&#x9;&#x9;&#x9;<g opacity="0.400000">
&#x9;&#x9;&#x9;&#x9;<path id="Vector" d="M97.48 97.76L83.65 105.6L82.29 104.83L96.12 96.99L97.48 97.76Z" fill="#A3CCC9" fill-opacity="1.000000" fill-rule="nonzero"></path>
&#x9;&#x9;&#x9;</g>
&#x9;&#x9;&#x9;<g opacity="0.400000">
&#x9;&#x9;&#x9;&#x9;<path id="Vector" d="M75.81 108.51L77.16 109.27L67.28 114.87L65.93 114.1L75.81 108.51Z" fill="#A3CCC9" fill-opacity="1.000000" fill-rule="nonzero"></path>
&#x9;&#x9;&#x9;</g>
&#x9;&#x9;&#x9;<g opacity="0.400000">
&#x9;&#x9;&#x9;&#x9;<path id="Vector" d="M90.31 104.36L119.56 87.79L120.92 88.55L91.68 105.13L90.31 104.36Z" fill="#A3CCC9" fill-opacity="1.000000" fill-rule="nonzero"></path>
&#x9;&#x9;&#x9;</g>
&#x9;&#x9;&#x9;<g opacity="0.400000">
&#x9;&#x9;&#x9;&#x9;<path id="Vector" d="M76.62 112.13L77.97 112.89L70.33 117.22L68.97 116.45L76.62 112.13Z" fill="#A3CCC9" fill-opacity="1.000000" fill-rule="nonzero"></path>
&#x9;&#x9;&#x9;</g>
&#x9;&#x9;</g>
&#x9;&#x9;<path id="path" d="M112.79 122.6L112.71 122.42L113.65 121.88L114.03 121.88L112.79 122.6ZM116.83 120.27L114.14 121.83L113.75 121.83L116.45 120.27L116.83 120.27Z" fill="#8FC2BE" fill-opacity="1.000000" fill-rule="nonzero"></path>
&#x9;&#x9;<path id="polygon" d="M77.12 68.68L36.9 45.32L36.92 88.36L77.14 111.95L77.12 68.68Z" fill="#E0F1EF" fill-opacity="1.000000" fill-rule="nonzero"></path>
&#x9;&#x9;<path id="polygon" d="M97.44 57.17L57.01 33.7L36.9 45.32L77.12 68.68L97.44 57.17Z" fill="#A3CCC9" fill-opacity="1.000000" fill-rule="nonzero"></path>
&#x9;&#x9;<path id="polygon" d="M97.44 100.24L97.44 57.17L77.12 68.68L77.14 111.95L97.44 100.24Z" fill="#BADFDB" fill-opacity="1.000000" fill-rule="nonzero"></path>
&#x9;&#x9;<path id="polygon" d="M73.74 98.51L39.77 78.58L39.79 90.06L73.76 110L73.74 98.51Z" fill="#BADFDB" fill-opacity="1.000000" fill-rule="nonzero"></path>
&#x9;&#x9;<path id="polygon" d="M73.21 92.05L73.21 69.79L74.66 70.63L74.66 92.89L73.21 92.05Z" fill="#BADFDB" fill-opacity="1.000000" fill-rule="nonzero"></path>
&#x9;&#x9;<path id="polygon" d="M69.48 89.9L69.48 67.64L70.93 68.48L70.93 90.74L69.48 89.9Z" fill="#BADFDB" fill-opacity="1.000000" fill-rule="nonzero"></path>
&#x9;&#x9;<path id="polygon" d="M65.75 87.75L65.75 65.48L67.2 66.32L67.2 88.58L65.75 87.75Z" fill="#BADFDB" fill-opacity="1.000000" fill-rule="nonzero"></path>
&#x9;&#x9;<path id="polygon" d="M62.02 85.59L62.02 63.33L63.47 64.17L63.47 86.43L62.02 85.59Z" fill="#BADFDB" fill-opacity="1.000000" fill-rule="nonzero"></path>
&#x9;&#x9;<path id="polygon" d="M58.28 83.44L58.28 61.18L59.74 62.02L59.74 84.28L58.28 83.44Z" fill="#BADFDB" fill-opacity="1.000000" fill-rule="nonzero"></path>
&#x9;&#x9;<path id="polygon" d="M54.55 81.29L54.55 59.03L56.01 59.87L56.01 82.13L54.55 81.29Z" fill="#BADFDB" fill-opacity="1.000000" fill-rule="nonzero"></path>
&#x9;&#x9;<path id="polygon" d="M50.83 79.14L50.83 56.88L52.28 57.72L52.28 79.98L50.83 79.14Z" fill="#BADFDB" fill-opacity="1.000000" fill-rule="nonzero"></path>
&#x9;&#x9;<path id="polygon" d="M47.09 76.99L47.09 54.72L48.54 55.56L48.54 77.82L47.09 76.99Z" fill="#BADFDB" fill-opacity="1.000000" fill-rule="nonzero"></path>
&#x9;&#x9;<path id="polygon" d="M43.36 74.84L43.36 52.57L44.82 53.41L44.82 75.67L43.36 74.84Z" fill="#BADFDB" fill-opacity="1.000000" fill-rule="nonzero"></path>
&#x9;&#x9;<path id="polygon" d="M39.63 72.68L39.63 50.42L41.09 51.26L41.09 73.52L39.63 72.68Z" fill="#BADFDB" fill-opacity="1.000000" fill-rule="nonzero"></path>
&#x9;&#x9;<path id="Cube_face_-_top" d="M71.68 99.65L74.61 97.96L38.95 77.39L36.02 79.08L71.68 99.65Z" fill="#8FC2BE" fill-opacity="1.000000" fill-rule="nonzero"></path>
&#x9;&#x9;<path id="Cube_face_-_left7" d="M83.21 48.46L71.9 54.98L71.9 60.92L83.21 54.4L83.21 48.46Z" fill="#BADFDB" fill-opacity="1.000000" fill-rule="nonzero"></path>
&#x9;&#x9;<path id="Cube_face_-_right7" d="M52.58 49.78L71.9 60.92L71.9 54.98L52.58 43.84L52.58 49.78Z" fill="#E0F1EF" fill-opacity="1.000000" fill-rule="nonzero"></path>
&#x9;&#x9;<path id="Cube_face_-_top7" d="M71.9 54.98L83.21 48.46L63.89 37.31L52.58 43.84L71.9 54.98Z" fill="#A3CCC9" fill-opacity="1.000000" fill-rule="nonzero"></path>
&#x9;&#x9;<path id="polygon" d="M53.35 49.11L54.74 49.9L54.74 45.97L53.35 45.17L53.35 49.11Z" fill="#BADFDB" fill-opacity="1.000000" fill-rule="nonzero"></path>
&#x9;&#x9;<mask id="mask230_4693" mask-type="alpha" maskUnits="userSpaceOnUse" x="53.359375" y="45.175781" width="1.381836" height="4.732422">
&#x9;&#x9;&#x9;<path id="polygon" d="M53.35 49.11L54.74 49.9L54.74 45.97L53.35 45.17L53.35 49.11Z" fill="#BADFDB" fill-opacity="1.000000" fill-rule="nonzero"></path>
&#x9;&#x9;</mask>
&#x9;&#x9;<g mask="url(#mask230_4693)">
&#x9;&#x9;&#x9;<path id="path" d="M54.87 45.95L54.87 49.53L53.76 48.89L53.76 45.37C54.13 45.57 54.5 45.76 54.87 45.95Z" fill="#BADFDB" fill-opacity="1.000000" fill-rule="nonzero"></path>
&#x9;&#x9;</g>
&#x9;&#x9;<path id="polygon" d="M57.41 51.45L58.8 52.24L58.8 48.31L57.41 47.51L57.41 51.45Z" fill="#BADFDB" fill-opacity="1.000000" fill-rule="nonzero"></path>
&#x9;&#x9;<mask id="mask230_4702" mask-type="alpha" maskUnits="userSpaceOnUse" x="57.418457" y="47.517334" width="1.381836" height="4.732422">
&#x9;&#x9;&#x9;<path id="polygon" d="M57.41 51.45L58.8 52.24L58.8 48.31L57.41 47.51L57.41 51.45Z" fill="#BADFDB" fill-opacity="1.000000" fill-rule="nonzero"></path>
&#x9;&#x9;</mask>
&#x9;&#x9;<g mask="url(#mask230_4702)">
&#x9;&#x9;&#x9;<path id="path" d="M58.92 48.29L58.92 51.87L57.82 51.23L57.82 47.71C58.18 47.91 58.55 48.1 58.92 48.29Z" fill="#BADFDB" fill-opacity="1.000000" fill-rule="nonzero"></path>
&#x9;&#x9;</g>
&#x9;&#x9;<path id="polygon" d="M61.47 53.79L62.85 54.59L62.85 50.65L61.47 49.85L61.47 53.79Z" fill="#BADFDB" fill-opacity="1.000000" fill-rule="nonzero"></path>
&#x9;&#x9;<mask id="mask230_4711" mask-type="alpha" maskUnits="userSpaceOnUse" x="61.477783" y="49.858887" width="1.381836" height="4.732422">
&#x9;&#x9;&#x9;<path id="polygon" d="M61.47 53.79L62.85 54.59L62.85 50.65L61.47 49.85L61.47 53.79Z" fill="#BADFDB" fill-opacity="1.000000" fill-rule="nonzero"></path>
&#x9;&#x9;</mask>
&#x9;&#x9;<g mask="url(#mask230_4711)">
&#x9;&#x9;&#x9;<path id="path" d="M62.98 50.64L62.98 54.21L61.88 53.58L61.88 50.05C62.24 50.25 62.61 50.45 62.98 50.64Z" fill="#BADFDB" fill-opacity="1.000000" fill-rule="nonzero"></path>
&#x9;&#x9;</g>
&#x9;&#x9;<path id="polygon" d="M65.53 56.13L66.91 56.93L66.91 52.99L65.53 52.2L65.53 56.13Z" fill="#BADFDB" fill-opacity="1.000000" fill-rule="nonzero"></path>
&#x9;&#x9;<mask id="mask230_4720" mask-type="alpha" maskUnits="userSpaceOnUse" x="65.536865" y="52.200439" width="1.381836" height="4.732422">
&#x9;&#x9;&#x9;<path id="polygon" d="M65.53 56.13L66.91 56.93L66.91 52.99L65.53 52.2L65.53 56.13Z" fill="#BADFDB" fill-opacity="1.000000" fill-rule="nonzero"></path>
&#x9;&#x9;</mask>
&#x9;&#x9;<g mask="url(#mask230_4720)">
&#x9;&#x9;&#x9;<path id="path" d="M67.04 52.98L67.04 56.55L65.94 55.92L65.94 52.39C66.3 52.6 66.67 52.79 67.04 52.98Z" fill="#BADFDB" fill-opacity="1.000000" fill-rule="nonzero"></path>
&#x9;&#x9;</g>
&#x9;&#x9;<path id="polygon" d="M69.59 58.47L70.97 59.27L70.97 55.33L69.59 54.53L69.59 58.47Z" fill="#BADFDB" fill-opacity="1.000000" fill-rule="nonzero"></path>
&#x9;&#x9;<mask id="mask230_4729" mask-type="alpha" maskUnits="userSpaceOnUse" x="69.595947" y="54.536133" width="1.381836" height="4.738770">
&#x9;&#x9;&#x9;<path id="polygon" d="M69.59 58.47L70.97 59.27L70.97 55.33L69.59 54.53L69.59 58.47Z" fill="#BADFDB" fill-opacity="1.000000" fill-rule="nonzero"></path>
&#x9;&#x9;</mask>
&#x9;&#x9;<g mask="url(#mask230_4729)">
&#x9;&#x9;&#x9;<path id="path" d="M71.1 55.32L71.1 58.89L70 58.26L70 54.73C70.36 54.94 70.73 55.13 71.1 55.32Z" fill="#BADFDB" fill-opacity="1.000000" fill-rule="nonzero"></path>
&#x9;&#x9;</g>
&#x9;&#x9;<path id="path" d="M38.95 76.82C39.75 77.28 74.35 97.23 74.35 97.23C74.77 97.47 74.64 98.05 74.61 98.07L71.68 99.76L36.02 79.19C36.02 79.19 35.88 78.58 36.24 78.37C37.14 77.85 38.05 77.33 38.95 76.82Z" fill="#A3CCC9" fill-opacity="1.000000" fill-rule="nonzero"></path>
&#x9;&#x9;<path id="path" d="M72.1 98.68C71.74 98.89 71.28 98.89 70.92 98.68L36.06 78.58C36.1 78.5 36.16 78.43 36.24 78.38C37.14 77.86 38.05 77.33 38.95 76.82C39.75 77.28 74.35 97.24 74.35 97.24C74.4 97.26 74.43 97.29 74.46 97.32L72.1 98.68Z" fill="#A3CCC9" fill-opacity="1.000000" fill-rule="nonzero"></path>
&#x9;&#x9;<path id="polygon" d="M111.94 114.78L104.43 110.75L104.66 121.96L111.77 126.06L111.94 114.78Z" fill="#BADFDB" fill-opacity="1.000000" fill-rule="nonzero"></path>
&#x9;&#x9;<path id="polygon" d="M127.87 106.04L112.97 114.63L112.97 125.43L127.87 116.78L127.87 106.04Z" fill="#E0F1EF" fill-opacity="1.000000" fill-rule="nonzero"></path>
&#x9;&#x9;<path id="polygon" d="M127.26 117.15L129.07 118.19L129.07 107.26L127.26 106.23L127.26 117.15Z" fill="#BADFDB" fill-opacity="1.000000" fill-rule="nonzero"></path>
&#x9;&#x9;<path id="polygon" d="M130.34 106.52L129.07 107.26L129.07 118.2L130.34 117.46L130.34 106.52Z" fill="#E0F1EF" fill-opacity="1.000000" fill-rule="nonzero"></path>
&#x9;&#x9;<path id="polygon" d="M123.85 91.38L123.82 103.86L121.45 112.22L121.48 99.74L123.85 91.38Z" fill="#E0F1EF" fill-opacity="1.000000" fill-rule="nonzero"></path>
&#x9;&#x9;<path id="polygon" d="M104.69 109.48L104.66 121.96L90.23 123.36L90.26 110.88L104.69 109.48Z" fill="#CCECE8" fill-opacity="1.000000" fill-rule="nonzero"></path>
&#x9;&#x9;<path id="polygon" d="M90.26 110.88L90.23 123.36L75.48 114.86L75.51 102.38L90.26 110.88Z" fill="#BADFDB" fill-opacity="1.000000" fill-rule="nonzero"></path>
&#x9;&#x9;<path id="polygon" d="M75.51 102.96L90.26 111.46L90.26 110.88L75.51 102.38L75.51 102.96Z" fill="#B7DDD9" fill-opacity="1.000000" fill-rule="nonzero"></path>
&#x9;&#x9;<path id="polygon" d="M113.56 114.6L113.56 116.29L104.69 111.16L104.69 109.48L113.56 114.6Z" fill="#BADFDB" fill-opacity="1.000000" fill-rule="nonzero"></path>
&#x9;&#x9;<path id="polygon" d="M130.35 106.56L130.34 104.85L113.56 114.6L113.56 116.3L130.35 106.56Z" fill="#E0F1EF" fill-opacity="1.000000" fill-rule="nonzero"></path>
&#x9;&#x9;<path id="polygon" d="M130.34 105.39L130.34 106.56L130.34 104.85L113.56 114.6L113.56 115.14L130.34 105.39Z" fill="#D8F0ED" fill-opacity="1.000000" fill-rule="nonzero"></path>
&#x9;&#x9;<path id="polygon" d="M123.85 91.38L121.48 99.74L130.34 104.85L113.56 114.6L104.69 109.48L90.26 110.88L75.51 102.38L109.11 82.87L123.85 91.38Z" fill="#A3CCC9" fill-opacity="1.000000" fill-rule="nonzero"></path>
&#x9;&#x9;<path id="polygon" d="M118.34 18.56L118.36 89.25L115.73 90.78L115.72 20.09L118.34 18.56Z" fill="#E0F1EF" fill-opacity="1.000000" fill-rule="nonzero"></path>
&#x9;&#x9;<path id="polygon" d="M121.34 23.33L121.36 94.02L119.77 99.79L119.76 29.1L121.34 23.33Z" fill="#E0F1EF" fill-opacity="1.000000" fill-rule="nonzero"></path>
&#x9;&#x9;<path id="polygon" d="M89.11 35.54L89.13 106.23L86.5 107.75L86.48 37.06L89.11 35.54Z" fill="#E0F1EF" fill-opacity="1.000000" fill-rule="nonzero"></path>
&#x9;&#x9;<path id="polygon" d="M86.48 37.06L76.83 31.49L76.85 102.19L86.5 107.75L86.48 37.06Z" fill="#BADFDB" fill-opacity="1.000000" fill-rule="nonzero"></path>
&#x9;&#x9;<path id="polygon" d="M104.69 37.84L94.73 38.78L94.75 109.47L104.71 108.53L104.69 37.84Z" fill="#CCECE8" fill-opacity="1.000000" fill-rule="nonzero"></path>
&#x9;&#x9;<path id="polygon" d="M94.73 38.78L89.11 35.54L89.13 106.23L94.75 109.47L94.73 38.78Z" fill="#BADFDB" fill-opacity="1.000000" fill-rule="nonzero"></path>
&#x9;&#x9;<path id="polygon" d="M107.07 39.21L107.09 109.91L104.71 108.53L104.69 37.84L107.07 39.21Z" fill="#BADFDB" fill-opacity="1.000000" fill-rule="nonzero"></path>
&#x9;&#x9;<path id="polygon" d="M122.13 30.47L122.15 101.16L107.09 109.91L107.07 39.21L122.13 30.47Z" fill="#E0F1EF" fill-opacity="1.000000" fill-rule="nonzero"></path>
&#x9;&#x9;<path id="polygon" d="M120.91 38.72L108.29 46.04L108.31 101.6L120.92 94.28L120.91 38.72Z" fill="#BADFDB" fill-opacity="1.000000" fill-rule="nonzero"></path>
&#x9;&#x9;<path id="polygon" d="M118.34 18.56L115.72 20.09L121.34 23.33L119.76 29.1L122.13 30.47L107.07 39.21L104.69 37.84L94.73 38.78L89.11 35.54L86.48 37.06L76.83 31.49L108.7 12.99L118.34 18.56Z" fill="#A3CCC9" fill-opacity="1.000000" fill-rule="nonzero"></path>
&#x9;&#x9;<path id="polygon" d="M105.29 37.37L105.28 39.46L102.9 38.08L102.91 36L105.29 37.37Z" fill="#BADFDB" fill-opacity="1.000000" fill-rule="nonzero"></path>
&#x9;&#x9;<path id="polygon" d="M117.96 27.25L102.89 36L105.27 37.37L120.33 28.62L117.96 27.25Z" fill="#A3CCC9" fill-opacity="1.000000" fill-rule="nonzero"></path>
&#x9;&#x9;<path id="path" d="M118.13 27.09C117.99 27.01 117.81 27 117.67 27.09L102.82 35.65C102.58 35.78 102.66 36.13 102.68 36.13L105.03 37.49C105.12 37.54 105.23 37.54 105.32 37.49L120.4 28.79C120.4 28.79 120.48 28.44 120.27 28.32C119.79 28.04 119.31 27.77 118.13 27.09Z" fill="#A3CCC9" fill-opacity="1.000000" fill-rule="nonzero"></path>
&#x9;&#x9;<path id="path" d="M120.27 28.34C119.74 28.65 107.35 35.8 105.44 36.9C105.28 37 105.07 37 104.91 36.9L102.79 35.68L117.67 27.09C117.81 27.01 117.99 27.01 118.13 27.09C119.31 27.76 119.82 28.08 120.27 28.34Z" fill="#A3CCC9" fill-opacity="1.000000" fill-rule="nonzero"></path>
&#x9;&#x9;<path id="polygon" d="M111.76 126.09L113.56 127.13L113.56 116.21L111.76 115.17L111.76 126.09Z" fill="#BADFDB" fill-opacity="1.000000" fill-rule="nonzero"></path>
&#x9;&#x9;<path id="polygon" d="M114.84 115.46L113.56 116.21L113.56 127.14L114.84 126.4L114.84 115.46Z" fill="#E0F1EF" fill-opacity="1.000000" fill-rule="nonzero"></path>
&#x9;&#x9;<path id="polygon" d="M107.08 37.48L107.07 39.27L104.69 37.9L104.7 36.11L107.08 37.48Z" fill="#BADFDB" fill-opacity="1.000000" fill-rule="nonzero"></path>
&#x9;&#x9;<path id="polygon" d="M122.12 28.73L122.14 30.48L107.07 39.23L107.06 37.48L122.12 28.73Z" fill="#E0F1EF" fill-opacity="1.000000" fill-rule="nonzero"></path>
&#x9;&#x9;<path id="polygon" d="M119.74 27.36L104.68 36.1L107.06 37.48L122.12 28.73L119.74 27.36Z" fill="#8FC2BE" fill-opacity="1.000000" fill-rule="nonzero"></path>
&#x9;&#x9;<path id="polygon" d="M129.27 106.59L114.74 115.02L116.57 116.07L131.1 107.65L129.27 106.59Z" fill="#8FC2BE" fill-opacity="1.000000" fill-rule="nonzero"></path>
&#x9;&#x9;<path id="Cube_face_-_left14" d="M88.58 22.02L97.96 27.43L97.96 34.74L88.58 29.33L88.58 22.02Z" fill="#BADFDB" fill-opacity="1.000000" fill-rule="nonzero"></path>
&#x9;&#x9;<path id="Cube_face_-_right14" d="M111.68 26.83L97.96 34.74L97.96 27.43L111.68 19.51L111.68 26.83Z" fill="#D8F0ED" fill-opacity="1.000000" fill-rule="nonzero"></path>
&#x9;&#x9;<path id="Cube_face_-_top14" d="M97.96 27.43L88.58 22.02L102.3 14.1L111.68 19.51L97.96 27.43Z" fill="#8FC2BE" fill-opacity="1.000000" fill-rule="nonzero"></path>
&#x9;&#x9;<path id="path" d="M102.7 13.71C102.49 13.59 102.24 13.59 102.03 13.71L88.76 21.36C88.42 21.55 88.52 22.05 88.55 22.06L97.96 27.49L111.78 19.52C111.78 19.52 111.9 19.02 111.6 18.84C110.91 18.45 104.38 14.68 102.7 13.71Z" fill="#D0EAE7" fill-opacity="1.000000" fill-rule="nonzero"></path>
&#x9;&#x9;<path id="path" d="M111.6 18.88L98.5 26.43C98.17 26.63 97.76 26.63 97.42 26.43L88.71 21.41L102.05 13.72C102.25 13.6 102.5 13.59 102.71 13.72C104.38 14.68 110.94 18.5 111.6 18.88Z" fill="#D0EAE7" fill-opacity="1.000000" fill-rule="nonzero"></path>
&#x9;&#x9;<path id="path" d="M129.55 106.32C129.4 106.24 129.23 106.23 129.08 106.32L114.83 114.54C114.59 114.67 114.66 115.02 114.68 115.02L116.44 116.04C116.54 116.09 116.65 116.09 116.74 116.04L131.22 107.68C131.22 107.68 131.3 107.33 131.09 107.21C130.62 106.93 130.72 106.99 129.55 106.32Z" fill="#A3CCC9" fill-opacity="1.000000" fill-rule="nonzero"></path>
&#x9;&#x9;<path id="path" d="M131.1 107.23C130.56 107.54 118.76 114.35 116.85 115.45C116.69 115.55 116.49 115.55 116.33 115.45L114.79 114.57L129.08 106.32C129.23 106.24 129.4 106.24 129.55 106.32C130.72 106.99 130.64 106.97 131.1 107.23Z" fill="#A3CCC9" fill-opacity="1.000000" fill-rule="nonzero"></path>
&#x9;&#x9;<path id="path" d="M119.98 27.09C119.84 27.01 119.66 27 119.51 27.09L104.67 35.65C104.43 35.78 104.51 36.13 104.53 36.13L106.88 37.49C106.97 37.54 107.08 37.54 107.17 37.49L122.25 28.79C122.25 28.79 122.33 28.44 122.12 28.32C121.64 28.04 121.16 27.77 119.98 27.09Z" fill="#A3CCC9" fill-opacity="1.000000" fill-rule="nonzero"></path>
&#x9;&#x9;<path id="path" d="M122.12 28.34C121.58 28.65 109.2 35.8 107.28 36.9C107.12 37 106.92 37 106.76 36.9L104.64 35.68L119.52 27.09C119.66 27.01 119.84 27.01 119.98 27.09C121.15 27.76 121.66 28.08 122.12 28.34Z" fill="#A3CCC9" fill-opacity="1.000000" fill-rule="nonzero"></path>
&#x9;</g>
</svg>