<svg width="195.000000" height="140.000000" viewBox="0 0 195 140" fill="none" xmlns="http://www.w3.org/2000/svg" xmlns:xlink="http://www.w3.org/1999/xlink">
&#x9;<desc>
&#x9;&#x9;&#x9;Created with Pixso.
&#x9;</desc>
&#x9;<defs>
&#x9;&#x9;<clipPath id="clip201_8267">
&#x9;&#x9;&#x9;<rect id="corporate-transactions" width="195.000000" height="140.000000" fill="white" fill-opacity="0"></rect>
&#x9;&#x9;</clipPath>
&#x9;</defs>
&#x9;<g clip-path="url(#clip201_8267)">
&#x9;&#x9;<path id="path2652" d="M154.06 25.69L110.65 0.26L115.09 19.59L77.62 41.22C73.01 43.88 69.29 50.31 69.29 55.59L69.29 91.11C69.29 96.39 73.01 98.51 77.62 95.86L126.29 67.75L130.53 83.66L154.06 25.69Z" fill="#B8D6D3" fill-opacity="1.000000" fill-rule="nonzero"></path>
&#x9;&#x9;<path id="path2654" d="M156.5 27L114.4 2.42L118.84 21.75L81.36 43.38C76.76 46.04 73.03 52.47 73.03 57.75L73.03 93.27C73.03 98.55 76.76 100.68 81.36 98.02L130.04 69.92L134 86L156.5 27Z" fill="#E0F3F1" fill-opacity="1.000000" fill-rule="nonzero"></path>
&#x9;&#x9;<path id="path2656" d="M156.52 26.98L152.53 24.66L147.41 38.8L130.55 83.65L126.29 67.75L77.62 95.86C76.28 96.63 75.01 97 73.89 97C75.25 99.37 78.08 99.91 81.37 98.02L130.04 69.92L134 85.94L151.16 40.96L156.52 26.98Z" fill="#F4F9F7" fill-opacity="1.000000" fill-rule="nonzero"></path>
&#x9;&#x9;<path id="path2658" d="M111.96 43.6L108.24 41.44L108.24 41.45C106.72 40.51 104.59 40.61 102.22 41.97L53.55 70.07L47.9 46.72L18.5 111.5L69.19 137.57L64.75 118.24L102.22 96.6C106.83 93.95 110.55 87.52 110.55 82.24L110.55 46.72C110.55 45.81 110.44 45 110.24 44.29L111.96 43.6Z" fill="#8FC2BE" fill-opacity="1.000000" fill-rule="nonzero"></path>
&#x9;&#x9;<path id="path2672" d="M130.02 69.87L127.31 71.49L130.54 83.69L133.98 85.99L130.02 69.87Z" fill="#B8D6D3" fill-opacity="1.000000" fill-rule="nonzero"></path>
&#x9;&#x9;<path id="path2660" d="M110.56 56.49L73.04 77.52L69.29 65.31L69.29 60.98L102.23 41.97C104.59 40.61 106.72 40.51 108.24 41.45L108.24 41.45L111.96 43.6L110.24 44.29C110.44 45 110.56 45.81 110.56 46.72L110.56 56.49Z" fill="#A3CCC9" fill-opacity="1.000000" fill-rule="nonzero"></path>
&#x9;&#x9;<path id="path2662" d="M105.98 44.14L57.3 72.23L51.64 48.88L23.47 114.04L23.47 114.04L72.94 139.73L68.5 120.41L105.98 98.77C110.58 96.11 114.3 89.68 114.3 84.4L114.3 48.88C114.3 43.6 110.58 41.48 105.98 44.14Z" fill="#B8D6D3" fill-opacity="1.000000" fill-rule="nonzero"></path>
&#x9;&#x9;<path id="path2664" d="M73.43 94.31L73.11 94.46C73.06 94.08 73.04 93.69 73.04 93.27L73.04 63.15L69.29 65.31L69.29 91.11C69.29 93.92 70.35 95.84 72.04 96.61L72.04 96.61L75.93 98.84L77.74 97L73.43 94.31Z" fill="#E0F3F1" fill-opacity="1.000000" fill-rule="nonzero"></path>
&#x9;&#x9;<path id="path2666" d="M109.7 42.99C110.25 43.95 110.56 45.2 110.56 46.72L110.56 82.24C110.56 87.52 106.83 93.95 102.23 96.6L64.75 118.24L69.2 137.57L51.01 127.2C51.21 127.35 51.42 127.48 51.64 127.59L72.94 139.73L68.5 120.41L105.97 98.77C110.57 96.11 114.3 89.68 114.3 84.4L114.3 48.88C114.3 45.14 112.43 42.99 109.7 42.99Z" fill="#E0F3F1" fill-opacity="1.000000" fill-rule="nonzero"></path>
&#x9;&#x9;<path id="path2668" d="M105.97 44.14L73.03 63.15L73.03 93.27C73.03 98.55 76.76 100.68 81.36 98.02L114.3 79L114.3 48.88C114.3 43.61 110.57 41.48 105.97 44.14Z" fill="#8FC2BE" fill-opacity="1.000000" fill-rule="nonzero"></path>
&#x9;&#x9;<path id="path2670" d="M114.29 48.27L114.28 48.11L114.23 47.64L114.21 47.53L114.12 46.99L114.1 46.87L113.99 46.46L113.96 46.34L113.79 45.86L113.78 45.83L113.59 45.42L113.55 45.33C113.4 45.05 113.23 44.79 113.04 44.55L113 44.5L112.72 44.2L112.7 44.17C112.49 43.96 112.25 43.77 112 43.61L111.97 43.6C111.71 43.44 111.44 43.31 111.15 43.22L111.13 43.21C110.69 43.07 110.21 42.99 109.7 42.99C110.25 43.95 110.56 45.2 110.56 46.72L110.56 81.17L114.3 79L114.3 48.88C114.3 48.67 114.3 48.47 114.29 48.27Z" fill="#D0EAE7" fill-opacity="1.000000" fill-rule="nonzero"></path>
&#x9;&#x9;<path id="path2672" d="M114.4 2.42L110.65 0.26L115.09 19.59L118.84 21.75L114.4 2.42Z" fill="#A3CCC9" fill-opacity="1.000000" fill-rule="nonzero"></path>
&#x9;&#x9;<path id="path2674" d="M88.83 84.39L82.55 81.5C81.33 80.95 81.24 78.85 82.34 76.82C83.44 74.79 85.31 73.59 86.53 74.15L90.84 76.13C91.14 76.27 91.6 75.98 91.87 75.47L100.59 59.37C101.69 57.34 103.57 56.15 104.78 56.71C106 57.27 106.1 59.37 104.99 61.4L94.5 80.79C93.01 83.53 90.47 85.15 88.83 84.39Z" fill="#FFFFFF" fill-opacity="1.000000" fill-rule="nonzero"></path>
&#x9;&#x9;<path id="path2672" d="M23.47 114.04L18.51 111.49L47.84 46.74L51.65 48.9L23.47 114.04Z" fill="#A3CCC9" fill-opacity="1.000000" fill-rule="nonzero"></path>
&#x9;</g>
</svg>