<svg width="195.000000" height="140.000000" viewBox="0 0 195 140" fill="none" xmlns="http://www.w3.org/2000/svg" xmlns:xlink="http://www.w3.org/1999/xlink">
&#x9;<desc>
&#x9;&#x9;&#x9;Created with Pixso.
&#x9;</desc>
&#x9;<defs>
&#x9;&#x9;<clipPath id="clip201_7859">
&#x9;&#x9;&#x9;<rect id="current-depo" width="195.000000" height="140.000000" fill="white" fill-opacity="0"></rect>
&#x9;&#x9;</clipPath>
&#x9;</defs>
&#x9;<g clip-path="url(#clip201_7859)">
&#x9;&#x9;<path id="Vector" d="M90.13 67.27C90.16 68.06 90.41 68.83 90.87 69.47L90.13 67.27Z" fill="#B8D6D3" fill-opacity="1.000000" fill-rule="nonzero"></path>
&#x9;&#x9;<path id="Vector" d="M90.15 58.78C74.57 38.04 72.19 16.16 72.06 15.01L72.06 18.97L72.54 21.41C73.76 28.41 77.91 45.95 90.14 62.12L90.15 58.78Z" fill="#C3DFDC" fill-opacity="1.000000" fill-rule="nonzero"></path>
&#x9;&#x9;<path id="Vector" d="M129.6 90.06C129.62 90.85 129.88 91.62 130.33 92.26L129.6 90.06Z" fill="#B8D6D3" fill-opacity="1.000000" fill-rule="nonzero"></path>
&#x9;&#x9;<path id="Vector" d="M154.46 125.34L174.96 113.43C175.8 112.94 176.33 111.9 176.33 110.41L155.83 122.31C155.83 123.78 155.31 124.83 154.46 125.33L154.46 125.34Z" fill="#B8D6D3" fill-opacity="1.000000" fill-rule="nonzero"></path>
&#x9;&#x9;<path id="Vector" d="M156 63.48L156 67.43L155.56 69.33C152.98 80 146.5 86.68 137.74 88.46C137.74 88.46 119.47 85.83 113.85 82.57C107.95 79.15 98.68 70.75 97.65 70.14L90.14 62.12C77.91 45.95 73.76 28.41 72.53 21.41L72.05 18.97L71.89 73.86C71.98 75.48 72.45 77.06 73.27 78.47C74.08 79.88 75.22 81.07 76.58 81.95L151.13 124.99C153.72 126.47 155.83 125.28 155.83 122.3L156 63.48Z" fill="#D0EAE7" fill-opacity="1.000000" fill-rule="nonzero"></path>
&#x9;&#x9;<path id="Vector" d="M156 64.12L176.5 52.21L176.5 51.56L156 63.48L156 64.12Z" fill="#B8D6D3" fill-opacity="1.000000" fill-rule="nonzero"></path>
&#x9;&#x9;<path id="Vector" d="M156.01 64.12C153.8 75.97 147.04 83.37 137.73 85.22C137.74 85.33 137.74 85.45 137.73 85.56L137.73 88.46C146.49 86.71 152.97 80.03 155.55 69.33L155.99 67.41L156.01 64.12Z" fill="#C3DFDC" fill-opacity="1.000000" fill-rule="nonzero"></path>
&#x9;&#x9;<path id="Vector" d="M72.06 15.01C72.19 16.16 74.57 38.04 90.15 58.78L90.15 58.05C90.15 56.86 91 56.38 92.03 56.97L96.4 59.5C96.94 59.85 97.4 60.33 97.73 60.89C98.05 61.45 98.24 62.08 98.27 62.73L98.27 68.02C102.89 72.57 108.07 76.52 113.68 79.78C119.31 83.03 124.69 84.88 129.62 85.47L129.62 80.87C129.62 79.69 130.46 79.19 131.49 79.79L135.86 82.31C136.35 82.64 136.78 83.07 137.09 83.57C137.41 84.07 137.62 84.63 137.71 85.22C147.02 83.37 153.76 75.97 155.99 64.12L155.99 63.48L129.75 48.33L125.93 46.12L102.3 32.47L98.47 30.26L72.06 15.01Z" fill="#E0F3F1" fill-opacity="1.000000" fill-rule="nonzero"></path>
&#x9;&#x9;<path id="Vector" d="M92.56 3.1L72.06 15.01L156 63.48L156 63.44L176.5 51.53L92.56 3.1Z" fill="#B8D6D3" fill-opacity="1.000000" fill-rule="nonzero"></path>
&#x9;&#x9;<path id="Vector" d="M129.5 85.24C124.57 84.66 119.19 82.79 113.56 79.55C107.95 76.31 102.77 72.39 98.14 67.86L96.18 68.33L96.61 69.8C101.74 74.76 107.42 79.13 113.53 82.81C119.16 86.05 124.57 87.92 129.47 88.5L129.5 85.24Z" fill="#C3DFDC" fill-opacity="1.000000" fill-rule="nonzero"></path>
&#x9;&#x9;<path id="Vector" d="M136.05 90.37L136.05 94.79C136.08 94.99 136.04 95.2 135.96 95.38C135.87 95.57 135.74 95.73 135.57 95.85L136.39 95.38C136.56 95.26 136.69 95.09 136.78 94.91C136.86 94.72 136.89 94.51 136.87 94.31L136.87 89.89L136.05 90.37Z" fill="#A3CCC9" fill-opacity="1.000000" fill-rule="nonzero"></path>
&#x9;&#x9;<path id="Vector" d="M136.05 90.37L136.87 89.89L130.2 86.04L129.38 86.52L136.05 90.37Z" fill="#B8D6D3" fill-opacity="1.000000" fill-rule="nonzero"></path>
&#x9;&#x9;<path id="Vector" d="M129.38 86.52L129.38 90.94C129.41 91.51 129.58 92.07 129.86 92.56C130.15 93.06 130.54 93.48 131.02 93.79L134.39 95.74C135.3 96.26 136.05 95.84 136.05 94.79L136.05 90.37L129.38 86.52Z" fill="#E0F3F1" fill-opacity="1.000000" fill-rule="nonzero"></path>
&#x9;&#x9;<path id="Vector" d="M136.42 82.03L132.07 79.51C131.88 79.37 131.65 79.29 131.42 79.26C131.18 79.24 130.94 79.28 130.73 79.38L129.09 80.36C129.3 80.26 129.54 80.22 129.78 80.25C130.01 80.27 130.24 80.36 130.43 80.5L134.78 83.01C135.32 83.37 135.77 83.85 136.1 84.41C136.42 84.97 136.61 85.6 136.65 86.25L136.65 91.61L138.29 90.67L138.29 85.3C138.25 84.65 138.07 84.01 137.74 83.44C137.42 82.87 136.97 82.39 136.42 82.03Z" fill="#A3CCC9" fill-opacity="1.000000" fill-rule="nonzero"></path>
&#x9;&#x9;<path id="Vector" d="M130.42 80.46C129.39 79.86 128.54 80.34 128.54 81.53L128.54 86.91L136.63 91.59L136.65 86.25C136.61 85.6 136.42 84.97 136.1 84.4C135.77 83.84 135.32 83.36 134.77 83.01L130.42 80.46Z" fill="#D0EAE7" fill-opacity="1.000000" fill-rule="nonzero"></path>
&#x9;&#x9;<path id="Vector" d="M96.12 67.86L96.12 72.27C96.14 72.48 96.11 72.68 96.02 72.87C95.94 73.06 95.8 73.22 95.64 73.34L96.45 72.86C96.62 72.74 96.75 72.58 96.83 72.39C96.91 72.2 96.94 72 96.92 71.79L96.92 67.38L96.12 67.86Z" fill="#A3CCC9" fill-opacity="1.000000" fill-rule="nonzero"></path>
&#x9;&#x9;<path id="Vector" d="M96.11 67.84L96.94 67.36L90.27 63.51L89.45 63.99L96.11 67.84Z" fill="#A3CCC9" fill-opacity="1.000000" fill-rule="nonzero"></path>
&#x9;&#x9;<path id="Vector" d="M89.45 63.99L89.45 68.4C89.47 68.97 89.64 69.53 89.92 70.03C90.21 70.52 90.61 70.94 91.09 71.26L94.46 73.21C95.36 73.73 96.11 73.3 96.11 72.25L96.11 67.83L89.45 63.99Z" fill="#C3DFDC" fill-opacity="1.000000" fill-rule="nonzero"></path>
&#x9;&#x9;<path id="Vector" d="M96.49 59.49L92.13 56.97C91.94 56.83 91.72 56.74 91.48 56.71C91.25 56.69 91.01 56.72 90.79 56.82L89.15 57.77C89.36 57.68 89.6 57.64 89.84 57.66C90.07 57.68 90.3 57.77 90.49 57.91L94.85 60.42C95.05 60.54 95.24 60.69 95.41 60.86L95.52 60.96C96.24 61.69 96.66 62.65 96.72 63.67L96.72 69.03L98.36 68.08L98.38 62.7C98.34 62.06 98.14 61.43 97.81 60.87C97.48 60.32 97.03 59.84 96.49 59.49Z" fill="#A3CCC9" fill-opacity="1.000000" fill-rule="nonzero"></path>
&#x9;&#x9;<path id="Vector" d="M90.49 57.93C89.45 57.32 88.61 57.8 88.61 59L88.61 64.37L96.7 69.05L96.7 63.69C96.67 63.04 96.48 62.41 96.15 61.84C95.83 61.28 95.37 60.8 94.83 60.45L90.49 57.93Z" fill="#B8D6D3" fill-opacity="1.000000" fill-rule="nonzero"></path>
&#x9;&#x9;<path id="Vector" d="M144.14 38.63L144.14 40.53C144.33 40.44 144.5 40.3 144.62 40.14C144.74 39.97 144.81 39.77 144.83 39.56L144.83 37.68C144.81 37.89 144.74 38.09 144.62 38.26C144.49 38.43 144.33 38.57 144.14 38.65L144.14 38.63Z" fill="#B8D6D3" fill-opacity="1.000000" fill-rule="nonzero"></path>
&#x9;&#x9;<path id="Vector" d="M130.7 40.54L130.7 42.44C130.71 42.64 130.79 42.84 130.91 43C131.03 43.17 131.19 43.3 131.37 43.38L131.37 41.48C131.19 41.4 131.02 41.27 130.9 41.1C130.78 40.94 130.71 40.74 130.69 40.54L130.7 40.54Z" fill="#B8D6D3" fill-opacity="1.000000" fill-rule="nonzero"></path>
&#x9;&#x9;<path id="Vector" d="M131.37 41.48L131.38 43.38L133.64 44.7L133.63 42.8L131.37 41.48Z" fill="#B8D6D3" fill-opacity="1.000000" fill-rule="nonzero"></path>
&#x9;&#x9;<path id="Vector" d="M136.92 42.8L136.93 44.7L144.14 40.52L144.14 38.63L136.92 42.8Z" fill="#B8D6D3" fill-opacity="1.000000" fill-rule="nonzero"></path>
&#x9;&#x9;<path id="Vector" d="M133.63 42.84L133.63 44.74C134.14 44.99 134.7 45.12 135.28 45.12C135.85 45.12 136.41 44.99 136.92 44.74L136.92 42.84C136.41 43.09 135.85 43.22 135.28 43.22C134.7 43.22 134.14 43.09 133.63 42.84Z" fill="#B8D6D3" fill-opacity="1.000000" fill-rule="nonzero"></path>
&#x9;&#x9;<path id="Vector" d="M131.39 39.58C130.48 40.11 130.47 40.96 131.39 41.48L133.63 42.84C134.14 43.09 134.71 43.22 135.28 43.22C135.85 43.22 136.41 43.09 136.92 42.84L144.14 38.66C145.06 38.14 145.06 37.28 144.14 36.76L141.89 35.45C141.38 35.19 140.82 35.06 140.24 35.06C139.67 35.06 139.11 35.19 138.59 35.45L131.39 39.58Z" fill="#B8D6D3" fill-opacity="1.000000" fill-rule="nonzero"></path>
&#x9;&#x9;<path id="Vector" d="M116.79 22.64L116.79 24.53C116.98 24.45 117.14 24.32 117.26 24.15C117.38 23.98 117.46 23.78 117.47 23.57L117.47 21.67C117.45 21.88 117.38 22.08 117.26 22.25C117.14 22.42 116.98 22.55 116.79 22.64Z" fill="#B8D6D3" fill-opacity="1.000000" fill-rule="nonzero"></path>
&#x9;&#x9;<path id="Vector" d="M103.35 24.54L103.35 26.44C103.38 26.65 103.45 26.84 103.57 27C103.69 27.17 103.85 27.3 104.04 27.38L104.04 25.49C103.85 25.41 103.69 25.28 103.57 25.11C103.45 24.94 103.38 24.75 103.36 24.54L103.35 24.54Z" fill="#B8D6D3" fill-opacity="1.000000" fill-rule="nonzero"></path>
&#x9;&#x9;<path id="Vector" d="M104.04 25.49L104.05 27.39L106.3 28.7L106.3 26.8L104.04 25.49Z" fill="#B8D6D3" fill-opacity="1.000000" fill-rule="nonzero"></path>
&#x9;&#x9;<path id="Vector" d="M109.58 26.8L109.59 28.7L116.81 24.54L116.8 22.64L109.58 26.8Z" fill="#B8D6D3" fill-opacity="1.000000" fill-rule="nonzero"></path>
&#x9;&#x9;<path id="Vector" d="M106.29 26.8L106.29 28.7C106.8 28.96 107.36 29.1 107.94 29.1C108.51 29.1 109.07 28.96 109.58 28.7L109.58 26.8C109.07 27.06 108.51 27.2 107.94 27.2C107.37 27.2 106.81 27.06 106.3 26.8L106.29 26.8Z" fill="#B8D6D3" fill-opacity="1.000000" fill-rule="nonzero"></path>
&#x9;&#x9;<path id="Vector" d="M104.04 23.59C103.13 24.12 103.12 24.96 104.04 25.49L106.3 26.8C106.81 27.06 107.37 27.2 107.94 27.2C108.52 27.2 109.08 27.06 109.59 26.8L116.78 22.64C117.69 22.11 117.69 21.25 116.78 20.73L114.57 19.41C114.06 19.16 113.49 19.02 112.92 19.02C112.35 19.02 111.78 19.16 111.27 19.41L104.04 23.59Z" fill="#B8D6D3" fill-opacity="1.000000" fill-rule="nonzero"></path>
&#x9;&#x9;<path id="Vector" d="M117.24 18.6L113.96 20.51C113.12 21.04 112.39 21.75 111.84 22.58C111.28 23.4 110.91 24.34 110.73 25.32L114.01 23.42C114.18 22.43 114.56 21.5 115.12 20.67C115.67 19.84 116.4 19.14 117.24 18.6Z" fill="#B8D6D3" fill-opacity="1.000000" fill-rule="nonzero"></path>
&#x9;&#x9;<path id="Vector" d="M110.73 25.32L114 23.42C114.18 22.43 114.55 21.5 115.11 20.67C115.67 19.84 116.39 19.14 117.23 18.6L113.95 20.51C113.11 21.04 112.39 21.75 111.83 22.58C111.28 23.41 110.9 24.34 110.73 25.32Z" fill="#B8D6D3" fill-opacity="1.000000" fill-rule="nonzero"></path>
&#x9;&#x9;<path id="Vector" d="M114.57 14.02C123.7 8.71 139.28 23.52 141.45 39.27L138.18 41.17C136.02 25.45 120.46 10.61 111.3 15.93L114.57 14.02Z" fill="#A3CCC9" fill-opacity="1.000000" fill-rule="nonzero"></path>
&#x9;&#x9;<path id="Vector" d="M122.58 17.02C114.75 12.5 108.23 15.28 106.9 23.11L110.73 25.31C111.99 19.85 116.82 18.01 122.56 21.33C128.31 24.65 133.12 32.06 134.34 38.99L138.17 41.2C136.9 31.84 130.41 21.54 122.58 17.02Z" fill="#E0F3F1" fill-opacity="1.000000" fill-rule="nonzero"></path>
&#x9;&#x9;<path id="Vector" d="M176.49 51.53L156 63.48L156 63.48L156 67.44L155.83 122.31C155.83 123.78 155.31 124.83 154.46 125.33L174.96 113.41C175.8 112.93 176.32 111.88 176.33 110.4L176.49 51.53L176.49 51.53Z" fill="#A3CCC9" fill-opacity="1.000000" fill-rule="nonzero"></path>
&#x9;&#x9;<path id="Vector" d="M69.75 52.64C71.8 53.82 73.46 53.22 73.46 51.31L73.46 48.54C73.46 45.6 76 44.7 79.15 46.51L108.32 63.36C111.73 65.32 114.49 69.51 114.49 72.69L114.49 120.51C114.49 124.1 111.39 125.19 107.57 122.98L49.48 89.4C44.98 86.8 41.33 81.28 41.33 77.07L41.33 40.15C41.33 38 43.21 37.28 45.53 38.65L69.75 52.64Z" fill="#A3CCC9" fill-opacity="1.000000" fill-rule="nonzero"></path>
&#x9;&#x9;<path id="Vector" d="M111.22 109.57C109.07 91.26 107.76 72.89 111.22 56.3L53.43 27.1C53.43 27.1 60.06 92.11 60.06 91.21C60.06 90.3 111.22 109.57 111.22 109.57Z" fill="#C3DFDC" fill-opacity="1.000000" fill-rule="nonzero"></path>
&#x9;&#x9;<path id="Vector" d="M108.06 103.44C105.85 85.15 104.47 66.77 107.87 50.17L50.42 31.01C50.42 31.01 56.82 86.17 56.82 85.27C56.82 84.36 108.06 103.44 108.06 103.44Z" fill="#F0F9F8" fill-opacity="1.000000" fill-rule="nonzero"></path>
&#x9;&#x9;<path id="Vector" d="M61.71 58.42C63.75 59.6 65.16 59.19 64.84 57.5L64.38 55.05C63.89 52.46 66.04 51.83 69.18 53.61L98.35 70.45C101.76 72.43 104.96 76.3 105.49 79.12L113.39 121.35C113.99 124.51 111.37 125.27 107.54 123.06L49.48 89.55C44.98 86.95 40.77 81.83 40.06 78.11L33.94 45.47C33.58 43.56 35.16 43.09 37.48 44.43L61.71 58.42Z" fill="#B8D6D3" fill-opacity="1.000000" fill-rule="nonzero"></path>
&#x9;&#x9;<path id="Vector" d="M60.85 59.11C62.9 60.3 64.28 59.9 63.93 58.24L63.44 55.83C62.91 53.28 65.03 52.68 68.17 54.49L97.34 71.34C100.75 73.3 103.98 77.15 104.52 79.95L113.1 121.53C113.73 124.64 111.16 125.37 107.35 123.16L49.26 89.62C44.76 87.02 40.49 81.94 39.74 78.28L33.1 46.14C32.72 44.26 34.29 43.81 36.61 45.15L60.85 59.11Z" fill="#E0F3F1" fill-opacity="1.000000" fill-rule="nonzero"></path>
&#x9;&#x9;<g opacity="0.300000" style="mix-blend-mode:multiply">
&#x9;&#x9;&#x9;<path id="Vector" d="M53.68 82.48C74.07 87.26 93.18 84.59 103.04 76.69C103.74 77.66 104.26 78.76 104.56 79.92L113.13 121.5C113.77 124.61 111.19 125.34 107.39 123.13L49.3 89.59C44.79 86.99 40.53 81.91 39.77 78.25L39.72 77.98C44.24 79.85 48.92 81.36 53.68 82.48Z" fill="#E0F3F1" fill-opacity="1.000000" fill-rule="nonzero"></path>
&#x9;&#x9;</g>
&#x9;&#x9;<path id="Vector" d="M63.25 57.74C65.29 58.93 66.95 58.34 66.95 56.42L66.95 53.65C66.95 50.72 69.49 49.81 72.64 51.62L101.8 68.46C105.21 70.44 107.98 74.62 107.98 77.8L107.98 125.61C107.98 129.2 104.88 130.29 101.06 128.08L42.97 94.53C38.47 91.94 34.81 86.41 34.81 82.2L34.81 45.26C34.81 43.11 36.7 42.39 39.02 43.76L63.25 57.74Z" fill="#A3CCC9" fill-opacity="1.000000" fill-rule="nonzero"></path>
&#x9;&#x9;<path id="Vector" d="M104.68 114.68C102.53 96.38 101.21 77.99 104.68 61.4L46.89 32.21C46.89 32.21 53.51 97.22 53.51 96.32C53.51 95.41 104.68 114.68 104.68 114.68Z" fill="#C3DFDC" fill-opacity="1.000000" fill-rule="nonzero"></path>
&#x9;&#x9;<path id="Vector" d="M101.52 108.55C99.3 90.26 97.93 71.88 101.32 55.28L43.85 36.12C43.85 36.12 50.32 91.28 50.32 90.38C50.32 89.48 101.52 108.55 101.52 108.55Z" fill="#F0F9F8" fill-opacity="1.000000" fill-rule="nonzero"></path>
&#x9;&#x9;<path id="Vector" d="M55.16 63.55C57.21 64.73 58.61 64.32 58.29 62.63L57.83 60.18C57.35 57.59 59.5 56.96 62.64 58.75L91.8 75.59C95.22 77.55 98.42 81.44 98.94 84.25L106.84 126.48C107.43 129.63 104.82 130.4 100.99 128.2L42.9 94.65C38.4 92.05 34.19 86.93 33.48 83.21L27.35 50.57C26.99 48.66 28.58 48.19 30.9 49.53L55.16 63.55Z" fill="#B8D6D3" fill-opacity="1.000000" fill-rule="nonzero"></path>
&#x9;&#x9;<path id="Vector" d="M54.3 64.23C56.36 65.4 57.74 65.01 57.39 63.35L56.9 60.94C56.37 58.39 58.48 57.79 61.62 59.6L90.79 76.48C94.2 78.45 97.44 82.29 98.01 85.1L106.59 126.68C107.23 129.78 104.65 130.51 100.85 128.31L42.76 94.76C38.25 92.16 33.99 87.09 33.23 83.43L26.62 51.22C26.23 49.33 27.8 48.89 30.12 50.23L54.3 64.23Z" fill="#E0F3F1" fill-opacity="1.000000" fill-rule="nonzero"></path>
&#x9;&#x9;<g opacity="0.300000" style="mix-blend-mode:multiply">
&#x9;&#x9;&#x9;<path id="Vector" d="M47.14 87.59C67.52 92.38 86.64 89.71 96.49 81.79C97.2 82.76 97.71 83.86 98.01 85.03L106.59 126.62C107.23 129.72 104.65 130.45 100.85 128.24L42.76 94.7C38.25 92.1 33.99 87.03 33.23 83.36L33.18 83.08C37.7 84.97 42.37 86.47 47.14 87.59Z" fill="#E0F3F1" fill-opacity="1.000000" fill-rule="nonzero"></path>
&#x9;&#x9;</g>
&#x9;&#x9;<path id="Vector" d="M55.15 65.09C57.2 66.27 58.86 65.68 58.86 63.77L58.86 60.99C58.86 58.06 61.4 57.15 64.54 58.96L93.71 75.81C97.12 77.78 99.89 81.96 99.89 85.15L99.89 132.96C99.89 136.55 96.79 137.64 92.97 135.43L34.88 101.89C30.37 99.29 26.73 93.76 26.73 89.55L26.73 52.61C26.73 50.45 28.61 49.73 30.93 51.1L55.15 65.09Z" fill="#A3CCC9" fill-opacity="1.000000" fill-rule="nonzero"></path>
&#x9;&#x9;<path id="Vector" d="M96.61 122.02C94.46 103.72 93.15 85.34 96.61 68.75L38.83 39.55C38.83 39.55 45.45 104.56 45.45 103.66C45.45 102.75 96.61 122.02 96.61 122.02Z" fill="#C3DFDC" fill-opacity="1.000000" fill-rule="nonzero"></path>
&#x9;&#x9;<path id="Vector" d="M93.46 115.9C91.25 97.6 89.87 79.23 93.26 62.62L35.81 43.46C35.81 43.46 42.22 98.62 42.22 97.72C42.22 96.81 93.46 115.9 93.46 115.9Z" fill="#F0F9F8" fill-opacity="1.000000" fill-rule="nonzero"></path>
&#x9;&#x9;<path id="Vector" d="M47.1 70.87C49.15 72.05 50.56 71.64 50.23 69.95L49.77 67.5C49.28 64.91 51.44 64.28 54.58 66.06L83.75 82.94C87.16 84.92 90.35 88.79 90.89 91.61L98.79 133.83C99.38 136.99 96.76 137.75 92.94 135.55L34.88 102C30.38 99.4 26.16 94.28 25.46 90.56L19.33 57.92C18.97 56.01 20.56 55.54 22.88 56.88L47.1 70.87Z" fill="#B8D6D3" fill-opacity="1.000000" fill-rule="nonzero"></path>
&#x9;&#x9;<path id="Vector" d="M46.25 71.57C48.29 72.75 49.67 72.36 49.33 70.69L48.83 68.28C48.31 65.73 50.42 65.13 53.56 66.94L82.73 83.79C86.14 85.76 89.38 89.61 89.95 92.41L98.52 133.99C99.16 137.1 96.59 137.82 92.78 135.62L34.68 102.04C30.21 99.46 25.9 94.37 25.18 90.7L18.55 58.56C18.17 56.68 19.73 56.23 22.05 57.58L46.25 71.57Z" fill="#E0F3F1" fill-opacity="1.000000" fill-rule="nonzero"></path>
&#x9;&#x9;<g opacity="0.300000" style="mix-blend-mode:multiply">
&#x9;&#x9;&#x9;<path id="Vector" d="M39.08 94.93C59.46 99.72 78.58 97.04 88.43 89.14C89.14 90.11 89.65 91.21 89.95 92.38L98.53 133.96C99.16 137.07 96.59 137.79 92.78 135.59L34.68 102.04C30.21 99.46 25.9 94.37 25.18 90.7L25.13 90.43C29.65 92.3 34.31 93.81 39.08 94.93Z" fill="#C3DFDC" fill-opacity="1.000000" fill-rule="nonzero"></path>
&#x9;&#x9;</g>
&#x9;</g>
</svg>