<svg width="195.000000" height="140.000000" viewBox="0 0 195 140" fill="none" xmlns="http://www.w3.org/2000/svg" xmlns:xlink="http://www.w3.org/1999/xlink">
&#x9;<desc>
&#x9;&#x9;&#x9;Created with Pixso.
&#x9;</desc>
&#x9;<defs>
&#x9;&#x9;<clipPath id="clip201_8453">
&#x9;&#x9;&#x9;<rect id="ecm-pipeline" width="195.000000" height="140.000000" fill="white" fill-opacity="0"></rect>
&#x9;&#x9;</clipPath>
&#x9;</defs>
&#x9;<g clip-path="url(#clip201_8453)">
&#x9;&#x9;<path id="polygon" d="M76.39 15.42L14.43 51.2L14.43 67.14L76.39 31.37L76.39 15.42Z" fill="#8FC2BE" fill-opacity="1.000000" fill-rule="nonzero"></path>
&#x9;&#x9;<path id="polygon" d="M116.77 38.74L113.95 42L92.9 29.85L90.08 23.33L76.39 15.42L76.39 31.37L130.46 62.59L130.46 46.64L116.77 38.74Z" fill="#74B4AF" fill-opacity="1.000000" fill-rule="nonzero"></path>
&#x9;&#x9;<path id="polygon" d="M158.77 75.57L138.64 63.94L75.14 100.6L95.28 112.22L158.77 75.57Z" fill="#A3CCC9" fill-opacity="1.000000" fill-rule="nonzero"></path>
&#x9;&#x9;<path id="polygon" d="M158.77 75.57L95.28 112.22L117.07 124.8L180.56 88.15L158.77 75.57Z" fill="#F0F9F8" fill-opacity="1.000000" fill-rule="nonzero"></path>
&#x9;&#x9;<path id="polygon" d="M115.57 113.03L112.22 114.96L111.72 114.67L115.07 112.74L115.57 113.03Z" fill="#8FC2BE" fill-opacity="1.000000" fill-rule="nonzero"></path>
&#x9;&#x9;<path id="polygon" d="M118.41 111.39L116.25 112.64L115.74 112.34L117.9 111.1L118.41 111.39Z" fill="#8FC2BE" fill-opacity="1.000000" fill-rule="nonzero"></path>
&#x9;&#x9;<path id="polygon" d="M118.58 110.71L119.08 111L121.2 109.78L120.7 109.48L118.58 110.71Z" fill="#8FC2BE" fill-opacity="1.000000" fill-rule="nonzero"></path>
&#x9;&#x9;<path id="polygon" d="M122.63 108.95L121.88 109.38L121.37 109.09L122.12 108.66L122.63 108.95Z" fill="#8FC2BE" fill-opacity="1.000000" fill-rule="nonzero"></path>
&#x9;&#x9;<path id="polygon" d="M115.49 114.65L113.63 115.72L113.13 115.43L114.99 114.36L115.49 114.65Z" fill="#8FC2BE" fill-opacity="1.000000" fill-rule="nonzero"></path>
&#x9;&#x9;<path id="polygon" d="M118.23 113.07L116.17 114.26L115.66 113.97L117.73 112.77L118.23 113.07Z" fill="#8FC2BE" fill-opacity="1.000000" fill-rule="nonzero"></path>
&#x9;&#x9;<path id="polygon" d="M118.41 112.38L118.91 112.67L120.74 111.62L120.24 111.33L118.41 112.38Z" fill="#8FC2BE" fill-opacity="1.000000" fill-rule="nonzero"></path>
&#x9;&#x9;<path id="polygon" d="M123.99 109.74L121.42 111.23L120.92 110.94L123.49 109.45L123.99 109.74Z" fill="#8FC2BE" fill-opacity="1.000000" fill-rule="nonzero"></path>
&#x9;&#x9;<path id="polygon" d="M109.92 109.69L106.57 111.63L106.07 111.34L109.42 109.4L109.92 109.69Z" fill="#8FC2BE" fill-opacity="1.000000" fill-rule="nonzero"></path>
&#x9;&#x9;<path id="polygon" d="M112.76 108.05L110.6 109.3L110.09 109.01L112.26 107.76L112.76 108.05Z" fill="#8FC2BE" fill-opacity="1.000000" fill-rule="nonzero"></path>
&#x9;&#x9;<path id="polygon" d="M112.93 107.37L113.44 107.66L115.55 106.44L115.05 106.15L112.93 107.37Z" fill="#8FC2BE" fill-opacity="1.000000" fill-rule="nonzero"></path>
&#x9;&#x9;<path id="polygon" d="M109.84 111.32L107.98 112.39L107.48 112.1L109.34 111.02L109.84 111.32Z" fill="#8FC2BE" fill-opacity="1.000000" fill-rule="nonzero"></path>
&#x9;&#x9;<path id="polygon" d="M112.59 109.73L110.52 110.92L110.02 110.63L112.08 109.44L112.59 109.73Z" fill="#8FC2BE" fill-opacity="1.000000" fill-rule="nonzero"></path>
&#x9;&#x9;<path id="polygon" d="M112.76 109.05L113.26 109.34L115.1 108.28L114.59 107.99L112.76 109.05Z" fill="#8FC2BE" fill-opacity="1.000000" fill-rule="nonzero"></path>
&#x9;&#x9;<path id="polygon" d="M128.95 105.25L125.6 107.18L125.1 106.89L128.45 104.96L128.95 105.25Z" fill="#8FC2BE" fill-opacity="1.000000" fill-rule="nonzero"></path>
&#x9;&#x9;<path id="polygon" d="M130.58 104.31L129.63 104.86L129.12 104.57L130.08 104.02L130.58 104.31Z" fill="#8FC2BE" fill-opacity="1.000000" fill-rule="nonzero"></path>
&#x9;&#x9;<path id="polygon" d="M128.87 106.87L127.01 107.95L126.51 107.66L128.37 106.58L128.87 106.87Z" fill="#8FC2BE" fill-opacity="1.000000" fill-rule="nonzero"></path>
&#x9;&#x9;<path id="polygon" d="M131.95 105.1L129.55 106.48L129.04 106.19L131.44 104.81L131.95 105.1Z" fill="#8FC2BE" fill-opacity="1.000000" fill-rule="nonzero"></path>
&#x9;&#x9;<path id="polygon" d="M120.52 91.75L112.58 96.34L111.38 95.65L119.33 91.06L120.52 91.75Z" fill="#8FC2BE" fill-opacity="1.000000" fill-rule="nonzero"></path>
&#x9;&#x9;<path id="polygon" d="M127.25 87.86L122.12 90.82L120.93 90.13L126.06 87.17L127.25 87.86Z" fill="#8FC2BE" fill-opacity="1.000000" fill-rule="nonzero"></path>
&#x9;&#x9;<path id="polygon" d="M127.66 86.25L128.86 86.94L133.87 84.04L132.68 83.35L127.66 86.25Z" fill="#8FC2BE" fill-opacity="1.000000" fill-rule="nonzero"></path>
&#x9;&#x9;<path id="Cube_face_-_left" d="M64.21 90.09L124.43 55.32L124.43 49.81L64.21 84.57L64.21 90.09Z" fill="#D8EDEB" fill-opacity="1.000000" fill-rule="nonzero"></path>
&#x9;&#x9;<path id="polygon" d="M38.98 70.01L38.98 75.53L64.21 90.09L64.21 84.57L38.98 70.01Z" fill="#A3CCC9" fill-opacity="1.000000" fill-rule="nonzero"></path>
&#x9;&#x9;<path id="Cube_face_-_right" d="M21.7 65.55L40.15 76.2L40.15 70.68L21.7 60.03L21.7 65.55Z" fill="#8FC2BE" fill-opacity="1.000000" fill-rule="nonzero"></path>
&#x9;&#x9;<path id="Cube_face_-_top" d="M64.21 84.57L124.43 49.81L81.92 25.26L21.7 60.03L64.21 84.57Z" fill="#F0F9F8" fill-opacity="1.000000" fill-rule="nonzero"></path>
&#x9;&#x9;<path id="Cube_face_-_top-2" d="M65.16 85.02L125.38 50.25L82.87 25.71L22.65 60.47L65.16 85.02Z" fill="#F0F9F8" fill-opacity="1.000000" fill-rule="nonzero"></path>
&#x9;&#x9;<path id="Cube_face_-_left-2" d="M64.21 84.83L124.43 50.06L124.43 48.1L64.21 82.87L64.21 84.83Z" fill="#D8EDEB" fill-opacity="1.000000" fill-rule="nonzero"></path>
&#x9;&#x9;<path id="Cube_face_-_top-3" d="M64.21 82.87L124.43 48.1L81.92 23.56L21.7 58.33L64.21 82.87Z" fill="#F0F9F8" fill-opacity="1.000000" fill-rule="nonzero"></path>
&#x9;&#x9;<path id="Cube_face_-_left-3" d="M64.21 83.31L124.43 48.55L124.43 44.81L64.21 79.57L64.21 83.31Z" fill="#D8EDEB" fill-opacity="1.000000" fill-rule="nonzero"></path>
&#x9;&#x9;<path id="polygon" d="M39.17 65.12L39.17 70.37L64.21 84.83L64.21 79.57L39.17 65.12Z" fill="#B7DDD9" fill-opacity="1.000000" fill-rule="nonzero"></path>
&#x9;&#x9;<path id="polygon" d="M40.16 65.69L21.7 55.03L21.7 60.29L40.16 70.95L40.16 65.69Z" fill="#B7DDD9" fill-opacity="1.000000" fill-rule="nonzero"></path>
&#x9;&#x9;<path id="Cube_face_-_top-4" d="M64.21 80.15L124.43 45.38L99.66 31.08L39.44 65.85L64.21 80.15Z" fill="#A3CCC9" fill-opacity="1.000000" fill-rule="nonzero"></path>
&#x9;&#x9;<path id="Cube_face_-_top-5" d="M40.17 66.27L100.39 31.5L81.92 20.84L21.7 55.6L40.17 66.27Z" fill="#A3CCC9" fill-opacity="1.000000" fill-rule="nonzero"></path>
&#x9;&#x9;<path id="Cube_face_-_left-4" d="M64.21 79.57L124.43 44.81L124.43 39.73L64.21 74.5L64.21 79.57Z" fill="#D8EDEB" fill-opacity="1.000000" fill-rule="nonzero"></path>
&#x9;&#x9;<path id="polygon" d="M39.54 60.26L39.54 65.33L64.21 79.57L64.21 74.5L39.54 60.26Z" fill="#B7DDD9" fill-opacity="1.000000" fill-rule="nonzero"></path>
&#x9;&#x9;<path id="Cube_face_-_right-2" d="M21.7 55.03L40.17 65.69L40.17 60.62L21.7 49.96L21.7 55.03Z" fill="#B7DDD9" fill-opacity="1.000000" fill-rule="nonzero"></path>
&#x9;&#x9;<path id="Cube_face_-_top-6" d="M64.21 74.5L124.43 39.73L99.66 25.43L39.44 60.2L64.21 74.5Z" fill="#F0F9F8" fill-opacity="1.000000" fill-rule="nonzero"></path>
&#x9;&#x9;<path id="Cube_face_-_top-7" d="M40.17 60.62L100.39 25.85L81.92 15.19L21.7 49.96L40.17 60.62Z" fill="#A3CCC9" fill-opacity="1.000000" fill-rule="nonzero"></path>
&#x9;&#x9;<path id="polygon" d="M64.57 62.36L60.59 64.66L59.99 64.31L63.97 62.01L64.57 62.36Z" fill="#8FC2BE" fill-opacity="1.000000" fill-rule="nonzero"></path>
&#x9;&#x9;<path id="polygon" d="M67.95 60.41L65.38 61.89L64.78 61.55L67.35 60.06L67.95 60.41Z" fill="#8FC2BE" fill-opacity="1.000000" fill-rule="nonzero"></path>
&#x9;&#x9;<path id="polygon" d="M68.16 59.6L68.75 59.94L71.27 58.49L70.67 58.15L68.16 59.6Z" fill="#8FC2BE" fill-opacity="1.000000" fill-rule="nonzero"></path>
&#x9;&#x9;<path id="polygon" d="M72.97 57.51L72.08 58.03L71.48 57.68L72.37 57.16L72.97 57.51Z" fill="#8FC2BE" fill-opacity="1.000000" fill-rule="nonzero"></path>
&#x9;&#x9;<path id="polygon" d="M64.48 64.29L62.27 65.57L61.67 65.22L63.88 63.94L64.48 64.29Z" fill="#8FC2BE" fill-opacity="1.000000" fill-rule="nonzero"></path>
&#x9;&#x9;<path id="polygon" d="M67.74 62.41L65.28 63.83L64.68 63.48L67.14 62.06L67.74 62.41Z" fill="#8FC2BE" fill-opacity="1.000000" fill-rule="nonzero"></path>
&#x9;&#x9;<path id="polygon" d="M67.95 61.6L68.55 61.94L70.73 60.68L70.13 60.34L67.95 61.6Z" fill="#8FC2BE" fill-opacity="1.000000" fill-rule="nonzero"></path>
&#x9;&#x9;<path id="polygon" d="M74.6 58.45L71.53 60.22L70.94 59.87L74 58.1L74.6 58.45Z" fill="#8FC2BE" fill-opacity="1.000000" fill-rule="nonzero"></path>
&#x9;&#x9;<path id="polygon" d="M57.85 58.39L53.87 60.69L53.27 60.35L57.25 58.05L57.85 58.39Z" fill="#8FC2BE" fill-opacity="1.000000" fill-rule="nonzero"></path>
&#x9;&#x9;<path id="polygon" d="M61.23 56.44L58.66 57.93L58.06 57.58L60.63 56.1L61.23 56.44Z" fill="#8FC2BE" fill-opacity="1.000000" fill-rule="nonzero"></path>
&#x9;&#x9;<path id="polygon" d="M61.44 55.63L62.03 55.98L64.55 54.52L63.95 54.18L61.44 55.63Z" fill="#8FC2BE" fill-opacity="1.000000" fill-rule="nonzero"></path>
&#x9;&#x9;<path id="polygon" d="M57.76 60.32L55.55 61.6L54.95 61.26L57.16 59.98L57.76 60.32Z" fill="#8FC2BE" fill-opacity="1.000000" fill-rule="nonzero"></path>
&#x9;&#x9;<path id="polygon" d="M61.02 58.44L58.56 59.86L57.96 59.51L60.42 58.09L61.02 58.44Z" fill="#8FC2BE" fill-opacity="1.000000" fill-rule="nonzero"></path>
&#x9;&#x9;<path id="polygon" d="M61.23 57.63L61.83 57.97L64.01 56.71L63.41 56.37L61.23 57.63Z" fill="#8FC2BE" fill-opacity="1.000000" fill-rule="nonzero"></path>
&#x9;&#x9;<path id="polygon" d="M80.49 53.11L76.51 55.41L75.91 55.06L79.89 52.76L80.49 53.11Z" fill="#8FC2BE" fill-opacity="1.000000" fill-rule="nonzero"></path>
&#x9;&#x9;<path id="polygon" d="M82.43 51.98L81.3 52.64L80.7 52.29L81.84 51.64L82.43 51.98Z" fill="#8FC2BE" fill-opacity="1.000000" fill-rule="nonzero"></path>
&#x9;&#x9;<path id="polygon" d="M80.4 55.04L78.18 56.31L77.59 55.97L79.8 54.69L80.4 55.04Z" fill="#8FC2BE" fill-opacity="1.000000" fill-rule="nonzero"></path>
&#x9;&#x9;<path id="polygon" d="M84.06 52.92L81.2 54.57L80.6 54.23L83.46 52.58L84.06 52.92Z" fill="#8FC2BE" fill-opacity="1.000000" fill-rule="nonzero"></path>
&#x9;&#x9;<path id="polygon" d="M63.75 40.79L55.8 45.38L54.61 44.69L62.55 40.1L63.75 40.79Z" fill="#8FC2BE" fill-opacity="1.000000" fill-rule="nonzero"></path>
&#x9;&#x9;<path id="polygon" d="M70.48 36.9L65.35 39.86L64.16 39.18L69.28 36.22L70.48 36.9Z" fill="#8FC2BE" fill-opacity="1.000000" fill-rule="nonzero"></path>
&#x9;&#x9;<path id="polygon" d="M70.89 35.29L72.08 35.98L77.1 33.08L75.9 32.39L70.89 35.29Z" fill="#8FC2BE" fill-opacity="1.000000" fill-rule="nonzero"></path>
&#x9;&#x9;<path id="polygon" d="M130.46 46.64L68.5 82.41L68.5 98.36L130.46 62.59L130.46 46.64Z" fill="#C3DFDC" fill-opacity="1.000000" fill-rule="nonzero"></path>
&#x9;&#x9;<path id="polygon" d="M54.81 74.51L51.99 77.78L30.94 65.62L28.12 59.1L14.43 51.2L14.43 67.14L68.5 98.36L68.5 82.41L54.81 74.51Z" fill="#F0F9F8" fill-opacity="1.000000" fill-rule="nonzero"></path>
&#x9;&#x9;<path id="path" d="M111.68 43.01L119.92 45.51L115.88 46.06L117.52 48.25L109.95 45.96C110.08 45.89 110.22 45.7 110.2 45.58L110.18 45.47C110.16 45.36 110.23 45.25 110.36 45.17C110.44 45.13 110.53 45.09 110.64 45.08L110.83 45.05C110.94 45.03 111.03 45 111.11 44.96C111.25 44.88 111.32 44.76 111.28 44.64C111.35 44.66 111.41 44.69 111.48 44.71L111.69 44.79L111.8 44.83L111.91 44.87C112.05 44.92 112.2 44.97 112.34 45.02C112.48 45.07 112.63 45.12 112.77 45.16C112.91 45.21 113.06 45.25 113.2 45.3C113.35 45.35 113.49 45.39 113.64 45.43L113.86 45.5L114.08 45.56C114.15 45.58 114.23 45.6 114.3 45.62C114.38 45.64 114.45 45.66 114.53 45.68C114.68 45.72 114.83 45.76 114.99 45.8C114.86 45.73 114.67 45.73 114.53 45.68C114.46 45.65 114.37 45.65 114.3 45.62C114.23 45.59 114.15 45.59 114.08 45.56L113.95 45.4L113.74 45.33C113.6 45.28 113.45 45.23 113.31 45.19C113.17 45.14 113.02 45.1 112.87 45.05C112.72 45.01 112.58 44.96 112.43 44.92C112.28 44.88 112.06 44.91 111.91 44.87L111.8 44.83L111.69 44.79L111.48 44.71C111.39 44.68 111.37 44.67 111.28 44.64C111.19 44.5 111.22 44.26 111.39 44.16C111.42 44.14 111.46 44.12 111.5 44.11L111.71 44.03C111.71 44.03 111.79 44 111.82 43.98C111.86 43.95 111.9 43.93 111.93 43.9C111.99 43.83 112.02 43.75 112 43.67C111.99 43.61 111.94 43.55 111.87 43.49L111.77 43.42C111.62 43.31 111.58 43.14 111.68 43.01Z" fill="#A3CCC9" fill-opacity="1.000000" fill-rule="nonzero"></path>
&#x9;&#x9;<path id="path" d="M104.95 47C105.19 46.86 105.54 46.85 105.81 46.95L105.95 47.01C106.22 47.12 106.57 47.1 106.79 46.97C106.83 46.95 106.86 46.92 106.89 46.89L107.01 46.77C107.01 46.77 107.07 46.71 107.11 46.69C107.2 46.64 107.32 46.6 107.44 46.59C107.52 46.68 107.61 46.78 107.68 46.87L107.79 47L107.9 47.12C107.97 47.21 108.05 47.29 108.13 47.37C108.21 47.45 108.28 47.54 108.36 47.62C108.44 47.7 108.52 47.79 108.6 47.87C108.68 47.95 108.77 48.04 108.85 48.12L108.98 48.24L109.11 48.36C109.11 48.36 109.2 48.44 109.24 48.48C109.28 48.52 109.33 48.56 109.38 48.6C109.47 48.68 109.56 48.76 109.66 48.84C109.61 48.75 109.55 48.66 109.48 48.57C109.45 48.53 109.41 48.48 109.37 48.44C109.33 48.4 109.3 48.35 109.26 48.31L109.15 48.18L109.04 48.05C108.96 47.97 108.89 47.88 108.81 47.8C108.73 47.72 108.65 47.63 108.56 47.55C108.48 47.47 108.39 47.38 108.31 47.3C108.23 47.22 108.14 47.14 108.05 47.05L107.91 46.93L107.78 46.81C107.69 46.73 107.53 46.67 107.44 46.59C107.51 46.59 107.66 46.56 107.73 46.57L107.89 46.6C108.13 46.64 108.37 46.6 108.52 46.51C108.62 46.45 108.68 46.38 108.7 46.29C108.72 46.2 108.78 46.12 108.88 46.07C109 46 109.16 45.96 109.33 45.96L109.54 45.96C109.67 45.96 109.78 45.94 109.88 45.91L113.93 50.28L110.12 49.35L109.17 51.68L104.95 47Z" fill="#A3CCC9" fill-opacity="1.000000" fill-rule="nonzero"></path>
&#x9;&#x9;<path id="path" d="M110 40.03L110.11 40.03C110.48 40.06 110.75 40.25 110.71 40.47L110.67 40.68C110.65 40.81 110.73 40.91 110.86 41C110.93 41.04 111.02 41.07 111.11 41.1C111.21 41.13 111.34 41.16 111.4 41.2C111.62 41.33 111.68 41.53 111.5 41.69C111.31 41.85 111.38 42.08 111.65 42.2L111.8 42.27C111.89 42.31 111.96 42.37 112.01 42.43C112.07 42.51 112.08 42.61 112.03 42.7C112.01 42.74 111.97 42.78 111.92 42.82L111.75 42.94C111.66 43.06 111.59 43.29 111.74 43.41L111.84 43.48C111.91 43.54 111.96 43.6 111.97 43.66C111.99 43.74 111.97 43.82 111.9 43.89C111.87 43.92 111.84 43.95 111.79 43.97C111.76 43.99 111.72 44.01 111.68 44.02L111.47 44.1C111.47 44.1 111.39 44.13 111.36 44.15C111.19 44.25 111.13 44.4 111.21 44.54C111.21 44.54 111.27 44.63 111.27 44.65C111.31 44.77 111.24 44.89 111.1 44.97C111.03 45.01 110.93 45.05 110.82 45.06L110.63 45.09C110.52 45.11 110.43 45.14 110.35 45.18C110.22 45.25 110.15 45.36 110.17 45.48L110.19 45.59C110.21 45.71 110.14 45.81 110.01 45.89C109.98 45.91 109.95 45.92 109.91 45.94C109.8 45.98 109.68 46 109.55 46L109.34 46C109.16 46 109 46.04 108.89 46.11C108.79 46.17 108.73 46.24 108.71 46.33C108.69 46.42 108.63 46.5 108.53 46.55C108.37 46.64 108.14 46.68 107.9 46.64L107.74 46.61C107.67 46.6 107.59 46.59 107.52 46.6C107.39 46.61 107.2 46.65 107.11 46.7C107.07 46.72 107.04 46.75 107.01 46.78L106.89 46.9C106.89 46.9 106.83 46.96 106.79 46.98C106.58 47.1 106.22 47.12 105.95 47.02L105.81 46.96C105.54 46.85 105.19 46.87 104.97 47L104.79 47.11C104.51 47.27 104.07 47.26 103.81 47.09L103.71 47.03C103.49 46.89 103.14 46.85 102.87 46.94L102.75 46.98C102.43 47.09 102 47.01 101.82 46.82L101.72 46.72C101.57 46.56 101.24 46.47 100.94 46.52L100.76 46.55C100.36 46.61 99.95 46.45 99.91 46.21C99.87 46 99.56 45.84 99.21 45.85L99.04 45.85C98.65 45.85 98.32 45.67 98.34 45.44L98.34 45.31C98.37 45.13 98.16 44.96 97.86 44.91L97.69 44.88C97.29 44.81 97.08 44.55 97.26 44.34C97.41 44.16 97.31 43.9 97.01 43.8C96.64 43.68 96.47 43.36 96.75 43.18C96.94 43.06 97.01 42.84 96.86 42.7L96.65 42.56C96.56 42.51 96.5 42.45 96.46 42.39C96.39 42.26 96.44 42.11 96.61 42.01L96.79 41.93C97 41.81 97.11 41.59 96.94 41.43C96.77 41.27 96.77 41.05 96.98 40.93C97.04 40.9 97.11 40.87 97.2 40.85L97.31 40.83C97.4 40.81 97.47 40.78 97.53 40.75C97.68 40.66 97.75 40.53 97.7 40.4L97.66 40.29C97.61 40.16 97.68 40.03 97.83 39.94C97.93 39.88 98.07 39.84 98.24 39.83L98.35 39.83C98.51 39.82 98.65 39.78 98.76 39.72C98.82 39.69 98.86 39.65 98.9 39.6C98.93 39.56 98.94 39.52 98.95 39.48L98.95 39.37C98.97 39.28 99.04 39.19 99.14 39.13C99.27 39.05 99.46 39.01 99.66 39.03L99.96 39.05C100.16 39.06 100.35 39.02 100.48 38.95C100.54 38.91 100.6 38.87 100.63 38.81L100.7 38.7C100.73 38.65 100.78 38.6 100.85 38.57C101.03 38.47 101.32 38.43 101.58 38.5L101.74 38.54C101.99 38.6 102.28 38.57 102.47 38.47L102.67 38.33C102.91 38.19 103.35 38.16 103.62 38.3L103.75 38.37C104.01 38.51 104.41 38.51 104.65 38.37C104.95 38.2 105.53 38.2 105.75 38.41C105.93 38.57 106.38 38.72 106.68 38.65L106.78 38.62C107.14 38.53 107.57 38.64 107.69 38.87C107.79 39.06 108.16 39.25 108.49 39.22L108.63 39.22C109.02 39.16 109.38 39.34 109.42 39.56L109.44 39.68C109.47 39.86 109.68 40 110 40.03ZM108.8 45.35C111.23 43.95 111.14 41.63 108.61 40.18C106.08 38.73 102.04 38.68 99.62 40.09C97.19 41.49 97.28 43.81 99.81 45.26C102.34 46.71 106.38 46.75 108.8 45.35Z" fill="#8FC2BE" fill-opacity="1.000000" fill-rule="nonzero"></path>
&#x9;&#x9;<path id="path" d="M110.42 43.65C110.45 43.58 110.47 43.51 110.49 43.44C110.5 43.38 110.53 43.28 110.54 43.23C110.55 43.16 110.56 43.08 110.57 43.01C110.57 43 110.57 42.89 110.57 42.88C110.57 42.85 110.57 42.77 110.57 42.74C110.55 42.53 110.51 42.29 110.43 42.09C110.4 42 110.36 41.92 110.32 41.83C110.31 41.81 110.26 41.7 110.25 41.68C110.25 41.67 110.19 41.58 110.18 41.57C110.16 41.55 110.08 41.43 110.06 41.41C109.92 41.23 109.69 40.98 109.5 40.81C109.27 40.62 108.92 40.36 108.62 40.19C107.47 39.53 106.02 39.16 104.54 39.09C104.44 39.09 104.34 39.09 104.23 39.08C103.72 39.07 103.21 39.09 102.72 39.15C102.62 39.16 102.52 39.17 102.42 39.19C102.37 39.19 102.32 39.2 102.27 39.21C102.07 39.24 101.88 39.28 101.69 39.32C101.6 39.34 101.5 39.36 101.41 39.39C101.18 39.45 100.95 39.52 100.73 39.6C100.69 39.62 100.64 39.63 100.6 39.65C100.25 39.78 99.92 39.93 99.62 40.11C99.22 40.34 98.89 40.59 98.63 40.87C98.56 40.94 98.49 41.02 98.43 41.1C98.4 41.14 98.37 41.17 98.34 41.21C98.31 41.25 98.29 41.29 98.26 41.33C98.24 41.36 98.17 41.47 98.16 41.5C98.16 41.51 98.11 41.61 98.1 41.62C98.06 41.7 98.01 41.8 97.99 41.88C97.96 41.96 97.94 42.07 97.92 42.15C97.88 42.35 97.87 42.6 97.89 42.8C97.92 43.05 98.01 43.39 98.14 43.63C98.15 43.66 98.19 43.73 98.21 43.76C98.24 43.8 98.28 43.88 98.31 43.93C98.34 43.97 98.4 44.05 98.43 44.1C98.46 44.14 98.53 44.22 98.56 44.26C98.87 44.61 99.33 44.98 99.84 45.28C100.39 45.6 101.02 45.85 101.68 46.03C101.78 46.06 101.87 46.08 101.97 46.1C102.16 46.15 102.36 46.19 102.56 46.22C102.61 46.22 102.66 46.24 102.71 46.25C102.81 46.27 102.91 46.28 103.01 46.29C103.11 46.3 103.21 46.32 103.31 46.33C103.71 46.37 104.12 46.39 104.53 46.39C104.63 46.39 104.73 46.39 104.83 46.39C104.88 46.39 104.93 46.39 104.98 46.39C105.03 46.39 105.09 46.39 105.14 46.39C105.33 46.38 105.53 46.36 105.72 46.34C105.78 46.34 105.84 46.33 105.9 46.32C106.04 46.3 106.17 46.28 106.3 46.26C106.48 46.23 106.69 46.19 106.86 46.15C106.93 46.13 107.06 46.1 107.13 46.08C107.6 45.95 108.12 45.76 108.53 45.55C108.57 45.53 108.61 45.51 108.65 45.49C108.71 45.46 108.76 45.43 108.82 45.4C108.92 45.34 109.02 45.28 109.11 45.22C109.12 45.22 109.2 45.16 109.21 45.15C109.21 45.15 109.3 45.09 109.31 45.08C109.33 45.06 109.45 44.97 109.47 44.95C109.51 44.92 109.57 44.87 109.61 44.84C109.85 44.63 110.04 44.4 110.19 44.17C110.27 44.05 110.36 43.88 110.41 43.75C110.41 43.74 110.41 43.66 110.42 43.65ZM108.61 45.24C106.28 46.58 102.41 46.54 99.99 45.15C97.56 43.76 97.48 41.53 99.81 40.19C102.14 38.85 106.01 38.89 108.43 40.28C110.86 41.67 110.94 43.9 108.61 45.24Z" fill="#F0F9F8" fill-opacity="1.000000" fill-rule="nonzero"></path>
&#x9;&#x9;<path id="path" d="M99.8 40.19C102.13 38.85 106 38.89 108.42 40.28C110.85 41.67 110.93 43.9 108.6 45.24C106.27 46.58 102.4 46.54 99.98 45.15C97.55 43.76 97.47 41.53 99.8 40.19Z" fill="#A3CCC9" fill-opacity="1.000000" fill-rule="nonzero"></path>
&#x9;&#x9;<path id="path" d="M169.68 91.01L177.92 93.51L173.88 94.06L175.52 96.25L167.95 93.96C168.08 93.89 168.22 93.7 168.2 93.58L168.18 93.47C168.16 93.36 168.23 93.25 168.36 93.17C168.44 93.13 168.53 93.09 168.64 93.08L168.83 93.05C168.94 93.03 169.03 93 169.11 92.96C169.25 92.88 169.32 92.76 169.28 92.64C169.35 92.66 169.41 92.69 169.48 92.71L169.69 92.79L169.8 92.83L169.91 92.87C170.05 92.92 170.2 92.97 170.34 93.02C170.48 93.07 170.63 93.12 170.77 93.16C170.91 93.21 171.06 93.25 171.2 93.3C171.35 93.35 171.49 93.39 171.64 93.43L171.86 93.5L172.08 93.56C172.15 93.58 172.23 93.6 172.3 93.62C172.38 93.64 172.45 93.66 172.53 93.68C172.68 93.72 172.83 93.76 172.99 93.8C172.86 93.73 172.67 93.73 172.53 93.68C172.46 93.65 172.37 93.65 172.3 93.62C172.23 93.59 172.15 93.59 172.08 93.56L171.95 93.4L171.74 93.33C171.6 93.28 171.45 93.23 171.31 93.19C171.17 93.14 171.02 93.1 170.87 93.05C170.72 93.01 170.58 92.96 170.43 92.92C170.28 92.88 170.06 92.91 169.91 92.87L169.8 92.83L169.69 92.79L169.48 92.71C169.39 92.68 169.37 92.67 169.28 92.64C169.19 92.5 169.22 92.26 169.39 92.16C169.42 92.14 169.46 92.12 169.5 92.11L169.71 92.03C169.71 92.03 169.79 92 169.82 91.98C169.86 91.95 169.9 91.93 169.93 91.9C169.99 91.83 170.02 91.75 170 91.67C169.99 91.61 169.94 91.55 169.87 91.49L169.77 91.42C169.62 91.31 169.58 91.14 169.68 91.01Z" fill="#A3CCC9" fill-opacity="1.000000" fill-rule="nonzero"></path>
&#x9;&#x9;<path id="path" d="M162.95 95C163.19 94.86 163.54 94.85 163.81 94.95L163.95 95.01C164.22 95.12 164.57 95.1 164.79 94.97C164.83 94.95 164.86 94.92 164.89 94.89L165.01 94.77C165.01 94.77 165.07 94.71 165.11 94.69C165.2 94.64 165.32 94.6 165.44 94.59C165.52 94.68 165.61 94.78 165.68 94.87L165.79 95L165.9 95.12C165.97 95.21 166.05 95.29 166.13 95.37C166.21 95.45 166.28 95.54 166.36 95.62C166.44 95.7 166.52 95.79 166.6 95.87C166.68 95.95 166.77 96.04 166.85 96.12L166.98 96.24L167.11 96.36C167.11 96.36 167.2 96.44 167.24 96.48C167.28 96.52 167.33 96.56 167.38 96.6C167.47 96.68 167.56 96.76 167.66 96.84C167.61 96.75 167.55 96.66 167.48 96.57C167.45 96.53 167.41 96.48 167.37 96.44C167.33 96.4 167.3 96.35 167.26 96.31L167.15 96.18L167.04 96.05C166.96 95.97 166.89 95.88 166.81 95.8C166.73 95.72 166.65 95.63 166.56 95.55C166.48 95.47 166.39 95.38 166.31 95.3C166.23 95.22 166.14 95.14 166.05 95.05L165.91 94.93L165.78 94.81C165.69 94.73 165.53 94.67 165.44 94.59C165.51 94.59 165.66 94.56 165.73 94.57L165.89 94.6C166.13 94.64 166.37 94.6 166.52 94.51C166.62 94.45 166.68 94.38 166.7 94.29C166.72 94.2 166.78 94.12 166.88 94.07C167 94 167.16 93.96 167.33 93.96L167.54 93.96C167.67 93.96 167.78 93.94 167.88 93.91L171.93 98.28L168.12 97.35L167.17 99.68L162.95 95Z" fill="#A3CCC9" fill-opacity="1.000000" fill-rule="nonzero"></path>
&#x9;&#x9;<path id="path" d="M168 88.03L168.11 88.03C168.48 88.06 168.75 88.26 168.71 88.47L168.67 88.69C168.65 88.81 168.73 88.92 168.86 89C168.93 89.04 169.02 89.07 169.11 89.1C169.21 89.13 169.34 89.16 169.4 89.2C169.62 89.33 169.68 89.53 169.5 89.69C169.31 89.85 169.38 90.08 169.65 90.2L169.8 90.27C169.89 90.31 169.96 90.37 170.01 90.43C170.07 90.51 170.08 90.61 170.03 90.7C170.01 90.74 169.97 90.78 169.92 90.82L169.75 90.94C169.66 91.06 169.59 91.29 169.74 91.41L169.84 91.48C169.91 91.54 169.96 91.6 169.97 91.66C169.99 91.74 169.97 91.82 169.9 91.89C169.87 91.92 169.84 91.95 169.79 91.97C169.76 91.99 169.72 92.01 169.68 92.02L169.47 92.1C169.47 92.1 169.39 92.13 169.36 92.15C169.19 92.25 169.13 92.4 169.21 92.54C169.21 92.54 169.27 92.63 169.27 92.65C169.31 92.77 169.24 92.89 169.1 92.97C169.03 93.01 168.93 93.05 168.82 93.06L168.63 93.09C168.52 93.11 168.43 93.14 168.35 93.18C168.22 93.25 168.15 93.36 168.17 93.48L168.19 93.59C168.21 93.71 168.14 93.81 168.01 93.89C167.98 93.91 167.95 93.92 167.91 93.94C167.8 93.98 167.68 94 167.55 94L167.34 94C167.16 94 167 94.04 166.89 94.11C166.79 94.17 166.73 94.24 166.71 94.33C166.69 94.42 166.63 94.5 166.53 94.55C166.37 94.64 166.14 94.68 165.9 94.64L165.74 94.61C165.67 94.6 165.59 94.59 165.52 94.6C165.39 94.61 165.2 94.65 165.11 94.7C165.07 94.72 165.04 94.75 165.01 94.78L164.89 94.9C164.89 94.9 164.83 94.96 164.79 94.98C164.58 95.1 164.22 95.12 163.95 95.02L163.81 94.96C163.54 94.85 163.19 94.87 162.97 95L162.79 95.11C162.51 95.27 162.07 95.26 161.81 95.09L161.71 95.03C161.49 94.89 161.14 94.85 160.87 94.94L160.75 94.98C160.43 95.09 160 95.01 159.82 94.82L159.72 94.72C159.57 94.56 159.24 94.47 158.94 94.52L158.76 94.55C158.36 94.61 157.95 94.45 157.91 94.21C157.87 94 157.56 93.84 157.21 93.85L157.04 93.85C156.65 93.85 156.32 93.67 156.34 93.44L156.34 93.31C156.37 93.13 156.16 92.96 155.86 92.91L155.69 92.88C155.29 92.81 155.08 92.55 155.26 92.34C155.41 92.16 155.31 91.9 155.01 91.8C154.64 91.68 154.47 91.36 154.75 91.18C154.94 91.06 155.01 90.84 154.86 90.7L154.65 90.56C154.56 90.51 154.5 90.45 154.46 90.39C154.39 90.26 154.44 90.11 154.61 90.01L154.79 89.93C155 89.81 155.11 89.59 154.94 89.43C154.77 89.27 154.77 89.05 154.98 88.93C155.04 88.9 155.11 88.87 155.2 88.85L155.31 88.83C155.4 88.81 155.47 88.78 155.53 88.75C155.68 88.66 155.75 88.53 155.7 88.4L155.66 88.29C155.61 88.16 155.68 88.03 155.83 87.94C155.93 87.88 156.07 87.84 156.24 87.83L156.35 87.83C156.51 87.82 156.65 87.78 156.76 87.72C156.82 87.69 156.86 87.65 156.9 87.6C156.93 87.56 156.94 87.52 156.95 87.48L156.95 87.37C156.97 87.28 157.04 87.19 157.14 87.13C157.27 87.05 157.46 87.01 157.66 87.03L157.96 87.05C158.16 87.06 158.35 87.02 158.48 86.95C158.54 86.91 158.6 86.87 158.63 86.81L158.7 86.7C158.73 86.65 158.78 86.6 158.85 86.57C159.03 86.47 159.32 86.43 159.58 86.5L159.74 86.54C159.99 86.6 160.28 86.57 160.47 86.47L160.67 86.33C160.91 86.19 161.35 86.16 161.62 86.3L161.75 86.37C162.01 86.51 162.41 86.51 162.65 86.37C162.95 86.2 163.53 86.2 163.75 86.41C163.93 86.57 164.38 86.72 164.68 86.65L164.78 86.62C165.14 86.53 165.57 86.64 165.69 86.87C165.79 87.06 166.16 87.25 166.49 87.22L166.63 87.22C167.02 87.17 167.38 87.34 167.42 87.56L167.44 87.68C167.47 87.86 167.68 88.01 168 88.03ZM166.8 93.35C169.23 91.95 169.14 89.63 166.61 88.18C164.08 86.73 160.04 86.69 157.62 88.09C155.19 89.49 155.28 91.81 157.81 93.26C160.34 94.71 164.38 94.75 166.8 93.35Z" fill="#8FC2BE" fill-opacity="1.000000" fill-rule="nonzero"></path>
&#x9;&#x9;<path id="path" d="M168.42 91.65C168.45 91.58 168.47 91.51 168.49 91.44C168.5 91.38 168.53 91.28 168.54 91.23C168.55 91.16 168.56 91.08 168.57 91.01C168.57 91 168.57 90.89 168.57 90.88C168.57 90.85 168.57 90.77 168.57 90.74C168.55 90.53 168.51 90.29 168.43 90.09C168.4 90 168.36 89.92 168.32 89.83C168.31 89.81 168.26 89.7 168.25 89.68C168.25 89.67 168.19 89.58 168.18 89.57C168.16 89.55 168.08 89.43 168.06 89.41C167.92 89.23 167.69 88.98 167.5 88.81C167.27 88.62 166.92 88.36 166.62 88.19C165.47 87.53 164.02 87.16 162.54 87.09C162.44 87.09 162.34 87.09 162.23 87.08C161.72 87.07 161.21 87.09 160.72 87.15C160.62 87.16 160.52 87.17 160.42 87.19C160.37 87.19 160.32 87.2 160.27 87.21C160.07 87.24 159.88 87.28 159.69 87.32C159.6 87.34 159.5 87.36 159.41 87.39C159.18 87.45 158.95 87.52 158.73 87.6C158.69 87.62 158.64 87.63 158.6 87.65C158.25 87.78 157.92 87.93 157.62 88.11C157.22 88.34 156.89 88.59 156.63 88.87C156.56 88.94 156.49 89.02 156.43 89.1C156.4 89.14 156.37 89.17 156.34 89.21C156.31 89.25 156.29 89.29 156.26 89.33C156.24 89.36 156.17 89.47 156.16 89.5C156.16 89.51 156.11 89.61 156.1 89.62C156.06 89.7 156.01 89.8 155.99 89.88C155.96 89.96 155.94 90.07 155.92 90.15C155.88 90.35 155.87 90.6 155.89 90.8C155.92 91.05 156.01 91.39 156.14 91.63C156.15 91.66 156.19 91.73 156.21 91.76C156.24 91.8 156.28 91.88 156.31 91.93C156.34 91.97 156.4 92.05 156.43 92.1C156.46 92.14 156.53 92.22 156.56 92.26C156.87 92.61 157.33 92.98 157.84 93.28C158.39 93.6 159.02 93.85 159.68 94.03C159.78 94.06 159.87 94.08 159.97 94.1C160.16 94.15 160.36 94.19 160.56 94.22C160.61 94.22 160.66 94.24 160.71 94.25C160.81 94.27 160.91 94.28 161.01 94.29C161.11 94.3 161.21 94.32 161.31 94.33C161.71 94.37 162.12 94.39 162.53 94.39C162.63 94.39 162.73 94.39 162.83 94.39C162.88 94.39 162.93 94.39 162.98 94.39C163.03 94.39 163.09 94.39 163.14 94.39C163.33 94.38 163.53 94.36 163.72 94.34C163.78 94.34 163.84 94.33 163.9 94.32C164.04 94.3 164.17 94.28 164.3 94.26C164.48 94.23 164.69 94.19 164.86 94.15C164.93 94.13 165.06 94.1 165.13 94.08C165.6 93.95 166.12 93.76 166.53 93.55C166.57 93.53 166.61 93.51 166.65 93.49C166.71 93.46 166.76 93.43 166.82 93.4C166.92 93.34 167.02 93.28 167.11 93.22C167.12 93.22 167.2 93.16 167.21 93.15C167.21 93.15 167.3 93.09 167.31 93.08C167.33 93.06 167.45 92.97 167.47 92.95C167.51 92.92 167.57 92.87 167.61 92.84C167.85 92.63 168.04 92.4 168.19 92.17C168.27 92.05 168.36 91.88 168.41 91.75C168.41 91.74 168.41 91.66 168.42 91.65ZM166.61 93.24C164.28 94.58 160.41 94.54 157.99 93.15C155.56 91.76 155.48 89.53 157.81 88.19C160.14 86.85 164.01 86.89 166.43 88.28C168.86 89.67 168.94 91.9 166.61 93.24Z" fill="#F0F9F8" fill-opacity="1.000000" fill-rule="nonzero"></path>
&#x9;&#x9;<path id="path" d="M157.8 88.19C160.13 86.85 164 86.89 166.42 88.28C168.85 89.67 168.93 91.9 166.6 93.24C164.27 94.58 160.4 94.54 157.98 93.15C155.55 91.76 155.47 89.53 157.8 88.19Z" fill="#A3CCC9" fill-opacity="1.000000" fill-rule="nonzero"></path>
&#x9;</g>
</svg>