<svg width="195.000000" height="140.000000" viewBox="0 0 195 140" fill="none" xmlns="http://www.w3.org/2000/svg" xmlns:xlink="http://www.w3.org/1999/xlink">
&#x9;<desc>
&#x9;&#x9;&#x9;Created with Pixso.
&#x9;</desc>
&#x9;<defs>
&#x9;&#x9;<clipPath id="clip212_3984">
&#x9;&#x9;&#x9;<rect id="empty-check" width="195.000000" height="140.000000" fill="white" fill-opacity="0"></rect>
&#x9;&#x9;</clipPath>
&#x9;</defs>
&#x9;<g clip-path="url(#clip212_3984)">
&#x9;&#x9;<path id="Oval 1" d="M42 70C42 39.62 66.62 15 97 15C127.37 15 152 39.62 152 70C152 100.37 127.37 125 97 125C66.62 125 42 100.37 42 70Z" fill="#4CAF50" fill-opacity="0.160000" fill-rule="evenodd"></path>
&#x9;&#x9;<path id="Icon" d="M121.49 58.32L93.07 86.74C92.57 87.24 91.96 87.5 91.25 87.5C90.53 87.5 89.92 87.24 89.42 86.74L76.5 73.82C75.48 72.8 75.48 71.19 76.5 70.17C77.52 69.15 79.13 69.15 80.16 70.17L91.25 81.26L117.84 54.67C118.86 53.65 120.47 53.65 121.49 54.67C122.51 55.69 122.51 57.3 121.49 58.32Z" fill="#4CAF50" fill-opacity="1.000000" fill-rule="evenodd"></path>
&#x9;</g>
</svg>