<svg width="574.003662" height="800.891357" viewBox="0 0 574.004 800.891" fill="none" xmlns="http://www.w3.org/2000/svg" xmlns:xlink="http://www.w3.org/1999/xlink">
&#x9;<desc>
&#x9;&#x9;&#x9;Created with Pixso.
&#x9;</desc>
&#x9;<defs>
&#x9;&#x9;<clipPath id="clip212_5882">
&#x9;&#x9;&#x9;<rect id="error-page-unavailable" width="574.003662" height="800.891296" fill="white" fill-opacity="0"></rect>
&#x9;&#x9;</clipPath>
&#x9;&#x9;<linearGradient x1="634.592346" y1="303.156189" x2="143.132217" y2="296.773193" id="paint_linear_212_4442_0" gradientUnits="userSpaceOnUse">
&#x9;&#x9;&#x9;<stop stop-color="#D0DDDD"></stop>
&#x9;&#x9;&#x9;<stop offset="1.000000" stop-color="#E1EDE7"></stop>
&#x9;&#x9;</linearGradient>
&#x9;&#x9;<linearGradient x1="266.082520" y1="207.195145" x2="509.609558" y2="346.809509" id="paint_linear_212_4443_0" gradientUnits="userSpaceOnUse">
&#x9;&#x9;&#x9;<stop stop-color="#D0DDDD"></stop>
&#x9;&#x9;&#x9;<stop offset="1.000000" stop-color="#B8CCCC"></stop>
&#x9;&#x9;</linearGradient>
&#x9;&#x9;<linearGradient x1="115.817398" y1="415.960358" x2="380.498047" y2="415.960358" id="paint_linear_212_4465_0" gradientUnits="userSpaceOnUse">
&#x9;&#x9;&#x9;<stop stop-color="#EEEFF0"></stop>
&#x9;&#x9;&#x9;<stop offset="1.000000" stop-color="#F5F6F7"></stop>
&#x9;&#x9;</linearGradient>
&#x9;</defs>
&#x9;<g clip-path="url(#clip212_5882)">
&#x9;&#x9;<path id="Vector" d="M235.97 22.78L259.98 594.02C259.98 611.18 269.05 627.04 283.88 635.65L404.96 721.54L513.77 798.71C532.25 809.49 574 777.89 574 756.5L574 195.42C574 186.69 571.49 178.25 566.93 171.12C563.11 165.14 557.92 160 551.53 156.35L286.33 1.74C274.64 -5.05 235.97 9.27 235.97 22.78Z" fill="#F4F7F7" fill-opacity="1.000000" fill-rule="nonzero"></path>
&#x9;&#x9;<path id="Vector" d="M404.95 258.21L404.95 721.54L513.77 798.71C532.25 809.49 574 777.89 574 756.5L574 195.42C574 186.69 571.49 178.25 566.92 171.12L404.95 258.21Z" fill="#B8CCCC" fill-opacity="1.000000" fill-rule="nonzero"></path>
&#x9;&#x9;<path id="Vector" d="M506.07 794.94L257.64 650.14C242.81 641.53 233.68 625.61 233.68 608.5L233.68 31.39C233.68 17.88 248.34 9.44 260.03 16.28L525.23 170.9C539.15 178.99 547.7 193.88 547.7 209.96L547.7 771.1C547.7 792.38 524.55 805.72 506.07 794.94Z" fill="#9BB2B3" fill-opacity="1.000000" fill-rule="nonzero"></path>
&#x9;&#x9;<path id="Vector" d="M519.99 783.19C525.86 783.19 532.19 778.52 532.19 770.99L532.19 209.85C532.19 199.3 526.55 189.49 517.48 184.18L252.28 29.57C251.82 29.28 251.48 29.28 251.31 29.28C250.91 29.28 249.31 29.63 249.31 31.28L249.31 608.39C249.31 619.97 255.53 630.8 265.51 636.62L513.94 781.43C515.82 782.62 517.88 783.19 519.99 783.19Z" fill="#F3F7F7" fill-opacity="1.000000" fill-rule="nonzero"></path>
&#x9;&#x9;<path id="Vector" d="M267.85 261.58L267.85 98.01L262.32 90.99L262.32 265.29L515.94 410.72L505.96 398.11L267.85 261.58Z" fill="#B8CCCC" fill-opacity="1.000000" fill-rule="nonzero"></path>
&#x9;&#x9;<g opacity="0.710000">
&#x9;&#x9;&#x9;<path id="Vector" d="M266.08 225.99C266.08 225.99 281.08 168.62 332.92 198.33C384.76 228.04 382.26 304.7 412.25 322.55C442.25 340.34 447.9 247.89 475.39 264.32C502.88 280.68 515.94 410.78 515.94 410.78L267.85 262.55L266.08 225.99Z" fill="url(#paint_linear_212_4442_0)" fill-opacity="1.000000" fill-rule="nonzero"></path>
&#x9;&#x9;</g>
&#x9;&#x9;<g opacity="0.680000">
&#x9;&#x9;&#x9;<path id="Vector" d="M267.45 253.82C267.45 253.82 293.11 207.85 340.79 257.36C388.53 306.86 389.95 217.95 414.13 231.81C438.32 245.67 430.5 326.25 448.3 339.88C466.09 353.51 480.35 356.71 494.61 371.25C508.87 385.85 509.55 407.07 509.55 407.07L266.02 267.45L267.45 253.82Z" fill="url(#paint_linear_212_4443_0)" fill-opacity="1.000000" fill-rule="nonzero"></path>
&#x9;&#x9;</g>
&#x9;&#x9;<path id="Vector" d="M395.43 385.85L272.13 315.13C268.82 313.25 266.08 308.92 266.08 305.61C266.08 302.3 268.82 301.1 272.13 303.04L395.43 373.76C398.74 375.64 401.48 379.98 401.48 383.29C401.53 386.59 398.79 387.79 395.43 385.85Z" fill="#D0DDDD" fill-opacity="1.000000" fill-rule="nonzero"></path>
&#x9;&#x9;<path id="Vector" d="M395.43 601.15L272.13 530.43C268.82 528.55 266.08 524.21 266.08 520.9C266.08 517.6 268.82 516.4 272.13 518.34L395.43 589.06C398.74 590.94 401.48 595.28 401.48 598.58C401.53 601.89 398.79 603.03 395.43 601.15Z" fill="#D0DDDD" fill-opacity="1.000000" fill-rule="nonzero"></path>
&#x9;&#x9;<path id="Vector" d="M395.43 632.17L272.13 561.45C268.82 559.57 266.08 555.24 266.08 551.93C266.08 548.62 268.82 547.42 272.13 549.36L395.43 620.08C398.74 621.97 401.48 626.3 401.48 629.61C401.53 632.97 398.79 634.11 395.43 632.17Z" fill="#D0DDDD" fill-opacity="1.000000" fill-rule="nonzero"></path>
&#x9;&#x9;<path id="Vector" d="M411.51 194L288.21 123.28C284.9 121.39 282.16 117.06 282.16 113.75C282.16 110.44 284.9 109.25 288.21 111.18L411.51 181.9C414.82 183.79 417.56 188.12 417.56 191.43C417.56 194.74 414.82 195.88 411.51 194Z" fill="#D0DDDD" fill-opacity="1.000000" fill-rule="nonzero"></path>
&#x9;&#x9;<path id="Vector" d="M319.81 369.71L272.13 342.39C268.82 340.51 266.08 336.18 266.08 332.87C266.08 329.56 268.82 328.36 272.13 330.3L319.81 357.62C323.11 359.5 325.85 363.84 325.85 367.14C325.91 370.45 323.17 371.59 319.81 369.71Z" fill="#D0DDDD" fill-opacity="1.000000" fill-rule="nonzero"></path>
&#x9;&#x9;<path id="Vector" d="M319.81 394.98L272.13 367.66C268.82 365.78 266.08 361.44 266.08 358.13C266.08 354.83 268.82 353.63 272.13 355.57L319.81 382.89C323.11 384.77 325.85 389.1 325.85 392.41C325.91 395.78 323.17 396.92 319.81 394.98Z" fill="#D0DDDD" fill-opacity="1.000000" fill-rule="nonzero"></path>
&#x9;&#x9;<path id="Vector" d="M319.81 420.3L272.13 392.98C268.82 391.1 266.08 386.76 266.08 383.46C266.08 380.15 268.82 378.95 272.13 380.89L319.81 408.21C323.11 410.09 325.85 414.43 325.85 417.73C325.91 421.04 323.17 422.18 319.81 420.3Z" fill="#D0DDDD" fill-opacity="1.000000" fill-rule="nonzero"></path>
&#x9;&#x9;<path id="Vector" d="M319.81 445.57L272.13 418.25C268.82 416.36 266.08 412.03 266.08 408.72C266.08 405.41 268.82 404.22 272.13 406.16L319.81 433.47C323.11 435.36 325.85 439.69 325.85 443C325.91 446.31 323.17 447.5 319.81 445.57Z" fill="#D0DDDD" fill-opacity="1.000000" fill-rule="nonzero"></path>
&#x9;&#x9;<path id="Vector" d="M319.81 470.89L272.13 443.57C268.82 441.69 266.08 437.35 266.08 434.04C266.08 430.74 268.82 429.54 272.13 431.48L319.81 458.8C323.11 460.68 325.85 465.01 325.85 468.32C325.91 471.63 323.17 472.77 319.81 470.89Z" fill="#D0DDDD" fill-opacity="1.000000" fill-rule="nonzero"></path>
&#x9;&#x9;<path id="Vector" d="M319.81 496.15L272.13 468.83C268.82 466.95 266.08 462.62 266.08 459.31C266.08 456 268.82 454.8 272.13 456.74L319.81 484.06C323.11 485.94 325.85 490.28 325.85 493.59C325.91 496.89 323.17 498.09 319.81 496.15Z" fill="#D0DDDD" fill-opacity="1.000000" fill-rule="nonzero"></path>
&#x9;&#x9;<path id="Vector" d="M490.33 467.47L347.75 385.74C344.44 383.86 341.7 379.52 341.7 376.21C341.7 372.91 344.44 371.71 347.75 373.65L490.33 455.37C493.64 457.26 496.38 461.59 496.38 464.9C496.38 468.21 493.64 469.35 490.33 467.47Z" fill="#D0DDDD" fill-opacity="1.000000" fill-rule="nonzero"></path>
&#x9;&#x9;<path id="Vector" d="M490.33 492.73L347.75 411C344.44 409.12 341.7 404.79 341.7 401.48C341.7 398.17 344.44 396.97 347.75 398.91L490.33 480.64C493.64 482.52 496.38 486.86 496.38 490.16C496.38 493.47 493.64 494.67 490.33 492.73Z" fill="#D0DDDD" fill-opacity="1.000000" fill-rule="nonzero"></path>
&#x9;&#x9;<path id="Vector" d="M490.33 518.05L347.75 436.33C344.44 434.44 341.7 430.11 341.7 426.8C341.7 423.49 344.44 422.3 347.75 424.24L490.33 505.96C493.64 507.84 496.38 512.18 496.38 515.49C496.38 518.79 493.64 519.94 490.33 518.05Z" fill="#D0DDDD" fill-opacity="1.000000" fill-rule="nonzero"></path>
&#x9;&#x9;<path id="Vector" d="M490.33 543.32L347.75 461.59C344.44 459.71 341.7 455.37 341.7 452.07C341.7 448.76 344.44 447.56 347.75 449.5L490.33 531.23C493.64 533.11 496.38 537.44 496.38 540.75C496.38 544.06 493.64 545.26 490.33 543.32Z" fill="#D0DDDD" fill-opacity="1.000000" fill-rule="nonzero"></path>
&#x9;&#x9;<path id="Vector" d="M490.33 568.64L347.75 486.91C344.44 485.03 341.7 480.7 341.7 477.39C341.7 474.08 344.44 472.88 347.75 474.82L490.33 556.55C493.64 558.43 496.38 562.77 496.38 566.07C496.38 569.38 493.64 570.52 490.33 568.64Z" fill="#D0DDDD" fill-opacity="1.000000" fill-rule="nonzero"></path>
&#x9;&#x9;<path id="Vector" d="M490.33 593.9L347.75 512.18C344.44 510.3 341.7 505.96 341.7 502.65C341.7 499.35 344.44 498.15 347.75 500.09L490.33 581.82C493.64 583.7 496.38 588.03 496.38 591.34C496.38 594.65 493.64 595.84 490.33 593.9Z" fill="#D0DDDD" fill-opacity="1.000000" fill-rule="nonzero"></path>
&#x9;&#x9;<path id="Vector" d="M271.36 220.64C271.25 220.69 271.13 220.75 271.02 220.81C270.05 221.32 269.02 221.78 267.94 222.29C267.77 222.35 267.6 222.46 267.43 222.52C266.34 222.97 265.26 223.49 264.06 223.94C263.83 224 263.66 224.12 263.43 224.17C262.24 224.63 261.04 225.09 259.73 225.54C259.5 225.6 259.27 225.71 259.04 225.77C258.07 226.11 257.05 226.45 256.02 226.74C255.85 226.8 255.62 226.85 255.45 226.91C254.25 227.25 253.05 227.65 251.8 227.99C251.51 228.05 251.17 228.16 250.89 228.22C249.69 228.51 248.49 228.85 247.24 229.13C247.07 229.19 246.89 229.19 246.72 229.25C245.35 229.59 243.93 229.88 242.45 230.16C242.05 230.22 241.65 230.33 241.25 230.39C240.34 230.56 239.37 230.73 238.45 230.9C238.05 230.96 237.6 231.07 237.2 231.13C235.83 231.36 234.46 231.59 233.04 231.76C231.04 232.04 229.04 232.27 227.1 232.5C226.65 232.56 226.25 232.61 225.79 232.67C223.91 232.9 222.03 233.07 220.2 233.24C219.86 233.3 219.58 233.3 219.23 233.3C217.92 233.41 216.61 233.53 215.3 233.58C214.84 233.64 214.39 233.64 213.87 233.7C212.56 233.75 211.25 233.87 209.94 233.93C209.71 233.93 209.42 233.93 209.2 233.98C207.66 234.04 206.17 234.1 204.75 234.15C204.35 234.15 204.01 234.15 203.61 234.15C202.47 234.15 201.38 234.21 200.3 234.21C199.9 234.21 199.5 234.21 199.1 234.21C198.02 234.21 196.99 234.21 195.97 234.21C195.74 234.21 195.51 234.21 195.28 234.21C194.03 234.21 192.83 234.15 191.63 234.1C191.29 234.1 191 234.1 190.66 234.04C189.81 233.98 188.89 233.98 188.09 233.93C187.7 233.93 187.35 233.87 186.95 233.87C186.16 233.81 185.36 233.75 184.62 233.7C184.27 233.7 183.93 233.64 183.59 233.64C182.73 233.58 181.94 233.53 181.14 233.47C180.97 233.47 180.79 233.47 180.62 233.41C179.65 233.35 178.68 233.24 177.77 233.13C177.49 233.07 177.26 233.07 176.97 233.01C176.35 232.96 175.66 232.9 175.09 232.78C174.75 232.73 174.46 232.73 174.18 232.67C173.61 232.61 173.1 232.56 172.58 232.44C172.3 232.39 171.95 232.39 171.67 232.33C171.16 232.27 170.64 232.21 170.19 232.1C169.9 232.04 169.67 232.04 169.39 231.99C168.82 231.87 168.25 231.82 167.73 231.7C167.62 231.7 167.45 231.64 167.33 231.64C166.65 231.53 166.02 231.42 165.4 231.3C165.22 231.24 165.05 231.24 164.88 231.19C164.43 231.13 164.03 231.02 163.63 230.96C163.4 230.9 163.23 230.9 163 230.85C162.66 230.79 162.32 230.73 162.03 230.67C161.86 230.62 161.63 230.62 161.46 230.56C161.17 230.5 160.89 230.45 160.6 230.39C160.43 230.33 160.26 230.33 160.15 230.28C159.86 230.22 159.58 230.16 159.35 230.1C159.24 230.1 159.12 230.05 159.01 230.05C158.67 229.99 158.38 229.88 158.1 229.82C157.81 229.76 157.58 229.7 157.35 229.65C156.73 229.48 156.33 229.36 156.21 229.31L145.61 235.47C145.49 235.47 145.38 235.41 145.38 235.41L116.01 252.46C116.06 252.46 116.18 252.52 116.35 252.57C116.46 252.63 116.63 252.63 116.8 252.69C117.09 252.75 117.43 252.86 117.89 252.97L117.94 252.97C118.23 253.03 118.52 253.09 118.86 253.2C118.97 253.2 119.09 253.26 119.2 253.26C119.43 253.32 119.71 253.37 119.94 253.43C120.11 253.49 120.28 253.49 120.45 253.54C120.74 253.6 120.97 253.66 121.25 253.72C121.42 253.77 121.65 253.77 121.82 253.83C122.11 253.89 122.45 253.94 122.79 254C122.96 254.06 123.08 254.06 123.19 254.06C123.25 254.06 123.31 254.06 123.36 254.11C123.76 254.17 124.16 254.29 124.62 254.34C124.79 254.4 124.96 254.4 125.13 254.46C125.76 254.57 126.39 254.68 127.01 254.8C127.18 254.8 127.36 254.86 127.47 254.86C127.98 254.91 128.5 255.03 129.07 255.08C129.35 255.14 129.58 255.14 129.86 255.2C130.32 255.26 130.83 255.31 131.35 255.43C131.52 255.43 131.63 255.48 131.75 255.48C131.92 255.48 132.09 255.54 132.26 255.54C132.77 255.6 133.34 255.65 133.86 255.77C134.14 255.83 134.48 255.83 134.77 255.88C135.4 255.94 136.02 256.05 136.65 256.11C136.94 256.17 137.16 256.17 137.45 256.22C138.36 256.34 139.33 256.4 140.3 256.51C140.47 256.51 140.64 256.57 140.81 256.57C141.61 256.62 142.47 256.68 143.27 256.74C143.38 256.74 143.5 256.74 143.61 256.74C143.84 256.74 144.07 256.74 144.29 256.79C145.03 256.85 145.83 256.91 146.63 256.97C147.03 256.97 147.43 257.02 147.83 257.02C148.69 257.08 149.54 257.08 150.4 257.14C150.74 257.14 151.08 257.14 151.42 257.19C152.62 257.25 153.82 257.25 155.07 257.31C155.3 257.31 155.53 257.31 155.76 257.31C156.78 257.31 157.81 257.31 158.89 257.31C159.07 257.31 159.24 257.31 159.41 257.31C159.64 257.31 159.86 257.31 160.15 257.31C161.23 257.31 162.32 257.31 163.46 257.25C163.86 257.25 164.2 257.25 164.6 257.25C166.08 257.19 167.51 257.14 169.05 257.08C169.33 257.08 169.56 257.08 169.84 257.02C171.1 256.97 172.41 256.91 173.72 256.79C174.18 256.74 174.69 256.74 175.15 256.68C176.46 256.57 177.77 256.51 179.08 256.4C179.31 256.4 179.6 256.34 179.82 256.34C179.88 256.34 179.94 256.34 180.05 256.34C181.88 256.17 183.76 256 185.64 255.77C186.1 255.71 186.5 255.65 186.95 255.6C188.89 255.37 190.89 255.14 192.89 254.86C194.31 254.63 195.68 254.46 197.05 254.23C197.45 254.17 197.9 254.06 198.3 254C199.27 253.83 200.19 253.66 201.1 253.49C201.33 253.43 201.55 253.43 201.78 253.37C201.95 253.32 202.12 253.32 202.24 253.26C203.72 252.97 205.15 252.69 206.52 252.35C206.69 252.29 206.86 252.29 206.97 252.23C208.23 251.95 209.42 251.66 210.62 251.32C210.91 251.26 211.25 251.15 211.53 251.09C212.79 250.75 214.04 250.41 215.18 250.01C215.36 249.95 215.58 249.89 215.76 249.84C216.78 249.5 217.81 249.21 218.78 248.87C218.95 248.81 219.12 248.75 219.23 248.7C219.35 248.64 219.41 248.64 219.46 248.58C220.77 248.13 221.97 247.67 223.17 247.21C223.4 247.16 223.57 247.04 223.8 246.99C224.94 246.53 226.08 246.02 227.16 245.56C227.33 245.5 227.5 245.39 227.68 245.33C228.76 244.82 229.79 244.36 230.75 243.85C230.87 243.79 230.98 243.73 231.04 243.68C232.07 243.16 233.04 242.65 233.89 242.08L240.45 238.26C240.79 238.09 241.19 237.92 241.53 237.75C241.65 237.69 241.76 237.63 241.82 237.58C242.85 237.06 243.82 236.55 244.67 235.98L274.04 218.93C273.36 219.61 272.39 220.12 271.36 220.64Z" fill="#B8CCCC" fill-opacity="1.000000" fill-rule="nonzero"></path>
&#x9;&#x9;<path id="Vector" d="M409.84 388.6L409.84 388.37L380.47 405.42L380.35 440.1C380.18 443.29 379.95 446.43 379.72 449.56C379.61 450.99 379.5 452.47 379.32 453.9C379.27 454.81 379.15 455.72 379.1 456.58C378.93 458.35 378.7 460.06 378.53 461.77C378.47 462.4 378.41 463.02 378.3 463.65C378.01 465.76 377.78 467.76 377.44 469.81C377.39 470.1 377.39 470.38 377.33 470.67C376.99 472.95 376.64 475.23 376.25 477.45C376.07 478.37 375.9 479.22 375.73 480.13C375.5 481.45 375.22 482.81 374.99 484.13C374.82 485.1 374.59 486.01 374.36 486.92C374.08 488.12 373.85 489.37 373.56 490.51C373.22 491.94 372.88 493.31 372.54 494.68C372.37 495.42 372.2 496.16 371.97 496.9C371.51 498.67 371 500.38 370.54 502.09C370.43 502.38 370.37 502.72 370.26 503.06C369.63 505.23 368.94 507.4 368.26 509.45C368.03 510.13 367.8 510.76 367.58 511.39C367.12 512.81 366.61 514.24 366.09 515.61C365.87 516.29 365.58 516.92 365.35 517.55C364.67 519.32 363.98 521.03 363.3 522.74C363.07 523.25 362.9 523.71 362.67 524.22C361.76 526.27 360.85 528.33 359.93 530.27C359.48 531.23 359.02 532.2 358.51 533.12C358.28 533.63 357.99 534.14 357.77 534.6C357.08 535.97 356.34 537.28 355.66 538.59C355.6 538.71 355.54 538.82 355.49 538.88C354.69 540.3 353.95 541.61 353.09 542.98C352.8 543.44 352.58 543.84 352.29 544.24C351.72 545.15 351.21 546.01 350.64 546.92C350.35 547.38 350.07 547.83 349.73 548.29C349.21 549.09 348.7 549.88 348.13 550.63C347.79 551.14 347.44 551.59 347.1 552.05C346.59 552.79 346.07 553.48 345.56 554.16C345.22 554.62 344.88 555.13 344.48 555.59C343.96 556.27 343.45 556.9 342.94 557.58C342.6 558.04 342.25 558.5 341.85 558.9C341.34 559.58 340.77 560.21 340.26 560.83C339.92 561.23 339.57 561.63 339.23 562.03C338.66 562.72 338.03 563.34 337.46 564.03C337.18 564.37 336.84 564.71 336.55 565.06C335.81 565.85 335.01 566.65 334.27 567.45C334.1 567.62 333.98 567.74 333.81 567.91C332.9 568.82 331.99 569.73 331.02 570.59C330.73 570.82 330.51 571.04 330.22 571.33C329.54 571.96 328.91 572.58 328.22 573.15C327.88 573.44 327.54 573.78 327.2 574.07C326.63 574.58 326 575.09 325.43 575.55C325.03 575.89 324.69 576.18 324.29 576.46C323.72 576.92 323.15 577.37 322.58 577.83C322.18 578.12 321.78 578.46 321.38 578.74C320.81 579.2 320.24 579.6 319.67 580C319.27 580.28 318.87 580.57 318.53 580.85C317.96 581.25 317.33 581.65 316.76 582.05C316.42 582.28 316.02 582.56 315.68 582.79C315.05 583.19 314.37 583.65 313.74 584.05C313.45 584.22 313.11 584.45 312.82 584.62C311.85 585.19 310.94 585.76 309.97 586.33L326.23 576.86C325.66 577.2 325.14 577.55 324.57 577.94C324.29 578.12 323.95 578.34 323.66 578.51C322.69 579.09 321.78 579.65 320.81 580.23L350.18 563.17C351.15 562.6 352.06 562.03 353.03 561.46C353.32 561.29 353.66 561.06 353.95 560.89C354.57 560.49 355.26 560.09 355.88 559.64C356.28 559.41 356.63 559.12 357.03 558.9C357.6 558.5 358.22 558.1 358.79 557.7C359.19 557.41 359.59 557.13 359.93 556.84C360.5 556.44 361.07 555.99 361.64 555.59C362.04 555.3 362.44 555.02 362.84 554.68C363.41 554.22 363.98 553.76 364.55 553.31C364.95 553.02 365.29 552.68 365.69 552.39C366.26 551.88 366.89 551.42 367.46 550.91C367.8 550.63 368.2 550.28 368.55 550C369.23 549.43 369.86 548.8 370.54 548.23C370.83 548 371.11 547.72 371.4 547.49C372.31 546.63 373.22 545.72 374.13 544.81C374.31 544.64 374.48 544.47 374.65 544.3C375.39 543.55 376.13 542.76 376.87 541.96C377.21 541.61 377.5 541.27 377.84 540.93C378.41 540.3 379.04 539.62 379.61 538.99C379.95 538.59 380.29 538.19 380.64 537.79C381.15 537.17 381.72 536.54 382.23 535.85C382.58 535.4 382.97 534.94 383.32 534.49C383.83 533.86 384.34 533.17 384.86 532.49C385.2 532.03 385.54 531.58 385.94 531.06C386.45 530.38 386.97 529.64 387.48 528.95C387.82 528.5 388.16 527.98 388.51 527.53C389.02 526.79 389.53 525.99 390.1 525.19C390.39 524.73 390.73 524.28 391.02 523.82C391.07 523.71 391.19 523.59 391.24 523.48C391.7 522.74 392.21 521.94 392.67 521.2C392.96 520.8 393.18 520.34 393.47 519.94C394.27 518.63 395.07 517.26 395.86 515.84C395.92 515.72 395.98 515.61 396.04 515.55C396.78 514.24 397.46 512.93 398.15 511.56C398.37 511.05 398.66 510.53 398.89 510.08C399.29 509.22 399.74 508.42 400.14 507.57C400.2 507.45 400.26 507.34 400.31 507.22C401.23 505.23 402.14 503.23 403.05 501.18C403.28 500.72 403.45 500.21 403.68 499.7C404.36 497.99 405.05 496.27 405.73 494.56C405.84 494.22 406.02 493.88 406.13 493.48C406.24 493.19 406.36 492.85 406.47 492.57C406.99 491.2 407.44 489.77 407.96 488.4C408.18 487.78 408.41 487.09 408.64 486.46C409.32 484.35 410.01 482.24 410.64 480.08C410.64 480.08 410.64 480.08 410.64 480.02C410.75 479.68 410.81 479.34 410.92 478.99C411.38 477.34 411.89 475.63 412.35 473.92C412.52 473.18 412.75 472.38 412.92 471.64C413.26 470.27 413.6 468.9 413.94 467.47C413.94 467.36 414 467.24 414 467.13C414.23 466.05 414.46 464.91 414.74 463.82C414.91 462.91 415.14 462 415.31 461.09C415.6 459.77 415.83 458.46 416.05 457.09C416.22 456.18 416.4 455.32 416.57 454.41C416.57 454.36 416.57 454.3 416.62 454.24C417.02 452.07 417.37 449.85 417.71 447.63C417.76 447.4 417.76 447.11 417.82 446.88C418.11 444.89 418.39 442.95 418.62 440.9C418.62 440.78 418.62 440.72 418.68 440.61C418.73 439.98 418.79 439.36 418.91 438.73C419.13 437.02 419.3 435.31 419.48 433.54C419.59 432.63 419.65 431.77 419.7 430.86C419.82 429.77 419.93 428.63 419.99 427.55C419.99 427.21 420.05 426.87 420.05 426.58C420.27 423.5 420.5 420.36 420.67 417.11L420.79 382.44L409.84 388.6Z" fill="#B8CCCC" fill-opacity="1.000000" fill-rule="nonzero"></path>
&#x9;&#x9;<path id="Vector" d="M420.68 382.27C420.62 382.21 420.45 382.09 420.28 381.92C420.22 381.87 420.16 381.81 420.1 381.75C420.05 381.7 419.93 381.64 419.88 381.52C419.76 381.47 419.71 381.35 419.59 381.3C419.48 381.24 419.42 381.13 419.31 381.01C419.19 380.9 419.14 380.84 419.02 380.73C418.79 380.5 418.51 380.27 418.22 379.98C418.17 379.93 418.11 379.93 418.11 379.87C417.77 379.53 417.37 379.19 416.91 378.79C416.85 378.73 416.74 378.62 416.63 378.56C416.28 378.22 415.94 377.87 415.54 377.53C415.37 377.36 415.2 377.19 415.03 377.08C414.69 376.73 414.34 376.39 413.95 376.05C413.77 375.88 413.55 375.71 413.38 375.48C413.03 375.14 412.63 374.74 412.23 374.4C412.01 374.22 411.84 374 411.61 373.83C411.04 373.25 410.41 372.68 409.78 372.06C409.72 372 409.73 372 409.67 371.94C408.98 371.32 408.3 370.57 407.61 369.89C407.39 369.66 407.16 369.43 406.93 369.21C406.42 368.69 405.9 368.18 405.33 367.61C405.05 367.32 404.71 366.98 404.42 366.7C403.96 366.24 403.51 365.73 403 365.27C402.65 364.93 402.37 364.59 402.03 364.24C401.57 363.73 401.06 363.22 400.54 362.7C400.2 362.3 399.8 361.96 399.46 361.56C398.95 361.05 398.43 360.48 397.92 359.97C397.52 359.57 397.18 359.17 396.78 358.77C396.21 358.2 395.64 357.57 395.12 356.94C394.73 356.54 394.38 356.15 393.98 355.69C393.47 355.12 392.96 354.55 392.39 353.98C391.99 353.52 391.53 353.07 391.13 352.61C390.56 351.98 389.99 351.35 389.42 350.67C389.02 350.21 388.57 349.76 388.17 349.3C387.54 348.62 386.86 347.88 386.23 347.13C385.83 346.68 385.43 346.28 385.03 345.82C384.35 345.02 383.6 344.23 382.86 343.37C382.46 342.97 382.12 342.57 381.78 342.12C380.92 341.15 380.13 340.18 379.27 339.21C378.98 338.92 378.76 338.58 378.47 338.29C377.33 336.98 376.19 335.61 374.99 334.24C374.76 333.96 374.54 333.73 374.31 333.45C373.34 332.31 372.43 331.22 371.4 330.02C370.94 329.51 370.49 328.94 370.03 328.43C369.23 327.51 368.49 326.6 367.69 325.63C367.24 325.06 366.72 324.49 366.27 323.92C365.47 322.95 364.67 321.98 363.87 321.01C363.36 320.39 362.79 319.7 362.27 319.07C361.48 318.1 360.73 317.19 359.94 316.22C359.37 315.54 358.8 314.8 358.22 314.11C357.43 313.14 356.69 312.17 355.89 311.2C355.32 310.46 354.69 309.72 354.12 308.98C353.32 308.01 352.52 306.98 351.72 305.96C350.87 304.87 350.07 303.85 349.21 302.76C348.76 302.19 348.3 301.62 347.84 301.05C346.53 299.34 345.16 297.63 343.8 295.86C342.37 294.04 341 292.21 339.69 290.44C339.29 289.87 338.89 289.36 338.49 288.85C337.58 287.65 336.67 286.45 335.81 285.25C335.47 284.74 335.13 284.28 334.73 283.83C333.76 282.57 332.85 281.26 331.93 280.01C331.48 279.38 331.02 278.75 330.56 278.07C329.82 276.98 329.02 275.96 328.28 274.93C327.77 274.25 327.31 273.56 326.86 272.88C326.17 271.91 325.49 270.94 324.86 270.03C324.4 269.34 323.89 268.66 323.44 267.97C322.81 267.06 322.18 266.21 321.61 265.29C321.1 264.49 320.53 263.75 320.01 262.95C319.67 262.44 319.33 261.93 318.93 261.36C318.36 260.5 317.79 259.65 317.22 258.79C316.93 258.33 316.59 257.88 316.31 257.42C315.62 256.4 314.99 255.43 314.37 254.4C314.2 254.11 314.02 253.89 313.85 253.6C313.06 252.35 312.31 251.15 311.51 249.95C311.29 249.61 311.12 249.27 310.89 248.92C310.37 248.07 309.86 247.27 309.35 246.41C309.06 245.96 308.83 245.56 308.55 245.16C308.09 244.48 307.69 243.73 307.29 243.05C307.01 242.59 306.78 242.19 306.5 241.74C306.1 241.11 305.76 240.48 305.35 239.86C305.07 239.4 304.84 239 304.61 238.54C304.27 237.97 303.93 237.4 303.59 236.83C303.3 236.38 303.07 235.92 302.79 235.46C302.45 234.89 302.16 234.32 301.82 233.81C301.59 233.41 301.36 232.96 301.14 232.56C300.85 231.99 300.51 231.47 300.22 230.96C299.99 230.56 299.77 230.16 299.6 229.82C299.31 229.25 299.03 228.73 298.74 228.22C298.57 227.88 298.34 227.54 298.17 227.2C298.06 226.91 297.88 226.68 297.77 226.45C297.37 225.71 297.03 224.97 296.63 224.29C296.46 223.94 296.29 223.66 296.12 223.32C295.83 222.69 295.49 222.12 295.2 221.55C295.03 221.26 294.92 220.92 294.75 220.64C294.52 220.18 294.35 219.78 294.12 219.38C293.95 219.1 293.84 218.75 293.66 218.47C293.49 218.07 293.26 217.67 293.09 217.27C292.98 216.99 292.81 216.7 292.69 216.42C292.52 216.13 292.41 215.79 292.29 215.5C292.18 215.22 292.01 214.93 291.9 214.65C291.78 214.36 291.67 214.08 291.5 213.79C291.38 213.51 291.27 213.28 291.15 213.05C291.04 212.82 290.93 212.59 290.87 212.37C290.76 212.14 290.64 211.91 290.58 211.68C290.47 211.45 290.41 211.28 290.3 211.05C290.19 210.83 290.13 210.66 290.01 210.43C289.96 210.26 289.84 210.09 289.79 209.86C289.73 209.69 289.62 209.52 289.56 209.34C289.5 209.17 289.44 209 289.39 208.89C289.33 208.72 289.27 208.6 289.22 208.49C289.16 208.32 289.1 208.15 289.04 208.03C288.99 207.92 288.99 207.8 288.93 207.75C288.87 207.58 288.82 207.46 288.76 207.35C288.76 207.29 288.7 207.23 288.7 207.18C288.65 207.06 288.59 206.89 288.59 206.83C288.59 206.83 288.59 206.78 288.53 206.72C288.47 206.61 288.47 206.49 288.42 206.49L277.64 212.77C277.64 212.71 277.58 212.59 277.58 212.59L248.21 229.65C248.21 229.7 248.27 229.76 248.32 229.88C248.32 229.93 248.32 229.93 248.38 229.99C248.44 230.1 248.44 230.22 248.49 230.33L248.49 230.39C248.49 230.45 248.55 230.5 248.55 230.56C248.61 230.67 248.61 230.79 248.67 230.9C248.72 231.02 248.72 231.13 248.78 231.24C248.84 231.36 248.89 231.53 248.95 231.7C248.95 231.76 249.01 231.81 249.01 231.87C249.07 231.99 249.07 232.1 249.12 232.16C249.18 232.33 249.24 232.44 249.29 232.61C249.35 232.78 249.41 232.96 249.52 233.13C249.58 233.3 249.69 233.47 249.75 233.7C249.75 233.75 249.81 233.81 249.81 233.87C249.86 233.98 249.92 234.15 249.98 234.27C250.09 234.5 250.15 234.67 250.26 234.89C250.38 235.12 250.43 235.35 250.55 235.58C250.66 235.81 250.72 236.04 250.83 236.26C250.89 236.32 250.89 236.38 250.95 236.49C251 236.66 251.12 236.89 251.23 237.06C251.35 237.35 251.46 237.57 251.57 237.86C251.69 238.15 251.86 238.43 251.97 238.72C252.09 239 252.26 239.29 252.37 239.57C252.43 239.63 252.43 239.74 252.49 239.8C252.6 239.97 252.66 240.2 252.77 240.43C252.94 240.83 253.11 241.17 253.34 241.57C253.51 241.85 253.63 242.19 253.8 242.54C253.97 242.94 254.2 243.34 254.43 243.73C254.48 243.91 254.54 244.02 254.65 244.13C254.71 244.3 254.83 244.48 254.94 244.65C255.22 245.22 255.51 245.79 255.85 246.41C256.02 246.76 256.19 247.04 256.37 247.38C256.71 248.07 257.11 248.81 257.51 249.55C257.62 249.78 257.73 249.95 257.79 250.12C257.85 250.18 257.85 250.24 257.91 250.29C258.08 250.64 258.25 250.92 258.42 251.26C258.7 251.83 258.99 252.35 259.33 252.92C259.5 253.26 259.73 253.66 259.96 254C260.24 254.57 260.59 255.08 260.87 255.65C261.1 256.05 261.33 256.45 261.56 256.85C261.9 257.42 262.18 257.99 262.52 258.56C262.75 259.02 263.04 259.42 263.27 259.87C263.49 260.22 263.67 260.56 263.89 260.96C264.01 261.19 264.18 261.47 264.35 261.7C264.58 262.1 264.81 262.5 265.09 262.95C265.49 263.58 265.83 264.27 266.23 264.89C266.46 265.29 266.75 265.75 266.97 266.15C267.37 266.83 267.83 267.57 268.28 268.26C268.51 268.66 268.8 269.11 269.08 269.51C269.6 270.31 270.11 271.17 270.62 272.02C270.85 272.36 271.02 272.65 271.25 272.99C271.99 274.19 272.79 275.39 273.59 276.64C273.76 276.87 273.93 277.16 274.04 277.38C274.67 278.41 275.36 279.38 276.04 280.41C276.33 280.86 276.67 281.32 276.95 281.77C277.52 282.63 278.09 283.49 278.66 284.34C279.01 284.85 279.41 285.43 279.75 285.94C280.09 286.39 280.38 286.91 280.72 287.36C280.89 287.65 281.12 287.93 281.29 288.22C281.92 289.13 282.54 289.99 283.17 290.9C283.63 291.58 284.08 292.27 284.6 292.95C285.22 293.87 285.91 294.84 286.59 295.8C287.05 296.49 287.56 297.17 288.02 297.86C288.76 298.88 289.5 299.91 290.24 300.99C290.7 301.62 291.15 302.31 291.67 302.93C292.58 304.19 293.55 305.5 294.46 306.76C294.81 307.21 295.09 307.61 295.38 308.01C295.43 308.07 295.43 308.12 295.49 308.12C296.34 309.26 297.2 310.46 298.11 311.6C298.57 312.17 298.97 312.74 299.42 313.31C300.74 315.08 302.1 316.91 303.53 318.73C304.9 320.5 306.21 322.21 307.58 323.92C308.04 324.49 308.44 325.01 308.83 325.57C309.52 326.49 310.26 327.4 310.95 328.31C311.12 328.54 311.29 328.71 311.4 328.88C312.2 329.85 312.94 330.82 313.74 331.79C314.37 332.59 314.99 333.33 315.56 334.13C316.31 335.1 317.1 336.01 317.85 336.98C318.42 337.72 319.04 338.47 319.61 339.15C320.35 340.06 321.1 340.97 321.9 341.89C322.47 342.57 323.04 343.26 323.61 343.94C324.35 344.85 325.15 345.77 325.89 346.68C326.34 347.25 326.86 347.82 327.31 348.39C327.37 348.45 327.43 348.5 327.43 348.56C328.17 349.47 328.91 350.38 329.71 351.24C330.16 351.81 330.68 352.38 331.13 352.95C332.22 354.26 333.3 355.52 334.33 356.72C334.44 356.83 334.56 357 334.67 357.11C335.87 358.48 337.01 359.85 338.15 361.16C338.43 361.51 338.72 361.79 339.01 362.13C339.86 363.1 340.66 364.07 341.46 364.99C341.46 365.04 341.51 365.04 341.51 365.1C341.86 365.5 342.2 365.9 342.54 366.3C343.28 367.1 343.97 367.95 344.71 368.69C345.11 369.15 345.51 369.6 345.91 370C346.53 370.75 347.22 371.49 347.84 372.17C348.3 372.63 348.7 373.14 349.16 373.6C349.73 374.22 350.3 374.85 350.87 375.48C351.32 375.99 351.72 376.45 352.18 376.9C352.69 377.48 353.21 378.05 353.72 378.62C353.83 378.73 353.95 378.84 354.06 378.96C354.35 379.24 354.63 379.53 354.92 379.87C355.49 380.5 356.06 381.07 356.57 381.64C356.97 382.04 357.31 382.44 357.71 382.84C358.22 383.41 358.74 383.92 359.25 384.49C359.59 384.89 359.99 385.23 360.34 385.63C360.85 386.14 361.3 386.66 361.82 387.17C362.16 387.51 362.5 387.86 362.84 388.2C363.3 388.65 363.76 389.17 364.21 389.62C364.44 389.85 364.61 390.08 364.84 390.25C364.95 390.36 365.07 390.48 365.13 390.59C365.64 391.16 366.21 391.68 366.72 392.19C366.95 392.42 367.18 392.65 367.41 392.87C368.15 393.62 368.83 394.3 369.46 394.93C369.52 394.98 369.52 394.98 369.57 395.04C370.2 395.67 370.77 396.24 371.4 396.81C371.63 397.04 371.8 397.21 372.03 397.38C372.43 397.78 372.77 398.12 373.17 398.46C373.22 398.52 373.34 398.63 373.4 398.69C373.51 398.81 373.62 398.92 373.74 399.03C374.14 399.38 374.48 399.72 374.82 400.06C374.99 400.23 375.16 400.4 375.33 400.52C375.73 400.86 376.08 401.2 376.42 401.54C376.53 401.6 376.59 401.71 376.7 401.77C377.16 402.17 377.5 402.51 377.9 402.85C377.96 402.91 378.02 402.91 378.02 402.97C378.3 403.25 378.59 403.48 378.81 403.71C378.81 403.71 378.87 403.77 378.93 403.77C378.98 403.82 379.1 403.88 379.16 403.94C379.27 404.05 379.38 404.11 379.44 404.22C379.55 404.28 379.61 404.39 379.67 404.45C379.78 404.51 379.84 404.62 379.95 404.68C380.01 404.68 380.01 404.74 380.01 404.74C380.24 404.91 380.41 405.08 380.47 405.14L391.13 398.92C391.19 398.98 391.25 399.03 391.3 399.03L420.68 382.27Z" fill="#D0DDDD" fill-opacity="1.000000" fill-rule="nonzero"></path>
&#x9;&#x9;<path id="Vector" d="M248.49 229.53C249.01 231.13 259.33 261.36 303.64 318.96C349.56 378.62 378.93 404.11 380.47 405.42L380.35 440.1C371.57 609.37 253.63 602.64 247.41 602.3C241.19 595.51 123.59 466.22 115.78 287.36L115.89 252.69C117.43 253.14 146.81 261.59 192.94 255.03C237.49 248.7 247.92 230.5 248.49 229.53Z" fill="url(#paint_linear_212_4465_0)" fill-opacity="1.000000" fill-rule="nonzero"></path>
&#x9;&#x9;<path id="Vector" d="M361.99 413.52L361.93 439.58C355.15 566.76 283.63 582.56 255.8 583.82C230.82 554.56 141.1 439.35 134.26 286.96L134.26 274.65C141.1 275.39 149.32 275.96 158.67 275.96C170.7 275.96 183.08 275.04 195.51 273.33C216.39 270.37 231.27 264.89 241.77 259.07C250.26 275.04 264.81 298.83 288.99 330.19C324.29 375.99 350.36 402.45 361.99 413.52Z" fill="#617C7C" fill-opacity="1.000000" fill-rule="nonzero"></path>
&#x9;&#x9;<path id="Vector" d="M361.99 413.52L361.93 439.58C355.14 566.76 283.62 582.56 255.79 583.82L241.82 259.07C250.32 275.04 264.86 298.83 289.04 330.19C324.29 375.99 350.35 402.45 361.99 413.52Z" fill="#617C7C" fill-opacity="1.000000" fill-rule="nonzero"></path>
&#x9;&#x9;<path id="Vector" d="M267.71 400.06C267.71 386.54 256.76 368.75 243.19 360.31C229.67 351.87 218.67 356.03 218.67 369.55C218.67 380.38 225.68 393.9 235.43 403.2L229.33 441.58L256.25 458.35L250.89 412.89C260.7 415.69 267.71 410.9 267.71 400.06Z" fill="#FFFFFF" fill-opacity="1.000000" fill-rule="nonzero"></path>
&#x9;&#x9;<path id="Vector" d="M293.71 444.2L293.71 692.58C293.71 698.85 288.07 703.19 282.36 702.39C283.84 700.68 284.81 698.45 284.81 695.89L284.81 447.51C284.81 438.96 280.25 431.03 272.89 426.75L15.22 276.87C14.02 276.18 12.77 275.73 11.52 275.56C14.54 272.19 19.67 270.99 24.12 273.56L281.79 423.44C289.15 427.78 293.71 435.65 293.71 444.2Z" fill="#B8CCCC" fill-opacity="1.000000" fill-rule="nonzero"></path>
&#x9;&#x9;<g opacity="0.600000">
&#x9;&#x9;&#x9;<path id="Vector" d="M272.84 426.75L15.17 276.87C13.97 276.19 12.71 275.73 11.46 275.56C5.7 274.76 0 279.15 0 285.6L0 536.25C0 543.15 3.65 549.48 9.58 552.96L269.99 704.44C274.32 707.01 279.45 705.75 282.42 702.39C283.9 700.68 284.87 698.45 284.87 695.89L284.87 447.51C284.81 438.9 280.25 431.03 272.84 426.75Z" fill="#B8CCCC" fill-opacity="1.000000" fill-rule="nonzero"></path>
&#x9;&#x9;</g>
&#x9;&#x9;<g opacity="0.720000">
&#x9;&#x9;&#x9;<path id="Vector" d="M218.2 564.31L61.65 474.83C53.32 470.09 46.53 459.37 46.53 451.05C46.53 442.72 53.32 439.81 61.65 444.54L218.2 534.03C226.53 538.76 233.31 549.48 233.31 557.81C233.31 566.14 226.53 569.05 218.2 564.31Z" fill="#FFFFFF" fill-opacity="1.000000" fill-rule="nonzero"></path>
&#x9;&#x9;&#x9;<path id="Vector" d="M218.2 615.93L61.65 526.44C53.32 521.71 46.53 510.99 46.53 502.66C46.53 494.33 53.32 491.43 61.65 496.16L218.2 585.64C226.53 590.38 233.31 601.1 233.31 609.43C233.31 617.75 226.53 620.66 218.2 615.93Z" fill="#FFFFFF" fill-opacity="1.000000" fill-rule="nonzero"></path>
&#x9;&#x9;&#x9;<path id="Vector" d="M139.89 390.99C118.62 378.84 101.4 386.2 101.4 407.47C101.4 428.75 118.62 455.78 139.89 467.99C161.17 480.13 178.39 472.78 178.39 451.5C178.39 430.23 161.17 403.14 139.89 390.99ZM155.18 467.87C159.28 466.22 161.85 462.11 161.85 455.95C161.85 445.4 154.44 432.34 144.51 424.58C148.22 424.98 150.78 422.7 150.78 418.31C150.78 412.32 145.94 404.68 139.89 401.2C133.9 397.78 129 399.83 129 405.88C129 410.21 131.57 415.46 135.27 419.34C125.35 415.8 117.94 420.31 117.94 430.86C117.94 437.02 120.5 444.09 124.61 450.42C113.89 438.73 106.53 423.39 106.53 410.44C106.53 392.02 121.47 385.63 139.84 396.18C158.26 406.73 173.14 430.17 173.14 448.54C173.26 461.43 165.9 468.44 155.18 467.87Z" fill="#FFFFFF" fill-opacity="1.000000" fill-rule="nonzero"></path>
&#x9;&#x9;</g>
&#x9;</g>
</svg>