<svg width="195.000000" height="140.000000" viewBox="0 0 195 140" fill="none" xmlns="http://www.w3.org/2000/svg" xmlns:xlink="http://www.w3.org/1999/xlink">
&#x9;<desc>
&#x9;&#x9;&#x9;Created with Pixso.
&#x9;</desc>
&#x9;<defs>
&#x9;&#x9;<clipPath id="clip201_7465">
&#x9;&#x9;&#x9;<rect id="important-deals" width="195.000000" height="140.000000" fill="white" fill-opacity="0"></rect>
&#x9;&#x9;</clipPath>
&#x9;</defs>
&#x9;<g clip-path="url(#clip201_7465)">
&#x9;&#x9;<path id="Vector 2123" d="M168.5 92.5L94.5 49.5L30.5 79.5L106.5 121.5L168.5 92.5Z" fill="#8FC2BE" fill-opacity="1.000000" fill-rule="evenodd"></path>
&#x9;&#x9;<path id="polygon" d="M93.09 30L172 75.38L172 95.59L93.09 50.23L93.09 30Z" fill="#B5D8D6" fill-opacity="1.000000" fill-rule="nonzero"></path>
&#x9;&#x9;<path id="polygon" d="M41.66 59.57L45.25 63.71L72.06 48.3L75.65 40.03L93.09 30L93.09 50.22L24.23 89.82L24.23 69.59L41.66 59.57Z" fill="#A3CCC9" fill-opacity="1.000000" fill-rule="nonzero"></path>
&#x9;&#x9;<path id="Cube_face_-_left" d="M104.05 106.6L36.07 67.61L36.07 61.43L104.05 100.41L104.05 106.6Z" fill="#D8EDEB" fill-opacity="1.000000" fill-rule="nonzero"></path>
&#x9;&#x9;<path id="Cube_face_-_left" d="M104.05 115.6L36.07 76.61L36.07 66.43L104.05 105.41L104.05 115.6Z" fill="#D8EDEB" fill-opacity="1.000000" fill-rule="nonzero"></path>
&#x9;&#x9;<path id="Vector" d="M69.17 89.72L32.91 71.25L36.47 68.92L69.17 89.72Z" fill="#F0F9F8" fill-opacity="1.000000" fill-rule="nonzero"></path>
&#x9;&#x9;<g opacity="0.500000">
&#x9;&#x9;&#x9;<path id="Vector" d="M100.76 104.61L80.77 95.37L67.4 86.38L100.76 104.61Z" fill="#F0F9F8" fill-opacity="1.000000" fill-rule="nonzero"></path>
&#x9;&#x9;</g>
&#x9;&#x9;<path id="polygon" d="M132.53 84.09L132.53 99.12L104.05 115.45L104.05 100.41L132.53 84.09Z" fill="#C3DFDC" fill-opacity="1.000000" fill-rule="nonzero"></path>
&#x9;&#x9;<g opacity="0.500000">
&#x9;&#x9;&#x9;<path id="Vector" d="M114.52 97.39L103.9 104.27L95.53 98.18L103.85 102.73L114.52 97.39Z" fill="#F0F9F8" fill-opacity="1.000000" fill-rule="nonzero"></path>
&#x9;&#x9;</g>
&#x9;&#x9;<g opacity="0.500000">
&#x9;&#x9;&#x9;<path id="Vector" d="M114.52 104.39L103.9 111.27L95.53 105.18L103.85 109.73L114.52 104.39Z" fill="#F0F9F8" fill-opacity="1.000000" fill-rule="nonzero"></path>
&#x9;&#x9;</g>
&#x9;&#x9;<path id="Cube_face_-_right" d="M152.03 87.93L131.21 99.87L131.21 84.84L152.03 72.89L152.03 87.93Z" fill="#C3DFDC" fill-opacity="1.000000" fill-rule="nonzero"></path>
&#x9;&#x9;<path id="Cube_face_-_top" d="M104.05 100.41L36.07 61.43L84.06 33.9L152.03 72.89L104.05 100.41Z" fill="#F0F9F8" fill-opacity="1.000000" fill-rule="nonzero"></path>
&#x9;&#x9;<path id="Vector" d="M124.7 91.12L147.68 78.57L142.55 82.01L124.7 91.12Z" fill="#DAECEA" fill-opacity="1.000000" fill-rule="nonzero"></path>
&#x9;&#x9;<path id="Vector" d="M118.5 97.3L141.47 84.76L136.34 88.2L118.5 97.3Z" fill="#DAECEA" fill-opacity="1.000000" fill-rule="nonzero"></path>
&#x9;&#x9;<path id="Vector" d="M114.06 102.61L137.04 90.07L131.91 93.51L114.06 102.61Z" fill="#DAECEA" fill-opacity="1.000000" fill-rule="nonzero"></path>
&#x9;&#x9;<path id="Cube_face_-_top-2" d="M102.98 100.92L35 61.93L82.98 34.41L150.96 73.39L102.98 100.92Z" fill="#F0F9F8" fill-opacity="1.000000" fill-rule="nonzero"></path>
&#x9;&#x9;<path id="Cube_face_-_left-2" d="M104.05 100.71L36.07 61.71L36.07 59.52L104.05 98.51L104.05 100.71Z" fill="#D8EDEB" fill-opacity="1.000000" fill-rule="nonzero"></path>
&#x9;&#x9;<path id="Cube_face_-_top-3" d="M104.05 98.51L36.07 59.52L84.06 32L152.03 70.99L104.05 98.51Z" fill="#F0F9F8" fill-opacity="1.000000" fill-rule="nonzero"></path>
&#x9;&#x9;<path id="polygon" d="M24.23 69.59L103.14 114.96L103.14 135.19L24.23 89.82L24.23 69.59Z" fill="#F0F9F8" fill-opacity="1.000000" fill-rule="nonzero"></path>
&#x9;&#x9;<path id="polygon" d="M120.57 104.94L124.16 109.09L150.97 93.66L154.56 85.39L172 75.37L172 95.59L103.14 135.19L103.14 114.96L120.57 104.94Z" fill="#E0F3F1" fill-opacity="1.000000" fill-rule="nonzero"></path>
&#x9;&#x9;<path id="Vector" d="M35 57.28C54.96 47.08 64.57 41.99 80.53 31L141.32 66.07L95.78 92.36L35 57.28Z" fill="#F0F9F8" fill-opacity="1.000000" fill-rule="nonzero"></path>
&#x9;&#x9;<g opacity="0.400000">
&#x9;&#x9;&#x9;<g opacity="0.400000">
&#x9;&#x9;&#x9;&#x9;<path id="Vector" d="M41.12 57.93L78.83 35.94L79.77 36.58L42.06 58.56L41.12 57.93Z" fill="#A3CCC9" fill-opacity="1.000000" fill-rule="nonzero"></path>
&#x9;&#x9;&#x9;</g>
&#x9;&#x9;&#x9;<g opacity="0.400000">
&#x9;&#x9;&#x9;&#x9;<path id="Vector" d="M71.27 43.51L81.64 37.47L82.58 38.1L72.21 44.15L71.27 43.51Z" fill="#A3CCC9" fill-opacity="1.000000" fill-rule="nonzero"></path>
&#x9;&#x9;&#x9;</g>
&#x9;&#x9;&#x9;<g opacity="0.400000">
&#x9;&#x9;&#x9;&#x9;<path id="Vector" d="M67.38 46.96L57.07 52.98L56.13 52.34L66.44 46.33L67.38 46.96Z" fill="#A3CCC9" fill-opacity="1.000000" fill-rule="nonzero"></path>
&#x9;&#x9;&#x9;</g>
&#x9;&#x9;&#x9;<g opacity="0.400000">
&#x9;&#x9;&#x9;&#x9;<path id="Vector" d="M51.3 55.15L52.24 55.79L44.87 60.09L43.93 59.45L51.3 55.15Z" fill="#A3CCC9" fill-opacity="1.000000" fill-rule="nonzero"></path>
&#x9;&#x9;&#x9;</g>
&#x9;&#x9;&#x9;<g opacity="0.400000">
&#x9;&#x9;&#x9;&#x9;<path id="Vector" d="M61.91 52.11L83.71 39.4L84.65 40.03L62.84 52.74L61.91 52.11Z" fill="#A3CCC9" fill-opacity="1.000000" fill-rule="nonzero"></path>
&#x9;&#x9;&#x9;</g>
&#x9;&#x9;&#x9;<g opacity="0.400000">
&#x9;&#x9;&#x9;&#x9;<path id="Vector" d="M51.7 58.06L52.63 58.69L46.94 62.01L46 61.38L51.7 58.06Z" fill="#A3CCC9" fill-opacity="1.000000" fill-rule="nonzero"></path>
&#x9;&#x9;&#x9;</g>
&#x9;&#x9;&#x9;<g opacity="0.400000">
&#x9;&#x9;&#x9;&#x9;<path id="Vector" d="M78.5 45.7L86.47 41.05L87.4 41.69L79.43 46.33L78.5 45.7Z" fill="#A3CCC9" fill-opacity="1.000000" fill-rule="nonzero"></path>
&#x9;&#x9;&#x9;</g>
&#x9;&#x9;&#x9;<g opacity="0.400000">
&#x9;&#x9;&#x9;&#x9;<path id="Vector" d="M71.37 49.85L72.31 50.49L49.69 63.67L48.75 63.04L71.37 49.85Z" fill="#A3CCC9" fill-opacity="1.000000" fill-rule="nonzero"></path>
&#x9;&#x9;&#x9;</g>
&#x9;&#x9;&#x9;<g opacity="0.400000">
&#x9;&#x9;&#x9;&#x9;<path id="Vector" d="M52.64 64.42L90.34 42.43L91.29 43.06L53.57 65.05L52.64 64.42Z" fill="#A3CCC9" fill-opacity="1.000000" fill-rule="nonzero"></path>
&#x9;&#x9;&#x9;</g>
&#x9;&#x9;&#x9;<g opacity="0.400000">
&#x9;&#x9;&#x9;&#x9;<path id="Vector" d="M82.79 50L93.16 43.96L94.1 44.59L83.72 50.63L82.79 50Z" fill="#A3CCC9" fill-opacity="1.000000" fill-rule="nonzero"></path>
&#x9;&#x9;&#x9;</g>
&#x9;&#x9;&#x9;<g opacity="0.400000">
&#x9;&#x9;&#x9;&#x9;<path id="Vector" d="M78.89 53.45L68.58 59.47L67.65 58.83L77.96 52.82L78.89 53.45Z" fill="#A3CCC9" fill-opacity="1.000000" fill-rule="nonzero"></path>
&#x9;&#x9;&#x9;</g>
&#x9;&#x9;&#x9;<g opacity="0.400000">
&#x9;&#x9;&#x9;&#x9;<path id="Vector" d="M62.82 61.64L63.75 62.28L56.39 66.57L55.45 65.94L62.82 61.64Z" fill="#A3CCC9" fill-opacity="1.000000" fill-rule="nonzero"></path>
&#x9;&#x9;&#x9;</g>
&#x9;&#x9;&#x9;<g opacity="0.400000">
&#x9;&#x9;&#x9;&#x9;<path id="Vector" d="M73.42 58.59L95.23 45.89L96.17 46.52L74.36 59.23L73.42 58.59Z" fill="#A3CCC9" fill-opacity="1.000000" fill-rule="nonzero"></path>
&#x9;&#x9;&#x9;</g>
&#x9;&#x9;&#x9;<g opacity="0.400000">
&#x9;&#x9;&#x9;&#x9;<path id="Vector" d="M63.21 64.55L64.15 65.18L58.46 68.5L57.52 67.87L63.21 64.55Z" fill="#A3CCC9" fill-opacity="1.000000" fill-rule="nonzero"></path>
&#x9;&#x9;&#x9;</g>
&#x9;&#x9;&#x9;<g opacity="0.400000">
&#x9;&#x9;&#x9;&#x9;<path id="Vector" d="M90.01 52.19L97.98 47.54L98.92 48.18L90.95 52.82L90.01 52.19Z" fill="#A3CCC9" fill-opacity="1.000000" fill-rule="nonzero"></path>
&#x9;&#x9;&#x9;</g>
&#x9;&#x9;&#x9;<g opacity="0.400000">
&#x9;&#x9;&#x9;&#x9;<path id="Vector" d="M82.88 56.34L83.82 56.98L61.21 70.16L60.27 69.53L82.88 56.34Z" fill="#A3CCC9" fill-opacity="1.000000" fill-rule="nonzero"></path>
&#x9;&#x9;&#x9;</g>
&#x9;&#x9;&#x9;<g opacity="0.400000">
&#x9;&#x9;&#x9;&#x9;<path id="Vector" d="M83.9 64.48L105.52 51.3L106.47 51.91L84.85 65.09L83.9 64.48Z" fill="#A3CCC9" fill-opacity="1.000000" fill-rule="nonzero"></path>
&#x9;&#x9;&#x9;</g>
&#x9;&#x9;&#x9;<g opacity="0.400000">
&#x9;&#x9;&#x9;&#x9;<path id="Vector" d="M73.77 70.65L74.72 71.26L69.07 74.71L68.12 74.09L73.77 70.65Z" fill="#A3CCC9" fill-opacity="1.000000" fill-rule="nonzero"></path>
&#x9;&#x9;&#x9;</g>
&#x9;&#x9;&#x9;<g opacity="0.400000">
&#x9;&#x9;&#x9;&#x9;<path id="Vector" d="M100.41 57.7L108.31 52.89L109.27 53.49L101.37 58.31L100.41 57.7Z" fill="#A3CCC9" fill-opacity="1.000000" fill-rule="nonzero"></path>
&#x9;&#x9;&#x9;</g>
&#x9;&#x9;&#x9;<g opacity="0.400000">
&#x9;&#x9;&#x9;&#x9;<path id="Vector" d="M93.34 62.01L94.29 62.62L71.87 76.29L70.92 75.68L93.34 62.01Z" fill="#A3CCC9" fill-opacity="1.000000" fill-rule="nonzero"></path>
&#x9;&#x9;&#x9;</g>
&#x9;&#x9;&#x9;<g opacity="0.400000">
&#x9;&#x9;&#x9;&#x9;<path id="Vector" d="M74.84 76.96L112.23 54.17L113.2 54.77L75.8 77.57L74.84 76.96Z" fill="#A3CCC9" fill-opacity="1.000000" fill-rule="nonzero"></path>
&#x9;&#x9;&#x9;</g>
&#x9;&#x9;&#x9;<g opacity="0.400000">
&#x9;&#x9;&#x9;&#x9;<path id="Vector" d="M99.12 71.86L120.93 59.15L121.86 59.79L100.06 72.5L99.12 71.86Z" fill="#A3CCC9" fill-opacity="1.000000" fill-rule="nonzero"></path>
&#x9;&#x9;&#x9;</g>
&#x9;&#x9;&#x9;<g opacity="0.400000">
&#x9;&#x9;&#x9;&#x9;<path id="Vector" d="M88.91 77.82L89.85 78.46L84.15 81.77L83.21 81.13L88.91 77.82Z" fill="#A3CCC9" fill-opacity="1.000000" fill-rule="nonzero"></path>
&#x9;&#x9;&#x9;</g>
&#x9;&#x9;&#x9;<g opacity="0.400000">
&#x9;&#x9;&#x9;&#x9;<path id="Vector" d="M115.72 65.45L123.68 60.81L124.62 61.44L116.64 66.09L115.72 65.45Z" fill="#A3CCC9" fill-opacity="1.000000" fill-rule="nonzero"></path>
&#x9;&#x9;&#x9;</g>
&#x9;&#x9;&#x9;<g opacity="0.400000">
&#x9;&#x9;&#x9;&#x9;<path id="Vector" d="M108.59 69.61L109.52 70.24L86.9 83.43L85.97 82.79L108.59 69.61Z" fill="#A3CCC9" fill-opacity="1.000000" fill-rule="nonzero"></path>
&#x9;&#x9;&#x9;</g>
&#x9;&#x9;&#x9;<g opacity="0.400000">
&#x9;&#x9;&#x9;&#x9;<path id="Vector" d="M109.59 77.75L131.21 64.57L132.17 65.18L110.54 78.36L109.59 77.75Z" fill="#A3CCC9" fill-opacity="1.000000" fill-rule="nonzero"></path>
&#x9;&#x9;&#x9;</g>
&#x9;&#x9;&#x9;<g opacity="0.400000">
&#x9;&#x9;&#x9;&#x9;<path id="Vector" d="M99.47 83.93L100.42 84.53L94.77 87.98L93.82 87.36L99.47 83.93Z" fill="#A3CCC9" fill-opacity="1.000000" fill-rule="nonzero"></path>
&#x9;&#x9;&#x9;</g>
&#x9;&#x9;&#x9;<g opacity="0.400000">
&#x9;&#x9;&#x9;&#x9;<path id="Vector" d="M104.81 61.89L115.09 55.61L116.05 56.23L105.76 62.5L104.81 61.89Z" fill="#A3CCC9" fill-opacity="1.000000" fill-rule="nonzero"></path>
&#x9;&#x9;&#x9;</g>
&#x9;&#x9;&#x9;<g opacity="0.400000">
&#x9;&#x9;&#x9;&#x9;<path id="Vector" d="M100.97 65.42L90.75 71.65L89.79 71.04L100.02 64.8L100.97 65.42Z" fill="#A3CCC9" fill-opacity="1.000000" fill-rule="nonzero"></path>
&#x9;&#x9;&#x9;</g>
&#x9;&#x9;&#x9;<g opacity="0.400000">
&#x9;&#x9;&#x9;&#x9;<path id="Vector" d="M85 73.95L85.96 74.56L78.65 79.02L77.7 78.41L85 73.95Z" fill="#A3CCC9" fill-opacity="1.000000" fill-rule="nonzero"></path>
&#x9;&#x9;&#x9;</g>
&#x9;&#x9;&#x9;<g opacity="0.400000">
&#x9;&#x9;&#x9;&#x9;<path id="Vector" d="M95.59 70.67L117.21 57.49L118.16 58.09L96.54 71.28L95.59 70.67Z" fill="#A3CCC9" fill-opacity="1.000000" fill-rule="nonzero"></path>
&#x9;&#x9;&#x9;</g>
&#x9;&#x9;&#x9;<g opacity="0.400000">
&#x9;&#x9;&#x9;&#x9;<path id="Vector" d="M85.46 76.84L86.42 77.45L80.76 80.89L79.81 80.28L85.46 76.84Z" fill="#A3CCC9" fill-opacity="1.000000" fill-rule="nonzero"></path>
&#x9;&#x9;&#x9;</g>
&#x9;&#x9;</g>
&#x9;&#x9;<path id="Vector" d="M101.01 89.32L141.26 66.06L89.93 36.41L43.02 59.54C65.39 69.95 86.57 79.94 101.01 89.32Z" fill="#D0EAE7" fill-opacity="1.000000" fill-rule="nonzero"></path>
&#x9;&#x9;<path id="Vector" d="M42.96 59.44L90.13 34.72C114.03 47.54 133.4 59.1 153.11 65.86L105.93 90.59C91.33 80.74 67.91 70.29 42.96 59.44Z" fill="#F4F9F7" fill-opacity="1.000000" fill-rule="nonzero"></path>
&#x9;&#x9;<g opacity="0.400000">
&#x9;&#x9;&#x9;<g opacity="0.400000">
&#x9;&#x9;&#x9;&#x9;<path id="Vector" d="M52.97 58.92L89.73 38.85L90.7 39.43L53.93 59.49L52.97 58.92Z" fill="#A3CCC9" fill-opacity="1.000000" fill-rule="nonzero"></path>
&#x9;&#x9;&#x9;</g>
&#x9;&#x9;&#x9;<g opacity="0.400000">
&#x9;&#x9;&#x9;&#x9;<path id="Vector" d="M82.5 45.76L92.61 40.24L93.58 40.82L83.46 46.34L82.5 45.76Z" fill="#A3CCC9" fill-opacity="1.000000" fill-rule="nonzero"></path>
&#x9;&#x9;&#x9;</g>
&#x9;&#x9;&#x9;<g opacity="0.400000">
&#x9;&#x9;&#x9;&#x9;<path id="Vector" d="M78.75 48.91L68.71 54.4L67.74 53.81L77.79 48.33L78.75 48.91Z" fill="#A3CCC9" fill-opacity="1.000000" fill-rule="nonzero"></path>
&#x9;&#x9;&#x9;</g>
&#x9;&#x9;&#x9;<g opacity="0.400000">
&#x9;&#x9;&#x9;&#x9;<path id="Vector" d="M63.03 56.39L63.99 56.96L56.81 60.89L55.84 60.3L63.03 56.39Z" fill="#A3CCC9" fill-opacity="1.000000" fill-rule="nonzero"></path>
&#x9;&#x9;&#x9;</g>
&#x9;&#x9;&#x9;<g opacity="0.400000">
&#x9;&#x9;&#x9;&#x9;<path id="Vector" d="M73.5 53.6L94.76 42L95.73 42.58L74.46 54.18L73.5 53.6Z" fill="#A3CCC9" fill-opacity="1.000000" fill-rule="nonzero"></path>
&#x9;&#x9;&#x9;</g>
&#x9;&#x9;&#x9;<g opacity="0.400000">
&#x9;&#x9;&#x9;&#x9;<path id="Vector" d="M63.55 59.04L64.51 59.61L58.96 62.64L57.99 62.06L63.55 59.04Z" fill="#A3CCC9" fill-opacity="1.000000" fill-rule="nonzero"></path>
&#x9;&#x9;&#x9;</g>
&#x9;&#x9;&#x9;<g opacity="0.400000">
&#x9;&#x9;&#x9;&#x9;<path id="Vector" d="M89.82 47.75L97.59 43.51L98.55 44.09L90.79 48.34L89.82 47.75Z" fill="#A3CCC9" fill-opacity="1.000000" fill-rule="nonzero"></path>
&#x9;&#x9;&#x9;</g>
&#x9;&#x9;&#x9;<g opacity="0.400000">
&#x9;&#x9;&#x9;&#x9;<path id="Vector" d="M82.87 51.55L83.83 52.12L61.78 64.16L60.82 63.57L82.87 51.55Z" fill="#A3CCC9" fill-opacity="1.000000" fill-rule="nonzero"></path>
&#x9;&#x9;&#x9;</g>
&#x9;&#x9;&#x9;<g opacity="0.400000">
&#x9;&#x9;&#x9;&#x9;<path id="Vector" d="M64.76 64.83L101.53 44.77L102.49 45.35L65.72 65.41L64.76 64.83Z" fill="#A3CCC9" fill-opacity="1.000000" fill-rule="nonzero"></path>
&#x9;&#x9;&#x9;</g>
&#x9;&#x9;&#x9;<g opacity="0.400000">
&#x9;&#x9;&#x9;&#x9;<path id="Vector" d="M94.29 51.68L104.4 46.17L105.37 46.74L95.25 52.26L94.29 51.68Z" fill="#A3CCC9" fill-opacity="1.000000" fill-rule="nonzero"></path>
&#x9;&#x9;&#x9;</g>
&#x9;&#x9;&#x9;<g opacity="0.400000">
&#x9;&#x9;&#x9;&#x9;<path id="Vector" d="M90.55 54.83L80.49 60.31L79.53 59.74L89.58 54.25L90.55 54.83Z" fill="#A3CCC9" fill-opacity="1.000000" fill-rule="nonzero"></path>
&#x9;&#x9;&#x9;</g>
&#x9;&#x9;&#x9;<g opacity="0.400000">
&#x9;&#x9;&#x9;&#x9;<path id="Vector" d="M74.83 62.31L75.79 62.88L68.6 66.8L67.64 66.23L74.83 62.31Z" fill="#A3CCC9" fill-opacity="1.000000" fill-rule="nonzero"></path>
&#x9;&#x9;&#x9;</g>
&#x9;&#x9;&#x9;<g opacity="0.400000">
&#x9;&#x9;&#x9;&#x9;<path id="Vector" d="M85.3 59.52L106.56 47.92L107.52 48.5L86.26 60.1L85.3 59.52Z" fill="#A3CCC9" fill-opacity="1.000000" fill-rule="nonzero"></path>
&#x9;&#x9;&#x9;</g>
&#x9;&#x9;&#x9;<g opacity="0.400000">
&#x9;&#x9;&#x9;&#x9;<path id="Vector" d="M75.34 64.95L76.3 65.54L70.75 68.57L69.79 67.98L75.34 64.95Z" fill="#A3CCC9" fill-opacity="1.000000" fill-rule="nonzero"></path>
&#x9;&#x9;&#x9;</g>
&#x9;&#x9;&#x9;<g opacity="0.400000">
&#x9;&#x9;&#x9;&#x9;<path id="Vector" d="M101.61 53.67L109.38 49.44L110.34 50.01L102.57 54.26L101.61 53.67Z" fill="#A3CCC9" fill-opacity="1.000000" fill-rule="nonzero"></path>
&#x9;&#x9;&#x9;</g>
&#x9;&#x9;&#x9;<g opacity="0.400000">
&#x9;&#x9;&#x9;&#x9;<path id="Vector" d="M94.66 57.46L95.62 58.04L73.58 70.08L72.62 69.5L94.66 57.46Z" fill="#A3CCC9" fill-opacity="1.000000" fill-rule="nonzero"></path>
&#x9;&#x9;&#x9;</g>
&#x9;&#x9;&#x9;<g opacity="0.400000">
&#x9;&#x9;&#x9;&#x9;<path id="Vector" d="M96.02 64.9L117.07 52.86L118.06 53.43L97 65.45L96.02 64.9Z" fill="#A3CCC9" fill-opacity="1.000000" fill-rule="nonzero"></path>
&#x9;&#x9;&#x9;</g>
&#x9;&#x9;&#x9;<g opacity="0.400000">
&#x9;&#x9;&#x9;&#x9;<path id="Vector" d="M86.16 70.53L87.14 71.08L81.63 74.23L80.66 73.67L86.16 70.53Z" fill="#A3CCC9" fill-opacity="1.000000" fill-rule="nonzero"></path>
&#x9;&#x9;&#x9;</g>
&#x9;&#x9;&#x9;<g opacity="0.400000">
&#x9;&#x9;&#x9;&#x9;<path id="Vector" d="M112.25 58.71L119.94 54.32L120.92 54.87L113.23 59.26L112.25 58.71Z" fill="#A3CCC9" fill-opacity="1.000000" fill-rule="nonzero"></path>
&#x9;&#x9;&#x9;</g>
&#x9;&#x9;&#x9;<g opacity="0.400000">
&#x9;&#x9;&#x9;&#x9;<path id="Vector" d="M105.37 62.64L106.34 63.2L84.5 75.67L83.52 75.11L105.37 62.64Z" fill="#A3CCC9" fill-opacity="1.000000" fill-rule="nonzero"></path>
&#x9;&#x9;&#x9;</g>
&#x9;&#x9;&#x9;<g opacity="0.400000">
&#x9;&#x9;&#x9;&#x9;<path id="Vector" d="M87.51 76.28L123.92 55.48L124.9 56.03L88.49 76.84L87.51 76.28Z" fill="#A3CCC9" fill-opacity="1.000000" fill-rule="nonzero"></path>
&#x9;&#x9;&#x9;</g>
&#x9;&#x9;&#x9;<g opacity="0.400000">
&#x9;&#x9;&#x9;&#x9;<path id="Vector" d="M111.57 71.63L132.83 60.03L133.79 60.61L112.53 72.21L111.57 71.63Z" fill="#A3CCC9" fill-opacity="1.000000" fill-rule="nonzero"></path>
&#x9;&#x9;&#x9;</g>
&#x9;&#x9;&#x9;<g opacity="0.400000">
&#x9;&#x9;&#x9;&#x9;<path id="Vector" d="M101.61 77.06L102.57 77.64L97.02 80.67L96.06 80.09L101.61 77.06Z" fill="#A3CCC9" fill-opacity="1.000000" fill-rule="nonzero"></path>
&#x9;&#x9;&#x9;</g>
&#x9;&#x9;&#x9;<g opacity="0.400000">
&#x9;&#x9;&#x9;&#x9;<path id="Vector" d="M127.88 65.78L135.65 61.54L136.61 62.12L128.84 66.37L127.88 65.78Z" fill="#A3CCC9" fill-opacity="1.000000" fill-rule="nonzero"></path>
&#x9;&#x9;&#x9;</g>
&#x9;&#x9;&#x9;<g opacity="0.400000">
&#x9;&#x9;&#x9;&#x9;<path id="Vector" d="M120.93 69.57L121.89 70.15L99.85 82.19L98.88 81.6L120.93 69.57Z" fill="#A3CCC9" fill-opacity="1.000000" fill-rule="nonzero"></path>
&#x9;&#x9;&#x9;</g>
&#x9;&#x9;&#x9;<g opacity="0.400000">
&#x9;&#x9;&#x9;&#x9;<path id="Vector" d="M122.29 77L143.35 64.98L144.33 65.53L123.26 77.56L122.29 77Z" fill="#A3CCC9" fill-opacity="1.000000" fill-rule="nonzero"></path>
&#x9;&#x9;&#x9;</g>
&#x9;&#x9;&#x9;<g opacity="0.400000">
&#x9;&#x9;&#x9;&#x9;<path id="Vector" d="M112.43 82.64L113.41 83.19L107.9 86.33L106.93 85.78L112.43 82.64Z" fill="#A3CCC9" fill-opacity="1.000000" fill-rule="nonzero"></path>
&#x9;&#x9;&#x9;</g>
&#x9;&#x9;&#x9;<g opacity="0.400000">
&#x9;&#x9;&#x9;&#x9;<path id="Vector" d="M116.82 62.53L126.84 56.8L127.82 57.36L117.8 63.09L116.82 62.53Z" fill="#A3CCC9" fill-opacity="1.000000" fill-rule="nonzero"></path>
&#x9;&#x9;&#x9;</g>
&#x9;&#x9;&#x9;<g opacity="0.400000">
&#x9;&#x9;&#x9;&#x9;<path id="Vector" d="M113.14 65.75L103.18 71.43L102.2 70.88L112.16 65.19L113.14 65.75Z" fill="#A3CCC9" fill-opacity="1.000000" fill-rule="nonzero"></path>
&#x9;&#x9;&#x9;</g>
&#x9;&#x9;&#x9;<g opacity="0.400000">
&#x9;&#x9;&#x9;&#x9;<path id="Vector" d="M97.54 73.55L98.51 74.1L91.4 78.16L90.42 77.6L97.54 73.55Z" fill="#A3CCC9" fill-opacity="1.000000" fill-rule="nonzero"></path>
&#x9;&#x9;&#x9;</g>
&#x9;&#x9;&#x9;<g opacity="0.400000">
&#x9;&#x9;&#x9;&#x9;<path id="Vector" d="M107.98 70.54L129.04 58.51L130.02 59.06L108.96 71.1L107.98 70.54Z" fill="#A3CCC9" fill-opacity="1.000000" fill-rule="nonzero"></path>
&#x9;&#x9;&#x9;</g>
&#x9;&#x9;&#x9;<g opacity="0.400000">
&#x9;&#x9;&#x9;&#x9;<path id="Vector" d="M98.12 76.17L99.1 76.72L93.59 79.87L92.62 79.31L98.12 76.17Z" fill="#A3CCC9" fill-opacity="1.000000" fill-rule="nonzero"></path>
&#x9;&#x9;&#x9;</g>
&#x9;&#x9;</g>
&#x9;</g>
</svg>