<svg width="195.000000" height="140.000000" viewBox="0 0 195 140" fill="none" xmlns="http://www.w3.org/2000/svg" xmlns:xlink="http://www.w3.org/1999/xlink">
&#x9;<desc>
&#x9;&#x9;&#x9;Created with Pixso.
&#x9;</desc>
&#x9;<defs>
&#x9;&#x9;<clipPath id="clip201_4826">
&#x9;&#x9;&#x9;<rect id="important-leads" width="195.000000" height="140.000000" fill="white" fill-opacity="0"></rect>
&#x9;&#x9;</clipPath>
&#x9;</defs>
&#x9;<g clip-path="url(#clip201_4826)">
&#x9;&#x9;<g opacity="0.300000">
&#x9;&#x9;&#x9;<path id="Vector" d="M105.58 128.75C106.99 128.79 108.39 128.46 109.63 127.8L175.03 90.04C175.58 89.84 176.05 89.47 176.38 88.99C176.71 88.51 176.89 87.94 176.89 87.35C176.89 86.77 176.71 86.2 176.38 85.72C176.05 85.24 175.58 84.87 175.03 84.67L93.35 37.51C92.09 36.9 90.7 36.57 89.3 36.57C87.89 36.57 86.5 36.9 85.24 37.51L19.85 75.27C19.3 75.48 18.83 75.85 18.5 76.32C18.17 76.8 18 77.37 18 77.95C18 78.54 18.17 79.1 18.5 79.58C18.83 80.06 19.3 80.43 19.85 80.63L101.52 127.79C102.77 128.46 104.17 128.79 105.58 128.75Z" fill="#B8D6D3" fill-opacity="1.000000" fill-rule="nonzero"></path>
&#x9;&#x9;</g>
&#x9;&#x9;<path id="Vector" d="M19.07 76.68C19.36 76.29 19.73 75.97 20.14 75.72L85.54 37.97C86.7 37.38 87.99 37.08 89.3 37.08C90.6 37.08 91.89 37.38 93.06 37.97L174.73 85.18C175.04 85.35 175.33 85.57 175.58 85.83L176.28 85.83L176.28 87.3C176.24 87.76 176.07 88.21 175.8 88.59C175.53 88.97 175.16 89.28 174.73 89.47L109.34 127.24C108.17 127.82 106.88 128.13 105.58 128.13C104.27 128.13 102.98 127.82 101.82 127.24L20.1 80.12C19.68 79.93 19.31 79.62 19.04 79.24C18.76 78.86 18.6 78.42 18.56 77.95L18.56 76.48L19.07 76.68Z" fill="#ACCBC8" fill-opacity="1.000000" fill-rule="nonzero"></path>
&#x9;&#x9;<path id="Vector" d="M101.81 125.79C102.98 126.38 104.27 126.68 105.58 126.68C106.88 126.68 108.17 126.38 109.34 125.79L174.73 88.04C176.8 86.85 176.8 84.9 174.73 83.7L93.06 36.55C91.89 35.96 90.6 35.65 89.3 35.65C87.99 35.65 86.7 35.96 85.54 36.55L20.1 74.3C18.04 75.49 18.04 77.45 20.1 78.65L101.81 125.79Z" fill="#B8D6D3" fill-opacity="1.000000" fill-rule="nonzero"></path>
&#x9;&#x9;<g opacity="0.300000">
&#x9;&#x9;&#x9;<path id="Vector" d="M102.45 122.84L168.89 84.48L87.61 37.55L21.18 75.91L102.45 122.84Z" fill="#B8D6D3" fill-opacity="1.000000" fill-rule="nonzero"></path>
&#x9;&#x9;</g>
&#x9;&#x9;<path id="Vector" d="M102.45 121.97L168.89 83.61L87.61 36.69L21.18 75.04L102.45 121.97Z" fill="#F0F9F8" fill-opacity="1.000000" fill-rule="nonzero"></path>
&#x9;&#x9;<path id="Vector" d="M103.12 119.84L165.19 84L92.38 41.96L30.31 77.8L103.12 119.84Z" fill="#FFFFFF" fill-opacity="1.000000" fill-rule="nonzero"></path>
&#x9;&#x9;<path id="Vector" d="M49.52 61.61L67.07 51.48L67.07 49.48L63.83 49.61L44.19 56.53L44.19 60.42L45.82 59.48L49.52 61.61Z" fill="#ACCBC8" fill-opacity="1.000000" fill-rule="nonzero"></path>
&#x9;&#x9;<path id="Vector" d="M49.52 59.61L67.07 49.48L61.74 46.4L44.19 56.53L49.52 59.61Z" fill="#B8D6D3" fill-opacity="1.000000" fill-rule="nonzero"></path>
&#x9;&#x9;<path id="Vector" d="M44.3 79.46C45.5 72.09 47.14 67.43 46.66 59.01L162.02 67.93C160.22 76.37 159.68 83.3 166.03 89.52L113.87 119.65L44.3 79.46Z" fill="#D0EAE7" fill-opacity="1.000000" fill-rule="nonzero"></path>
&#x9;&#x9;<path id="Vector" d="M112.79 95.37L162.02 67.92C162.16 76.35 162.15 84.21 166.03 89.5L113.87 119.65C111.09 110.16 111.41 104.36 112.79 95.37Z" fill="#A3CCC9" fill-opacity="1.000000" fill-rule="nonzero"></path>
&#x9;&#x9;<path id="Vector" d="M46.53 58.78C68.39 47.61 78.91 42.02 96.4 30L162.96 68.4L113.05 97.17L46.53 58.78Z" fill="#F4F9F7" fill-opacity="1.000000" fill-rule="nonzero"></path>
&#x9;&#x9;<path id="Vector" d="M118.81 93.86L162.93 68.38L106.68 35.91L55.32 61.25C79.87 72.65 103 83.59 118.81 93.86Z" fill="#D0EAE7" fill-opacity="1.000000" fill-rule="nonzero"></path>
&#x9;&#x9;<path id="Vector" d="M55.25 61.13L106.9 34.07C133.07 48.11 154.28 60.76 175.85 68.18L124.21 95.25C108.21 84.47 82.57 73.05 55.25 61.13Z" fill="#F4F9F7" fill-opacity="1.000000" fill-rule="nonzero"></path>
&#x9;&#x9;<g opacity="0.400000">
&#x9;&#x9;&#x9;<path id="Vector" d="M64.99 60.96L105.25 39L106.32 39.63L66.06 61.6L64.99 60.96Z" fill="#A3CCC9" fill-opacity="1.000000" fill-rule="nonzero"></path>
&#x9;&#x9;</g>
&#x9;&#x9;<g opacity="0.400000">
&#x9;&#x9;&#x9;<path id="Vector" d="M93.24 50.01L82.23 56.01L81.17 55.38L92.18 49.37L93.24 50.01Z" fill="#A3CCC9" fill-opacity="1.000000" fill-rule="nonzero"></path>
&#x9;&#x9;</g>
&#x9;&#x9;<g opacity="0.400000">
&#x9;&#x9;&#x9;<path id="Vector" d="M76.01 58.2L77.08 58.83L69.21 63.12L68.15 62.49L76.01 58.2Z" fill="#A3CCC9" fill-opacity="1.000000" fill-rule="nonzero"></path>
&#x9;&#x9;</g>
&#x9;&#x9;<g opacity="0.400000">
&#x9;&#x9;&#x9;<path id="Vector" d="M76.58 61.1L77.64 61.73L71.56 65.04L70.5 64.41L76.58 61.1Z" fill="#A3CCC9" fill-opacity="1.000000" fill-rule="nonzero"></path>
&#x9;&#x9;</g>
&#x9;&#x9;<g opacity="0.400000">
&#x9;&#x9;&#x9;<path id="Vector" d="M97.73 52.89L98.8 53.53L74.64 66.71L73.59 66.07L97.73 52.89Z" fill="#A3CCC9" fill-opacity="1.000000" fill-rule="nonzero"></path>
&#x9;&#x9;</g>
&#x9;&#x9;<g opacity="0.400000">
&#x9;&#x9;&#x9;<path id="Vector" d="M88.93 64.68L89.98 65.31L82.12 69.6L81.06 68.98L88.93 64.68Z" fill="#A3CCC9" fill-opacity="1.000000" fill-rule="nonzero"></path>
&#x9;&#x9;</g>
&#x9;&#x9;<g opacity="0.400000">
&#x9;&#x9;&#x9;<path id="Vector" d="M89.5 67.58L90.55 68.22L84.47 71.54L83.41 70.9L89.5 67.58Z" fill="#A3CCC9" fill-opacity="1.000000" fill-rule="nonzero"></path>
&#x9;&#x9;</g>
&#x9;&#x9;<g opacity="0.400000">
&#x9;&#x9;&#x9;<path id="Vector" d="M110.65 59.38L111.71 60.02L87.56 73.18L86.51 72.55L110.65 59.38Z" fill="#A3CCC9" fill-opacity="1.000000" fill-rule="nonzero"></path>
&#x9;&#x9;</g>
&#x9;&#x9;<g opacity="0.400000">
&#x9;&#x9;&#x9;<path id="Vector" d="M101.34 73.69L102.41 74.29L96.39 77.74L95.32 77.12L101.34 73.69Z" fill="#A3CCC9" fill-opacity="1.000000" fill-rule="nonzero"></path>
&#x9;&#x9;</g>
&#x9;&#x9;<g opacity="0.400000">
&#x9;&#x9;&#x9;<path id="Vector" d="M122.37 65.04L123.44 65.66L99.53 79.32L98.46 78.71L122.37 65.04Z" fill="#A3CCC9" fill-opacity="1.000000" fill-rule="nonzero"></path>
&#x9;&#x9;</g>
&#x9;&#x9;<g opacity="0.400000">
&#x9;&#x9;&#x9;<path id="Vector" d="M113.81 76.98L114.88 77.59L107.08 82.04L106.02 81.43L113.81 76.98Z" fill="#A3CCC9" fill-opacity="1.000000" fill-rule="nonzero"></path>
&#x9;&#x9;</g>
&#x9;&#x9;<g opacity="0.400000">
&#x9;&#x9;&#x9;<path id="Vector" d="M114.44 79.86L115.52 80.47L109.49 83.91L108.42 83.3L114.44 79.86Z" fill="#A3CCC9" fill-opacity="1.000000" fill-rule="nonzero"></path>
&#x9;&#x9;</g>
&#x9;&#x9;<path id="Vector" d="M82.7 86.2L43 65.98L46.89 63.44L82.7 86.2Z" fill="#F0F9F8" fill-opacity="1.000000" fill-rule="nonzero"></path>
&#x9;&#x9;<g opacity="0.500000">
&#x9;&#x9;&#x9;<path id="Vector" d="M124.34 104.04L112.36 111.83L102.93 104.93L111.31 108.08L124.34 104.04Z" fill="#F0F9F8" fill-opacity="1.000000" fill-rule="nonzero"></path>
&#x9;&#x9;</g>
&#x9;&#x9;<g opacity="0.100000">
&#x9;&#x9;&#x9;<path id="Vector" d="M134.83 98.94L160.75 85.75L152.96 92.65L134.83 98.94Z" fill="#F0F9F8" fill-opacity="1.000000" fill-rule="nonzero"></path>
&#x9;&#x9;</g>
&#x9;&#x9;<g opacity="0.500000">
&#x9;&#x9;&#x9;<path id="Vector" d="M105.17 101.93L78.96 90.7L61.27 79.47L105.17 101.93Z" fill="#F0F9F8" fill-opacity="1.000000" fill-rule="nonzero"></path>
&#x9;&#x9;</g>
&#x9;&#x9;<g opacity="0.500000">
&#x9;&#x9;&#x9;<path id="Vector" d="M124.34 80.23L112.36 88.02L102.93 81.13L111.31 84.28L124.34 80.23Z" fill="#F0F9F8" fill-opacity="1.000000" fill-rule="nonzero"></path>
&#x9;&#x9;</g>
&#x9;&#x9;<g opacity="0.100000">
&#x9;&#x9;&#x9;<path id="Vector" d="M134.83 75.14L160.75 61.95L152.96 68.84L134.83 75.14Z" fill="#F0F9F8" fill-opacity="1.000000" fill-rule="nonzero"></path>
&#x9;&#x9;</g>
&#x9;</g>
</svg>