<svg width="195.000000" height="140.000000" viewBox="0 0 195 140" fill="none" xmlns="http://www.w3.org/2000/svg" xmlns:xlink="http://www.w3.org/1999/xlink">
&#x9;<desc>
&#x9;&#x9;&#x9;Created with Pixso.
&#x9;</desc>
&#x9;<defs>
&#x9;&#x9;<clipPath id="clip201_7172">
&#x9;&#x9;&#x9;<rect id="kpki-cal" width="195.000000" height="140.000000" fill="white" fill-opacity="0"></rect>
&#x9;&#x9;</clipPath>
&#x9;</defs>
&#x9;<g clip-path="url(#clip201_7172)">
&#x9;&#x9;<path id="Vector" d="M66.85 4.48L160.78 58.74L114.24 140L19.36 85.19L66.85 4.48Z" fill="#F0F9F8" fill-opacity="1.000000" fill-rule="nonzero"></path>
&#x9;&#x9;<path id="Vector" d="M175.63 106.07L160.77 58.74L114.24 140L153.76 105.62L175.63 106.07Z" fill="#A3CCC9" fill-opacity="1.000000" fill-rule="nonzero"></path>
&#x9;&#x9;<path id="Vector" d="M74.29 18.54C70.86 17.66 69.08 13.04 70.32 8.21C71.57 3.39 75.34 0.2 78.77 1.08C82.2 1.97 83.98 6.58 82.74 11.41C82.59 11.99 82.4 12.57 82.17 13.13" stroke="#A3CCC9" stroke-opacity="1.000000" stroke-width="1.000000"></path>
&#x9;&#x9;<path id="Vector" d="M86.06 24.97C82.68 24.08 80.85 19.46 82.09 14.65C83.32 9.83 87.11 6.63 90.54 7.5C93.97 8.38 95.75 13.02 94.51 17.83C94.36 18.42 94.17 19 93.93 19.56" stroke="#A3CCC9" stroke-opacity="1.000000" stroke-width="1.000000"></path>
&#x9;&#x9;<path id="Vector" d="M97.45 32.3C94.01 31.41 92.23 26.79 93.48 21.98C94.73 17.16 98.5 13.96 101.93 14.84C105.36 15.71 107.13 20.35 105.9 25.16C105.74 25.75 105.55 26.33 105.32 26.89" stroke="#A3CCC9" stroke-opacity="1.000000" stroke-width="1.000000"></path>
&#x9;&#x9;<path id="Vector" d="M108.1 38.42C104.67 37.54 102.89 32.92 104.13 28.1C105.37 23.27 109.16 20.08 112.59 20.97C116.02 21.85 117.79 26.47 116.56 31.29C116.4 31.88 116.21 32.45 115.97 33.01" stroke="#A3CCC9" stroke-opacity="1.000000" stroke-width="1.000000"></path>
&#x9;&#x9;<path id="Vector" d="M118.6 44.72C115.17 43.84 113.39 39.22 114.63 34.39C115.87 29.57 119.66 26.38 123.09 27.26C126.52 28.15 128.3 32.76 127.06 37.59C126.91 38.17 126.71 38.75 126.49 39.31" stroke="#A3CCC9" stroke-opacity="1.000000" stroke-width="1.000000"></path>
&#x9;&#x9;<path id="Vector" d="M129.92 50.84C126.49 49.95 124.71 45.33 125.95 40.51C127.19 35.7 130.97 32.49 134.41 33.37C137.84 34.25 139.61 38.87 138.37 43.69C138.22 44.28 138.03 44.86 137.8 45.43" stroke="#A3CCC9" stroke-opacity="1.000000" stroke-width="1.000000"></path>
&#x9;&#x9;<path id="Vector" d="M141.46 57.07C138.08 56.19 136.25 51.56 137.49 46.74C138.72 41.93 142.51 38.72 145.94 39.6C149.37 40.48 151.15 45.11 149.91 49.93C149.76 50.52 149.57 51.1 149.33 51.66" stroke="#A3CCC9" stroke-opacity="1.000000" stroke-width="1.000000"></path>
&#x9;</g>
</svg>