<svg width="400.000000" height="400.000000" viewBox="0 0 400 400" fill="none" xmlns="http://www.w3.org/2000/svg" xmlns:xlink="http://www.w3.org/1999/xlink">
&#x9;<desc>
&#x9;&#x9;&#x9;Created with Pixso.
&#x9;</desc>
&#x9;<defs></defs>
&#x9;<rect id="Frame 4455" width="400.000000" height="400.000000" fill="#FFFFFF" fill-opacity="0"></rect>
&#x9;<path id="Vector 687" d="M181.33 63.26L231.68 35.1C232.21 34.8 232.88 35.19 232.88 35.8L232.88 312.48C232.88 322.54 227.44 331.82 218.66 336.73L168.32 364.89C167.78 365.19 167.11 364.8 167.11 364.19L167.11 87.51C167.11 77.45 172.55 68.17 181.33 63.26ZM133.03 90.29L82.68 118.45C73.9 123.36 68.46 132.64 68.46 142.7L68.46 272.88C68.46 273.5 69.13 273.89 69.67 273.59L120.01 245.42C128.79 240.51 134.23 231.24 134.23 221.18L134.23 90.99C134.23 90.38 133.57 89.99 133.03 90.29ZM330.32 126.4L279.98 154.57C271.2 159.48 265.76 168.75 265.76 178.81L265.76 309C265.76 309.61 266.42 310 266.96 309.7L317.31 281.54C326.09 276.63 331.53 267.35 331.53 257.29L331.53 127.11C331.53 126.49 330.86 126.1 330.32 126.4Z" fill="#10BB71" fill-opacity="1.000000" fill-rule="evenodd"></path>
</svg>