<svg width="195.000000" height="140.000000" viewBox="0 0 195 140" fill="none" xmlns="http://www.w3.org/2000/svg" xmlns:xlink="http://www.w3.org/1999/xlink">
&#x9;<desc>
&#x9;&#x9;&#x9;Created with Pixso.
&#x9;</desc>
&#x9;<defs>
&#x9;&#x9;<clipPath id="clip201_6037">
&#x9;&#x9;&#x9;<rect id="payment-ib" width="195.000000" height="140.000000" fill="white" fill-opacity="0"></rect>
&#x9;&#x9;</clipPath>
&#x9;</defs>
&#x9;<g clip-path="url(#clip201_6037)">
&#x9;&#x9;<path id="path" d="M172.07 69.71L64.72 131.69L0 94.31L107.23 32.34L172.07 69.71Z" fill="#D8EDEB" fill-opacity="1.000000" fill-rule="nonzero"></path>
&#x9;&#x9;<path id="path" d="M179.47 69.23L72.24 131.09L7.52 93.71L114.75 31.86L179.47 69.23Z" fill="#F0F9F8" fill-opacity="1.000000" fill-rule="nonzero"></path>
&#x9;&#x9;<path id="path" d="M65.07 93.23L42.15 106.49L34.62 102.19L57.55 88.94L65.07 93.23ZM42.15 106.13L64.36 93.35L57.55 89.41L35.34 102.19L42.15 106.13Z" fill="#8FC2BE" fill-opacity="1.000000" fill-rule="nonzero"></path>
&#x9;&#x9;<path id="path" d="M79.4 85L64.72 93.47L57.19 89.17L71.88 80.7L79.4 85ZM64.72 93.12L78.69 85.11L71.88 81.17L57.91 89.17L64.72 93.12Z" fill="#8FC2BE" fill-opacity="1.000000" fill-rule="nonzero"></path>
&#x9;&#x9;<path id="path" d="M93.73 76.76L79.05 85.23L71.52 80.94L86.21 72.46L93.73 76.76ZM79.05 84.76L93.02 76.76L86.21 72.82L72.24 80.82L79.05 84.76Z" fill="#8FC2BE" fill-opacity="1.000000" fill-rule="nonzero"></path>
&#x9;&#x9;<path id="path" d="M108.06 68.52L93.37 76.99L85.85 72.7L100.54 64.22L108.06 68.52ZM93.37 76.52L107.35 68.52L100.54 64.58L86.57 72.58L93.37 76.52Z" fill="#8FC2BE" fill-opacity="1.000000" fill-rule="nonzero"></path>
&#x9;&#x9;<path id="path" d="M122.39 60.16L107.7 68.64L100.18 64.34L114.87 55.86L122.39 60.16ZM107.7 68.28L121.68 60.28L114.87 56.34L100.9 64.34L107.7 68.28Z" fill="#8FC2BE" fill-opacity="1.000000" fill-rule="nonzero"></path>
&#x9;&#x9;<path id="path" d="M136.72 51.92L122.03 60.4L114.51 56.1L129.2 47.62L136.72 51.92ZM122.03 60.04L136 52.04L129.2 48.1L115.23 56.1L122.03 60.04Z" fill="#8FC2BE" fill-opacity="1.000000" fill-rule="nonzero"></path>
&#x9;&#x9;<path id="path" d="M122.15 43.56L91.82 61.11L86.33 58.01L116.66 40.46L122.15 43.56ZM91.82 60.64L121.44 43.56L116.78 40.81L87.05 57.89L91.82 60.64Z" fill="#8FC2BE" fill-opacity="1.000000" fill-rule="nonzero"></path>
&#x9;&#x9;<path id="path" d="M70.09 96.1L47.16 109.36L41.79 106.25L64.72 93L70.09 96.1ZM47.16 109L69.37 96.22L64.72 93.59L42.51 106.37L47.16 109Z" fill="#8FC2BE" fill-opacity="1.000000" fill-rule="nonzero"></path>
&#x9;&#x9;<path id="path" d="M84.42 87.86L69.73 96.34L64.36 93.23L79.04 84.76L84.42 87.86ZM69.73 95.98L83.7 87.98L79.04 85.35L65.07 93.35L69.73 95.98Z" fill="#8FC2BE" fill-opacity="1.000000" fill-rule="nonzero"></path>
&#x9;&#x9;<path id="path" d="M98.75 79.62L84.06 88.1L78.69 85L93.37 76.52L98.75 79.62ZM84.06 87.62L98.03 79.62L93.37 76.99L79.4 85L84.06 87.62Z" fill="#8FC2BE" fill-opacity="1.000000" fill-rule="nonzero"></path>
&#x9;&#x9;<path id="path" d="M113.08 71.38L98.39 79.86L93.02 76.76L107.7 68.28L113.08 71.38ZM98.27 79.38L112.24 71.38L107.59 68.76L93.61 76.76L98.27 79.38Z" fill="#8FC2BE" fill-opacity="1.000000" fill-rule="nonzero"></path>
&#x9;&#x9;<path id="path" d="M127.29 63.02L112.6 71.5L107.23 68.4L121.91 59.92L127.29 63.02ZM112.6 71.14L126.57 63.14L121.91 60.52L107.94 68.52L112.6 71.14Z" fill="#8FC2BE" fill-opacity="1.000000" fill-rule="nonzero"></path>
&#x9;&#x9;<path id="path" d="M141.62 54.78L126.93 63.26L121.56 60.16L136.24 51.68L141.62 54.78ZM126.93 62.9L140.9 54.9L136.24 52.28L122.27 60.28L126.93 62.9Z" fill="#8FC2BE" fill-opacity="1.000000" fill-rule="nonzero"></path>
&#x9;&#x9;<path id="path" d="M74.98 99.09L52.06 112.34L46.68 109.24L69.61 95.98L74.98 99.09ZM52.18 111.86L74.39 99.09L69.73 96.46L47.52 109.24L52.18 111.86Z" fill="#8FC2BE" fill-opacity="1.000000" fill-rule="nonzero"></path>
&#x9;&#x9;<path id="path" d="M89.31 90.73L74.63 99.21L69.25 96.1L83.94 87.62L89.31 90.73ZM74.63 98.85L88.6 90.85L83.94 88.22L69.97 96.22L74.63 98.85Z" fill="#8FC2BE" fill-opacity="1.000000" fill-rule="nonzero"></path>
&#x9;&#x9;<path id="path" d="M103.64 82.49L88.96 90.97L83.58 87.86L98.27 79.38L103.64 82.49ZM88.96 90.49L102.93 82.49L98.27 79.86L84.3 87.86L88.96 90.49Z" fill="#8FC2BE" fill-opacity="1.000000" fill-rule="nonzero"></path>
&#x9;&#x9;<path id="path" d="M117.97 74.25L103.29 82.73L97.91 79.62L112.6 71.14L117.97 74.25ZM103.29 82.25L117.26 74.25L112.6 71.62L98.63 79.62L103.29 82.25Z" fill="#8FC2BE" fill-opacity="1.000000" fill-rule="nonzero"></path>
&#x9;&#x9;<path id="path" d="M132.3 65.89L117.62 74.37L112.24 71.26L126.93 62.78L132.3 65.89ZM117.62 74.01L131.59 66.01L126.93 63.38L112.96 71.38L117.62 74.01Z" fill="#8FC2BE" fill-opacity="1.000000" fill-rule="nonzero"></path>
&#x9;&#x9;<path id="path" d="M146.63 57.65L131.94 66.13L126.57 63.02L141.26 54.55L146.63 57.65ZM131.94 65.77L145.92 57.77L141.26 55.14L127.29 63.14L131.94 65.77Z" fill="#8FC2BE" fill-opacity="1.000000" fill-rule="nonzero"></path>
&#x9;&#x9;<path id="path" d="M80 101.95L57.07 115.21L51.7 112.1L74.63 98.85L80 101.95ZM57.07 114.73L79.28 101.95L74.63 99.33L52.42 112.1L57.07 114.73Z" fill="#8FC2BE" fill-opacity="1.000000" fill-rule="nonzero"></path>
&#x9;&#x9;<path id="path" d="M94.33 93.59L79.64 102.07L74.27 98.97L88.96 90.49L94.33 93.59ZM79.64 101.71L93.61 93.71L88.96 91.09L74.99 99.09L79.64 101.71Z" fill="#8FC2BE" fill-opacity="1.000000" fill-rule="nonzero"></path>
&#x9;&#x9;<path id="path" d="M108.66 85.35L93.97 93.83L88.6 90.73L103.29 82.25L108.66 85.35ZM93.97 93.35L107.94 85.35L103.29 82.73L89.31 90.73L93.97 93.35Z" fill="#8FC2BE" fill-opacity="1.000000" fill-rule="nonzero"></path>
&#x9;&#x9;<path id="path" d="M122.99 77.11L108.3 85.59L102.93 82.49L117.62 74.01L122.99 77.11ZM108.3 85.11L122.27 77.11L117.62 74.49L103.64 82.49L108.3 85.11Z" fill="#8FC2BE" fill-opacity="1.000000" fill-rule="nonzero"></path>
&#x9;&#x9;<path id="path" d="M137.32 68.76L122.63 77.23L117.26 74.13L131.94 65.65L137.32 68.76ZM122.63 76.88L136.6 68.87L131.94 66.25L117.97 74.25L122.63 76.88Z" fill="#8FC2BE" fill-opacity="1.000000" fill-rule="nonzero"></path>
&#x9;&#x9;<path id="path" d="M151.65 60.52L136.96 68.99L131.59 65.89L146.27 57.41L151.65 60.52ZM136.96 68.64L150.93 60.64L146.27 58.01L132.3 66.01L136.96 68.64Z" fill="#8FC2BE" fill-opacity="1.000000" fill-rule="nonzero"></path>
&#x9;&#x9;<path id="path" d="M84.9 104.82L61.97 118.07L56.6 114.97L79.52 101.71L84.9 104.82ZM62.09 117.6L84.3 104.82L79.64 102.19L57.43 114.97L62.09 117.6Z" fill="#8FC2BE" fill-opacity="1.000000" fill-rule="nonzero"></path>
&#x9;&#x9;<path id="path" d="M99.23 96.46L84.54 104.94L79.16 101.83L93.85 93.35L99.23 96.46ZM84.54 104.58L98.51 96.58L93.85 93.95L79.88 101.95L84.54 104.58Z" fill="#8FC2BE" fill-opacity="1.000000" fill-rule="nonzero"></path>
&#x9;&#x9;<path id="path" d="M113.56 88.22L98.87 96.7L93.49 93.59L108.18 85.11L113.56 88.22ZM98.87 96.34L112.84 88.34L108.18 85.71L94.21 93.71L98.87 96.34Z" fill="#8FC2BE" fill-opacity="1.000000" fill-rule="nonzero"></path>
&#x9;&#x9;<path id="path" d="M127.88 79.98L113.2 88.46L107.82 85.35L122.51 76.88L127.88 79.98ZM113.2 87.98L127.17 79.98L122.51 77.35L108.54 85.35L113.2 87.98Z" fill="#8FC2BE" fill-opacity="1.000000" fill-rule="nonzero"></path>
&#x9;&#x9;<path id="path" d="M142.21 71.74L127.53 80.22L122.15 77.11L136.84 68.64L142.21 71.74ZM127.53 79.74L141.5 71.74L136.84 69.11L122.87 77.11L127.53 79.74Z" fill="#8FC2BE" fill-opacity="1.000000" fill-rule="nonzero"></path>
&#x9;&#x9;<path id="path" d="M156.54 63.38L141.85 71.86L136.48 68.75L151.17 60.28L156.54 63.38ZM141.85 71.5L155.83 63.5L151.17 60.87L137.2 68.87L141.85 71.5Z" fill="#8FC2BE" fill-opacity="1.000000" fill-rule="nonzero"></path>
&#x9;&#x9;<path id="path" d="M89.91 107.68L66.98 120.94L61.61 117.83L84.54 104.58L89.91 107.68ZM66.98 120.46L89.2 107.68L84.54 105.06L62.33 117.83L66.98 120.46Z" fill="#8FC2BE" fill-opacity="1.000000" fill-rule="nonzero"></path>
&#x9;&#x9;<path id="path" d="M104.24 99.32L89.55 107.8L84.18 104.7L98.87 96.22L104.24 99.32ZM89.55 107.44L103.52 99.44L98.87 96.82L84.9 104.82L89.55 107.44Z" fill="#8FC2BE" fill-opacity="1.000000" fill-rule="nonzero"></path>
&#x9;&#x9;<path id="path" d="M118.57 91.09L103.88 99.56L98.51 96.46L113.2 87.98L118.57 91.09ZM103.88 99.21L117.85 91.2L113.2 88.58L99.23 96.58L103.88 99.21Z" fill="#8FC2BE" fill-opacity="1.000000" fill-rule="nonzero"></path>
&#x9;&#x9;<path id="path" d="M132.9 82.85L118.21 91.32L112.84 88.22L127.53 79.74L132.9 82.85ZM118.21 90.85L132.18 82.85L127.53 80.22L113.55 88.22L118.21 90.85Z" fill="#8FC2BE" fill-opacity="1.000000" fill-rule="nonzero"></path>
&#x9;&#x9;<path id="path" d="M147.23 74.61L132.54 83.09L127.17 79.98L141.85 71.5L147.23 74.61ZM132.54 82.61L146.51 74.61L141.85 71.98L127.88 79.98L132.54 82.61Z" fill="#8FC2BE" fill-opacity="1.000000" fill-rule="nonzero"></path>
&#x9;&#x9;<path id="path" d="M161.56 66.25L146.87 74.73L141.5 71.62L156.18 63.14L161.56 66.25ZM146.87 74.37L160.84 66.37L156.18 63.74L142.21 71.74L146.87 74.37Z" fill="#8FC2BE" fill-opacity="1.000000" fill-rule="nonzero"></path>
&#x9;&#x9;<path id="path" d="M94.93 110.55L72 123.8L66.63 120.7L89.55 107.44L94.93 110.55ZM72 123.33L94.21 110.55L89.55 107.92L67.34 120.7L72 123.33Z" fill="#8FC2BE" fill-opacity="1.000000" fill-rule="nonzero"></path>
&#x9;&#x9;<path id="path" d="M109.26 102.19L94.57 110.67L89.2 107.56L103.88 99.09L109.26 102.19ZM94.57 110.31L108.54 102.31L103.88 99.68L89.91 107.68L94.57 110.31Z" fill="#8FC2BE" fill-opacity="1.000000" fill-rule="nonzero"></path>
&#x9;&#x9;<path id="path" d="M123.58 93.95L108.9 102.43L103.52 99.32L118.21 90.85L123.58 93.95ZM108.9 102.07L122.87 94.07L118.21 91.44L104.24 99.44L108.9 102.07Z" fill="#8FC2BE" fill-opacity="1.000000" fill-rule="nonzero"></path>
&#x9;&#x9;<path id="path" d="M137.91 85.71L123.23 94.19L117.85 91.09L132.54 82.61L137.91 85.71ZM123.23 93.71L137.2 85.71L132.54 83.09L118.57 91.09L123.23 93.71Z" fill="#8FC2BE" fill-opacity="1.000000" fill-rule="nonzero"></path>
&#x9;&#x9;<path id="path" d="M152.24 77.47L137.56 85.95L132.18 82.85L146.87 74.37L152.24 77.47ZM137.44 85.47L151.41 77.47L146.75 74.85L132.78 82.85L137.44 85.47Z" fill="#8FC2BE" fill-opacity="1.000000" fill-rule="nonzero"></path>
&#x9;&#x9;<path id="path" d="M166.45 69.11L151.77 77.59L146.39 74.49L161.08 66.01L166.45 69.11ZM151.77 77.23L165.74 69.23L161.08 66.61L147.11 74.61L151.77 77.23Z" fill="#8FC2BE" fill-opacity="1.000000" fill-rule="nonzero"></path>
&#x9;&#x9;<path id="path" d="M68.89 77.83L30.8 99.8L29.85 99.21L67.94 77.23L68.89 77.83Z" fill="#8FC2BE" fill-opacity="1.000000" fill-rule="nonzero"></path>
&#x9;&#x9;<path id="path" d="M125.14 45.35L102.57 58.37L101.61 57.77L124.06 44.75L125.14 45.35Z" fill="#8FC2BE" fill-opacity="1.000000" fill-rule="nonzero"></path>
&#x9;&#x9;<path id="path" d="M39.52 88.7L25.55 96.7L24.59 96.1L38.45 88.1L39.52 88.7Z" fill="#8FC2BE" fill-opacity="1.000000" fill-rule="nonzero"></path>
&#x9;&#x9;<path id="path" d="M55.28 93.59L41.43 101.71L40.36 101.12L54.33 93.12L55.28 93.59Z" fill="#8FC2BE" fill-opacity="1.000000" fill-rule="nonzero"></path>
&#x9;&#x9;<path id="path" d="M62.69 97.89L48.72 105.89L47.76 105.41L61.61 97.29L62.69 97.89Z" fill="#8FC2BE" fill-opacity="1.000000" fill-rule="nonzero"></path>
&#x9;&#x9;<path id="path" d="M62.69 103.62L53.73 108.76L52.77 108.28L61.73 103.03L62.69 103.62Z" fill="#8FC2BE" fill-opacity="1.000000" fill-rule="nonzero"></path>
&#x9;&#x9;<path id="path" d="M65.67 107.68L58.75 111.62L57.67 111.15L64.72 107.09L65.67 107.68Z" fill="#8FC2BE" fill-opacity="1.000000" fill-rule="nonzero"></path>
&#x9;&#x9;<path id="path" d="M77.61 106.49L63.64 114.49L62.69 114.01L76.54 106.01L77.61 106.49Z" fill="#8FC2BE" fill-opacity="1.000000" fill-rule="nonzero"></path>
&#x9;&#x9;<path id="path" d="M82.51 109.36L68.66 117.36L67.7 116.88L81.55 108.88L82.51 109.36Z" fill="#8FC2BE" fill-opacity="1.000000" fill-rule="nonzero"></path>
&#x9;&#x9;<path id="path" d="M83.94 114.37L73.55 120.22L72.6 119.74L82.87 113.77L83.94 114.37Z" fill="#8FC2BE" fill-opacity="1.000000" fill-rule="nonzero"></path>
&#x9;&#x9;<path id="path" d="M52.42 98.13L43.82 103.03L42.86 102.55L51.34 97.53L52.42 98.13Z" fill="#8FC2BE" fill-opacity="1.000000" fill-rule="nonzero"></path>
&#x9;&#x9;<path id="path" d="M71.04 84.52L63.16 89.18L62.09 88.58L69.97 84.04L71.04 84.52Z" fill="#8FC2BE" fill-opacity="1.000000" fill-rule="nonzero"></path>
&#x9;&#x9;<path id="path" d="M70.45 87.74L65.55 90.49L64.6 90.01L69.37 87.14L70.45 87.74Z" fill="#8FC2BE" fill-opacity="1.000000" fill-rule="nonzero"></path>
&#x9;&#x9;<path id="path" d="M77.25 89.53L72.48 92.28L71.4 91.68L76.3 88.94L77.25 89.53Z" fill="#8FC2BE" fill-opacity="1.000000" fill-rule="nonzero"></path>
&#x9;&#x9;<path id="path" d="M82.27 92.4L77.37 95.15L76.42 94.55L81.19 91.8L82.27 92.4Z" fill="#8FC2BE" fill-opacity="1.000000" fill-rule="nonzero"></path>
&#x9;&#x9;<path id="path" d="M87.16 95.26L82.39 98.01L81.43 97.41L86.21 94.67L87.16 95.26Z" fill="#8FC2BE" fill-opacity="1.000000" fill-rule="nonzero"></path>
&#x9;&#x9;<path id="path" d="M92.18 98.13L87.28 100.88L86.33 100.28L91.22 97.53L92.18 98.13Z" fill="#8FC2BE" fill-opacity="1.000000" fill-rule="nonzero"></path>
&#x9;&#x9;<path id="path" d="M97.2 101L92.3 103.74L91.34 103.15L96.12 100.4L97.2 101Z" fill="#8FC2BE" fill-opacity="1.000000" fill-rule="nonzero"></path>
&#x9;&#x9;<path id="path" d="M91.58 81.17L86.81 83.92L85.85 83.44L90.63 80.58L91.58 81.17Z" fill="#8FC2BE" fill-opacity="1.000000" fill-rule="nonzero"></path>
&#x9;&#x9;<path id="path" d="M96.6 84.04L91.82 86.79L90.75 86.31L95.64 83.44L96.6 84.04Z" fill="#8FC2BE" fill-opacity="1.000000" fill-rule="nonzero"></path>
&#x9;&#x9;<path id="path" d="M106.51 89.77L101.73 92.64L100.78 92.04L105.56 89.17L106.51 89.77Z" fill="#8FC2BE" fill-opacity="1.000000" fill-rule="nonzero"></path>
&#x9;&#x9;<path id="path" d="M111.53 92.64L106.63 95.5L105.67 94.91L110.57 92.04L111.53 92.64Z" fill="#8FC2BE" fill-opacity="1.000000" fill-rule="nonzero"></path>
&#x9;&#x9;<path id="path" d="M116.42 95.5L111.65 98.37L110.69 97.77L115.47 94.91L116.42 95.5Z" fill="#8FC2BE" fill-opacity="1.000000" fill-rule="nonzero"></path>
&#x9;&#x9;<path id="path" d="M106.03 72.93L101.14 75.68L100.18 75.08L105.08 72.34L106.03 72.93Z" fill="#8FC2BE" fill-opacity="1.000000" fill-rule="nonzero"></path>
&#x9;&#x9;<path id="path" d="M110.93 75.8L106.15 78.55L105.2 77.95L109.97 75.2L110.93 75.8Z" fill="#8FC2BE" fill-opacity="1.000000" fill-rule="nonzero"></path>
&#x9;&#x9;<path id="path" d="M115.94 78.67L111.17 81.41L110.09 80.82L114.99 78.07L115.94 78.67Z" fill="#8FC2BE" fill-opacity="1.000000" fill-rule="nonzero"></path>
&#x9;&#x9;<path id="path" d="M120.96 81.53L116.06 84.28L115.11 83.68L119.88 80.94L120.96 81.53Z" fill="#8FC2BE" fill-opacity="1.000000" fill-rule="nonzero"></path>
&#x9;&#x9;<path id="path" d="M125.85 84.4L121.08 87.14L120 86.55L124.9 83.8L125.85 84.4Z" fill="#8FC2BE" fill-opacity="1.000000" fill-rule="nonzero"></path>
&#x9;&#x9;<path id="path" d="M130.87 87.26L125.97 90.01L125.02 89.41L129.91 86.67L130.87 87.26Z" fill="#8FC2BE" fill-opacity="1.000000" fill-rule="nonzero"></path>
&#x9;&#x9;<path id="path" d="M120.36 64.58L115.58 67.32L114.51 66.85L119.41 63.98L120.36 64.58Z" fill="#8FC2BE" fill-opacity="1.000000" fill-rule="nonzero"></path>
&#x9;&#x9;<path id="path" d="M130.27 70.31L125.5 73.05L124.54 72.58L129.32 69.71L130.27 70.31Z" fill="#8FC2BE" fill-opacity="1.000000" fill-rule="nonzero"></path>
&#x9;&#x9;<path id="path" d="M135.29 73.17L130.39 76.04L129.44 75.44L134.33 72.58L135.29 73.17Z" fill="#8FC2BE" fill-opacity="1.000000" fill-rule="nonzero"></path>
&#x9;&#x9;<path id="path" d="M145.2 78.91L140.42 81.77L139.35 81.17L144.24 78.31L145.2 78.91Z" fill="#8FC2BE" fill-opacity="1.000000" fill-rule="nonzero"></path>
&#x9;&#x9;<path id="path" d="M134.81 56.34L129.91 59.08L128.96 58.49L133.73 55.74L134.81 56.34Z" fill="#8FC2BE" fill-opacity="1.000000" fill-rule="nonzero"></path>
&#x9;&#x9;<path id="path" d="M139.71 59.2L134.93 61.95L133.85 61.35L138.75 58.61L139.71 59.2Z" fill="#8FC2BE" fill-opacity="1.000000" fill-rule="nonzero"></path>
&#x9;&#x9;<path id="path" d="M144.72 62.07L139.83 64.81L138.87 64.22L143.77 61.47L144.72 62.07Z" fill="#8FC2BE" fill-opacity="1.000000" fill-rule="nonzero"></path>
&#x9;&#x9;<path id="path" d="M149.62 64.93L144.84 67.68L143.89 67.08L148.66 64.34L149.62 64.93Z" fill="#8FC2BE" fill-opacity="1.000000" fill-rule="nonzero"></path>
&#x9;&#x9;<path id="path" d="M154.63 67.8L149.74 70.55L148.78 69.95L153.68 67.2L154.63 67.8Z" fill="#8FC2BE" fill-opacity="1.000000" fill-rule="nonzero"></path>
&#x9;&#x9;<path id="path" d="M159.65 70.67L154.75 73.41L153.8 72.82L158.57 70.07L159.65 70.67Z" fill="#8FC2BE" fill-opacity="1.000000" fill-rule="nonzero"></path>
&#x9;&#x9;<path id="path" d="M85.73 76.04L77.85 80.58L76.89 79.98L84.78 75.44L85.73 76.04Z" fill="#8FC2BE" fill-opacity="1.000000" fill-rule="nonzero"></path>
&#x9;&#x9;<path id="path" d="M85.13 79.26L80.36 82.01L79.4 81.41L84.18 78.67L85.13 79.26Z" fill="#8FC2BE" fill-opacity="1.000000" fill-rule="nonzero"></path>
&#x9;&#x9;<path id="path" d="M101.5 68.64L93.61 73.17L92.66 72.58L100.54 68.04L101.5 68.64Z" fill="#8FC2BE" fill-opacity="1.000000" fill-rule="nonzero"></path>
&#x9;&#x9;<path id="path" d="M111.29 61.35L106.51 64.1L105.43 63.5L110.21 60.76L111.29 61.35Z" fill="#8FC2BE" fill-opacity="1.000000" fill-rule="nonzero"></path>
&#x9;&#x9;<path id="path" d="M117.26 60.64L108.9 65.53L107.94 64.93L116.3 60.04L117.26 60.64Z" fill="#8FC2BE" fill-opacity="1.000000" fill-rule="nonzero"></path>
&#x9;&#x9;<path id="path" d="M128.6 51.32L120.72 55.86L119.77 55.26L127.65 50.72L128.6 51.32Z" fill="#8FC2BE" fill-opacity="1.000000" fill-rule="nonzero"></path>
&#x9;&#x9;<path id="path" d="M131.11 52.75L123.23 57.29L122.27 56.69L130.15 52.16L131.11 52.75Z" fill="#8FC2BE" fill-opacity="1.000000" fill-rule="nonzero"></path>
&#x9;&#x9;<path id="path" d="M117.02 43.92L103.17 51.92L102.09 51.44L115.94 43.44L117.02 43.92Z" fill="#8FC2BE" fill-opacity="1.000000" fill-rule="nonzero"></path>
&#x9;&#x9;<path id="path" d="M100.42 53.47L92.18 58.25L91.11 57.77L99.46 52.99L100.42 53.47Z" fill="#8FC2BE" fill-opacity="1.000000" fill-rule="nonzero"></path>
&#x9;&#x9;<path id="path" d="M45.73 82.37L23.16 95.38L21.73 94.55L44.3 81.53L45.73 82.37Z" fill="#8FC2BE" fill-opacity="1.000000" fill-rule="nonzero"></path>
&#x9;&#x9;<path id="path" d="M121.32 86.79L143.77 73.77L143.77 79.5L121.32 92.64L121.32 86.79Z" fill="#A3CCC9" fill-opacity="1.000000" fill-rule="nonzero"></path>
&#x9;&#x9;<path id="path" d="M68.18 56.1L90.75 43.08L143.77 73.77L121.32 86.79L68.18 56.1Z" fill="#D8EDEB" fill-opacity="1.000000" fill-rule="nonzero"></path>
&#x9;&#x9;<path id="path" d="M75.34 56.1L90.75 47.14L136.72 73.77L121.32 82.73L75.34 56.1Z" fill="#F0F9F8" fill-opacity="1.000000" fill-rule="nonzero"></path>
&#x9;&#x9;<path id="path" d="M121.32 86.79L121.32 92.64L68.18 61.95L68.18 56.1L121.32 86.79Z" fill="#8FC2BE" fill-opacity="1.000000" fill-rule="nonzero"></path>
&#x9;&#x9;<path id="path" d="M114.15 58.25C117.85 60.4 116.54 64.7 111.05 67.92C105.55 71.03 98.15 71.86 94.33 69.71C90.63 67.56 91.94 63.26 97.43 60.04C102.93 56.82 110.45 55.98 114.15 58.25Z" fill="#D8EDEB" fill-opacity="1.000000" fill-rule="nonzero"></path>
&#x9;&#x9;<path id="path" d="M120.84 60.4L98.39 73.41L90.99 69.11L89.91 68.52L87.76 67.32L110.21 54.31L112.36 55.5L113.44 56.1L120.84 60.4Z" fill="#F0F9F8" fill-opacity="1.000000" fill-rule="nonzero"></path>
&#x9;&#x9;<path id="path" d="M98.27 73.53L98.27 79.26L90.87 74.97L89.79 74.37L87.64 73.17L87.64 67.44L89.79 68.64L90.87 69.23L98.27 73.53Z" fill="#D8EDEB" fill-opacity="1.000000" fill-rule="nonzero"></path>
&#x9;&#x9;<path id="path" d="M112.72 55.86L90.27 68.88L90.27 74.73L89.2 74.13L89.2 68.4L111.64 55.38L112.72 55.86Z" fill="#B8D6D3" fill-opacity="1.000000" fill-rule="nonzero"></path>
&#x9;&#x9;<path id="path" d="M90.27 68.88L90.27 74.73L89.19 74.13L89.19 68.4C89.19 68.28 90.27 68.88 90.27 68.88Z" fill="#8FC2BE" fill-opacity="1.000000" fill-rule="nonzero"></path>
&#x9;&#x9;<path id="path" d="M119.17 59.56L96.72 72.58L96.72 78.43L95.64 77.83L95.64 72.1L118.09 59.08L119.17 59.56Z" fill="#B8D6D3" fill-opacity="1.000000" fill-rule="nonzero"></path>
&#x9;&#x9;<path id="path" d="M96.72 72.58L96.72 78.43L95.64 77.83L95.64 72.1C95.64 71.98 96.72 72.58 96.72 72.58Z" fill="#8FC2BE" fill-opacity="1.000000" fill-rule="nonzero"></path>
&#x9;&#x9;<path id="path" d="M123.11 68.52C124.42 69.23 124.42 70.43 123.11 71.14C121.79 71.86 119.76 71.86 118.57 71.14C117.26 70.43 117.26 69.23 118.57 68.52C119.76 67.8 121.79 67.8 123.11 68.52Z" fill="#D8EDEB" fill-opacity="1.000000" fill-rule="nonzero"></path>
&#x9;&#x9;<path id="path" d="M95.28 54.9C96.6 55.62 96.6 56.82 95.28 57.53C93.97 58.25 91.94 58.25 90.75 57.53C89.43 56.82 89.43 55.62 90.75 54.9C91.94 54.19 93.97 54.19 95.28 54.9Z" fill="#D8EDEB" fill-opacity="1.000000" fill-rule="nonzero"></path>
&#x9;&#x9;<path id="path" d="M110.69 69.59L121.56 75.92L123.35 74.97L112.36 68.64L110.69 69.59Z" fill="#D8EDEB" fill-opacity="1.000000" fill-rule="nonzero"></path>
&#x9;&#x9;<path id="path" d="M109.26 71.38L117.85 76.4L119.17 75.56L110.57 70.67L109.26 71.38Z" fill="#D8EDEB" fill-opacity="1.000000" fill-rule="nonzero"></path>
&#x9;&#x9;<path id="path" d="M122.75 80.94L145.2 67.92L145.2 73.65L122.63 86.79L122.75 80.94Z" fill="#A3CCC9" fill-opacity="1.000000" fill-rule="nonzero"></path>
&#x9;&#x9;<path id="path" d="M69.61 50.37L92.06 37.23L145.2 67.92L122.75 80.94L69.61 50.37Z" fill="#D8EDEB" fill-opacity="1.000000" fill-rule="nonzero"></path>
&#x9;&#x9;<path id="path" d="M76.66 50.37L92.06 41.41L138.15 67.92L122.63 76.88L76.66 50.37Z" fill="#F0F9F8" fill-opacity="1.000000" fill-rule="nonzero"></path>
&#x9;&#x9;<path id="path" d="M122.75 80.94L122.63 86.79L69.61 56.1L69.61 50.37L122.75 80.94Z" fill="#8FC2BE" fill-opacity="1.000000" fill-rule="nonzero"></path>
&#x9;&#x9;<path id="path" d="M115.58 52.4C119.29 54.55 117.97 58.84 112.48 62.07C106.99 65.17 99.58 66.01 95.76 63.86C92.06 61.71 93.37 57.41 98.87 54.19C104.36 50.96 111.76 50.25 115.58 52.4Z" fill="#D8EDEB" fill-opacity="1.000000" fill-rule="nonzero"></path>
&#x9;&#x9;<path id="path" d="M122.15 54.67L99.7 67.68L92.3 63.38L91.22 62.79L89.08 61.59L111.52 48.58L113.67 49.77L114.75 50.37L122.15 54.67Z" fill="#F0F9F8" fill-opacity="1.000000" fill-rule="nonzero"></path>
&#x9;&#x9;<path id="path" d="M99.7 67.68L99.7 73.41L92.3 69.11L91.22 68.52L89.08 67.32L89.08 61.59L91.22 62.78L92.3 63.38L99.7 67.68Z" fill="#D8EDEB" fill-opacity="1.000000" fill-rule="nonzero"></path>
&#x9;&#x9;<path id="path" d="M114.15 50.01L91.7 63.02L91.7 68.87L90.63 68.28L90.63 62.55L113.08 49.53L114.15 50.01Z" fill="#B8D6D3" fill-opacity="1.000000" fill-rule="nonzero"></path>
&#x9;&#x9;<path id="path" d="M91.7 63.02L91.7 68.87L90.63 68.28L90.63 62.55C90.63 62.43 91.7 63.02 91.7 63.02Z" fill="#8FC2BE" fill-opacity="1.000000" fill-rule="nonzero"></path>
&#x9;&#x9;<path id="path" d="M120.6 53.71L98.15 66.73L98.15 72.58L97.07 71.98L97.07 66.25L119.52 53.23L120.6 53.71Z" fill="#B8D6D3" fill-opacity="1.000000" fill-rule="nonzero"></path>
&#x9;&#x9;<path id="path" d="M98.03 66.73L98.03 72.58L96.96 71.98L96.96 66.25C96.96 66.13 98.03 66.73 98.03 66.73Z" fill="#8FC2BE" fill-opacity="1.000000" fill-rule="nonzero"></path>
&#x9;&#x9;<path id="path" d="M124.42 62.79C125.74 63.5 125.74 64.7 124.42 65.41C123.11 66.13 121.08 66.13 119.88 65.41C118.57 64.7 118.57 63.5 119.88 62.79C121.2 61.95 123.23 61.95 124.42 62.79Z" fill="#D8EDEB" fill-opacity="1.000000" fill-rule="nonzero"></path>
&#x9;&#x9;<path id="path" d="M96.72 49.05C98.03 49.77 98.03 50.96 96.72 51.68C95.4 52.4 93.37 52.4 92.18 51.68C90.87 50.96 90.87 49.77 92.18 49.05C93.37 48.34 95.4 48.34 96.72 49.05Z" fill="#D8EDEB" fill-opacity="1.000000" fill-rule="nonzero"></path>
&#x9;&#x9;<path id="path" d="M112 63.74L122.99 70.07L124.66 69.11L113.79 62.79L112 63.74Z" fill="#D8EDEB" fill-opacity="1.000000" fill-rule="nonzero"></path>
&#x9;&#x9;<path id="path" d="M110.57 65.65L119.29 70.55L120.6 69.83L112 64.82L110.57 65.65Z" fill="#D8EDEB" fill-opacity="1.000000" fill-rule="nonzero"></path>
&#x9;&#x9;<path id="path" d="M121.32 73.41L143.77 60.4L143.77 66.13L121.32 79.26L121.32 73.41Z" fill="#A3CCC9" fill-opacity="1.000000" fill-rule="nonzero"></path>
&#x9;&#x9;<path id="path" d="M68.18 42.84L121.32 73.41L143.77 60.4L108.66 40.1L90.75 29.71L87.76 31.5L85.13 32.93L83.1 34.13L68.18 42.84Z" fill="#D8EDEB" fill-opacity="1.000000" fill-rule="nonzero"></path>
&#x9;&#x9;<path id="path" d="M75.34 42.84L90.75 33.89L136.72 60.4L121.32 69.35L75.34 42.84Z" fill="#F0F9F8" fill-opacity="1.000000" fill-rule="nonzero"></path>
&#x9;&#x9;<path id="path" d="M121.32 73.41L121.32 79.26L68.18 48.58L68.18 42.84L121.32 73.41Z" fill="#8FC2BE" fill-opacity="1.000000" fill-rule="nonzero"></path>
&#x9;&#x9;<path id="path" d="M114.15 44.87C117.85 47.02 116.54 51.32 111.05 54.55C105.55 57.65 98.15 58.49 94.33 56.34C90.63 54.19 91.94 49.89 97.43 46.66C102.93 43.44 110.45 42.72 114.15 44.87Z" fill="#D8EDEB" fill-opacity="1.000000" fill-rule="nonzero"></path>
&#x9;&#x9;<path id="path" d="M120.84 47.14L98.39 60.16L90.99 55.86L89.91 55.26L87.76 54.07L110.21 41.05L112.36 42.25L113.44 42.84L120.84 47.14Z" fill="#F0F9F8" fill-opacity="1.000000" fill-rule="nonzero"></path>
&#x9;&#x9;<path id="path" d="M98.27 60.16L98.27 65.89L90.87 61.59L89.79 60.99L87.64 59.8L87.64 54.07L89.79 55.26L90.87 55.86L98.27 60.16Z" fill="#D8EDEB" fill-opacity="1.000000" fill-rule="nonzero"></path>
&#x9;&#x9;<path id="path" d="M112.72 42.49L90.27 55.5L90.27 61.35L89.2 60.75L89.2 55.02L111.64 42.01L112.72 42.49Z" fill="#B8D6D3" fill-opacity="1.000000" fill-rule="nonzero"></path>
&#x9;&#x9;<path id="path" d="M90.27 55.5L90.27 61.35L89.19 60.76L89.19 55.02C89.19 54.9 90.27 55.5 90.27 55.5Z" fill="#8FC2BE" fill-opacity="1.000000" fill-rule="nonzero"></path>
&#x9;&#x9;<path id="path" d="M119.17 46.19L96.72 59.2L96.72 65.05L95.64 64.46L95.64 58.73L118.09 45.71L119.17 46.19Z" fill="#B8D6D3" fill-opacity="1.000000" fill-rule="nonzero"></path>
&#x9;&#x9;<path id="path" d="M96.72 59.2L96.72 65.05L95.64 64.46L95.64 58.73C95.64 58.61 96.72 59.2 96.72 59.2Z" fill="#8FC2BE" fill-opacity="1.000000" fill-rule="nonzero"></path>
&#x9;&#x9;<path id="path" d="M123.11 55.26C124.42 55.98 124.42 57.17 123.11 57.89C121.79 58.61 119.76 58.61 118.57 57.89C117.26 57.17 117.26 55.98 118.57 55.26C119.76 54.43 121.79 54.43 123.11 55.26Z" fill="#D8EDEB" fill-opacity="1.000000" fill-rule="nonzero"></path>
&#x9;&#x9;<path id="path" d="M95.28 41.53C96.6 42.25 96.6 43.44 95.28 44.16C93.97 44.87 91.94 44.87 90.75 44.16C89.43 43.44 89.43 42.25 90.75 41.53C91.94 40.81 93.97 40.81 95.28 41.53Z" fill="#D8EDEB" fill-opacity="1.000000" fill-rule="nonzero"></path>
&#x9;&#x9;<path id="path" d="M110.69 56.22L121.56 62.55L123.35 61.59L112.36 55.26L110.69 56.22Z" fill="#D8EDEB" fill-opacity="1.000000" fill-rule="nonzero"></path>
&#x9;&#x9;<path id="path" d="M109.26 58.01L117.85 63.02L119.17 62.31L110.57 57.29L109.26 58.01Z" fill="#D8EDEB" fill-opacity="1.000000" fill-rule="nonzero"></path>
&#x9;&#x9;<path id="path" d="M121.32 65.17L143.77 52.04L143.77 57.89L121.32 70.91L121.32 65.17Z" fill="#A3CCC9" fill-opacity="1.000000" fill-rule="nonzero"></path>
&#x9;&#x9;<path id="path" d="M68.18 34.49L90.75 21.47L143.77 52.04L121.32 65.17L68.18 34.49Z" fill="#D8EDEB" fill-opacity="1.000000" fill-rule="nonzero"></path>
&#x9;&#x9;<path id="path" d="M75.34 34.49L90.75 25.53L136.72 52.04L121.32 61.11L75.34 34.49Z" fill="#F0F9F8" fill-opacity="1.000000" fill-rule="nonzero"></path>
&#x9;&#x9;<path id="path" d="M121.32 65.17L121.32 70.91L68.18 40.34L68.18 34.49L121.32 65.17Z" fill="#8FC2BE" fill-opacity="1.000000" fill-rule="nonzero"></path>
&#x9;&#x9;<path id="path" d="M114.15 36.52C117.85 38.67 116.54 42.96 111.05 46.19C105.55 49.29 98.15 50.13 94.33 47.98C90.63 45.83 91.94 41.53 97.43 38.31C102.93 35.08 110.45 34.37 114.15 36.52Z" fill="#D8EDEB" fill-opacity="1.000000" fill-rule="nonzero"></path>
&#x9;&#x9;<path id="path" d="M120.84 38.78L98.39 51.8L90.99 47.5L89.91 46.9L87.76 45.71L110.21 32.69L112.36 33.89L113.44 34.49L120.84 38.78Z" fill="#F0F9F8" fill-opacity="1.000000" fill-rule="nonzero"></path>
&#x9;&#x9;<path id="path" d="M98.27 51.92L98.27 57.65L90.87 53.35L89.79 52.76L87.64 51.56L87.64 45.83L89.79 47.02L90.87 47.62L98.27 51.92Z" fill="#D8EDEB" fill-opacity="1.000000" fill-rule="nonzero"></path>
&#x9;&#x9;<path id="path" d="M112.72 34.13L90.27 47.14L90.27 52.99L89.2 52.4L89.2 46.67L111.64 33.65L112.72 34.13Z" fill="#B8D6D3" fill-opacity="1.000000" fill-rule="nonzero"></path>
&#x9;&#x9;<path id="path" d="M90.27 47.26L90.27 53.11L89.19 52.52L89.19 46.79C89.19 46.67 90.27 47.26 90.27 47.26Z" fill="#8FC2BE" fill-opacity="1.000000" fill-rule="nonzero"></path>
&#x9;&#x9;<path id="path" d="M119.17 37.83L96.72 50.84L96.72 56.7L95.64 56.1L95.64 50.37L118.09 37.35L119.17 37.83Z" fill="#B8D6D3" fill-opacity="1.000000" fill-rule="nonzero"></path>
&#x9;&#x9;<path id="path" d="M96.72 50.96L96.72 56.81L95.64 56.22L95.64 50.49C95.64 50.37 96.72 50.96 96.72 50.96Z" fill="#8FC2BE" fill-opacity="1.000000" fill-rule="nonzero"></path>
&#x9;&#x9;<path id="path" d="M123.11 46.9C124.42 47.62 124.42 48.81 123.11 49.53C121.79 50.25 119.76 50.25 118.57 49.53C117.26 48.81 117.26 47.62 118.57 46.9C119.76 46.19 121.79 46.19 123.11 46.9Z" fill="#D8EDEB" fill-opacity="1.000000" fill-rule="nonzero"></path>
&#x9;&#x9;<path id="path" d="M95.28 33.17C96.6 33.89 96.6 35.08 95.28 35.8C93.97 36.52 91.94 36.52 90.75 35.8C89.43 35.08 89.43 33.89 90.75 33.17C91.94 32.46 93.97 32.46 95.28 33.17Z" fill="#D8EDEB" fill-opacity="1.000000" fill-rule="nonzero"></path>
&#x9;&#x9;<path id="path" d="M110.69 47.98L121.56 54.31L123.35 53.35L112.36 47.02L110.69 47.98Z" fill="#D8EDEB" fill-opacity="1.000000" fill-rule="nonzero"></path>
&#x9;&#x9;<path id="path" d="M109.26 49.77L117.85 54.79L119.17 53.95L110.57 49.05L109.26 49.77Z" fill="#D8EDEB" fill-opacity="1.000000" fill-rule="nonzero"></path>
&#x9;&#x9;<path id="path" d="M122.75 59.32L145.2 46.31L145.2 52.04L122.63 65.17L122.75 59.32Z" fill="#A3CCC9" fill-opacity="1.000000" fill-rule="nonzero"></path>
&#x9;&#x9;<path id="path" d="M69.61 28.63L92.06 15.62L145.2 46.31L122.75 59.32L69.61 28.63Z" fill="#D8EDEB" fill-opacity="1.000000" fill-rule="nonzero"></path>
&#x9;&#x9;<path id="path" d="M76.66 28.63L92.06 19.68L138.15 46.31L122.63 55.26L76.66 28.63Z" fill="#F0F9F8" fill-opacity="1.000000" fill-rule="nonzero"></path>
&#x9;&#x9;<path id="path" d="M122.75 59.32L122.63 65.17L69.61 34.48L69.61 28.63L122.75 59.32Z" fill="#8FC2BE" fill-opacity="1.000000" fill-rule="nonzero"></path>
&#x9;&#x9;<path id="path" d="M115.58 30.78C119.29 32.93 117.97 37.23 112.48 40.46C106.99 43.56 99.58 44.4 95.76 42.25C92.06 40.1 93.37 35.8 98.87 32.57C104.36 29.35 111.76 28.51 115.58 30.78Z" fill="#D8EDEB" fill-opacity="1.000000" fill-rule="nonzero"></path>
&#x9;&#x9;<path id="path" d="M122.15 32.93L99.7 45.95L92.3 41.65L91.22 41.05L89.08 39.86L111.52 26.84L113.67 28.04L114.75 28.63L122.15 32.93Z" fill="#F0F9F8" fill-opacity="1.000000" fill-rule="nonzero"></path>
&#x9;&#x9;<path id="path" d="M99.7 46.07L99.7 51.8L92.3 47.5L91.22 46.9L89.08 45.71L89.08 39.98L91.22 41.17L92.3 41.77L99.7 46.07Z" fill="#D8EDEB" fill-opacity="1.000000" fill-rule="nonzero"></path>
&#x9;&#x9;<path id="path" d="M114.15 28.28L91.7 41.29L91.7 47.14L90.63 46.55L90.63 40.81L113.08 27.8L114.15 28.28Z" fill="#B8D6D3" fill-opacity="1.000000" fill-rule="nonzero"></path>
&#x9;&#x9;<path id="path" d="M91.7 41.41L91.7 47.26L90.63 46.67L90.63 40.93C90.63 40.81 91.7 41.41 91.7 41.41Z" fill="#8FC2BE" fill-opacity="1.000000" fill-rule="nonzero"></path>
&#x9;&#x9;<path id="path" d="M120.6 32.1L98.15 45.11L98.15 50.96L97.07 50.37L97.07 44.64L119.52 31.62L120.6 32.1Z" fill="#B8D6D3" fill-opacity="1.000000" fill-rule="nonzero"></path>
&#x9;&#x9;<path id="path" d="M98.03 45.11L98.03 50.96L96.96 50.37L96.96 44.63C96.96 44.52 98.03 45.11 98.03 45.11Z" fill="#8FC2BE" fill-opacity="1.000000" fill-rule="nonzero"></path>
&#x9;&#x9;<path id="path" d="M124.42 41.05C125.74 41.77 125.74 42.96 124.42 43.68C123.11 44.4 121.08 44.4 119.88 43.68C118.57 42.96 118.57 41.77 119.88 41.05C121.2 40.34 123.23 40.34 124.42 41.05Z" fill="#D8EDEB" fill-opacity="1.000000" fill-rule="nonzero"></path>
&#x9;&#x9;<path id="path" d="M96.72 27.44C98.03 28.16 98.03 29.35 96.72 30.07C95.4 30.78 93.37 30.78 92.18 30.07C90.87 29.35 90.87 28.16 92.18 27.44C93.37 26.72 95.4 26.72 96.72 27.44Z" fill="#D8EDEB" fill-opacity="1.000000" fill-rule="nonzero"></path>
&#x9;&#x9;<path id="path" d="M112 42.13L122.99 48.46L124.66 47.5L113.79 41.17L112 42.13Z" fill="#D8EDEB" fill-opacity="1.000000" fill-rule="nonzero"></path>
&#x9;&#x9;<path id="path" d="M110.57 43.92L119.29 48.93L120.6 48.1L112 43.2L110.57 43.92Z" fill="#D8EDEB" fill-opacity="1.000000" fill-rule="nonzero"></path>
&#x9;&#x9;<path id="path" d="M121.32 51.8L143.77 38.78L143.77 44.52L121.32 57.65L121.32 51.8Z" fill="#A3CCC9" fill-opacity="1.000000" fill-rule="nonzero"></path>
&#x9;&#x9;<path id="path" d="M68.18 21.11L121.32 51.8L143.77 38.78L108.66 18.48L90.75 8.1L87.76 9.89L85.13 11.32L83.1 12.51L68.18 21.11Z" fill="#F0F9F8" fill-opacity="1.000000" fill-rule="nonzero"></path>
&#x9;&#x9;<path id="path" d="M75.34 21.11L90.75 12.15L136.72 38.78L121.32 47.74L75.34 21.11Z" fill="#F0F9F8" fill-opacity="1.000000" fill-rule="nonzero"></path>
&#x9;&#x9;<path id="path" d="M121.32 51.8L121.32 57.65L68.18 26.96L68.18 21.11L121.32 51.8Z" fill="#8FC2BE" fill-opacity="1.000000" fill-rule="nonzero"></path>
&#x9;&#x9;<path id="path" d="M120.84 25.41L98.39 38.43L90.99 34.13L89.91 33.53L87.76 32.34L110.21 19.32L112.36 20.51L113.44 21.11L120.84 25.41Z" fill="#F0F9F8" fill-opacity="1.000000" fill-rule="nonzero"></path>
&#x9;&#x9;<path id="path" d="M98.27 38.54L98.27 44.28L90.87 39.98L89.79 39.38L87.64 38.19L87.64 32.46L89.79 33.65L90.87 34.25L98.27 38.54Z" fill="#D8EDEB" fill-opacity="1.000000" fill-rule="nonzero"></path>
&#x9;&#x9;<path id="path" d="M112.72 20.75L90.27 33.77L90.27 39.62L89.2 39.02L89.2 33.29L111.64 20.28L112.72 20.75Z" fill="#B8D6D3" fill-opacity="1.000000" fill-rule="nonzero"></path>
&#x9;&#x9;<path id="path" d="M90.27 33.89L90.27 39.74L89.19 39.14L89.19 33.41C89.19 33.29 90.27 33.89 90.27 33.89Z" fill="#8FC2BE" fill-opacity="1.000000" fill-rule="nonzero"></path>
&#x9;&#x9;<path id="path" d="M119.17 24.57L96.72 37.59L96.72 43.44L95.64 42.84L95.64 37.11L118.09 24.1L119.17 24.57Z" fill="#B8D6D3" fill-opacity="1.000000" fill-rule="nonzero"></path>
&#x9;&#x9;<path id="path" d="M96.72 37.59L96.72 43.44L95.64 42.84L95.64 37.11C95.64 36.99 96.72 37.59 96.72 37.59Z" fill="#8FC2BE" fill-opacity="1.000000" fill-rule="nonzero"></path>
&#x9;&#x9;<path id="path" d="M57.91 46.78L37.13 50.61L37.13 54.78L21.13 64.1L21.13 68.52L28.18 72.58L47.88 61.11L51.46 63.26L57.91 51.2L57.91 46.78Z" fill="#8FC2BE" fill-opacity="1.000000" fill-rule="nonzero"></path>
&#x9;&#x9;<path id="path" d="M57.91 46.78L51.58 58.84L47.88 56.81L28.18 68.16L21.13 64.1L40.71 52.64L37.13 50.61L57.91 46.78Z" fill="#D8EDEB" fill-opacity="1.000000" fill-rule="nonzero"></path>
&#x9;&#x9;<path id="path" d="M165.98 79.38L146.27 90.85L142.57 88.7L136.24 100.76L136.24 105.18L157.02 101.48L157.02 97.18L173.02 87.86L173.02 83.44L165.98 79.38Z" fill="#8FC2BE" fill-opacity="1.000000" fill-rule="nonzero"></path>
&#x9;&#x9;<path id="path" d="M173.02 83.44L153.32 94.91L157.02 97.06L136.24 100.76L142.57 88.7L146.27 90.85L165.98 79.38L173.02 83.44Z" fill="#D8EDEB" fill-opacity="1.000000" fill-rule="nonzero"></path>
&#x9;</g>
</svg>