<svg width="195.000000" height="140.000000" viewBox="0 0 195 140" fill="none" xmlns="http://www.w3.org/2000/svg" xmlns:xlink="http://www.w3.org/1999/xlink">
&#x9;<desc>
&#x9;&#x9;&#x9;Created with Pixso.
&#x9;</desc>
&#x9;<defs>
&#x9;&#x9;<clipPath id="clip201_7152">
&#x9;&#x9;&#x9;<rect id="pipeline" width="195.000000" height="140.000000" fill="white" fill-opacity="0"></rect>
&#x9;&#x9;</clipPath>
&#x9;</defs>
&#x9;<g clip-path="url(#clip201_7152)">
&#x9;&#x9;<path id="Vector" d="M102.46 34.96C104.91 36.4 106.9 35.67 106.9 33.36L106.9 30C106.9 26.43 109.95 25.34 113.72 27.53L148.7 47.96C152.79 50.35 156.11 55.42 156.11 59.28L156.11 117.26C156.11 121.61 152.39 122.94 147.81 120.25L78.15 79.54C72.75 76.39 68.38 69.7 68.38 64.59L68.38 19.83C68.38 17.21 70.63 16.34 73.42 18L102.46 34.96Z" fill="#A3CCC9" fill-opacity="1.000000" fill-rule="nonzero"></path>
&#x9;&#x9;<path id="Vector" d="M152.18 104C149.6 81.8 148.03 59.52 152.18 39.4L82.89 4C82.89 4 90.83 82.83 90.83 81.73C90.83 80.63 152.18 104 152.18 104Z" fill="#C3DFDC" fill-opacity="1.000000" fill-rule="nonzero"></path>
&#x9;&#x9;<path id="Vector" d="M148.39 96.57C145.74 74.39 144.09 52.11 148.16 31.97L79.27 8.74C79.27 8.74 86.95 75.63 86.95 74.53C86.95 73.43 148.39 96.57 148.39 96.57Z" fill="#F0F9F8" fill-opacity="1.000000" fill-rule="nonzero"></path>
&#x9;&#x9;<path id="Vector" d="M92.81 41.97C95.26 43.41 96.95 42.91 96.57 40.85L96.01 37.89C95.43 34.74 98.01 33.98 101.78 36.14L136.75 56.56C140.84 58.96 144.67 63.66 145.31 67.07L154.78 118.29C155.5 122.11 152.36 123.03 147.77 120.36L78.15 79.72C72.76 76.57 67.7 70.36 66.86 65.85L59.51 26.27C59.08 23.95 60.98 23.39 63.77 25.01L92.81 41.97Z" fill="#B8D6D3" fill-opacity="1.000000" fill-rule="nonzero"></path>
&#x9;&#x9;<path id="Vector" d="M91.78 42.81C94.24 44.25 95.89 43.77 95.48 41.75L94.88 38.83C94.26 35.73 96.8 35.01 100.56 37.21L135.54 57.63C139.63 60.02 143.5 64.69 144.15 68.08L154.43 118.5C155.2 122.27 152.1 123.15 147.54 120.48L77.89 79.8C72.49 76.65 67.37 70.5 66.47 66.06L58.51 27.08C58.05 24.8 59.93 24.26 62.71 25.89L91.78 42.81Z" fill="#E0F3F1" fill-opacity="1.000000" fill-rule="nonzero"></path>
&#x9;&#x9;<g opacity="0.300000" style="mix-blend-mode:multiply">
&#x9;&#x9;&#x9;<path id="Vector" d="M83.19 71.15C107.63 76.95 130.55 73.71 142.36 64.12C143.21 65.3 143.83 66.64 144.19 68.05L154.47 118.47C155.24 122.24 152.15 123.12 147.58 120.44L77.93 79.77C72.53 76.62 67.41 70.46 66.51 66.02L66.44 65.69C71.87 67.96 77.47 69.79 83.19 71.15Z" fill="#E0F3F1" fill-opacity="1.000000" fill-rule="nonzero"></path>
&#x9;&#x9;</g>
&#x9;&#x9;<path id="Vector" d="M94.65 41.15C97.11 42.59 99.1 41.87 99.1 39.55L99.1 36.19C99.1 32.64 102.14 31.53 105.92 33.73L140.89 54.15C144.98 56.55 148.29 61.61 148.29 65.47L148.29 123.45C148.29 127.8 144.58 129.12 140 126.45L70.34 85.76C64.95 82.62 60.56 75.91 60.56 70.81L60.56 26.02C60.56 23.4 62.82 22.53 65.61 24.2L94.65 41.15Z" fill="#A3CCC9" fill-opacity="1.000000" fill-rule="nonzero"></path>
&#x9;&#x9;<path id="Vector" d="M144.34 110.19C141.75 88 140.18 65.71 144.34 45.59L75.05 10.19C75.05 10.19 82.98 89.03 82.98 87.93C82.98 86.83 144.34 110.19 144.34 110.19Z" fill="#C3DFDC" fill-opacity="1.000000" fill-rule="nonzero"></path>
&#x9;&#x9;<path id="Vector" d="M140.55 102.76C137.89 80.58 136.24 58.3 140.31 38.17L71.4 14.93C71.4 14.93 79.15 81.82 79.15 80.73C79.15 79.64 140.55 102.76 140.55 102.76Z" fill="#F0F9F8" fill-opacity="1.000000" fill-rule="nonzero"></path>
&#x9;&#x9;<path id="Vector" d="M84.96 48.2C87.42 49.62 89.1 49.13 88.72 47.08L88.17 44.11C87.58 40.97 90.17 40.2 93.93 42.37L128.9 62.79C133 65.18 136.83 69.89 137.46 73.3L146.93 124.5C147.64 128.33 144.5 129.26 139.92 126.58L70.27 85.91C64.87 82.76 59.81 76.55 58.97 72.04L51.61 32.46C51.18 30.14 53.09 29.57 55.88 31.2L84.96 48.2Z" fill="#B8D6D3" fill-opacity="1.000000" fill-rule="nonzero"></path>
&#x9;&#x9;<path id="Vector" d="M83.93 49.01C86.39 50.44 88.05 49.96 87.63 47.95L87.04 45.03C86.41 41.94 88.94 41.21 92.71 43.41L127.68 63.87C131.77 66.27 135.66 70.92 136.34 74.32L146.63 124.75C147.39 128.51 144.3 129.39 139.74 126.72L70.09 86.04C64.68 82.89 59.57 76.74 58.67 72.3L50.74 33.24C50.27 30.95 52.15 30.42 54.93 32.04L83.93 49.01Z" fill="#E0F3F1" fill-opacity="1.000000" fill-rule="nonzero"></path>
&#x9;&#x9;<g opacity="0.300000" style="mix-blend-mode:multiply">
&#x9;&#x9;&#x9;<path id="Vector" d="M75.35 77.34C99.78 83.15 122.71 79.91 134.52 70.31C135.37 71.49 135.99 72.83 136.34 74.24L146.63 124.67C147.39 128.43 144.3 129.31 139.74 126.64L70.09 85.96C64.68 82.81 59.57 76.66 58.67 72.22L58.6 71.88C64.02 74.16 69.63 75.99 75.35 77.34Z" fill="#E0F3F1" fill-opacity="1.000000" fill-rule="nonzero"></path>
&#x9;&#x9;</g>
&#x9;&#x9;<path id="Vector" d="M84.95 50.06C87.4 51.5 89.39 50.77 89.39 48.46L89.39 45.1C89.39 41.53 92.44 40.44 96.21 42.63L131.19 63.06C135.28 65.45 138.59 70.52 138.59 74.38L138.59 132.36C138.59 136.71 134.87 138.03 130.29 135.35L60.64 94.68C55.24 91.53 50.86 84.83 50.86 79.73L50.86 34.92C50.86 32.31 53.12 31.44 55.9 33.1L84.95 50.06Z" fill="#A3CCC9" fill-opacity="1.000000" fill-rule="nonzero"></path>
&#x9;&#x9;<path id="Vector" d="M134.67 119.1C132.08 96.9 130.52 74.62 134.67 54.5L65.37 19.09C65.37 19.09 73.31 97.93 73.31 96.83C73.31 95.73 134.67 119.1 134.67 119.1Z" fill="#C3DFDC" fill-opacity="1.000000" fill-rule="nonzero"></path>
&#x9;&#x9;<path id="Vector" d="M130.88 111.67C128.23 89.49 126.57 67.21 130.65 47.07L61.76 23.84C61.76 23.84 69.44 90.72 69.44 89.63C69.44 88.53 130.88 111.67 130.88 111.67Z" fill="#F0F9F8" fill-opacity="1.000000" fill-rule="nonzero"></path>
&#x9;&#x9;<path id="Vector" d="M75.3 57.07C77.75 58.51 79.44 58.01 79.05 55.95L78.5 52.98C77.91 49.84 80.5 49.08 84.26 51.24L119.24 71.71C123.33 74.1 127.16 78.8 127.8 82.22L137.27 133.42C137.98 137.25 134.84 138.17 130.26 135.5L60.64 94.82C55.24 91.66 50.19 85.46 49.34 80.95L42 41.37C41.57 39.05 43.47 38.49 46.25 40.11L75.3 57.07Z" fill="#B8D6D3" fill-opacity="1.000000" fill-rule="nonzero"></path>
&#x9;&#x9;<path id="Vector" d="M74.27 57.91C76.72 59.35 78.38 58.87 77.96 56.85L77.37 53.93C76.74 50.83 79.28 50.11 83.04 52.31L118.02 72.74C122.11 75.12 125.99 79.79 126.68 83.18L136.96 133.6C137.72 137.37 134.63 138.25 130.07 135.58L60.4 94.87C55.04 91.74 49.87 85.56 49.01 81.12L41.07 42.14C40.6 39.86 42.48 39.32 45.26 40.95L74.27 57.91Z" fill="#E0F3F1" fill-opacity="1.000000" fill-rule="nonzero"></path>
&#x9;&#x9;<g opacity="0.300000" style="mix-blend-mode:multiply">
&#x9;&#x9;&#x9;<path id="Vector" d="M65.68 86.25C90.12 92.05 113.04 88.81 124.85 79.22C125.7 80.4 126.32 81.74 126.68 83.15L136.96 133.57C137.73 137.34 134.63 138.22 130.07 135.55L60.4 94.87C55.04 91.74 49.88 85.56 49.02 81.12L48.95 80.79C54.37 83.06 59.96 84.89 65.68 86.25Z" fill="#C3DFDC" fill-opacity="1.000000" fill-rule="nonzero"></path>
&#x9;&#x9;</g>
&#x9;</g>
</svg>