<svg width="195.000000" height="140.000000" viewBox="0 0 195 140" fill="none" xmlns="http://www.w3.org/2000/svg" xmlns:xlink="http://www.w3.org/1999/xlink">
&#x9;<desc>
&#x9;&#x9;&#x9;Created with Pixso.
&#x9;</desc>
&#x9;<defs>
&#x9;&#x9;<clipPath id="clip201_7080">
&#x9;&#x9;&#x9;<rect id="potentials-rd" width="195.000000" height="140.000000" fill="white" fill-opacity="0"></rect>
&#x9;&#x9;</clipPath>
&#x9;</defs>
&#x9;<g clip-path="url(#clip201_7080)">
&#x9;&#x9;<g opacity="0.300000">
&#x9;&#x9;&#x9;<path id="Vector" d="M96.38 104.7C94.97 104.73 93.58 104.4 92.33 103.74L26.93 65.98C26.39 65.78 25.92 65.41 25.58 64.93C25.25 64.45 25.07 63.88 25.07 63.3C25.07 62.71 25.25 62.14 25.58 61.66C25.92 61.18 26.39 60.82 26.93 60.61L108.61 13.46C109.87 12.84 111.26 12.52 112.67 12.52C114.07 12.52 115.46 12.84 116.72 13.46L182.12 51.22C182.66 51.42 183.13 51.79 183.46 52.27C183.79 52.75 183.97 53.32 183.97 53.9C183.97 54.48 183.79 55.05 183.46 55.53C183.13 56 182.66 56.37 182.12 56.58L100.44 103.73C99.2 104.4 97.8 104.73 96.38 104.7Z" fill="#B8D6D3" fill-opacity="1.000000" fill-rule="nonzero"></path>
&#x9;&#x9;</g>
&#x9;&#x9;<path id="Vector" d="M182.89 52.62C182.6 52.24 182.24 51.91 181.82 51.66L116.43 13.92C115.26 13.33 113.97 13.02 112.67 13.02C111.36 13.02 110.07 13.33 108.9 13.92L27.23 61.12C26.92 61.29 26.63 61.51 26.38 61.77L25.68 61.77L25.68 63.24C25.72 63.71 25.89 64.15 26.16 64.54C26.43 64.92 26.8 65.22 27.23 65.41L92.62 103.18C93.79 103.77 95.08 104.07 96.39 104.07C97.69 104.07 98.98 103.77 100.15 103.18L181.86 56.06C182.29 55.87 182.65 55.57 182.93 55.19C183.2 54.81 183.36 54.36 183.41 53.89L183.41 52.42L182.89 52.62Z" fill="#ACCBC8" fill-opacity="1.000000" fill-rule="nonzero"></path>
&#x9;&#x9;<path id="Vector" d="M100.15 101.74C98.98 102.32 97.69 102.63 96.39 102.63C95.08 102.63 93.79 102.32 92.62 101.74L27.23 63.99C25.17 62.79 25.17 60.84 27.23 59.65L108.9 12.49C110.07 11.9 111.36 11.6 112.67 11.6C113.97 11.6 115.26 11.9 116.43 12.49L181.86 50.24C183.92 51.44 183.92 53.4 181.86 54.59L100.15 101.74Z" fill="#B8D6D3" fill-opacity="1.000000" fill-rule="nonzero"></path>
&#x9;&#x9;<g opacity="0.300000">
&#x9;&#x9;&#x9;<path id="Vector" d="M99.51 98.78L33.07 60.42L114.35 13.5L180.78 51.86L99.51 98.78Z" fill="#B8D6D3" fill-opacity="1.000000" fill-rule="nonzero"></path>
&#x9;&#x9;</g>
&#x9;&#x9;<path id="Vector" d="M99.51 97.91L33.07 59.55L114.35 12.64L180.78 50.99L99.51 97.91Z" fill="#F0F9F8" fill-opacity="1.000000" fill-rule="nonzero"></path>
&#x9;&#x9;<path id="Vector" d="M98.84 95.78L36.77 59.94L109.58 17.9L171.65 53.74L98.84 95.78Z" fill="#FFFFFF" fill-opacity="1.000000" fill-rule="nonzero"></path>
&#x9;&#x9;<path id="Vector" d="M162.38 58.29L101.74 23.28L105.75 20.97L166.38 55.98L162.38 58.29Z" fill="#F0F9F8" fill-opacity="1.000000" fill-rule="nonzero"></path>
&#x9;&#x9;<path id="Vector" d="M153.35 63.5L92.71 28.49L96.73 26.18L157.36 61.19L153.35 63.5Z" fill="#F0F9F8" fill-opacity="1.000000" fill-rule="nonzero"></path>
&#x9;&#x9;<path id="Vector" d="M144.32 68.71L83.69 33.7L87.7 31.39L148.34 66.4L144.32 68.71Z" fill="#F0F9F8" fill-opacity="1.000000" fill-rule="nonzero"></path>
&#x9;&#x9;<path id="Vector" d="M135.3 73.92L74.66 38.91L78.68 36.6L139.31 71.61L135.3 73.92Z" fill="#F0F9F8" fill-opacity="1.000000" fill-rule="nonzero"></path>
&#x9;&#x9;<path id="Vector" d="M126.27 79.13L65.64 44.12L69.65 41.81L130.29 76.81L126.27 79.13Z" fill="#F0F9F8" fill-opacity="1.000000" fill-rule="nonzero"></path>
&#x9;&#x9;<path id="Vector" d="M117.25 84.35L56.62 49.33L60.62 47.02L121.26 82.02L117.25 84.35Z" fill="#F0F9F8" fill-opacity="1.000000" fill-rule="nonzero"></path>
&#x9;&#x9;<path id="Vector" d="M108.23 89.56L47.59 54.54L51.6 52.23L112.23 87.24L108.23 89.56Z" fill="#F0F9F8" fill-opacity="1.000000" fill-rule="nonzero"></path>
&#x9;&#x9;<path id="Vector" d="M99.2 94.77L38.57 59.75L42.57 57.44L103.21 92.45L99.2 94.77Z" fill="#F0F9F8" fill-opacity="1.000000" fill-rule="nonzero"></path>
&#x9;&#x9;<path id="Vector" d="M109.97 21.53L124.97 30.19C125.19 30.29 125.43 30.35 125.68 30.35C125.92 30.35 126.16 30.29 126.38 30.19C126.77 29.96 126.76 29.6 126.38 29.37L111.36 20.7C111.14 20.59 110.91 20.54 110.66 20.54C110.42 20.54 110.18 20.59 109.97 20.7C109.88 20.73 109.8 20.78 109.75 20.86C109.69 20.93 109.66 21.02 109.66 21.11C109.66 21.21 109.69 21.3 109.75 21.37C109.8 21.44 109.88 21.5 109.97 21.53Z" fill="#D8EDEB" fill-opacity="1.000000" fill-rule="nonzero"></path>
&#x9;&#x9;<path id="Vector" d="M105.64 24L115.72 29.82C115.94 29.93 116.18 29.99 116.42 29.99C116.67 29.99 116.91 29.93 117.12 29.82C117.52 29.59 117.52 29.23 117.12 29.01L107.05 23.19C106.83 23.08 106.59 23.02 106.35 23.02C106.1 23.02 105.86 23.08 105.64 23.19C105.25 23.41 105.25 23.77 105.64 24Z" fill="#D8EDEB" fill-opacity="1.000000" fill-rule="nonzero"></path>
&#x9;&#x9;<path id="Vector" d="M101.2 26.56L125.9 40.82C126.12 40.93 126.36 40.99 126.6 40.99C126.85 40.99 127.09 40.93 127.31 40.82C127.39 40.79 127.47 40.74 127.52 40.66C127.57 40.59 127.6 40.5 127.6 40.41C127.6 40.32 127.57 40.24 127.52 40.16C127.47 40.09 127.39 40.04 127.31 40.01L102.6 25.75C102.39 25.64 102.15 25.59 101.9 25.59C101.66 25.59 101.42 25.64 101.2 25.75C101.12 25.78 101.04 25.83 100.99 25.91C100.94 25.98 100.91 26.07 100.91 26.16C100.91 26.25 100.94 26.33 100.99 26.41C101.04 26.48 101.12 26.53 101.2 26.56Z" fill="#D8EDEB" fill-opacity="1.000000" fill-rule="nonzero"></path>
&#x9;&#x9;<path id="Vector" d="M130.53 73.12L125.16 70.02C124.95 69.91 124.7 69.85 124.46 69.85C124.22 69.85 123.98 69.91 123.76 70.02C123.67 70.05 123.6 70.1 123.55 70.18C123.5 70.25 123.47 70.34 123.47 70.42C123.47 70.51 123.5 70.6 123.55 70.67C123.6 70.75 123.67 70.8 123.76 70.83L129.12 73.93C129.34 74.04 129.58 74.1 129.82 74.1C130.07 74.1 130.31 74.04 130.53 73.93C130.92 73.71 130.92 73.34 130.53 73.12Z" fill="#D8EDEB" fill-opacity="1.000000" fill-rule="nonzero"></path>
&#x9;&#x9;<path id="Vector" d="M125.92 75.78L120.56 72.69C120.34 72.58 120.1 72.52 119.85 72.52C119.61 72.52 119.37 72.58 119.15 72.69C118.76 72.91 118.76 73.28 119.15 73.5L124.51 76.59C124.73 76.71 124.97 76.77 125.22 76.77C125.46 76.77 125.7 76.71 125.92 76.59C126.31 76.41 126.31 76.01 125.92 75.78Z" fill="#D8EDEB" fill-opacity="1.000000" fill-rule="nonzero"></path>
&#x9;&#x9;<path id="Vector" d="M121.48 78.33L116.12 75.23C115.9 75.12 115.66 75.06 115.42 75.06C115.17 75.06 114.93 75.12 114.72 75.23C114.32 75.46 114.32 75.82 114.72 76.04L120.08 79.14C120.3 79.25 120.54 79.31 120.78 79.31C121.03 79.31 121.27 79.25 121.48 79.14C121.88 78.94 121.87 78.57 121.48 78.33Z" fill="#D8EDEB" fill-opacity="1.000000" fill-rule="nonzero"></path>
&#x9;&#x9;<path id="Vector" d="M116.91 80.98L111.55 77.89C111.33 77.78 111.09 77.72 110.85 77.72C110.61 77.72 110.37 77.78 110.15 77.89C109.76 78.11 109.76 78.48 110.15 78.7L115.51 81.79C115.73 81.91 115.97 81.97 116.21 81.97C116.46 81.97 116.7 81.91 116.91 81.79C117.31 81.58 117.31 81.19 116.91 80.98Z" fill="#D8EDEB" fill-opacity="1.000000" fill-rule="nonzero"></path>
&#x9;&#x9;<path id="Vector" d="M112.43 83.57L107.06 80.48C106.84 80.37 106.6 80.31 106.36 80.31C106.11 80.31 105.87 80.37 105.65 80.48C105.57 80.51 105.5 80.56 105.44 80.63C105.39 80.71 105.36 80.79 105.36 80.88C105.36 80.97 105.39 81.06 105.44 81.13C105.5 81.2 105.57 81.26 105.65 81.29L111.03 84.39C111.24 84.5 111.48 84.56 111.73 84.56C111.97 84.56 112.21 84.5 112.43 84.39C112.52 84.36 112.59 84.3 112.64 84.23C112.69 84.16 112.72 84.07 112.72 83.98C112.72 83.89 112.69 83.8 112.64 83.73C112.59 83.66 112.52 83.6 112.43 83.57Z" fill="#D8EDEB" fill-opacity="1.000000" fill-rule="nonzero"></path>
&#x9;&#x9;<path id="Vector" d="M107.84 86.21L102.52 83.1C102.3 83 102.06 82.94 101.82 82.94C101.58 82.94 101.34 83 101.12 83.1C100.73 83.33 100.73 83.7 101.12 83.92L106.49 87.01C106.7 87.13 106.94 87.19 107.19 87.19C107.43 87.19 107.67 87.13 107.89 87.01C107.97 86.98 108.04 86.92 108.08 86.84C108.13 86.77 108.15 86.68 108.14 86.6C108.14 86.51 108.11 86.43 108.05 86.36C108 86.29 107.93 86.24 107.84 86.21Z" fill="#D8EDEB" fill-opacity="1.000000" fill-rule="nonzero"></path>
&#x9;&#x9;<path id="Vector" d="M103.35 88.84L97.99 85.74C97.77 85.63 97.53 85.58 97.28 85.58C97.04 85.58 96.8 85.63 96.58 85.74C96.19 85.97 96.19 86.34 96.58 86.56L101.94 89.65C102.16 89.76 102.4 89.82 102.65 89.82C102.89 89.82 103.13 89.76 103.35 89.65C103.43 89.62 103.51 89.57 103.56 89.5C103.61 89.42 103.64 89.34 103.64 89.25C103.64 89.16 103.61 89.07 103.56 89C103.51 88.92 103.43 88.87 103.35 88.84Z" fill="#D8EDEB" fill-opacity="1.000000" fill-rule="nonzero"></path>
&#x9;&#x9;<path id="Vector" d="M98.85 91.41L93.48 88.31C93.26 88.21 93.02 88.15 92.77 88.15C92.53 88.15 92.29 88.21 92.07 88.31C91.99 88.34 91.91 88.4 91.86 88.47C91.81 88.54 91.78 88.63 91.78 88.72C91.78 88.81 91.81 88.9 91.86 88.97C91.91 89.04 91.99 89.1 92.07 89.13L97.44 92.22C97.66 92.33 97.9 92.39 98.14 92.39C98.39 92.39 98.63 92.33 98.85 92.22C98.93 92.19 99 92.14 99.06 92.07C99.11 91.99 99.14 91.91 99.14 91.82C99.14 91.73 99.11 91.64 99.06 91.57C99 91.5 98.93 91.44 98.85 91.41Z" fill="#D8EDEB" fill-opacity="1.000000" fill-rule="nonzero"></path>
&#x9;&#x9;<path id="Vector" d="M152.45 37.56L134.89 27.42L134.89 25.43L138.14 25.55L157.77 32.47L157.77 36.36L156.14 35.42L152.45 37.56Z" fill="#ACCBC8" fill-opacity="1.000000" fill-rule="nonzero"></path>
&#x9;&#x9;<path id="Vector" d="M152.45 35.56L134.89 25.43L140.22 22.35L157.77 32.47L152.45 35.56Z" fill="#B8D6D3" fill-opacity="1.000000" fill-rule="nonzero"></path>
&#x9;&#x9;<g opacity="0.300000">
&#x9;&#x9;&#x9;<path id="Vector" d="M57.22 136L2 87.67L104.39 48.66L159.61 96.98L57.22 136Z" fill="#B8D6D3" fill-opacity="1.000000" fill-rule="nonzero"></path>
&#x9;&#x9;</g>
&#x9;&#x9;<path id="Vector" d="M57.22 134.73L2 86.41L104.39 47.4L159.61 95.73L57.22 134.73Z" fill="#F0F9F8" fill-opacity="1.000000" fill-rule="nonzero"></path>
&#x9;&#x9;<path id="Vector" d="M57.31 132.43L5.71 87.27L97.44 52.32L149.04 97.48L57.31 132.43Z" fill="#FFFFFF" fill-opacity="1.000000" fill-rule="nonzero"></path>
&#x9;&#x9;<path id="Vector" d="M142.71 99.16L92.31 55.06L97.36 53.13L147.77 97.24L142.71 99.16Z" fill="#F0F9F8" fill-opacity="1.000000" fill-rule="nonzero"></path>
&#x9;&#x9;<path id="Vector" d="M131.35 103.49L80.93 59.39L85.99 57.47L136.39 101.57L131.35 103.49Z" fill="#F0F9F8" fill-opacity="1.000000" fill-rule="nonzero"></path>
&#x9;&#x9;<path id="Vector" d="M119.97 107.82L69.57 63.72L74.62 61.8L125.03 105.9L119.97 107.82Z" fill="#F0F9F8" fill-opacity="1.000000" fill-rule="nonzero"></path>
&#x9;&#x9;<path id="Vector" d="M108.61 112.16L58.19 68.05L63.25 66.13L113.65 110.23L108.61 112.16Z" fill="#F0F9F8" fill-opacity="1.000000" fill-rule="nonzero"></path>
&#x9;&#x9;<path id="Vector" d="M97.23 116.49L46.82 72.38L51.87 70.46L102.29 114.56L97.23 116.49Z" fill="#F0F9F8" fill-opacity="1.000000" fill-rule="nonzero"></path>
&#x9;&#x9;<path id="Vector" d="M85.86 120.82L35.45 76.71L40.51 74.79L90.91 118.89L85.86 120.82Z" fill="#F0F9F8" fill-opacity="1.000000" fill-rule="nonzero"></path>
&#x9;&#x9;<path id="Vector" d="M74.49 125.16L24.08 81.05L29.13 79.12L79.54 123.23L74.49 125.16Z" fill="#F0F9F8" fill-opacity="1.000000" fill-rule="nonzero"></path>
&#x9;&#x9;<path id="Vector" d="M63.12 129.49L12.71 85.38L17.76 83.46L68.17 127.56L63.12 129.49Z" fill="#F0F9F8" fill-opacity="1.000000" fill-rule="nonzero"></path>
&#x9;&#x9;<path id="Vector" d="M96.19 56.51L114.89 72.88C115.12 73.04 115.4 73.14 115.68 73.17C115.97 73.21 116.26 73.17 116.52 73.07C117.07 72.87 117.21 72.44 116.86 72.11L98.16 55.77C97.92 55.6 97.65 55.5 97.36 55.47C97.07 55.43 96.78 55.47 96.52 55.57C95.98 55.78 95.83 56.2 96.19 56.51Z" fill="#D8EDEB" fill-opacity="1.000000" fill-rule="nonzero"></path>
&#x9;&#x9;<path id="Vector" d="M90.5 58.68L102.93 69.57C103.17 69.73 103.44 69.83 103.72 69.87C104.01 69.9 104.3 69.86 104.56 69.76C105.11 69.56 105.25 69.14 104.9 68.8L92.47 57.91C92.23 57.75 91.96 57.65 91.68 57.61C91.39 57.58 91.1 57.61 90.84 57.72C90.29 57.95 90.14 58.37 90.5 58.68Z" fill="#D8EDEB" fill-opacity="1.000000" fill-rule="nonzero"></path>
&#x9;&#x9;<path id="Vector" d="M111.73 81.93L86.78 60.1C86.55 59.93 86.28 59.83 85.99 59.8C85.71 59.76 85.42 59.8 85.15 59.9C84.6 60.11 84.45 60.53 84.81 60.86L109.76 82.69C110 82.86 110.27 82.96 110.56 82.99C110.84 83.03 111.13 82.99 111.4 82.89C111.94 82.66 112.08 82.24 111.73 81.93Z" fill="#D8EDEB" fill-opacity="1.000000" fill-rule="nonzero"></path>
&#x9;&#x9;<path id="Vector" d="M79.13 63.03L94.7 76.66C94.94 76.82 95.21 76.92 95.49 76.95C95.78 76.99 96.07 76.95 96.33 76.85C96.88 76.64 97.03 76.22 96.67 75.9L81.1 62.27C80.86 62.1 80.59 62 80.3 61.97C80.02 61.93 79.73 61.97 79.46 62.07C78.92 62.28 78.77 62.7 79.13 63.03Z" fill="#D8EDEB" fill-opacity="1.000000" fill-rule="nonzero"></path>
&#x9;&#x9;<path id="Vector" d="M97.24 83.53L75.41 64.41C75.17 64.24 74.9 64.14 74.61 64.11C74.33 64.08 74.04 64.11 73.77 64.22C73.23 64.43 73.09 64.85 73.44 65.17L95.27 84.29C95.51 84.45 95.78 84.55 96.07 84.59C96.35 84.62 96.64 84.59 96.91 84.49C97.44 84.26 97.6 83.84 97.24 83.53Z" fill="#D8EDEB" fill-opacity="1.000000" fill-rule="nonzero"></path>
&#x9;&#x9;<path id="Vector" d="M67.75 67.34L77.08 75.5C77.32 75.66 77.59 75.76 77.87 75.8C78.15 75.83 78.44 75.8 78.71 75.7C79.25 75.49 79.4 75.07 79.05 74.74L69.73 66.59C69.49 66.42 69.22 66.32 68.93 66.29C68.65 66.25 68.36 66.29 68.09 66.39C67.55 66.61 67.41 67.03 67.75 67.34Z" fill="#D8EDEB" fill-opacity="1.000000" fill-rule="nonzero"></path>
&#x9;&#x9;<path id="Vector" d="M62.07 69.51L77.66 83.1C77.9 83.27 78.17 83.37 78.46 83.4C78.74 83.44 79.03 83.41 79.3 83.31C79.84 83.1 80 82.67 79.63 82.35L64.04 68.77C63.81 68.6 63.53 68.5 63.25 68.47C62.96 68.43 62.68 68.47 62.41 68.58C61.86 68.77 61.71 69.2 62.07 69.51Z" fill="#D8EDEB" fill-opacity="1.000000" fill-rule="nonzero"></path>
&#x9;&#x9;<path id="Vector" d="M56.39 71.63L68.81 82.53C69.05 82.69 69.32 82.8 69.6 82.83C69.88 82.86 70.17 82.83 70.44 82.72C70.98 82.51 71.14 82.09 70.77 81.77L58.35 70.88C58.11 70.72 57.84 70.61 57.55 70.58C57.27 70.55 56.98 70.58 56.71 70.69C56.18 70.94 56.03 71.36 56.39 71.63Z" fill="#D8EDEB" fill-opacity="1.000000" fill-rule="nonzero"></path>
&#x9;&#x9;<path id="Vector" d="M50.7 73.84L69.41 90.21C69.64 90.37 69.91 90.47 70.2 90.51C70.48 90.54 70.77 90.5 71.04 90.4C71.58 90.19 71.73 89.77 71.37 89.44L52.67 73.08C52.43 72.92 52.16 72.82 51.87 72.78C51.59 72.75 51.3 72.79 51.03 72.89C50.5 73.11 50.34 73.55 50.7 73.84Z" fill="#D8EDEB" fill-opacity="1.000000" fill-rule="nonzero"></path>
&#x9;&#x9;<path id="Vector" d="M45.02 76.01L54.34 84.17C54.58 84.32 54.85 84.42 55.13 84.46C55.42 84.49 55.71 84.46 55.97 84.36C56.52 84.15 56.66 83.73 56.31 83.4L46.98 75.25C46.74 75.08 46.47 74.98 46.19 74.95C45.9 74.91 45.61 74.95 45.35 75.06C44.81 75.27 44.66 75.69 45.02 76.01Z" fill="#D8EDEB" fill-opacity="1.000000" fill-rule="nonzero"></path>
&#x9;&#x9;<path id="Vector" d="M39.33 78.17L51.76 89.06C52 89.22 52.27 89.33 52.55 89.36C52.84 89.39 53.13 89.36 53.39 89.26C53.94 89.05 54.08 88.63 53.73 88.31L41.3 77.41C41.07 77.25 40.79 77.15 40.51 77.12C40.23 77.08 39.94 77.12 39.68 77.22C39.12 77.44 38.97 77.86 39.33 78.17Z" fill="#D8EDEB" fill-opacity="1.000000" fill-rule="nonzero"></path>
&#x9;&#x9;<path id="Vector" d="M33.69 80.34L49.26 93.96C49.5 94.13 49.77 94.23 50.06 94.26C50.34 94.3 50.63 94.26 50.9 94.16C51.44 93.95 51.6 93.53 51.24 93.21L35.6 79.59C35.37 79.42 35.1 79.32 34.81 79.29C34.53 79.25 34.24 79.29 33.97 79.4C33.43 79.6 33.29 80.03 33.69 80.34Z" fill="#D8EDEB" fill-opacity="1.000000" fill-rule="nonzero"></path>
&#x9;&#x9;<path id="Vector" d="M51.75 100.86L29.93 81.74C29.69 81.58 29.42 81.47 29.13 81.44C28.85 81.4 28.56 81.44 28.29 81.54C27.75 81.75 27.6 82.17 27.96 82.49L49.79 101.61C50.03 101.77 50.3 101.88 50.58 101.91C50.87 101.94 51.16 101.91 51.42 101.8C51.96 101.59 52.11 101.17 51.75 100.86Z" fill="#D8EDEB" fill-opacity="1.000000" fill-rule="nonzero"></path>
&#x9;&#x9;<path id="Vector" d="M42.95 100.31L24.24 83.92C24 83.75 23.73 83.65 23.45 83.62C23.16 83.58 22.87 83.62 22.6 83.73C22.07 83.94 21.92 84.36 22.28 84.68L40.98 101.04C41.21 101.2 41.49 101.3 41.77 101.34C42.05 101.37 42.34 101.34 42.61 101.24C43.15 101.02 43.3 100.6 42.95 100.31Z" fill="#D8EDEB" fill-opacity="1.000000" fill-rule="nonzero"></path>
&#x9;&#x9;<path id="Vector" d="M16.59 86.83L25.91 95C26.15 95.16 26.42 95.26 26.71 95.29C26.99 95.33 27.28 95.29 27.55 95.19C28.09 94.98 28.23 94.56 27.88 94.23L18.55 86.08C18.32 85.91 18.05 85.81 17.76 85.78C17.48 85.75 17.19 85.78 16.93 85.89C16.38 86.1 16.23 86.53 16.59 86.83Z" fill="#D8EDEB" fill-opacity="1.000000" fill-rule="nonzero"></path>
&#x9;&#x9;<path id="Vector" d="M28.44 101.88L12.87 88.25C12.64 88.09 12.36 87.99 12.08 87.95C11.79 87.92 11.51 87.95 11.24 88.06C10.69 88.27 10.54 88.69 10.9 89.01L26.48 102.64C26.71 102.8 26.99 102.9 27.27 102.94C27.55 102.97 27.84 102.93 28.11 102.83C28.66 102.62 28.81 102.22 28.44 101.88Z" fill="#D8EDEB" fill-opacity="1.000000" fill-rule="nonzero"></path>
&#x9;&#x9;<g opacity="0.300000">
&#x9;&#x9;&#x9;<path id="Vector" d="M75.11 108.91L71.83 107C71.82 106.88 71.77 106.76 71.7 106.66C71.64 106.55 71.55 106.47 71.44 106.4L68.57 104.72L68.47 104.66L67.91 104.34L67.83 104.34L66.97 103.84C66.74 103.75 66.48 103.75 66.25 103.84L15.04 74.31C15.01 74.29 14.97 74.27 14.93 74.26L9.19 72.5L7.4 71.95L8.84 73.22L13.21 77.26L13.3 77.35L64.47 106.85C64.49 106.97 64.54 107.09 64.6 107.2C64.67 107.3 64.76 107.39 64.86 107.46L65.32 107.73L65.79 108L66.36 108.32L66.82 108.6L69.36 110.06C69.47 110.12 69.6 110.14 69.72 110.14C69.85 110.14 69.97 110.12 70.08 110.06L73.35 111.97C73.49 112.04 73.65 112.06 73.8 112.04C73.95 112.03 74.1 111.97 74.22 111.88C74.59 111.65 74.89 111.33 75.11 110.96C75.32 110.59 75.45 110.17 75.48 109.74C75.49 109.58 75.47 109.42 75.41 109.28C75.34 109.13 75.24 109.01 75.11 108.91Z" fill="#B8D6D3" fill-opacity="1.000000" fill-rule="nonzero"></path>
&#x9;&#x9;</g>
&#x9;&#x9;<path id="Vector" d="M8.82 72.26L7.44 70.98L9.23 71.54L8.82 72.26Z" fill="#B8D6D3" fill-opacity="1.000000" fill-rule="nonzero"></path>
&#x9;&#x9;<path id="Vector" d="M14.93 73.3L13.19 76.31L8.84 72.26C8.82 72.24 8.8 72.22 8.79 72.19C8.78 72.16 8.77 72.12 8.77 72.09C8.78 71.99 8.81 71.89 8.86 71.8C8.91 71.71 8.98 71.63 9.07 71.58C9.1 71.56 9.13 71.56 9.16 71.56C9.2 71.56 9.23 71.56 9.26 71.58L14.93 73.3Z" fill="#E0F3F1" fill-opacity="1.000000" fill-rule="nonzero"></path>
&#x9;&#x9;<path id="Vector" d="M66.9 103.26L65.15 106.3L13.29 76.41C13.17 76.32 13.07 76.2 13 76.06C12.94 75.92 12.91 75.76 12.93 75.61C12.95 75.18 13.08 74.76 13.29 74.39C13.51 74.02 13.8 73.7 14.16 73.46C14.29 73.38 14.44 73.32 14.59 73.31C14.75 73.29 14.9 73.32 15.04 73.37L66.9 103.26Z" fill="#ACCBC8" fill-opacity="1.000000" fill-rule="nonzero"></path>
&#x9;&#x9;<path id="Vector" d="M43.84 93.68L43.84 93.11L57.59 101.05L57.59 101.62L43.84 93.68Z" fill="#B8D6D3" fill-opacity="1.000000" fill-rule="nonzero"></path>
&#x9;&#x9;<path id="Vector" d="M58.18 101.96L58.18 101.39L61.55 103.33L61.55 103.91L58.18 101.96Z" fill="#B8D6D3" fill-opacity="1.000000" fill-rule="nonzero"></path>
&#x9;&#x9;<path id="Vector" d="M66.03 103.34C65.67 103.58 65.37 103.89 65.15 104.27C64.94 104.64 64.81 105.06 64.79 105.49C64.79 106.28 65.34 106.6 66.03 106.21C66.39 105.97 66.69 105.65 66.9 105.28C67.12 104.91 67.24 104.49 67.26 104.06C67.26 103.27 66.71 102.95 66.03 103.34Z" fill="#B8D6D3" fill-opacity="1.000000" fill-rule="nonzero"></path>
&#x9;&#x9;<path id="Vector" d="M66.03 104.33C65.92 104.4 65.82 104.5 65.76 104.61C65.69 104.73 65.65 104.86 65.64 105C65.64 105.24 65.81 105.34 66.03 105.22C66.14 105.14 66.23 105.05 66.3 104.93C66.37 104.82 66.41 104.69 66.41 104.56C66.41 104.31 66.24 104.21 66.03 104.33Z" fill="#B8D6D3" fill-opacity="1.000000" fill-rule="nonzero"></path>
&#x9;&#x9;<path id="Vector" d="M71.44 105.49L69.36 109.11L64.86 106.5C64.7 106.39 64.58 106.25 64.51 106.08C64.43 105.91 64.4 105.72 64.43 105.54C64.45 105.03 64.6 104.53 64.86 104.09C65.11 103.64 65.47 103.27 65.9 102.99C66.04 102.88 66.22 102.81 66.4 102.79C66.58 102.77 66.76 102.81 66.93 102.88L71.44 105.49Z" fill="#B8D6D3" fill-opacity="1.000000" fill-rule="nonzero"></path>
&#x9;&#x9;<path id="Vector" d="M70.4 105.6C69.97 105.88 69.61 106.25 69.36 106.7C69.1 107.14 68.95 107.64 68.93 108.15C68.93 109.11 69.59 109.47 70.4 109C70.83 108.72 71.18 108.34 71.44 107.9C71.7 107.46 71.84 106.96 71.87 106.45C71.87 105.51 71.21 105.09 70.4 105.6Z" fill="#E0F3F1" fill-opacity="1.000000" fill-rule="nonzero"></path>
&#x9;&#x9;<path id="Vector" d="M69.93 105.33C69.5 105.61 69.15 105.99 68.89 106.43C68.63 106.87 68.49 107.37 68.46 107.88C68.44 108.07 68.47 108.25 68.54 108.42C68.62 108.59 68.74 108.73 68.89 108.84L68.42 108.57C68.27 108.46 68.15 108.32 68.08 108.15C68 107.98 67.97 107.8 67.99 107.61C68.02 107.1 68.17 106.61 68.42 106.16C68.68 105.72 69.03 105.34 69.46 105.06C69.61 104.96 69.79 104.89 69.97 104.88C70.15 104.86 70.33 104.89 70.5 104.97L70.97 105.23C70.81 105.16 70.62 105.12 70.44 105.14C70.26 105.16 70.08 105.22 69.93 105.33Z" fill="#D8EDEB" fill-opacity="1.000000" fill-rule="nonzero"></path>
&#x9;&#x9;<path id="Vector" d="M68.9 104.73C68.47 105.01 68.12 105.39 67.86 105.83C67.6 106.27 67.46 106.77 67.43 107.28C67.41 107.46 67.44 107.65 67.51 107.82C67.59 107.98 67.71 108.13 67.86 108.24L67.39 107.96C67.24 107.85 67.12 107.71 67.04 107.54C66.97 107.37 66.94 107.19 66.96 107C66.98 106.49 67.13 105.99 67.39 105.55C67.64 105.11 68 104.73 68.43 104.45C68.58 104.34 68.75 104.27 68.94 104.26C69.12 104.24 69.3 104.27 69.47 104.35L69.94 104.62C69.77 104.55 69.59 104.52 69.41 104.54C69.22 104.55 69.05 104.62 68.9 104.73Z" fill="#D8EDEB" fill-opacity="1.000000" fill-rule="nonzero"></path>
&#x9;&#x9;<path id="Vector" d="M67.87 104.13C67.44 104.41 67.08 104.79 66.82 105.23C66.57 105.68 66.42 106.18 66.39 106.69C66.37 106.87 66.4 107.06 66.48 107.22C66.55 107.39 66.67 107.54 66.82 107.64L66.36 107.38C66.2 107.27 66.08 107.13 66.01 106.96C65.93 106.79 65.9 106.6 65.92 106.42C65.94 105.91 66.09 105.41 66.35 104.97C66.61 104.52 66.97 104.15 67.4 103.87C67.55 103.76 67.72 103.7 67.9 103.68C68.08 103.66 68.27 103.7 68.43 103.77L68.91 104.04C68.74 103.96 68.56 103.93 68.37 103.95C68.19 103.97 68.02 104.03 67.87 104.13Z" fill="#D8EDEB" fill-opacity="1.000000" fill-rule="nonzero"></path>
&#x9;&#x9;<path id="Vector" d="M66.84 103.54C66.41 103.82 66.05 104.2 65.79 104.64C65.54 105.08 65.39 105.58 65.36 106.09C65.34 106.28 65.37 106.46 65.45 106.63C65.52 106.8 65.64 106.94 65.79 107.05L65.32 106.77C65.17 106.67 65.04 106.53 64.97 106.36C64.89 106.19 64.86 106 64.89 105.82C64.92 105.31 65.07 104.81 65.32 104.37C65.57 103.92 65.93 103.55 66.36 103.27C66.51 103.16 66.68 103.09 66.87 103.07C67.05 103.06 67.24 103.09 67.41 103.16L67.88 103.44C67.71 103.36 67.53 103.33 67.35 103.35C67.16 103.37 66.99 103.43 66.84 103.54Z" fill="#D8EDEB" fill-opacity="1.000000" fill-rule="nonzero"></path>
&#x9;&#x9;<path id="Vector" d="M75.11 107.96L73.35 111L69.53 108.81C69.4 108.72 69.3 108.6 69.24 108.46C69.17 108.32 69.15 108.16 69.17 108.01C69.19 107.58 69.31 107.16 69.53 106.78C69.75 106.41 70.05 106.09 70.41 105.86C70.53 105.76 70.68 105.71 70.83 105.69C70.99 105.68 71.14 105.7 71.28 105.77L75.11 107.96Z" fill="#B8D6D3" fill-opacity="1.000000" fill-rule="nonzero"></path>
&#x9;&#x9;<path id="Vector" d="M74.22 108.08C73.86 108.32 73.57 108.64 73.35 109.01C73.14 109.38 73.01 109.8 72.99 110.22C72.99 111.02 73.54 111.34 74.22 110.94C74.59 110.71 74.89 110.39 75.11 110.02C75.32 109.64 75.45 109.22 75.48 108.79C75.48 108.01 74.91 107.68 74.22 108.08Z" fill="#B8D6D3" fill-opacity="1.000000" fill-rule="nonzero"></path>
&#x9;</g>
</svg>