<svg width="195.000000" height="140.000000" viewBox="0 0 195 140" fill="none" xmlns="http://www.w3.org/2000/svg" xmlns:xlink="http://www.w3.org/1999/xlink">
&#x9;<desc>
&#x9;&#x9;&#x9;Created with Pixso.
&#x9;</desc>
&#x9;<defs>
&#x9;&#x9;<clipPath id="clip201_6489">
&#x9;&#x9;&#x9;<rect id="card=Report1Cimg" width="195.000000" height="140.000000" fill="white" fill-opacity="0"></rect>
&#x9;&#x9;</clipPath>
&#x9;&#x9;<clipPath id="clip201_6488">
&#x9;&#x9;&#x9;<rect id="reports-1-c" width="195.000000" height="140.000000" fill="white" fill-opacity="0"></rect>
&#x9;&#x9;</clipPath>
&#x9;</defs>
&#x9;<g clip-path="url(#clip201_6488)">
&#x9;&#x9;<g clip-path="url(#clip201_6489)">
&#x9;&#x9;&#x9;<g opacity="0.300000">
&#x9;&#x9;&#x9;&#x9;<path id="path" d="M73.3 137.01L15.53 86.46L122.65 45.65L180.42 96.2L73.3 137.01Z" fill="#B8D6D3" fill-opacity="1.000000" fill-rule="nonzero"></path>
&#x9;&#x9;&#x9;</g>
&#x9;&#x9;&#x9;<path id="path" d="M73.3 136.01L15.53 85.46L122.65 44.65L180.42 95.21L73.3 136.01Z" fill="#F0F9F8" fill-opacity="1.000000" fill-rule="nonzero"></path>
&#x9;&#x9;&#x9;<g opacity="0.300000">
&#x9;&#x9;&#x9;&#x9;<path id="path" d="M73.3 134.01L15.53 83.46L122.65 42.65L180.42 93.2L73.3 134.01Z" fill="#B8D6D3" fill-opacity="1.000000" fill-rule="nonzero"></path>
&#x9;&#x9;&#x9;</g>
&#x9;&#x9;&#x9;<path id="path" d="M73.3 133.01L15.53 82.46L122.65 41.65L180.42 92.21L73.3 133.01Z" fill="#F0F9F8" fill-opacity="1.000000" fill-rule="nonzero"></path>
&#x9;&#x9;&#x9;<path id="path" d="M149.03 64.85L143.42 61.61C143.2 61.5 142.94 61.44 142.69 61.44C142.43 61.44 142.18 61.5 141.95 61.61C141.87 61.64 141.79 61.7 141.73 61.77C141.68 61.85 141.65 61.94 141.65 62.03C141.65 62.13 141.68 62.22 141.73 62.29C141.79 62.37 141.87 62.43 141.95 62.46L147.56 65.7C147.79 65.82 148.04 65.88 148.3 65.88C148.55 65.88 148.81 65.82 149.03 65.7C149.44 65.47 149.44 65.09 149.03 64.85Z" fill="#D8EDEB" fill-opacity="1.000000" fill-rule="nonzero"></path>
&#x9;&#x9;&#x9;<path id="path" d="M144.22 67.64L138.61 64.4C138.38 64.29 138.13 64.23 137.87 64.23C137.61 64.23 137.36 64.29 137.14 64.4C136.73 64.64 136.73 65.02 137.14 65.25L142.75 68.49C142.97 68.61 143.22 68.67 143.48 68.67C143.74 68.67 143.99 68.61 144.22 68.49C144.63 68.3 144.63 67.88 144.22 67.64Z" fill="#D8EDEB" fill-opacity="1.000000" fill-rule="nonzero"></path>
&#x9;&#x9;&#x9;<path id="path" d="M139.57 70.3L133.96 67.06C133.74 66.95 133.48 66.89 133.23 66.89C132.97 66.89 132.72 66.95 132.49 67.06C132.08 67.3 132.08 67.68 132.49 67.91L138.1 71.15C138.33 71.27 138.58 71.33 138.84 71.33C139.1 71.33 139.35 71.27 139.57 71.15C139.98 70.94 139.97 70.56 139.57 70.3Z" fill="#D8EDEB" fill-opacity="1.000000" fill-rule="nonzero"></path>
&#x9;&#x9;&#x9;<path id="path" d="M134.79 73.08L129.18 69.84C128.95 69.73 128.7 69.67 128.45 69.67C128.19 69.67 127.94 69.73 127.71 69.84C127.31 70.08 127.3 70.46 127.71 70.69L133.32 73.93C133.55 74.05 133.8 74.11 134.06 74.11C134.31 74.11 134.57 74.05 134.79 73.93C135.2 73.7 135.2 73.3 134.79 73.08Z" fill="#D8EDEB" fill-opacity="1.000000" fill-rule="nonzero"></path>
&#x9;&#x9;&#x9;<path id="path" d="M130.1 75.79L124.48 72.55C124.25 72.44 124 72.38 123.75 72.38C123.49 72.38 123.24 72.44 123.01 72.55C122.92 72.58 122.85 72.64 122.79 72.71C122.74 72.79 122.71 72.88 122.71 72.98C122.71 73.07 122.74 73.16 122.79 73.24C122.85 73.31 122.92 73.37 123.01 73.4L128.63 76.64C128.86 76.76 129.11 76.82 129.37 76.82C129.62 76.82 129.88 76.76 130.1 76.64C130.19 76.61 130.27 76.55 130.32 76.48C130.38 76.4 130.4 76.31 130.4 76.22C130.4 76.12 130.38 76.03 130.32 75.95C130.27 75.88 130.19 75.82 130.1 75.79Z" fill="#D8EDEB" fill-opacity="1.000000" fill-rule="nonzero"></path>
&#x9;&#x9;&#x9;<path id="path" d="M125.3 78.55L119.73 75.3C119.51 75.19 119.26 75.13 119 75.13C118.75 75.13 118.5 75.19 118.27 75.3C117.86 75.54 117.86 75.92 118.27 76.15L123.88 79.39C124.11 79.51 124.36 79.57 124.62 79.57C124.87 79.57 125.12 79.51 125.35 79.39C125.44 79.35 125.51 79.29 125.55 79.21C125.6 79.14 125.62 79.04 125.62 78.95C125.61 78.86 125.58 78.77 125.52 78.7C125.47 78.63 125.39 78.58 125.3 78.55Z" fill="#D8EDEB" fill-opacity="1.000000" fill-rule="nonzero"></path>
&#x9;&#x9;&#x9;<path id="path" d="M120.6 81.3L114.99 78.06C114.76 77.95 114.51 77.89 114.26 77.89C114 77.89 113.75 77.95 113.52 78.06C113.11 78.3 113.11 78.68 113.52 78.91L119.13 82.15C119.36 82.26 119.61 82.32 119.87 82.32C120.12 82.32 120.37 82.26 120.6 82.15C120.69 82.12 120.77 82.06 120.82 81.99C120.87 81.91 120.9 81.82 120.9 81.73C120.9 81.63 120.87 81.54 120.82 81.46C120.77 81.39 120.69 81.33 120.6 81.3Z" fill="#D8EDEB" fill-opacity="1.000000" fill-rule="nonzero"></path>
&#x9;&#x9;&#x9;<path id="path" d="M115.9 83.99L110.28 80.75C110.05 80.64 109.8 80.58 109.54 80.58C109.29 80.58 109.03 80.64 108.81 80.75C108.72 80.78 108.64 80.84 108.59 80.91C108.53 80.99 108.5 81.08 108.5 81.17C108.5 81.27 108.53 81.36 108.59 81.44C108.64 81.51 108.72 81.57 108.81 81.6L114.43 84.84C114.65 84.95 114.91 85.01 115.16 85.01C115.42 85.01 115.67 84.95 115.9 84.84C115.98 84.81 116.06 84.75 116.11 84.68C116.17 84.6 116.2 84.51 116.2 84.41C116.2 84.32 116.17 84.23 116.11 84.15C116.06 84.08 115.98 84.02 115.9 83.99Z" fill="#D8EDEB" fill-opacity="1.000000" fill-rule="nonzero"></path>
&#x9;&#x9;&#x9;<g opacity="0.300000">
&#x9;&#x9;&#x9;&#x9;<path id="path" d="M72.34 130.63L14.57 80.08L121.69 39.27L179.46 89.82L72.34 130.63Z" fill="#B8D6D3" fill-opacity="1.000000" fill-rule="nonzero"></path>
&#x9;&#x9;&#x9;</g>
&#x9;&#x9;&#x9;<path id="path" d="M72.34 129.31L14.57 78.76L121.69 37.95L179.46 88.51L72.34 129.31Z" fill="#F0F9F8" fill-opacity="1.000000" fill-rule="nonzero"></path>
&#x9;&#x9;&#x9;<path id="path" d="M72.44 126.9L18.46 79.66L114.42 43.1L168.4 90.34L72.44 126.9Z" fill="#FFFFFF" fill-opacity="1.000000" fill-rule="nonzero"></path>
&#x9;&#x9;&#x9;<path id="path" d="M161.78 92.1L109.05 45.96L114.33 43.94L167.07 90.09L161.78 92.1Z" fill="#F0F9F8" fill-opacity="1.000000" fill-rule="nonzero"></path>
&#x9;&#x9;&#x9;<path id="path" d="M149.89 96.63L97.15 50.49L102.44 48.48L155.17 94.62L149.89 96.63Z" fill="#F0F9F8" fill-opacity="1.000000" fill-rule="nonzero"></path>
&#x9;&#x9;&#x9;<path id="path" d="M138 101.16L85.26 55.02L90.54 53.01L143.28 99.15L138 101.16Z" fill="#F0F9F8" fill-opacity="1.000000" fill-rule="nonzero"></path>
&#x9;&#x9;&#x9;<path id="path" d="M126.1 105.69L73.36 59.55L78.65 57.54L131.38 103.68L126.1 105.69Z" fill="#F0F9F8" fill-opacity="1.000000" fill-rule="nonzero"></path>
&#x9;&#x9;&#x9;<path id="path" d="M114.2 110.23L61.46 64.08L66.75 62.07L119.49 108.21L114.2 110.23Z" fill="#F0F9F8" fill-opacity="1.000000" fill-rule="nonzero"></path>
&#x9;&#x9;&#x9;<path id="path" d="M102.3 114.76L49.57 68.61L54.86 66.6L107.59 112.74L102.3 114.76Z" fill="#F0F9F8" fill-opacity="1.000000" fill-rule="nonzero"></path>
&#x9;&#x9;&#x9;<path id="path" d="M90.41 119.29L37.67 73.15L42.96 71.13L95.69 117.28L90.41 119.29Z" fill="#F0F9F8" fill-opacity="1.000000" fill-rule="nonzero"></path>
&#x9;&#x9;&#x9;<path id="path" d="M78.51 123.82L25.78 77.68L31.06 75.67L83.8 121.81L78.51 123.82Z" fill="#F0F9F8" fill-opacity="1.000000" fill-rule="nonzero"></path>
&#x9;&#x9;&#x9;<path id="path" d="M155.73 84.75L160.82 89.21C161.07 89.38 161.36 89.49 161.66 89.52C161.95 89.56 162.25 89.52 162.53 89.41C163.1 89.19 163.26 88.75 162.88 88.41L157.78 83.94C157.54 83.77 157.25 83.67 156.96 83.63C156.66 83.6 156.36 83.63 156.08 83.74C155.48 83.98 155.32 84.42 155.73 84.75Z" fill="#D8EDEB" fill-opacity="1.000000" fill-rule="nonzero"></path>
&#x9;&#x9;&#x9;<path id="path" d="M156.91 90.69L151.81 86.23C151.57 86.06 151.28 85.95 150.98 85.92C150.68 85.88 150.38 85.92 150.1 86.03C149.53 86.24 149.38 86.69 149.75 87.03L154.84 91.5C155.09 91.67 155.38 91.77 155.67 91.8C155.97 91.84 156.27 91.8 156.55 91.7C157.12 91.46 157.28 91.02 156.91 90.69Z" fill="#D8EDEB" fill-opacity="1.000000" fill-rule="nonzero"></path>
&#x9;&#x9;&#x9;<path id="path" d="M150.96 92.96L145.86 88.5C145.62 88.33 145.33 88.22 145.03 88.19C144.74 88.15 144.43 88.19 144.15 88.29C143.58 88.51 143.43 88.95 143.8 89.29L148.9 93.75C149.15 93.92 149.44 94.03 149.73 94.06C150.03 94.1 150.33 94.06 150.61 93.95C151.18 93.73 151.33 93.3 150.96 92.96Z" fill="#D8EDEB" fill-opacity="1.000000" fill-rule="nonzero"></path>
&#x9;&#x9;&#x9;<path id="path" d="M145.01 95.22L139.91 90.76C139.67 90.59 139.38 90.48 139.08 90.45C138.78 90.41 138.48 90.45 138.2 90.56C137.63 90.78 137.48 91.22 137.85 91.56L142.95 96.02C143.2 96.19 143.49 96.3 143.78 96.33C144.08 96.37 144.38 96.33 144.66 96.22C145.23 95.99 145.38 95.55 145.01 95.22Z" fill="#D8EDEB" fill-opacity="1.000000" fill-rule="nonzero"></path>
&#x9;&#x9;&#x9;<path id="path" d="M139.06 97.49L133.96 93.03C133.72 92.86 133.43 92.75 133.14 92.72C132.84 92.68 132.54 92.72 132.26 92.82C131.69 93.04 131.53 93.48 131.91 93.82L137.01 98.28C137.26 98.45 137.54 98.56 137.84 98.59C138.13 98.63 138.43 98.6 138.71 98.49C139.28 98.3 139.44 97.82 139.06 97.49Z" fill="#D8EDEB" fill-opacity="1.000000" fill-rule="nonzero"></path>
&#x9;&#x9;&#x9;<path id="path" d="M133.11 99.76L128.02 95.3C127.77 95.13 127.49 95.03 127.19 94.99C126.9 94.96 126.59 95 126.31 95.1C125.74 95.32 125.58 95.76 125.96 96.1L131.06 100.56C131.31 100.73 131.6 100.84 131.89 100.87C132.19 100.91 132.49 100.87 132.77 100.76C133.33 100.52 133.49 100.08 133.11 99.76Z" fill="#D8EDEB" fill-opacity="1.000000" fill-rule="nonzero"></path>
&#x9;&#x9;&#x9;<path id="path" d="M77.42 61.08L93.73 75.3C93.98 75.47 94.27 75.58 94.56 75.61C94.86 75.65 95.16 75.61 95.44 75.51C96.01 75.29 96.17 74.85 95.79 74.51L79.48 60.3C79.24 60.13 78.95 60.02 78.65 59.99C78.36 59.95 78.05 59.99 77.77 60.1C77.2 60.3 77.04 60.75 77.42 61.08Z" fill="#D8EDEB" fill-opacity="1.000000" fill-rule="nonzero"></path>
&#x9;&#x9;&#x9;<path id="path" d="M127.17 102.02L122.07 97.56C121.83 97.39 121.54 97.28 121.24 97.25C120.95 97.21 120.64 97.25 120.36 97.36C119.79 97.57 119.63 98.01 120.01 98.36L125.11 102.82C125.36 102.99 125.65 103.1 125.94 103.13C126.24 103.17 126.54 103.14 126.82 103.03C127.39 102.79 127.54 102.35 127.17 102.02Z" fill="#D8EDEB" fill-opacity="1.000000" fill-rule="nonzero"></path>
&#x9;&#x9;&#x9;<path id="path" d="M71.47 63.3L84.47 74.7C84.72 74.87 85 74.98 85.3 75.01C85.59 75.05 85.89 75.01 86.17 74.9C86.74 74.68 86.9 74.24 86.52 73.9L73.52 62.51C73.27 62.34 72.99 62.23 72.69 62.2C72.39 62.16 72.09 62.2 71.81 62.31C71.25 62.57 71.1 63.01 71.47 63.3Z" fill="#D8EDEB" fill-opacity="1.000000" fill-rule="nonzero"></path>
&#x9;&#x9;&#x9;<path id="path" d="M121.22 104.3L116.12 99.84C115.88 99.67 115.6 99.56 115.3 99.53C115 99.49 114.7 99.53 114.42 99.63C113.84 99.85 113.69 100.29 114.06 100.63L119.16 105.09C119.41 105.26 119.7 105.37 119.99 105.4C120.29 105.44 120.59 105.4 120.87 105.29C121.44 105.06 121.59 104.62 121.22 104.3Z" fill="#D8EDEB" fill-opacity="1.000000" fill-rule="nonzero"></path>
&#x9;&#x9;&#x9;<path id="path" d="M65.52 65.61L85.09 82.73C85.34 82.9 85.62 83.01 85.92 83.04C86.22 83.08 86.52 83.04 86.8 82.93C87.36 82.71 87.52 82.27 87.15 81.93L67.58 64.81C67.33 64.64 67.05 64.54 66.75 64.5C66.45 64.47 66.15 64.51 65.87 64.61C65.31 64.84 65.15 65.3 65.52 65.61Z" fill="#D8EDEB" fill-opacity="1.000000" fill-rule="nonzero"></path>
&#x9;&#x9;&#x9;<path id="path" d="M115.27 106.55L110.17 102.09C109.93 101.92 109.65 101.81 109.35 101.78C109.05 101.74 108.75 101.78 108.47 101.89C107.9 102.11 107.74 102.55 108.12 102.89L113.21 107.35C113.46 107.52 113.75 107.62 114.04 107.66C114.34 107.69 114.64 107.66 114.92 107.55C115.49 107.3 115.65 106.88 115.27 106.55Z" fill="#D8EDEB" fill-opacity="1.000000" fill-rule="nonzero"></path>
&#x9;&#x9;&#x9;<path id="path" d="M59.58 67.88L69.33 76.41C69.58 76.58 69.87 76.68 70.17 76.72C70.46 76.75 70.76 76.71 71.04 76.61C71.61 76.39 71.76 75.95 71.39 75.61L61.63 67.08C61.39 66.91 61.1 66.8 60.8 66.77C60.51 66.73 60.2 66.77 59.92 66.88C59.36 67.1 59.2 67.54 59.58 67.88Z" fill="#D8EDEB" fill-opacity="1.000000" fill-rule="nonzero"></path>
&#x9;&#x9;&#x9;<path id="path" d="M109.32 108.82L104.23 104.36C103.99 104.19 103.7 104.08 103.41 104.05C103.11 104.01 102.81 104.05 102.52 104.15C101.95 104.37 101.79 104.81 102.17 105.15L107.26 109.61C107.51 109.78 107.8 109.89 108.1 109.92C108.4 109.96 108.7 109.92 108.98 109.81C109.54 109.59 109.73 109.15 109.32 108.82Z" fill="#D8EDEB" fill-opacity="1.000000" fill-rule="nonzero"></path>
&#x9;&#x9;&#x9;<path id="path" d="M53.63 70.14L66.63 81.53C66.88 81.7 67.17 81.81 67.46 81.84C67.76 81.88 68.06 81.84 68.34 81.74C68.91 81.52 69.06 81.08 68.69 80.74L55.69 69.34C55.45 69.17 55.16 69.07 54.87 69.04C54.57 69 54.27 69.04 53.99 69.14C53.41 69.37 53.25 69.81 53.63 70.14Z" fill="#D8EDEB" fill-opacity="1.000000" fill-rule="nonzero"></path>
&#x9;&#x9;&#x9;<path id="path" d="M103.39 111.08L98.29 106.62C98.04 106.45 97.75 106.34 97.45 106.31C97.16 106.27 96.85 106.31 96.58 106.42C96.01 106.64 95.85 107.08 96.23 107.42L101.33 111.88C101.57 112.05 101.86 112.16 102.16 112.19C102.45 112.23 102.76 112.19 103.04 112.08C103.6 111.85 103.74 111.41 103.39 111.08Z" fill="#D8EDEB" fill-opacity="1.000000" fill-rule="nonzero"></path>
&#x9;&#x9;&#x9;<path id="path" d="M47.73 72.41L64.02 86.66C64.27 86.83 64.55 86.94 64.85 86.97C65.15 87.01 65.45 86.98 65.73 86.87C66.3 86.65 66.46 86.21 66.09 85.87L49.73 71.62C49.48 71.45 49.2 71.34 48.9 71.31C48.6 71.27 48.3 71.31 48.02 71.42C47.46 71.63 47.31 72.08 47.73 72.41Z" fill="#D8EDEB" fill-opacity="1.000000" fill-rule="nonzero"></path>
&#x9;&#x9;&#x9;<path id="path" d="M97.43 113.35L92.33 108.89C92.08 108.72 91.8 108.61 91.5 108.58C91.2 108.54 90.9 108.58 90.62 108.69C90.05 108.9 89.89 109.34 90.27 109.69L95.37 114.15C95.62 114.32 95.9 114.43 96.2 114.46C96.5 114.5 96.8 114.47 97.08 114.36C97.65 114.12 97.81 113.68 97.43 113.35Z" fill="#D8EDEB" fill-opacity="1.000000" fill-rule="nonzero"></path>
&#x9;&#x9;&#x9;<path id="path" d="M66.62 93.87L43.79 73.87C43.55 73.7 43.26 73.59 42.96 73.56C42.67 73.52 42.36 73.55 42.08 73.66C41.51 73.88 41.36 74.32 41.73 74.66L64.57 94.66C64.82 94.83 65.1 94.94 65.4 94.97C65.7 95.01 66 94.97 66.28 94.86C66.84 94.64 67 94.2 66.62 93.87Z" fill="#D8EDEB" fill-opacity="1.000000" fill-rule="nonzero"></path>
&#x9;&#x9;&#x9;<path id="path" d="M91.48 115.62L86.38 111.15C86.13 110.99 85.85 110.88 85.55 110.85C85.26 110.81 84.95 110.85 84.67 110.95C84.1 111.17 83.95 111.61 84.33 111.95L89.43 116.41C89.68 116.58 89.96 116.69 90.26 116.72C90.56 116.76 90.86 116.72 91.13 116.61C91.73 116.38 91.86 115.94 91.48 115.62Z" fill="#D8EDEB" fill-opacity="1.000000" fill-rule="nonzero"></path>
&#x9;&#x9;&#x9;<path id="path" d="M57.41 93.3L37.84 76.15C37.6 75.98 37.31 75.87 37.01 75.84C36.71 75.8 36.41 75.84 36.13 75.95C35.57 76.17 35.41 76.61 35.79 76.95L55.35 94.06C55.6 94.23 55.88 94.34 56.18 94.37C56.48 94.41 56.78 94.37 57.06 94.27C57.62 94.04 57.78 93.6 57.41 93.3Z" fill="#D8EDEB" fill-opacity="1.000000" fill-rule="nonzero"></path>
&#x9;&#x9;&#x9;<path id="path" d="M85.53 117.88L80.43 113.42C80.19 113.25 79.9 113.14 79.61 113.11C79.31 113.07 79.01 113.11 78.73 113.22C78.16 113.43 78 113.88 78.38 114.22L83.48 118.68C83.73 118.85 84.01 118.95 84.31 118.99C84.61 119.02 84.91 118.99 85.19 118.88C85.73 118.65 85.9 118.21 85.53 117.88Z" fill="#D8EDEB" fill-opacity="1.000000" fill-rule="nonzero"></path>
&#x9;&#x9;&#x9;<path id="path" d="M29.84 79.2L39.59 87.74C39.84 87.91 40.12 88.02 40.42 88.05C40.72 88.09 41.02 88.05 41.3 87.94C41.87 87.72 42.02 87.28 41.65 86.94L31.89 78.41C31.65 78.24 31.36 78.13 31.07 78.1C30.77 78.06 30.47 78.1 30.19 78.21C29.62 78.43 29.46 78.88 29.84 79.2Z" fill="#D8EDEB" fill-opacity="1.000000" fill-rule="nonzero"></path>
&#x9;&#x9;&#x9;<path id="path" d="M79.59 120.15L74.49 115.69C74.24 115.52 73.96 115.41 73.66 115.38C73.37 115.34 73.06 115.38 72.78 115.48C72.21 115.7 72.05 116.14 72.43 116.48L77.53 120.94C77.78 121.11 78.06 121.22 78.36 121.25C78.65 121.29 78.95 121.25 79.23 121.14C79.8 120.92 79.96 120.48 79.59 120.15Z" fill="#D8EDEB" fill-opacity="1.000000" fill-rule="nonzero"></path>
&#x9;&#x9;&#x9;<path id="path" d="M42.24 94.94L25.95 80.68C25.7 80.51 25.42 80.41 25.12 80.37C24.82 80.34 24.52 80.37 24.24 80.48C23.67 80.7 23.51 81.14 23.89 81.48L40.18 95.74C40.43 95.91 40.72 96.01 41.01 96.04C41.31 96.08 41.61 96.04 41.89 95.94C42.46 95.71 42.62 95.3 42.24 94.94Z" fill="#D8EDEB" fill-opacity="1.000000" fill-rule="nonzero"></path>
&#x9;&#x9;&#x9;<path id="path" d="M73.64 122.41L68.54 117.95C68.3 117.78 68.01 117.67 67.71 117.64C67.41 117.6 67.11 117.64 66.83 117.75C66.26 117.97 66.11 118.41 66.48 118.75L71.58 123.21C71.83 123.38 72.12 123.48 72.41 123.52C72.71 123.55 73.01 123.52 73.29 123.41C73.86 123.18 74.01 122.74 73.64 122.41Z" fill="#D8EDEB" fill-opacity="1.000000" fill-rule="nonzero"></path>
&#x9;&#x9;&#x9;<path id="path" d="M114.41 78.48L120.99 82.27L125.47 79.69L118.89 75.89L114.41 78.48Z" fill="#C3DFDC" fill-opacity="1.000000" fill-rule="evenodd"></path>
&#x9;&#x9;&#x9;<path id="path" d="M100.44 99.44L145.72 125.58L150.21 122.99L104.93 96.85L100.44 99.44Z" fill="#C3DFDC" fill-opacity="1.000000" fill-rule="evenodd"></path>
&#x9;&#x9;&#x9;<path id="path" d="M145.72 125.58L145.72 118.02L150.2 115.43L150.2 122.99L145.72 125.58Z" fill="#C3DFDC" fill-opacity="1.000000" fill-rule="evenodd"></path>
&#x9;&#x9;&#x9;<path id="path" d="M145.72 118.02L100.52 91.92L105 89.33L150.2 115.43L145.72 118.02Z" fill="#C3DFDC" fill-opacity="1.000000" fill-rule="evenodd"></path>
&#x9;&#x9;&#x9;<path id="path" d="" fill="#C3DFDC" fill-opacity="1.000000" fill-rule="nonzero"></path>
&#x9;&#x9;&#x9;<path id="path" d="M104.04 72.49L110.36 76.14L114.84 73.55L108.52 69.9L104.04 72.49Z" fill="#C3DFDC" fill-opacity="1.000000" fill-rule="evenodd"></path>
&#x9;&#x9;&#x9;<path id="path" d="M100.33 87.15L145.72 113.37L150.2 110.78L104.81 84.57L100.33 87.15Z" fill="#C3DFDC" fill-opacity="1.000000" fill-rule="evenodd"></path>
&#x9;&#x9;&#x9;<path id="path" d="M145.72 113.37L145.72 106.07L150.2 103.48L150.2 110.78L145.72 113.37Z" fill="#C3DFDC" fill-opacity="1.000000" fill-rule="evenodd"></path>
&#x9;&#x9;&#x9;<path id="path" d="M145.72 106.07L100.52 79.97L105 77.38L150.2 103.48L145.72 106.07Z" fill="#C3DFDC" fill-opacity="1.000000" fill-rule="evenodd"></path>
&#x9;&#x9;&#x9;<path id="path" d="" fill="#C3DFDC" fill-opacity="1.000000" fill-rule="nonzero"></path>
&#x9;&#x9;&#x9;<path id="path" d="M67.39 80.33L60.77 76.5L65.25 73.92L71.87 77.74L67.39 80.33Z" fill="#C3DFDC" fill-opacity="1.000000" fill-rule="evenodd"></path>
&#x9;&#x9;&#x9;<path id="path" d="M60.77 76.5L60.77 26.8L65.25 24.21L65.25 73.92L60.77 76.5Z" fill="#C3DFDC" fill-opacity="1.000000" fill-rule="evenodd"></path>
&#x9;&#x9;&#x9;<path id="path" d="M60.77 26.8L51.1 21.21L55.58 18.62L65.25 24.21L60.77 26.8Z" fill="#C3DFDC" fill-opacity="1.000000" fill-rule="evenodd"></path>
&#x9;&#x9;&#x9;<path id="path" d="M51.1 21.21L51.1 13.57L55.58 10.98L55.58 18.62L51.1 21.21Z" fill="#C3DFDC" fill-opacity="1.000000" fill-rule="evenodd"></path>
&#x9;&#x9;&#x9;<path id="path" d="M51.1 13.57L67.39 22.97L71.87 20.39L55.58 10.98L51.1 13.57Z" fill="#C3DFDC" fill-opacity="1.000000" fill-rule="evenodd"></path>
&#x9;&#x9;&#x9;<path id="path" d="M67.39 22.97L67.39 80.32L71.87 77.74L71.87 20.39L67.39 22.97Z" fill="#C3DFDC" fill-opacity="1.000000" fill-rule="evenodd"></path>
&#x9;&#x9;&#x9;<path id="path" d="" fill="#C3DFDC" fill-opacity="1.000000" fill-rule="nonzero"></path>
&#x9;&#x9;&#x9;<path id="path" d="M43.83 20.83L43.83 28.19L48.31 25.6L48.31 18.25L43.83 20.83Z" fill="#C3DFDC" fill-opacity="1.000000" fill-rule="evenodd"></path>
&#x9;&#x9;&#x9;<path id="path" d="M43.83 28.19L51.1 32.38L55.58 29.8L48.31 25.6L43.83 28.19Z" fill="#C3DFDC" fill-opacity="1.000000" fill-rule="evenodd"></path>
&#x9;&#x9;&#x9;<path id="path" d="M51.1 32.38L51.1 70.92L55.58 68.33L55.58 29.79L51.1 32.38Z" fill="#C3DFDC" fill-opacity="1.000000" fill-rule="evenodd"></path>
&#x9;&#x9;&#x9;<path id="path" d="M51.1 70.92L57.46 74.59L61.94 72L55.58 68.33L51.1 70.92Z" fill="#C3DFDC" fill-opacity="1.000000" fill-rule="evenodd"></path>
&#x9;&#x9;&#x9;<path id="path" d="M57.46 74.59L57.46 28.7L61.94 26.12L61.94 72L57.46 74.59Z" fill="#C3DFDC" fill-opacity="1.000000" fill-rule="evenodd"></path>
&#x9;&#x9;&#x9;<path id="path" d="M57.46 28.7L43.83 20.83L48.31 18.25L61.94 26.12L57.46 28.7Z" fill="#C3DFDC" fill-opacity="1.000000" fill-rule="evenodd"></path>
&#x9;&#x9;&#x9;<path id="path" d="" fill="#C3DFDC" fill-opacity="1.000000" fill-rule="nonzero"></path>
&#x9;&#x9;&#x9;<path id="path" d="M96.7 89.64C94.73 88.35 92.46 86.64 90.67 85.01L95.15 82.42C96.94 84.06 99.22 85.77 101.18 87.06L96.7 89.64Z" fill="#C3DFDC" fill-opacity="1.000000" fill-rule="evenodd"></path>
&#x9;&#x9;&#x9;<path id="path" d="M90.67 85.01C90.34 84.71 88.95 83.31 88.59 82.92L93.08 80.34C93.43 80.73 94.82 82.12 95.15 82.42L90.67 85.01Z" fill="#C3DFDC" fill-opacity="1.000000" fill-rule="evenodd"></path>
&#x9;&#x9;&#x9;<path id="path" d="M88.59 82.92C82.36 75.99 78.01 66.2 78.01 57.76L82.5 55.17C82.5 63.61 86.84 73.4 93.07 80.34L88.59 82.92Z" fill="#C3DFDC" fill-opacity="1.000000" fill-rule="evenodd"></path>
&#x9;&#x9;&#x9;<path id="path" d="M78.01 57.76C78.01 52.19 79.9 48.22 82.96 46.22L87.44 43.63C84.38 45.63 82.5 49.61 82.5 55.17L78.01 57.76Z" fill="#C3DFDC" fill-opacity="1.000000" fill-rule="evenodd"></path>
&#x9;&#x9;&#x9;<path id="path" d="M82.96 46.22C86.28 44.06 91 44.23 96.22 47.24L100.7 44.66C95.48 41.64 90.76 41.47 87.44 43.63L82.96 46.22Z" fill="#C3DFDC" fill-opacity="1.000000" fill-rule="evenodd"></path>
&#x9;&#x9;&#x9;<path id="path" d="M96.22 47.24C106.17 52.99 114.27 66.94 114.41 78.48L118.89 75.89C118.76 64.36 110.65 50.4 100.7 44.66L96.22 47.24Z" fill="#C3DFDC" fill-opacity="1.000000" fill-rule="evenodd"></path>
&#x9;&#x9;&#x9;<path id="path" d="M120.99 82.27C120.85 66.56 109.79 47.5 96.22 39.66L100.7 37.07C114.28 44.91 125.33 63.97 125.47 79.69L120.99 82.27Z" fill="#C3DFDC" fill-opacity="1.000000" fill-rule="evenodd"></path>
&#x9;&#x9;&#x9;<path id="path" d="M96.22 39.66C89.66 35.88 83.69 35.38 79.25 37.64L83.73 35.05C88.17 32.8 94.14 33.29 100.7 37.07L96.22 39.66Z" fill="#C3DFDC" fill-opacity="1.000000" fill-rule="evenodd"></path>
&#x9;&#x9;&#x9;<path id="path" d="M79.25 37.64C74.45 40.09 71.44 45.76 71.44 53.96L75.92 51.37C75.92 43.17 78.93 37.5 83.73 35.05L79.25 37.64Z" fill="#C3DFDC" fill-opacity="1.000000" fill-rule="evenodd"></path>
&#x9;&#x9;&#x9;<path id="path" d="M71.44 53.96C71.44 64.83 76.74 77.35 84.49 86.66L88.97 84.07C81.22 74.76 75.92 62.25 75.92 51.37L71.44 53.96Z" fill="#C3DFDC" fill-opacity="1.000000" fill-rule="evenodd"></path>
&#x9;&#x9;&#x9;<path id="path" d="M84.49 86.66C85.89 88.32 87.9 90.37 88.59 91L93.07 88.41C92.38 87.78 90.37 85.74 88.97 84.07L84.49 86.66Z" fill="#C3DFDC" fill-opacity="1.000000" fill-rule="evenodd"></path>
&#x9;&#x9;&#x9;<path id="path" d="M88.59 91C90.8 93.04 93.51 95.11 95.93 96.71L100.41 94.13C97.99 92.52 95.28 90.45 93.07 88.41L88.59 91Z" fill="#C3DFDC" fill-opacity="1.000000" fill-rule="evenodd"></path>
&#x9;&#x9;&#x9;<path id="path" d="M95.92 96.71C96.74 97.26 99.61 98.95 100.44 99.44L104.92 96.85C104.09 96.36 101.22 94.67 100.4 94.13L95.92 96.71Z" fill="#C3DFDC" fill-opacity="1.000000" fill-rule="evenodd"></path>
&#x9;&#x9;&#x9;<path id="path" d="M100.52 91.92C99.92 91.57 97.29 90.03 96.7 89.64L101.18 87.06C101.77 87.44 104.4 88.98 105 89.33L100.52 91.92Z" fill="#C3DFDC" fill-opacity="1.000000" fill-rule="evenodd"></path>
&#x9;&#x9;&#x9;<path id="path" d="M100.52 79.97C100.04 79.7 97.54 78.23 97.08 77.92L101.56 75.33C102.02 75.65 104.52 77.11 105 77.38L100.52 79.97Z" fill="#C3DFDC" fill-opacity="1.000000" fill-rule="evenodd"></path>
&#x9;&#x9;&#x9;<path id="path" d="M97.08 77.92C96.29 77.39 95.16 76.6 94.43 75.99L98.91 73.4C99.64 74.02 100.78 74.81 101.56 75.33L97.08 77.92Z" fill="#C3DFDC" fill-opacity="1.000000" fill-rule="evenodd"></path>
&#x9;&#x9;&#x9;<path id="path" d="M94.43 75.99C93.61 75.26 92.83 74.48 92.49 74.05L96.97 71.47C97.31 71.89 98.09 72.67 98.91 73.4L94.43 75.99Z" fill="#C3DFDC" fill-opacity="1.000000" fill-rule="evenodd"></path>
&#x9;&#x9;&#x9;<path id="path" d="M92.49 74.05C90.04 71.12 88.38 67.18 88.38 63.74L92.86 61.15C92.86 64.59 94.53 68.53 96.97 71.47L92.49 74.05Z" fill="#C3DFDC" fill-opacity="1.000000" fill-rule="evenodd"></path>
&#x9;&#x9;&#x9;<path id="path" d="M88.38 63.74C88.38 61.34 89.19 59.62 90.51 58.77L94.99 56.18C93.67 57.04 92.86 58.75 92.86 61.15L88.38 63.74Z" fill="#C3DFDC" fill-opacity="1.000000" fill-rule="evenodd"></path>
&#x9;&#x9;&#x9;<path id="path" d="M90.51 58.77C91.94 57.84 93.96 57.91 96.22 59.21L100.7 56.62C98.45 55.32 96.42 55.25 94.99 56.18L90.51 58.77Z" fill="#C3DFDC" fill-opacity="1.000000" fill-rule="evenodd"></path>
&#x9;&#x9;&#x9;<path id="path" d="M96.22 59.21C100.46 61.66 103.91 67.54 104.04 72.49L108.52 69.9C108.39 64.96 104.94 59.07 100.7 56.62L96.22 59.21Z" fill="#C3DFDC" fill-opacity="1.000000" fill-rule="evenodd"></path>
&#x9;&#x9;&#x9;<path id="path" d="M110.36 76.14C110.23 67.17 103.95 56.38 96.22 51.92L100.7 49.33C108.43 53.8 114.71 64.58 114.84 73.55L110.36 76.14Z" fill="#C3DFDC" fill-opacity="1.000000" fill-rule="evenodd"></path>
&#x9;&#x9;&#x9;<path id="path" d="M96.22 51.92C92.46 49.75 89.05 49.47 86.52 50.76L91 48.17C93.53 46.88 96.94 47.16 100.7 49.33L96.22 51.92Z" fill="#C3DFDC" fill-opacity="1.000000" fill-rule="evenodd"></path>
&#x9;&#x9;&#x9;<path id="path" d="M86.52 50.76C83.77 52.15 82.06 55.39 82.06 60.09L86.54 57.5C86.54 52.81 88.25 49.56 91 48.17L86.52 50.76Z" fill="#C3DFDC" fill-opacity="1.000000" fill-rule="evenodd"></path>
&#x9;&#x9;&#x9;<path id="path" d="M82.06 60.09C82.06 66.46 85.22 73.78 89.82 79.13L94.3 76.54C89.7 71.19 86.54 63.87 86.54 57.5L82.06 60.09Z" fill="#C3DFDC" fill-opacity="1.000000" fill-rule="evenodd"></path>
&#x9;&#x9;&#x9;<path id="path" d="M89.82 79.13C90.53 80.02 91.86 81.29 92.24 81.62L96.72 79.03C96.34 78.7 95.01 77.43 94.3 76.54L89.82 79.13Z" fill="#C3DFDC" fill-opacity="1.000000" fill-rule="evenodd"></path>
&#x9;&#x9;&#x9;<path id="path" d="M92.24 81.62C93.54 82.77 95.28 84.04 96.7 84.98L101.18 82.39C99.77 81.46 98.02 80.18 96.72 79.03L92.24 81.62Z" fill="#C3DFDC" fill-opacity="1.000000" fill-rule="evenodd"></path>
&#x9;&#x9;&#x9;<path id="path" d="M96.7 84.98C97.23 85.33 99.79 86.84 100.33 87.15L104.81 84.57C104.27 84.25 101.71 82.75 101.18 82.39L96.7 84.98Z" fill="#C3DFDC" fill-opacity="1.000000" fill-rule="evenodd"></path>
&#x9;&#x9;&#x9;<path id="path" d="M96.7 89.64C94.73 88.35 92.46 86.64 90.67 85.01C90.34 84.71 88.95 83.31 88.59 82.92C82.36 75.99 78.02 66.2 78.02 57.76C78.02 46.17 86.18 41.45 96.22 47.24C106.17 52.99 114.27 66.94 114.41 78.48L120.99 82.27C120.85 66.56 109.79 47.5 96.22 39.66C82.56 31.78 71.44 38.19 71.44 53.96C71.44 64.84 76.74 77.35 84.49 86.66C85.89 88.32 87.9 90.37 88.59 91C90.8 93.04 93.51 95.11 95.92 96.71C96.74 97.26 99.61 98.95 100.44 99.44L145.72 125.58L145.72 118.02L100.52 91.92C99.92 91.57 97.29 90.03 96.7 89.64ZM100.52 79.97C100.04 79.7 97.54 78.23 97.08 77.92C96.3 77.39 95.16 76.6 94.43 75.99C93.61 75.26 92.83 74.48 92.49 74.05C90.04 71.12 88.38 67.18 88.38 63.74C88.38 58.74 91.89 56.71 96.22 59.21C100.46 61.66 103.9 67.54 104.04 72.49L110.36 76.14C110.23 67.17 103.95 56.38 96.22 51.92C88.4 47.4 82.06 51.06 82.06 60.09C82.06 66.46 85.22 73.78 89.82 79.13C90.53 80.02 91.86 81.29 92.24 81.62C93.54 82.77 95.29 84.04 96.7 84.98C97.23 85.33 99.79 86.84 100.33 87.15L145.72 113.37L145.72 106.07L100.52 79.97ZM67.39 80.32L60.77 76.5L60.77 26.8L51.1 21.21L51.1 13.57L67.39 22.97L67.39 80.32ZM43.83 20.84L43.83 28.19L51.1 32.38L51.1 70.92L57.46 74.59L57.46 28.7L43.83 20.84Z" fill="#8FC2BE" fill-opacity="1.000000" fill-rule="nonzero"></path>
&#x9;&#x9;</g>
&#x9;</g>
</svg>