<svg width="195.000000" height="140.000000" viewBox="0 0 195 140" fill="none" xmlns="http://www.w3.org/2000/svg" xmlns:xlink="http://www.w3.org/1999/xlink">
&#x9;<desc>
&#x9;&#x9;&#x9;Created with Pixso.
&#x9;</desc>
&#x9;<defs>
&#x9;&#x9;<clipPath id="clip201_5477">
&#x9;&#x9;&#x9;<rect id="settings" width="195.000000" height="140.000000" fill="white" fill-opacity="0"></rect>
&#x9;&#x9;</clipPath>
&#x9;</defs>
&#x9;<g clip-path="url(#clip201_5477)">
&#x9;&#x9;<path id="Vector" d="M134.28 27.87L134.28 39.6L129.68 50.53L129.68 38.83L134.28 27.87Z" fill="#B8D6D3" fill-opacity="1.000000" fill-rule="nonzero"></path>
&#x9;&#x9;<path id="Vector" d="M65.21 38.83L65.21 50.53L60.61 39.6L60.61 27.87L65.21 38.83Z" fill="#B8D6D3" fill-opacity="1.000000" fill-rule="nonzero"></path>
&#x9;&#x9;<path id="Vector" d="M43.66 59.44L43.66 71.14L27.16 65.32L27.16 53.59L43.66 59.44Z" fill="#A3CCC9" fill-opacity="1.000000" fill-rule="nonzero"></path>
&#x9;&#x9;<path id="Vector" d="M167.8 53.35L167.8 65.09L151.23 71.14L151.23 59.44L167.8 53.35Z" fill="#A3CCC9" fill-opacity="1.000000" fill-rule="nonzero"></path>
&#x9;&#x9;<path id="Vector" d="M124.13 64.18L124.13 75.88C123.88 73.54 123.03 71.31 121.65 69.4C120.27 67.49 118.41 65.98 116.27 65.02C110.43 62.06 103.98 60.51 97.44 60.51C90.9 60.51 84.45 62.06 78.62 65.02C75.99 66.42 73.76 68.47 72.13 70.97L72.13 59.24C73.74 56.75 75.95 54.7 78.55 53.29C84.38 50.32 90.83 48.78 97.37 48.78C103.92 48.78 110.37 50.32 116.2 53.29C118.35 54.25 120.21 55.77 121.59 57.68C122.97 59.59 123.82 61.83 124.06 64.18L124.13 64.18Z" fill="#A3CCC9" fill-opacity="1.000000" fill-rule="nonzero"></path>
&#x9;&#x9;<path id="Vector" d="M72.13 59.24L72.13 70.97C71.75 71.59 71.45 72.26 71.22 72.95L71.22 61.22C71.45 60.53 71.75 59.86 72.13 59.24Z" fill="#A3CCC9" fill-opacity="1.000000" fill-rule="nonzero"></path>
&#x9;&#x9;<path id="Vector" d="M71.29 61.22L71.29 72.95C71.1 73.48 70.95 74.02 70.86 74.57L70.86 62.83C70.95 62.28 71.1 61.74 71.29 61.22Z" fill="#A3CCC9" fill-opacity="1.000000" fill-rule="nonzero"></path>
&#x9;&#x9;<path id="Vector" d="M70.86 62.83L70.86 74.57C70.82 75 70.82 75.44 70.86 75.88L70.86 64.18C70.82 63.73 70.82 63.28 70.86 62.83Z" fill="#A3CCC9" fill-opacity="1.000000" fill-rule="nonzero"></path>
&#x9;&#x9;<path id="Vector" d="M151.8 64.18L151.8 75.88C151.8 76.9 151.72 77.93 151.56 78.94L151.56 67.31C151.72 66.31 151.8 65.29 151.8 64.28L151.8 64.18Z" fill="#E0F3F1" fill-opacity="1.000000" fill-rule="nonzero"></path>
&#x9;&#x9;<path id="Vector" d="M151.56 67.31L151.56 79.04C151.48 79.6 151.37 80.15 151.23 80.69L151.23 68.89C151.37 68.33 151.48 67.77 151.56 67.21L151.56 67.31Z" fill="#E0F3F1" fill-opacity="1.000000" fill-rule="nonzero"></path>
&#x9;&#x9;<path id="Vector" d="M43.66 68.89L43.66 80.75C43.29 79.32 43.1 77.84 43.09 76.35L43.09 64.48C43.1 65.97 43.29 67.45 43.66 68.89Z" fill="#E0F3F1" fill-opacity="1.000000" fill-rule="nonzero"></path>
&#x9;&#x9;<path id="Vector" d="M53.44 82.74L53.44 94.47L34.49 97.09L34.49 85.36L53.44 82.74Z" fill="#C3DFDC" fill-opacity="1.000000" fill-rule="nonzero"></path>
&#x9;&#x9;<path id="Vector" d="M167.73 74.67L167.73 86.4C167.19 87.72 166.55 89.01 165.81 90.23L165.81 78.53C166.55 77.3 167.19 76 167.73 74.67Z" fill="#B8D6D3" fill-opacity="1.000000" fill-rule="nonzero"></path>
&#x9;&#x9;<path id="Vector" d="M165.82 78.53L165.82 90.23C164.3 92.71 162.47 94.97 160.37 96.96L160.37 85.36C162.47 83.36 164.3 81.1 165.82 78.64L165.82 78.53Z" fill="#B8D6D3" fill-opacity="1.000000" fill-rule="nonzero"></path>
&#x9;&#x9;<path id="Vector" d="M160.37 85.36L160.37 97.09L141.44 94.47L141.44 82.74L160.37 85.36Z" fill="#C3DFDC" fill-opacity="1.000000" fill-rule="nonzero"></path>
&#x9;&#x9;<path id="Vector" d="M34.49 85.36L34.49 97.09C31.38 94.12 28.87 90.58 27.09 86.67L27.09 74.94C28.87 78.85 31.38 82.39 34.49 85.36Z" fill="#B8D6D3" fill-opacity="1.000000" fill-rule="nonzero"></path>
&#x9;&#x9;<path id="Vector" d="M141.44 82.74L141.44 94.47C139.71 95.8 137.89 97.02 136 98.1C133.95 99.27 131.83 100.32 129.65 101.23L129.65 89.5C131.83 88.6 133.95 87.55 136 86.37C137.89 85.29 139.7 84.08 141.41 82.74L141.44 82.74Z" fill="#A3CCC9" fill-opacity="1.000000" fill-rule="nonzero"></path>
&#x9;&#x9;<path id="Vector" d="M65.21 89.5L65.21 101.23C63.03 100.32 60.91 99.27 58.86 98.1C56.97 97.01 55.17 95.8 53.45 94.47L53.45 82.74C55.16 84.08 56.97 85.29 58.86 86.37C60.9 87.55 63.02 88.6 65.21 89.5Z" fill="#A3CCC9" fill-opacity="1.000000" fill-rule="nonzero"></path>
&#x9;&#x9;<path id="Vector" d="M105.75 95.14L105.75 106.88C103.02 107.08 100.3 107.18 97.55 107.18C94.79 107.18 92.03 107.18 89.31 106.88L89.31 95.14C92.03 95.34 94.79 95.48 97.55 95.48C100.3 95.48 103.02 95.48 105.75 95.14Z" fill="#A3CCC9" fill-opacity="1.000000" fill-rule="nonzero"></path>
&#x9;&#x9;<path id="Vector" d="M89.21 95.14L89.21 106.88L79.16 116.36L79.16 104.62L89.21 95.14Z" fill="#C3DFDC" fill-opacity="1.000000" fill-rule="nonzero"></path>
&#x9;&#x9;<path id="Vector" d="M79.16 104.62L79.16 116.32C72.86 115.52 66.65 114.13 60.61 112.16L60.61 100.42C66.64 102.4 72.86 103.81 79.16 104.62Z" fill="#B8D6D3" fill-opacity="1.000000" fill-rule="nonzero"></path>
&#x9;&#x9;<path id="Vector" d="M167.73 74.67C166.06 78.71 163.55 82.36 160.37 85.36L141.44 82.74C139.72 84.08 137.9 85.29 136 86.37C133.95 87.55 131.83 88.6 129.64 89.5L134.25 100.42C128.34 102.35 122.28 103.77 116.13 104.69L105.75 95.14C103.02 95.35 100.3 95.48 97.54 95.48C94.79 95.48 92.03 95.48 89.31 95.14L79.22 104.63C72.92 103.81 66.71 102.41 60.67 100.42L65.28 89.5C63.09 88.6 60.97 87.55 58.92 86.37C57.03 85.29 55.22 84.08 53.51 82.74L34.55 85.36C31.45 82.39 28.94 78.85 27.16 74.94L43.73 68.89C43.33 67.35 43.13 65.77 43.16 64.18C43.13 62.58 43.32 60.98 43.73 59.44L27.23 53.59C28.9 49.56 31.39 45.93 34.55 42.93L53.51 45.59C55.22 44.23 57.03 43.01 58.92 41.92C60.97 40.74 63.09 39.7 65.28 38.8L60.67 27.87C66.6 25.94 72.68 24.51 78.85 23.6L89.38 33.18C92.1 32.91 94.82 32.84 97.58 32.84C100.33 32.84 103.06 32.84 105.78 33.18L115.83 23.6C122.13 24.41 128.34 25.82 134.38 27.8L129.78 38.73C131.96 39.63 134.09 40.67 136.13 41.85C138.02 42.94 139.83 44.17 141.54 45.52L160.47 42.86C163.58 45.83 166.11 49.37 167.9 53.29L151.33 59.37C151.72 60.92 151.91 62.51 151.9 64.11C151.9 65.7 151.71 67.28 151.33 68.82L167.73 74.67ZM116.27 74.97C118.4 74.01 120.25 72.51 121.63 70.62C123.01 68.73 123.87 66.51 124.13 64.18C123.89 61.83 123.04 59.59 121.66 57.68C120.28 55.77 118.42 54.25 116.27 53.29C110.43 50.32 103.98 48.78 97.44 48.78C90.9 48.78 84.45 50.32 78.62 53.29C76.47 54.25 74.61 55.77 73.23 57.68C71.85 59.59 71 61.83 70.75 64.18C71.01 66.51 71.87 68.73 73.25 70.62C74.63 72.51 76.48 74.01 78.62 74.97C84.45 77.95 90.9 79.51 97.44 79.51C103.99 79.51 110.44 77.95 116.27 74.97Z" fill="#E0F3F1" fill-opacity="1.000000" fill-rule="nonzero"></path>
&#x9;&#x9;<path id="Vector" d="M116.17 104.66L116.17 116.39L105.64 106.88L105.64 95.14L116.17 104.66Z" fill="#C3DFDC" fill-opacity="1.000000" fill-rule="nonzero"></path>
&#x9;&#x9;<path id="Vector" d="M134.28 100.42L134.28 112.16C128.37 114.07 122.31 115.48 116.17 116.39L116.17 104.69C122.31 103.77 128.37 102.35 134.28 100.42Z" fill="#B8D6D3" fill-opacity="1.000000" fill-rule="nonzero"></path>
&#x9;</g>
</svg>