<svg width="195.000000" height="140.000000" viewBox="0 0 195 140" fill="none" xmlns="http://www.w3.org/2000/svg" xmlns:xlink="http://www.w3.org/1999/xlink">
&#x9;<desc>
&#x9;&#x9;&#x9;Created with Pixso.
&#x9;</desc>
&#x9;<defs>
&#x9;&#x9;<clipPath id="clip201_5052">
&#x9;&#x9;&#x9;<rect id="tasks" width="195.000000" height="140.000000" fill="white" fill-opacity="0"></rect>
&#x9;&#x9;</clipPath>
&#x9;</defs>
&#x9;<g clip-path="url(#clip201_5052)">
&#x9;&#x9;<path id="Vector" d="M22.91 99.54L122.88 34.24C144.36 46.2 170.2 64.1 192.7 73.61C154.7 97.57 113.66 123.91 95.59 140C74.4 125.63 50.61 113.19 22.91 99.54Z" fill="#E0F3F1" fill-opacity="1.000000" fill-rule="nonzero"></path>
&#x9;&#x9;<g style="mix-blend-mode:multiply">
&#x9;&#x9;&#x9;<path id="Vector" d="M76.16 127.69C59.12 117.39 43.85 109.87 22.87 99.54L122.84 34.24C139.5 43.52 160.83 57.41 179.1 67.15L76.16 127.69Z" fill="#C3DFDC" fill-opacity="1.000000" fill-rule="nonzero"></path>
&#x9;&#x9;</g>
&#x9;&#x9;<path id="Vector" d="M134.25 20.74C137.83 20.92 140.89 24.99 137.02 31.36C136.52 32.55 134.6 31.61 134.31 29.83C137.35 28.05 136.5 22.74 133.92 23.03C132.39 23.15 132.91 20.89 134.25 20.74Z" fill="#E0F3F1" fill-opacity="1.000000" fill-rule="nonzero"></path>
&#x9;&#x9;<path id="Vector" d="M156.85 34.02C160.44 34.19 163.5 38.27 159.62 44.64C159.12 45.83 157.2 44.89 156.93 43.11C159.95 41.32 159.05 36.02 156.52 36.31C154.99 36.43 155.53 34.18 156.85 34.02Z" fill="#E0F3F1" fill-opacity="1.000000" fill-rule="nonzero"></path>
&#x9;&#x9;<path id="Vector" d="M27.73 73.57L41.23 90.44L39.72 90.67L26.21 73.8L27.73 73.57Z" fill="#A3CCC9" fill-opacity="1.000000" fill-rule="nonzero"></path>
&#x9;&#x9;<path id="Vector" d="M38.55 71.65L52.06 88.53L50.54 88.76L37.03 71.88L38.55 71.65Z" fill="#A3CCC9" fill-opacity="1.000000" fill-rule="nonzero"></path>
&#x9;&#x9;<path id="Vector" d="M64.27 85.49L38.84 53.84L37.33 54.08L62.76 85.72L64.27 85.49Z" fill="#A3CCC9" fill-opacity="1.000000" fill-rule="nonzero"></path>
&#x9;&#x9;<path id="Vector" d="M75.03 83.72L49.61 52.08L48.1 52.32L73.51 83.95L75.03 83.72Z" fill="#A3CCC9" fill-opacity="1.000000" fill-rule="nonzero"></path>
&#x9;&#x9;<path id="Vector" d="M94.46 81.35L69.04 49.7L67.53 49.94L92.95 81.59L94.46 81.35Z" fill="#A3CCC9" fill-opacity="1.000000" fill-rule="nonzero"></path>
&#x9;&#x9;<path id="Vector" d="M74.49 65.77L88.01 82.65L86.5 82.88L72.99 66L74.49 65.77Z" fill="#A3CCC9" fill-opacity="1.000000" fill-rule="nonzero"></path>
&#x9;&#x9;<path id="Vector" d="M85.32 63.86L98.82 80.74L97.31 80.97L83.8 64.09L85.32 63.86Z" fill="#A3CCC9" fill-opacity="1.000000" fill-rule="nonzero"></path>
&#x9;&#x9;<path id="Vector" d="M70.56 45.24L84.08 62.11L82.57 62.35L69.05 45.48L70.56 45.24Z" fill="#A3CCC9" fill-opacity="1.000000" fill-rule="nonzero"></path>
&#x9;&#x9;<path id="Vector" d="M2.29 80.12L2.54 77.72L106.33 19.78L183 61.82L183.05 64.18L79.01 124.53L2.29 80.12Z" fill="#A3CCC9" fill-opacity="1.000000" fill-rule="nonzero"></path>
&#x9;&#x9;<g style="mix-blend-mode:multiply">
&#x9;&#x9;&#x9;<path id="Vector" d="M2.32 77.72L78.93 35.07L79.11 124.47L79.01 124.53L2.29 80.12L2.32 77.72Z" fill="#E0F3F1" fill-opacity="1.000000" fill-rule="nonzero"></path>
&#x9;&#x9;</g>
&#x9;&#x9;<path id="Vector" d="M2.29 77.67L106.32 17.34L183.04 61.74L79.1 121.99L2.29 77.67Z" fill="#E0F3F1" fill-opacity="1.000000" fill-rule="nonzero"></path>
&#x9;&#x9;<path id="Vector" d="M9.11 75.57L9.75 68.9L178.3 53.97C178.47 56.51 178.3 58.38 179.36 60.79L81.18 116.06L9.11 75.57Z" fill="#A3CCC9" fill-opacity="1.000000" fill-rule="nonzero"></path>
&#x9;&#x9;<path id="Vector" d="M9.7 68.9L81.43 62.55L80.63 106.59L81.11 116.06L9.05 75.57L9.7 68.9Z" fill="#B8D6D3" fill-opacity="1.000000" fill-rule="nonzero"></path>
&#x9;&#x9;<path id="Vector" d="M9.41 68.78C29.58 60.73 69.16 36.23 106.63 12.4L178.32 53.9C140.41 77.08 104.54 97.53 80.79 108.8C64.94 103 36.13 85.91 9.41 68.78Z" fill="#E0F3F1" fill-opacity="1.000000" fill-rule="nonzero"></path>
&#x9;&#x9;<path id="Vector" d="M115.07 17.5C113.73 18.28 112.62 19.4 111.85 20.75C111.09 22.09 110.69 23.62 110.69 25.17C110.7 26.72 111.11 28.24 111.89 29.58C112.67 30.92 113.79 32.03 115.13 32.8L142.97 48.73C146.99 51.04 151.56 52.25 156.2 52.23C160.84 52.21 165.39 50.96 169.4 48.62L169.4 47.09L115.07 17.5Z" fill="#A3CCC9" fill-opacity="1.000000" fill-rule="nonzero"></path>
&#x9;&#x9;<path id="Vector" d="M116.63 16.83C115.28 17.6 114.17 18.72 113.39 20.06C112.62 21.41 112.21 22.93 112.21 24.48C112.21 26.03 112.62 27.55 113.39 28.9C114.17 30.24 115.28 31.36 116.63 32.13L144.46 48.06C148.49 50.37 153.05 51.58 157.69 51.56C162.33 51.54 166.89 50.29 170.9 47.95L170.9 46.42L116.63 16.83Z" fill="#A3CCC9" fill-opacity="1.000000" fill-rule="nonzero"></path>
&#x9;&#x9;<path id="Vector" d="M116.63 15.28C115.28 16.05 114.17 17.17 113.39 18.51C112.62 19.85 112.21 21.38 112.21 22.93C112.21 24.48 112.62 26 113.39 27.34C114.17 28.68 115.28 29.8 116.63 30.57L144.46 46.5C148.49 48.81 153.05 50.02 157.69 50C162.34 49.98 166.89 48.74 170.9 46.39L116.63 15.28Z" fill="#B8D6D3" fill-opacity="1.000000" fill-rule="nonzero"></path>
&#x9;&#x9;<path id="Vector" d="M148.01 41.06C146.95 40.47 146.95 39.49 148.01 38.89C148.59 38.59 149.24 38.44 149.89 38.44C150.55 38.44 151.19 38.59 151.78 38.89C152.84 39.49 152.84 40.46 151.78 41.06C151.19 41.36 150.55 41.51 149.89 41.51C149.24 41.51 148.59 41.36 148.01 41.06Z" fill="#A3CCC9" fill-opacity="1.000000" fill-rule="nonzero"></path>
&#x9;&#x9;<path id="Vector" d="M148.88 40.86C148.06 40.39 148.06 39.63 148.88 39.16C149.34 38.93 149.84 38.81 150.36 38.81C150.87 38.81 151.38 38.93 151.84 39.16C152.66 39.63 152.66 40.38 151.84 40.86C151.38 41.09 150.87 41.21 150.36 41.21C149.85 41.21 149.34 41.09 148.88 40.86Z" fill="#A3CCC9" fill-opacity="1.000000" fill-rule="nonzero"></path>
&#x9;&#x9;<path id="Vector" d="M125.1 27.86C124.87 27.78 124.67 27.63 124.54 27.43C124.4 27.24 124.32 27 124.32 26.76C124.32 26.52 124.4 26.29 124.54 26.09C124.67 25.9 124.87 25.75 125.1 25.67C125.69 25.38 126.33 25.23 126.99 25.23C127.64 25.23 128.29 25.38 128.88 25.67C129.94 26.26 129.94 27.24 128.88 27.79C128.3 28.1 127.65 28.27 127 28.28C126.34 28.29 125.69 28.14 125.1 27.86Z" fill="#A3CCC9" fill-opacity="1.000000" fill-rule="nonzero"></path>
&#x9;&#x9;<path id="Vector" d="M159.6 35.57L156.91 34.02C154.09 33.89 152.13 35.46 149.07 38.57C148.31 39.63 150.13 40.78 151.77 40.12C154.28 37.03 156.25 35.99 159.6 35.57Z" fill="#E0F3F1" fill-opacity="1.000000" fill-rule="nonzero"></path>
&#x9;&#x9;<path id="Vector" d="M125.88 27.36C125.07 26.89 125.07 26.14 125.88 25.66C126.34 25.43 126.85 25.3 127.37 25.3C127.89 25.3 128.39 25.43 128.86 25.66C129.67 26.13 129.67 26.88 128.86 27.36C128.39 27.59 127.89 27.71 127.37 27.71C126.85 27.71 126.34 27.59 125.88 27.36Z" fill="#A3CCC9" fill-opacity="1.000000" fill-rule="nonzero"></path>
&#x9;&#x9;<path id="Vector" d="M136.99 22.29L134.29 20.74C131.49 20.6 129.53 22.18 126.47 25.29C125.71 26.35 127.53 27.51 129.17 26.84C131.68 23.75 133.64 22.71 136.99 22.29Z" fill="#E0F3F1" fill-opacity="1.000000" fill-rule="nonzero"></path>
&#x9;&#x9;<path id="Vector" d="M104.08 100.47L80.86 114.28L80.71 112.96L104.08 100.47Z" fill="#B8D6D3" fill-opacity="1.000000" fill-rule="nonzero"></path>
&#x9;&#x9;<path id="Vector" d="M92 106.52L80.61 113.06L76.74 109.81L80.79 111.4L92 106.52Z" fill="#A3CCC9" fill-opacity="1.000000" fill-rule="nonzero"></path>
&#x9;&#x9;<path id="Vector" d="M19.95 79.65L9.38 73.45L9.6 71.68L19.95 79.65Z" fill="#A3CCC9" fill-opacity="1.000000" fill-rule="nonzero"></path>
&#x9;&#x9;<path id="Vector" d="M89.17 104.72L80.71 111.4L76.41 107.42L80.85 108.29L89.17 104.72Z" fill="#A3CCC9" fill-opacity="1.000000" fill-rule="nonzero"></path>
&#x9;&#x9;<path id="Vector" d="M126.83 26.65C126.71 26.59 126.6 26.51 126.51 26.41C126.42 26.3 126.36 26.18 126.32 26.05C126.29 25.92 126.29 25.79 126.31 25.65C126.34 25.52 126.39 25.4 126.47 25.29C129.53 22.18 131.49 20.6 134.29 20.74L134.6 20.92C132.11 21.76 128.58 23.28 126.83 26.65Z" fill="#E0F3F1" fill-opacity="1.000000" fill-rule="nonzero"></path>
&#x9;&#x9;<path id="Vector" d="M149.07 39.59C148.94 39.44 148.87 39.25 148.87 39.06C148.87 38.86 148.94 38.67 149.07 38.53C152.02 35.52 153.96 33.97 156.62 33.99C154.19 34.79 151.98 36.67 149.07 39.59Z" fill="#E0F3F1" fill-opacity="1.000000" fill-rule="nonzero"></path>
&#x9;</g>
</svg>